<svg width="40" height="32" viewBox="0 0 40 32" fill="none" xmlns="http://www.w3.org/2000/svg">
<path d="M18.65 26.3H21.65V24.05H24.05C24.55 24.05 24.9583 23.85 25.275 23.45C25.5917 23.05 25.75 22.6 25.75 22.1V16.35C25.75 15.8167 25.5917 15.3583 25.275 14.975C24.9583 14.5917 24.55 14.4 24.05 14.4H17.25V10.95H25.75V7.95H21.65V5.7H18.65V7.95H16.2C15.7 7.95 15.25 8.15 14.85 8.55C14.45 8.95 14.25 9.41667 14.25 9.95V15.65C14.25 16.1833 14.45 16.6083 14.85 16.925C15.25 17.2417 15.7 17.4 16.2 17.4H22.75V21.05H14.25V24.05H18.65V26.3ZM3 32C2.2 32 1.5 31.7 0.9 31.1C0.3 30.5 0 29.8 0 29V3C0 2.2 0.3 1.5 0.9 0.9C1.5 0.3 2.2 0 3 0H37C37.8 0 38.5 0.3 39.1 0.9C39.7 1.5 40 2.2 40 3V29C40 29.8 39.7 30.5 39.1 31.1C38.5 31.7 37.8 32 37 32H3ZM3 29H37V3H3V29ZM3 29V3V29Z" fill="#FDFDFD"/>
</svg>
