<svg width="84" height="84" viewBox="0 0 84 84" fill="none" xmlns="http://www.w3.org/2000/svg">
<circle cx="42" cy="42" r="42" fill="#D9D9D9"/>
<path d="M23.321 53.3213L25.0535 51.5888L30.8285 52.4138L41.1823 42.06L22.496 31.8712L24.8885 29.4787L47.8236 35.4187L57.5587 25.6837C58.1362 25.1062 58.8237 24.8174 59.6212 24.8174C60.4187 24.8174 61.1062 25.1062 61.6837 25.6837C62.2612 26.2612 62.5499 26.9487 62.5499 27.7462C62.5499 28.5437 62.2612 29.2312 61.6837 29.8087L51.9486 39.5437L57.8887 62.4789L55.4961 64.8714L45.3073 46.185L34.9535 56.5388L35.7785 62.3139L34.046 64.0464L30.2098 57.1576L23.321 53.3213Z" fill="#00903B"/>
</svg>
