<svg width="84" height="84" viewBox="0 0 84 84" fill="none" xmlns="http://www.w3.org/2000/svg">
<circle cx="42" cy="42" r="42" fill="#D9D9D9"/>
<path fill-rule="evenodd" clip-rule="evenodd" d="M69.3644 34.1518C69.3336 31.8969 67.4806 30.0939 65.2256 30.1247L26.6641 30.6516C22.4666 30.709 18.6615 33.1331 16.8356 36.9132L15.7643 39.1314C15.0158 40.6808 14.6384 42.3831 14.6619 44.1036L14.7275 48.8998C14.7583 51.1547 16.6113 52.9577 18.8662 52.9269L65.5285 52.2893C67.7835 52.2585 69.5865 50.4055 69.5557 48.1505L69.3644 34.1518ZM65.2735 33.6243C65.5956 33.6199 65.8603 33.8775 65.8647 34.1997L66.056 48.1983C66.0604 48.5205 65.8028 48.7852 65.4807 48.7896L18.8184 49.4273C18.4962 49.4317 18.2316 49.1741 18.2271 48.8519L18.1616 44.0558C18.1455 42.8785 18.4038 41.7138 18.9158 40.6536L19.9871 38.4356C21.2366 35.8491 23.8399 34.1906 26.712 34.1513L65.2735 33.6243Z" fill="#00903B"/>
<path fill-rule="evenodd" clip-rule="evenodd" d="M62.397 36.5805C62.3838 35.6141 61.5896 34.8414 60.6232 34.8546L51.2907 34.9821C50.3243 34.9953 49.5516 35.7895 49.5648 36.7559L49.7561 50.7545C49.7693 51.7209 50.5635 52.4937 51.5299 52.4805L60.8623 52.3529C61.8287 52.3397 62.6015 51.5456 62.5883 50.5792L62.397 36.5805ZM58.9212 38.3782L59.0647 48.8772L53.2319 48.9569L53.0884 38.4579L58.9212 38.3782Z" fill="#00903B"/>
<path fill-rule="evenodd" clip-rule="evenodd" d="M46.0659 36.8037C46.0527 35.8373 45.2585 35.0645 44.2922 35.0777L34.9597 35.2053C33.9933 35.2185 33.2206 36.0126 33.2338 36.979L33.3294 43.9784C33.3426 44.9447 34.1368 45.7175 35.1032 45.7043L44.4356 45.5768C45.402 45.5636 46.1748 44.7694 46.1616 43.803L46.0659 36.8037ZM42.5901 38.6013L42.638 42.101L36.8052 42.1807L36.7574 38.681L42.5901 38.6013Z" fill="#00903B"/>
<path fill-rule="evenodd" clip-rule="evenodd" d="M26.7297 30.6506C25.7633 30.6638 24.9905 31.458 25.0037 32.4244L25.0834 38.2572C25.0878 38.5793 24.8303 38.844 24.5081 38.8484L17.5088 38.9441C16.5424 38.9573 15.7697 39.7514 15.7829 40.7178C15.7961 41.6842 16.5902 42.4569 17.5566 42.4437L24.556 42.3481C26.8109 42.3173 28.6139 40.4643 28.5831 38.2093L28.5034 32.3765C28.4902 31.4101 27.696 30.6374 26.7297 30.6506Z" fill="#00903B"/>
<path fill-rule="evenodd" clip-rule="evenodd" d="M69.6518 55.15C69.6386 54.1836 68.8445 53.4109 67.8781 53.4241L16.5496 54.1255C15.5832 54.1387 14.8104 54.9329 14.8236 55.8993C14.8368 56.8656 15.631 57.6384 16.5974 57.6252L67.9259 56.9238C68.8923 56.9106 69.665 56.1164 69.6518 55.15Z" fill="#00903B"/>
<path fill-rule="evenodd" clip-rule="evenodd" d="M60.8146 48.8534C59.8482 48.8666 59.0755 49.6608 59.0887 50.6271L59.1525 55.2934C59.1657 56.2597 59.9598 57.0325 60.9262 57.0193C61.8926 57.0061 62.6653 56.2119 62.6521 55.2455L62.5884 50.5793C62.5752 49.6129 61.781 48.8402 60.8146 48.8534Z" fill="#00903B"/>
<path fill-rule="evenodd" clip-rule="evenodd" d="M46.8156 49.0445C45.8492 49.0577 45.0765 49.8519 45.0897 50.8183L45.1534 55.4845C45.1666 56.4509 45.9608 57.2236 46.9272 57.2104C47.8936 57.1972 48.6663 56.403 48.6531 55.4367L48.5893 50.7704C48.5761 49.8041 47.782 49.0313 46.8156 49.0445Z" fill="#00903B"/>
<path fill-rule="evenodd" clip-rule="evenodd" d="M32.8175 49.2362C31.8512 49.2494 31.0784 50.0435 31.0916 51.0099L31.1554 55.6761C31.1686 56.6425 31.9628 57.4153 32.9291 57.4021C33.8955 57.3889 34.6683 56.5947 34.6551 55.6283L34.5913 50.9621C34.5781 49.9957 33.7839 49.223 32.8175 49.2362Z" fill="#00903B"/>
<path fill-rule="evenodd" clip-rule="evenodd" d="M18.8185 49.4273C17.8521 49.4405 17.0794 50.2347 17.0926 51.201L17.1564 55.8673C17.1696 56.8336 17.9637 57.6064 18.9301 57.5932C19.8965 57.58 20.6692 56.7858 20.656 55.8194L20.5923 51.1532C20.5791 50.1868 19.7849 49.4141 18.8185 49.4273Z" fill="#00903B"/>
</svg>
