<svg width="84" height="84" viewBox="0 0 84 84" fill="none" xmlns="http://www.w3.org/2000/svg">
<circle cx="42" cy="42" r="42" fill="#00903B"/>
<path d="M16.665 17.6469L67.3288 17.6367V67.3596H16.6774L16.665 17.6469Z" fill="#00903B"/>
<path d="M63.3147 22.2124C63.2775 21.6499 63.1081 21.2448 62.8065 20.985C62.5975 20.8079 62.3271 20.7184 62.0525 20.7355H22.6102C22.2373 20.7545 21.8781 20.8808 21.5766 21.0987C21.275 21.3167 21.0441 21.617 20.9121 21.9628V21.9731L24.5376 62.7812C24.7607 64.2274 26.2191 64.3542 26.2336 64.3542H35.7962L35.7446 66.0419L48.4348 66.0971L48.4864 64.1926L57.9891 64.2479C60.0115 63.7324 59.9061 62.0304 59.9061 62.014L63.3147 22.2124Z" fill="white"/>
<path d="M48.4333 66.5434L35.7349 66.4881C35.6763 66.4879 35.6183 66.476 35.5645 66.4532C35.5106 66.4304 35.4619 66.3971 35.4213 66.3554C35.3807 66.3136 35.3489 66.2642 35.3279 66.21C35.3069 66.1559 35.297 66.0981 35.299 66.0401L35.3362 64.8005H26.2322C25.8707 64.8005 24.3502 64.4548 24.1003 62.8592C24.1003 62.8592 24.1003 62.8408 24.1003 62.8306L20.4748 22.0225C20.4699 21.9759 20.4734 21.9288 20.4851 21.8834C20.6343 21.4452 20.913 21.0616 21.285 20.7822C21.6571 20.5028 22.1053 20.3405 22.5716 20.3164H62.0284H62.1172C62.4745 20.3208 62.8192 20.4481 63.0922 20.6764C63.4868 21.0058 63.712 21.5192 63.7554 22.1963C63.7554 22.2188 63.7554 22.2413 63.7554 22.2618L60.3509 62.0389C60.3509 62.3519 60.2889 64.1234 58.1033 64.6798C58.067 64.6895 58.0294 64.6943 57.9918 64.6941L48.9023 64.6409L48.8609 66.122C48.8578 66.2331 48.8117 66.3388 48.7321 66.4172C48.6525 66.4956 48.5456 66.5408 48.4333 66.5434ZM36.1955 65.6228L48.0057 65.674L48.047 64.1929C48.0502 64.0801 48.0978 63.9729 48.1796 63.8942C48.2614 63.8155 48.3709 63.7715 48.485 63.7715L57.936 63.8247C59.4792 63.4156 59.4771 62.1882 59.4709 62.045V61.9898L62.8733 22.2107C62.8423 21.8015 62.7225 21.4947 62.5221 21.3269C62.4072 21.2288 62.2607 21.1744 62.1089 21.1735H62.0552H22.6294C22.3577 21.1886 22.0953 21.2773 21.8709 21.4299C21.6465 21.5825 21.4687 21.7931 21.3569 22.0388L24.97 62.7467C25.1373 63.7695 26.1227 63.9229 26.2528 63.9393H35.7948C35.8535 63.939 35.9117 63.9504 35.9659 63.9728C36.0201 63.9953 36.0692 64.0283 36.1103 64.0699C36.1513 64.1115 36.1835 64.1608 36.2049 64.215C36.2263 64.2692 36.2364 64.3271 36.2348 64.3852L36.1955 65.6228Z" fill="white"/>
<path d="M28.3242 25.0356H53.1365C53.1365 25.0356 46.6665 27.787 41.44 34.6153H28.3531L28.3242 25.0356Z" fill="#EF8200"/>
<path d="M28.3537 35.0507C28.2376 35.0507 28.1262 35.005 28.044 34.9237C27.9619 34.8423 27.9158 34.732 27.9158 34.617L27.8848 25.0353C27.8847 24.9784 27.896 24.9219 27.918 24.8693C27.94 24.8166 27.9722 24.7688 28.0128 24.7285C28.0532 24.6876 28.1014 24.6551 28.1546 24.633C28.2078 24.6108 28.265 24.5995 28.3227 24.5996H53.1371C53.238 24.5997 53.3358 24.6343 53.4139 24.6975C53.492 24.7607 53.5457 24.8487 53.5658 24.9466C53.586 25.0445 53.5714 25.1463 53.5245 25.2348C53.4777 25.3232 53.4014 25.393 53.3086 25.4322C53.2445 25.4608 46.8798 28.2265 41.7897 34.8768C41.7488 34.9302 41.696 34.9735 41.6355 35.0033C41.5749 35.0331 41.5082 35.0486 41.4405 35.0486H28.3537V35.0507ZM28.7669 25.469L28.7937 34.1813H41.2257C43.4219 31.3728 46.045 28.9188 49.0014 26.9071C49.8959 26.2934 50.6871 25.827 51.3213 25.4751L28.7669 25.469Z" fill="white"/>
<path d="M57.0124 24.5996V35.0466C57.0124 35.0466 50.5299 37.2231 48.7719 44.078H38.54C38.54 44.078 41.7255 30.1514 57.0124 24.5996Z" fill="#E30613"/>
<path d="M48.7633 44.5139H38.5396C38.4737 44.5136 38.4086 44.4987 38.3493 44.4703C38.2899 44.4419 38.2377 44.4006 38.1965 44.3497C38.1553 44.2987 38.1261 44.2392 38.1112 44.1756C38.0962 44.112 38.0958 44.0459 38.1099 43.9821C38.143 43.8368 38.9569 40.3777 41.6755 36.1862C43.2506 33.747 45.1754 31.5475 47.3895 29.6566C50.1859 27.2853 53.3919 25.4336 56.8529 24.1907C56.9193 24.1671 56.9904 24.1596 57.0603 24.1689C57.1301 24.1782 57.1967 24.204 57.2544 24.2441C57.3121 24.2842 57.3593 24.3374 57.3919 24.3994C57.4245 24.4613 57.4415 24.53 57.4417 24.5998V35.0468C57.4407 35.137 57.4117 35.2248 57.3584 35.298C57.3052 35.3713 57.2303 35.4264 57.1442 35.4559C55.9358 35.9197 54.8038 36.5587 53.7852 37.3522C51.5083 39.0408 49.8851 41.4518 49.1868 44.1825C49.1634 44.2765 49.109 44.3601 49.0324 44.4201C48.9557 44.4801 48.861 44.5131 48.7633 44.5139ZM39.1119 43.6445H48.4265C49.2351 40.8542 50.9365 38.3992 53.275 36.6485C54.2832 35.8752 55.3896 35.2363 56.5658 34.7481V25.2278C50.7523 27.4449 45.8026 31.4371 42.4337 36.626C41.0026 38.8014 39.8846 41.1636 39.1119 43.6445Z" fill="white"/>
<path d="M37.2256 53.1094H47.881C47.881 53.1094 47.1105 62.7933 47.662 65.2951H36.5604C36.5604 65.2951 36.3538 57.352 37.2256 53.1094Z" fill="#E30613"/>
<path d="M47.6641 65.729H36.5604C36.4461 65.729 36.3362 65.6848 36.2544 65.6056C36.1725 65.5265 36.1252 65.4188 36.1225 65.3056C36.1122 64.9803 35.9159 57.2642 36.7918 53.0318C36.8122 52.9338 36.8661 52.8458 36.9443 52.7824C37.0226 52.7191 37.1204 52.6844 37.2215 52.6841H47.881C47.9416 52.6841 48.0016 52.6967 48.057 52.7209C48.1125 52.745 48.1623 52.7804 48.2033 52.8246C48.2442 52.8688 48.2755 52.921 48.295 52.9778C48.3146 53.0346 48.322 53.0948 48.3169 53.1546C48.3169 53.2487 47.5649 62.7199 48.0835 65.1808C48.0961 65.2212 48.1024 65.2633 48.1021 65.3056C48.0994 65.4188 48.052 65.5265 47.9702 65.6056C47.8883 65.6848 47.7785 65.729 47.6641 65.729ZM36.9943 64.8617H47.1477C46.8068 62.1389 47.2695 55.4007 47.4079 53.5432H37.5933C36.9137 57.1845 36.9736 63.219 36.9943 64.8617Z" fill="white"/>
<path d="M26.8779 44.9252L30.9042 44.9048V46.4308H29.0925V47.8975H30.7947V49.3151H29.0925V50.7839H30.8525V52.4143H26.8903L26.8779 44.9252Z" fill="#00903B"/>
<path d="M36.4014 44.9189H40.409V46.4163H38.5973V47.8646H40.3016V49.2557H38.5973V50.6999H40.3553V52.3057H36.4014V44.9189Z" fill="#00903B"/>
<path d="M46.9521 44.9048H50.9577V46.4308H49.1419V47.8975H50.8482V49.3151H49.1419V50.7839H50.904V52.4143H46.9521V44.9048Z" fill="#00903B"/>
<path d="M31.9854 44.9639H34.0925V50.7837H35.5757V52.3608H31.9998L31.9854 44.9639Z" fill="#00903B"/>
<path d="M40.9609 44.9253H42.8202L43.6713 50.4628L44.7 44.9253H46.2886L45.0244 52.3611H41.8905L40.9609 44.9253Z" fill="#00903B"/>
<path d="M51.8477 44.9637H53.992V45.3954C53.992 45.3954 55.1447 44.8001 55.9131 44.7428C55.9131 44.7428 56.8469 44.6365 57.4542 45.9395V52.3607H55.3595V46.7557C55.3595 46.7557 54.684 45.8454 53.9878 46.8089V52.3137H51.8477V44.9637Z" fill="#00903B"/>
<path d="M49.9284 53.4166C49.5945 53.4127 49.2725 53.5395 49.0323 53.7692C48.7921 53.999 48.6531 54.3133 48.6455 54.644C48.6442 54.8055 48.6769 54.9656 48.7417 55.1139C48.8064 55.2622 48.9017 55.3955 49.0215 55.5052C49.2655 55.7375 49.5909 55.8674 49.9294 55.8674C50.268 55.8674 50.5934 55.7375 50.8374 55.5052C50.956 55.3948 51.0505 55.2615 51.1152 55.1136C51.1798 54.9657 51.2131 54.8062 51.2131 54.645C51.2131 54.4838 51.1798 54.3243 51.1152 54.1764C51.0505 54.0284 50.956 53.8952 50.8374 53.7848C50.7182 53.6667 50.5764 53.5733 50.4203 53.51C50.2643 53.4468 50.097 53.4151 49.9284 53.4166ZM51.046 54.644C51.039 54.9314 50.9176 55.2044 50.7083 55.4036C50.499 55.6028 50.2187 55.7121 49.9284 55.7077C49.6349 55.7089 49.3525 55.5966 49.1413 55.3947C49.0387 55.2978 48.957 55.1814 48.9012 55.0523C48.8454 54.9233 48.8166 54.7843 48.8166 54.644C48.8166 54.5036 48.8454 54.3646 48.9012 54.2356C48.957 54.1066 49.0387 53.9901 49.1413 53.8932C49.3545 53.6925 49.6374 53.5805 49.9315 53.5805C50.2257 53.5805 50.5085 53.6925 50.7217 53.8932C50.824 53.9902 50.9055 54.1068 50.9613 54.2358C51.017 54.3648 51.0458 54.5036 51.046 54.644Z" fill="#00903B"/>
<path d="M50.5714 55.3498L50.1996 54.6727C50.2773 54.6336 50.3473 54.5809 50.4062 54.5172C50.4655 54.4428 50.4969 54.3502 50.495 54.2554C50.4925 54.1825 50.4724 54.1112 50.4365 54.0475C50.4006 53.9838 50.3498 53.9296 50.2884 53.8892C50.2373 53.8575 50.1805 53.836 50.1211 53.8258C50.0158 53.8098 49.9094 53.8023 49.803 53.8033H49.3691V53.9833L49.3815 54.6891V55.3928C49.3813 55.4043 49.3833 55.4158 49.3875 55.4266C49.3917 55.4374 49.398 55.4472 49.4061 55.4556C49.4141 55.4639 49.4238 55.4706 49.4345 55.4753C49.4451 55.48 49.4566 55.4825 49.4683 55.4828C49.4805 55.483 49.4927 55.4809 49.504 55.4765C49.5154 55.4722 49.5258 55.4656 49.5346 55.4573C49.5435 55.4489 49.5505 55.4389 49.5555 55.4278C49.5604 55.4168 49.5631 55.4048 49.5633 55.3928V54.6891H50.0075L50.4062 55.4337C50.4176 55.4539 50.4361 55.4693 50.4582 55.4768C50.4803 55.4843 50.5044 55.4836 50.526 55.4746C50.5487 55.4639 50.5664 55.445 50.5756 55.4219C50.5848 55.3987 50.5848 55.373 50.5756 55.3498M49.5757 54.5172V53.9833H49.8815C49.9795 53.9738 50.0778 53.9976 50.1603 54.0508C50.1924 54.074 50.2178 54.1051 50.2341 54.141C50.2504 54.1768 50.257 54.2162 50.2533 54.2554C50.2568 54.2925 50.2499 54.3298 50.2336 54.3633C50.2172 54.3969 50.1919 54.4253 50.1603 54.4456C50.074 54.4992 49.9728 54.5243 49.8711 54.5172H49.5757Z" fill="#00903B"/>
<path d="M63.3147 22.2124C63.2775 21.6499 63.1081 21.2448 62.8065 20.985C62.5975 20.8079 62.3271 20.7184 62.0525 20.7355H22.6102C22.2373 20.7545 21.8781 20.8808 21.5766 21.0987C21.275 21.3167 21.0441 21.617 20.9121 21.9628V21.9731L24.5376 62.7812C24.7607 64.2274 26.2191 64.3542 26.2336 64.3542H35.7962L35.7446 66.0419L48.4348 66.0971L48.4864 64.1926L57.9891 64.2479C60.0115 63.7324 59.9061 62.0304 59.9061 62.014L63.3147 22.2124Z" fill="white"/>
<path d="M28.3242 25.0356H53.1365C53.1365 25.0356 46.6665 27.787 41.44 34.6153H28.3531L28.3242 25.0356Z" fill="#EF7D00"/>
<path d="M57.0124 24.5996V35.0466C57.0124 35.0466 50.5299 37.2231 48.7719 44.078H38.54C38.54 44.078 41.7255 30.1514 57.0124 24.5996Z" fill="#E30613"/>
<path d="M37.2257 53.1094H47.8811C47.8811 53.1094 47.7076 60.6782 47.6622 65.2951H36.5605C36.5605 65.2951 36.5605 57.2579 37.2257 53.1094Z" fill="#E30613"/>
<path d="M26.8779 44.9252L30.9042 44.9048V46.4308H29.0925V47.8975H30.7947V49.3151H29.0925V50.7839H30.8525V52.4143H26.8903L26.8779 44.9252Z" fill="#00903B"/>
<path d="M36.4014 44.9189H40.409V46.4163H38.5973V47.8646H40.3016V49.2557H38.5973V50.6999H40.3553V52.3057H36.4014V44.9189Z" fill="#00903B"/>
<path d="M46.9521 44.9048H50.9577V46.4308H49.1419V47.8975H50.8482V49.3151H49.1419V50.7839H50.904V52.4143H46.9521V44.9048Z" fill="#00903B"/>
<path d="M31.9854 44.9639H34.0925V50.7837H35.5757V52.3608H31.9998L31.9854 44.9639Z" fill="#00903B"/>
<path d="M40.9609 44.9253H42.8202L43.6713 50.4628L44.7 44.9253H46.2886L45.0244 52.3611H41.8905L40.9609 44.9253Z" fill="#00903B"/>
<path d="M51.8477 44.9637H53.992V45.3954C53.992 45.3954 55.1447 44.8001 55.9131 44.7428C55.9131 44.7428 56.8469 44.6365 57.4542 45.9395V52.3607H55.3595V46.7557C55.3595 46.7557 54.684 45.8454 53.9878 46.8089V52.3137H51.8477V44.9637Z" fill="#00903B"/>
<path d="M49.7115 53.4166C49.4335 53.4133 49.1654 53.5189 48.9657 53.7105C48.766 53.9021 48.651 54.1641 48.6455 54.4394C48.6449 54.5739 48.6722 54.7071 48.7259 54.8306C48.7796 54.9541 48.8584 55.0654 48.9575 55.1574C49.1613 55.3489 49.4315 55.4557 49.7125 55.4557C49.9935 55.4557 50.2637 55.3489 50.4676 55.1574C50.5661 55.0654 50.6446 54.9545 50.6983 54.8313C50.7519 54.7082 50.7796 54.5755 50.7796 54.4414C50.7796 54.3073 50.7519 54.1746 50.6983 54.0515C50.6446 53.9284 50.5661 53.8175 50.4676 53.7255C50.2662 53.5287 49.9943 53.4191 49.7115 53.4207M50.639 54.4435C50.6336 54.6822 50.533 54.9091 50.3592 55.0747C50.1855 55.2403 49.9526 55.331 49.7115 55.3272C49.4677 55.3288 49.2328 55.2364 49.0566 55.0694C48.9718 54.9887 48.9043 54.8918 48.8581 54.7846C48.812 54.6774 48.7883 54.5621 48.7883 54.4455C48.7883 54.329 48.812 54.2137 48.8581 54.1065C48.9043 53.9992 48.9718 53.9024 49.0566 53.8216C49.2332 53.6536 49.4686 53.5598 49.7135 53.5598C49.9584 53.5598 50.1939 53.6536 50.3705 53.8216C50.4541 53.9011 50.5209 53.9964 50.567 54.1017C50.6131 54.2071 50.6376 54.3205 50.639 54.4353V54.4435Z" fill="#00903B"/>
<path d="M50.2441 55.0222L49.9363 54.4617C49.9976 54.4264 50.0533 54.3823 50.1016 54.3307C50.1504 54.2688 50.1766 54.1924 50.1759 54.1139C50.1749 54.0535 50.1592 53.9942 50.1301 53.9412C50.1009 53.8881 50.0593 53.8428 50.0086 53.8091C49.9666 53.7827 49.9194 53.7653 49.8702 53.758C49.7829 53.7428 49.6944 53.736 49.6058 53.7375H49.2422V53.8868L49.2525 54.4719V55.0569C49.2522 55.0666 49.2539 55.0762 49.2574 55.0853C49.2609 55.0943 49.2661 55.1026 49.2728 55.1096C49.2795 55.1167 49.2876 55.1223 49.2965 55.1262C49.3054 55.1302 49.3151 55.1324 49.3248 55.1326C49.3351 55.1329 49.3454 55.1312 49.355 55.1275C49.3647 55.1238 49.3735 55.1183 49.3809 55.1113C49.3884 55.1043 49.3944 55.0959 49.3986 55.0865C49.4028 55.0772 49.4051 55.0671 49.4054 55.0569V54.4719H49.7814L50.1119 55.0856C50.1211 55.1025 50.1364 55.1154 50.1547 55.1218C50.173 55.1283 50.1931 55.1277 50.211 55.1203C50.23 55.1114 50.2449 55.0957 50.2526 55.0763C50.2602 55.0569 50.2602 55.0354 50.2524 55.016M49.426 54.3246V53.8807H49.6822C49.7633 53.8741 49.8444 53.8935 49.9136 53.9359C49.9392 53.9565 49.9596 53.9828 49.9729 54.0127C49.9862 54.0426 49.992 54.0752 49.99 54.1078C49.992 54.1383 49.986 54.1689 49.9727 54.1965C49.9593 54.2241 49.9389 54.2478 49.9136 54.2653C49.8411 54.3092 49.7567 54.3299 49.6719 54.3246H49.426Z" fill="#00903B"/>
</svg>
