<svg width="84" height="84" viewBox="0 0 84 84" fill="none" xmlns="http://www.w3.org/2000/svg">
<circle cx="42" cy="42" r="42" fill="#D9D9D9"/>
<path d="M32.3498 65.95C31.3498 65.95 30.4998 65.6 29.7998 64.9C29.0998 64.2 28.7498 63.35 28.7498 62.35C28.7498 61.35 29.0998 60.5 29.7998 59.8C30.4998 59.1 31.3498 58.75 32.3498 58.75C33.3498 58.75 34.1998 59.1 34.8998 59.8C35.5998 60.5 35.9498 61.35 35.9498 62.35C35.9498 63.35 35.5998 64.2 34.8998 64.9C34.1998 65.6 33.3498 65.95 32.3498 65.95ZM52.3498 65.95C51.3498 65.95 50.4998 65.6 49.7998 64.9C49.0998 64.2 48.7498 63.35 48.7498 62.35C48.7498 61.35 49.0998 60.5 49.7998 59.8C50.4998 59.1 51.3498 58.75 52.3498 58.75C53.3498 58.75 54.1998 59.1 54.8998 59.8C55.5998 60.5 55.9498 61.35 55.9498 62.35C55.9498 63.35 55.5998 64.2 54.8998 64.9C54.1998 65.6 53.3498 65.95 52.3498 65.95ZM29.7498 32.95L35.2498 44.35H49.6498L55.8998 32.95H29.7498ZM28.2498 29.95H57.6998C58.4665 29.95 59.0498 30.3 59.4498 31C59.8498 31.7 59.8498 32.4 59.4498 33.1L52.6998 45.25C52.3331 45.8833 51.8581 46.3917 51.2748 46.775C50.6915 47.1583 50.0498 47.35 49.3498 47.35H34.1998L31.3998 52.55H55.9498V55.55H31.8498C30.4498 55.55 29.4415 55.0833 28.8248 54.15C28.2081 53.2167 28.2165 52.1667 28.8498 51L32.0498 45.1L24.4498 29H20.5498V26H26.3998L28.2498 29.95ZM35.2498 44.35H49.6498H35.2498Z" fill="#00903B"/>
</svg>
