<svg width="711" height="316" viewBox="0 0 711 316" fill="none" xmlns="http://www.w3.org/2000/svg">
<path d="M589.218 122.45C589.218 122.45 589.272 132.076 588.606 135.347C587.939 138.619 585.581 170.655 612.605 176.809C612.605 176.809 627.032 179.866 628.308 164.361C628.308 164.361 629.718 156.644 624.278 152.439" stroke="white" stroke-width="4" stroke-miterlimit="10" stroke-linecap="round"/>
<path d="M54.81 275.291C89.88 275.291 106.05 250.091 106.05 219.431V115.901H68.46V216.491C68.46 236.861 61.95 242.951 49.77 242.951C42.21 242.951 34.23 238.121 28.77 227.411L3.36 246.521C14.49 265.841 30.45 275.291 54.81 275.291Z" fill="#204B2C"/>
<path d="M121.687 272.351H152.627L168.437 209.111C171.667 196.531 175.067 181.741 178.127 168.481H178.807C182.207 181.401 185.437 196.531 188.837 209.111L204.647 272.351H236.607L197.337 145.701H160.957L121.687 272.351ZM148.377 243.281H209.577V219.821H148.377V243.281ZM364.273 272.351H397.033L413.773 205.391C417.193 192.071 420.793 176.411 424.033 162.371H424.753C428.353 176.051 431.773 192.071 435.373 205.391L452.113 272.351H485.953L444.373 138.251H405.853L364.273 272.351ZM392.533 241.571H457.333V216.731H392.533V241.571Z" fill="#D13A3A"/>
<path d="M251.613 272.351H285.623V225.421H302.153C332.173 225.421 358.013 210.601 358.013 176.971C358.013 142.011 332.363 130.801 301.393 130.801H251.613V272.351ZM285.623 198.631V157.781H299.493C315.833 157.781 324.953 162.721 324.953 176.971C324.953 190.841 316.973 198.631 300.443 198.631H285.623Z" fill="#6D502B"/>
<path d="M501.741 272.351H535.741V222.951C535.741 204.951 532.741 184.551 531.141 167.951H532.141L546.741 200.551L583.541 272.351H619.941V123.351H585.941V172.751C585.941 190.551 588.941 211.951 590.741 227.751H589.741L575.141 194.751L538.141 123.351H501.741V272.351Z" fill="#2B3D88"/>
<path d="M646.175 22.8753C645.849 22.5159 645.442 22.24 644.987 22.0712C644.273 21.8272 643.54 21.6439 642.796 21.5233C641.099 21.2469 639.384 21.0962 637.664 21.0722C635.479 21.0111 633.293 21.0614 631.113 21.223C627.375 21.5776 624.667 19.0571 624.667 19.0571C611.613 3.56453 610.479 3.22072 603.831 2.37595C601.73 2.10627 600.585 4.86561 600.007 6.43218C598.845 9.58134 598.311 12.9969 597.872 16.2907C597.418 19.7358 597.13 23.1974 596.935 26.6607C596.87 27.8109 596.817 28.9615 596.776 30.1123C596.8 31.0474 596.705 31.9815 596.493 32.8925C596.214 33.687 595.886 34.463 595.508 35.2158C594.923 36.5211 594.321 38.0796 593.301 39.1222C591.965 40.492 570.183 74.7349 598.117 94.5261C598.117 94.5261 641.171 118.874 681.323 104.535C681.323 104.535 705.602 94.9713 694.785 54.8491C694.785 54.8491 693.996 48.3739 696.496 36.4385C696.496 36.4385 703.3 11.8583 690.531 15.5888C688.004 16.5121 685.516 17.5695 683.075 18.6893C678.896 20.61 674.411 22.7143 671.091 25.939C670.115 26.8903 668.938 26.574 667.713 26.3784C666.57 26.1961 665.484 25.7544 664.539 25.0875C663.719 24.5146 662.79 24.1144 661.81 23.9115C660.188 23.4547 658.549 23.0508 656.892 22.7339C655.14 22.352 653.35 22.1702 651.556 22.1918C650.851 22.1915 650.15 22.3033 649.48 22.5229C648.812 22.7748 648.225 23.4444 647.501 23.5002C647.239 23.5625 646.963 23.5203 646.731 23.3825C646.535 23.2249 646.35 23.0555 646.175 22.8753V22.8753Z" stroke="white" stroke-width="4" stroke-miterlimit="10"/>
<path d="M602.443 29.2121C602.443 29.2121 602.757 8.8437 605.77 10.2337C608.783 11.6237 612.482 18.4282 613.835 24.5419" stroke="#ED6E29" stroke-width="4" stroke-miterlimit="10" stroke-linecap="round"/>
<path d="M689.081 40.5366C689.081 40.5366 694.862 21.0033 691.571 21.4304C688.28 21.8575 682.723 27.2526 679.598 32.678" stroke="#ED6E29" stroke-width="4" stroke-miterlimit="10" stroke-linecap="round"/>
<path d="M612.867 65.2394C615.84 65.6935 618.617 63.662 619.069 60.7019C619.521 57.7418 617.477 54.9741 614.504 54.52C611.531 54.0659 608.755 56.0974 608.302 59.0574C607.85 62.0175 609.894 64.7853 612.867 65.2394Z" stroke="#6EB751" stroke-width="4" stroke-miterlimit="10" stroke-linecap="round"/>
<path d="M669.298 73.8585C672.271 74.3126 675.047 72.2811 675.499 69.321C675.951 66.361 673.908 63.5932 670.935 63.1391C667.962 62.685 665.185 64.7165 664.733 67.6766C664.281 70.6367 666.325 73.4044 669.298 73.8585Z" stroke="#6EB751" stroke-width="4" stroke-miterlimit="10" stroke-linecap="round"/>
<path d="M645.83 73.5628C644.847 72.0308 643.526 70.4173 641.877 69.5727C640.727 68.9705 639.512 68.8745 638.396 69.5953C636.1 71.0786 635.851 73.6039 637.813 75.4303C639.883 77.3586 642.948 76.5004 645.205 75.4079" stroke="#FDFDF8" stroke-width="4" stroke-miterlimit="10" stroke-linecap="round"/>
<path d="M594.554 61.4275C594.554 61.4275 598.995 61.7689 601.04 56.6818C603.085 51.5948 615.621 34.4452 625.441 56.7837C625.441 56.7837 626.409 64.8601 631.194 66.2648" stroke="#FDFDF8" stroke-width="4" stroke-miterlimit="10" stroke-linecap="round"/>
<path d="M651.19 70.0779C651.19 70.0779 655.631 70.4193 657.676 65.3322C659.721 60.2452 672.257 43.0956 682.077 65.4341C682.077 65.4341 683.045 73.5105 687.83 74.9151" stroke="#FDFDF8" stroke-width="4" stroke-miterlimit="10" stroke-linecap="round"/>
<path d="M603.269 64.4726C603.269 64.4726 609.943 73.3095 623.579 66.8753" stroke="#FDFDF8" stroke-width="4" stroke-miterlimit="10" stroke-linecap="round"/>
<path d="M679.269 75.0959C679.269 75.0959 670.931 82.3736 658.902 73.2645" stroke="#FDFDF8" stroke-width="4" stroke-miterlimit="10" stroke-linecap="round"/>
<path d="M603.013 73.5481C603.013 73.5481 613.139 74.1949 616.785 75.6516" stroke="#FDFDF8" stroke-width="4" stroke-miterlimit="10" stroke-linecap="round"/>
<path d="M599.276 81.1873C599.276 81.1873 609.643 77.4822 617.218 79.6628" stroke="#FDFDF8" stroke-width="4" stroke-miterlimit="10" stroke-linecap="round"/>
<path d="M661.788 83.3401C661.788 83.3401 669.183 83.1902 674.84 84.9968" stroke="#FDFDF8" stroke-width="4" stroke-miterlimit="10" stroke-linecap="round"/>
<path d="M661.285 86.6367C661.285 86.6367 667.61 86.2807 678.32 93.2605" stroke="#FDFDF8" stroke-width="4" stroke-miterlimit="10" stroke-linecap="round"/>
<path d="M629.557 76.8989C630.064 77.9701 630.665 78.9951 631.351 79.9622C632.317 81.3252 633.72 83.0749 635.53 83.2277C635.983 83.2499 636.435 83.167 636.85 82.9854C637.265 82.8038 637.632 82.5285 637.921 82.1813C638.229 81.8405 638.506 81.4732 638.749 81.0836C638.935 80.788 639.084 80.4609 639.259 80.155C639.288 80.0866 639.342 80.0321 639.411 80.0033C639.652 79.9378 640.722 81.4319 640.924 81.6504C641.476 82.2602 642.118 82.7814 642.83 83.1954C643.683 83.7064 644.685 83.9122 645.671 83.7786C646.99 83.5537 648.015 82.6524 648.806 81.6516C649.102 81.2741 649.374 80.8784 649.621 80.4667" stroke="#FDFDF8" stroke-width="4" stroke-miterlimit="10" stroke-linecap="round"/>
<path d="M593.422 94.9175C593.422 94.9175 634.369 123.102 679.959 108.638" stroke="#ED6E29" stroke-width="4" stroke-miterlimit="10" stroke-linecap="round"/>
<path d="M678.876 115.728C678.876 115.728 700.098 120.995 705.807 144.646C705.807 144.646 708.045 157.727 697.124 157.658C697.124 157.658 689.862 158.618 684.182 144.23C678.502 129.843 676.106 133.865 676.106 133.865" stroke="white" stroke-width="4" stroke-miterlimit="10" stroke-linecap="round"/>
<path d="M642.059 154.818C642.059 154.818 625.23 166.25 638.307 179.383C644.618 185.738 653.258 183.641 660.008 179.213C666.197 175.151 671.562 169.701 674.106 162.635C675.372 159.088 676.487 155.462 677.561 151.852C678.123 149.967 679.699 146.655 679.224 144.633" stroke="white" stroke-width="4" stroke-miterlimit="10" stroke-linecap="round"/>
<path d="M629.96 115.234C629.96 115.234 637.965 111.731 640.185 119.38C642.405 127.03 634.426 127.5 634.426 127.5" stroke="#F1E625" stroke-width="4" stroke-miterlimit="10" stroke-linecap="round"/>
<path d="M589.713 96.2618C589.713 96.2618 584.451 117.056 598.049 126.217C611.646 135.378 625.816 136.531 630.264 130.348C632.505 127.232 631.054 123.27 629.031 120.449C627.965 118.914 626.602 117.607 625.022 116.604C623.442 115.601 621.677 114.922 619.831 114.608C617.529 114.185 615.287 113.485 613.154 112.522C608.613 110.481 604.349 107.518 601.537 103.352" stroke="white" stroke-width="4" stroke-miterlimit="10" stroke-linecap="round"/>
<path d="M700.5 170.351C700.5 168.142 698.709 166.351 696.5 166.351C694.29 166.351 692.5 168.142 692.5 170.351L700.5 170.351ZM700.5 280.507C700.5 278.298 698.709 276.507 696.5 276.507C694.29 276.507 692.5 278.298 692.5 280.507L700.5 280.507ZM692.5 265.82C692.5 268.029 694.29 269.82 696.5 269.82C698.709 269.82 700.5 268.029 700.5 265.82L692.5 265.82ZM700.5 251.132C700.5 248.923 698.709 247.132 696.5 247.132C694.29 247.132 692.5 248.923 692.5 251.132L700.5 251.132ZM692.5 236.445C692.5 238.654 694.29 240.445 696.5 240.445C698.709 240.445 700.5 238.654 700.5 236.445L692.5 236.445ZM700.5 221.757C700.5 219.548 698.709 217.757 696.5 217.757C694.29 217.757 692.5 219.548 692.5 221.757L700.5 221.757ZM692.5 207.07C692.5 209.279 694.29 211.07 696.5 211.07C698.709 211.07 700.5 209.279 700.5 207.07L692.5 207.07ZM700.5 192.382C700.5 190.173 698.709 188.382 696.5 188.382C694.29 188.382 692.5 190.173 692.5 192.382L700.5 192.382ZM692.5 177.695C692.5 179.904 694.29 181.695 696.5 181.695C698.709 181.695 700.5 179.904 700.5 177.695L692.5 177.695ZM700.5 287.851L700.5 280.507L692.5 280.507L692.5 287.851L700.5 287.851ZM700.5 265.82L700.5 251.132L692.5 251.132L692.5 265.82L700.5 265.82ZM700.5 236.445L700.5 221.757L692.5 221.757L692.5 236.445L700.5 236.445ZM700.5 207.07L700.5 192.382L692.5 192.382L692.5 207.07L700.5 207.07ZM700.5 177.695L700.5 170.351L692.5 170.351L692.5 177.695L700.5 177.695Z" fill="#848181"/>
</svg>
