<svg width="40" height="28" viewBox="0 0 40 28" fill="none" xmlns="http://www.w3.org/2000/svg">
<path d="M19.76 28C16.4267 28 13.5933 27.775 11.26 27.325C8.92667 26.875 7.76 26.3333 7.76 25.7V24H3.01C2.14333 24 1.41 23.675 0.81 23.025C0.21 22.375 -0.0566667 21.6167 0.01 20.75L1.56 2.75C1.62667 1.98333 1.94333 1.33333 2.51 0.8C3.07667 0.266667 3.74333 0 4.51 0H35.01C35.7767 0 36.4433 0.266667 37.01 0.8C37.5767 1.33333 37.8933 1.98333 37.96 2.75L39.51 20.75C39.5767 21.6167 39.31 22.375 38.71 23.025C38.11 23.675 37.3767 24 36.51 24H31.76V25.7C31.76 26.3333 30.5933 26.875 28.26 27.325C25.9267 27.775 23.0933 28 19.76 28ZM3.01 21H36.51L35.01 3H4.51L3.01 21Z" fill="white"/>
</svg>
