<svg width="40" height="40" viewBox="0 0 40 40" fill="none" xmlns="http://www.w3.org/2000/svg">
<circle cx="20" cy="20" r="20" fill="#007D46"/>
<path d="M16.4346 20.2881L13.0654 19.4824L14.2812 8.67188H26.2637V12.085H17.7529L17.2256 16.8164C17.5088 16.6504 17.9385 16.4746 18.5146 16.2891C19.0908 16.0938 19.7354 15.9961 20.4482 15.9961C21.4834 15.9961 22.4014 16.1572 23.2021 16.4795C24.0029 16.8018 24.6816 17.2705 25.2383 17.8857C25.8047 18.501 26.2344 19.2529 26.5273 20.1416C26.8203 21.0303 26.9668 22.0361 26.9668 23.1592C26.9668 24.1064 26.8203 25.0098 26.5273 25.8691C26.2344 26.7188 25.79 27.4805 25.1943 28.1543C24.5986 28.8184 23.8516 29.3408 22.9531 29.7217C22.0547 30.1025 20.9902 30.293 19.7598 30.293C18.8418 30.293 17.9531 30.1562 17.0938 29.8828C16.2441 29.6094 15.4775 29.2041 14.7939 28.667C14.1201 28.1299 13.5781 27.4805 13.168 26.7188C12.7676 25.9473 12.5576 25.0684 12.5381 24.082H16.7275C16.7861 24.6875 16.9424 25.21 17.1963 25.6494C17.46 26.0791 17.8066 26.4111 18.2363 26.6455C18.666 26.8799 19.1689 26.9971 19.7451 26.9971C20.2822 26.9971 20.7412 26.8945 21.1221 26.6895C21.5029 26.4844 21.8105 26.2012 22.0449 25.8398C22.2793 25.4688 22.4502 25.0391 22.5576 24.5508C22.6748 24.0527 22.7334 23.5156 22.7334 22.9395C22.7334 22.3633 22.665 21.8408 22.5283 21.3721C22.3916 20.9033 22.1816 20.498 21.8984 20.1562C21.6152 19.8145 21.2539 19.5508 20.8145 19.3652C20.3848 19.1797 19.8818 19.0869 19.3057 19.0869C18.5244 19.0869 17.9189 19.209 17.4893 19.4531C17.0693 19.6973 16.7178 19.9756 16.4346 20.2881Z" fill="white"/>
</svg>
