<svg width="40" height="40" viewBox="0 0 40 40" fill="none" xmlns="http://www.w3.org/2000/svg">
<circle cx="20" cy="20" r="20" fill="#007D46"/>
<path d="M23.3486 8.45215H23.9639V11.8213H23.7148C22.6016 11.8213 21.6104 11.9873 20.7412 12.3193C19.8721 12.6514 19.1348 13.125 18.5293 13.7402C17.9336 14.3457 17.4746 15.0781 17.1523 15.9375C16.8398 16.7969 16.6836 17.7588 16.6836 18.8232V22.3682C16.6836 23.1299 16.7568 23.8037 16.9033 24.3896C17.0596 24.9658 17.2793 25.4492 17.5625 25.8398C17.8555 26.2207 18.1973 26.5088 18.5879 26.7041C18.9785 26.8896 19.418 26.9824 19.9062 26.9824C20.3652 26.9824 20.7803 26.8848 21.1514 26.6895C21.5322 26.4941 21.8545 26.2207 22.1182 25.8691C22.3916 25.5078 22.5967 25.0879 22.7334 24.6094C22.8799 24.1211 22.9531 23.5889 22.9531 23.0127C22.9531 22.4365 22.8799 21.9043 22.7334 21.416C22.5967 20.9277 22.3916 20.5078 22.1182 20.1562C21.8447 19.7949 21.5127 19.5166 21.1221 19.3213C20.7314 19.126 20.292 19.0283 19.8037 19.0283C19.1396 19.0283 18.5537 19.1846 18.0459 19.4971C17.5479 19.7998 17.1572 20.1904 16.874 20.6689C16.5908 21.1475 16.4395 21.6504 16.4199 22.1777L15.1455 21.3574C15.1748 20.6055 15.3311 19.8926 15.6143 19.2188C15.9072 18.5449 16.3076 17.9492 16.8154 17.4316C17.333 16.9043 17.9531 16.4941 18.6758 16.2012C19.3984 15.8984 20.2139 15.7471 21.1221 15.7471C22.1182 15.7471 22.9922 15.9375 23.7441 16.3184C24.5059 16.6992 25.1406 17.2217 25.6484 17.8857C26.1562 18.5498 26.5371 19.3164 26.791 20.1855C27.0449 21.0547 27.1719 21.9824 27.1719 22.9688C27.1719 24.0039 27.001 24.9658 26.6592 25.8545C26.3271 26.7432 25.8438 27.5195 25.209 28.1836C24.584 28.8477 23.832 29.3652 22.9531 29.7363C22.0742 30.1074 21.0879 30.293 19.9941 30.293C18.8613 30.293 17.8311 30.0879 16.9033 29.6777C15.9854 29.2578 15.1943 28.6719 14.5303 27.9199C13.8662 27.168 13.3535 26.2744 12.9922 25.2393C12.6406 24.2041 12.4648 23.0713 12.4648 21.8408V20.2002C12.4648 18.4814 12.7139 16.9092 13.2119 15.4834C13.7197 14.0479 14.4473 12.8076 15.3945 11.7627C16.3418 10.708 17.4844 9.89258 18.8223 9.31641C20.1602 8.74023 21.6689 8.45215 23.3486 8.45215Z" fill="white"/>
</svg>
