<svg width="40" height="40" viewBox="0 0 40 40" fill="none" xmlns="http://www.w3.org/2000/svg">
<circle cx="20" cy="20" r="20" fill="#007D46"/>
<path d="M27.0547 26.7041V30H12.4648V27.1875L19.3643 19.79C20.0576 19.0186 20.6045 18.3398 21.0049 17.7539C21.4053 17.1582 21.6934 16.626 21.8691 16.1572C22.0547 15.6787 22.1475 15.2246 22.1475 14.7949C22.1475 14.1504 22.04 13.5986 21.8252 13.1396C21.6104 12.6709 21.293 12.3096 20.873 12.0557C20.4629 11.8018 19.9551 11.6748 19.3496 11.6748C18.7051 11.6748 18.1484 11.8311 17.6797 12.1436C17.2207 12.4561 16.8691 12.8906 16.625 13.4473C16.3906 14.0039 16.2734 14.6338 16.2734 15.3369H12.04C12.04 14.0674 12.3428 12.9053 12.9482 11.8506C13.5537 10.7861 14.4082 9.94141 15.5117 9.31641C16.6152 8.68164 17.9238 8.36426 19.4375 8.36426C20.9316 8.36426 22.1914 8.6084 23.2168 9.09668C24.252 9.5752 25.0332 10.2686 25.5605 11.1768C26.0977 12.0752 26.3662 13.1494 26.3662 14.3994C26.3662 15.1025 26.2539 15.791 26.0293 16.4648C25.8047 17.1289 25.4824 17.793 25.0625 18.457C24.6523 19.1113 24.1543 19.7754 23.5684 20.4492C22.9824 21.123 22.333 21.8213 21.6201 22.5439L17.9141 26.7041H27.0547Z" fill="white"/>
</svg>
