<svg width="40" height="40" viewBox="0 0 40 40" fill="none" xmlns="http://www.w3.org/2000/svg">
<circle cx="20" cy="20" r="20" fill="#007D46"/>
<path d="M16.7861 17.5049H19.042C19.7646 17.5049 20.3604 17.3828 20.8291 17.1387C21.2979 16.8848 21.6445 16.5332 21.8691 16.084C22.1035 15.625 22.2207 15.0928 22.2207 14.4873C22.2207 13.9404 22.1133 13.457 21.8984 13.0371C21.6934 12.6074 21.376 12.2754 20.9463 12.041C20.5166 11.7969 19.9746 11.6748 19.3203 11.6748C18.8027 11.6748 18.3242 11.7773 17.8848 11.9824C17.4453 12.1875 17.0938 12.4756 16.8301 12.8467C16.5664 13.2178 16.4346 13.667 16.4346 14.1943H12.2012C12.2012 13.0225 12.5137 12.002 13.1387 11.1328C13.7734 10.2637 14.623 9.58496 15.6875 9.09668C16.752 8.6084 17.9238 8.36426 19.2031 8.36426C20.6484 8.36426 21.9131 8.59863 22.9971 9.06738C24.0811 9.52637 24.9258 10.2051 25.5312 11.1035C26.1367 12.002 26.4395 13.1152 26.4395 14.4434C26.4395 15.1172 26.2832 15.7715 25.9707 16.4062C25.6582 17.0312 25.209 17.5977 24.623 18.1055C24.0469 18.6035 23.3438 19.0039 22.5137 19.3066C21.6836 19.5996 20.751 19.7461 19.7158 19.7461H16.7861V17.5049ZM16.7861 20.7129V18.5303H19.7158C20.8779 18.5303 21.8984 18.6621 22.7773 18.9258C23.6562 19.1895 24.3936 19.5703 24.9893 20.0684C25.585 20.5566 26.0342 21.1377 26.3369 21.8115C26.6396 22.4756 26.791 23.2129 26.791 24.0234C26.791 25.0195 26.6006 25.9082 26.2197 26.6895C25.8389 27.4609 25.3018 28.1152 24.6084 28.6523C23.9248 29.1895 23.124 29.5996 22.2061 29.8828C21.2881 30.1562 20.2871 30.293 19.2031 30.293C18.3047 30.293 17.4209 30.1709 16.5518 29.9268C15.6924 29.6729 14.9111 29.2969 14.208 28.7988C13.5146 28.291 12.958 27.6562 12.5381 26.8945C12.1279 26.123 11.9229 25.21 11.9229 24.1553H16.1562C16.1562 24.7021 16.293 25.1904 16.5664 25.6201C16.8398 26.0498 17.2158 26.3867 17.6943 26.6309C18.1826 26.875 18.7246 26.9971 19.3203 26.9971C19.9941 26.9971 20.5703 26.875 21.0488 26.6309C21.5371 26.377 21.9082 26.0254 22.1621 25.5762C22.4258 25.1172 22.5576 24.585 22.5576 23.9795C22.5576 23.1982 22.416 22.5732 22.1328 22.1045C21.8496 21.626 21.4443 21.2744 20.917 21.0498C20.3896 20.8252 19.7646 20.7129 19.042 20.7129H16.7861Z" fill="white"/>
</svg>
