<svg width="39" height="168" viewBox="0 0 39 168" fill="none" xmlns="http://www.w3.org/2000/svg">
<path fill-rule="evenodd" clip-rule="evenodd" d="M37.9565 55C37.3802 55 36.913 55.9199 36.913 57.0545L36.913 160.985L32.7813 152.85C32.3738 152.048 31.7131 152.048 31.3056 152.85C30.8981 153.653 30.8981 154.953 31.3056 155.756L37.2187 167.398C37.5171 167.986 37.9659 168.162 38.3558 167.844C38.7458 167.526 39 166.776 39 165.945L39 57.0545C39 55.9199 38.5328 55 37.9565 55Z" fill="white" fill-opacity="0.8"/>
<path d="M19.234 105.69C19.234 103.224 17.776 101.604 15.778 101.604C13.762 101.604 12.988 102.9 12.322 104.376L11.422 106.374C11.008 107.292 10.414 108.66 8.776 108.66C7.3 108.66 6.328 107.454 6.328 105.636C6.328 104.304 6.886 103.242 7.696 102.486L7.246 102.072C6.418 102.828 5.698 104.052 5.698 105.636C5.698 107.76 6.958 109.344 8.848 109.344C10.774 109.344 11.548 107.814 12.052 106.68L12.952 104.682C13.546 103.368 14.086 102.27 15.832 102.27C17.47 102.27 18.604 103.602 18.604 105.69C18.604 107.256 17.902 108.642 16.786 109.596L17.254 110.046C18.406 109.056 19.234 107.616 19.234 105.69ZM19.234 95.136C19.234 93.444 18.532 92.292 17.38 91.302L16.948 91.716C18.046 92.706 18.604 93.732 18.604 95.1C18.604 98.016 16.174 99.834 12.43 99.834C8.686 99.834 6.328 98.016 6.328 95.028C6.328 93.804 6.886 92.814 7.696 92.112L7.246 91.698C6.454 92.364 5.698 93.516 5.698 95.028C5.698 98.34 8.308 100.536 12.43 100.536C16.552 100.536 19.234 98.358 19.234 95.136ZM19 89.4274L19 88.7614L12.844 88.7614L12.844 85.8094C12.844 83.2354 11.62 81.5974 9.298 81.5974C6.886 81.5974 5.932 83.2354 5.932 85.8094L5.932 89.4274L19 89.4274ZM12.268 88.7614L6.526 88.7614L6.526 86.0434C6.526 83.6494 7.264 82.3174 9.298 82.3174C11.314 82.3174 12.268 83.6494 12.268 86.0434L12.268 88.7614ZM19 82.1734L19 81.3994L12.574 85.2334L12.646 85.9894L19 82.1734ZM19.234 75.2818C19.234 72.1858 16.552 69.9718 12.43 69.9718C8.308 69.9718 5.698 72.1858 5.698 75.2818C5.698 78.3778 8.308 80.5918 12.43 80.5918C16.552 80.5918 19.234 78.3778 19.234 75.2818ZM18.604 75.2818C18.604 78.0358 16.174 79.8898 12.43 79.8898C8.686 79.8898 6.328 78.0358 6.328 75.2818C6.328 72.5278 8.686 70.6738 12.43 70.6738C16.174 70.6738 18.604 72.5278 18.604 75.2818ZM19 67.7782L19 60.9922L18.406 60.9922L18.406 67.1122L5.932 67.1122L5.932 67.7782L19 67.7782ZM19 59.5376L19 52.7516L18.406 52.7516L18.406 58.8716L5.932 58.8716L5.932 59.5376L19 59.5376ZM19 48.2419L19 45.2899C19 41.2579 16.318 39.4399 12.43 39.4399C8.524 39.4399 5.932 41.2579 5.932 45.3079L5.932 48.2419L19 48.2419ZM18.406 47.5759L6.526 47.5759L6.526 45.3979C6.526 41.6899 8.974 40.1419 12.43 40.1419C15.868 40.1419 18.406 41.6899 18.406 45.3979L18.406 47.5759ZM19.234 32.7955C19.234 29.6995 16.552 27.4855 12.43 27.4855C8.308 27.4855 5.698 29.6995 5.698 32.7955C5.698 35.8915 8.308 38.1055 12.43 38.1055C16.552 38.1055 19.234 35.8915 19.234 32.7955ZM18.604 32.7955C18.604 35.5495 16.174 37.4035 12.43 37.4035C8.686 37.4035 6.328 35.5495 6.328 32.7955C6.328 30.0415 8.686 28.1875 12.43 28.1875C16.174 28.1875 18.604 30.0415 18.604 32.7955ZM19 23.8472L19 23.1452L9.676 20.6792C8.632 20.4452 7.768 20.1572 6.742 19.9232L6.742 19.8512C7.768 19.5992 8.632 19.3652 9.676 19.1312L19 16.6292L19 15.9272L5.932 12.9392L5.932 13.6052L13.816 15.3512C15.238 15.6392 16.66 15.9272 18.1 16.2332L18.1 16.3232C16.66 16.6832 15.238 17.0252 13.816 17.3852L5.932 19.5092L5.932 20.2652L13.816 22.3712C15.238 22.7312 16.66 23.0912 18.1 23.4152L18.1 23.4872C16.66 23.8112 15.238 24.1172 13.816 24.4412L5.932 26.1692L5.932 26.8712L19 23.8472ZM19 11.2329L19 10.6029L10.486 10.6029C9.24399 10.6029 8.128 10.6389 6.90399 10.6749L6.90399 10.6029L9.47799 9.10889L19 3.36689L19 2.64689L5.932 2.64689L5.932 3.29489L14.338 3.29489C15.562 3.29489 16.768 3.25889 18.028 3.18689L18.028 3.27689L15.454 4.77089L5.932 10.5309L5.932 11.2329L19 11.2329Z" fill="white" fill-opacity="0.8"/>
</svg>
