<svg width="32" height="38" viewBox="0 0 32 38" fill="none" xmlns="http://www.w3.org/2000/svg">
<path d="M0 27V8C0 6.63333 0.316666 5.44167 0.95 4.425C1.58333 3.40833 2.55833 2.575 3.875 1.925C5.19167 1.275 6.85833 0.791667 8.875 0.475C10.8917 0.158333 13.2667 0 16 0C18.8667 0 21.3083 0.15 23.325 0.45C25.3417 0.75 26.9917 1.225 28.275 1.875C29.5583 2.525 30.5 3.35 31.1 4.35C31.7 5.35 32 6.56667 32 8V27C32 28.9667 31.325 30.625 29.975 31.975C28.625 33.325 26.9667 34 25 34L28 37V38H24.5L20.5 34H11.5L7.5 38H4V37L7 34C5.03333 34 3.375 33.325 2.025 31.975C0.675 30.625 0 28.9667 0 27ZM16 3C12 3 9.11667 3.25833 7.35 3.775C5.58333 4.29167 4.31667 5.03333 3.55 6H28.6C28 5.1 26.725 4.375 24.775 3.825C22.825 3.275 19.9 3 16 3ZM3 16.75H14.7V9H3V16.75ZM25 19.75H3H29H25ZM17.7 16.75H29V9H17.7V16.75ZM8.75 28.25C9.51667 28.25 10.1667 27.9833 10.7 27.45C11.2333 26.9167 11.5 26.2667 11.5 25.5C11.5 24.7333 11.2333 24.0833 10.7 23.55C10.1667 23.0167 9.51667 22.75 8.75 22.75C7.98333 22.75 7.33333 23.0167 6.8 23.55C6.26667 24.0833 6 24.7333 6 25.5C6 26.2667 6.26667 26.9167 6.8 27.45C7.33333 27.9833 7.98333 28.25 8.75 28.25ZM23.25 28.25C24.0167 28.25 24.6667 27.9833 25.2 27.45C25.7333 26.9167 26 26.2667 26 25.5C26 24.7333 25.7333 24.0833 25.2 23.55C24.6667 23.0167 24.0167 22.75 23.25 22.75C22.4833 22.75 21.8333 23.0167 21.3 23.55C20.7667 24.0833 20.5 24.7333 20.5 25.5C20.5 26.2667 20.7667 26.9167 21.3 27.45C21.8333 27.9833 22.4833 28.25 23.25 28.25ZM7 31.25H25C26.1333 31.25 27.0833 30.8333 27.85 30C28.6167 29.1667 29 28.1667 29 27V19.75H3V27C3 28.1667 3.38333 29.1667 4.15 30C4.91667 30.8333 5.86667 31.25 7 31.25ZM16 6H28.6H3.55H16Z" fill="white"/>
</svg>
