<svg width="34" height="34" viewBox="0 0 34 34" fill="none" xmlns="http://www.w3.org/2000/svg">
<path d="M4.9 34C3.53333 34 2.375 33.525 1.425 32.575C0.475 31.625 0 30.4667 0 29.1C0 27.7333 0.475 26.575 1.425 25.625C2.375 24.675 3.53333 24.2 4.9 24.2C6.26667 24.2 7.425 24.675 8.375 25.625C9.325 26.575 9.8 27.7333 9.8 29.1C9.8 30.4667 9.325 31.625 8.375 32.575C7.425 33.525 6.26667 34 4.9 34ZM29.5 34C29.5 29.9333 28.725 26.1083 27.175 22.525C25.625 18.9417 23.5167 15.8167 20.85 13.15C18.1833 10.4833 15.0583 8.375 11.475 6.825C7.89167 5.275 4.06667 4.5 0 4.5V0C4.7 0 9.10833 0.891667 13.225 2.675C17.3417 4.45833 20.9417 6.89167 24.025 9.975C27.1083 13.0583 29.5417 16.6583 31.325 20.775C33.1083 24.8917 34 29.3 34 34H29.5ZM17.6 34C17.6 28.7333 15.9833 24.4167 12.75 21.05C9.51667 17.6833 5.26667 16 0 16V11.5C3.23333 11.5 6.2 12.0667 8.9 13.2C11.6 14.3333 13.925 15.9 15.875 17.9C17.825 19.9 19.35 22.275 20.45 25.025C21.55 27.775 22.1 30.7667 22.1 34H17.6Z" fill="white"/>
</svg>
