<svg version="1.1" id="レイヤー_1" xmlns="http://www.w3.org/2000/svg" xmlns:xlink="http://www.w3.org/1999/xlink" x="0" y="0" viewBox="0 0 458 434" xml:space="preserve"><style type="text/css">.st2,.st7{stroke:#b2c5eb}.st2{fill-rule:evenodd;clip-rule:evenodd;fill:#dbedff}.st7{fill:#daeaf8}</style><g id="_x30_2_x5F_kansai-railway"><g id="Yoshinoyama_PC" transform="translate(-849 -803)"><g id="image-_x2F_-positionmap" transform="translate(849 804)"><rect id="Rectangle" y="-1" width="458" height="434" fill-rule="evenodd" clip-rule="evenodd" fill="#fff"/><path id="Line-6" d="M314 348l-21-115c-193.3 0-293 .1-293 .1S83.8 251.3 273 348h41z" fill-rule="evenodd" clip-rule="evenodd" fill="#eef7ff"/><g id="Group-21" transform="translate(120 134)"><g id="Group"><path id="Combined-Shape" class="st2" d="M89.1 241.5c.3.7.2 1.1.1 1.5s-.1.9.1 1.4c.1.5.9 2.6 2 3.2 1.1.6 2.9 1.1 3.4 1.2.5.1 1.7.3 1.9.1.2-.2.5-1.4 1.1-1.6.5-.2 1.4-.8 2.1-.5s1.8 1.4 2 2.1c.1.6.4 1.6-.1 2s-.9.6-1.1.9c-.2.2-.2.5-.5.7s-2.2.9-1.8 1.6c.4.6.6.9 1.6.9 1-.1.9-.2 1.4-.2s1.6-.2 1.9.1c.3.2.8 1.6 1.1 2.2.3.6.4 1.2.9 1.7s1.4 1.8 1.1 2.4-.6 1-.6 1.4.1.7-.2.9c-.3.2-2.2 1.8-3.1 3.4s-3 6.6-3.5 7.8c-.5 1.3-1.5 5.2-1.7 6.5-.1.5-.2 1.5-.3 2.4l-.1.6c-.1 1.1-.3 2.2-.4 2.6-.2.8-.6 2.9-1.1 3.4-.4.5-.6.9-1.3.8-.6-.2-.8-.5-1.5-.8s-1.2-.6-1.6-.4c-.5.3-.8.3-.8.9s-.2 3.2-.9 3.7-1.7 1.7-2.5 2c-.8.2-1.8.6-2.3 1-.1 0-.1.1-.2.1l-.2.1c-.4.3-.7.6-.8.3 0-.4.1-.6-.1-.7-.1-.2-.2-.3.3-.7.5-.4 1.6-2.3 1.6-3-.1-.7-.3-2.2-.5-3-.3-.8-.5-2.1-.5-2.3-.1-.2-.1-.5-.6-.5s-1.3-.3-1.1-.6c.2-.3.6-.5 1-.6.4 0 .8 0 .8.2s.1.3.3 0c.2-.3.9-1.2.7-1.6-.2-.4-1-.8-2.2.1s-2.5 2.3-2.2 3.7c.3 1.4 1.1 2.7 1.5 3.2s1.1 1.1 1 1.3c0 .2-.6 2.1-1.8 1.5-1.2-.6-2-1.2-3.1-1.4-1.1-.2-2.7-1-3-1.5-.4-.5-1-1.3-.4-1.5s2.6-1.2 2.7-2 .2-2.1-.4-2.9c-.5-.7-1.2-1.2-1.5-1.4-.3-.1-.5 0-.4-.4s.5-1.9.4-2.7c-.2-.8-.5-1.4-.6-1.8 0-.5-.7-1.5-.8-2-.1-.5-.3-1.8.2-1.6.5.2 1.5.9 2.2.9.6 0 1.7-.3 2.1-1.1s2.1-3.8 2.6-5.1c.5-1.1 1.2-2.8 1.3-3 0 0-.6 0-.7.1s-.7.1-1 .3c-.3.2-.4.3-.5.2-.1-.1-.1-.4-.3-.1-.2.3-.5.8-.6.4-.1-.3.4-1.1 1-1.6.5-.5 1.8-1.4 1.7-2.3-.2-.8-1.3-2.3-1.7-3-.4-.7-1.4-2.4-1.7-2.9-.3-.5-1.5-1.8-2.1-1.5s-.8.4-.9 1.1-.2 1.8-.3 2.2c-.1.5 0 .8-.4 1.3-.5.5-1.2.7-.8.9.5.2.9.1 1.7.2.8.1 1.6.3 2 .7.4.4 1.2 1.6 0 3-1.1 1.4-2.5 1.7-2.8.9-.3-.7-.3-1.9-.5-2.3 0-.1-.1-.2-.1-.2l-.1-.2c-.1-.4-.3-.8-1-.7-1 .1-1.4.3-1.9.9s-.8.6-1.5 1.3c-.7.7-1.1.8-1.4 1.2-.3.4-.5.7-.3.1s.6-1.7.4-2.3c-.3-.6-1.2-2.1-1.6-2.7-.5-.6-1.4-1.9-1.2-2.5.3-.6.5-1.4 1.3-1.1s1.6.9 1.8 1.3c.1.4.5 1.1.5 1.6s.1 1.2.3 1.1c.2-.1.5-.4 1.1-.3s1.2.5 1.1.1-.7-1.7-1.3-2.4c-.6-.7-1.6-1.5-2.3-1.8-.6-.4-3.5-2.3-3.5-3.6 0-1.3.4-2.1 1.4-2.2.9-.1 1-.1 1 0 0 0 2.9-3.5 3.7-2.9.8.6.9 1.4 1.3 1.5s.6.2 1.1-.4c.5-.6 1.6-2.7 2.2-2.8s1 .1 1.6.3c.5.2 1.4 0 1.7-.4.3-.4.9-3.3.9-3.3s.7-1.7 2-2c1.4-.3 1.4-.5 2.2-.5.8 0 1.4-.2 2.2-.4.6-.3 2.4-.9 2.7-.2zm50.8-7c.5.3 1.1.5 1.6.4.4-.1.7-.6 1.2-.2.6.4.7.5 1 .6.3 0 .5.4.7.7.1.3.7.9 1.2 1.3s1.5.7 2 .7 1.7.1 2 .4c.3.2.7.9.4 1.6-.3.8-.4 1.5-.1 2.2.4.7.9 1.1 1 2 0 .8.2 1.9-.3 2.5-.5.7-1.2 1-1.8 1.4-.5.4-1 .9-1.4 1.1-.5.3-1.3 1-1.8 1.5s-1.4 1.6-1.8 2.3c-.4.8-.7 1.7-1 2.3-.2.6-.4 1.1-.4 1.4 0 .4 0 1.1-.1.9-.2-.2-1.4-1.3-1.6-1.9-.2-.6-1.1-1.9-2-2.8-.9-.8-2.5-1.2-3.5-1.3s-1.8-.1-2.8.6c-.9.7-1.4 1.1-2.1 1.3-.6.3-2.2.8-2.5 1.4-.3.6-.4 2.1-.7 2.5-.3.4-.9 1.7-1.3 2.2s-.9 1.2-1 1.4c-.1.2-.9.2-1.2.5-.2.3-.3.3-.3.8s-.1 1.5-.2 1.7-.3.5-.3.9-.1.7.1 1.1.7 1.3.3 1.2c-.4-.1-1-.5-1.3-.8-.2-.3-.3-.8-.6-.8-.3.1-.6.2-1.3.3-.6 0-.9-.2-1.5-.2s-1.6-.3-1.4-.5 1.2-1.4 1.2-1.6v-.2s.2-.4-1-.4-.9-.4-1.2-.5c-.4-.1-1.1.4-1.3.1-.1-.2.1-.9-.2-1.1-.3-.3-1-1.1-.7-1.5.3-.3.9-.7.9-1.3.1-.7.2-1.1.4-1.3.2-.2 1-.7.9-.9-.1-.1-1.2-1.3-1.6-1.6s-1.1-1.2-1-1.7c.2-.5.6-1.3-.1-1.5-.7-.1-1.5.3-1.9.5s-.8.5-1.3.8-1.7.4-1.1.1c.5-.4 1.9-1 2.3-1.3s1.7-1.1 2.1-1.2c.3-.1.8-.5 1.2-.9.4-.3.6-.6 1.1-1s1.2-.5 1.6-.9 1.2-.8 1.3-1.1c.1-.3.4-1.7.4-2.1 0-.4.7-1.7 1-2.2.3-.4.6-1.3 1-1.7s1.2-.8 1.5-1.2.7-1.4 1-.9.6 1.4.8 1.9c.2.5 1.2 2.2 1.5 2.3.3 0 .3 0 .9-.2.6-.3 1-.5 1.8-.6.8-.1 1.2-.1 1.4-.1s1.6.1 1.6.1 2.1-.6 2.5-1.5c.3-.9.2-1.6.2-2 0-.3-.5-1.2.2-1.3.6-.1.6.1 1.3-.5.6-.5.8-1.2 1.3-1.1.4.1.7 0 1.2-.5.4-.2 1.1-.8 1.6-.6zM258.5 89.1c.1-.2.3.2.4.3.1.1.5.3.6.3.1.1.5.4.7.5s.5.1.9.1.7.2.8.4c.2.2.8 1 .9 1.2s.9.8 1.5 1 1.4.1 1.6 0c.2 0 1.6-1.1 1.7-1.2.1-.2.3-.2.3-.2s-.1.8-.2.9c0 .2-.1.6-.2.8-.1.2-.5 2.4-.5 2.4s-.5.9-.4 1.3 0 2.6 0 3.2c0 .3 0 1.1.1 2v.5c0 1 .1 1.9.1 2.2v.2l.1.3c.2 1.1.7 3.3 1 3.7.4.5 1.2 1.2 1.6 1.6.5.4 1.4 1 1.6 1.2.3.3.8.7 1.1 1.2.3.5 1.1 1.7 1.1 2s.1 1.7.3 2c.2.3.4.6.6.8.2.2 0 .7 0 1.1s.2 1.2.5 1.5 1.1 1 1.2 1.4.5 1.9.6 2.3c.1.5.2 1 .2 1.4s-.3 2.5-.3 2.8-.2.7 0 .9.7.1.9.3c.2.2.3 1.2.1 1.6-.2.5-.3.7-.2 1 .1.3.4.7.1 1.2s-.9 1.3-1.1 1.7-.5.7-.6 1.2v.7c0 .3 0 .6-.1.7-.3.2-.7.6-.8 1 0 .4.1 1.1.1 1.2 0 .1 0 .4-.3.7s-.6.6-1.1.9c-.5.3-1-.1-1.1.2s-.3.9-.2 1c0 .1 0 .5-.3.3s-.8-.7-.7-.4c.1.4-.1.9 0 1.1.1.3.4 1 .1 1s-.4-.5-.5-.1c0 .4-.5.2-.6.1-.1-.2-.4-.4-.4-.1 0 .4-.1 1-.3 1.3-.2.3-.5.9-.4 1.4s.3.7.2.9c-.2.2-.3.5-.6.6-.4.2-.9.4-.6.6.3.2.6.2.5.5s-.1.6-.2 1c0 .4.1.7.3.9.3.3.5.5.3.7-.3.1-.2-.2-.5.1s-.5.7-.5.9-.3.4 0 .7c.3.2.5.2.6.4s-.1 0 .1.5.3.3.3.8.2 1.5-.1 1.2c-.3-.3-.7-.9-1.1-1.1-.4-.2-.9-.4-.6-.5.3-.2.7-.3.3-.5-.5-.2-.6-.3-.8-.2-.2.1-.1.2-.4-.1-.3-.2-.5-.4-1.2-.4-.6 0-1.1.3-1.4.6-.4.3-.6.4-.7.7 0 .3-.1.5-.3.6-.2 0-.3 0-.4-.4-.2-.4-.2-.6-.5-.5-.4.1-.6.2-.7.5s-.2 1.3-.5 1.9c-.3.6-.4.9-.8 1.3s-.9 1.2-.9 1.6c-.1.4-.4 1.3-.4 1.9.1.6.1 1.5.1 1.8s.6 1.7.7 1.9.4.5.5 1.1.4 1.7.4 2.6c.1.8.4 3.4.5 3.9 0 .5.2 2.1.1 2.6s-.2 1.2-.4 1.7c-.2.6-.2.5-.3 1.2-.2.7-.2 1.3-.4 1.9-.2.6-.4 1.7-.6 2.2-.3.4-.5.6-.9.9-.5.4-.9.6-1.1.9-.2.2-.3 1.2-.6 1.3-.3.1-.6.2-.7.6-.1.4-.5 1.9-.6 2.3-.2.4-.4 1.1-.6 1.6-.2.5-.8.8-.8 1.2s-.2.9-.2 1.2c0 .4.1.9 0 1.1-.1.2-.1.5 0 .7s.3.7-.2 1.2-1 1-1 1.3c0 .4-.2 1.4-.1 1.8.1.5.3 1.3.5 1.5.1.2 1.2 1.6 1.4 2s.8 1.2 1.1 1.6c.3.5 1.5 2.3 1.6 2.6.2.4.7 1.2.7 1.3s.1.3-.2.2c-.3-.1-1.6-.1-2.4 0-.7.1-1.1.3-1.6.6s-1.7 1.4-2 2-1.1 1.6-1.2 2.5c-.1.9-.3 2.8-.4 3.2v.2c-.2.7-.7 2.5-1 2.6-.4 0-1.6.1-2 .2-.4.1-1.2.3-1.7.7s-.8.8-1.3 1.1c-.5.2-.9.4-1.1.9-.2.5-.4 1.5-.8 1.6-.4.1-1.2.2-1.5-.1-.1-.1-.3-.2-.5-.3l-.2-.1c-.4-.2-.7-.3-.5-.5.4-.4 1-.7 1.1-1.4s0-2.5-.1-2.9c0-.4-.4-1.9-.4-2.1 0-.2 0-.5.2-.7s.6-.5.9-.7c.3-.1.5-.2.5-.5.1-.3.7-1 .9-1.2.2-.3.6-.7.9-1 .3-.3 1.3-1.5.8-2s-1.3-.9-2.1-.9c-.7 0-1.6.2-2 .6-.4.4-1.2 1.5-1.5 1.8-.3.4-.6 1-.9 1.4-.2.4-.8.9-.6 1.3l.2.3c.3.4.6 1.1.7 1.4.1.4.4 1.9-.2 2.6-.5.7-1.4 1.2-1.3.4.1-.8-.6-1.9-.8-2.2s-1.4-.8-1.9-.9c-.5-.1-1.3-.1-1.8 0s-1.5.3-2 .6-1.3.8-1.4 1c-.1.2-.2.5-.1.9s.3.8.1.7-1.2.6-1.2 1.1.1 1.2.2 1.5c.1.3.5.9.6 1 0 .2.2 1.5-.8 2.6-1 1.2-1.4 2.5-1.7 2.9-.4.5-1.2 1.2-1.7 1s-1.3-.8-1.6-.9c-.3-.1-.5-.7-.4-1.3s.2-1.8.2-2.3-.1-1.2-.1-1.7.3-1.2.8-1.3 1.3-.4 1.3-.8c0-.3-.9-1-1.5-1.3s-1.8-.4-2.7-.2c-.8.2-1.6.8-1.8 1.1-.3.2-.5.2-.4.7s.5.8.1 1l-1.6.8c-.5.2-.9.4-1.1.7-.1.4-.4 1.3-.8 1.8s-1.3 1.1-1.4 1.6c-.1.5-.5 1.2-.4 1.6.1.4.4 1 .1.9-.2 0-.7-.2-1.2-.4l-.4-.1c-.2-.1-.5-.2-.7-.3-.8-.3-1.4-.6-2.5-.4-1 .2-1.7.4-2.3.4-.6-.1-1.9-.5-2.6-.6-.7 0-2.6 0-3.8.2s-3.5 1-4.1 1.2-2.7.3-2.6 0c.2-.3.9-1.2 1.2-1 .3.1.6.5.8 0 .3-.5 1-1 1.5-1.1s.7-.2 1 0 .3-.1.3-.5-.1-1.1-.5-1.3-.9-.5-1.1-.1c-.2.4-.1.7-.6.6-.5-.1-1.7-.1-2.3-.4-.5-.3-.8-.2-1-.5-.2-.4-.5-1.2-.6-.8-.2.4-.4.9-.2 1.6.2.6.8 1.4.5 1.4-.3.1-1.1-.2-1.7-1.3-.6-1.1-.5-1.9-.4-2.7s.3-1.6.3-1.9 0-.5-.3-.5-.3.1-.7.2c-.4.1-.6 0-.9.2-.3.2-.5.5-.7.7s-.6.8-.7 1.1c-.2.4-1.5 2.1-1.8 2.7-.3.6-.5 2-.2 2.6s1.5 1.7 2 1.9 1.6.9 2.1.9c.5.1 1.5.3 1.7.7s.9 1.2.5 1.8c-.5.5-.6.9-.9 1.4-.3.4-.7.9-.8.8-.1-.1-.4-.5-.8-.7-.3-.1-.5-.2-.8-.2s-.5-.4-.7-.1c-.2.3-.3.7-.9.8-.5.1-.7.1-1.1.2-.4.1-.6.2-.8.4s-.8.4-1.4.5c-.6.2-1.6.4-1.8.9s-.2.9-.3 1.2c-.1.2-.3.4-.6.4-.4 0-.8.1-.7.4.1.3 1.1 1.1.9 1.4-.2.4-.6.5-.8.8s-.3.4-.4.5c-.1.1-.3 0-.5.3-.2.2-.7.5-1 .7s-.8.8-.8 1.2c-.1.5-.5 1.1-.6 1.4-.2.3-.1.6-.4.9-.3.3-.8 1.1-.8 1.3s-.4.9-1.2 1.6c-.8.6-1.4 1.5-2.6 1.5-1.2 0-2.9-.5-3.8-.8-.9-.3-1.8-1.1-2-1.7-.2-.5-.5-.9-.7-1s-.7-.4-.3-.5 1.4-.2 1-.5-.7-.7-1.3-.9-1.2-.2-1.4-.5c-.2-.4-.5-1.2-1.1-1.6-.6-.3-1-.4-1.3-.4-.3-.1-.6-.2-.4-.5.2-.3.5-.5.4-.8-.2-.2-.8-.2-.3-.5.5-.2 1.7-.7 1.6-1 0-.3-.3-.6-.6-.7-.4-.1-.7.2-.6-.3.1-.5.3-1 .5-1s1 0 .9-.4-.7-1.4-1-1.5c-.3-.2-.6-1-.3-1.4s1.1-.6 1.5-.9c.4-.3 2.1-1.6 2.4-2 .3-.4.7-1.3 1-1.7s.8-.8.8-1.2-.4-.9-.4-1.1c0-.2-.5-.6-1-.8-.5-.1-1.6-.3-2-.1s-1.2 1-1.5 1c-.1 0-.5.1-.9.1.2.3.2.7.1 1-.3.4-.7.8-1.1 1.4-.3.5-.5.9-.7 1.4-.1.5-.3 2.3-.5 2.6-.3.3-.8.5-1.3.7-.5.1-2.5-.4-2.5-.9 0-.4 0-1.5.5-2 .4-.5 1.7-1.8 1.7-1.8s1.1-1 1.3-1.2.5-.7.8-1c-.1 0-.2 0-.3-.1-1-.3-2.4-1-2.7-1.4-.4-.4-1-1-1.8-1.1s-3.4-.1-3.6-.2c-.2 0-.4-.2-.8.1-.4.2-.5.6-1.5.7-1 .1-1.3 0-1.8 0s-.6.2-.8.6c-.2.3-.8 1.4-1.1 1.6-.4.2-.8.9-1.5.6-.7-.3-.8-.8-1.1-.6s-.8.7-.5.7.8-.1.9.2c0 .3-.5 1.7-1.4 1.9s-2.2.5-2.7.4c-.5-.2-.9-.2-.9-.6-.1-.4 0-.9-.3-.8-.2.2-.6.1-.9.4-.3.3-.3.6-.9.7-.6.2-1.3.6-1.8.3s-.5-.4-.7-.2c-.3.2-.6.3-.7.5-.1.3-.4 1-1.4.9-.9 0-.9-.5-1.5-.5-.5 0-2 .3-2.4.5s-1.8 1.1-2.5 1.4c-.7.3-2.1.6-2.4.8-.3.1-.8.8-1.1.9-.4.1-1.1.2-1.5.2-.5 0-.6.2-1.2.1s-.6-.8-.8-1.4c-.3-.5-.9-1.7-1.8-1.7-.9.1-1.4.8-1.7 1.2-.4.4-.9 1.1-1 1.5-.1.5 0 1.3-.2 1.6-.2.2-.5.5-.5.9s.1 1.5 0 1.8-.3.9-.6.9c-.3.1-.8 0-.7.3.1.3.4 1.1.3 1.5 0 .4 0 .5-.5.9-.6.4-1.4.7-1.2.4.2-.2.1-.7.5-.7s.6.1.6-.3-.6-.9-1.1-1-1.2-.3-1.5-.5-.7-.8-1.4-.8c-.7-.1-1 0-1.3 0s-.5-.2-.4-.4c.2-.2 0-.9-.5-.9s-2.1.2-2.8.4c-.7.2-2.2.3-2.6.4-.5.1-1.2.2-1.6.6-.4.3-.5.7-1.3.7s-1.6-.5-2.2-.8c-.7-.3-.6-.5-1.6-.6-.9 0-1.7-.1-1.7-.5s.1-1.1-.3-1.3c-.5-.2-1-.4-.8-.5s.8-.6.8-1c0-.2 0-.4-.1-.7l-.1-.3c-.1-.4-.2-.8-.1-.9.1-.2 1-1.1 1.2-1.4.2-.2.6-1.1.9-1.1.3-.1.8-.2 1.3.1s1.4.8 2 .7c.5-.1 1.6-.2 2.1-.4.5-.3 1.6-.9 1.9-1.4.4-.5 1.4-2 1.8-2.5s.9-1.2 1.6-1.3c.6-.1 1.6-.2 2.1-.3s1-.5 1.5-1c.5-.6 1.7-1.4 2-1.8.3-.4 1.3-1.1 1.6-1.4.3-.3 1.7-1.9 2.2-2.1.5-.2 2.2-1.3 2.3-1.6.2-.2 1.1-1.2 1.2-1.4s1.3-1.3 1.7-1.6c.4-.3 1.9-1.5 2-1.8s.5-1.8.8-2.1.8-.4 1.1-.5c.3-.1.7-.7 1-.7.2 0 1.2-.2 1.6-.4s1.5-.2 1.7-.3.7-.5 1.1-.8.5-.5.9-.4c.4.2 1.1.4 1.2.6.1.2.2.7 0 .9s-.8.6-.6 1c.1.4.6 1.1 1.2.9.6-.2 1.6-.5 1.9-.9.3-.4 1.5-1.4 2.3-1.4s3 .4 4 .5 2.6.1 3-.1c.4-.2 1.5-.3 2.4-.3s2.2.1 2.9-.1c.7-.2 2.2-1.1 2.6-1.3.4-.2 2.3-.9 2.9-1 .6 0 2.3-.1 3.1.1.8.1 1.6.3 2.1.2s.7-.3 1.1-.3c.4.1 1.1-.1 1.5-.3s1.9-1.1 2.4-1.1c.5-.1 2.3-.9 2.8-.5.5.3 1 1.4.7 1.6-.3.2-.7.4-1 .8-.3.4-.7 1-.4 1.3.4.3.4.2.9.7s.6 1.5 1 1.2.5-.4.4-.8c-.1-.4-.5-.6 0-.8s1.2-.5 1.6-.3c.4.2.1.5.5.4.5-.1 1.1-.1 1.5.2s1.8 1.1 2.1.9c.4-.2.9-1.1 1.5-1.3s1.5-1 1.8-1.3.9-1.4 1.5-1.3c.5.2 1.3.5 1.5.3s.1-1 .4-1.6c.3-.5-.2-1-.5-1.6s-1.9-2.2-1.6-2.9c.3-.8.8-2.2 1.2-2.6.5-.4 1.2-1.3 1.3-1.8s.1-1.1.5-1.2c.4-.1 2-1 2.2-1.3.3-.3 2.4-1.9 2.8-2.3.4-.4 2.9-3.4 3.6-4.5.1-.2.3-.5.5-.9l.3-.8s.9-2.1 1.2-3.8c.3-1.6-.3-2.3-1-3.6s-.5-2-.1-3.1 2-2.6 3.1-2.7c1.1-.1 2.4-1.1 3.2-1.4.8-.3 2.4-1.5 3.6-1.1 1.3.4 0 2.1-.4 2.6s-.4 1.5-.4 1.8-1.2.5-1.6.7c-.4.2-1.5 1.2-1.8 1.5s-1.2.1-1.7-.1c-.4-.2-.9.6-1.2 1.4s.3.9.9 1.2c.6.3 1.3-.2 1.8-.4.4-.2.4.4.4 1v.6c0 .8 0 1.6-.7 2.5-.6.9.5 1.6.5 1.6l.9.5c.4.2.7.3 1.1.4 1 .2 3 .3 3.5-.3s.8-2.4 1.2-2.7 1-.7 1.8-.9c.9-.2 1.9-.3 2.4-.5s2-.6 2.6-.9c.6-.3 1.4-.5 2.1-.9.6-.4 1.3-.7 1.6-1s.5-.9 1.1-.9 2.3.1 2.9-.6c.7-.7 2.2-2.2 2.8-2.6s1.6-.7 1.9-1.3c.4-.7.5-1.1 1-1.6.3-.3.6-.7.8-.9l.1-.1.1-.1c.1-.1.7-1.2.7-1.2.3-.7.8-1.8 1.1-2.5s.8-1.7 1.3-2.2c.4-.5 1.7-1.4 2-1.6.3-.2 2.7-1.6 3.6-1.9.9-.3 2.9-2.1 3.4-2.7.5-.6.8-2.5.8-3.1s1.4-4.4 1.6-4.8.7-2.2.9-2.6c.2-.4 1.5-1.4 1.7-1.9.2-.4 1.1-1.5 1.4-2 .3-.5.7-1.7.7-2.1 0-.4.6-1.5.7-1.9.1-.4.2-1 .3-1.5s.5-2.5.5-2.9c0-.5 1.3-1.4 1.6-1.8.3-.4.3-1.3.3-1.6 0-.4.2-1.2.4-1.7.1-.4.2-1.1.4-1.5.3-.3.2-2.3.2-2.7 0-.4-.4-1.2-.7-1.6s-.5-1.2-.6-1.6c0-.3-.5-.9-.8-1.1-.2-.2-.9 0-1.1.1-.2.1-1.2.4-1.9.5s-1.1-.9-1.2-1.2c-.1-.3.3-.8.4-.8.1 0 1.5-.2 2.1-.3.6-.1 1.4-1 1.7-1.4.4-.4 1.1-2.8 1.1-3.2.1-.5.2-2.5.1-2.9-.1-.5-.8-1-1-1.2s-.3-.7-.4-1c-.1-.3.1-.9.1-1.1v-1.1c0-.2-.4-.3-.8-.5-.4-.1-.4-.4-.6-.5-.2-.2.5-.7.6-.8.1-.2.6-.5.8-.7s.7-1 .8-1.3.6-.5.8-.6.8.2 1.2.4c.3.1.8-.3.9-.4 0-.1.8-.2 1-.3.2-.2.6-.4.6-.5s.4-1 .5-1.3.1-.9.2-1.3.2-1.2.3-1.5c0-.3.2-1.1.2-1.4s-.7-.8-.9-.9-.2-.4-.2-.6.7 0 .8 0c.2 0 .2-.4.2-.6s.1-1.1.1-1.3c0-.3.2-.7.3-.6.1 0 .6.3.9.6.3.3.5.6.8.8.3.1.7-.2.9-.4.2-.2.7-.4 1-.3.3 0 .9.5 1.1.7.2.2.3.8.2 1s-.1 1.1-.1 1.1.3 1.3.3 1.4.2 1.5.2 1.8c0 .4.3 1.3.3 1.5s.5.5.8.8c.3.2.6.1.8.1.3-.1.3-.1.5-.4.1-.3.6-.7.8-1 .2-.3.1-.6 0-1s0-.4.1-.5.3-.6.4-.9.4.2.6.2c.1 0 .6.2.7.3.1.2.5.7.6.9.1.2.7.5.9.6.2.1.7.5.8.7.1.2.5.2.8 0s.7-.8.8-1.1c.1-.3.7-1.6.8-1.8.1-.3.1-1.4.2-1.8 0-.4.3-.6.4-.9 0-.3-.1-1.2-.3-1.5-.2-.3-.7-.8-.8-.9-.1-.1-.3-.4-.4-.4-.2 0-.4.5-.4.7s-.3.4-.5.6-.5.3-.8.4-.6.3-.7.3-.6-.2-.7-.2c-.1-.1-.4.1-.5.2s-.3.3-.6.3c-.2 0-.7.1-.9.1-.2 0-.6.3-.8.4-.2.1-.6.3-.7.3s-.3-.2-.5-.3c-.2-.1 0-.8 0-1.1 0-.3.2-.7.3-1.1.1-.3.3-.9.3-1.5 0-.5.3-.6.3-.8 0-.2.3-1.2.5-1.6s.5-.6.8-.8c.2-.2.2-.8.2-1s-.6-.6-.5-.8zm-41.9 67.6c.2 0 .2.5.2.9 0 .5-.2 1.3-.4 1.8s-1.1 1.5-.8 1.9c.4.3.5.5 1 .6h.3c.4 0 .7.1.8.4.1.4-.2 2-1.2 2.9s-1.7 1.3-2.3 1.6-2 .6-2.4.6c-.3 0-.4-.4.1-.6.5-.2.8-.3.8-.8s0-1 .3-1.2.9-.8.5-1.1-.5-.6-.9-.2c-.3.3-.3.9-.6.7s-.5-.8-.5-1.1.1-.7.2-1c0-.3.3-.6.5-.9.1-.3.9-1.4.9-1.4s.7-.9 1.1-1.1c.3-.1 1-.7 1.2-.9.4-.3 1-1.1 1.2-1.1zm56-156c1.4-2 2.3 1.2 3.2 2 1.1 1.1 2.2 1.9 3.2 3.2.1.2.2.3.4.5l.7 1c.6.8 1.2 1.6 1.9 2.3 3 3 4.4 7.1 7.3 10.3 1.1 1.2 2.3 2.2 3.5 3.2 1.3 1.2 2.7 2.4 4.3 3.4 1.5.9 3.2 1.3 4.7 2.3.4.3.9.6 1.3.8 2.5 1.4 4.9 2.1 7.8 3.1 2.9 1.1 5.6 3.6 8.9 3.1s5.5-3.6 7.5-5.9c.7-.8 2.9-3.8 3-1.4.2 3.5-3.8 5.8-4.5 9-.5 2.7 2.3 4.4 2.7 6.9.2 1.1-.3 2.3-.1 3.4.2 1.1 1.1 2.1 2.2 2.4.6.2 1.6.3 2.2.1.7-.2.9-.9 1.2-1.4.4-.6.9-1.1 1.7-1.4.5-.1 1.4-.2 1.5.4.1.5-.8 1.1-1.2 1.4-1.3 1.1-2.4 2.9-4.2 3.3-1.8.4-3.6-.1-5.2 1.1-.8.6-1.2 1.5-2 2s-1.4.2-1.9-.1l-.2-.1c-.3-.2-.7-.4-1-.3-.8.1-1 1.2-1.5 1.7-.7.7-2.2.1-3-.2-1.7-.5-3.9-.9-5.6-.4-3.1 1-5.5 3.2-7.7 5.4-2.8 2.8-6.1 5.7-7.1 9.7-.3 1.3.4 2.5.1 3.9-.2 1.5-1.4 2.6-1.4 4.2-2.2-2.5-5-3.9-8-5.3l-.9-.4c-1-.5-2.1-1-3.1-1.5-1.5-.8-3-1.6-4.3-2.8-.9-.8-2.1-1.4-3.2-2-2.1-1.1-3.9-2.8-6.3-3.5-.8-.2-1.5 0-2.2.2-1.6.5-3 1.4-4.3 2.3-1.2.8-3.4 5.4-5.3 4.6-.5-.2-.6-.9-.9-1.4-.2-.5-.6-.9-.9-1.3-.7-1.1-1.4-2.2-2.6-2.9-1.4-.8-4-.6-5.2.5-1.1 1.1-2 2.8-2.2 4.3-.3 2.3 1.1 2.3 2.6 3.5 1 .8 1.5 1.5 2.8 1.5 2.5.1 3.4 1 4.9 2.8.8.9 1.1 1.5 2.2 2.1 1.2.6 2.7 1.3 1.5 2.5-.5.5-1.8 1.6-2.7 1.2-.8-.3-1.4-1-2.1-1.4-.8-.4-1.4-.3-2.3-.3-1.8 0-2.9 1.3-3.9 2.5-.7.8-.6 1.7-.8 2.6-.2.6-1.5 1.3-2 1.7-.3.2-1.6 1.7-1.8 1.7-2.1-.2-3.3-1.7-3.4-3.7 0-1.1.5-5.4 2.2-4.9 0-1.3.5-2.6.1-3.9-.2-.8-.9-1.9-1.5-2.4-.7-.5-1.5-.6-2.1-1.1-.5-.4-.7-1.1-1.2-1.6-2.1-2 .2-8 2.1-9.6 2.1-1.8 5.7-2.2 7.5-4.2.8-.9 1.5-2.2 1.7-3.5s-1.2-2.3-2-3.1c-1-1.1-1.2-3.6.7-4 2.9-.6 3.5 2.2 5.8 3 .5.2 1.1.2 1.7.2s1.3-.4 1.8-.3c.9.1 1.5 1 2.4 1.1 1.1.1 2.3-.4 3-1.2.8-.9 1.7-1.9 1.9-3.1.2-1.4-.6-1.8-1-3-.2-.8.2-1.6 0-2.5-.2-1.1-.8-1.8-.6-2.9.3-1.3 1.3-1.6 2.4-2.1 1.2-.5 1.5-1 2.3-1.9.1-.1.1-.3.1-.4l.1-.1s-.1-.2-.1-.4c.1-.2.3-1.2.3-1.5.1-1.6-.1-3.2 0-4.8.1-1.4.6-2.6 1.1-3.9.4-1 .4-2 .7-3.1.6-2.5 0-5-.5-7.4-.2-.9-.7-1.9-1.1-2.8l-.4-.7c-.6-1.2-1.2-2.5-1.3-3.8 0-1.6.7-4.5 2.6-5 1.5-.5 2.3-.6 3-1.5z"/><path id="Fill-101" class="st2" d="M4.9 260c-.1 0-.1-.2-.1-.3 0-.2.1-.3.1-.4-.1-.1-.1-.1 0-.3.1-.2-.1-.5-.2-.5s-.1-.1 0-.2c.1 0 .1-.2 0-.4s-.1-.2 0-.3c0-.1-.1-.3-.2-.4s-.2-.1-.3-.3c-.1-.2-.1-.3 0-.5s-.1-.2-.2-.2-.2 0-.3.1c-.1.2-.1-.2-.2-.3-.1-.1-.2-.2-.2-.3s-.3-.2-.4-.2c-.1 0-.1-.2-.3-.3-.1 0-.1-.2 0-.3s-.1-.1-.2-.1-.1 0-.2.1c0 .1-.1.1-.2.1s-.1.1-.2.3 0 .3.1.4c.1.1.2.1.2.2s-.1.3-.1.4c-.1.1-.2.4-.4.7-.2.3-.2.5-.3.6 0 .1 0 .2-.1.3-.1 0-.1.1-.2.3 0 .2-.1.1-.2.2s-.1.1-.2.3c-.2.1-.3.2-.3.4s-.1.2-.3.2c-.2.1-.3.2-.4.3-.1.1-.1.4-.3.4s-.3 0-.4.1-.3.2-.5.1-.2 0-.2.1.1.1.2.3c.1.2.1.6 0 .7l-.1.1c-.1.1-.2.2-.4.3-.2.2-.6.2-.8.3-.2 0-.3.1-.3.2s0 .3-.1.3c-.2 0-.2.1-.2.2s0 .1-.1.2-.1.3 0 .5.3.1.5.1c.1 0 .2.1.3.2 0 .1 0 .1.2.2.1.1-.1.1-.1 0H-3c-.1 0-.2 0-.2-.1s.1-.1 0-.2-.1 0-.1 0c0 .1-.2.1-.2-.1 0-.1-.1-.1-.2-.1s-.1.1.1.1c.1 0 .1.1-.1.2-.1.1-.3.2-.5.5l-.2.2c-.1.1-.2.1-.2.1-.1 0-.4.1-.7.3-.3.2-.3.1-.5 0-.3-.1-.2.1-.3.2-.1.1-.3.1-.4 0s-.2 0-.3 0c-.1 0-.2 0-.3-.1-.1-.1 0-.1 0-.2s-.1-.1-.2-.2-.1-.1-.2-.1h-.2c-.1 0-.1-.1-.2-.1 0-.1.1-.1.2-.1.1.1.1 0 .1-.1-.1-.1 0-.2.1-.3 0-.1.1-.3.1-.4s.1-.3.2-.3l.3-.3c.1-.1.1-.1 0-.1s-.4-.1-.5-.2-.4-.1-.6-.2c-.2-.1-.1.1-.2.1s-.1-.1-.1-.2c.1-.1.1-.2 0-.2s-.3-.1-.5-.1c-.2-.1-.3 0-.5.1s-.7.1-.9.1h-.4c-.1 0-.2.1-.3 0-.1 0-.3-.1-.4-.1-.1 0-.1-.1-.2-.2s-.1 0-.1.1-.1.2-.1.3c0 .1 0 .1-.1.2s-.1.2-.1.3c0 .1 0 .2.1.1.1 0 .1 0 .2.1s.3.3.3.4 0 .3.1.4 0 .1-.2.1-.2.1-.3.3c0 .2 0 .5.1.6 0 .1.2.2.2.3 0 .1 0 .2.1.3.1.1.2.3.2.5s.1.2.3.2c.1 0 .1 0 .3.1s.2 0 .3-.1.1-.2.1-.2h.2c.1 0 .2.1.3.2s.1.2.4.1c.2 0 .2 0 .5.3.3.2.7.2.8.3.1 0 .2.1.2.4s-.1.5-.2.7-.2.3-.3.4-.1.2-.3.4c-.1.2-.1.1-.2 0 0-.1-.1-.1-.2 0l-.3.3c-.1.1-.2 0-.3-.1-.1-.2-.2-.1-.1.1s-.2.2-.2.3c0 .1 0 .2-.2.2s-.1 0-.2.4-.2 0-.4 0c-.2.1-.4.2-.5.2s-.1.1-.1.2 0 .1-.2.2-.2 0-.3-.1-.1-.1-.3-.2c-.1-.1-.2.1-.2.2s0 .1-.2 0c-.1-.1-.1 0-.1.1v.1c-.1 0-.1-.1-.1-.1-.1-.1-.2 0-.3 0s0 .2-.1.3c-.1.1-.1.1.1.4.1.3 0 .3-.2.3s-.2.1-.2.2c0 .2-.2.3-.3.3s-.1 0-.2.1-.3.2-.3.2c0 .1-.2.2-.3.2s-.1.2 0 .3c.1.1.1.2 0 .3-.1.1-.2.1-.3.1h-.2c-.1 0-.1.1-.2 0l-.2-.2c-.1-.1-.2 0-.2-.1s0-.1-.1 0-.1.2-.1.2c-.1 0-.1.1-.3.2-.2 0-.4.2-.4.3 0 .1-.1.1-.2.1h-.2c-.1-.1-.3-.3-.4-.5s-.2-.2-.3-.2c-.2 0-.2 0-.1.1s.1.2.1.3v.8c0 .5.4.9.6 1.3.1.2.2.4.3.7.1.3.3.6.3.7 0 .2-.1.4-.1.4-.1.1 0 .3.1.4s.1.1.3.1c.1-.1.2.2.2.3v.7c0 .1-.1.1-.1.1-.1 0-.1.1-.2.2s-.2.2-.3.2c-.1.1-.1.2-.2.1h-.2v.2c0 .1-.1.1-.2.2h-.1c-.1.1-.1.1-.2 0 0-.1 0-.1-.2-.1-.1 0-.1.1-.2 0-.2 0-.1.1-.2.2s-.1.2-.1.2c0 .1-.2.1-.3.2-.1.1-.1.1-.2.1s-.1 0-.2.1c-.1 0-.1.1 0 .2s.1.1.1.2v.1c0 .1-.1.1-.1 0-.1 0-.1-.1-.2-.2l-.2-.2c-.1 0-.1.1 0 .2s.1.2.1.3c0 .2 0 .1.1 0s0-.1.1-.1c.1.1.1.4.2.5s.1.2 0 .1h-.2c-.1 0-.2.1-.4.2-.1.1 0 .2.1.3.2.1.2.1.1.1s-.1.1-.3-.1c-.2-.2-.3-.1-.4-.1s-.1-.1-.2-.1c0 0-.1 0-.2.1s0 .1-.1.2-.1.1 0 .2c.1 0 .1.2-.1.2s-.2.1-.1.2.2.3.2.4.1.2.2.2.1.1.1.2v.1c-.1.2.1.2.1.2s.1 0 .1.2c0 .1 0 0 .2.2.2.1.1.1.3.3.1.1-.1.1-.1.1-.1 0-.3.2-.5.2-.1.1-.1.2 0 .4s0 0 .2 0c.1 0 .2-.1.2.1s.1.1.2.1c.1-.1.1.1 0 .1s-.1 0-.1.1 0 .2.1.2 0 .2-.1.4-.2.4-.3.7c0 .3 0 .7.1.7s.2.1.3.1c.1.1.1 0 .2.1 0 .1.1.1.2 0 .1 0 .2-.2.2-.2.1-.1.5-.2.7-.3.2-.1.2-.1.4 0s.3 0 .4-.1.1-.2.2-.3h.1s.1 0 .1-.1c.1-.1.2-.4.3-.6.1-.2.2-.2.3-.2.1 0 .2 0 .3-.1l.1-.1c.1 0 .2 0 .4-.1.3 0 .1-.2 0-.2-.1-.1 0-.1.1-.1s.3 0 .3.1c.1 0 .2.1.2 0l.2-.2c.1-.1.2-.3.3-.4l.5-.5c.2 0 .1-.1.2-.2s0-.1.1-.1.1-.1.1-.2 0-.3-.2-.3c-.1-.1-.1-.2-.1-.3 0-.1.2-.1 0-.2s-.1 0-.3 0c-.1 0-.3 0-.6.2s-.3.3-.3.5-.1.2-.1.1c-.1-.1-.1-.1-.1 0-.1.1-.2 0-.2-.1v-.2s0-.3-.1-.4l-.1-.1c-.1-.1-.3-.2-.5-.2s-.2-.2-.2-.3c-.1-.1.1-.2.3-.3.2-.1.3-.2.4-.3.1-.1.1-.2.2-.2l.2-.2c0-.1.1-.1.1-.2l.1-.1c.1-.1 0-.2 0-.4s0-.3.1-.4.1-.2.2-.3c0-.1.1-.2.1-.2.1 0 .1-.1.2-.1 0-.1.2-.1.3-.1.1-.1.1-.2.1-.4 0-.1 0-.2-.1-.2l-.1-.1c0-.1 0-.1.1-.1s.2 0 .3-.1c.2-.1.2-.3.2-.5 0-.1.3-.1.4-.1.1 0 .2.1.3-.1s-.1 0-.2-.2c-.1-.1-.1-.1-.2-.1s-.1-.2 0-.2c.1-.1.1-.2.3-.2.1 0 .1 0 .2-.1s.1-.2.1-.2.2-.1.3-.2.1-.1.3.1c.2.1.1.2.2.4s.3.4.7.8.4.4.6.4c.1.1.2.1.3.2.1.2.1.1.2.1.2 0 0-.3 0-.4s-.1-.3-.2-.6-.3-.3-.3-.3c0-.1-.2-.1-.2-.1h.3c.2 0 .1-.1.1-.1h-.6c-.1-.1-.1-.2-.3-.2-.1-.1-.2-.2-.2-.4-.1-.2-.5-.6-.5-.7s0-.4.1-.5.1-.2 0-.3l-.3-.3c-.1-.1-.2-.1-.3-.2 0-.1-.1-.1-.1-.1-.1-.1-.2-.1-.4-.2s-.3-.2-.3-.3c0-.1-.1-.2-.1-.2-.1 0-.1-.1-.2-.2s-.1-.2 0-.2.2 0 .1-.1 0-.1.1-.1h.4c.2 0 0-.2 0-.3 0-.1.1-.2.2-.2.1-.1 0-.2.1-.2.1-.1.2-.1.3-.2.1 0 .2-.1.3-.1.2 0 .2-.1.2-.1 0 .1.2 0 .3 0s.3.1.4.1c.1.1.2.1.5.1s.5.2.8.3c.2.1.3.1.4.1.1 0 .2-.1.3 0s.1 0 .1 0c-.1 0-.1-.2-.2-.2 0-.1.1-.3.1-.3.1 0 .2-.1.1-.2s-.1-.2 0-.2 0-.1.1-.2c0-.1.1-.1.2-.1s.2.1.3.1c.1.1.2.1.3 0 .1-.1.3-.1.4-.1.2 0 .2-.1.2-.2s.1-.1.3-.1c.2 0 .2-.1.2-.3 0-.1 0-.3-.1-.3-.1-.1-.1-.1-.2-.3 0-.1 0-.2.1-.2h.1s.1 0 .2.1c.2.1.1-.2.1-.2 0-.1.1-.1.2 0s.2.1.5.1.4-.1.3-.3 0-.2.5-.1c.5 0 .2-.2.1-.3-.1-.1 0-.2-.1-.5-.1-.2-.3-.3-.4-.4s0-.2.1-.1.1 0 .2-.1 0-.1.1.2c.1.2.2.1.2.1.1 0 .2 0 .2-.1.1-.1.1-.1.3-.1.2 0 .1 0 .5.2.3.2.3.3.6.5s.3.2.2-.1c-.1-.2.1-.1.2-.1s0-.1.1-.3c.1-.2.6-.2.8-.3.2 0 .4-.1.5-.1s.1-.2.1-.4.2-.1.3-.1c.2 0 .1-.1-.1-.2s-.3-.4-.3-.5 0-.2-.2-.3c-.1 0-.1 0-.1-.1 0 0 0-.1-.1-.2s0-.2.1-.2.4 0 .6.1.3.1.3 0 .2-.2.1-.3c0-.1-.1-.2-.2-.3 0-.1-.1-.2-.2-.4 0-.2.2-.2.3-.2s.2.1.3.1.3.1.6.2 1.1-.1 1.2-.1.2-.1.3-.1c.1 0 .2 0 .4-.1.3-.1.3-.1.4-.2.1-.2.1-.3.3-.4s.1-.2 0-.3c-.1-.1.1-.1.2-.2s.1 0 .2 0 .1.1.1-.1v-.3c0-.1.2-.1.2-.1.1 0 .1-.1.2-.1s.1-.2.1-.3v-.4c.1-.1.1-.2.1-.3 0-.1.1-.1.2-.1s.2-.2.1-.2c-.1-.1-.1-.1 0-.1 0-.1.2-.1.2-.2.1-.1.1-.1-.1-.1s-.1 0-.1-.1c.1-.1.1-.2.2-.2s.2-.2.2-.3c0-.1.3-.2.4-.2s.1-.2.1-.4.1-.3.2-.3c0-.4 0-.5-.1-.5"/><polyline id="Path-3" points="-34,244 17,244 33,293" opacity=".6" fill="none" stroke="#979797"/></g><rect id="Rectangle_1_" x="153" y="214" width="41" height="35" fill="none" stroke="#0762a4" stroke-width="2"/></g><g id="Group-161"><g transform="translate(26 1)"><defs><path id="SVGID_1_" d="M267-1v232H-25V-1h292z"/></defs><clipPath id="SVGID_2_"><use xlink:href="#SVGID_1_" overflow="visible"/></clipPath><g id="map_kansai-railway" clip-path="url(#SVGID_2_)"><g transform="translate(-34 -418)"><path id="Path_1_" d="M160.6 498.3c-.3.2-.6 1.1-1.8.6-1-.3-1-.6-1.9-.6-.8 0-1.6 1.4-1.8-.3-.2-1.5-.6-2.6-.6-2.6s.6 0-.8-.5l-1.5-.5s-.3-.3-1.2.2c-1 .5-1.6-.2-1.9-.6-.3-.5-.6-1.5-1.2-.8-.6.6-2.4 3.2-2.4 3.2s-.2 1.5-1.2 2c-1 .3-2.4.8-3.1.8-.6 0-5-.5-5-.5s-1.3-.3-2.4-.9c-1-.6-1.6-.8-2.4-2-.8-1.2-1.3-1.1-1.6-1.7-.3-.6-.5-1.1-.8-1.5-.3-.4-.6-1.7-.9-2.3-.2 0-.3.2-.3.2s-1.6-1.1-1.8-.6c-.2.5-.2 1.8-.2 1.8s.6 1.5 0 1.7c-.6.2-.3-.8-.6.2-.3.9.2 0-.2 1.8-.5 1.8-.2 2.3-.8 2.7-.8.5-1.2.8-1.2.8s-.5.6-.6 2c-.1 1.4-.2 2.1-.2 2.6-.2.5.5 1.1-.2 1.8-.6.8-1 1.8-1 1.8l-.3 2.7s-.9 1.8-.5 2.4c.5.5 1.8-.3 1.9.5.2.8 1.3 1.5.5 2.4-.8.9-.6 1.5-1 2-.5.5-.5-.5-1 1.1-.6 1.5-.6 2.4-.6 2.4s-.3.6.8 1.1l1 .5s.8.2.8 1.4v3.6c0 .5.5.5.5 1.1v3.9c0 .7-.6 1.8-.8 2.6-.2.8-.9.8-.6 1.7.3.8 1 .8.9 1.5-.2.7-.2 1.4-.8 1.5-.6.2-1.2.5-1.2.5s-.2.8-.6 1.1h-.2c.2.8.5 2.6 1 3.5.6 1.2.3 3 .3 3s.5.8.6 2.4c.1 1.6.6 4.5.8 5.6.2 1.2 2.1-.8 2.1-.8s1 .5 1.8 1.5c.8 1.1 1 2.4 1 4.4s-.2 1.5-1.3 2.1-1.9-.3-3.1-.6c-1.2-.3-1.8-.2-1.8-.2s-.5 0-1.9.9c-1.5.9-.8 2.6-.6 3.3s-.3 1.2-1.6 2.1c-1.3 1.1-.3.8-.8 1.7-.5.9-1.5.5-1.5.5s-1.2.9-1.9 2c-.8 1.2-.8 2.1-1.2 3-.5.9-1.6 1.1-1.6 1.1l-1.2 1.5v1.7c0 .5.2.9.5 1.2.3.3 1 .8 1 .8l1.9.8.9.9.5 1.1.8 1.1.2 1.2v1.4c0 .5.3.6.3.6h2.3v.8s.5.8 1.3 2c1 1.2 0 2.9 0 3.9 0 1.1-1.2 1.2-1.2 1.2l-1-.2-.3 2.1s-.2.8-.3 1.8c-.2 1.1-.8 1.1-.8 1.1l.3 1.5s1.3.2 2.1.2c.6 0 0 .6 0 .6l-.2 1.2-.3 1.1 1.8-.3s.6-.2 1.2-.5c.5-.5.8-.6.8-.6l.5-1.1.5-.3s.5.2.9 0c.5-.2.9-.3 1.9-.5 1.2-.2 1.2.2 2.6.2 1.3 0 1 0 1.9.3.9.3 1.3.3 1.8.8.3.5 1.2.5 1.2.5s1.2-.2 2.6-.6c1.2-.5 2.4-1.5 2.4-1.5h.9l1.5.6 3.1 1.4v.8c.9-.6 2.4-1.5 2.6-2.3.3-1.2.9-2.9.9-2.9l.6-.2.3-3c.2-1.1.3-.6 1.2-1.8.9-1.2.9-1.8 2.9-2.1 2-.3 1.6.6 3.9-.9s2.4-2.4 2.6-2.9c.3-.5.8-1.8 1.9-2.6 1.1-.8.8-.8 2.3-.8h2.9c.3 0 1.9 1.5 2.4.8s.3-2 .3-2-.9-.8-.3-2.4c.6-1.5.9-2.6 1.8-2.4.9.2.6 0 0-2s-.5-3.2-.5-3.2.3-.9.2-1.4c-.2-.5-.3-.6-.2-1.4.2-.6.6-2 .3-3.5-.2-1.5-1.2-2.7-1.2-3.2s.5-3 1.5-4.1c1-1.1 2.6-1.2 1.9-3.2-.7-2-1-3.3-1.8-3.6-.6-.5-2.1-2.4-1-3.3 1-.8 1.9-.3 2.3-1.1.3-.6.9-1.1-.5-2-1.3-.9-1.8-1.7-1.8-1.7s-.3-2.7-1.2-4.4-2.4-2-1.8-3.2c.6-1.2 1.5-3.6 1.5-3.6s.6-.8 2.1-1.2c1.5-.5 2.9-1.2 4.7-1.5s3.6-.3 3.6-.3 1.3.3 1.9-.3.6-2.4 1-3.3c.5-.9 1.2-1.5 1.2-1.5s.6-.3.2-.9c-.4-.6-1-.6-1-.9v-1.4s1-2-.6-1.8c-1.5.2-3.1.8-3.1.8s-.9 1.4-1 .2c-.2-1.2-.8-3.3-.8-3.3s-.6-.9-1-1.1c-.5-.2.6-.2-.5-.2-1 0-.9.6-1.8.6-.9.2-1 1.1-1.6.3-.6-.8-.6-1.8-1.3-1.8-.6 0-2.4-.2-2.4-.2s-2.4-.2-2.7-1.7c-.3-1.5-.6-3.6-.2-4.2.5-.6 1.6-2 1.6-2s.3-1.4.3-1.8c0-.5-.3-1.1-.3-1.1s-.8-1.4.2-1.7c1-.3.9-.3.9-.3l.6-1.7-1.2-3.6c-.5-1.2-.6-2.3-.6-2.9 0-.6-.3-1.4-.8-1.5-.3-.2-.6-.6-.9-.5l.3.3-.3-.3c-.2 0-.2 0-.3.2-1.2 1.6-1.7 3.7-2.1 3.9z" fill="#0c308e" stroke="#0c308e"/><path id="Path_2_" class="st7" d="M152.7 623.8c-1.5-.4-2.4-.7-2.8-1.8-.4-1.2.1-1.3-.7-2.1-.9-.7-1.6-.4-2.1-1.2-.4-.7-1-.4-1.3-1.6-.4-1.3-1.5-2.8-1.5-2.8s-1.3-1.2-1.9-1.3c-.6-.3 0 .9-.6-.3s-.7-2.5-.7-2.5-.1-1 0-1.6l.3-2.1v-2.4c-.6.3-1 .6-1 .6s.4-.1 1-.6v-.7l-3.1-1.3-1.5-.6h-.9s-1.2 1-2.4 1.5c-1.2.4-2.5.6-2.5.6s-.7-.1-1.2-.4c-.4-.4-.9-.4-1.8-.7-.9-.3-.4-.3-1.9-.3-1.3 0-1.3-.3-2.5-.1-1.2.1-1.6.3-1.9.4-.4.1-.9 0-.9 0l-.4.3-.4 1s-.3.3-.7.6c-.4.4-1.2.4-1.2.4l-1.8.3.3-1 .1-1.2s.6-.6 0-.6-2.1-.1-2.1-.1l-.3-1.5s.6 0 .7-1c.1-1 .3-1.8.3-1.8l.3-2.1 1 .1s1.2-.1 1.2-1.2c0-1 1-2.7 0-3.9s-1.3-1.9-1.3-1.9v-.7h-2.3s-.3-.3-.3-.6v-1.3l-.1-1.2-.7-1-.4-1-.9-.9-1.9-.7s-.7-.4-1-.7c-.3-.4-.4-.7-.4-1.2V578l1.2-1.5s1.2-.1 1.6-1 .4-1.9 1.2-3c.7-1.2 1.9-1.9 1.9-1.9s1.2.4 1.5-.4c.4-.9-.6-.6.7-1.6 1.3-1 1.8-1.3 1.6-2.1-.1-.7-.9-2.4.6-3.3 1.5-.9 1.9-.9 1.9-.9s.6-.1 1.8.1 1.8 1.2 3 .6 1.3-.3 1.3-2.1c0-1.9-.3-3.3-1-4.3s-1.8-1.5-1.8-1.5-2.1 1.9-2.1.7c-.1-1.2-.6-3.9-.7-5.5-.1-1.6-.6-2.4-.6-2.4s.3-1.9-.3-3c-.4-.9-.9-2.7-1-3.4-.6.3-1.3.3-1.3.3h-2.4c-.6 0-1.8.3-1.8.3s-1.5.4-1.9.7c-.4.1-.7.4-1.5 1-.7.6-2.2 1.3-3 1.5-.7.1-1.9.9-2.2 1-.3.1-.1 1-.9.6-.7-.4-1.3-1.3-1.3-1.3s.3-1.3-.6-1c-.9.1-1.3 1-1.3 1s1.3.3-.7.3c-2.2 0-2.8.1-2.8.1s-.7-.1-1 .3c-.4.4 0 .3-1 .7-1 .4-.9.4-2.1.7s-2.1.4-2.1.4-.7.3-1.6.3-2.2-.1-2.5-.3c-.3-.1.1-.4-.3-.1-.4.4-1.2 1.6-1.6 1.8-.4.1-.7-.3-1.3.4l-.6.7c-.6.7-.4 1.8-1.3.7-.7-1-.1-1.5-.7-1.5h-1l-.9.1s1.2-1.2-.4-.4c-1.6.7-1.8 1.2-1.8 1.2s-.4.4-1.2.6c-.7.1-1-.3-1.6.1-.4.4-.7.9-.7.9s1.3.7-.4.9c-1.9.1-1-.3-1.9.1-.7.4-.6.4-1.2.7s-1 .3-1 .3-.7-.1-1.2-.1-.4-.4-.9 0c-.4.4.6.1-.4.4-1 .4-1.9.3-2.7-.4-.7-.7-1.2-1-1.2-1.3 0-.1-.7-1.2-1.5-2.1-.3.3-.7.6-1.3.9v2.4l-1.3.9.1 1.7c1 .1 4.6-.1 6.8 2.5-.4.4 0 1-2.2.1l.3.9c-.3-.1 4.3 1.9 4.3 4.2l-.1.7s-.3.4 1.3 1.2c1.6 1.2 2.2.1 2.7 3.7 0 0-.3 1.6-1 1.8-.7.3-1.2-.1-4.7.4l-.4.9.1 1.2c-.1.4.3.6-1.5 1.2-.1.7-.3.9-.6 2.4.1.1-.7 0-1.9 2.1-.1 0 1.2.4 3 1 0-.1 1.3 1 4 2.4-.1.7 1.6.7-.3 3l-.6.3-.6 1.5c-1 .4-1.5 1.3-5.5 2.1-.4.3-.7 1.2-.7 1.8-.4 1.2-.7 2.2-.7 2.2s1.3.3 2.4.1c0 .6.9.9-1.3 2.4l-1.2.6s-.7.1-.6.7c-.3.4 1.2.3 1.2 1.8l-1.6.7v2.2c.1.4-.9.3.1.4 1.6.4 4-.3 8 .3 1.8 1.5 2.1 3 4 6.7l1.6 1.5 3.1 2.4.7 1.8 1.8.6 5.6 1.9h1.2c.4.7.6.3 2.2 3.4.1 0 3.9-.4 3.6 1.3 2.8 4 .7 4.5-3.4 7.7 5.3 2.2 5.9 13.4 15.7 14.3 3.6 2.7 2.4 3.4 9.8 6.2 5.3 1.3 3.3-2.1 11.7 2.4 1.5.4 4.9.6 7.6 1.3l1.3.7c.6-1-.4-1.6 3-3.6 1.5-1.5 8.7-4.9 13.6-9.4-1.3-3.3 2.2-11.2 6.2-19.1-.6-.3-1.2-.4-1.3-.4-1.8 0-1.5.8-3 .3z"/><path id="Path_3_" class="st7" d="M124.2 416.6c1.1.4.8.4 1.8.4s1.3-.6 2.2-.6.6-.1 1.6-.1h1s1.2 0 2.2-.1c.4-.1.6-.1.7-.1 0 .1 0 .4-.1.7-.3 1.2 1.1.7 1.8 1.3.8.6 1.1 1.4 1.2 1.8.2.5.6.8 1.2 1.5.6.9 2.2 4 2.8 4.9.6.9 1.1-.3 1.2-.6s.7-.5 1 .1c.3.6-.7 1.3-.7 1.3s-.7 1.7-1.3 3.9c-.7 2.3-.4 4.2-.1 5.1.4.9 1 2.5 1 2.5s.3 1.2.4 2.5c.1 1.4.1 1.8.1 1.8s-.3 1.5-.4 2.8 0 1.9-.7 3.4c-.7 1.4 0 2-.3 3.3-.5 1.3-.6 2.2-.6 2.2s-1.5 1.1-1.5 1.8c0 .9 1 .9 1.3 1.9.2 1.1 0 1.2.1 2.1.2.9.9 1.1 1.5 1.8.6.8 1.4 2.6 1.5 3.6.1 1.1.9 1.8 1 2.1.3.3.6 1.2.6 2.2s-.4.9-.4.9l-.1 1s0 .5-.6 1.5-.1 1.3.3 1.9c.4.6 1.3.9 1.9 1.3.5.4.3.7.4 1.3s1-.3 1-.3 1-.7 1.3-1.3c.3-.4.7-.3.7-.3s.9-.4 1.6-.4.4.9.4.9v1s-.1 1.5-.1 2.1c0 .4.9.3 1.5.3.8 0 .6.3.9.6s.6 1.3.6 1.3 1.4-.5 2.1-.6c.7-.2 1.2 0 1.3.4 0 .5-.1.9-.1.9s.6.6 1.2.7c.6.1 1.2 1 1.3 1.9s-1.2.6-1.8 1.3c-.7.9 1.2 1.9 1.2 1.9-.3.2-.4.3-.4.3s.1-.2.4-.3c.2.2.9.9.9 1.5s0 1.2.3 2.2c.3.8 1.5 2 2.1 2.4-.2 0-.2 0-.3.1-.6.4-1 2.5-1.3 2.8-.3.2-.8.9-1.8.6-1.2-.5-1.2-.6-1.9-.6-.8 0-1.7 1.2-1.8-.3-.2-1.5-.6-2.5-.6-2.5s.8 0-.7-.4l-1.5-.4s-.3-.3-1.2.1c-.9.4-1.7-.2-1.9-.6-.2-.4-.6-1.3-1.2-.7-.6.7-2.4 3.1-2.4 3.1s-.2 1.6-1.2 1.9c-1.2.3-2.5.7-3.1.7-.8 0-4.9-.4-4.9-.4s-1.4-.3-2.4-.9c-.9-.4-1.7-.7-2.4-1.9s-1.3-1-1.6-1.6c-.3-.5-.4-.9-.7-1.5-.2-.3-.6-1.5-.9-2.2l.3-.3c.1-.3 0-.6.4-1l1-1c.6-.6 0-1.3 0-1.3s-.1-.6-1-1.5-1-.7-1.6-1.6c-.6-.9-.7-1.8-.7-1.8l-1.2-.4s-.6-.1-.6-.4v-1.8c0-1-.1-.4-.4-1.3-.3-.8-.5-.3-.9-.7-.4-.3-.1-.9-.1-1.6 0-.9-.6-.4-1.3-1-.9-.5-.9-.3-1.6-.4-.8-.1-.1-.7-.1-.7s0-.4-.4-1.3c-.4-.8 0 0-.4-.7-.3-.5 0 0-.4-.4-.5-.5-1-.1-1.8.1s-1.1.7-2.1.3c-1.1-.5.4-.9.4-.9l.7-.4s-.1-.6.1-1.3c.2-.7.1-1.1-.1-1.6s-1.1-.4-2.1-.4c-1.1 0-.5.9-1.8 1.2-1 .2-.8-.5-.9-.1-.5 2.2 0 0-.6.6-.6.7-.1 1.3.9 2.5 1 1.3.6.9.6.9l-1.2 1.5c-1.3 1.5 0 0-.9 0h-2.1c-1.2 0-1.2-.6-1.2-.6l-.9-.9s-.6-.9-.6-2.1-.9.5-2.1.6c-1.3.2-.7-1.6-.7-1.6s.3-2.9.4-3.9c.1-.9 0-1.3 0-1.3s-.7-.6-1.3-1-1.9-1-1.9-1h-1.9l-2.5.1s-2.6 0-3.1-.6 0-1.2-.1-2.4 0 0-.7-1.6c-.2-.5-.5-.8-.6-.9.1-.1.3-.9.4-1.6.1-.7 1.9-1.3 1.9-1.3s.5-1.2 0-2.5 0 0-.1-.6c-.3-.6 0-1.8.1-3.1.3-1.4-1.3-.4-1.3-.4l-1.3-1.3s-1.5 0-2.8-.7c-1.5-.7-1-.6-1.6-.6s-1.2.1-3.4 0c-2-.3-.1-1.2-.1-2.2 0-1.1-.4-1.2-.4-1.2l-3-.4-2.2.4s-.8.8-1.2 1.8c-.3 1-1.8-.2-2.5-1.2-.7-.9-1.2-2.1-.6-3.7.6-1.7-.6-1.4-1.2-2.4s-1.2-.6-2.2-.6c-.9 0 .4-1.8.4-1.8s.1-1.1.1-2.4c0-1.3-2.5-.1-2.5-.1s-1.5-.1-2.5-.1-2.8.1-2.8.1l-1.8 1.8c-1.1 1-1.7-1.1-1.8-1.8-.3-.7-1.6-.6-1.6-.6l-1.3-.6c-1.3-.6 0 0-1.2-1.9s-3-.7-3-.7-1.1-.3-1.8-.7c-.7-.3-1.2-.3-1.9-.7-.9-.3-1.5-.9-2.8-2.5-1.3-1.5-.2-.9-.1-3.1.2-2.2.5-2.1.6-2.8l78 .3z"/><path id="Path_4_" class="st7" d="M54.7 513.1c-.6.3-2.2-1-4 1.5-1.5 1.5-1 4.2-4.6 6.2-1.3.7-3.4 1.2-6.4 4.5l-2.1 3.7s-.1 1.2-.4 1.5c-1 1.6-1.3-.7-3.7 2.5l-.9 1.2-.9 1.5c0 .9-.9 3.9-3.1 5.5-.4 1.2-1.9 4-3 6.4l-.6 1.5c-.3.1-1.6.3-4-.4-.3 0 .7.6-1 1.5l-1 1.5-.4 1c-.1.4-.4.4.1 1.5-.1.4-.1 1.2-.1 1.2-.4.6 1.6-1 1.8 3 .9.4.6.9 3.1.3 0 0 .6-1.5.7-1.2-.1.6 1.5 1.6-1 2.7-.1.3-.6 1.6-.4 2.1 1.3.7 3.3.7 3.1 3.9 1-.3 3.7-.9 7.3-.9 1.2-.7 1.6-1.5 5.8-4.3 1.3-.6.4-.3 5.2-2.7 3 0 8.1-2.7 1.6-7.7-1-1.3.9-1.5-2.2-3.7-.1-1.9.1-5.9.1-9.4 0 0 .6-1.3.7-1.6.1-.1.1-.6.9-2.2.9-1.2 1.8-2.4 5.4-5.1.6-.4 2.1-1.6 2.2-2.2.3-1 .3-2.8 1.6-5.9-.3-.6 2.5.3 1.3-4.6-.5-1.2-1.1-2.8-1.1-2.8z"/><path id="Path_6_" class="st7" d="M46 417.1c-.3 2.2-1.2 1.6.1 3.3 1.5 1.6 2.1 2.2 2.8 2.7.7.3 1.2.3 1.9.8.8.3 1.8.8 1.8.8s1.8-1.2 3 .8-.1 1.4 1.2 2l1.3.6s1.5-.2 1.6.6c.2.8.8 3 1.8 1.9 1.1-1.1 1.8-1.9 1.8-1.9s1.8-.2 2.8-.2c.9 0 2.5.2 2.5.2s2.5-1.2 2.5.2-.1 2.5-.1 2.5-1.4 1.9-.4 1.9 1.6-.5 2.2.6 1.8.8 1.2 2.5c-.6 1.5-.1 2.8.6 3.9s2.1 2.4 2.5 1.3c.5-1.1 1.2-1.9 1.2-1.9l2.2-.5 3 .5s.4.2.4 1.3-2.1 2.2.1 2.4c2.2.2 2.8 0 3.4 0s.3-.2 1.6.6c1.5.8 2.8.8 2.8.8l1.3 1.4s1.4-.9 1.3.5-.2 2.7-.1 3.3-.5-.8.1.6c.6 1.5.6 1.2.6 1.2s-1.8.6-1.9 1.4c-.2.5-.2 1-.3 1.3s-.1.5-.1.5c-.1-.1-.3-.3-.4-.3-.9.3-1.7.9-2.4 1.7-.2.2-.3.3-.3.5-.1.2-.3.3-.4.5-1.2 1.9-1.5 4.2-1.5 6.6-.2 3.6.4 7.2 1.6 10.7.4 1.7 1.2 3.3 1.6 5 .3 1.7.5 3.5.6 5.2.2 5.7.2 11.3.1 17-.8-.4-1.4-.9-1.5-.9-.6 0-1.2.3-1.3.3.1 0-2.9-.3-3.9.2-.5.2-1.2.3-2.1.5l-4 1.1c-.1 0-.4.2-.4.2s-.3.1-.6.3l-2.8 1.7c-.3.3-.4.5-.4.5l-.7.8c-.5.6-.8 1.8-.9 2h-1.2c-1 0-.7.1-1.6.3-1.2.5-1.9 1.6-1.8 1.3 0 0 0 .2-.1.2-.3.3-1.1.9-2.4 1.4-.2 0-.2.2-.3.2-.3 0-.6.2-.9.2-.9.2-1.8.5-2.4.5-.3.2-.6.2-.7.2-.9 0-1.9-.2-2.8-.5-.9-.1-1.7-1.4-2.1-1.7-.8-.5-2.3-.6-5.4-1.4-3.4-.8-3.3-.6-4.3-1.1-1.4-.8-1.1-.6-1.8-1.1-.5-.1-.6-.4-.9-.9-1.7-1.3-2.1-1.9-2.7-1.9 0 .1-.2.3-.3.3-.6-.2-1-.5-2.2-.8-.3-.2-.6-.3-.7-.5-2.6-1.4-3.3-2.5-3.6-2.8-.5-1.4-.3-1.4-.6-1.7-.7-.8-.4-.3-.7-.8-.3-.4-1.2-.8-1.9-1.3-.1-.1-.3-.1-.4-.3-.3-.3-1.1-.8-1.8-1.1-3.6-1.2-5.1-1.1-5.8-1.4l-2.5-.6-3.1-.3s-.6 0-1.2.2c-.3 0-.6.2-.9.2-.8.2-.6 0-.9.2-.3 0-1 .1-1.6.3-1.2.2-2.4.5-2.4.5h-.2c-.7-.1-3.7-.9-3.7-.9L9 417l37 .1z"/><path id="Path_5_" class="st7" d="M90 454.5c1.4 1 1.6 1.2 1.7 1.5.3.6.4.7.4.8.2.3.3.5.3 1 .1.6 0 1-.1 1.4 0 .3-.2.5.1.8.4.4 1.9.5 2.5.5h.2l2.6-.2h2.1c.1 0 1.5.7 2.1 1.2.8.6 1.2.9 1.3 1 .1.2.4.5.2 1.8-.1.4-.2.9-.2 1.5-.1 1.4-.2 2.4-.2 2.4 0 .1-.1.5-.1.9.8.1 1.1-.1 1.4-.3.4-.3.8-.5 1-.4.5 1.8 1 2.6 1.1 2.8l.9.9c.4.4.5.5.8.5h2.4l.9-.8c.2-.4 0-.5-.2-.8-.6-.8-1-1.4-1.2-1.8.6-1 .7-1.3.8-1.8l.1-.6.6.3c.3.1.4.2.5.1.5-.1.6-.3.7-.5 1.3-.8 1.6-.7 1.8-.7.5 0 1 0 1.3.1.4.1.6.4.7.8.2 1.1.2 1.4.2 1.8 0 .5-.1 1.2-.1 1.4l-1 .9h.7c.2-.1.5-.2.7-.3.2 0 .4-.1.6-.2.3-.1.6-.2.9-.2 2.1 2.7 2.3 3.1 2.3 3.1l.1.5s.1.1.3.1c.3 0 .6 0 1.2.4.3.2.5.3.7.3.9 1.3.8 1.6.8 1.8 0 .2-.1.4 0 .6.9.4.9.7 1.1 1 .3.6.5.6.5 1.5v1.8l1.7.6c0 .3.2 1.1.7 1.9.3.5.5.6.8.9l.2.1c.2.1.4.3.7.6 1 1 1.2 1.8 1.2 1.8 0 1.2-.3 1.5-.8 1.7l-.9 1c-.1.3-.2.5-.3.6-.7.9-1.5.8-2.2.5-.5.3-.5 1-.4 1.2s.3.8.3 1.3c-.8 1.5-.8 1.8-1 2.6-.1.6-.1 1-.1 1.4-.1 1-.2 1.3-.8 1.7-.6.3-1 .6-1.1.7s-.4.7-.5 1.7c0 1.5 0 2.2-.1 2.6.2.9.2 1.5-.3 2.1s-.8 1.4-.9 1.7l-.3 2.8c0 .1-.4.9-.5 1.6.1.5.3.4.6.4h.9c.5.7.6 1 .8 1.3l.1.1c.2.4.4.7.4 1.1 0 .3-.1.7-.4 1-.4.4-.5.8-.6 1.1-.1.4-.2.7-.5.9-.7.4-.8.5-.9.9-.4 1.2-.5 1.9-.6 2.2v.1c.1.4.2.5.4.6l1 .4c.1 0 .5.2.8.7.1.3.3.6.3 1.1v3.7l.4 5c0 .6-.2 1.2-.5 1.8l-.3.9c-.1.4-.3.7-.5.9-.1.7.1.8.2 1 .4.3.7.7.5 1.3-.1.8-.2 1.1-.4 1.4-.2.3-.4.5-.8.6-.3.1-.7.2-.9.3-.2.4-.4.9-.8 1.1-.8.2-1.7.4-1.7.4h-2.5c-.5 0-1.4.2-1.6.3-.1 0-.5.2-.8.3l-.3.1c-.3.1-.5.2-.7.3-.6.4-.9.6-1.4 1-1 .7-2.3 1.4-3.1 1.6-.7.3-1.9.9-2.2 1-2.1.3-2.7-.7-2.8-.9-.5-.5-.8-.3-1-.2.2.4.4.7-1.3.7-2.1 0-2.7.1-2.7.1l-.2.1c-1 .5-1.1.6-1.8.9-.7.4-.9.5-1.3.6l-.2.1c-.2 0-.4.1-.6.2-1 .3-1.9.4-2.1.5s-.9.3-1.8.3c-.8 0-1.9-.1-2.5-.3-.3.2-.6.5-.9.8-.3.4-.7.7-.9.8-.3.1-.5.2-.7.1-.9.6-1.1 1.1-1.3 1.4-.3.6-.6.8-.8.9-1.2-.9-1.4-1.4-1.5-1.7l-.9-.2-2.3.4.1-.1c-.3.2-.4.3-.4.3-.1.2-.7.8-1.6.9-.5.1-.8 0-1.1 0-.5.2-.6.3-.7.5.3 1.1.1 1.4-1.1 1.5-.8.1-1.2 0-1.4 0-.7.3-.8.4-.9.5-.2.1-.3.2-.6.4-.6.3-1.1.4-1.2.4-.1 0-.7-.1-1.1-.2-2.1.6-2.6.7-3.1.6-.5-.1-.9-.3-1.4-.7-1.1-.9-1.4-1.3-1.4-1.7 0-.1-.7-1-1.4-1.8.5-1.1.7-1.3.8-1.4l.7.1 3.2-1.9c1.5.7 2.7.8 3.6.7h.2c1.2-.3 2-1.1 2.8-1.9.7-.7 1.3-1.3 2.1-1.8.6-.5 3.1-2.6 3.5-3l4.4-4.2c1.9-1.1 4.4-3.3 6.2-5.6 1.6-1.9 2.7-3.8 2.7-5.1l.9-.8c3.8-3.7 7.2-7.4 7.3-11l.4-2.1c.3-3.9.6-7-.6-8.6l-2.3-1.6-1.8-1c-.6-.1-3-.3-3.2-.4-.6-.2-.9-.4-1.2-.6-.3-.2-.7-.5-1-.7.1-5.9-.1-11.4-.4-16.8 0-1.7-.1-3.3-.6-4.9-.2-1.2-.6-2.3-1.1-3.4-.2-.5-.4-1-.5-1.5-1.2-3.4-1.7-7-1.7-10.5 0-2.2.3-4.8 1.6-6.7l.4-.4c.1-.2.2-.4.4-.5.3-1.5 1.3-2.1 2.3-2.5z"/><g id="Group_1_" transform="translate(123)"><path id="Path_7_" class="st7" d="M177.9 432.9c-.4-.3-1.3-.6-1.3-.6s-.6-1.1-.9-1.8c-.3-.7-.7-.3-1.3-.3-.6 0-1 .1-1.9.1-1 0-.6-1.7-.7-2.4 0-.6-1.7-.6-3.6-1.5-2-.8-2.7.1-3.6.1s-1.2 1.2-1.2 1.2l-1.3 1.5s-1.9.9-3.1.9 0 0-.6.1-1.3.5-2.5.4c-1.2 0-1.2-1.5-1.5-2.4-.1-.9-.4-1.2-.4-1.2l-2.4.1-1.2-.3s-1-.9-1.9-1.9c-.7-1-1.3.3-1.9.9-.6.6-.9-.1-1.2-.7-.3-.6-1.1-.8-1.6-1.3s-.4-1.1-.4-2.4 0-.6-.4-.9c-.4-.4-1.3-.3-1.3-.3s-.1-2.3.2-3.2c.3-1-20.5-.1-22.1.2-.8.7-1.2.3-2.4.3s-1.9-.9-3.4-1.3c-1.5-.6-2.8 1.3-2.8 1.3s-1 2.4-1.3 2.7c-.1.3-1 2.7-1.9 3.7-.7 1.1-1.6 3-1.6 3s-1.4 1.5-1.5 1.8-.4 1.3-.4 1.6c0 .5-1 .9-1.3 1.8-.3.8 0 2.1 0 2.1s.1 1.7.1 2.8-.3 1.5-.9 1.8 0 1 0 1.3v2.1c0 .8 0 1.2-.3 2.7 0 .3-.1.5-.1.6-.5-.5-1.1-1.2-1.2-1.8-.3-.9-1-1.2-1-1.2s-.6 1.2-.9 1.6-.4.3-1.3.3-.6-.8-.9-1.2c-.1-.4-.7-1.3-.7-1.3s-.6-1.2-.9-1.6c-.2-.4-.9-.9-1.5-1.3s-.8-.3-.9-.7c-.2-.4-1.2-1-1.2-1l-.9-.1s-.4-.5-.1-.9c.3-.5-.6-1.1-.6-1.8 0-.8-.7-.9-.7-1.2 0-.3-.9-1.4-.9-2.1 0-.6-1.3-.3-1.3-.3l-1 .4s-.2.7-.3 1c-.2.3-.6.4-.6.4s-1.8 0-2.4.3c-.6.1-1.6.1-2.2.7s-.7.8-1 1.5c-.3.6-1.3-.3-1.3-.3l-.9-.7-.7.3-1 .4c-.3-.3-.6-.6-.9-.7-.6-.1-2.1-1.7-2.1-2.8s1.2-1.5 1.5-2.4 0-2.4 0-3.3.1-1.3.7-1.9c.8-.7 1.5-4.9 1.5-4.9s.1-.6 0-1.2c0-.6-.6-.6-1-1.6H178l-.1 16.8"/><path id="Path_10_" class="st7" d="M187.7 498.3c-.6-1.2-.7-1.8-.9-3.1-.1-1.5-1.8-1.2-.1-3.1 1.6-1.9 2.2-2.1 1.9-3.1s-.9-1.9-.1-2.8.1-1.5 1-2.1c.9-.7 2.1-1.5 2.8-1.8s1.9-.7 3.4-.7 1.9.9 2.5-.3c.6-1.2-.1-1.9 1.6-2.2s2.2-.3 2.8-1 .6-1.9 1.6-4.3c1-2.2.1-2.8 1.6-3.4s1.9-.6 2.8-1.9c.9-1.5 1.2-3.1 1.2-3.1s-.9-1.6.7-4c1.6-2.5 2.2-4.6 2.2-4.6s1.8-.3 2.7-1.6c.9-1.2 1.2-2.7 1.8-3.1.6-.6.1-.7 1.5-1.2 1.2-.6 1.3-.7 1.3-2.1s-.1-1.9.6-2.2c.7-.3 1.5-.9 1.6-1.5s.1-1.2.1-1.2.6-.6.6-1.2c0-.7 1.2 0 0-.7s-1.8-1.8-1.8-1.8.6-.6 1.2-1.3l.7-.9.9-1.2-.9-.1-.7-.1-2.1.9s-3.6 1.5-3.7.3l-.1-1s-2.1 0-2.8-.6-1-2.1-2.2-2.1-3.7.1-3.7.1l-1.5.3s-.6-.1-.9.7c-.3.9 0 1.9-1.2 1.9s-2.1-.3-2.8-.1c-.7.1-.1 1.2-2.5 1-2.2-.1-1.8-2.1-1.8-2.1s0-1.5-.7-1.8-2.7-1-2.5-2.1-.1-1.2.1-1.8c.3-.6.3-1.9.3-1.9l-.1-.4c-.7 0-1.8-.3-2.2-.3-.6 0-1.3.9-2.1 1.6-.7.7-1.2.9-1.8 1s-1.5.9-2.8 2.1-1.9 1.6-3 2.1c-.9.4-1.9.1-1.9-.7 0-.9-1.5-.3-1.9-.6s-1.3-.6-1.3-.6-.6-1-.9-1.8c-.3-.7-.7-.3-1.3-.3s-.9.1-1.9.1c-.9 0-.6-1.6-.7-2.4s-1.6-.7-3.6-1.5c-1.9-.9-2.8.1-3.6.1-.7 0-1.2 1.2-1.2 1.2l-1.3 1.5s-1.9.9-3.1.9 0 0-.6.1-1.3.6-2.5.4-1.3-1.5-1.5-2.4l-.4-1.2-2.4.1-1.2-.3s-1-.7-1.9-1.9c-.7-1-1.3.3-1.9.9-.6.6-.9-.1-1.2-.7s-1-.9-1.6-1.3-.4-1.2-.4-2.4c0-1.3 0-.4-.4-.9-.4-.3-1.3-.3-1.3-.3s-.7-1.9-.4-2.8-20.4-.2-21.5-.2c-1.8 0-2-.4-3.2-.4s-1.1-.2-2.6-.6-2.8 1.3-2.8 1.3-1.2 2.4-1.3 2.7c-.3.3-1.2 2.7-1.9 3.7s-1.6 3-1.6 3-1.3 1.3-1.5 1.8c-.1.3-.4 1.3-.4 1.6s-1 .9-1.3 1.8c-.3.7 0 2.1 0 2.1s.1 1.8.1 2.8-.3 1.5-.9 1.8 0 .9 0 1.3v2.1c0 .7-.1 1.2-.3 2.7 0 .3-.1.4-.1.6.3.3.4.6.4.6s.3.6.9.9l.6.3s1.3.7 1.6 1.6l.3.9 1.3.6 1.2.3s1.8 1.6 2.2 2.8c.4 1.2.4 2.8.6 3.3 0 .3.1 1.6.3 2.8.3 0 .4.1 1 .3 0 0 .1 0 .3.1h-.1c2.1.1 3.9-.3 7.7-.4 2.7.3-.4 5.2-2.5 8.3l-.4.7s-.4.1 0 1c.1 1.3 2.4 5.3-1 9.8.1.3-.9 1.5.1 4.3l.7-.7.4-1.6 1.6-2.4 2.8 3.6c-.6 2.1 1.5 5.9-1.3 10.1.6 1.9 5.2 6.5 10.4 7.7h1.9c.1-1.5-1-7.4-5.4-8.6l.1-2.8V487l1.2-4.6c.1 0 0-1 2.8-4l1.2-1.9s.1.7 0 1.3c-.1-.3-.4 4.6-.4 5.8-1.8 1.2 3.9 2.7 6.3 6.4l1.6 1.6c.1.3.7-1.3 5.1-1 .7.1 2.4.1 2.4.1l1.6-.7h3l1.9.1v2.2l1.3-.7.4-2.2 1.2-1.9h1.8l2.2-.1 3.7 1h3l.7 1.6 1.9 1 2.4 1.3-2.2 3.6-1.2.9.9 1.8-3.7.1c-1.5.4-3.9 2.8-6 5.6-2.2 1.2-2.5-.6-7.6 3.1-.7.4-3.4 1.5-3.4 1.5-.6-.6-2.2 2.7-3.7-.7-.3-.1-.9-1.3-.9-1.3h-1.6c-.7 1.9-2.8 5.3-4.3 8.6 1.9 2.5 9.2-1.3 14.7-1.2 9.2-5.6 21-8 33.3-9.8.2-2.7.3-5.2-.1-6.2z"/></g><path class="st7" d="M131.7 415.4c0 .3-.2.4-.2.7-.3 1 1.1.7 1.9 1.3.8.6 1.1 1.3 1.2 1.8.2.4.6.6 1.2 1.5.6.7 2.2 4.1 3 5 .6.9 1.1-.3 1.2-.6.2-.3.8-.4 1.1.1.3.6-.8 1.3-.8 1.3s-.6 1.6-1.4 4c-.6 2.3-.5 4.3-.2 5.2.3.9 1.1 2.6 1.1 2.6s.2 1.2.5 2.6c.2 1.3.2 1.8.2 1.8s-.3 1.5-.5 2.9c-.2 1.3 0 2-.8 3.5s0 2-.3 3.4c-.3 1.3-.6 2.3-.6 2.3s-1.6 1-1.6 1.8c0 .7 1.1.7 1.4 2 .3 1 0 1.2.2 2.2.3.9 1.1 1 1.6 1.8.6.7 1.2 2.6 1.6 3.7.2 1 .9 1.8 1.1 2.2.2.3.6 1.2.6 2.3 0 1-.5.9-.5.9l-.2 1s-.2.4-.6 1.5c-.6 1-.2 1.5.3 2 .5.6 1.4.9 2 1.3s.3.7.5 1.3c.2.6 1.1-.3 1.1-.3s1.1-.7 1.4-1.3.8-.3.8-.3.9-.4 1.7-.4c.8 0 .5.9.5.9v1s-.2 1.5-.2 2.2c0 .6.9.3 1.6.3s.6.3.9.6.6 1.3.6 1.3 1.4-.4 2.2-.6c.8-.1 1.2 0 1.4.4s-.2.9-.2.9.6.6 1.2.7c.6.1 1.1 1 1.4 2 .2.9-1.1.6-1.9 1.3-.6.7 1.2 2 1.2 2 .6-.3 1.9-1 2.3-1.2.5-.1 2.2-.3 2.6-.6.4-.3.8-1 .8-1s1.1-.3 1.6-.6c.3-.1.2-.9.2-.9s-.5-1.3.2-2.5l1.6-.3s.2-.9.3-1.2c.2-.3.6-.4.6-.4s.6-.7.8-1.2c.3-.4-.5-.6-.5-.6s-1.1-.1-2.3-.3c-1.1-.1-1.2-1-1.2-1.5 0-.3.6-1 .6-1s1.1-.9 1.7-1c.6-.1 1.2.3 1.2.3l.9 1c.9 1 1.1.1 2.2.1h3.7c1.1 0 .2.4.3 1 .2.6 0 0 .9 1s2.5.6 3 .7c.3.1 3.1.6 3.6.6s2.3-.6 2.6-.7c.3-.1 1.6-1.2 1.6-1.2s2-.9 2.5-1.3c.3-.4.9-.6.9-.6l1.2-.4s2-.7 2.8-1c.8-.3.8-1.3.8-1.3s.3-2.5.5-3.4c.2-1 1.1-1.5 1.1-1.5l1.6-.6.8-1.8 1.6-3.2v-2.3l.2-3.1s1.1-2.5 1.2-2.9c.2-.3.9-4 .9-4s0-.6.2-1.5c.3-.9.3-1.5.3-1.5s0-.4.2-1-.2-1-.2-1-.5-.9-.5-1.2.5-.7.8-1c.3-.3.6-1 .9-2.2.2-1-.8-1.2-1.6-1.8-.6-.6-1.7-.9-3-1.3-1.1-.4.2-1.5.2-1.5s.2-1.3.2-2c0-.3-.2-.7-.5-1 0-.6-.3-.8-.5-.9-.6-.3-2.2-2-2.2-2.9 0-1 1.1-1.5 1.6-2.5.3-.9 0-2.3 0-3.4 0-1 .2-1.3.8-2s1.6-5 1.6-5 .2-.6 0-1.2l-70.4-.3zm32.3 1.5l21.2.3c0 .8-.1 1.6-.2 1.7-.2.3-.4.8-.7 1.7-.3.9-.7 1.8-1 2.6-.1.3-.2.5-.2.6-.1.2-.1.2 0 .4.1.4-.1.4-.7 1.1-.6.7-1.8 1.6-1.9 1.7-.1.1-1.3.8-1.9 1.7-.6.9-1.2 1-2.3 1.7-1.1.7-2.1 1.3-2.4 1.6-.3.3-1 1.1-2.3 1.4-1.3.4-2.4.7-2.7.8h-.1c-.2.1-.3.2-.3.4s-.1.7-.2.9c-.1.1-.6.4-1 .6l-.4.2c-.1 0-.2-.2-.3-.5-.2-.3-.3-.1-.5.2-.2.3-.4.4-.3.4.1.1.3.1.5.3.2.2.3.2.3.3-.2.2-.3.5-.4.6h-.7c-.2 0-.4-.3-.7-.1-.3.2-1.3 1.6-1.3 1.6s-.2 2.1-.2 2.3c0 .2.1.3.1.4.1 0 .3 0 .4.2 0 .2-.2 1-.3 1.2-.1.2-.4.5-1.2.5-.7 0-2.3-.6-2.6-.6-.3 0-.9.6-.9.8 0 .1 0 .2-.1.3 0 .1-.1.2-.1.2s-.6.1-.9 0c-.3-.1-1.4-.9-1.5-1-.2-.1-1.2 1.9-1.2 1.9s-.1.1-.1.3c-.1.3-.4.7-.5.7-.1 0-1-.3-1.5-.5s-.5-.4-.6-.3c-.1.1-.6.7-.7 1-.1.3-.6 2.6-.5 2.8 0 .2.2.4.3.7 0 .2.1.6.3.8.1.2.5.6.7.7.2.2.3.2.1.5-.2.2-.4.5-.7.6h-.1c-.3.1-.4-.1-.6-.2-.3-.1-.4 0-.4.1.1.2.4.6.5.8.1.2.1.3-.1.5s-.4 0-.6.1c-.2.1-1.9 2.5-2.2 2.8-.3.3-.3.4-.2.6 0 .1.2.2.3.3.1.1.3.2.2.3-.1.1-.1.2 0 .3.2.1.1.9.1 1.1 0 .2.1.5.4.7.3.2.2.4 0 .8-.1.4-.1.7-.5.9-.3.2-.6.6-.7.8v.2c0 .2.2 1.3.1 1.5 0 .1-.4-.1-.8-.5s-.5-.9-.6-1.1c-.1-.3-.3-.6-.3-.8s0-.2-.3-.3c-.2-.1-1.4-.4-1.7-.6-.3-.2-.8-.7-1-.8-.1-.1-.2-.2-.1-.4s.4-.8.5-1.1c.1-.4.1-.6.2-1.3.1-.7.2-1.1.5-1.5.2-.4.3-.6.5-.9.1-.3.5-.9.7-1.2.2-.3.4-.7.4-.8 0-.2 0-.4.1-.6.1-.2.4-.8.5-.9 0-.2.1-.4.3-.5.1-.1.3-.2.6-.5s.5-.9.4-1c-.2-.1-.3-.3-.2-.4.1-.1.5-.3.7-.3.2 0 .4.1.5-.1.1-.2.9-1.6.9-1.7.1-.2.4-.7.4-.9 0-.3-.4-.9-.5-1.2-.1-.4-.1-.5 0-.8.1-.3.6-1.1.8-1.5.2-.4 0-.3-.4-.9-.4-.6-.5-.6-.7-.9-.2-.3-.4-1.1-.4-1.2 0-.2-.2-.6-.1-.8.1-.3.7-1.7.9-2 .2-.3.3-.5.5-.5s.3 0 .4-.1c.1-.1.2-.3.6-.9.4-.6.3-.6.6-.9.3-.3 1.1-.7 1.4-1 .3-.3.2-.4.1-.8s-.1-.8 0-.9l.8-.8c.3-.3.4-.9 1.1-1.4.4-.3.8-.6 1.1-.9.3-.2.6-.5.9-.6.6-.4.9-.5 1.4-.8s.2-1.2.2-1.8c0-.6.4-1.1.6-1.2.2-.1.4-.2.8-.3.4-.1.7-.2.9-.1.2.1.3.2.9-.4.5-.5 1.5-1.2 1.9-1.4.4-.1.8.2.9.1.1-.1.2-.4.2-.7 0-.3.1-.5-.1-.7-.1-.3-.6-1.1-.6-1.4-.2-.7-.4-2.2-.4-2.3"/><path id="Path_17_" class="st7" d="M233.8 453.1c-.4-1.2-2.2-2.8-2.2-2.8l-1.2-.3-1.3-.6-.3-.9c-.3-.9-1.6-1.6-1.6-1.6l-.6-.3c-.6-.3-.9-.9-.9-.9s-.1-.3-.4-.6c-.1.9-.4 1-.4 1s.3-.1.4-1c-.4-.6-.9-1.3-1.2-1.8-.3-.9-1-1.2-1-1.2s-.4 1.2-.9 1.6c-.3.4-.4.3-1.3.3s-.7-.7-.9-1.2c-.3-.4-.7-1.3-.7-1.3s-.7-1.2-.9-1.6c-.3-.4-.9-.9-1.5-1.3s-.7-.3-.9-.7c-.1-.4-1.2-1-1.2-1l-.9-.1s-.3-.4-.1-.9c.3-.4-.6-1-.6-1.8s-.7-.9-.7-1.2c0-.3-.9-1.3-.9-2.1s-1.3-.3-1.3-.3l-1 .4s-.3.7-.3 1c-.1.3-.6.4-.6.4s-1.8 0-2.4.3c-.6.3-1.6.3-2.2.7-.6.6-.7.9-1 1.5-.3.7-1.3-.3-1.3-.3l-.9-.7-.7.3-1 .4c.3.3.4.7.4 1 0 .6-.1 1.9-.1 1.9s-1.2 1-.1 1.5c1 .4 2.1.7 2.8 1.3.6.6 1.6.7 1.5 1.8-.3 1-.6 1.8-.9 2.1s-.7.7-.7 1 .4 1.2.4 1.2.1.4.1 1c-.1.6-.1 1-.1 1s0 .6-.3 1.5c-.1.9-.1 1.5-.1 1.5s-.6 3.6-.9 3.9c-.1.3-1.2 2.8-1.2 2.8l-.1 3v2.4l-1.5 3.1-.7 1.8-1.5.6s-1 .6-1 1.5c-.1 1-.4 3.3-.4 3.3s0 1-.7 1.3-2.7 1-2.7 1l-1.2.4s-.6.1-.9.6-2.4 1.3-2.4 1.3-1.2 1-1.5 1.2c-.3.1-2.1.7-2.5.7s-3.1-.6-3.4-.6c-.3-.1-1.9.1-2.8-.7-.9-1-.6-.4-.9-1s.7-1-.3-1h-3.5c-1 0-1.2.9-2.1-.1l-.9-1s-.6-.4-1.2-.3c-.6.1-1.6 1-1.6 1s-.6.6-.6 1c0 .3.1 1.3 1.2 1.5 1 .1 2.2.3 2.2.3s.6.1.4.6c-.3.4-.7 1.2-.7 1.2s-.4.1-.6.4c-.1.3-.3 1.2-.3 1.2l-1.5.3c-.6 1-.1 2.4-.1 2.4s.1.6-.1.9c-.3.1-1.5.6-1.5.6s-.3.7-.7 1c-.4.1-2.1.4-2.5.6-.3.1-1.5.7-2.2 1.2.1.1.9 1 .9 1.5 0 .6-.1 1 .3 2.2.3.9 1.5 1.9 2.1 2.4.3-.1.6.3.9.4.4.1.7 1 .7 1.5 0 .6.1 1.5.6 2.8l1.2 3.6-.6 1.6-.9.3c-.9.3-.1 1.6-.1 1.6s.3.6.3 1-.3 1.8-.3 1.8-1.2 1.3-1.6 1.9c-.4.6-.1 2.8.1 4.2.3 1.5 2.7 1.6 2.7 1.6s1.8.1 2.4.1.7 1 1.3 1.8c.6.7.7-.1 1.6-.3.9-.1.6-.6 1.8-.6 1 0 0 0 .4.1s1 1 1 1 .6 2.1.7 3.3c.1 1.2 1-.1 1-.1s1.6-.6 3.1-.7c1.5-.1.6 1.8.6 1.8v1.3c0 .3.6.3 1 .9.4.6-.1.9-.1.9s-.7.6-1.2 1.5c-.4.9-.4 2.5-1 3.3-.6.6-1.9.3-1.9.3s-1.8 0-3.6.3-3.3 1-4.6 1.5c-1.5.4-2.1 1.2-2.1 1.2l-1.5 3.6c-.6 1.2.9 1.5 1.8 3.1s1.2 4.3 1.2 4.3.4.7 1.8 1.6c1.3.9.7 1.2.4 1.9-.3.6-1 .3-2.2 1-1 .7.3 2.8 1 3.3.6.4 1.2 1.8 1.8 3.6.6 1.9-1 2.1-1.9 3.1-1 1-1.5 3.6-1.5 4s1 1.5 1.2 3.1c.1 1.5-.1 2.8-.3 3.4-.1.6 0 .9.1 1.3s-.1 1.3-.1 1.3-.1 1.2.4 3.1c.6 1.9.9 1.9 0 1.9-.9-.1-1.2.9-1.8 2.4s.3 2.4.3 2.4.1 1.2-.3 1.9-2.1-.7-2.4-.7h-2.8c-1.5 0-1 0-2.2.7s-1.8 2.1-1.9 2.5c-.1.4-.3 1.3-2.5 2.8s-1.9.6-3.9.9c-1.9.3-1.9.9-2.8 2.1s-1 .6-1.2 1.8l-.3 3-.6.1s-.6 1.5-.9 2.8c-.1.7-1.6 1.6-2.5 2.2v2.4l-.3 2.1c-.1.7 0 1.6 0 1.6s.1 1.3.7 2.5 0 0 .6.3 1.9 1.3 1.9 1.3 1.2 1.5 1.5 2.8c.4 1.3 1 1 1.3 1.6.4.7 1.3.4 2.1 1.2.9.7.3 1 .7 2.1.4 1.2 1.3 1.3 2.8 1.8 1.5.4 1.3-.3 1.8-.4.1 0 .7.1 1.3.4 2.5-5.4 5.2-10.8 6.8-15.1 1-.4 2.8-7.3 6.8-7.2l1.8-2.8 1.8-.1 1.2.1 1.8-2.2 1.3.7c.6.4.7-4.9 2.2-7l1.8 1.6 1.6.4c.3-.9.1-2.1 0-4.2 1.2-.7 2.1-1.5-1-4.6-.7-1.2-1-2.4-1-2.4s-2.5-.1-3.6-.6c0 .1-3.1-2.4 1-2.2.1-2.2 2.4-4.8 6.4-3l1-1.6-1.2-3 .7-2.5c1.9-1.2 4.4-1.9 7-5.8l1.6.6 4-2.4c.9 0 2.7.3 4.3-1.2l1.3-1.6c.3 0 .7-.1 3.1-.4l1.8-1.6 2.4-1.3h1.2l2.5-1 2.2-.6.1 1 .7.4c.9.1 2.1-.4 3.7-1l1.2-1.8c2.1-.1.4-5.4 5.5-5.5-.6.1 2.4-.1 1 2.4-.3.9-1 .3-1.3 4 .9 0 2.1-.1 4.6-.4h2.2v-1.6c-.1-.3 1.6 0 3.4 1.3 0 0 1-1.9 1.2-2.5.3-1.2 3.1-2.1 4 1.3l1 .6 1.2 1c.3-.1-1.6.4-2.4.7l-.1 1 .6 1c-.9.4-2.1.6-4.2.6l1 .7 3.1.1 1.9-1.3 2.2-.7 1-1.6c.9-.4-.3-4.3-.1-7.5l1.2-1.9-2.4.1-.7 1.2-.1-1.8-.6-1.3 1.8-1.9h1.3l.4 2.4.7.1.7-2.8.4-2.5.4-1.3.1-2.4c-1 .4-3.1-.3-4.2-3 .1.1-.6-.7-.4-1.3l-3.6-1.9c-1.6-.6-.9-1-5.3-.7-.4-.1-4.2-1.2-6.2-4.3.3-.6-2.2 1.6-3.7-2.4-.4-.1-2.7-2.1-4.7-3.1l-1.6-1.8-6.4-1.8c-.7-.4-1.8-.9-3.6-.7l-.6-1.8.6-.7c.1-.1-.1-.6.1-4.6l-1.3-1.2c-1.6-1-.7-6.3.1-9.9.7-.1 4.7-8.2 4.7-8.2 1.8-2.4 4.6-5.1 5.9-9.9l.6-3c0-.1.3-.4.1-5.1-.1 0 2.1-3.9 4.2-5.7l.7-1.2 1.8-.7s-.4-1 .7-1.2.1-.1 4.6-.1h.1c-.1-1.2-.3-2.5-.3-2.8 0 0 0-1.6-.4-2.8z"/></g></g><use xlink:href="#SVGID_1_" overflow="visible" fill="none" stroke="#b7cedf" stroke-width="2" stroke-miterlimit="10"/></g></g></g></g></g></svg>