<svg version="1.1" xmlns="http://www.w3.org/2000/svg" xmlns:xlink="http://www.w3.org/1999/xlink" x="0" y="0" width="467.9" height="433.6" viewBox="0 0 467.9 433.6" xml:space="preserve"><style type="text/css">.st0{fill-rule:evenodd;clip-rule:evenodd;fill:#dbedff;stroke:#b2c5eb}.st3{clip-path:url(#mask_1_)}.st4{fill:#dbedff;stroke:#aabde7;stroke-linejoin:round;stroke-miterlimit:10}.st5{fill-rule:evenodd;clip-rule:evenodd;fill:#db5300}</style><g id="map"><g id="jpmap"><g id="Group"><path id="Combined-Shape" class="st0" d="M219.2 376.5c.3.7.2 1.1.1 1.5-.1.4-.1.9.1 1.4.1.5.9 2.6 2 3.2s2.9 1.1 3.4 1.2 1.7.3 1.9.1c.2-.2.5-1.4 1.1-1.6.5-.2 1.4-.8 2.1-.5.7.3 1.8 1.4 2 2.1.1.6.4 1.6-.1 2s-.9.6-1.1.9c-.2.2-.2.5-.5.7s-2.2.9-1.8 1.6c.4.6.6.9 1.6.9 1-.1.9-.2 1.4-.2s1.6-.2 1.9.1c.3.2.8 1.6 1.1 2.2.3.6.4 1.2.9 1.7s1.4 1.8 1.1 2.4-.6 1-.6 1.4.1.7-.2.9c-.3.2-2.2 1.8-3.1 3.4s-3 6.6-3.5 7.8c-.5 1.3-1.5 5.2-1.7 6.5s-.6 4.8-.8 5.5c-.2.8-.6 2.9-1.1 3.4-.4.5-.6.9-1.3.8-.6-.2-.8-.5-1.5-.8s-1.2-.6-1.6-.4c-.5.3-.8.3-.8.9s-.2 3.2-.9 3.7-1.7 1.7-2.5 2c-.8.2-1.8.6-2.3 1s-1.1 1-1.1.6.1-.6-.1-.7c-.1-.2-.2-.3.3-.7.5-.4 1.6-2.3 1.6-3-.1-.7-.3-2.2-.5-3-.3-.8-.5-2.1-.5-2.3-.1-.2-.1-.5-.6-.5s-1.3-.3-1.1-.6c.2-.3.6-.5 1-.6.4 0 .8 0 .8.2s.1.3.3 0 .9-1.2.7-1.6-1-.8-2.2.1-2.5 2.3-2.2 3.7c.3 1.4 1.1 2.7 1.5 3.2s1.1 1.1 1 1.3c0 .2-.6 2.1-1.8 1.5s-2-1.2-3.1-1.4c-1.1-.2-2.7-1-3-1.5-.4-.5-1-1.3-.4-1.5s2.6-1.2 2.7-2c.1-.8.2-2.1-.4-2.9-.5-.7-1.2-1.2-1.5-1.4-.3-.1-.5 0-.4-.4s.5-1.9.4-2.7c-.2-.8-.5-1.4-.6-1.8 0-.5-.7-1.5-.8-2s-.3-1.8.2-1.6c.5.2 1.5.9 2.2.9.6 0 1.7-.3 2.1-1.1.4-.8 2.1-3.8 2.6-5.1.5-1.2 1.3-3.1 1.3-3.1s-.6 0-.7.1c-.1.1-.7.1-1 .3-.3.2-.4.3-.5.2-.1-.1-.1-.4-.3-.1s-.5.8-.6.4c-.1-.3.4-1.1 1-1.6.5-.5 1.8-1.4 1.7-2.3-.2-.8-1.3-2.3-1.7-3s-1.4-2.4-1.7-2.9-1.5-1.8-2.1-1.5-.8.4-.9 1.1c-.1.7-.2 1.8-.3 2.2-.1.5 0 .8-.4 1.3-.5.5-1.2.7-.8.9.5.2.9.1 1.7.2s1.6.3 2 .7c.4.4 1.2 1.6 0 3-1.1 1.4-2.5 1.7-2.8.9-.3-.7-.3-1.9-.5-2.3s-.2-1.2-1.2-1.1-1.4.3-1.9.9-.8.6-1.5 1.3c-.7.7-1.1.8-1.4 1.2-.3.4-.5.7-.3.1s.6-1.7.4-2.3c-.3-.6-1.2-2.1-1.6-2.7-.5-.6-1.4-1.9-1.2-2.5.3-.6.5-1.4 1.3-1.1s1.6.9 1.8 1.3c.1.4.5 1.1.5 1.6s.1 1.2.3 1.1.5-.4 1.1-.3 1.2.5 1.1.1c-.1-.4-.7-1.7-1.3-2.4-.6-.7-1.6-1.5-2.3-1.8-.6-.4-3.5-2.3-3.5-3.6s.4-2.1 1.4-2.2c1-.2 1 0 1 0s2.9-3.5 3.7-2.9.9 1.4 1.3 1.5c.4.1.6.2 1.1-.4s1.6-2.7 2.2-2.8c.6-.1 1 .1 1.6.3.5.2 1.4 0 1.7-.4s.9-3.3.9-3.3.7-1.7 2-2c1.4-.3 1.4-.5 2.2-.5s1.4-.2 2.2-.4 2.3-.8 2.6-.1zm50.8-7c.5.3 1.1.5 1.6.4.4-.1.7-.6 1.2-.2.6.4.7.5 1 .6.3 0 .5.4.7.7.1.3.7.9 1.2 1.3s1.5.7 2 .7 1.7.1 2 .4c.3.2.7.9.4 1.6-.3.8-.4 1.5-.1 2.2.4.7.9 1.1 1 2 0 .8.2 1.9-.3 2.5-.5.7-1.2 1-1.8 1.4-.5.4-1 .9-1.4 1.1-.5.3-1.3 1-1.8 1.5s-1.4 1.6-1.8 2.3c-.4.8-.7 1.7-1 2.3-.2.6-.4 1.1-.4 1.4 0 .4 0 1.1-.1.9-.2-.2-1.4-1.3-1.6-1.9s-1.1-1.9-2-2.8c-.9-.8-2.5-1.2-3.5-1.3-1-.1-1.8-.1-2.8.6-.9.7-1.4 1.1-2.1 1.3-.6.3-2.2.8-2.5 1.4s-.4 2.1-.7 2.5c-.3.4-.9 1.7-1.3 2.2s-.9 1.2-1 1.4c-.1.2-.9.2-1.2.5-.2.3-.3.3-.3.8s-.1 1.5-.2 1.7-.3.5-.3.9-.1.7.1 1.1.7 1.3.3 1.2c-.4-.1-1-.5-1.3-.8-.2-.3-.3-.8-.6-.8-.3.1-.6.2-1.3.3-.6 0-.9-.2-1.5-.2s-1.6-.3-1.4-.5 1.2-1.4 1.2-1.6v-.2s.2-.4-1-.4-.9-.4-1.2-.5c-.4-.1-1.1.4-1.3.1-.1-.2.1-.9-.2-1.1-.3-.3-1-1.1-.7-1.5.3-.3.9-.7.9-1.3.1-.7.2-1.1.4-1.3.2-.2 1-.7.9-.9-.1-.1-1.2-1.3-1.6-1.6-.4-.3-1.1-1.2-1-1.7.2-.5.6-1.3-.1-1.5-.7-.1-1.5.3-1.9.5s-.8.5-1.3.8-1.7.4-1.1.1c.5-.4 1.9-1 2.3-1.3s1.7-1.1 2.1-1.2c.3-.1.8-.5 1.2-.9.4-.3.6-.6 1.1-1s1.2-.5 1.6-.9 1.2-.8 1.3-1.1c.1-.3.4-1.7.4-2.1s.7-1.7 1-2.2c.3-.4.6-1.3 1-1.7.4-.4 1.2-.8 1.5-1.2.3-.4.7-1.4 1-1 .3.5.6 1.4.8 1.9.2.5 1.2 2.2 1.5 2.3.3 0 .3 0 .9-.2.6-.3 1-.5 1.8-.6s1.2-.1 1.4-.1c.2 0 1.6.1 1.6.1s2.1-.6 2.5-1.5c.3-.9.2-1.6.2-2 0-.3-.5-1.2.2-1.3.6-.1.6.1 1.3-.5.6-.5.8-1.2 1.3-1.1.4.1.7 0 1.2-.5.4-.1 1.1-.7 1.6-.5zm118.6-145.4c.1-.2.3.2.4.3s.5.3.6.3c.1.1.5.4.7.5s.5.1.9.1.7.2.8.4c.2.2.8 1 .9 1.2s.9.8 1.5 1 1.4.1 1.6 0c.2 0 1.6-1.1 1.7-1.2.1-.2.3-.2.3-.2s-.1.8-.2.9c0 .2-.1.6-.2.8s-.5 2.4-.5 2.4-.5.9-.4 1.3c.1.4 0 2.6 0 3.2 0 .6.1 4.1.2 4.7.1.5.7 3.7 1.1 4.3.4.5 1.2 1.2 1.6 1.6.5.4 1.4 1 1.6 1.2.3.3.8.7 1.1 1.2.3.5 1.1 1.7 1.1 2s.1 1.7.3 2c.2.3.4.6.6.8s0 .7 0 1.1c0 .4.2 1.2.5 1.5s1.1 1 1.2 1.4c.1.4.5 1.9.6 2.3.1.5.2 1 .2 1.4s-.3 2.5-.3 2.8-.2.7 0 .9c.2.2.7.1.9.3.2.2.3 1.2.1 1.6-.2.5-.3.7-.2 1 .1.3.4.7.1 1.2s-.9 1.3-1.1 1.7c-.2.4-.5.7-.6 1.2 0 .5.2 1.2-.1 1.4-.3.2-.7.6-.8 1 0 .4.1 1.1.1 1.2s0 .4-.3.7c-.3.3-.6.6-1.1.9s-1-.1-1.1.2c-.1.3-.3.9-.2 1 0 .1 0 .5-.3.3s-.8-.7-.7-.4c.1.4-.1.9 0 1.1.1.3.4 1 .1 1s-.4-.5-.5-.1c0 .4-.5.2-.6.1-.1-.2-.4-.4-.4-.1 0 .4-.1 1-.3 1.3-.2.3-.5.9-.4 1.4s.3.7.2.9c-.2.2-.3.5-.6.6-.4.2-.9.4-.6.6s.6.2.5.5-.1.6-.2 1c0 .4.1.7.3.9.3.3.5.5.3.7-.3.1-.2-.2-.5.1-.3.3-.5.7-.5.9 0 .2-.3.4 0 .7.3.2.5.2.6.4.1.2-.1 0 .1.5s.3.3.3.8.2 1.5-.1 1.2c-.3-.3-.7-.9-1.1-1.1s-.9-.4-.6-.5c.3-.2.7-.3.3-.5-.5-.2-.6-.3-.8-.2-.2.1-.1.2-.4-.1-.3-.2-.5-.4-1.2-.4-.6 0-1.1.3-1.4.6-.4.3-.6.4-.7.7 0 .3-.1.5-.3.6-.2 0-.3 0-.4-.4-.2-.4-.2-.6-.5-.5-.4.1-.6.2-.7.5s-.2 1.3-.5 1.9-.4.9-.8 1.3-.9 1.2-.9 1.6c-.1.4-.4 1.3-.4 1.9.1.6.1 1.5.1 1.8s.6 1.7.7 1.9c.1.2.4.5.5 1.1s.4 1.7.4 2.6c.1.8.4 3.4.5 3.9 0 .5.2 2.1.1 2.6s-.2 1.2-.4 1.7c-.2.6-.2.5-.3 1.2-.2.7-.2 1.3-.4 1.9-.2.6-.4 1.7-.6 2.2-.3.4-.5.6-.9.9-.5.4-.9.6-1.1.9-.2.2-.3 1.2-.6 1.3-.3.1-.6.2-.7.6s-.5 1.9-.6 2.3c-.2.4-.4 1.1-.6 1.6s-.8.8-.8 1.2c0 .4-.2.9-.2 1.2 0 .4.1.9 0 1.1s-.1.5 0 .7.3.7-.2 1.2-1 1-1 1.3c0 .4-.2 1.4-.1 1.8.1.5.3 1.3.5 1.5.1.2 1.2 1.6 1.4 2 .2.4.8 1.2 1.1 1.6.3.5 1.5 2.3 1.6 2.6.2.4.7 1.2.7 1.3 0 .1.1.3-.2.2-.3-.1-1.6-.1-2.4 0-.7.1-1.1.3-1.6.6s-1.7 1.4-2 2-1.1 1.6-1.2 2.5-.3 2.8-.4 3.2c-.1.4-.7 2.7-1.1 2.7s-1.6.1-2 .2-1.2.3-1.7.7c-.5.4-.8.8-1.3 1.1-.5.2-.9.4-1.1.9s-.4 1.5-.8 1.6-1.2.2-1.5-.1c-.4-.3-1.6-.5-1.2-.9s1-.7 1.1-1.4c.1-.7 0-2.5-.1-2.9 0-.4-.4-1.9-.4-2.1s0-.5.2-.7.6-.5.9-.7c.3-.1.5-.2.5-.5.1-.3.7-1 .9-1.2.2-.3.6-.7.9-1s1.3-1.5.8-2-1.3-.9-2.1-.9c-.7 0-1.6.2-2 .6s-1.2 1.5-1.5 1.8c-.3.4-.6 1-.9 1.4-.2.4-.8.9-.6 1.3.2.4.8 1.3.9 1.6.1.4.4 1.9-.2 2.6-.5.7-1.4 1.2-1.3.4.1-.8-.6-1.9-.8-2.2-.2-.3-1.4-.8-1.9-.9s-1.3-.1-1.8 0-1.5.3-2 .6-1.3.8-1.4 1-.2.5-.1.9.3.8.1.7c-.2-.1-1.2.6-1.2 1.1s.1 1.2.2 1.5.5.9.6 1c0 .2.2 1.5-.8 2.6-1 1.2-1.4 2.5-1.7 2.9-.4.5-1.2 1.2-1.7 1s-1.3-.8-1.6-.9c-.3-.1-.5-.7-.4-1.3.1-.6.2-1.8.2-2.3s-.1-1.2-.1-1.7.3-1.2.8-1.3c.5-.1 1.3-.4 1.3-.8 0-.3-.9-1-1.5-1.3s-1.8-.4-2.7-.2c-.8.2-1.6.8-1.8 1.1-.3.2-.5.2-.4.7s.5.8.1 1l-1.6.8c-.5.2-.9.4-1.1.7-.1.4-.4 1.3-.8 1.8s-1.3 1.1-1.4 1.6-.5 1.2-.4 1.6.4 1 .1.9-1.5-.5-2.3-.8-1.4-.6-2.5-.4c-1 .2-1.7.4-2.3.4-.6-.1-1.9-.5-2.6-.6-.7 0-2.6 0-3.8.2-1.2.2-3.5 1-4.1 1.2s-2.7.3-2.6 0c.2-.3.9-1.2 1.2-1 .3.1.6.5.8 0 .3-.5 1-1 1.5-1.1s.7-.2 1 0 .3-.1.3-.5-.1-1.1-.5-1.3c-.4-.2-.9-.5-1.1-.1s-.1.7-.6.6-1.7-.1-2.3-.4c-.5-.3-.8-.2-1-.5s-.5-1.2-.6-.8c-.2.4-.4.9-.2 1.6.2.6.8 1.4.5 1.4-.3.1-1.1-.2-1.7-1.3-.6-1.1-.5-1.9-.4-2.7.1-.8.3-1.6.3-1.9s0-.5-.3-.5-.3.1-.7.2c-.4.1-.6 0-.9.2s-.5.5-.7.7-.6.8-.7 1.1c-.2.4-1.5 2.1-1.8 2.7s-.5 2-.2 2.6 1.5 1.7 2 1.9c.5.2 1.6.9 2.1.9.5.1 1.5.3 1.7.7.2.4.9 1.2.5 1.8-.5.5-.6.9-.9 1.4-.3.4-.7.9-.8.8-.1-.1-.4-.5-.8-.7-.3-.1-.5-.2-.8-.2s-.5-.4-.7-.1-.3.7-.9.8c-.5.1-.7.1-1.1.2s-.6.2-.8.4-.8.4-1.4.5c-.6.2-1.6.4-1.8.9-.2.5-.2.9-.3 1.2-.1.2-.3.4-.6.4-.4 0-.8.1-.7.4.1.3 1.1 1.1.9 1.4-.2.4-.6.5-.8.8-.2.3-.3.4-.4.5s-.3 0-.5.3c-.2.2-.7.5-1 .7s-.8.8-.8 1.2c-.1.5-.5 1.1-.6 1.4-.2.3-.1.6-.4.9s-.8 1.1-.8 1.3c0 .2-.4.9-1.2 1.6-.8.6-1.4 1.5-2.6 1.5s-2.9-.5-3.8-.8-1.8-1.1-2-1.7c-.2-.5-.5-.9-.7-1s-.7-.4-.3-.5c.4-.1 1.4-.2 1-.5s-.7-.7-1.3-.9c-.6-.2-1.2-.2-1.4-.5-.2-.4-.5-1.2-1.1-1.6-.6-.3-1-.4-1.3-.4-.3-.1-.6-.2-.4-.5s.5-.5.4-.8c-.2-.2-.8-.2-.3-.5.5-.2 1.7-.7 1.6-1 0-.3-.3-.6-.6-.7-.4-.1-.7.2-.6-.3s.3-1 .5-1 1 0 .9-.4-.7-1.4-1-1.5c-.3-.2-.6-1-.3-1.4.3-.4 1.1-.6 1.5-.9s2.1-1.6 2.4-2 .7-1.3 1-1.7c.4-.4.8-.8.8-1.2 0-.4-.4-.9-.4-1.1s-.5-.6-1-.8c-.5-.1-1.6-.3-2-.1-.4.2-1.2 1-1.5 1-.1 0-.5.1-.9.1.2.3.2.7.1 1-.3.4-.7.8-1.1 1.4-.3.5-.5.9-.7 1.4-.1.5-.3 2.3-.5 2.6-.3.3-.8.5-1.3.7-.5.1-2.5-.4-2.5-.9 0-.4 0-1.5.5-2 .4-.5 1.7-1.8 1.7-1.8s1.1-1 1.3-1.2c.2-.2.5-.7.8-1-.1 0-.2 0-.3-.1-1-.3-2.4-1-2.7-1.4-.4-.4-1-1-1.8-1.1s-3.4-.1-3.6-.2c-.2 0-.4-.2-.8.1-.4.2-.5.6-1.5.7s-1.3 0-1.8 0-.6.2-.8.6c-.2.3-.8 1.4-1.1 1.6-.4.2-.8.9-1.5.6s-.8-.8-1.1-.6c-.3.2-.8.7-.5.7s.8-.1.9.2c0 .3-.5 1.7-1.4 1.9-.9.2-2.2.5-2.7.4-.5-.2-.9-.2-.9-.6-.1-.4 0-.9-.3-.8-.2.2-.6.1-.9.4s-.3.6-.9.7c-.6.2-1.3.6-1.8.3s-.5-.4-.7-.2c-.3.2-.6.3-.7.5-.1.3-.4 1-1.4.9-.9 0-.9-.5-1.5-.5-.5 0-2 .3-2.4.5s-1.8 1.1-2.5 1.4-2.1.6-2.4.8c-.3.1-.8.8-1.1.9-.4.1-1.1.2-1.5.2-.5 0-.6.2-1.2.1s-.6-.8-.8-1.4c-.3-.5-.9-1.7-1.8-1.7-.9.1-1.4.8-1.7 1.2-.4.4-.9 1.1-1 1.5-.1.5 0 1.3-.2 1.6-.2.2-.5.5-.5.9s.1 1.5 0 1.8-.3.9-.6.9c-.3.1-.8 0-.7.3.1.3.4 1.1.3 1.5 0 .4 0 .5-.5.9-.6.4-1.4.7-1.2.4.2-.2.1-.7.5-.7s.6.1.6-.3-.6-.9-1.1-1-1.2-.3-1.5-.5-.7-.8-1.4-.8c-.7-.1-1 0-1.3 0s-.5-.2-.4-.4c.2-.2 0-.9-.5-.9s-2.1.2-2.8.4c-.7.2-2.2.3-2.6.4-.5.1-1.2.2-1.6.6-.4.3-.5.7-1.3.7s-1.6-.5-2.2-.8c-.7-.3-.6-.5-1.6-.6-.9 0-1.7-.1-1.7-.5s.1-1.1-.3-1.3c-.5-.2-1-.4-.8-.5s.8-.6.8-1c0-.5-.4-1.7-.3-2 .1-.2 1-1.1 1.2-1.4.2-.2.6-1.1.9-1.1.3-.1.8-.2 1.3.1.5.3 1.4.8 2 .7.5-.1 1.6-.2 2.1-.4.5-.3 1.6-.9 1.9-1.4.4-.5 1.4-2 1.8-2.5.4-.5.9-1.2 1.6-1.3.6-.1 1.6-.2 2.1-.3.5-.1 1-.5 1.5-1 .5-.6 1.7-1.4 2-1.8s1.3-1.1 1.6-1.4c.3-.3 1.7-1.9 2.2-2.1s2.2-1.3 2.3-1.6c.2-.2 1.1-1.2 1.2-1.4.1-.2 1.3-1.3 1.7-1.6.4-.3 1.9-1.5 2-1.8s.5-1.8.8-2.1c.3-.3.8-.4 1.1-.5.3-.1.7-.7 1-.7.2 0 1.2-.2 1.6-.4.4-.2 1.5-.2 1.7-.3.2-.1.7-.5 1.1-.8s.5-.5.9-.4c.4.2 1.1.4 1.2.6s.2.7 0 .9c-.2.2-.8.6-.6 1 .1.4.6 1.1 1.2.9s1.6-.5 1.9-.9 1.5-1.4 2.3-1.4 3 .4 4 .5 2.6.1 3-.1 1.5-.3 2.4-.3 2.2.1 2.9-.1c.7-.2 2.2-1.1 2.6-1.3.4-.2 2.3-.9 2.9-1 .6 0 2.3-.1 3.1.1.8.1 1.6.3 2.1.2.5-.1.7-.3 1.1-.3.4.1 1.1-.1 1.5-.3.4-.2 1.9-1.1 2.4-1.1.5-.1 2.3-.9 2.8-.5.5.3 1 1.4.7 1.6s-.7.4-1 .8-.7 1-.4 1.3c.4.3.4.2.9.7s.6 1.5 1 1.2.5-.4.4-.8-.5-.6 0-.8c.5-.2 1.2-.5 1.6-.3s.1.5.5.4c.5-.1 1.1-.1 1.5.2.4.3 1.8 1.1 2.1.9.4-.2.9-1.1 1.5-1.3.6-.2 1.5-1 1.8-1.3s.9-1.4 1.5-1.3c.5.2 1.3.5 1.5.3s.1-1 .4-1.6c.3-.5-.2-1-.5-1.6s-1.9-2.2-1.6-2.9c.3-.8.8-2.2 1.2-2.6.5-.4 1.2-1.3 1.3-1.8.1-.5.1-1.1.5-1.2s2-1 2.2-1.3c.3-.3 2.4-1.9 2.8-2.3s2.9-3.4 3.6-4.5c.1-.2.3-.5.5-.9l.3-.8s.9-2.1 1.2-3.8c.3-1.6-.3-2.3-1-3.6-.7-1.3-.5-2-.1-3.1s2-2.6 3.1-2.7 2.4-1.1 3.2-1.4c.8-.3 2.4-1.5 3.6-1.1 1.3.4 0 2.1-.4 2.6s-.4 1.5-.4 1.8-1.2.5-1.6.7-1.5 1.2-1.8 1.5-1.2.1-1.7-.1c-.4-.2-.9.6-1.2 1.4s.3.9.9 1.2c.6.3 1.3-.2 1.8-.4.5-.3.4.8.4 1.6s0 1.6-.7 2.5c-.6.9.5 1.6.5 1.6l.9.5c.4.2.7.3 1.1.4 1 .2 3 .3 3.5-.3s.8-2.4 1.2-2.7c.4-.3 1-.7 1.8-.9.9-.2 1.9-.3 2.4-.5s2-.6 2.6-.9 1.4-.5 2.1-.9c.6-.4 1.3-.7 1.6-1 .3-.3.5-.9 1.1-.9s2.3.1 2.9-.6c.7-.7 2.2-2.2 2.8-2.6.6-.3 1.6-.7 1.9-1.3.4-.7.5-1.1 1-1.6s.9-1.1 1-1.2.7-1.2.7-1.2c.3-.7.8-1.8 1.1-2.5.3-.7.8-1.7 1.3-2.2.4-.5 1.7-1.4 2-1.6s2.7-1.6 3.6-1.9 2.9-2.1 3.4-2.7.8-2.5.8-3.1 1.4-4.4 1.6-4.8.7-2.2.9-2.6c.2-.4 1.5-1.4 1.7-1.9.2-.4 1.1-1.5 1.4-2s.7-1.7.7-2.1.6-1.5.7-1.9.2-1 .3-1.5c.1-.5.5-2.5.5-2.9 0-.5 1.3-1.4 1.6-1.8.3-.4.3-1.3.3-1.6 0-.4.2-1.2.4-1.7.1-.4.2-1.1.4-1.5.3-.3.2-2.3.2-2.7 0-.4-.4-1.2-.7-1.6-.3-.4-.5-1.2-.6-1.6 0-.3-.5-.9-.8-1.1-.2-.2-.9 0-1.1.1s-1.2.4-1.9.5c-.7.1-1.1-.9-1.2-1.2-.1-.3.3-.8.4-.8s1.5-.2 2.1-.3 1.4-1 1.7-1.4c.4-.4 1.1-2.8 1.1-3.2.1-.5.2-2.5.1-2.9-.1-.5-.8-1-1-1.2s-.3-.7-.4-1 .1-.9.1-1.1v-1.1c0-.2-.4-.3-.8-.5-.4-.1-.4-.4-.6-.5-.2-.2.5-.7.6-.8.1-.2.6-.5.8-.7.2-.2.7-1 .8-1.3.1-.3.6-.5.8-.6.2-.1.8.2 1.2.4.3.1.8-.3.9-.4 0-.1.8-.2 1-.3.2-.2.6-.4.6-.5s.4-1 .5-1.3.1-.9.2-1.3.2-1.2.3-1.5c0-.3.2-1.1.2-1.4 0-.3-.7-.8-.9-.9-.2-.1-.2-.4-.2-.6 0-.2.7 0 .8 0 .2 0 .2-.4.2-.6 0-.2.1-1.1.1-1.3 0-.3.2-.7.3-.6.1 0 .6.3.9.6s.5.6.8.8c.3.1.7-.2.9-.4.2-.2.7-.4 1-.3.3 0 .9.5 1.1.7s.3.8.2 1c-.1.3-.1 1.1-.1 1.1s.3 1.3.3 1.4c0 .1.2 1.5.2 1.8 0 .4.3 1.3.3 1.5s.5.5.8.8c.3.2.6.1.8.1.3-.1.3-.1.5-.4.1-.3.6-.7.8-1 .2-.3.1-.6 0-1s0-.4.1-.5.3-.6.4-.9c.1-.3.4.2.6.2.1 0 .6.2.7.3.1.2.5.7.6.9s.7.5.9.6c.2.1.7.5.8.7.1.2.5.2.8 0s.7-.8.8-1.1c.1-.3.7-1.6.8-1.8.1-.3.1-1.4.2-1.8 0-.4.3-.6.4-.9 0-.3-.1-1.2-.3-1.5-.2-.3-.7-.8-.8-.9-.1-.1-.3-.4-.4-.4-.2 0-.4.5-.4.7s-.3.4-.5.6c-.2.2-.5.3-.8.4-.3.1-.6.3-.7.3s-.6-.2-.7-.2c-.1-.1-.4.1-.5.2-.1.1-.3.3-.6.3-.2 0-.7.1-.9.1-.2 0-.6.3-.8.4-.2.1-.6.3-.7.3s-.3-.2-.5-.3 0-.8 0-1.1.2-.7.3-1.1c.1-.3.3-.9.3-1.5 0-.5.3-.6.3-.8s.3-1.2.5-1.6c.2-.4.5-.6.8-.8.2-.2.2-.8.2-1-.7-.2-.5-.3-.4-.5zm-41.9 67.6c.2 0 .2.5.2.9 0 .5-.2 1.3-.4 1.8s-1.1 1.5-.8 1.9c.4.3.5.5 1 .6s1.1 0 1.2.4-.2 2-1.2 2.9-1.7 1.3-2.3 1.6c-.5.3-2 .6-2.4.6-.3 0-.4-.4.1-.6s.8-.3.8-.8 0-1 .3-1.2.9-.8.5-1.1c-.4-.3-.5-.6-.9-.2-.3.3-.3.9-.6.7s-.5-.8-.5-1.1c0-.3.1-.7.2-1 0-.3.3-.6.5-.9.1-.3.9-1.4.9-1.4s.7-.9 1.1-1.1c.3-.1 1-.7 1.2-.9.3-.3.9-1.1 1.1-1.1zm56-156c1.4-2 2.3 1.2 3.2 2 1.1 1.1 2.2 1.9 3.2 3.2s1.9 2.6 3 3.7c3 3 4.4 7.1 7.3 10.3 1.1 1.2 2.3 2.2 3.5 3.2 1.3 1.2 2.7 2.4 4.3 3.4 1.5.9 3.2 1.3 4.7 2.3.4.3.9.6 1.3.8 2.5 1.4 4.9 2.1 7.8 3.1 2.9 1.1 5.6 3.6 8.9 3.1s5.5-3.6 7.5-5.9c.7-.8 2.9-3.8 3-1.4.2 3.5-3.8 5.8-4.5 9-.5 2.7 2.3 4.4 2.7 6.9.2 1.1-.3 2.3-.1 3.4.2 1.1 1.1 2.1 2.2 2.4.6.2 1.6.3 2.2.1.7-.2.9-.9 1.2-1.4.4-.6.9-1.1 1.7-1.4.5-.1 1.4-.2 1.5.4.1.5-.8 1.1-1.2 1.4-1.3 1.1-2.4 2.9-4.2 3.3-1.8.4-3.6-.1-5.2 1.1-.8.6-1.2 1.5-2 2-1.5.9-2.1-.7-3.2-.5-.8.1-1 1.2-1.5 1.7-.7.7-2.2.1-3-.2-1.7-.5-3.9-.9-5.6-.4-3.1 1-5.5 3.2-7.7 5.4-2.8 2.8-6.1 5.7-7.1 9.7-.3 1.3.4 2.5.1 3.9-.2 1.5-1.4 2.6-1.4 4.2-3.2-3.7-7.7-5-12-7.2-1.5-.8-3-1.6-4.3-2.8-.9-.8-2.1-1.4-3.2-2-2.1-1.1-3.9-2.8-6.3-3.5-.8-.2-1.5 0-2.2.2-1.6.5-3 1.4-4.3 2.3-1.2.8-3.4 5.4-5.3 4.6-.5-.2-.6-.9-.9-1.4-.2-.5-.6-.9-.9-1.3-.7-1.1-1.4-2.2-2.6-2.9-1.4-.8-4-.6-5.2.5-1.1 1.1-2 2.8-2.2 4.3-.3 2.3 1.1 2.3 2.6 3.5 1 .8 1.5 1.5 2.8 1.5 2.5.1 3.4 1 4.9 2.8.8.9 1.1 1.5 2.2 2.1 1.2.6 2.7 1.3 1.5 2.5-.5.5-1.8 1.6-2.7 1.2-.8-.3-1.4-1-2.1-1.4-.8-.4-1.4-.3-2.3-.3-1.8 0-2.9 1.3-3.9 2.5-.7.8-.6 1.7-.8 2.6-.2.6-1.5 1.3-2 1.7-.3.2-1.6 1.7-1.8 1.7-2.1-.2-3.3-1.7-3.4-3.7 0-1.1.5-5.4 2.2-4.9 0-1.3.5-2.6.1-3.9-.2-.8-.9-1.9-1.5-2.4-.7-.5-1.5-.6-2.1-1.1-.5-.4-.7-1.1-1.2-1.6-2.1-2 .2-8 2.1-9.6 2.1-1.8 5.7-2.2 7.5-4.2.8-.9 1.5-2.2 1.7-3.5s-1.2-2.3-2-3.1c-1-1.1-1.2-3.6.7-4 2.9-.6 3.5 2.2 5.8 3 .5.2 1.1.2 1.7.2s1.3-.4 1.8-.3c.9.1 1.5 1 2.4 1.1 1.1.1 2.3-.4 3-1.2.8-.9 1.7-1.9 1.9-3.1.2-1.4-.6-1.8-1-3-.2-.8.2-1.6 0-2.5-.2-1.1-.8-1.8-.6-2.9.3-1.3 1.3-1.6 2.4-2.1 1.2-.5 1.5-1 2.3-1.9.1-.1.1-.3.1-.4l.1-.1s-.1-.2-.1-.4c.1-.2.3-1.2.3-1.5.1-1.6-.1-3.2 0-4.8.1-1.4.6-2.6 1.1-3.9.4-1 .4-2 .7-3.1.6-2.5 0-5-.5-7.4-.6-2.5-2.7-4.7-2.8-7.3 0-1.6.7-4.5 2.6-5 1.6-.4 2.4-.5 3.1-1.4z"/><path id="Fill-101" class="st0" d="M135 395c-.1 0-.1-.2-.1-.3 0-.2.1-.3.1-.4-.1-.1-.1-.1 0-.3s-.1-.5-.2-.5-.1-.1 0-.2c.1 0 .1-.2 0-.4s-.1-.2 0-.3c0-.1-.1-.3-.2-.4-.1-.1-.2-.1-.3-.3-.1-.2-.1-.3 0-.5s-.1-.2-.2-.2-.2 0-.3.1c-.1.2-.1-.2-.2-.3-.1-.1-.2-.2-.2-.3 0-.1-.3-.2-.4-.2-.1 0-.1-.2-.3-.3-.1 0-.1-.2 0-.3.1-.1-.1-.1-.2-.1s-.1 0-.2.1c0 .1-.1.1-.2.1s-.1.1-.2.3c-.1.2 0 .3.1.4s.2.1.2.2-.1.3-.1.4c-.1.1-.2.4-.4.7-.2.3-.2.5-.3.6 0 .1 0 .2-.1.3-.1 0-.1.1-.2.3 0 .2-.1.1-.2.2s-.1.1-.2.3c-.2.1-.3.2-.3.4s-.1.2-.3.2c-.2.1-.3.2-.4.3-.1.1-.1.4-.3.4s-.3 0-.4.1c-.1.1-.3.2-.5.1s-.2 0-.2.1.1.1.2.3c.1.2.1.6 0 .7l-.1.1c-.1.1-.2.2-.4.3-.2.2-.6.2-.8.3s-.3.1-.3.2 0 .3-.1.3c-.2 0-.2.1-.2.2s0 .1-.1.2-.1.3 0 .5.3.1.5.1c.1 0 .2.1.3.2 0 .1 0 .1.2.2.1.1-.1.1-.1 0h-.3c-.1 0-.2 0-.2-.1s.1-.1 0-.2-.1 0-.1 0c0 .1-.2.1-.2-.1 0-.1-.1-.1-.2-.1s-.1.1.1.1c.1 0 .1.1-.1.2-.1.1-.3.2-.5.5l-.2.2c-.1.1-.2.1-.2.1-.1 0-.4.1-.7.3-.3.2-.3.1-.5 0-.3-.1-.2.1-.3.2s-.3.1-.4 0c-.1-.1-.2 0-.3 0s-.2 0-.3-.1 0-.1 0-.2-.1-.1-.2-.2-.1-.1-.2-.1h-.2c-.1 0-.1-.1-.2-.1 0-.1.1-.1.2-.1.1.1.1 0 .1-.1-.1-.1 0-.2.1-.3 0-.1.1-.3.1-.4s.1-.3.2-.3l.3-.3c.1-.1.1-.1 0-.1s-.4-.1-.5-.2-.4-.1-.6-.2c-.2-.1-.1.1-.2.1s-.1-.1-.1-.2c.1-.1.1-.2 0-.2s-.3-.1-.5-.1c-.2-.1-.3 0-.5.1s-.7.1-.9.1h-.4c-.1 0-.2.1-.3 0-.1 0-.3-.1-.4-.1-.1 0-.1-.1-.2-.2s-.1 0-.1.1-.1.2-.1.3c0 .1 0 .1-.1.2s-.1.2-.1.3c0 .1 0 .2.1.1.1 0 .1 0 .2.1s.3.3.3.4 0 .3.1.4 0 .1-.2.1-.2.1-.3.3c0 .2 0 .5.1.6 0 .1.2.2.2.3 0 .1 0 .2.1.3.1.1.2.3.2.5s.1.2.3.2c.1 0 .1 0 .3.1s.2 0 .3-.1.1-.2.1-.2h.2c.1 0 .2.1.3.2s.1.2.4.1c.2 0 .2 0 .5.3.3.2.7.2.8.3.1 0 .2.1.2.4s-.1.5-.2.7c-.1.2-.2.3-.3.4s-.1.2-.3.4c-.1.2-.1.1-.2 0 0-.1-.1-.1-.2 0l-.3.3c-.1.1-.2 0-.3-.1-.1-.2-.2-.1-.1.1s-.2.2-.2.3c0 .1 0 .2-.2.2s-.1 0-.2.4-.2 0-.4 0c-.2.1-.4.2-.5.2s-.1.1-.1.2 0 .1-.2.2-.2 0-.3-.1-.1-.1-.3-.2c-.1-.1-.2.1-.2.2s0 .1-.2 0c-.1-.1-.1 0-.1.1v.1c-.1 0-.1-.1-.1-.1-.1-.1-.2 0-.3 0s0 .2-.1.3c-.1.1-.1.1.1.4.1.3 0 .3-.2.3s-.2.1-.2.2c0 .2-.2.3-.3.3s-.1 0-.2.1-.3.2-.3.2c0 .1-.2.2-.3.2s-.1.2 0 .3c.1.1.1.2 0 .3-.1.1-.2.1-.3.1h-.2c-.1 0-.1.1-.2 0l-.2-.2c-.1-.1-.2 0-.2-.1s0-.1-.1 0-.1.2-.1.2c-.1 0-.1.1-.3.2-.2 0-.4.2-.4.3 0 .1-.1.1-.2.1h-.2c-.1-.1-.3-.3-.4-.5-.1-.2-.2-.2-.3-.2-.2 0-.2 0-.1.1s.1.2.1.3v.8c0 .5.4.9.6 1.3.1.2.2.4.3.7.1.3.3.6.3.7 0 .2-.1.4-.1.4-.1.1 0 .3.1.4s.1.1.3.1c.1-.1.2.2.2.3v.7c0 .1-.1.1-.1.1-.1 0-.1.1-.2.2s-.2.2-.3.2c-.1.1-.1.2-.2.1h-.2v.2c0 .1-.1.1-.2.2h-.1c-.1.1-.1.1-.2 0 0-.1 0-.1-.2-.1-.1 0-.1.1-.2 0-.2 0-.1.1-.2.2s-.1.2-.1.2c0 .1-.2.1-.3.2s-.1.1-.2.1-.1 0-.2.1c-.1 0-.1.1 0 .2s.1.1.1.2v.1c0 .1-.1.1-.1 0-.1 0-.1-.1-.2-.2l-.2-.2c-.1 0-.1.1 0 .2s.1.2.1.3c0 .2 0 .1.1 0s0-.1.1-.1c.1.1.1.4.2.5.1.1.1.2 0 .1h-.2c-.1 0-.2.1-.4.2-.1.1 0 .2.1.3.2.1.2.1.1.1s-.1.1-.3-.1-.3-.1-.4-.1c-.1 0-.1-.1-.2-.1 0 0-.1 0-.2.1s0 .1-.1.2-.1.1 0 .2c.1 0 .1.2-.1.2s-.2.1-.1.2.2.3.2.4.1.2.2.2.1.1.1.2v.1c-.1.2.1.2.1.2s.1 0 .1.2c0 .1 0 0 .2.2.2.1.1.1.3.3.1.1-.1.1-.1.1-.1 0-.3.2-.5.2-.1.1-.1.2 0 .4s0 0 .2 0c.1 0 .2-.1.2.1s.1.1.2.1c.1-.1.1.1 0 .1s-.1 0-.1.1 0 .2.1.2 0 .2-.1.4-.2.4-.3.7c0 .3 0 .7.1.7s.2.1.3.1c.1.1.1 0 .2.1 0 .1.1.1.2 0 .1 0 .2-.2.2-.2.1-.1.5-.2.7-.3.2-.1.2-.1.4 0s.3 0 .4-.1c.1-.1.1-.2.2-.3h.1s.1 0 .1-.1c.1-.1.2-.4.3-.6s.2-.2.3-.2.2 0 .3-.1l.1-.1c.1 0 .2 0 .4-.1.3 0 .1-.2 0-.2-.1-.1 0-.1.1-.1s.3 0 .3.1c.1 0 .2.1.2 0l.2-.2c.1-.1.2-.3.3-.4l.5-.5c.2 0 .1-.1.2-.2s0-.1.1-.1.1-.1.1-.2 0-.3-.2-.3c-.1-.1-.1-.2-.1-.3 0-.1.2-.1 0-.2s-.1 0-.3 0c-.1 0-.3 0-.6.2s-.3.3-.3.5-.1.2-.1.1c-.1-.1-.1-.1-.1 0-.1.1-.2 0-.2-.1v-.2s0-.3-.1-.4l-.1-.1c-.1-.1-.3-.2-.5-.2s-.2-.2-.2-.3c-.1-.1.1-.2.3-.3.2-.1.3-.2.4-.3.1-.1.1-.2.2-.2l.2-.2c0-.1.1-.1.1-.2l.1-.1c.1-.1 0-.2 0-.4s0-.3.1-.4.1-.2.2-.3.1-.2.1-.2c.1 0 .1-.1.2-.1 0-.1.2-.1.3-.1.1-.1.1-.2.1-.4 0-.1 0-.2-.1-.2l-.1-.1c0-.1 0-.1.1-.1s.2 0 .3-.1c.2-.1.2-.3.2-.5 0-.1.3-.1.4-.1.1 0 .2.1.3-.1s-.1 0-.2-.2c-.1-.1-.1-.1-.2-.1-.2 0-.1-.2 0-.2.1-.1.1-.2.3-.2.1 0 .1 0 .2-.1s.1-.2.1-.2.2-.1.3-.2.1-.1.3.1c.2.1.1.2.2.4s.3.4.7.8.4.4.6.4c.1.1.2.1.3.2.1.2.1.1.2.1.2 0 0-.3 0-.4s-.1-.3-.2-.6-.3-.3-.3-.3c0-.1-.2-.1-.2-.1h.3c.2 0 .1-.1.1-.1h-.6c-.1-.1-.1-.2-.3-.2-.1-.1-.2-.2-.2-.4s-.5-.6-.5-.7 0-.4.1-.5.1-.2 0-.3l-.3-.3c-.1-.1-.2-.1-.3-.2 0-.1-.1-.1-.1-.1-.1-.1-.2-.1-.4-.2s-.3-.2-.3-.3c0-.1-.1-.2-.1-.2-.1 0-.1-.1-.2-.2s-.1-.2 0-.2.2 0 .1-.1 0-.1.1-.1h.4c.2 0 0-.2 0-.3 0-.1.1-.2.2-.2.1-.1 0-.2.1-.2.1-.1.2-.1.3-.2.1 0 .2-.1.3-.1.2 0 .2-.1.2-.1 0 .1.2 0 .3 0s.3.1.4.1c.1.1.2.1.5.1s.5.2.8.3c.2.1.3.1.4.1.1 0 .2-.1.3 0s.1 0 .1 0c-.1 0-.1-.2-.2-.2 0-.1.1-.3.1-.3.1 0 .2-.1.1-.2s-.1-.2 0-.2 0-.1.1-.2c0-.1.1-.1.2-.1s.2.1.3.1c.1.1.2.1.3 0s.3-.1.4-.1c.2 0 .2-.1.2-.2s.1-.1.3-.1.2-.1.2-.3c0-.1 0-.3-.1-.3-.1-.1-.1-.1-.2-.3 0-.1 0-.2.1-.2h.1s.1 0 .2.1c.2.1.1-.2.1-.2 0-.1.1-.1.2 0s.2.1.5.1.4-.1.3-.3c0-.1 0-.2.5-.1.5 0 .2-.2.1-.3-.1-.1 0-.2-.1-.5-.1-.2-.3-.3-.4-.4-.1-.1 0-.2.1-.1s.1 0 .2-.1 0-.1.1.2c.1.2.2.1.2.1.1 0 .2 0 .2-.1.1-.1.1-.1.3-.1s.1 0 .5.2c.3.2.3.3.6.5s.3.2.2-.1c-.1-.2.1-.1.2-.1s0-.1.1-.3c.1-.2.6-.2.8-.3.2 0 .4-.1.5-.1s.1-.2.1-.4.2-.1.3-.1c.2 0 .1-.1-.1-.2s-.3-.4-.3-.5 0-.2-.2-.3c-.1 0-.1 0-.1-.1 0 0 0-.1-.1-.2s0-.2.1-.2.4 0 .6.1c.2.1.3.1.3 0s.2-.2.1-.3c0-.1-.1-.2-.2-.3 0-.1-.1-.2-.2-.4 0-.2.2-.2.3-.2s.2.1.3.1.3.1.6.2 1.1-.1 1.2-.1c.1 0 .2-.1.3-.1s.2 0 .4-.1c.3-.1.3-.1.4-.2.1-.2.1-.3.3-.4s.1-.2 0-.3c-.1-.1.1-.1.2-.2s.1 0 .2 0 .1.1.1-.1v-.3c0-.1.2-.1.2-.1.1 0 .1-.1.2-.1s.1-.2.1-.3v-.4c.1-.1.1-.2.1-.3 0-.1.1-.1.2-.1s.2-.2.1-.2c-.1-.1-.1-.1 0-.1 0-.1.2-.1.2-.2.1-.1.1-.1-.1-.1s-.1 0-.1-.1c.1-.1.1-.2.2-.2s.2-.2.2-.3c0-.1.3-.2.4-.2.1 0 .1-.2.1-.4s.1-.3.2-.3c0-.4 0-.5-.1-.5"/><polyline id="Path-3" points="96.1,379 147.1,379 163.1,428" opacity=".6" fill="none" stroke="#979797"/></g></g><path id="Line-6" d="M373.2 191.5L286 11v236.7l86.9-35.5.3-20.7z" fill-rule="evenodd" clip-rule="evenodd" fill="#eef7ff"/><g><g><defs><path id="mask" d="M286 246.4V11H1v235.4h285z"/></defs><clipPath id="mask_1_"><use xlink:href="#mask" overflow="visible"/></clipPath><g id="zoom" class="st3"><g><path class="st4" d="M155.8-396.1c1.8 1.5-.4 6.6-1 9.1s3.9 10.8 3.9 10.8 3.2 5.2 1.4 6.2c-1.8 1-.4 2.5 1.2 2.8 1.7.3 3.3.6 2.8-.4-.6-1-1.1-4 .6-6.8 1.7-2.8-.4-15.6.7-18.1 1.1-2.5 0-6.5-1.5-8.3-1.5-1.8-.8 1.7-2.9 3.6-2.1 1.9-3.2.1-5.7-1.9-2.5-2.1-1 1.7.5 3zm22.8 53.7c2.1 1.7 4.8 4.6 6.8 6.3 1.4 1.3 3.1 2.1 5.6 1.2.9-.3 1.9-.8 3.1-1.6 4.4-3 8-6.3 6.3-12.1-1.7-5.8-3.6-11.9-8.8-11.3-5.2.6-4.3-1.4-7.5-3.3s-3.4 1.9-5.4 3.2c0 0-.2.3-2.1 1.8-.2.2-.5.4-.8.7-2.6 2 .7 13.4 2.8 15.1zm19.2 135.5c.5 1.1 7.3-1.4 5.2-3.7-2-2.4-6.7.7-5.2 3.7zm13.1-2.6c2.9.8 6.3 1.1 5.9-.8-.4-1.9-5.1-3.9-7-2.6-1.9 1.2-1.5 2.7 1.1 3.4zm328 49.2c2 .8 7.5 3.9 10 4.4 2.4.5 5.5 0 5.4-.8-.1-.7-4.8-2.3-7.8-3.5-3-1.2-10.8-3-11.3-2.4-.5.5 1.7 1.5 3.7 2.3zM907-212.2c-3.2 2.8-13.8 4.8-20.5 5-6.7.1-11.6-2.1-12.8-2.9-1.2-.8-7.3-2.3-8.3-3.8-1-1.5.3-4.3-2.2-5.5-2.5-1.3-4.5-5.3-7.3-5.2-2.8.1-5.6 0-8.1 2.4-2.4 2.4-4.6 6.3-6.7 10.1-2.1 3.8-3.9 5.5-5 6.8-1 1.3-2.3 3.1-2.4 5.6-.1 2.5-2 9.3-5.5 13.5-3.6 4.1-8.5 8.5-10.6 10.4-2.1 1.8-4.1 3.8-4.1 6.6s-3.9 7.1-6.3 9.7c-2.4 2.5-9.6 8.6-9.4 11.2.1 1.7 1 4.5.7 6.7-.2 1.1-.6 2-1.8 2.5-3.3 1.4-6.1 4-7.9 6.6-1.8 2.5-2.6 2.6-5.6 4.5-3 1.8-5.8 2.9-4.9 4.6.8 1.7-.7 2.8-3.2 3.7-2.5.9-4.4 3.9-7.3 5.1-2.9 1.2-6.5 2.9-7.8 5.6-1.4 2.8-.5 6.7-3.3 7.5-2.9.8-6 1.4-4.5 5s2.5 7.4 1.7 11.3c-.8 3.9 1.4 9.7 3.7 8.1 2.3-1.6 8.8-3.2 11.4-3 2.6.2 2.2 2.3 1.6 4.5-.6 2.2-2.3 10.5-.5 10.2 1.8-.2 4.5-11.4 4.5-16.5s1.5-18.7 2-20c.5-1.4 4.8-5.5 6.4-7.9 1.6-2.4 5.1-2.8 7-2.6 2 .1 6.9-.9 10.4-3.8s4.5-5.2 4.7-7.9c.2-2.8-.2-7.7 3.2-9.3 3.5-1.6 4 1.7 6.1.9 2.1-.8-.5-3.7-.3-5 .1-1 4-10.4 6.2-15 .5-1.1.9-1.9 1.2-2.2 1.4-2.1 3.1-3 5.2-2.9 2.1.1 2.3-2 4.3-3.1 2-1.2 6.4-1.7 7.9-3.6 1.5-1.8.8-5.5 2.8-7.4 2-1.8 4.8-7.1 11.3-7.4 6.4-.2 18-.5 19.8-2.1 1.8-1.6 3.8-5 6.3-5.6 2.5-.7 3.7-1.7 3.7-3.9s1.7-5.2 5.5-7.4c2.1-1.2 6.3-1.8 7.4.5 1 2.3 2.9 3.9 4.8 1.4 2-2.5 4.4-1.8 4.9-3.7.6-1.8 4.5-12 4.5-12s.4-3-2.9-.3zm46.5 111.5c-2.4-.1-5.7-6.1-7-7-1.3-.9-2.8-.1-2.8.6s-.2 1.7-1.1 1.5c-.9-.2-1.3-.3-1.6.6-.3.9-1.4 1.6-2-.2-.6-1.8-1.1-1.5-3.7-.2s-5.7 3.2-5.5 6.1c.2 2.8-4.6 2.1-8.1 1.9-3.5-.2-6.6 2.2-9.4 3.8-2.8 1.6.9 4.3.9 4.3 2 1.3 1 2.8.1 3.8s-2.6 2.4-1.3 3.6c1.3 1.1 2.2-.5 3.7-1.5s1.8 2.1 1.7 5.4c-.1 3.3 2.4 3.7 3.9 3.7s3.3-.7 3.1-1.9c-.2-1.2.5-2.6.8-2.5.3.1 1.9-.1 1.9-1s.1-3.1 1-2.5c.9.6 1.9 1.5 2.4.6s3.6-1.1 4.5-1.9c1-.8 2-1.5 3.5-.6 1.5.8 1.5-.8.8-1.9-.7-1.1-1.5-3.5-.4-3.6 1.1-.2 2.8 1.2 2.8.1-.1-1.1 1.7-1 3.9-.1s.3-1.1-1.5-2.6 3.3-.8 4.7-2c1.4-1.2 3.2-.3 5.4-.1 2.2.2.8-3 1.8-3.7 1.1-.8-.1-2.6-2.5-2.7zM823.8-28.5c-1.5.9-2.7 1.2-5.5 1.2-2.8.1 0 2.5 0 3.8 0 1.2 1.7 2 2.3 1.2.6-.8 2.7-.4 4-.3 1.3.1.3-2.5-.2-3.1-.4-.7.9-3.7-.6-2.8zm8.4 14.4c-2 .7-2.5 3.1.3 3.1 1.7 0 2.8-1.6 2.8-2.6 0-.9-1.1-1.2-3.1-.5zm6.6-9.5c-1.9.1-2.7 5-.5 4.4 1.2-.4 2.4-4.5.5-4.4zm7.8-2.4c-1.2-.8-2.8.4-1.2 2 .7.8 2.3-1.2 1.2-2zm9.6-16.7c-2.5.1-2.9-.4-4.1-1.7-1.2-1.3-1.7-1.7-2.9-.3s-1.2 2.6-4.9 2.5c-3.7-.1-3.6 2.7-1.8 3.1 4.2.9 5.2 5.2 4.4 7.7-.7 2.4 3.1 3.1 4.8 1.3 1.7-1.8 3.9-2.6 5.6-3.4 1.7-.8 2.8-2.8.7-3.2-2.2-.4-.5-2.8.9-4.4 1.4-1.9-.2-1.7-2.7-1.6zm21.1-20c-1.2.1-2 .4-2.6 1.2-.7.9-3 1.7-1.7 2 1.3.2 1.7-.4 2.3-.1 2.2.8 7.2 1.5 6.3-.1-.9-1.6-3-3.2-4.3-3z"/><path class="st4" d="M804.7-15.4c-5.5-1.1-6.9-3.2-8.4-.9-1.4 2.3-5 1.1-5.9.9-.9-.2-6.2.2-6.2 1.6s-5.5 2.3-6.8 5c-1.2 2.7-7.3 6.2-8.7 8.4-1.4 2.1-4.3 5.5-5.9 5.7-1.6.2-9.1-2.7-6.8.4 2.3 3-.4 2-3 1.2-2.7-.7-9.4-3.4-12.3-2.8-2.8.5-3.2-4.8-1.4-4.6 1.8.2-.2-2.5-3.2-3-.7-.1-1.6-.2-2.4-.3-2.5-.3-4.9-.7-4.8-3.1.2-3.2 2-3.4 4.1-3 2.1.4 5.5 2 5.5 2.9 0 .9 4.6 4.5 7.5 4.5 2.8 0-9.3-5.5-12.1-19.6-2.9-14.1-3.6-19.4-5.3-23.3-1.8-3.9-.5-6.8-3.4-9.1-.2-.2-.5-.4-.6-.6-1.9-2-.6-3.3 1.9-3.3 2.7 0 6.9 2 5 3.4-2 1.4 0 1.8 3.9 1.6 3.9-.2 6.6 1.2 6.8 2.3.2 1.1 1.8 2-2.3 3.4s-2.5 3 2.3 1.8 5.2-6.2-.2-8.5c-5.3-2.3-17.1-6.6-21.9-7.8-4.8-1.2-6.9-6.8-7.7-10.3-.7-3.6-4.8-8.2-6.1-10.1-1.2-2-.9-9.4.4-11.8 1-1.9 3.1-3.9 3.8-7.3.2-.8.3-1.6.3-2.5 0-5 4.3-19.8 11.9-26.7 7.7-6.9 7.8-10.7 7.8-15.7s1.8-8.7 5.3-12.1c3.6-3.4 6.8-8 7.5-11.8.7-3.7 4.5-6.6 3-10.3-1.4-3.7-.4-7.8-2.3-8.4-1.9-.5.6-5.2-2.4-4.8h-.1c-3.2.5-1.6 5.2-4.3 6.6-2.7 1.4-2.7 4.3-3.4 5.5-.7 1.2-7.7 8.2-8.5 12.5-.9 4.3-3.7 5.9-6.4 6.8-2.7.9-11.4 9.3-14.2 11-2.8 1.8-6.2 2.8-5.9 5.7.4 2.8-4.8 6.2-7.7 8-2.8 1.8-3.9 2.1-3.7 3.7.2 1.6-3.6 5.9-6.8 7.8-3.2 2-4.8 3.4-6.8 5.9-2 2.5-9.8 7.7-30.4 6.9-2.2-.1-4.3-.2-6.4-.4-6.1-.6-11.9-1.8-16.9-3.2-9.5-2.7-16.2-6.2-17.6-8.3-2.3-3.6-1.8-7.1-3.7-8.5-2-1.4-2.8-5-2.8-7.1 0-2.1 2.5-9.4-1.1-8.9s-5.5 3.2-9.4 1.2c-2.2-1.1-4.8-2.1-7.5-2.8-2-.5-4.1-.8-6.2-.8-4.8 0-10.5-3.4-12.1-1.6-1.1 1.3-2.8 5.8-4.2 7.9-.6.9-1.1 1.4-1.5 1-1.4-1.2-3.1-5.5-6.8-3-2.3 1.6-3.4-.7-4.8-.7s-4.8 1.1-6.9 1.2c-2.1.2-4.6-.5-5.5-2.3-.5-1.1-1.6-1.6-2.5-1.5-.6.1-1.1.5-1.3 1.3-.4 2-2.5-1.2-2.7-3.6-.2-2.3-2.3-6.2-3.9-7.8-1.6-1.6-5-5.2.5-3.9 5.5 1.2 10.3 1.2 5.3-1.2-2.2-1.1-11.6-5.6-21.5-10.4-12.3-5.9-25.3-12.4-26.7-13.7-2.5-2.3.4-5.3-4.8-7.8-2.9-1.4-5.7-3.4-8.2-5.5-2-1.7-3.9-3.4-5.4-4.8-3.4-3.2-10-8.5-17.5-12.5-.1-.1-.2-.1-.3-.2-7.4-4-15.4-12.7-19.1-17.8-2.2-3.1-9.7-11.3-16.6-18.3-4.6-4.7-8.8-8.9-11-10.9-5.5-4.8-11.4-15-15.3-21.4-3.9-6.4-7.7-11-8-12.1-.4-1.1.4-5-2.1-7.7s-4.3-7.7-5.2-10c-.8-2-3.8-4.9-6.7-7.4-.5-.4-1-.9-1.5-1.3-1.6-1.3-8.2-9.1-14.6-16.7-6.7-8.1-13.2-16-13.2-16s-13.9-17.8-16.6-19.9c-1.8-1.5-6.7-4.7-9.6-6.6-1.3-.9-2.2-1.4-2.2-1.4-2.1-1.6-5.5-9.3-6.1-10.9-.5-1.6-6.8-4.3-6.6-7.8.2-3.6-4.6-6.2-8-3-3.4 3.2-3 5.9-2.7 7.5.4 1.6-1.2 6.1-3.9 7.8-2.7 1.8-6.2 4.8-8.2 4.3-2-.5-5.2-.4-6.4 1.2-1.2 1.6-8.2.9-10-2.5-1.8-3.4-3.2-8.4-4.5-3.4-1.2 5-.4 8.5 1.2 10.5s2.1 5.2-1.2 8.7c-3.4 3.6-3.4 5.5-3.6 7.1-.2 1.6-3.7 6.6-5.2 10.3-1.1 3-.5 7.6 1.4 13.1.5 1.3 1 2.7 1.6 4.2 1.6 3.7 5.2 11.5 8.8 20 2.2 5.1 4.3 10.4 6.2 15.4 1.1 2.9 2.1 5.7 2.9 8.2 1.3 4.1 2.8 10.5 4.1 17.6 2 10.6 3.8 22.9 4.3 32 .3 5.1.1 9.2-.6 11.4-2.7 5-3.2 4.3-3 7.8.2 3.3-.4 16.5-1.8 20.5-.1.3-.2.5-.3.7-1.6 2.8-5.5 4.8-6.1 8-.5 3.1-1.7 4.7-2.1 6.8v.1c-.4 2.1-2.3 4.6-3.6 4.8-1.2.2-2 2.7-1.4 5.5.2 1 .5 6.3.8 13.1.6 13.4 1.2 32.6 1 36.4-.2 3.8-.9 5.6-1.6 7.3-.4.9-.8 1.7-1.2 2.8-.7 1.8-1.7 6.7-3.6 11.1-1.4 3.3-3.4 6.4-6 7.4-6.2 2.5-8.2 2.7-8.5 5-.4 2.3-3.9 1.1-6.1 1.2-2.1.2-4.5 1.2-5.5 2.8-1.1 1.6-2.3 2.7-3.6 2.7-1.2 0-3 3-2.8 5.2.1 1.7-4.4 5.2-6 8.7-.4 1-.7 1.9-.6 2.8.5 4.5 2.5 16 5.9 18.2 3.4 2.1 2.8 8 .5 11.4-2.3 3.4-1.8 7.5 1.4 12.6 3.2 5.2 6.2 11.4 5.7 20.7-.5 9.3-3.4 16-9.8 23.5-2.3 2.6-4.9 5.3-7.7 7.8-5 4.6-10.2 8.4-13.2 9.8-4.6 2.1-6.8 2.1-8.7.4-2-1.8-8.5-3.7-10.3-3.7-1.8 0-7.7-4.5-7.3-6.4.4-2 2.3-6.1-1.1-6.1s-4.5 1.6-7.3 2.3c-1.7.4-2.6 1.2-3.3 1.9-.5.5-.9 1-1.5 1.3-1.4.7-5 1.1-5.9 0-.9-1.1-1.8.7-1.8 1.4s-.7 3.2-5.9 2c-5.2-1.2-5-2.8-4.3-3.7.7-.9 1.4-3-2-3.2-2.2-.1-4.5-2.3-7.1-3.7-1.4-.7-2.9-1.2-4.6-1.1-4.8.5-4.5-2.8-4.5-3.6 0-.5.1-1.4-.9-2.4-.5-.5-1.4-1.1-2.9-1.5-4.1-1.2-6.1-3.7-6.8-5.9-.7-2.1-6.9-7.3-9.1-8.7-2.1-1.4-3.7-2-3.9 2.5-.2 4.5-3.6 6.4-8.4 6.4-4.8 0-6.2-.2-5.9 2.7.2 1.6-1.1 4.3-2.3 6.9-1 2.2-2 4.4-2 5.7 0 3 1.1 11.8 6.1 14.2 3.9 2 7.7 6 9.4 9.2.4.8.7 1.6.8 2.2.3 3 6.8 12.2 10.1 14.9.1.1.2.1.2.2 2.6 2 1.9 4.9-.9 7.5-.7.6-1.4 1.2-2.3 1.8-3.8 2.5-11 5.4-14.8 9.8-.8.9-1.5 1.9-1.9 3-1.4 3.6-2.7 5.8-4.1 7.5-1 1.2-2.2 2.2-3.5 3.2-3.2 2.3-2.5 7.3-2.5 9.1 0 1.4-.3 3.7-2.6 5.1-.7.4-1.5.7-2.5 1-4.6.9-2.8-3-3.6-4.8-.7-1.8-2.8-3.7-4.5-3-.3.1-.6.1-.9-.1-1-.6-1.7-2.8-3.4-.3-2.1 3.2-1.4 11-4.8 12.1-3.4 1.1-10.1 4.5-10.9 6.8-.7 2.3-2.5 3.4-7.1 3.6-4.6.2-13.2 0-18.2 5.3-3.8 4.1-6.8 5.2-7.3 9.1-.1 1.2-.1 2.7.3 4.6 1.6 8.2 8.4 21.7 1.8 34-6.6 12.3-9.8 13.7-7.7 18.5 2.1 4.8-2.3 6.6 0 10.7s3.6 4.3 8.2 4.8 8.2 3.7 8.9 10c.3 2.5 1.6 4.3 3.3 5.6 2.6 1.9 6.2 2.9 9.5 3.6 4.4 1 7.1 4.2 9.9 10.5.7 1.6 1.5 3.4 2.2 5.5 2 5.4 4 9.4 5.3 13.9 1.1 3.8 1.7 8 1.3 13.7-.4 6.7-1 10.1-1.9 12-.8 1.6-1.8 2.1-3.1 2.4-2.8.7-5 .7-4.1 5.5.9 4.8-3.2 6.8-5.5 10-1.2 1.7-3.3 8.9-4.3 17.5-.9 7.3-.9 15.6.9 22.2 4.1 14.4 8.4 17.6 11 16.6 2.7-1.1 10.3-2.3 11.8.9 1.1 2.4 2.6 4.3 4.4 3.1.6-.4 1.2-1.1 1.8-2.2 2.7-4.6 5-8.4 5.7-11.4.7-3 2.7-3 5.2-3s5-3.7 8.9-3.7c2 0 4.7-.6 6.7-2 1.9-1.3 3.1-3.4 2.5-6.6-.8-4.1-1.6-11.9-.9-17.7.4-3.2 1.3-5.7 2.8-6.7 4.5-2.7 7.8-.7 14.2-5.2.1-.1.2-.1.3-.2 6.1-4.2 6.1-4.5 7.5-9.6 1.4-5.2 4.3-10.2 8-10 3 .1 4.3.8 5.9 3 .4.6.8 1.2 1.2 1.9 2.3 3.9-.2 4.5-2.7 3.6-2.5-.9-2 8.5.7 6.4 2.7-2.1 7.1-8.2 11.8-6.1 4.6 2.1 11.6 4.3 13.9 5 2.3.7 3.4 2.1 4.6 3.6 1.2 1.4 2.3 4.3 6.8 2.7 4.5-1.6 5.7-1.6 6.2-.5s1.6.4 2.1-1.8c.5-2.1 2.5-.2 3.6-2.9 1.1-2.7 5.2-10 8.9-8.7 3.7 1.2 7.3-3.4 5.9-5.3-1.4-2-5.3-.5-5.2-4.1.2-3.6-7.1-8.2-13.7-9.6-6.6-1.4-12.8-4.3-14.8-10.1-2-5.9-5-10-7.5-10.3-.7-.1-1.8-.8-2.9-1.7-2.8-2.3-6.3-6.4-6.5-8.3-.4-2.7-2.8-3.9-4.1-4.3-.9-.2-.4-2.3-.9-4.2-.2-.8-.5-1.5-1.2-2.1-2.3-2-8.5-5.9-8.7-3.4-.2 2.5-2.8 1.1-5.2.2-2.3-.9-5.3-.4-7.3 2-2 2.3-5.9 2.3-8.2 1.1-2.3-1.2-6.2-7.1-9.8-8.4-.8-.3-1.6-1.1-2.5-2.1-3.2-3.8-6.9-10.9-10.1-11.2-4.1-.4-14.2-.5-14.1-10.9.1-4.1.8-10 2.9-17 3.2-10.8 9.5-24 21.1-36.4 1.2-1.3 2.7-3.1 4.5-2.5.2.1.4.2.7.3 2.1 1.4 3.6-.4 3.7-.9.2-.5 1.9 0 3 1.4s4.8 3.4 9.4.9c4.6-2.5 11.9-2.3 16.2 1.2.5.4.9.8 1.3 1.1 3.4 3 5.1 5.3 4.7 7.1-.1.4 0 .8.1 1.2.5 1.6 2.5 3.4 4 4.5 1.8 1.4 5.2 5 7.7 5.9 2.5.9 7.1 8.9 7.1 13.7 0 1 .1 1.8.3 2.5.8 2.5 2.9 2.8 5.7 3.2 3.6.5 10 3.6 5.3 4.5-2.7.4-.9 7.5-4.5 1.1s-5.2-2.7-3.2 1.2c2 3.9 10 4.8 10.9 3.2.9-1.6 1.2-5.9 3.2-6.8.4-.2.7-.5 1-.8 1.1-1.3 1.5-3.7 2.2-5.2.9-2 10.9-12.8 13.5-13.2.7-.1 1.6-.3 2.4-.5 2.2-.6 4.9-2 8.3-5.2 2.8-2.7 12.7-10.5 23.6-17.1 7.4-4.4 15.2-8.3 21.6-9.7 10.5-2.2 21-1.9 30.4 1.8 3.3 1.3 6.4 2.9 9.4 5.1 1.6 1.1 3.1 2.3 4.5 3.7 2.5 2.4 4.7 4.5 6.7 6.4 7.7 7.3 12 11.3 18.5 11.4 8.2.2 11.6 2.1 20.1 11.8.3.3.5.6.8.9 7.7 8.6 7.7 7.6 10.3 9.4.5.3 1 .8 1.5 1.2 2.8 2.4 6.7 6.1 9.5 6.6 3.4.5 5.9 4.5 9.3 7.3 3.4 2.8 13.7 4.5 17.1 6.1 1.6.7 3.1 2.8 4.9 4.8 2.2 2.4 4.8 4.8 8.6 5.1 6.9.5 8.7 3.2 11.6 5.2 2.3 1.6 6.1 4 10.5 4.8 1 .2 2 .3 3.1.3 5.7 0 8.7.7 11.4 3.6 2.7 2.8 4.8 4.3 8 5.5 1 .4 3.2 1.8 5.7 3.6 5.2 3.8 11.7 9.5 12.3 11.9.9 3.6 2.9 5.3 5.9 8.5 3 3.2 5.2 6.6 5.5 1.4.4-5.2.9-14.8 3.7-16.9 2.8-2.1 4.5-3.7 3.9-6.2-.5-2.5.2-6.1.9-7.1.6-.8.7-7.2 1-11.1.1-1.1.2-2 .4-2.5.7-2.3.5-5.9-.9-7.7-1.4-1.8-1.1-10 .9-15.8.8-2.5 3.9-10.3 8.7-20.2 4.8-9.8 11.3-21.5 19-32 2.9-4 6-7.7 9.3-11.2 3.2-3.4 6.7-6.9 10.1-10.5 8.7-8.9 18-17.8 26.3-25.4 6.4-5.9 12.3-10.9 16.9-14.4 2.2-1.7 4.1-3 5.6-3.9 10.7-6.2 7.7-1.1 13.2-6.6 2.8-2.8 7.9-4.5 12.9-5.5s9.9-1.2 12.3-.9c4.8.5 6.2 2.1 6.2 3.7s1.8 3.4 3.2 3.9c1.4.5 6.7 6.1 14.1 4.6.3-.1.5-.1.8-.2 7.8-2.1 13.4-2.8 22.8-.2 9.4 2.7 18.5 2.5 14.1-.5s-7.6-4.9-5.3-10.5c0-.1.1-.1.1-.2 2.5-5.7 7.8-11 11.9-9.8 4.1 1.2 3 2 1.4 4.1-1.6 2.1 3.2 6.2 6.4 7.5 3.2 1.2 8.5 1.1 10.5 2.3 1.8 1.2 4-1.3 5.4-2 .1 0 .2-.1.3-.1 1.4-.5 3.6-.5 3.6-2.8s3.7-7.3 6.2-7.1c2.5.2 2.1-2 2.1-3 0-1.1 2.7-3 2.7-6.1 0-3 4.3-12.1 8.9-9.6 4.6 2.5 4.8.5 9.6-2.3s8.4-2.8 9.1-2.1c.4.4 1 .3 1.9-.1.7-.4 1.6-1 2.7-2 2.3-2.1 12.5-.7 16-.4 3.6.4 4.4 2 4.6 3.9.2 2 5 0 3-2.7s-1.6-3.9 1.1-3.6c2.7.4-1.2-3.2 2.5-3.6 3.7-.4-1.1-1.6.5-5.9 1.6-4.3 1.8-7.3 4.1-7.3s3 0 3.2-2.7c.2-2.7 2.8-4.5 5.2-4.6 2.3-.2 2.5 4.6 3.7 2.8 1.2-1.8 1.8-5.7 6.8-4.5 5 1.2 6.2-1.1 8.4-3.6 3.8-2.1 8.2-4.9 2.7-6z"/><path class="st4" d="M751 3.2c1.2.9 3.4.7 1.6-.8-1.6-1.5-5.2-1.9-1.6.8zM-6.1 361.1c-1.4 2.7 2.9 2.9 3.6 1.5.6-1.3-2.4-3.9-3.6-1.5zm-60.9-30c-1.6 1.2-3.1 4.1.4 4.9 2.7.6 5.3-1.1 4.9-3-.4-1.9-3.7-3.1-5.3-1.9zm30-134.7c-1.2-.7-8.8 3.7-11.1 4.9-2.3 1.2-2.7-.3-5.3 1.2-2.6 1.5-5.1 7-5.2 9.6-.1 2.6 1.9 3.8 3 5.8 0 0 1.1 3.4-.3 8.3-1.4 4.9 3.3 5.1 4.1 4.2.8-.8 1.1.7 4.9-3.7 3.8-4.4 3.7-14 3.7-16 0-2.1 2.3-6.2 4.7-8.2 2.3-2 2.7-5.4 1.5-6.1z"/></g></g><g id="pin_2_" class="st3"><g><path class="st5" d="M60.7 43.4c-3.3 0-6 2.6-6 5.7 0 3.4 3.8 8.1 5.3 9.9.3.4 1 .4 1.3 0 1.5-1.8 5.3-6.5 5.3-9.9.1-3.1-2.6-5.7-5.9-5.7zm0 7.8c-1.2 0-2.1-.9-2.1-2s1-2 2.1-2c1.2 0 2.1.9 2.1 2s-.9 2-2.1 2z" transform="translate(80 90)"/></g></g><g id="pin_5_" class="st3"><g><path class="st5" d="M75.6 72.6c-3.3 0-6 2.6-6 5.7 0 3.4 3.8 8.1 5.3 9.9.3.4 1 .4 1.3 0 1.5-1.8 5.3-6.5 5.3-9.9 0-3.1-2.6-5.7-5.9-5.7zm0 7.8c-1.2 0-2.1-.9-2.1-2s1-2 2.1-2c1.2 0 2.1.9 2.1 2s-1 2-2.1 2z" transform="translate(80 90)"/></g></g><g id="pin_6_" class="st3"><g><path class="st5" d="M90.3 55.9c-3.3 0-6 2.6-6 5.7 0 3.4 3.8 8.1 5.3 9.9.3.4 1 .4 1.3 0 1.5-1.8 5.3-6.5 5.3-9.9 0-3.1-2.6-5.7-5.9-5.7zm0 7.8c-1.2 0-2.1-.9-2.1-2s1-2 2.1-2 2.1.9 2.1 2-1 2-2.1 2z" transform="translate(80 90)"/></g></g><g id="pin_7_" class="st3"><g><path class="st5" d="M119.3 31.2c-3.3 0-6 2.6-6 5.7 0 3.4 3.8 8.1 5.3 9.9.3.4 1 .4 1.3 0 1.5-1.8 5.3-6.5 5.3-9.9.1-3.2-2.6-5.7-5.9-5.7zm0 7.7c-1.2 0-2.1-.9-2.1-2s1-2 2.1-2c1.2 0 2.1.9 2.1 2s-.9 2-2.1 2z" transform="translate(80 90)"/></g></g><g id="pin_1_" class="st3"><g><path class="st5" d="M25.5 20.6c-3.3 0-6 2.6-6 5.7 0 3.4 3.8 8.1 5.3 9.9.3.4 1 .4 1.3 0 1.5-1.8 5.3-6.5 5.3-9.9.1-3.1-2.6-5.7-5.9-5.7zm0 7.8c-1.2 0-2.1-.9-2.1-2s1-2 2.1-2c1.2 0 2.1.9 2.1 2s-.9 2-2.1 2z" transform="translate(80 90)"/></g></g><g id="pin_3_" class="st3"><g><path class="st5" d="M43.8 27.3c-3.3 0-6 2.6-6 5.7 0 3.4 3.8 8.1 5.3 9.9.3.4 1 .4 1.3 0 1.5-1.8 5.3-6.5 5.3-9.9 0-3.2-2.6-5.7-5.9-5.7zm0 7.7c-1.2 0-2.1-.9-2.1-2s1-2 2.1-2c1.2 0 2.1.9 2.1 2s-1 2-2.1 2z" transform="translate(80 90)"/></g></g><g id="pin_4_" class="st3"><g><path class="st5" d="M72.8 21.4c-3.3 0-6 2.6-6 5.7 0 3.4 3.8 8.1 5.3 9.9.3.4 1 .4 1.3 0 1.5-1.8 5.3-6.5 5.3-9.9 0-3.1-2.6-5.7-5.9-5.7zm0 7.8c-1.2 0-2.1-.9-2.1-2s1-2 2.1-2c1.2 0 2.1.9 2.1 2s-.9 2-2.1 2z" transform="translate(80 90)"/></g></g></g><path id="frame_1_" d="M286 247.7V11H1v236.7h285z" fill="none" stroke="#b7cedf" stroke-width="2"/></g><path id="frame_2_" d="M398.8 212.3v-21.2h-25.5v21.2h25.5z" fill="none" stroke="#0762a4" stroke-width="2"/></g></svg>