<svg version="1.1" id="レイヤー_1" xmlns="http://www.w3.org/2000/svg" x="0" y="0" width="244" height="272" viewBox="0 0 244 272" xml:space="preserve"><style type="text/css">.st0{fill-rule:evenodd;clip-rule:evenodd;fill:#506375}</style><g id="jpmap_3_" transform="translate(74 46)"><g id="Group-7_5_" transform="translate(136 163)"><path id="Okinawa_5_" class="st0" d="M1.9 31.3s2.3-.7 3.3-1.8 1.1-.6 1.4-2.1c.4-1.4.7-3.1 1.6-2.6s2.1 3.1 1.9 4.8c-.2 1.7-1.6 3.5-2.4 4.4s-1.3.1-2 1.2c-.7 1.1.7 2-1.1 2.7-1.7.7-3.3.6-3.2 1.1.1.4.6.8-.7 1.7s-1.6 2-2.1 2.4-2.3.1-3.3.8-1.3 1.9-.5 2.2c.8.4 2.6 1.6 2.6 2s.8.6-.5 1.2c-1.3.5-2-.1-2 1.8 0 1.9-.7 2-.3 2.8.4.8 1.4.5 1.7 1 .4.6.2 1-.3 1.7-.5.6-.9.9-2.6 1.7-1.7.7-1.8 1.4-2.3.7s-.6-.6-1.1-1.6-1.4-1.4-.6-2.4c.8-1 1.6-1.9 2.2-3.5.5-1.6.2-3.1-.1-4-.4-.9-1.8-1.1-.7-1.7 1.1-.7 4-3.7 4.9-4.5.8-.8 2.9-1.6 2.8-2.5-.1-.8-.7-1.7-2.2-1.7s-1.7-.3-1.9-1.2c-.2-.9-.6-2.7.9-2.7s3.8.7 4.2.9c.4.1 1 .4 1.6-.2.5-.8.8-2.6.8-2.6z"/><polyline id="Path-5_5_" points="23.6,9.9 -20.7,9.9 -32,63" opacity=".8" fill="none" stroke="#979797"/></g><path id="Combined-Shape_5_" class="st0" d="M-44.4 169.3v.2c-.1.3-.1.7.1 1.1.1.4.7 2.1 1.6 2.6.9.5 2.4.9 2.8 1 .4.1 1.4.3 1.5.1.2-.1.4-1.2.9-1.3.4-.2 1.1-.7 1.7-.4.6.3 1.5 1.2 1.6 1.7s.3 1.3-.1 1.7c-.4.4-.8.5-.9.7-.2.2-.2.4-.4.6-.2.1-1.8.8-1.5 1.3s.5.8 1.3.7.8-.2 1.1-.2c.4 0 1.3-.1 1.5.1.2.2.7 1.3.9 1.8s.3 1 .7 1.4c.4.4 1.1 1.5.9 2s-.5.8-.5 1.2c0 .3.1.6-.1.7-.2.2-1.8 1.5-2.5 2.8-.8 1.3-2.4 5.4-2.8 6.5-.4 1-1.2 4.3-1.4 5.4-.2 1.1-.5 3.9-.6 4.6-.1.6-.5 2.4-.9 2.8-.3.4-.5.8-1 .6-.5-.1-.7-.4-1.2-.7-.6-.2-1-.5-1.3-.3-.4.2-.7.3-.6.8 0 .5-.2 2.7-.8 3.1-.6.4-1.4 1.4-2 1.6-.7.2-1.4.5-1.8.8-.4.3-.9.8-.9.5s.1-.5-.1-.6c-.1-.2-.1-.3.3-.6s1.3-1.9 1.3-2.5c-.1-.6-.2-1.8-.4-2.4-.2-.6-.4-1.7-.4-1.9-.1-.2-.1-.4-.5-.4s-1-.3-.9-.5c.1-.3.5-.4.8-.5.3 0 .7 0 .7.2s.1.3.2 0 .7-1 .5-1.3-.8-.7-1.8.1c-.9.8-2 1.9-1.8 3s.9 2.2 1.2 2.7c.3.4.9.9.8 1 0 .1-.5 1.7-1.5 1.2s-1.6-1-2.5-1.2-2.2-.8-2.4-1.2c-.3-.4-.8-1.1-.3-1.2.5-.2 2.1-1 2.2-1.7.1-.7.1-1.8-.3-2.4-.4-.6-1-1-1.2-1.1s-.4 0-.3-.3c.1-.3.4-1.6.3-2.3-.2-.7-.4-1.1-.5-1.5 0-.4-.5-1.2-.6-1.7-.1-.4-.2-1.5.2-1.3s1.2.8 1.7.7c.5 0 1.4-.3 1.7-.9.3-.6 1.7-3.2 2.1-4.2l1-2.5s-.5 0-.6.1-.6.1-.8.3-.3.3-.4.2-.1-.3-.3-.1-.4.6-.5.4c-.1-.3.3-.9.8-1.3.4-.4 1.5-1.2 1.4-1.9s-1.1-1.9-1.4-2.5c-.3-.6-1.1-2-1.4-2.4-.3-.4-1.2-1.5-1.7-1.2-.5.2-.7.4-.8.9-.1.6-.1 1.5-.2 1.8-.1.4 0 .7-.3 1-.4.4-1 .6-.6.7.4.1.7.1 1.4.2.6.1 1.3.3 1.6.6s.9 1.4 0 2.5-2.1 1.4-2.3.8c-.2-.6-.3-1.6-.4-1.9-.2-.4-.2-1-1-.9s-1.1.3-1.5.7c-.4.5-.7.5-1.2 1.1s-.9.7-1.1 1c-.3.4-.4.6-.3.1.1-.5.5-1.4.3-1.9s-1-1.8-1.3-2.2c-.4-.5-1.2-1.6-1-2 .2-.5.4-1.1 1-.9.7.2 1.3.7 1.4 1.1.1.4.4.9.4 1.4 0 .4.1 1 .2.9.1-.1.4-.3.9-.3s1 .4.9.1c-.1-.3-.6-1.4-1.1-2s-1.3-1.2-1.8-1.5-2.8-1.9-2.8-3 .3-1.7 1.1-1.8.8 0 .8 0 2.3-2.9 3-2.4c.6.5.7 1.2 1 1.3s.5.1.9-.3c.4-.5 1.3-2.2 1.8-2.3s.8.1 1.3.2c.4.2 1.1 0 1.4-.3.3-.3.8-2.7.8-2.7s.5-1.4 1.6-1.7 1.1-.4 1.7-.4c.7 0 1.1-.2 1.8-.3.5-.1 1.6-.5 2.1-.3-.4-.2-.8-.3-.7-.4.1-.1.7-.5.7-.9s-.3-1.4-.2-1.6c.1-.2.8-.9 1-1.1.2-.2.5-.9.7-.9.3-.1.6-.2 1.1.1.4.3 1.2.6 1.6.6.5-.1 1.4-.1 1.7-.3.4-.2 1.3-.7 1.6-1.1.3-.4 1.2-1.7 1.5-2.1.3-.4.7-1 1.3-1.1.5-.1 1.3-.2 1.7-.3s.8-.4 1.2-.8c.4-.5 1.4-1.1 1.6-1.4.2-.3 1-.9 1.3-1.1.3-.2 1.4-1.6 1.8-1.7.4-.1 1.8-1.1 1.9-1.3s.9-1 1-1.2 1.1-1.1 1.4-1.3 1.6-1.2 1.7-1.4.4-1.4.7-1.7c.3-.2.7-.3.9-.4.2-.1.6-.6.8-.6.2 0 1-.2 1.3-.3s1.2-.1 1.4-.2c.2-.1.6-.4.9-.6.3-.2.4-.4.8-.3.3.1.9.3 1 .5s.2.6 0 .7c-.1.1-.6.5-.5.8s.5.9 1 .7c.5-.1 1.3-.4 1.5-.7.3-.3 1.2-1.1 1.9-1.1.6 0 2.5.3 3.3.4.8.1 2.1.1 2.5-.1.3-.1 1.2-.2 1.9-.2s1.8.1 2.4-.1c.6-.2 1.8-.9 2.1-1.1.3-.2 1.9-.8 2.4-.8s1.9-.1 2.5 0 1.4.2 1.7.1c.4-.1.6-.3.9-.2.3.1.9-.1 1.2-.3s1.6-.9 2-.9 1.9-.7 2.3-.4c.4.3.8 1.2.6 1.3-.2.1-.6.3-.8.6s-.6.8-.3 1.1c.3.2.3.2.7.6.4.4.5 1.2.8.9.3-.2.4-.3.3-.6s-.4-.5 0-.6c.5-.1 1-.4 1.3-.2s.1.4.5.3c.4 0 .9-.1 1.2.1.3.2 1.5.9 1.8.7s.8-.9 1.2-1.1c.5-.2 1.2-.8 1.5-1.1.2-.2.8-1.2 1.2-1 .4.1 1.1.4 1.2.2s.1-.8.3-1.3c.2-.4-.1-.8-.4-1.3-.2-.5-1.5-1.8-1.3-2.4.2-.6.6-1.8 1-2.1s1-1.1 1.1-1.5.1-.9.4-.9 1.6-.8 1.8-1c.2-.2 1.9-1.5 2.3-1.9.3-.3 2.4-2.8 3-3.7.1-.2.3-.4.4-.8l.3-.7s.8-1.8 1-3.1c.2-1.3-.3-1.9-.8-2.9-.6-1-.4-1.6-.1-2.5.4-.9 1.6-2.2 2.5-2.3.9-.1 2-.9 2.6-1.2.6-.3 1.9-1.2 3-.9 1.1.3 0 1.7-.3 2.1s-.3 1.2-.4 1.5c0 .3-1 .4-1.3.6-.3.1-1.2 1-1.5 1.2s-1 .1-1.4-.1c-.4-.1-.7.5-1 1.2s.3.8.8 1 1.1-.1 1.4-.3c.4-.2.3.7.3 1.3 0 .6 0 1.3-.5 2.1-.5.7.4 1.3.4 1.3l.7.4c.3.2.6.3.9.3.8.2 2.4.2 2.8-.2.4-.5.7-2 1-2.2.3-.3.8-.5 1.5-.7s1.5-.3 2-.4c.4-.1 1.6-.5 2.2-.7.5-.2 1.2-.4 1.7-.7.5-.3 1.1-.6 1.3-.8.2-.2.4-.7.9-.7s1.9.1 2.4-.5c.6-.5 1.8-1.8 2.3-2.1.5-.3 1.3-.5 1.6-1.1.3-.5.4-.9.8-1.3s.7-.9.8-.9.6-1 .6-1c.3-.6.6-1.5.9-2.1s.7-1.4 1-1.8 1.4-1.2 1.7-1.3c.2-.1 2.2-1.3 3-1.5.7-.3 2.4-1.7 2.8-2.2s.7-2 .6-2.5c0-.5 1.1-3.6 1.3-3.9.2-.3.6-1.8.7-2.1.1-.3 1.2-1.2 1.4-1.5.2-.3.9-1.2 1.1-1.6s.6-1.4.6-1.7c0-.3.5-1.2.6-1.5s.2-.8.2-1.3c.1-.4.4-2 .4-2.4s1.1-1.2 1.3-1.5c.3-.3.3-1 .3-1.3s.2-1 .3-1.4c.1-.3.1-.9.3-1.2.2-.3.2-1.9.2-2.2 0-.3-.3-1-.6-1.3-.2-.3-.5-1-.5-1.3s-.5-.7-.6-.9c-.2-.1-.8 0-.9 0s-1 .3-1.6.4c-.6 0-.9-.7-1-1s.3-.7.3-.7c.1 0 1.2-.2 1.7-.2.5-.1 1.1-.8 1.4-1.1.3-.3.9-2.3.9-2.6.1-.4.1-2 .1-2.4-.1-.4-.7-.8-.8-1-.2-.2-.2-.6-.3-.8-.1-.2.1-.7.1-.9v-.9c0-.2-.3-.3-.6-.4-.3-.1-.3-.3-.5-.4-.2-.1.4-.5.5-.7.1-.1.5-.4.7-.5.2-.2.6-.8.7-1.1.1-.2.5-.4.7-.5s.7.2 1 .3.7-.3.7-.4c0-.1.6-.1.8-.3.2-.1.5-.3.5-.4 0-.1.3-.9.4-1.1.1-.2.1-.7.2-1.1.1-.4.2-1 .2-1.2s.2-.9.1-1.2c0-.2-.6-.7-.7-.7-.1-.1-.2-.3-.2-.5s.5 0 .7 0 .2-.3.2-.5.1-.9.1-1.1c0-.2.2-.6.3-.5.1 0 .5.3.8.5s.4.5.6.6.6-.1.8-.3c.2-.2.6-.3.8-.3.2 0 .7.4.9.5.1.1.3.6.2.8-.1.2-.1.9-.1.9s.2 1.1.3 1.2c0 .1.2 1.2.2 1.5s.3 1 .3 1.2.4.4.7.6c.3.2.5.1.7.1.2-.1.3-.1.4-.3s.5-.6.6-.8c.1-.3.1-.5 0-.8s0-.3.1-.4c.1-.1.2-.5.3-.7.1-.3.3.1.5.2.1 0 .5.1.6.3.1.1.4.6.5.7.1.1.5.4.7.5s.6.4.7.6c.1.1.4.2.6 0 .2-.1.6-.6.7-.9.1-.3.5-1.3.6-1.5s.1-1.2.1-1.5.3-.5.3-.7-.1-1-.3-1.3c-.1-.3-.6-.7-.7-.7-.1-.1-.2-.3-.4-.3-.1 0-.3.4-.3.6 0 .2-.3.3-.4.5-.2.2-.4.3-.7.3-.2.1-.5.2-.6.3-.1 0-.5-.1-.5-.2-.1-.1-.3.1-.4.1-.1.1-.3.2-.5.3-.2 0-.6.1-.7.1s-.5.2-.7.3-.5.3-.6.3-.3-.1-.4-.2c-.1-.1 0-.6 0-.9 0-.3.2-.6.3-.9.1-.3.2-.8.2-1.2s.2-.5.2-.7.2-1 .4-1.3c.1-.3.4-.5.6-.7s.2-.6.1-.8c0-.2.1-.3.2-.4.1-.1.3.1.3.2.1.1.4.2.5.3s.4.3.6.4c.2.1.4.1.7.1.3 0 .6.2.7.3.1.2.7.8.8 1s.7.7 1.2.8 1.1.1 1.3 0c.2 0 1.3-.9 1.4-1l.2-.2s-.1.6-.1.7c0 .1-.1.5-.2.6s-.4 2-.4 2-.4.7-.4 1c.1.3 0 2.1 0 2.6s.1 3.4.2 3.8.6 3 .9 3.5c.3.4 1 1 1.4 1.3s1.1.8 1.3 1c.2.2.7.6.9.9.2.4.9 1.4.9 1.6 0 .3.1 1.4.2 1.6s.3.5.5.7 0 .6 0 .9.2.9.4 1.2c.3.3.9.8 1 1.2.1.3.4 1.5.5 1.9s.1.8.2 1.2c0 .3-.3 2.1-.3 2.3s-.2.5 0 .7.6.1.7.3c.1.2.3 1 .1 1.3-.2.4-.3.6-.2.8.1.3.3.6.1 1-.2.4-.7 1-.9 1.4-.2.3-.5.5-.5.9s.2 1-.1 1.2c-.2.2-.6.5-.6.8s.1.9.1 1 0 .3-.2.5c-.3.2-.5.5-.9.7s-.8 0-.9.2-.2.7-.2.8c0 .1 0 .4-.2.3s-.7-.6-.6-.3c.1.3 0 .7 0 .9.1.2.3.8.1.8-.2 0-.4-.4-.4-.1s-.4.2-.5.1-.3-.3-.3 0-.1.8-.2 1.1c-.2.2-.4.7-.3 1.1s.3.6.1.7c-.1.1-.2.4-.5.5s-.7.3-.5.5c.3.1.5.1.5.4-.1.2-.1.5-.1.8s.1.5.3.8c.2.2.5.4.2.5-.2.1-.2-.2-.4.1-.2.2-.4.6-.5.8 0 .2-.2.3 0 .5s.5.1.5.3c.1.2-.1 0 .1.4s.3.3.2.7c0 .4.2 1.2-.1 1-.2-.3-.6-.7-.9-.9-.3-.2-.7-.3-.5-.4s.6-.2.2-.4c-.4-.1-.5-.3-.7-.2-.2.1-.1.1-.3-.1-.2-.2-.5-.3-1-.3s-.9.2-1.2.5c-.3.2-.5.3-.6.6 0 .2-.1.4-.2.5-.2 0-.2 0-.3-.3-.1-.3-.2-.5-.5-.4-.3 0-.5.1-.6.4-.1.2-.1 1.1-.4 1.5-.3.5-.3.8-.6 1.1-.3.3-.7 1-.8 1.3-.1.3-.4 1.1-.3 1.6s.1 1.2.1 1.5c0 .2.5 1.4.6 1.5s.3.4.4.9.3 1.4.3 2.1c.1.7.3 2.8.4 3.2 0 .4.2 1.7.1 2.1s-.2.9-.3 1.4c-.1.5-.1.4-.3 1-.1.6-.2 1-.3 1.6-.1.5-.3 1.4-.5 1.8-.2.3-.4.5-.8.8s-.8.5-.9.7c-.2.2-.3 1-.5 1.1s-.5.2-.6.5-.4 1.5-.5 1.9c-.2.3-.3.9-.5 1.3s-.6.6-.7 1c0 .3-.2.7-.2 1s.1.7 0 .9-.1.4 0 .6c.1.2.2.6-.2 1s-.8.8-.8 1.1-.1 1.1-.1 1.5c.1.4.3 1.1.4 1.2.1.2 1 1.3 1.2 1.6s.7.9.9 1.3c.2.4 1.2 1.9 1.4 2.2.2.3.6 1 .6 1.1s.1.2-.2.1c-.3-.1-1.3-.1-1.9 0s-.9.2-1.3.5c-.4.2-1.4 1.1-1.6 1.6s-.9 1.3-1 2.1-.2 2.3-.3 2.6c-.1.3-.6 2.2-.9 2.2s-1.3.1-1.6.1c-.3.1-1 .2-1.4.5s-.7.7-1 .9c-.4.2-.7.3-.9.8-.2.4-.3 1.2-.7 1.3-.3.1-1 .1-1.2-.1-.3-.2-1.3-.4-1-.7s.8-.6.9-1.2c.1-.6 0-2.1-.1-2.4 0-.3-.3-1.5-.3-1.7s0-.4.2-.6c.2-.2.5-.4.8-.5s.4-.1.5-.4c.1-.3.6-.8.8-1l.8-.8c.2-.3 1-1.2.6-1.6-.4-.4-1.1-.7-1.7-.7s-1.3.2-1.6.5c-.3.3-1 1.2-1.2 1.5-.3.3-.5.8-.7 1.2-.2.3-.7.7-.5 1s.6 1 .7 1.3.3 1.5-.2 2.1-1.1.9-1.1.3c.1-.6-.5-1.6-.6-1.8-.2-.2-1.1-.6-1.5-.7-.4-.1-1.1-.1-1.5 0s-1.2.2-1.6.5c-.5.2-1.1.6-1.1.8-.1.2-.2.4-.1.7s.2.6.1.6c-.2 0-1 .5-1 .9s.1 1 .1 1.2c.1.3.5.7.5.8s.2 1.2-.7 2.2c-.8 1-1.1 2-1.4 2.4s-1 1-1.4.8-1-.6-1.3-.7c-.3-.1-.4-.6-.4-1.1.1-.5.2-1.5.2-1.9s-.1-.9-.1-1.4c0-.4.2-.9.7-1s1.1-.3 1.1-.6-.8-.8-1.2-1.1c-.5-.2-1.5-.3-2.2-.1s-1.3.7-1.5.9-.5.2-.3.6c.1.4.5.6.1.8-.3.1-1 .5-1.3.6-.4.2-.8.3-.9.6-.1.3-.3 1-.7 1.4-.3.4-1 .9-1.1 1.3-.1.4-.4 1-.3 1.3.1.3.3.8.1.7-.3 0-1.2-.4-1.9-.6-.6-.2-1.2-.5-2-.3s-1.4.3-1.9.3-1.6-.4-2.1-.5c-.6 0-2.1 0-3.1.2s-2.9.8-3.4.9c-.5.1-2.3.3-2.1 0s.7-.9 1-.8c.2.1.5.4.7 0s.8-.8 1.2-.9c.4 0 .6-.1.8 0s.3-.1.2-.4c0-.3-.1-.9-.4-1.1-.3-.2-.8-.4-.9-.1-.2.3-.1.6-.5.5-.4 0-1.4 0-1.9-.3-.4-.2-.7-.1-.8-.4-.2-.3-.4-1-.5-.6-.1.3-.3.8-.2 1.3s.6 1.1.4 1.2c-.3 0-.9-.2-1.4-1.1-.5-.9-.4-1.6-.3-2.2.1-.6.2-1.3.2-1.6s0-.4-.2-.4-.2 0-.6.1c-.3.1-.5 0-.7.1s-.5.4-.6.6c-.1.1-.5.6-.6.9-.1.3-1.2 1.7-1.5 2.2-.2.5-.4 1.6-.2 2.1s1.2 1.4 1.7 1.5c.5.2 1.3.7 1.8.7s1.2.2 1.4.5.7 1 .4 1.4c-.4.4-.5.8-.8 1.1s-.5.8-.6.7-.4-.4-.6-.5c-.3-.1-.4-.1-.7-.1s-.4-.3-.6-.1c-.2.2-.3.5-.7.6-.5.1-.6.1-.9.1-.3.1-.5.2-.7.3-.1.2-.7.3-1.2.4-.5.1-1.4.3-1.5.7-.2.4-.2.7-.3.9-.1.2-.2.3-.5.3s-.7 0-.6.3.9.9.7 1.2c-.1.3-.5.4-.6.6-.1.2-.3.3-.3.4-.1.1-.2 0-.4.2s-.6.4-.8.6c-.2.2-.6.6-.7 1s-.4.9-.5 1.1c-.1.2-.1.5-.3.7-.2.2-.7.9-.7 1 0 .2-.3.7-1 1.3-.7.5-1.1 1.2-2.1 1.2s-2.4-.4-3.1-.6c-.8-.2-1.5-.9-1.6-1.4-.2-.4-.5-.7-.6-.8s-.6-.3-.2-.4c.3-.1 1.1-.1.8-.4-.3-.3-.6-.6-1.1-.8s-1-.1-1.1-.4c-.1-.3-.4-1-.9-1.3-.5-.2-.8-.3-1.1-.3-.2 0-.5-.1-.3-.4.2-.2.4-.4.3-.6-.1-.2-.7-.2-.3-.4s1.4-.5 1.3-.8c0-.2-.2-.5-.5-.6s-.6.1-.5-.2c.1-.4.3-.8.4-.8.2 0 .9 0 .8-.3-.1-.3-.6-1.1-.8-1.2-.2-.1-.5-.8-.2-1.1.2-.3.9-.5 1.2-.7.3-.3 1.7-1.3 2-1.6s.6-1 .9-1.4c.3-.3.7-.7.6-1 0-.3-.3-.8-.3-.9 0-.1-.4-.5-.8-.6s-1.4-.2-1.6 0c-.3.2-1 .8-1.2.8-.1 0-.2 0-.5.1-.2.3-.6.6-.8 1-.3.4-.4.7-.5 1.1-.1.4-.2 1.9-.4 2.1-.2.2-.6.4-1.1.5-.4.1-2-.3-2-.7s0-1.2.4-1.6c.4-.4 1.4-1.5 1.4-1.5s.8-.8 1.1-1c-.8-.2-1.8-.8-2.2-1.1-.3-.3-.8-.8-1.5-.9-.7-.1-2.8-.1-2.9-.1-.2 0-.3-.1-.7 0-.3.2-.5.5-1.2.5-.8.1-1.1 0-1.5 0s-.5.2-.6.5c-.1.3-.6 1.1-.9 1.3s-.6.7-1.2.5-.7-.6-.9-.5c-.3.1-.7.5-.4.6.3 0 .7-.1.7.1s-.3 1.2-1 1.5c.3.1.6.1.8 0 .4-.1.5-.5 1-.2s.6.4.8.4c.3 0 .5.3.6.6s.6.7 1.1 1 1.3.5 1.7.5 1.4 0 1.7.2c.3.2.7.7.4 1.3-.3.6-.3 1.2.1 1.7s.8.9.9 1.5c.1.7.2 1.5-.2 2s-1 .8-1.4 1.2-.8.7-1.2 1c-.4.2-1 .9-1.5 1.3-.4.4-1.1 1.3-1.4 1.9-.3.6-.5 1.4-.7 1.9s-.3.9-.3 1.2.1.9-.1.7c-.1-.2-1.2-1-1.4-1.4s-1-1.5-1.8-2.1-2.1-.9-3-.9c-.8 0-1.5 0-2.3.6s-1.2.9-1.7 1.2c-.5.2-1.8.7-2 1.2s-.3 1.7-.5 2.1c-.2.3-.7 1.4-1 1.8-.4.4-.7 1-.8 1.1-.1.2-.8.2-1 .4s-.2.3-.2.7 0 1.2-.1 1.4-.3.4-.3.7-.1.5.2.9c.2.3.6 1 .3 1-.3-.1-.9-.3-1.1-.6s-.2-.7-.5-.6c-.3.1-.5.2-1.1.3-.5.1-.8-.1-1.3-.1s-1.3-.2-1.2-.4c.2-.2 1-1.1 1-1.3v-.2s.2-.3-.9-.3c-1 0-.7-.3-1-.3s-.9.3-1.1.2c-.1-.2 0-.7-.2-.9-.3-.2-.9-.9-.6-1.2s.7-.6.7-1.1c.1-.5.1-.9.3-1.1.2-.2.8-.6.7-.7-.1-.1-1-1-1.4-1.2-.4-.3-1-.9-.9-1.3.1-.4.5-1.1-.1-1.2-.6-.1-1.3.3-1.6.5-.3.2-.7.4-1 .7-.4.3-1.4.4-.9.1.4-.3 1.5-.9 1.8-1.2s1.4-1 1.7-1.1c.3-.1.7-.5 1-.8s.5-.5.9-.8 1-.4 1.3-.8c.4-.3 1-.7 1.1-.9s.3-1.4.3-1.7.5-1.4.7-1.8c.3-.4.4-1.1.8-1.4.3-.3 1-.7 1.2-1s.5-1.2.8-.8.5 1.1.7 1.5 1.1 1.7 1.3 1.8c.2 0 .2 0 .7-.2s.8-.4 1.5-.5 1-.2 1.2-.2h1.3s1.8-.6 2-1.3c.2-.8.1-1.3.1-1.6s-.5-.9.1-1c.5-.1.5 0 1-.4.5-.5.6-1 1-.9s.6 0 1-.4c.1-.1.1-.2.2-.2h-.7c-.5-.1-.7-.2-.8-.5-.1-.3 0-.8-.2-.6-.2.1-.5.1-.8.3-.2.2-.3.5-.8.6s-1.1.5-1.5.2c-.4-.2-.4-.3-.6-.1-.2.2-.5.2-.6.4s-.4.8-1.1.8c-.8 0-.7-.4-1.2-.4s-1.6.3-2 .4c-.3.2-1.5.9-2 1.1-.6.3-1.7.5-1.9.6-.2.1-.6.6-.9.7-.3.1-.9.2-1.2.2-.4 0-.5.1-1 .1-.5-.1-.5-.7-.7-1.1-.2-.4-.7-1.4-1.5-1.4-.7 0-1.1.6-1.4.9-.3.3-.7.9-.8 1.3-.1.4 0 1.1-.2 1.3s-.4.4-.5.8c0 .3.1 1.2 0 1.4 0 .2-.3.7-.5.8-.3.1-.6 0-.6.3.1.2.3.9.3 1.2s0 .4-.5.7-1.1.5-1 .3c.2-.2.1-.6.4-.6s.5 0 .5-.3-.5-.7-.9-.8-1-.3-1.2-.4c-.2-.1-.6-.6-1.1-.7h-1.1c-.2 0-.5-.1-.3-.3.1-.2 0-.7-.4-.7s-1.8.1-2.3.3c-.6.2-1.8.2-2.1.3-.4.1-1 .2-1.3.5s-.4.5-1.1.5c-.7 0-1.3-.4-1.8-.6-.6-.2-.5-.4-1.3-.5-1.6-.4-2.1-.4-2.3-.5zM130.6-5c.4.3.7.5 1.1.7 2 1.2 4.1 1.7 6.4 2.6 2.4.9 4.6 2.9 7.3 2.5s4.5-3 6.2-4.8c.6-.6 2.4-3.1 2.4-1.2.1 2.9-3.2 4.7-3.7 7.4-.4 2.2 1.9 3.6 2.2 5.6.1.9-.3 1.9-.1 2.8.2.9.9 1.7 1.8 2 .5.1 1.3.2 1.8.1.6-.2.7-.7 1-1.2s.8-.9 1.4-1.1c.4-.1 1.2-.2 1.3.3.1.4-.7.9-.9 1.1-1.1.9-2 2.3-3.4 2.7-1.5.3-3-.1-4.2.9-.6.5-1 1.2-1.6 1.6-1.2.8-1.8-.6-2.6-.4-.6.1-.8 1-1.2 1.4-.6.6-1.8.1-2.4-.1-1.4-.4-3.2-.8-4.6-.3-2.6.8-4.5 2.6-6.3 4.4-2.3 2.3-5 4.7-5.8 7.9-.3 1.1.3 2.1.1 3.2-.2 1.2-1.2 2.2-1.2 3.4-2.6-3-6.3-4.1-9.8-5.9-1.2-.6-2.5-1.3-3.5-2.3-.8-.7-1.7-1.1-2.6-1.6-1.7-.9-3.2-2.3-5.1-2.9-.6-.2-1.2 0-1.8.1-1.3.4-2.5 1.1-3.6 1.9-1 .7-2.8 4.4-4.4 3.7-.4-.2-.5-.8-.7-1.1-.2-.4-.5-.7-.8-1.1-.6-.9-1.1-1.8-2.1-2.4-1.1-.6-3.3-.5-4.2.4-.9.9-1.6 2.3-1.8 3.5-.3 1.9.9 1.9 2.2 2.8.9.6 1.2 1.2 2.3 1.3 2 .1 2.8.8 4.1 2.3.6.7.9 1.2 1.8 1.7 1 .5 2.2 1 1.2 2-.4.4-1.5 1.3-2.2 1-.7-.2-1.1-.8-1.7-1.1s-1.2-.3-1.9-.3c-1.5 0-2.4 1-3.2 2-.5.6-.5 1.4-.7 2.1-.1.5-1.2 1.1-1.6 1.4-.2.2-1.3 1.4-1.5 1.4-1.7-.2-2.7-1.4-2.8-3 0-.9.4-4.4 1.8-4 0-1.1.4-2.1.1-3.2-.2-.6-.7-1.5-1.2-1.9s-1.2-.5-1.8-.9c-.4-.4-.6-.9-1-1.3-1.7-1.6.2-6.5 1.7-7.8 1.8-1.5 4.7-1.8 6.2-3.5.7-.8 1.2-1.8 1.4-2.8.1-1.1-1-1.9-1.6-2.6-.8-.9-1-2.9.6-3.2 2.4-.5 2.9 1.8 4.8 2.4.4.2.9.2 1.4.2s1.1-.3 1.5-.3c.7.1 1.2.8 1.9.9.9.1 1.8-.4 2.5-1 .7-.7 1.4-1.6 1.6-2.6.2-1.1-.5-1.5-.8-2.4-.2-.7.1-1.3 0-2-.5-.8-1.1-1.4-.9-2.4.3-1.1 1.1-1.3 2-1.7 1-.4 1.2-.8 1.9-1.5.1-.1.1-.3.1-.3 0-.1.1-.1.1-.1s-.1-.2-.1-.3c.1-.2.2-1 .2-1.2.1-1.3-.1-2.6 0-3.9.1-1.1.5-2.1.9-3.2.4-.8.3-1.6.6-2.5.5-2 0-4.1-.4-6.1-.5-2-2.2-3.9-2.3-6 0-1.3.6-3.7 2.1-4.1.9-.2 1.6-.3 2.1-1.1 1.1-1.7 1.9.9 2.6 1.7.9.9 1.8 1.6 2.6 2.6s1.5 2.1 2.5 3.1c2.5 2.5 3.6 5.8 6 8.4.9 1 1.9 1.8 2.9 2.6 1.1 1 2.2 2 3.5 2.8 1.3.7 2.8 1 3.9 1.8zM58 100.4c.3-.1.8-.5 1-.7s.6-.9.8-.9.2.4.2.7c0 .4-.2 1.1-.4 1.5s-.9 1.2-.6 1.5c.3.3.4.4.8.5.4 0 .9 0 .9.3.1.3-.2 1.6-1 2.4-.8.7-1.4 1.1-1.9 1.3-.4.2-1.7.5-1.9.5s-.3-.3.1-.5.7-.3.7-.7 0-.8.2-.9c.2-.2.7-.6.4-.8-.3-.2-.4-.4-.7-.2-.3.2-.3.7-.5.5s-.4-.6-.4-.9c0-.2.1-.6.1-.8 0-.2.3-.5.4-.7.1-.2.7-1.1.7-1.1s.9-.9 1.1-1z"/></g><g id="pin_7_"><g><path d="M90.5-60.1c-8.5 0-15.4 6.8-15.4 15.1 0 9 9.8 21.4 13.8 26.2.9 1 2.5 1 3.4 0C96.3-23.5 106-36 106-45c0-8.3-6.9-15.1-15.5-15.1zm0 20.5c-3 0-5.5-2.4-5.5-5.4s2.5-5.4 5.5-5.4S96-48 96-45s-2.4 5.4-5.5 5.4z" fill-rule="evenodd" clip-rule="evenodd" fill="#00aff0" transform="translate(80 90)"/></g></g></svg>