<svg id="レイヤー_1" data-name="レイヤー 1" xmlns="http://www.w3.org/2000/svg" width="244" height="272" viewBox="0 0 244 272"><defs><style>.cls-1{fill:#506375;fill-rule:evenodd}</style></defs><g id="jpmap"><g id="Group-7"><path id="Okinawa" class="cls-1" d="M211.847 240.094a8.558 8.558 0 003.327-1.841c.983-1.146 1.126-.586 1.41-2.052.284-1.465.592-3.119 1.488-2.66.895.456 2.054 3.088 1.878 4.821-.176 1.733-1.59 3.501-2.405 4.41-.815.905-1.257.105-2.005 1.23s.669 2.03-1.08 2.742c-1.75.71-3.325.642-3.239 1.082.088.44.612.76-.659 1.652-1.272.891-1.583 1.974-2.123 2.367-.54.395-2.33.085-3.285.823-.955.74-1.268 1.863-.503 2.24.764.378 2.61 1.56 2.588 1.954-.022.396.829.646-.469 1.174-1.296.527-1.998-.075-2.02 1.84-.023 1.913-.673 2.044-.273 2.813.399.769 1.352.472 1.705 1.037.354.566.229 1.015-.307 1.653a5.908 5.908 0 01-2.566 1.682c-1.642.755-1.748 1.414-2.296.675a8.99 8.99 0 01-1.105-1.584c-.529-.955-1.424-1.411-.632-2.42a11.002 11.002 0 002.155-3.509 5.62 5.62 0 00-.148-3.978c-.385-.902-1.787-1.053-.693-1.747a57.437 57.437 0 004.873-4.528c.84-.805 2.914-1.646 2.84-2.48-.075-.834-.714-1.66-2.19-1.682-1.478-.022-1.655-.305-1.86-1.218-.207-.915-.618-2.741.86-2.72a17.251 17.251 0 014.157.863 1.336 1.336 0 001.648-.224 5.827 5.827 0 00.929-2.415z"/><polyline id="Path-5" points="233.559 218.635 189.172 218.635 177.958 271.766" style="isolation:isolate" fill="none" stroke="#979797" opacity=".8"/></g><path id="Combined-Shape" class="cls-1" d="M29.55 215.027a2.42 2.42 0 01-.037.173 2.389 2.389 0 00.052 1.121c.104.408.703 2.142 1.587 2.626a15.096 15.096 0 002.759 1.02 3.533 3.533 0 001.543.115c.174-.141.434-1.16.877-1.339.442-.178 1.093-.663 1.665-.382a3.714 3.714 0 011.588 1.707c.104.51.312 1.3-.104 1.657a9.802 9.802 0 00-.911.74c-.156.203-.156.433-.39.56s-1.796.765-1.484 1.3a1.113 1.113 0 001.301.714c.807-.051.755-.179 1.145-.153.39.026 1.301-.128 1.536.076a10.208 10.208 0 01.91 1.835 3.534 3.534 0 00.73 1.377c.441.408 1.138 1.488.92 1.98a3.766 3.766 0 00-.479 1.18c0 .332.105.587-.13.74a11.838 11.838 0 00-2.524 2.804 64.617 64.617 0 00-2.81 6.474 49.754 49.754 0 00-1.354 5.404c-.156 1.07-.494 3.925-.624 4.562a10.61 10.61 0 01-.859 2.778c-.338.409-.494.765-1.015.638-.52-.128-.677-.433-1.249-.663s-.963-.535-1.327-.306-.65.28-.625.765c.026.484-.156 2.65-.754 3.059-.599.407-1.354 1.427-2.004 1.63a5.983 5.983 0 00-1.822.842c-.39.331-.885.79-.91.484s.051-.459-.053-.612c-.104-.152-.13-.254.26-.586a5.237 5.237 0 001.276-2.498 14.139 14.139 0 00-.417-2.447c-.208-.637-.364-1.733-.442-1.937-.078-.204-.078-.433-.494-.433s-1.015-.255-.885-.51a1.09 1.09 0 01.807-.459c.286-.025.65.026.65.204s.052.255.234 0 .703-.994.547-1.3-.833-.688-1.77.077c-.937.764-2.03 1.912-1.795 3.033a7.133 7.133 0 001.223 2.65c.338.408.858.918.833 1.046-.027.127-.495 1.733-1.484 1.223a8.905 8.905 0 00-2.524-1.172 4.753 4.753 0 01-2.446-1.25c-.287-.433-.781-1.07-.287-1.248.495-.179 2.082-.994 2.16-1.682a3.722 3.722 0 00-.312-2.37 4.037 4.037 0 00-1.197-1.123c-.208-.101-.416 0-.338-.33a6.351 6.351 0 00.286-2.27c-.156-.662-.442-1.12-.468-1.503-.026-.382-.547-1.224-.625-1.657-.078-.433-.234-1.453.182-1.3.417.153 1.25.765 1.744.74a2.027 2.027 0 001.691-.893c.286-.637 1.692-3.16 2.108-4.18.417-1.02 1.041-2.524 1.041-2.524a2.974 2.974 0 00-.573.077 3.194 3.194 0 00-.832.28c-.234.179-.338.28-.39.204s-.079-.33-.26-.102c-.183.23-.417.638-.47.357-.051-.28.34-.918.782-1.3s1.483-1.173 1.353-1.86a14.509 14.509 0 00-1.353-2.5c-.287-.585-1.094-1.987-1.354-2.42-.26-.434-1.197-1.453-1.691-1.224-.495.23-.651.357-.755.918-.104.56-.13 1.453-.234 1.835-.104.382.026.663-.338 1.045-.365.382-.99.612-.625.74a5.772 5.772 0 001.353.152 2.954 2.954 0 011.614.561 1.814 1.814 0 01.026 2.498c-.911 1.147-2.056 1.376-2.264.765-.209-.613-.26-1.555-.417-1.912-.156-.357-.182-1.02-.963-.918a2.02 2.02 0 00-1.51.714c-.415.459-.65.484-1.196 1.07s-.885.663-1.145 1.02-.39.612-.26.077c.13-.536.52-1.402.312-1.912a13.91 13.91 0 00-1.327-2.218c-.365-.458-1.171-1.555-.963-2.039.208-.484.364-1.122 1.015-.918a2.405 2.405 0 011.431 1.071 6.9 6.9 0 01.442 1.351c.027.433.1.974.232.87a1.071 1.071 0 01.861-.258c.417.076.99.382.911.076a7.135 7.135 0 00-1.067-1.988 8.101 8.101 0 00-1.847-1.504c-.521-.306-2.837-1.886-2.837-2.957s.339-1.707 1.12-1.835c.78-.127.832-.025.832-.025s2.327-2.91 2.96-2.424c.631.487.735 1.175 1.048 1.252s.494.127.858-.332c.365-.459 1.275-2.243 1.77-2.32a2.422 2.422 0 011.275.23 1.455 1.455 0 001.38-.306 15.672 15.672 0 00.754-2.727s.546-1.402 1.64-1.657a8.42 8.42 0 011.743-.408 10.962 10.962 0 001.795-.306 5.314 5.314 0 012.088-.282l-.013-.007c-.372-.2-.826-.328-.692-.439s.692-.483.692-.857-.319-1.42-.24-1.62a8.343 8.343 0 01.975-1.124c.194-.195.461-.88.712-.936a1.23 1.23 0 011.06.112 2.828 2.828 0 001.606.554 6.398 6.398 0 001.725-.349 6.054 6.054 0 001.592-1.145c.319-.449 1.168-1.67 1.46-2.068s.743-.997 1.274-1.096 1.273-.174 1.698-.274a2.382 2.382 0 001.247-.847c.398-.473 1.407-1.146 1.646-1.445a13.278 13.278 0 011.3-1.12 12.901 12.901 0 011.831-1.72 9.766 9.766 0 001.92-1.286c.15-.184.893-.981.972-1.155a8.464 8.464 0 011.407-1.295 8.491 8.491 0 001.672-1.445 6.397 6.397 0 01.663-1.694 2.889 2.889 0 01.929-.449c.239-.1.61-.598.796-.598a6.228 6.228 0 001.274-.298c.318-.125 1.247-.125 1.406-.225s.584-.398.929-.647.425-.449.77-.3c.345.15.902.324.955.524s.159.598.026.722c-.132.125-.636.523-.53.823.106.298.477.87.955.722a3.918 3.918 0 001.54-.722 3.602 3.602 0 011.857-1.147c.637-.025 2.461.348 3.274.436a7.841 7.841 0 002.458-.087 7.364 7.364 0 011.937-.249 11.932 11.932 0 002.362-.1 17.39 17.39 0 002.123-1.07 10.12 10.12 0 012.388-.798 17.259 17.259 0 012.521.05 5.52 5.52 0 001.725.124c.371-.1.61-.274.902-.224a2.542 2.542 0 001.221-.274 12.632 12.632 0 011.964-.922c.371-.05 1.91-.722 2.282-.448s.796 1.17.557 1.32a2.975 2.975 0 00-.822.623c-.24.3-.61.847-.292 1.096a8.56 8.56 0 01.743.573c.424.374.504 1.196.822.947s.425-.324.319-.623-.425-.473.026-.623c.451-.15.956-.423 1.274-.224.318.2.053.398.451.349a1.935 1.935 0 011.247.124c.345.224 1.46.922 1.752.748s.77-.897 1.247-1.071a5.049 5.049 0 001.46-1.072c.212-.249.77-1.17 1.194-1.046s1.088.449 1.22.25.106-.848.345-1.271-.132-.822-.371-1.32c-.239-.499-1.54-1.769-1.327-2.392a6.608 6.608 0 011.008-2.092 4.523 4.523 0 001.062-1.47c.106-.374.053-.897.371-.947a6.6 6.6 0 001.831-1.046c.212-.25 1.937-1.545 2.282-1.869a43.534 43.534 0 002.972-3.711 6.38 6.38 0 00.397-.752l.284-.653a16.146 16.146 0 00.965-3.08c.209-1.319-.275-1.889-.834-2.938a2.498 2.498 0 01-.066-2.531 4.207 4.207 0 012.532-2.253 10.04 10.04 0 002.63-1.173c.624-.278 1.94-1.203 2.991-.864s0 1.729-.328 2.099a2.957 2.957 0 00-.362 1.481c-.033.278-1.019.433-1.315.556a13.71 13.71 0 00-1.512 1.234c-.263.216-1.02.062-1.381-.062-.362-.123-.723.494-1.02 1.173s.264.772.757 1.019 1.052-.124 1.447-.34c.394-.216.295.68.295 1.296a3.308 3.308 0 01-.538 2.051c-.506.724.44 1.282.44 1.282l.702.444a3.504 3.504 0 00.896.342c.849.174 2.441.249 2.84-.224.397-.474.69-1.968.98-2.242a3.678 3.678 0 011.514-.748c.716-.2 1.521-.276 1.968-.424s1.64-.497 2.171-.747a16.815 16.815 0 001.699-.747 8.602 8.602 0 001.327-.847c.238-.25.398-.747.902-.722.504.025 1.857.075 2.415-.473a21.986 21.986 0 012.308-2.118c.478-.274 1.274-.548 1.592-1.096a5.741 5.741 0 01.797-1.345c.424-.448.743-.897.822-.947a10.182 10.182 0 00.584-.995c.265-.573.637-1.495.902-2.068a9.399 9.399 0 011.035-1.818 11.634 11.634 0 011.672-1.32 30.335 30.335 0 012.972-1.545 9.936 9.936 0 002.76-2.242 5.978 5.978 0 00.637-2.516 22.134 22.134 0 011.3-3.91c.186-.324.611-1.77.744-2.118s1.247-1.171 1.406-1.52c.16-.348.929-1.245 1.141-1.644a6.21 6.21 0 00.584-1.719 8.425 8.425 0 01.584-1.544 7.12 7.12 0 00.212-1.27c.054-.45.398-2.018.425-2.417.026-.399 1.088-1.17 1.341-1.467a2.47 2.47 0 00.251-1.323 6.989 6.989 0 01.292-1.37 4.4 4.4 0 01.34-1.197 7.039 7.039 0 00.164-2.216 4.377 4.377 0 00-.557-1.345 3.947 3.947 0 01-.478-1.27 1.834 1.834 0 00-.637-.872c-.185-.125-.769 0-.902.05a8.457 8.457 0 01-1.565.373c-.558.05-.93-.722-1.009-.996a.746.746 0 01.345-.673c.08 0 1.194-.174 1.699-.224.504-.05 1.114-.797 1.406-1.12a10.875 10.875 0 00.929-2.641 14.39 14.39 0 00.053-2.392c-.08-.373-.664-.822-.85-.996a1.718 1.718 0 01-.291-.822 3.507 3.507 0 01.08-.922c.026-.224-.027-.747-.027-.922s-.345-.274-.637-.373c-.292-.1-.319-.3-.478-.449-.16-.15.424-.548.531-.672.106-.125.53-.374.69-.548a5.232 5.232 0 00.69-1.096c.08-.25.504-.424.69-.498s.69.199.955.298c.266.1.683-.261.717-.358s.623-.128.822-.277c.2-.15.458-.299.478-.392.02-.094.338-.86.438-1.084.1-.224.08-.728.179-1.083a8.408 8.408 0 00.219-1.196 11.836 11.836 0 00.14-1.177c-.02-.243-.598-.654-.737-.71s-.2-.318-.18-.504c.02-.187.538.018.697.018.16 0 .16-.299.2-.467.039-.168.099-.897.119-1.102.02-.206.198-.56.278-.523a5.168 5.168 0 01.756.467c.26.205.398.523.618.645.22.121.597-.14.756-.309a1.134 1.134 0 01.796-.261 2.605 2.605 0 01.876.541 1.087 1.087 0 01.179.822 4.98 4.98 0 00-.1.935s.24 1.102.279 1.177a14.91 14.91 0 01.199 1.513c.02.317.259 1.028.279 1.196.02.168.417.448.676.616a.736.736 0 00.677.056.494.494 0 00.398-.299c.12-.205.498-.56.637-.822a1.216 1.216 0 000-.84c-.06-.337 0-.318.08-.43a3.282 3.282 0 00.313-.725c.074-.257.343.146.463.183a1.421 1.421 0 01.557.28c.1.131.418.58.518.729a3.092 3.092 0 00.736.523 3.999 3.999 0 01.676.58.527.527 0 00.638.018 2.518 2.518 0 00.676-.916c.1-.28.537-1.27.63-1.489a10.628 10.628 0 00.138-1.495c.031-.331.287-.49.307-.715a3.78 3.78 0 00-.259-1.252 3.392 3.392 0 00-.657-.728c-.08-.075-.218-.3-.358-.319-.14-.02-.298.412-.31.565-.011.153-.267.314-.426.482a1.45 1.45 0 01-.657.337 4.436 4.436 0 00-.559.256 1.225 1.225 0 01-.536-.2c-.08-.056-.338.093-.437.15-.1.055-.26.242-.458.28-.2.037-.597.074-.737.093a4.287 4.287 0 00-.656.318 3.636 3.636 0 01-.578.261 1.396 1.396 0 01-.394-.215c-.135-.084.016-.626 0-.877a4.248 4.248 0 01.255-.87 5.606 5.606 0 00.239-1.195c0-.43.239-.523.239-.692a6.769 6.769 0 01.378-1.326c.139-.318.438-.486.617-.673a1.218 1.218 0 00.14-.822c-.02-.187.098-.28.218-.43s.259.15.338.206.398.224.458.28a2.237 2.237 0 00.557.393 4.287 4.287 0 00.717.112 1.046 1.046 0 01.697.336c.139.168.656.804.756.953a2.486 2.486 0 002.527.86 7.914 7.914 0 001.374-1.01c.1-.13.238-.186.228-.15-.01.035-.109.617-.149.748s-.1.467-.16.617c-.058.15-.377 1.98-.377 1.98s-.435.75-.354 1.042-.025 2.11.002 2.608c.027.498.106 3.388.186 3.836a18.77 18.77 0 00.902 3.488 7.949 7.949 0 001.353 1.27c.372.299 1.115.797 1.327 1.021a6.822 6.822 0 01.903.947 7.048 7.048 0 01.875 1.644 6.635 6.635 0 00.213 1.62 3.48 3.48 0 00.477.672c.16.174-.026.573-.026.872a2.196 2.196 0 00.424 1.22c.265.274.929.822 1.009 1.171.079.349.424 1.52.477 1.893s.133.822.16 1.171c.026.349-.266 2.068-.266 2.292s-.185.548 0 .747c.186.2.584.075.717.274a2.036 2.036 0 01.106 1.345c-.16.374-.266.573-.16.847.107.274.32.598.107.972s-.717 1.046-.876 1.37-.45.548-.477.947c-.027.398.159.996-.054 1.17-.212.175-.61.523-.636.847a4.16 4.16 0 00.08.972.564.564 0 01-.24.548 4.686 4.686 0 01-.929.697c-.424.224-.849-.05-.928.2a3.127 3.127 0 00-.186.797c.026.1 0 .423-.24.274-.238-.15-.658-.611-.594-.293.064.318-.042.716.011.94.053.225.292.822.053.822s-.362-.408-.393-.066c-.031.34-.376.191-.483.066-.106-.124-.318-.348-.318-.05a2.451 2.451 0 01-.238 1.072 1.896 1.896 0 00-.346 1.12c.053.4.266.599.133.748-.133.15-.24.399-.531.523-.292.125-.743.349-.477.498s.53.15.45.374a3.362 3.362 0 00-.132.797.936.936 0 00.266.772c.212.225.45.449.238.549-.212.1-.185-.175-.398.074a1.975 1.975 0 00-.451.772c-.026.2-.213.349.027.548.238.2.45.125.53.3.08.174-.106-.026.054.398s.265.274.238.673c-.026.398.158 1.243-.067.97a3.916 3.916 0 00-.888-.896c-.318-.174-.743-.299-.53-.448s.583-.25.212-.374c-.372-.124-.505-.274-.69-.174-.186.1-.106.124-.319-.075a1.144 1.144 0 00-.955-.324 1.887 1.887 0 00-1.168.473c-.292.25-.531.35-.557.574-.027.224-.053.448-.239.473-.186.025-.212 0-.345-.324-.133-.324-.16-.473-.451-.424a.668.668 0 00-.584.4 8.52 8.52 0 01-.398 1.544 4.435 4.435 0 01-.637 1.096 3.427 3.427 0 00-.78 1.298 5.687 5.687 0 00-.308 1.566c.053.498.053 1.22.08 1.47a7.672 7.672 0 00.61 1.544 1.648 1.648 0 01.398.922c.053.498.293 1.42.345 2.092s.345 2.79.372 3.164a11.468 11.468 0 01.053 2.142c-.106.424-.16.947-.292 1.42-.133.474-.139.443-.268 1.019-.13.575-.157 1.049-.29 1.572a7.499 7.499 0 01-.53 1.769 3.09 3.09 0 01-.77.772 9.19 9.19 0 00-.928.698c-.16.199-.266.97-.478 1.07s-.478.175-.584.523c-.106.35-.372 1.52-.53 1.869-.16.349-.293.921-.478 1.295s-.637.647-.664.972-.159.722-.185 1.02c-.027.3.079.699-.027.873a.676.676 0 000 .598.912.912 0 01-.16 1.02c-.37.45-.796.798-.822 1.097a6.867 6.867 0 00-.053 1.495 6.755 6.755 0 00.372 1.245c.106.175 1.008 1.32 1.167 1.62s.69.946.903 1.345c.212.398 1.194 1.868 1.353 2.167.159.299.557.996.584 1.071.026.075.105.224-.16.125a6.339 6.339 0 00-1.937.024 2.904 2.904 0 00-1.274.474 5.83 5.83 0 00-1.645 1.619 7.354 7.354 0 00-.981 2.067c-.08.773-.213 2.267-.32 2.591-.105.324-.583 2.217-.901 2.242-.319.025-1.301.075-1.646.15a3.729 3.729 0 00-1.38.547 8.007 8.007 0 01-1.035.872 1.67 1.67 0 00-.902.772c-.186.424-.345 1.196-.663 1.296a1.667 1.667 0 01-1.247-.1c-.292-.224-1.3-.447-.982-.734s.796-.561.875-1.159a16.872 16.872 0 00-.053-2.391c-.026-.324-.318-1.52-.345-1.72a.669.669 0 01.16-.572 2.448 2.448 0 01.77-.548c.264-.1.371-.124.45-.399a4.769 4.769 0 01.77-1.021c.186-.224.53-.548.77-.822.238-.274 1.034-1.246.637-1.644a2.49 2.49 0 00-1.699-.723 2.716 2.716 0 00-1.645.523c-.319.324-.955 1.196-1.22 1.495a7.78 7.78 0 00-.717 1.17c-.186.325-.664.723-.478 1.047a13.664 13.664 0 01.743 1.345 2.811 2.811 0 01-.16 2.093c-.45.573-1.114.946-1.06.323a3.84 3.84 0 00-.638-1.818 3.579 3.579 0 00-1.539-.697 4.098 4.098 0 00-1.46 0 9.952 9.952 0 00-1.645.473 3.29 3.29 0 00-1.14.847 1.06 1.06 0 00-.107.722c.08.3.212.648.053.598s-.976.529-.952.912c.024.383.076.957.13 1.23.053.274.45.698.477.823a2.684 2.684 0 01-.663 2.167 16.732 16.732 0 00-1.433 2.391c-.319.374-1.008.996-1.433.822-.425-.174-1.035-.648-1.3-.747-.266-.1-.437-.609-.365-1.102a13.744 13.744 0 00.179-1.887c-.027-.374-.08-.946-.08-1.37a1.026 1.026 0 01.663-1.046c.452-.1 1.089-.35 1.089-.623 0-.274-.77-.847-1.248-1.071a4.013 4.013 0 00-2.202-.125 3.704 3.704 0 00-1.486.872c-.213.2-.451.2-.345.598s.45.647.106.797c-.345.15-.956.473-1.327.647-.372.175-.77.3-.876.598a5.558 5.558 0 01-.663 1.445c-.318.399-1.035.872-1.141 1.32-.107.449-.425.997-.345 1.345.08.35.318.797.053.748a19.027 19.027 0 01-1.884-.648 3.153 3.153 0 00-2.017-.348 7.122 7.122 0 01-1.884.298c-.504-.05-1.593-.448-2.15-.473a16.13 16.13 0 00-3.105.2c-.955.199-2.865.821-3.396.946s-2.256.274-2.097 0c.16-.274.717-.947.956-.847.238.1.477.374.69 0a2.05 2.05 0 011.22-.897c.425-.05.584-.124.796 0 .213.125.266-.05.24-.398-.027-.349-.054-.897-.372-1.096-.319-.2-.77-.374-.93-.075-.158.299-.079.573-.477.523a6.157 6.157 0 01-1.857-.299c-.425-.25-.664-.15-.823-.448s-.398-.997-.53-.648a1.983 1.983 0 00-.16 1.27c.133.499.637 1.122.372 1.171-.266.05-.93-.2-1.433-1.07a3.229 3.229 0 01-.345-2.243c.08-.647.238-1.295.238-1.594s0-.374-.238-.399c-.24-.025-.242.047-.586.148s-.529-.023-.741.126a4.1 4.1 0 00-.584.598 4.931 4.931 0 00-.61.922c-.133.299-1.248 1.744-1.46 2.242a3.655 3.655 0 00-.186 2.117 4.596 4.596 0 001.672 1.545 10.582 10.582 0 001.752.747c.45.05 1.22.249 1.38.548.159.299.743.997.371 1.445a11.63 11.63 0 00-.77 1.121c-.238.348-.545.77-.644.659a1.954 1.954 0 00-.63-.535 1.727 1.727 0 00-.69-.15c-.265 0-.397-.323-.557-.099-.159.225-.265.548-.716.623-.451.074-.61.074-.902.15a1.175 1.175 0 00-.664.348 2.875 2.875 0 01-1.167.424c-.504.124-1.354.299-1.513.697-.16.398-.16.748-.265.947a.451.451 0 01-.504.299c-.292-.025-.664.05-.558.324.107.274.876.871.743 1.17s-.504.399-.636.648a2.021 2.021 0 01-.341.444c-.084.104-.243.03-.43.228-.185.2-.583.374-.822.573a2.06 2.06 0 00-.69 1.022 4.113 4.113 0 01-.53 1.12c-.133.25-.107.499-.319.748a3.656 3.656 0 00-.663 1.046 2.432 2.432 0 01-.956 1.27c-.663.524-1.14 1.221-2.123 1.197a13.057 13.057 0 01-3.13-.623 2.876 2.876 0 01-1.646-1.37 1.685 1.685 0 00-.584-.823c-.133-.075-.584-.348-.239-.423.345-.074 1.11-.123.807-.386a3.448 3.448 0 00-1.072-.76c-.504-.2-.982-.15-1.115-.448s-.398-1.022-.902-1.271a3.874 3.874 0 00-1.088-.348c-.239-.05-.478-.125-.292-.374s.425-.424.292-.623-.696-.197-.255-.385 1.37-.536 1.343-.786a.7.7 0 00-.53-.573c-.32-.1-.585.15-.479-.224.107-.374.282-.822.447-.834.164-.013.854-.013.774-.337a3.107 3.107 0 00-.822-1.245.962.962 0 01-.24-1.121c.24-.3.877-.473 1.195-.747s1.71-1.34 1.982-1.63c.274-.288.566-1.036.857-1.36s.664-.672.637-1.021a6.536 6.536 0 00-.292-.897 1.346 1.346 0 00-.849-.623 3.107 3.107 0 00-1.645-.05c-.292.2-1.009.823-1.247.823-.073 0-.244.03-.47.064-.233.328-.557.618-.804 1.03a4.547 4.547 0 00-.527 1.096 13.752 13.752 0 01-.41 2.112 2.179 2.179 0 01-1.085.548c-.44.11-1.993-.329-1.993-.686a2.798 2.798 0 01.381-1.617c.352-.385 1.378-1.482 1.378-1.482s.85-.768 1.055-.987l.009-.01a7.502 7.502 0 01-2.152-1.09 2.824 2.824 0 00-1.512-.871c-.664-.075-2.76-.1-2.946-.125a.798.798 0 00-.663.05 1.994 1.994 0 01-1.248.548c-.796.05-1.088 0-1.486.024a.652.652 0 00-.637.474 5.049 5.049 0 01-.928 1.32c-.292.2-.637.747-1.248.523-.61-.224-.663-.622-.928-.498-.266.125-.69.548-.425.573.265.025.69-.1.716.15a2.091 2.091 0 01-.979 1.514 1.49 1.49 0 00.777.048c.354-.104.532-.52 1.012-.182.48.337.582.39.835.415.252.027.455.312.581.572a3.217 3.217 0 001.088.96 4.127 4.127 0 001.745.493 4.153 4.153 0 011.669.208 1.101 1.101 0 01.404 1.298 1.767 1.767 0 00.051 1.739c.354.52.81.857.885 1.531a3.046 3.046 0 01-.151 2.025 6.678 6.678 0 01-1.417 1.194 8.994 8.994 0 01-1.163.961 10.652 10.652 0 00-1.467 1.298 7.849 7.849 0 00-1.39 1.947c-.28.623-.532 1.401-.71 1.869a3.497 3.497 0 00-.252 1.168c0 .285.07.898-.066.722a10.97 10.97 0 01-1.426-1.423 7.989 7.989 0 00-1.821-2.129 5.59 5.59 0 00-2.96-.882 2.991 2.991 0 00-2.275.623 7.262 7.262 0 01-1.695 1.168c-.53.233-1.795.727-2.023 1.194-.227.467-.278 1.713-.48 2.05a15.382 15.382 0 01-1.012 1.844 11.247 11.247 0 00-.81 1.142c-.1.156-.777.2-.97.424-.193.225-.218.277-.193.693a5.22 5.22 0 01-.101 1.375 1.498 1.498 0 00-.253.727 1.276 1.276 0 00.152.857c.202.311.644 1.04.335.987a2.272 2.272 0 01-1.094-.598c-.202-.26-.249-.666-.516-.579a3.922 3.922 0 01-1.052.267c-.53.052-.759-.103-1.264-.077-.506.025-1.34-.182-1.19-.364a7.279 7.279 0 00.962-1.324v-.181s.152-.312-.86-.286c-1.011.026-.733-.312-1.037-.337-.303-.026-.94.336-1.064.168-.125-.168.011-.693-.246-.898s-.865-.88-.612-1.165.683-.572.733-1.117a1.905 1.905 0 01.279-1.064c.177-.208.8-.617.691-.724a17.475 17.475 0 00-1.4-1.249c-.379-.26-1.011-.908-.884-1.298s.455-1.09-.127-1.168a2.721 2.721 0 00-1.593.493c-.33.208-.658.416-1.037.675-.38.26-1.366.415-.936.104s1.543-.882 1.846-1.168a10.36 10.36 0 011.67-1.064 4.489 4.489 0 00.986-.753 9.3 9.3 0 01.86-.831c.404-.311.986-.441 1.34-.753s.965-.676 1.064-.922a10.222 10.222 0 00.268-1.727 6.106 6.106 0 01.742-1.79c.253-.363.427-1.085.77-1.399s1-.678 1.202-1.015c.203-.337.531-1.168.785-.804a13.354 13.354 0 01.733 1.48c.202.415 1.098 1.745 1.345 1.767.248.024.223-.003.703-.236a5.143 5.143 0 011.467-.545 6.64 6.64 0 011.164-.156c.151 0 1.315.026 1.315.026s1.765-.572 2.008-1.324a3.35 3.35 0 00.09-1.583c-.024-.26-.454-.909.077-1.013s.53.026 1.037-.44c.506-.468.632-.988 1.011-.936a.905.905 0 00.961-.415 4.74 4.74 0 01.21-.232 1.986 1.986 0 01-.697-.007c-.45-.125-.716-.175-.77-.523s-.025-.773-.212-.623c-.185.15-.53.1-.77.324-.238.224-.264.473-.769.597s-1.087.474-1.486.225-.371-.35-.583-.15-.483.209-.573.429a1.121 1.121 0 01-1.126.767c-.77-.025-.743-.399-1.194-.374a7.754 7.754 0 00-1.964.449c-.318.174-1.46.872-2.043 1.146-.584.274-1.725.523-1.937.622-.212.1-.637.648-.929.748a4.85 4.85 0 01-1.247.174 4.018 4.018 0 01-1.009.075c-.504-.075-.456-.695-.679-1.132s-.727-1.41-1.47-1.359a2.217 2.217 0 00-1.433.947 3.919 3.919 0 00-.823 1.27c-.106.373 0 1.071-.159 1.27a1.434 1.434 0 00-.451.772c-.027.35.053 1.22.026 1.445s-.265.698-.53.773c-.266.074-.637.024-.558.273a4.396 4.396 0 01.266 1.196c-.027.299.026.399-.451.723-.478.323-1.142.548-.982.348s.106-.573.398-.573.504.05.478-.274c-.027-.324-.505-.722-.93-.822a4.735 4.735 0 01-1.22-.423c-.212-.15-.557-.623-1.115-.673a8.479 8.479 0 00-1.061-.025c-.212 0-.451-.15-.319-.348s.027-.748-.371-.723a11.988 11.988 0 00-2.309.324 16.41 16.41 0 01-2.15.324 3.417 3.417 0 00-1.332.452c-.34.27-.445.544-1.108.544a5.102 5.102 0 01-1.832-.623c-.557-.224-.504-.448-1.273-.473a2.775 2.775 0 01-1.262-.205zM204.546 40.759c.36.25.718.475 1.076.681a38.319 38.319 0 006.38 2.553c2.384.862 4.59 2.94 7.316 2.53 2.71-.407 4.541-2.953 6.17-4.829.554-.637 2.36-3.082 2.444-1.18.126 2.903-3.157 4.707-3.67 7.4-.415 2.178 1.915 3.581 2.194 5.616.127.922-.26 1.872-.108 2.79a2.521 2.521 0 001.785 1.96 3.674 3.674 0 001.787.082c.581-.186.701-.722 1.02-1.162a2.758 2.758 0 011.357-1.11c.385-.121 1.19-.202 1.26.34.055.417-.682.878-.945 1.11-1.062.939-1.95 2.34-3.449 2.668-1.47.322-2.96-.069-4.245.88-.618.456-.958 1.233-1.614 1.636-1.228.755-1.752-.566-2.629-.424-.64.102-.802 1.009-1.221 1.407-.583.554-1.787.058-2.43-.128a8.43 8.43 0 00-4.624-.298 16.192 16.192 0 00-6.311 4.441c-2.3 2.31-5.005 4.683-5.812 7.912-.267 1.072.296 2.08.115 3.179-.199 1.212-1.183 2.16-1.163 3.41-2.63-3.01-6.343-4.06-9.823-5.881a16.242 16.242 0 01-3.51-2.28 12.206 12.206 0 00-2.604-1.613c-1.725-.916-3.208-2.327-5.137-2.86a3.33 3.33 0 00-1.836.14 11.985 11.985 0 00-3.557 1.913c-.96.692-2.82 4.392-4.358 3.729-.42-.182-.521-.76-.702-1.116a9.814 9.814 0 00-.76-1.07 6.843 6.843 0 00-2.135-2.39 4.15 4.15 0 00-4.25.422 6.583 6.583 0 00-1.808 3.537c-.261 1.89.872 1.88 2.176 2.846.86.637 1.214 1.213 2.333 1.26 2.015.087 2.776.83 4.056 2.264a5.315 5.315 0 001.835 1.698c.95.456 2.221 1.04 1.212 2.044-.448.445-1.495 1.27-2.224 1.005a11.932 11.932 0 01-1.716-1.143 3.489 3.489 0 00-1.867-.272c-1.462-.018-2.363 1.037-3.232 2.045-.544.63-.455 1.362-.664 2.109-.145.516-1.194 1.052-1.608 1.355a17.661 17.661 0 01-1.496 1.405 2.938 2.938 0 01-2.793-3.014c-.028-.883.4-4.399 1.829-4.04.02-1.091.413-2.123.09-3.207a4.412 4.412 0 00-1.246-1.923c-.535-.412-1.244-.49-1.757-.933-.422-.366-.577-.938-.987-1.323-1.71-1.6.164-6.516 1.72-7.829 1.76-1.486 4.677-1.783 6.159-3.468a5.584 5.584 0 001.36-2.847c.13-1.06-.958-1.856-1.61-2.565-.85-.922-.986-2.922.579-3.235 2.358-.47 2.875 1.771 4.75 2.415a4.425 4.425 0 001.406.182c.472.002 1.092-.288 1.51-.253.74.064 1.19.828 1.945.885a3.243 3.243 0 002.477-.993 5.089 5.089 0 001.582-2.575c.166-1.106-.522-1.486-.782-2.438-.191-.692.123-1.324.027-2.016-.124-.875-.686-1.46-.456-2.407.258-1.06 1.075-1.332 1.996-1.74a4.65 4.65 0 001.914-1.546c.077-.086.077-.259.123-.323a.122.122 0 01.112-.054.406.406 0 01-.058-.344 7.404 7.404 0 00.248-1.238c.057-1.294-.118-2.591-.022-3.886a10.095 10.095 0 01.891-3.156 15.466 15.466 0 00.558-2.51 12.897 12.897 0 00-.442-6.056c-.473-2.026-2.246-3.86-2.263-5.96-.009-1.343.6-3.69 2.137-4.12.884-.247 1.591-.286 2.124-1.076 1.114-1.657 1.863.941 2.624 1.664a23.138 23.138 0 012.61 2.588 30.921 30.921 0 002.45 3.06c2.47 2.482 3.648 5.796 6.016 8.412a35.564 35.564 0 002.853 2.611 25.042 25.042 0 003.492 2.77c1.213.74 2.656 1.065 3.826 1.877zM131.962 146.17a3.133 3.133 0 00.995-.748c.166-.224.635-.946.8-.921.167.024.194.373.167.747a4.944 4.944 0 01-.36 1.47c-.193.399-.925 1.239-.642 1.504a1.258 1.258 0 00.836.465c.414.05.856 0 .939.324a3.26 3.26 0 01-.967 2.367 8.137 8.137 0 01-1.85 1.296 6.564 6.564 0 01-1.906.474c-.25-.026-.332-.3.11-.499.442-.2.663-.274.663-.673s0-.772.248-.947c.25-.174.746-.623.415-.847-.332-.224-.442-.449-.718-.2s-.276.702-.456.538a1.353 1.353 0 01-.373-.861c.028-.25.11-.573.138-.798s.277-.498.387-.747a12.673 12.673 0 01.718-1.097s.58-.747.856-.847z"/></g><g id="pin"><path d="M116.796 131.118a15.275 15.275 0 00-15.445 15.123c0 9.008 9.752 21.43 13.768 26.161a2.22 2.22 0 003.376 0c3.994-4.73 13.746-17.153 13.746-26.161a15.275 15.275 0 00-15.445-15.123zm0 20.523a5.402 5.402 0 115.516-5.4 5.461 5.461 0 01-5.516 5.4z" fill="#00aff0" fill-rule="evenodd"/></g></svg>