<svg version="1.1" xmlns="http://www.w3.org/2000/svg" xmlns:xlink="http://www.w3.org/1999/xlink" x="0" y="0" width="467.9" height="433.6" viewBox="0 0 467.9 433.6" xml:space="preserve"><style type="text/css">.st0,.st5{fill:#dbedff}.st0{fill-rule:evenodd;clip-rule:evenodd;stroke:#b2c5eb}.st5{stroke:#aabde7}.st5,.st6{clip-path:url(#mask_1_)}.st8,.st9{fill:#dbedff;stroke:#aabde7}.st9{fill:none;stroke-linejoin:round}</style><g id="map"><g id="jpmap"><g id="Group"><path id="Combined-Shape" class="st0" d="M219.2 376.5c.3.7.2 1.1.1 1.5-.1.4-.1.9.1 1.4.1.5.9 2.6 2 3.2s2.9 1.1 3.4 1.2 1.7.3 1.9.1c.2-.2.5-1.4 1.1-1.6.5-.2 1.4-.8 2.1-.5.7.3 1.8 1.4 2 2.1.1.6.4 1.6-.1 2s-.9.6-1.1.9c-.2.2-.2.5-.5.7s-2.2.9-1.8 1.6c.4.6.6.9 1.6.9 1-.1.9-.2 1.4-.2s1.6-.2 1.9.1c.3.2.8 1.6 1.1 2.2.3.6.4 1.2.9 1.7s1.4 1.8 1.1 2.4-.6 1-.6 1.4.1.7-.2.9c-.3.2-2.2 1.8-3.1 3.4s-3 6.6-3.5 7.8c-.5 1.3-1.5 5.2-1.7 6.5s-.6 4.8-.8 5.5c-.2.8-.6 2.9-1.1 3.4-.4.5-.6.9-1.3.8-.6-.2-.8-.5-1.5-.8s-1.2-.6-1.6-.4c-.5.3-.8.3-.8.9s-.2 3.2-.9 3.7-1.7 1.7-2.5 2c-.8.2-1.8.6-2.3 1s-1.1 1-1.1.6.1-.6-.1-.7c-.1-.2-.2-.3.3-.7.5-.4 1.6-2.3 1.6-3-.1-.7-.3-2.2-.5-3-.3-.8-.5-2.1-.5-2.3-.1-.2-.1-.5-.6-.5s-1.3-.3-1.1-.6c.2-.3.6-.5 1-.6.4 0 .8 0 .8.2s.1.3.3 0 .9-1.2.7-1.6-1-.8-2.2.1-2.5 2.3-2.2 3.7c.3 1.4 1.1 2.7 1.5 3.2s1.1 1.1 1 1.3c0 .2-.6 2.1-1.8 1.5s-2-1.2-3.1-1.4c-1.1-.2-2.7-1-3-1.5-.4-.5-1-1.3-.4-1.5s2.6-1.2 2.7-2c.1-.8.2-2.1-.4-2.9-.5-.7-1.2-1.2-1.5-1.4-.3-.1-.5 0-.4-.4s.5-1.9.4-2.7c-.2-.8-.5-1.4-.6-1.8 0-.5-.7-1.5-.8-2s-.3-1.8.2-1.6c.5.2 1.5.9 2.2.9.6 0 1.7-.3 2.1-1.1.4-.8 2.1-3.8 2.6-5.1.5-1.2 1.3-3.1 1.3-3.1s-.6 0-.7.1c-.1.1-.7.1-1 .3-.3.2-.4.3-.5.2-.1-.1-.1-.4-.3-.1s-.5.8-.6.4c-.1-.3.4-1.1 1-1.6.5-.5 1.8-1.4 1.7-2.3-.2-.8-1.3-2.3-1.7-3s-1.4-2.4-1.7-2.9-1.5-1.8-2.1-1.5-.8.4-.9 1.1c-.1.7-.2 1.8-.3 2.2-.1.5 0 .8-.4 1.3-.5.5-1.2.7-.8.9.5.2.9.1 1.7.2s1.6.3 2 .7c.4.4 1.2 1.6 0 3-1.1 1.4-2.5 1.7-2.8.9-.3-.7-.3-1.9-.5-2.3s-.2-1.2-1.2-1.1-1.4.3-1.9.9-.8.6-1.5 1.3c-.7.7-1.1.8-1.4 1.2-.3.4-.5.7-.3.1s.6-1.7.4-2.3c-.3-.6-1.2-2.1-1.6-2.7-.5-.6-1.4-1.9-1.2-2.5.3-.6.5-1.4 1.3-1.1s1.6.9 1.8 1.3c.1.4.5 1.1.5 1.6s.1 1.2.3 1.1.5-.4 1.1-.3 1.2.5 1.1.1c-.1-.4-.7-1.7-1.3-2.4-.6-.7-1.6-1.5-2.3-1.8-.6-.4-3.5-2.3-3.5-3.6s.4-2.1 1.4-2.2c1-.2 1 0 1 0s2.9-3.5 3.7-2.9.9 1.4 1.3 1.5c.4.1.6.2 1.1-.4s1.6-2.7 2.2-2.8c.6-.1 1 .1 1.6.3.5.2 1.4 0 1.7-.4s.9-3.3.9-3.3.7-1.7 2-2c1.4-.3 1.4-.5 2.2-.5s1.4-.2 2.2-.4 2.3-.8 2.6-.1zm50.8-7c.5.3 1.1.5 1.6.4.4-.1.7-.6 1.2-.2.6.4.7.5 1 .6.3 0 .5.4.7.7.1.3.7.9 1.2 1.3s1.5.7 2 .7 1.7.1 2 .4c.3.2.7.9.4 1.6-.3.8-.4 1.5-.1 2.2.4.7.9 1.1 1 2 0 .8.2 1.9-.3 2.5-.5.7-1.2 1-1.8 1.4-.5.4-1 .9-1.4 1.1-.5.3-1.3 1-1.8 1.5s-1.4 1.6-1.8 2.3c-.4.8-.7 1.7-1 2.3-.2.6-.4 1.1-.4 1.4 0 .4 0 1.1-.1.9-.2-.2-1.4-1.3-1.6-1.9s-1.1-1.9-2-2.8c-.9-.8-2.5-1.2-3.5-1.3-1-.1-1.8-.1-2.8.6-.9.7-1.4 1.1-2.1 1.3-.6.3-2.2.8-2.5 1.4s-.4 2.1-.7 2.5c-.3.4-.9 1.7-1.3 2.2s-.9 1.2-1 1.4c-.1.2-.9.2-1.2.5-.2.3-.3.3-.3.8s-.1 1.5-.2 1.7-.3.5-.3.9-.1.7.1 1.1.7 1.3.3 1.2c-.4-.1-1-.5-1.3-.8-.2-.3-.3-.8-.6-.8-.3.1-.6.2-1.3.3-.6 0-.9-.2-1.5-.2s-1.6-.3-1.4-.5 1.2-1.4 1.2-1.6v-.2s.2-.4-1-.4-.9-.4-1.2-.5c-.4-.1-1.1.4-1.3.1-.1-.2.1-.9-.2-1.1-.3-.3-1-1.1-.7-1.5.3-.3.9-.7.9-1.3.1-.7.2-1.1.4-1.3.2-.2 1-.7.9-.9-.1-.1-1.2-1.3-1.6-1.6-.4-.3-1.1-1.2-1-1.7.2-.5.6-1.3-.1-1.5-.7-.1-1.5.3-1.9.5s-.8.5-1.3.8-1.7.4-1.1.1c.5-.4 1.9-1 2.3-1.3s1.7-1.1 2.1-1.2c.3-.1.8-.5 1.2-.9.4-.3.6-.6 1.1-1s1.2-.5 1.6-.9 1.2-.8 1.3-1.1c.1-.3.4-1.7.4-2.1s.7-1.7 1-2.2c.3-.4.6-1.3 1-1.7.4-.4 1.2-.8 1.5-1.2.3-.4.7-1.4 1-1 .3.5.6 1.4.8 1.9.2.5 1.2 2.2 1.5 2.3.3 0 .3 0 .9-.2.6-.3 1-.5 1.8-.6s1.2-.1 1.4-.1c.2 0 1.6.1 1.6.1s2.1-.6 2.5-1.5c.3-.9.2-1.6.2-2 0-.3-.5-1.2.2-1.3.6-.1.6.1 1.3-.5.6-.5.8-1.2 1.3-1.1.4.1.7 0 1.2-.5.4-.1 1.1-.7 1.6-.5zm118.6-145.4c.1-.2.3.2.4.3s.5.3.6.3c.1.1.5.4.7.5s.5.1.9.1.7.2.8.4c.2.2.8 1 .9 1.2s.9.8 1.5 1 1.4.1 1.6 0c.2 0 1.6-1.1 1.7-1.2.1-.2.3-.2.3-.2s-.1.8-.2.9c0 .2-.1.6-.2.8s-.5 2.4-.5 2.4-.5.9-.4 1.3c.1.4 0 2.6 0 3.2 0 .6.1 4.1.2 4.7.1.5.7 3.7 1.1 4.3.4.5 1.2 1.2 1.6 1.6.5.4 1.4 1 1.6 1.2.3.3.8.7 1.1 1.2.3.5 1.1 1.7 1.1 2s.1 1.7.3 2c.2.3.4.6.6.8s0 .7 0 1.1c0 .4.2 1.2.5 1.5s1.1 1 1.2 1.4c.1.4.5 1.9.6 2.3.1.5.2 1 .2 1.4s-.3 2.5-.3 2.8-.2.7 0 .9c.2.2.7.1.9.3.2.2.3 1.2.1 1.6-.2.5-.3.7-.2 1 .1.3.4.7.1 1.2s-.9 1.3-1.1 1.7c-.2.4-.5.7-.6 1.2 0 .5.2 1.2-.1 1.4-.3.2-.7.6-.8 1 0 .4.1 1.1.1 1.2s0 .4-.3.7c-.3.3-.6.6-1.1.9s-1-.1-1.1.2c-.1.3-.3.9-.2 1 0 .1 0 .5-.3.3s-.8-.7-.7-.4c.1.4-.1.9 0 1.1.1.3.4 1 .1 1s-.4-.5-.5-.1c0 .4-.5.2-.6.1-.1-.2-.4-.4-.4-.1 0 .4-.1 1-.3 1.3-.2.3-.5.9-.4 1.4s.3.7.2.9c-.2.2-.3.5-.6.6-.4.2-.9.4-.6.6s.6.2.5.5-.1.6-.2 1c0 .4.1.7.3.9.3.3.5.5.3.7-.3.1-.2-.2-.5.1-.3.3-.5.7-.5.9 0 .2-.3.4 0 .7.3.2.5.2.6.4.1.2-.1 0 .1.5s.3.3.3.8.2 1.5-.1 1.2c-.3-.3-.7-.9-1.1-1.1s-.9-.4-.6-.5c.3-.2.7-.3.3-.5-.5-.2-.6-.3-.8-.2-.2.1-.1.2-.4-.1-.3-.2-.5-.4-1.2-.4-.6 0-1.1.3-1.4.6-.4.3-.6.4-.7.7 0 .3-.1.5-.3.6-.2 0-.3 0-.4-.4-.2-.4-.2-.6-.5-.5-.4.1-.6.2-.7.5s-.2 1.3-.5 1.9-.4.9-.8 1.3-.9 1.2-.9 1.6c-.1.4-.4 1.3-.4 1.9.1.6.1 1.5.1 1.8s.6 1.7.7 1.9c.1.2.4.5.5 1.1s.4 1.7.4 2.6c.1.8.4 3.4.5 3.9 0 .5.2 2.1.1 2.6s-.2 1.2-.4 1.7c-.2.6-.2.5-.3 1.2-.2.7-.2 1.3-.4 1.9-.2.6-.4 1.7-.6 2.2-.3.4-.5.6-.9.9-.5.4-.9.6-1.1.9-.2.2-.3 1.2-.6 1.3-.3.1-.6.2-.7.6s-.5 1.9-.6 2.3c-.2.4-.4 1.1-.6 1.6s-.8.8-.8 1.2c0 .4-.2.9-.2 1.2 0 .4.1.9 0 1.1s-.1.5 0 .7.3.7-.2 1.2-1 1-1 1.3c0 .4-.2 1.4-.1 1.8.1.5.3 1.3.5 1.5.1.2 1.2 1.6 1.4 2 .2.4.8 1.2 1.1 1.6.3.5 1.5 2.3 1.6 2.6.2.4.7 1.2.7 1.3 0 .1.1.3-.2.2-.3-.1-1.6-.1-2.4 0-.7.1-1.1.3-1.6.6s-1.7 1.4-2 2-1.1 1.6-1.2 2.5-.3 2.8-.4 3.2c-.1.4-.7 2.7-1.1 2.7s-1.6.1-2 .2-1.2.3-1.7.7c-.5.4-.8.8-1.3 1.1-.5.2-.9.4-1.1.9s-.4 1.5-.8 1.6-1.2.2-1.5-.1c-.4-.3-1.6-.5-1.2-.9s1-.7 1.1-1.4c.1-.7 0-2.5-.1-2.9 0-.4-.4-1.9-.4-2.1s0-.5.2-.7.6-.5.9-.7c.3-.1.5-.2.5-.5.1-.3.7-1 .9-1.2.2-.3.6-.7.9-1s1.3-1.5.8-2-1.3-.9-2.1-.9c-.7 0-1.6.2-2 .6s-1.2 1.5-1.5 1.8c-.3.4-.6 1-.9 1.4-.2.4-.8.9-.6 1.3.2.4.8 1.3.9 1.6.1.4.4 1.9-.2 2.6-.5.7-1.4 1.2-1.3.4.1-.8-.6-1.9-.8-2.2-.2-.3-1.4-.8-1.9-.9s-1.3-.1-1.8 0-1.5.3-2 .6-1.3.8-1.4 1-.2.5-.1.9.3.8.1.7c-.2-.1-1.2.6-1.2 1.1s.1 1.2.2 1.5.5.9.6 1c0 .2.2 1.5-.8 2.6-1 1.2-1.4 2.5-1.7 2.9-.4.5-1.2 1.2-1.7 1s-1.3-.8-1.6-.9c-.3-.1-.5-.7-.4-1.3.1-.6.2-1.8.2-2.3s-.1-1.2-.1-1.7.3-1.2.8-1.3c.5-.1 1.3-.4 1.3-.8 0-.3-.9-1-1.5-1.3s-1.8-.4-2.7-.2c-.8.2-1.6.8-1.8 1.1-.3.2-.5.2-.4.7s.5.8.1 1l-1.6.8c-.5.2-.9.4-1.1.7-.1.4-.4 1.3-.8 1.8s-1.3 1.1-1.4 1.6-.5 1.2-.4 1.6.4 1 .1.9-1.5-.5-2.3-.8-1.4-.6-2.5-.4c-1 .2-1.7.4-2.3.4-.6-.1-1.9-.5-2.6-.6-.7 0-2.6 0-3.8.2-1.2.2-3.5 1-4.1 1.2s-2.7.3-2.6 0c.2-.3.9-1.2 1.2-1 .3.1.6.5.8 0 .3-.5 1-1 1.5-1.1s.7-.2 1 0 .3-.1.3-.5-.1-1.1-.5-1.3c-.4-.2-.9-.5-1.1-.1s-.1.7-.6.6-1.7-.1-2.3-.4c-.5-.3-.8-.2-1-.5s-.5-1.2-.6-.8c-.2.4-.4.9-.2 1.6.2.6.8 1.4.5 1.4-.3.1-1.1-.2-1.7-1.3-.6-1.1-.5-1.9-.4-2.7.1-.8.3-1.6.3-1.9s0-.5-.3-.5-.3.1-.7.2c-.4.1-.6 0-.9.2s-.5.5-.7.7-.6.8-.7 1.1c-.2.4-1.5 2.1-1.8 2.7s-.5 2-.2 2.6 1.5 1.7 2 1.9c.5.2 1.6.9 2.1.9.5.1 1.5.3 1.7.7.2.4.9 1.2.5 1.8-.5.5-.6.9-.9 1.4-.3.4-.7.9-.8.8-.1-.1-.4-.5-.8-.7-.3-.1-.5-.2-.8-.2s-.5-.4-.7-.1-.3.7-.9.8c-.5.1-.7.1-1.1.2s-.6.2-.8.4-.8.4-1.4.5c-.6.2-1.6.4-1.8.9-.2.5-.2.9-.3 1.2-.1.2-.3.4-.6.4-.4 0-.8.1-.7.4.1.3 1.1 1.1.9 1.4-.2.4-.6.5-.8.8-.2.3-.3.4-.4.5s-.3 0-.5.3c-.2.2-.7.5-1 .7s-.8.8-.8 1.2c-.1.5-.5 1.1-.6 1.4-.2.3-.1.6-.4.9s-.8 1.1-.8 1.3c0 .2-.4.9-1.2 1.6-.8.6-1.4 1.5-2.6 1.5s-2.9-.5-3.8-.8-1.8-1.1-2-1.7c-.2-.5-.5-.9-.7-1s-.7-.4-.3-.5c.4-.1 1.4-.2 1-.5s-.7-.7-1.3-.9c-.6-.2-1.2-.2-1.4-.5-.2-.4-.5-1.2-1.1-1.6-.6-.3-1-.4-1.3-.4-.3-.1-.6-.2-.4-.5s.5-.5.4-.8c-.2-.2-.8-.2-.3-.5.5-.2 1.7-.7 1.6-1 0-.3-.3-.6-.6-.7-.4-.1-.7.2-.6-.3s.3-1 .5-1 1 0 .9-.4-.7-1.4-1-1.5c-.3-.2-.6-1-.3-1.4.3-.4 1.1-.6 1.5-.9s2.1-1.6 2.4-2 .7-1.3 1-1.7c.4-.4.8-.8.8-1.2 0-.4-.4-.9-.4-1.1s-.5-.6-1-.8c-.5-.1-1.6-.3-2-.1-.4.2-1.2 1-1.5 1-.1 0-.5.1-.9.1.2.3.2.7.1 1-.3.4-.7.8-1.1 1.4-.3.5-.5.9-.7 1.4-.1.5-.3 2.3-.5 2.6-.3.3-.8.5-1.3.7-.5.1-2.5-.4-2.5-.9 0-.4 0-1.5.5-2 .4-.5 1.7-1.8 1.7-1.8s1.1-1 1.3-1.2c.2-.2.5-.7.8-1-.1 0-.2 0-.3-.1-1-.3-2.4-1-2.7-1.4-.4-.4-1-1-1.8-1.1s-3.4-.1-3.6-.2c-.2 0-.4-.2-.8.1-.4.2-.5.6-1.5.7s-1.3 0-1.8 0-.6.2-.8.6c-.2.3-.8 1.4-1.1 1.6-.4.2-.8.9-1.5.6s-.8-.8-1.1-.6c-.3.2-.8.7-.5.7s.8-.1.9.2c0 .3-.5 1.7-1.4 1.9-.9.2-2.2.5-2.7.4-.5-.2-.9-.2-.9-.6-.1-.4 0-.9-.3-.8-.2.2-.6.1-.9.4s-.3.6-.9.7c-.6.2-1.3.6-1.8.3s-.5-.4-.7-.2c-.3.2-.6.3-.7.5-.1.3-.4 1-1.4.9-.9 0-.9-.5-1.5-.5-.5 0-2 .3-2.4.5s-1.8 1.1-2.5 1.4-2.1.6-2.4.8c-.3.1-.8.8-1.1.9-.4.1-1.1.2-1.5.2-.5 0-.6.2-1.2.1s-.6-.8-.8-1.4c-.3-.5-.9-1.7-1.8-1.7-.9.1-1.4.8-1.7 1.2-.4.4-.9 1.1-1 1.5-.1.5 0 1.3-.2 1.6-.2.2-.5.5-.5.9s.1 1.5 0 1.8-.3.9-.6.9c-.3.1-.8 0-.7.3.1.3.4 1.1.3 1.5 0 .4 0 .5-.5.9-.6.4-1.4.7-1.2.4.2-.2.1-.7.5-.7s.6.1.6-.3-.6-.9-1.1-1-1.2-.3-1.5-.5-.7-.8-1.4-.8c-.7-.1-1 0-1.3 0s-.5-.2-.4-.4c.2-.2 0-.9-.5-.9s-2.1.2-2.8.4c-.7.2-2.2.3-2.6.4-.5.1-1.2.2-1.6.6-.4.3-.5.7-1.3.7s-1.6-.5-2.2-.8c-.7-.3-.6-.5-1.6-.6-.9 0-1.7-.1-1.7-.5s.1-1.1-.3-1.3c-.5-.2-1-.4-.8-.5s.8-.6.8-1c0-.5-.4-1.7-.3-2 .1-.2 1-1.1 1.2-1.4.2-.2.6-1.1.9-1.1.3-.1.8-.2 1.3.1.5.3 1.4.8 2 .7.5-.1 1.6-.2 2.1-.4.5-.3 1.6-.9 1.9-1.4.4-.5 1.4-2 1.8-2.5.4-.5.9-1.2 1.6-1.3.6-.1 1.6-.2 2.1-.3.5-.1 1-.5 1.5-1 .5-.6 1.7-1.4 2-1.8s1.3-1.1 1.6-1.4c.3-.3 1.7-1.9 2.2-2.1s2.2-1.3 2.3-1.6c.2-.2 1.1-1.2 1.2-1.4.1-.2 1.3-1.3 1.7-1.6.4-.3 1.9-1.5 2-1.8s.5-1.8.8-2.1c.3-.3.8-.4 1.1-.5.3-.1.7-.7 1-.7.2 0 1.2-.2 1.6-.4.4-.2 1.5-.2 1.7-.3.2-.1.7-.5 1.1-.8s.5-.5.9-.4c.4.2 1.1.4 1.2.6s.2.7 0 .9c-.2.2-.8.6-.6 1 .1.4.6 1.1 1.2.9s1.6-.5 1.9-.9 1.5-1.4 2.3-1.4 3 .4 4 .5 2.6.1 3-.1 1.5-.3 2.4-.3 2.2.1 2.9-.1c.7-.2 2.2-1.1 2.6-1.3.4-.2 2.3-.9 2.9-1 .6 0 2.3-.1 3.1.1.8.1 1.6.3 2.1.2.5-.1.7-.3 1.1-.3.4.1 1.1-.1 1.5-.3.4-.2 1.9-1.1 2.4-1.1.5-.1 2.3-.9 2.8-.5.5.3 1 1.4.7 1.6s-.7.4-1 .8-.7 1-.4 1.3c.4.3.4.2.9.7s.6 1.5 1 1.2.5-.4.4-.8-.5-.6 0-.8c.5-.2 1.2-.5 1.6-.3s.1.5.5.4c.5-.1 1.1-.1 1.5.2.4.3 1.8 1.1 2.1.9.4-.2.9-1.1 1.5-1.3.6-.2 1.5-1 1.8-1.3s.9-1.4 1.5-1.3c.5.2 1.3.5 1.5.3s.1-1 .4-1.6c.3-.5-.2-1-.5-1.6s-1.9-2.2-1.6-2.9c.3-.8.8-2.2 1.2-2.6.5-.4 1.2-1.3 1.3-1.8.1-.5.1-1.1.5-1.2s2-1 2.2-1.3c.3-.3 2.4-1.9 2.8-2.3s2.9-3.4 3.6-4.5c.1-.2.3-.5.5-.9l.3-.8s.9-2.1 1.2-3.8c.3-1.6-.3-2.3-1-3.6-.7-1.3-.5-2-.1-3.1s2-2.6 3.1-2.7 2.4-1.1 3.2-1.4c.8-.3 2.4-1.5 3.6-1.1 1.3.4 0 2.1-.4 2.6s-.4 1.5-.4 1.8-1.2.5-1.6.7-1.5 1.2-1.8 1.5-1.2.1-1.7-.1c-.4-.2-.9.6-1.2 1.4s.3.9.9 1.2c.6.3 1.3-.2 1.8-.4.5-.3.4.8.4 1.6s0 1.6-.7 2.5c-.6.9.5 1.6.5 1.6l.9.5c.4.2.7.3 1.1.4 1 .2 3 .3 3.5-.3s.8-2.4 1.2-2.7c.4-.3 1-.7 1.8-.9.9-.2 1.9-.3 2.4-.5s2-.6 2.6-.9 1.4-.5 2.1-.9c.6-.4 1.3-.7 1.6-1 .3-.3.5-.9 1.1-.9s2.3.1 2.9-.6c.7-.7 2.2-2.2 2.8-2.6.6-.3 1.6-.7 1.9-1.3.4-.7.5-1.1 1-1.6s.9-1.1 1-1.2.7-1.2.7-1.2c.3-.7.8-1.8 1.1-2.5.3-.7.8-1.7 1.3-2.2.4-.5 1.7-1.4 2-1.6s2.7-1.6 3.6-1.9 2.9-2.1 3.4-2.7.8-2.5.8-3.1 1.4-4.4 1.6-4.8.7-2.2.9-2.6c.2-.4 1.5-1.4 1.7-1.9.2-.4 1.1-1.5 1.4-2s.7-1.7.7-2.1.6-1.5.7-1.9.2-1 .3-1.5c.1-.5.5-2.5.5-2.9 0-.5 1.3-1.4 1.6-1.8.3-.4.3-1.3.3-1.6 0-.4.2-1.2.4-1.7.1-.4.2-1.1.4-1.5.3-.3.2-2.3.2-2.7 0-.4-.4-1.2-.7-1.6-.3-.4-.5-1.2-.6-1.6 0-.3-.5-.9-.8-1.1-.2-.2-.9 0-1.1.1s-1.2.4-1.9.5c-.7.1-1.1-.9-1.2-1.2-.1-.3.3-.8.4-.8s1.5-.2 2.1-.3 1.4-1 1.7-1.4c.4-.4 1.1-2.8 1.1-3.2.1-.5.2-2.5.1-2.9-.1-.5-.8-1-1-1.2s-.3-.7-.4-1 .1-.9.1-1.1v-1.1c0-.2-.4-.3-.8-.5-.4-.1-.4-.4-.6-.5-.2-.2.5-.7.6-.8.1-.2.6-.5.8-.7.2-.2.7-1 .8-1.3.1-.3.6-.5.8-.6.2-.1.8.2 1.2.4.3.1.8-.3.9-.4 0-.1.8-.2 1-.3.2-.2.6-.4.6-.5s.4-1 .5-1.3.1-.9.2-1.3.2-1.2.3-1.5c0-.3.2-1.1.2-1.4 0-.3-.7-.8-.9-.9-.2-.1-.2-.4-.2-.6 0-.2.7 0 .8 0 .2 0 .2-.4.2-.6 0-.2.1-1.1.1-1.3 0-.3.2-.7.3-.6.1 0 .6.3.9.6s.5.6.8.8c.3.1.7-.2.9-.4.2-.2.7-.4 1-.3.3 0 .9.5 1.1.7s.3.8.2 1c-.1.3-.1 1.1-.1 1.1s.3 1.3.3 1.4c0 .1.2 1.5.2 1.8 0 .4.3 1.3.3 1.5s.5.5.8.8c.3.2.6.1.8.1.3-.1.3-.1.5-.4.1-.3.6-.7.8-1 .2-.3.1-.6 0-1s0-.4.1-.5.3-.6.4-.9c.1-.3.4.2.6.2.1 0 .6.2.7.3.1.2.5.7.6.9s.7.5.9.6c.2.1.7.5.8.7.1.2.5.2.8 0s.7-.8.8-1.1c.1-.3.7-1.6.8-1.8.1-.3.1-1.4.2-1.8 0-.4.3-.6.4-.9 0-.3-.1-1.2-.3-1.5-.2-.3-.7-.8-.8-.9-.1-.1-.3-.4-.4-.4-.2 0-.4.5-.4.7s-.3.4-.5.6c-.2.2-.5.3-.8.4-.3.1-.6.3-.7.3s-.6-.2-.7-.2c-.1-.1-.4.1-.5.2-.1.1-.3.3-.6.3-.2 0-.7.1-.9.1-.2 0-.6.3-.8.4-.2.1-.6.3-.7.3s-.3-.2-.5-.3 0-.8 0-1.1.2-.7.3-1.1c.1-.3.3-.9.3-1.5 0-.5.3-.6.3-.8s.3-1.2.5-1.6c.2-.4.5-.6.8-.8.2-.2.2-.8.2-1-.7-.2-.5-.3-.4-.5zm-41.9 67.6c.2 0 .2.5.2.9 0 .5-.2 1.3-.4 1.8s-1.1 1.5-.8 1.9c.4.3.5.5 1 .6s1.1 0 1.2.4-.2 2-1.2 2.9-1.7 1.3-2.3 1.6c-.5.3-2 .6-2.4.6-.3 0-.4-.4.1-.6s.8-.3.8-.8 0-1 .3-1.2.9-.8.5-1.1c-.4-.3-.5-.6-.9-.2-.3.3-.3.9-.6.7s-.5-.8-.5-1.1c0-.3.1-.7.2-1 0-.3.3-.6.5-.9.1-.3.9-1.4.9-1.4s.7-.9 1.1-1.1c.3-.1 1-.7 1.2-.9.3-.3.9-1.1 1.1-1.1zm56-156c1.4-2 2.3 1.2 3.2 2 1.1 1.1 2.2 1.9 3.2 3.2s1.9 2.6 3 3.7c3 3 4.4 7.1 7.3 10.3 1.1 1.2 2.3 2.2 3.5 3.2 1.3 1.2 2.7 2.4 4.3 3.4 1.5.9 3.2 1.3 4.7 2.3.4.3.9.6 1.3.8 2.5 1.4 4.9 2.1 7.8 3.1 2.9 1.1 5.6 3.6 8.9 3.1s5.5-3.6 7.5-5.9c.7-.8 2.9-3.8 3-1.4.2 3.5-3.8 5.8-4.5 9-.5 2.7 2.3 4.4 2.7 6.9.2 1.1-.3 2.3-.1 3.4.2 1.1 1.1 2.1 2.2 2.4.6.2 1.6.3 2.2.1.7-.2.9-.9 1.2-1.4.4-.6.9-1.1 1.7-1.4.5-.1 1.4-.2 1.5.4.1.5-.8 1.1-1.2 1.4-1.3 1.1-2.4 2.9-4.2 3.3-1.8.4-3.6-.1-5.2 1.1-.8.6-1.2 1.5-2 2-1.5.9-2.1-.7-3.2-.5-.8.1-1 1.2-1.5 1.7-.7.7-2.2.1-3-.2-1.7-.5-3.9-.9-5.6-.4-3.1 1-5.5 3.2-7.7 5.4-2.8 2.8-6.1 5.7-7.1 9.7-.3 1.3.4 2.5.1 3.9-.2 1.5-1.4 2.6-1.4 4.2-3.2-3.7-7.7-5-12-7.2-1.5-.8-3-1.6-4.3-2.8-.9-.8-2.1-1.4-3.2-2-2.1-1.1-3.9-2.8-6.3-3.5-.8-.2-1.5 0-2.2.2-1.6.5-3 1.4-4.3 2.3-1.2.8-3.4 5.4-5.3 4.6-.5-.2-.6-.9-.9-1.4-.2-.5-.6-.9-.9-1.3-.7-1.1-1.4-2.2-2.6-2.9-1.4-.8-4-.6-5.2.5-1.1 1.1-2 2.8-2.2 4.3-.3 2.3 1.1 2.3 2.6 3.5 1 .8 1.5 1.5 2.8 1.5 2.5.1 3.4 1 4.9 2.8.8.9 1.1 1.5 2.2 2.1 1.2.6 2.7 1.3 1.5 2.5-.5.5-1.8 1.6-2.7 1.2-.8-.3-1.4-1-2.1-1.4-.8-.4-1.4-.3-2.3-.3-1.8 0-2.9 1.3-3.9 2.5-.7.8-.6 1.7-.8 2.6-.2.6-1.5 1.3-2 1.7-.3.2-1.6 1.7-1.8 1.7-2.1-.2-3.3-1.7-3.4-3.7 0-1.1.5-5.4 2.2-4.9 0-1.3.5-2.6.1-3.9-.2-.8-.9-1.9-1.5-2.4-.7-.5-1.5-.6-2.1-1.1-.5-.4-.7-1.1-1.2-1.6-2.1-2 .2-8 2.1-9.6 2.1-1.8 5.7-2.2 7.5-4.2.8-.9 1.5-2.2 1.7-3.5s-1.2-2.3-2-3.1c-1-1.1-1.2-3.6.7-4 2.9-.6 3.5 2.2 5.8 3 .5.2 1.1.2 1.7.2s1.3-.4 1.8-.3c.9.1 1.5 1 2.4 1.1 1.1.1 2.3-.4 3-1.2.8-.9 1.7-1.9 1.9-3.1.2-1.4-.6-1.8-1-3-.2-.8.2-1.6 0-2.5-.2-1.1-.8-1.8-.6-2.9.3-1.3 1.3-1.6 2.4-2.1 1.2-.5 1.5-1 2.3-1.9.1-.1.1-.3.1-.4l.1-.1s-.1-.2-.1-.4c.1-.2.3-1.2.3-1.5.1-1.6-.1-3.2 0-4.8.1-1.4.6-2.6 1.1-3.9.4-1 .4-2 .7-3.1.6-2.5 0-5-.5-7.4-.6-2.5-2.7-4.7-2.8-7.3 0-1.6.7-4.5 2.6-5 1.6-.4 2.4-.5 3.1-1.4z"/><path id="Fill-101" class="st0" d="M135 395c-.1 0-.1-.2-.1-.3 0-.2.1-.3.1-.4-.1-.1-.1-.1 0-.3s-.1-.5-.2-.5-.1-.1 0-.2c.1 0 .1-.2 0-.4s-.1-.2 0-.3c0-.1-.1-.3-.2-.4-.1-.1-.2-.1-.3-.3-.1-.2-.1-.3 0-.5s-.1-.2-.2-.2-.2 0-.3.1c-.1.2-.1-.2-.2-.3-.1-.1-.2-.2-.2-.3 0-.1-.3-.2-.4-.2-.1 0-.1-.2-.3-.3-.1 0-.1-.2 0-.3.1-.1-.1-.1-.2-.1s-.1 0-.2.1c0 .1-.1.1-.2.1s-.1.1-.2.3c-.1.2 0 .3.1.4s.2.1.2.2-.1.3-.1.4c-.1.1-.2.4-.4.7-.2.3-.2.5-.3.6 0 .1 0 .2-.1.3-.1 0-.1.1-.2.3 0 .2-.1.1-.2.2s-.1.1-.2.3c-.2.1-.3.2-.3.4s-.1.2-.3.2c-.2.1-.3.2-.4.3-.1.1-.1.4-.3.4s-.3 0-.4.1c-.1.1-.3.2-.5.1s-.2 0-.2.1.1.1.2.3c.1.2.1.6 0 .7l-.1.1c-.1.1-.2.2-.4.3-.2.2-.6.2-.8.3s-.3.1-.3.2 0 .3-.1.3c-.2 0-.2.1-.2.2s0 .1-.1.2-.1.3 0 .5.3.1.5.1c.1 0 .2.1.3.2 0 .1 0 .1.2.2.1.1-.1.1-.1 0h-.3c-.1 0-.2 0-.2-.1s.1-.1 0-.2-.1 0-.1 0c0 .1-.2.1-.2-.1 0-.1-.1-.1-.2-.1s-.1.1.1.1c.1 0 .1.1-.1.2-.1.1-.3.2-.5.5l-.2.2c-.1.1-.2.1-.2.1-.1 0-.4.1-.7.3-.3.2-.3.1-.5 0-.3-.1-.2.1-.3.2s-.3.1-.4 0c-.1-.1-.2 0-.3 0s-.2 0-.3-.1 0-.1 0-.2-.1-.1-.2-.2-.1-.1-.2-.1h-.2c-.1 0-.1-.1-.2-.1 0-.1.1-.1.2-.1.1.1.1 0 .1-.1-.1-.1 0-.2.1-.3 0-.1.1-.3.1-.4s.1-.3.2-.3l.3-.3c.1-.1.1-.1 0-.1s-.4-.1-.5-.2-.4-.1-.6-.2c-.2-.1-.1.1-.2.1s-.1-.1-.1-.2c.1-.1.1-.2 0-.2s-.3-.1-.5-.1c-.2-.1-.3 0-.5.1s-.7.1-.9.1h-.4c-.1 0-.2.1-.3 0-.1 0-.3-.1-.4-.1-.1 0-.1-.1-.2-.2s-.1 0-.1.1-.1.2-.1.3c0 .1 0 .1-.1.2s-.1.2-.1.3c0 .1 0 .2.1.1.1 0 .1 0 .2.1s.3.3.3.4 0 .3.1.4 0 .1-.2.1-.2.1-.3.3c0 .2 0 .5.1.6 0 .1.2.2.2.3 0 .1 0 .2.1.3.1.1.2.3.2.5s.1.2.3.2c.1 0 .1 0 .3.1s.2 0 .3-.1.1-.2.1-.2h.2c.1 0 .2.1.3.2s.1.2.4.1c.2 0 .2 0 .5.3.3.2.7.2.8.3.1 0 .2.1.2.4s-.1.5-.2.7c-.1.2-.2.3-.3.4s-.1.2-.3.4c-.1.2-.1.1-.2 0 0-.1-.1-.1-.2 0l-.3.3c-.1.1-.2 0-.3-.1-.1-.2-.2-.1-.1.1s-.2.2-.2.3c0 .1 0 .2-.2.2s-.1 0-.2.4-.2 0-.4 0c-.2.1-.4.2-.5.2s-.1.1-.1.2 0 .1-.2.2-.2 0-.3-.1-.1-.1-.3-.2c-.1-.1-.2.1-.2.2s0 .1-.2 0c-.1-.1-.1 0-.1.1v.1c-.1 0-.1-.1-.1-.1-.1-.1-.2 0-.3 0s0 .2-.1.3c-.1.1-.1.1.1.4.1.3 0 .3-.2.3s-.2.1-.2.2c0 .2-.2.3-.3.3s-.1 0-.2.1-.3.2-.3.2c0 .1-.2.2-.3.2s-.1.2 0 .3c.1.1.1.2 0 .3-.1.1-.2.1-.3.1h-.2c-.1 0-.1.1-.2 0l-.2-.2c-.1-.1-.2 0-.2-.1s0-.1-.1 0-.1.2-.1.2c-.1 0-.1.1-.3.2-.2 0-.4.2-.4.3 0 .1-.1.1-.2.1h-.2c-.1-.1-.3-.3-.4-.5-.1-.2-.2-.2-.3-.2-.2 0-.2 0-.1.1s.1.2.1.3v.8c0 .5.4.9.6 1.3.1.2.2.4.3.7.1.3.3.6.3.7 0 .2-.1.4-.1.4-.1.1 0 .3.1.4s.1.1.3.1c.1-.1.2.2.2.3v.7c0 .1-.1.1-.1.1-.1 0-.1.1-.2.2s-.2.2-.3.2c-.1.1-.1.2-.2.1h-.2v.2c0 .1-.1.1-.2.2h-.1c-.1.1-.1.1-.2 0 0-.1 0-.1-.2-.1-.1 0-.1.1-.2 0-.2 0-.1.1-.2.2s-.1.2-.1.2c0 .1-.2.1-.3.2s-.1.1-.2.1-.1 0-.2.1c-.1 0-.1.1 0 .2s.1.1.1.2v.1c0 .1-.1.1-.1 0-.1 0-.1-.1-.2-.2l-.2-.2c-.1 0-.1.1 0 .2s.1.2.1.3c0 .2 0 .1.1 0s0-.1.1-.1c.1.1.1.4.2.5.1.1.1.2 0 .1h-.2c-.1 0-.2.1-.4.2-.1.1 0 .2.1.3.2.1.2.1.1.1s-.1.1-.3-.1-.3-.1-.4-.1c-.1 0-.1-.1-.2-.1 0 0-.1 0-.2.1s0 .1-.1.2-.1.1 0 .2c.1 0 .1.2-.1.2s-.2.1-.1.2.2.3.2.4.1.2.2.2.1.1.1.2v.1c-.1.2.1.2.1.2s.1 0 .1.2c0 .1 0 0 .2.2.2.1.1.1.3.3.1.1-.1.1-.1.1-.1 0-.3.2-.5.2-.1.1-.1.2 0 .4s0 0 .2 0c.1 0 .2-.1.2.1s.1.1.2.1c.1-.1.1.1 0 .1s-.1 0-.1.1 0 .2.1.2 0 .2-.1.4-.2.4-.3.7c0 .3 0 .7.1.7s.2.1.3.1c.1.1.1 0 .2.1 0 .1.1.1.2 0 .1 0 .2-.2.2-.2.1-.1.5-.2.7-.3.2-.1.2-.1.4 0s.3 0 .4-.1c.1-.1.1-.2.2-.3h.1s.1 0 .1-.1c.1-.1.2-.4.3-.6s.2-.2.3-.2.2 0 .3-.1l.1-.1c.1 0 .2 0 .4-.1.3 0 .1-.2 0-.2-.1-.1 0-.1.1-.1s.3 0 .3.1c.1 0 .2.1.2 0l.2-.2c.1-.1.2-.3.3-.4l.5-.5c.2 0 .1-.1.2-.2s0-.1.1-.1.1-.1.1-.2 0-.3-.2-.3c-.1-.1-.1-.2-.1-.3 0-.1.2-.1 0-.2s-.1 0-.3 0c-.1 0-.3 0-.6.2s-.3.3-.3.5-.1.2-.1.1c-.1-.1-.1-.1-.1 0-.1.1-.2 0-.2-.1v-.2s0-.3-.1-.4l-.1-.1c-.1-.1-.3-.2-.5-.2s-.2-.2-.2-.3c-.1-.1.1-.2.3-.3.2-.1.3-.2.4-.3.1-.1.1-.2.2-.2l.2-.2c0-.1.1-.1.1-.2l.1-.1c.1-.1 0-.2 0-.4s0-.3.1-.4.1-.2.2-.3.1-.2.1-.2c.1 0 .1-.1.2-.1 0-.1.2-.1.3-.1.1-.1.1-.2.1-.4 0-.1 0-.2-.1-.2l-.1-.1c0-.1 0-.1.1-.1s.2 0 .3-.1c.2-.1.2-.3.2-.5 0-.1.3-.1.4-.1.1 0 .2.1.3-.1s-.1 0-.2-.2c-.1-.1-.1-.1-.2-.1-.2 0-.1-.2 0-.2.1-.1.1-.2.3-.2.1 0 .1 0 .2-.1s.1-.2.1-.2.2-.1.3-.2.1-.1.3.1c.2.1.1.2.2.4s.3.4.7.8.4.4.6.4c.1.1.2.1.3.2.1.2.1.1.2.1.2 0 0-.3 0-.4s-.1-.3-.2-.6-.3-.3-.3-.3c0-.1-.2-.1-.2-.1h.3c.2 0 .1-.1.1-.1h-.6c-.1-.1-.1-.2-.3-.2-.1-.1-.2-.2-.2-.4s-.5-.6-.5-.7 0-.4.1-.5.1-.2 0-.3l-.3-.3c-.1-.1-.2-.1-.3-.2 0-.1-.1-.1-.1-.1-.1-.1-.2-.1-.4-.2s-.3-.2-.3-.3c0-.1-.1-.2-.1-.2-.1 0-.1-.1-.2-.2s-.1-.2 0-.2.2 0 .1-.1 0-.1.1-.1h.4c.2 0 0-.2 0-.3 0-.1.1-.2.2-.2.1-.1 0-.2.1-.2.1-.1.2-.1.3-.2.1 0 .2-.1.3-.1.2 0 .2-.1.2-.1 0 .1.2 0 .3 0s.3.1.4.1c.1.1.2.1.5.1s.5.2.8.3c.2.1.3.1.4.1.1 0 .2-.1.3 0s.1 0 .1 0c-.1 0-.1-.2-.2-.2 0-.1.1-.3.1-.3.1 0 .2-.1.1-.2s-.1-.2 0-.2 0-.1.1-.2c0-.1.1-.1.2-.1s.2.1.3.1c.1.1.2.1.3 0s.3-.1.4-.1c.2 0 .2-.1.2-.2s.1-.1.3-.1.2-.1.2-.3c0-.1 0-.3-.1-.3-.1-.1-.1-.1-.2-.3 0-.1 0-.2.1-.2h.1s.1 0 .2.1c.2.1.1-.2.1-.2 0-.1.1-.1.2 0s.2.1.5.1.4-.1.3-.3c0-.1 0-.2.5-.1.5 0 .2-.2.1-.3-.1-.1 0-.2-.1-.5-.1-.2-.3-.3-.4-.4-.1-.1 0-.2.1-.1s.1 0 .2-.1 0-.1.1.2c.1.2.2.1.2.1.1 0 .2 0 .2-.1.1-.1.1-.1.3-.1s.1 0 .5.2c.3.2.3.3.6.5s.3.2.2-.1c-.1-.2.1-.1.2-.1s0-.1.1-.3c.1-.2.6-.2.8-.3.2 0 .4-.1.5-.1s.1-.2.1-.4.2-.1.3-.1c.2 0 .1-.1-.1-.2s-.3-.4-.3-.5 0-.2-.2-.3c-.1 0-.1 0-.1-.1 0 0 0-.1-.1-.2s0-.2.1-.2.4 0 .6.1c.2.1.3.1.3 0s.2-.2.1-.3c0-.1-.1-.2-.2-.3 0-.1-.1-.2-.2-.4 0-.2.2-.2.3-.2s.2.1.3.1.3.1.6.2 1.1-.1 1.2-.1c.1 0 .2-.1.3-.1s.2 0 .4-.1c.3-.1.3-.1.4-.2.1-.2.1-.3.3-.4s.1-.2 0-.3c-.1-.1.1-.1.2-.2s.1 0 .2 0 .1.1.1-.1v-.3c0-.1.2-.1.2-.1.1 0 .1-.1.2-.1s.1-.2.1-.3v-.4c.1-.1.1-.2.1-.3 0-.1.1-.1.2-.1s.2-.2.1-.2c-.1-.1-.1-.1 0-.1 0-.1.2-.1.2-.2.1-.1.1-.1-.1-.1s-.1 0-.1-.1c.1-.1.1-.2.2-.2s.2-.2.2-.3c0-.1.3-.2.4-.2.1 0 .1-.2.1-.4s.1-.3.2-.3c0-.4 0-.5-.1-.5"/><polyline id="Path-3" points="96.1,379 147.1,379 163.1,428" opacity=".6" fill="none" stroke="#979797"/></g><rect id="Rectangle_1_" x="338" y="278.6" width="57.9" height="57.9" fill="none" stroke="#0762a4" stroke-width="2"/></g><path id="Line-6" d="M337 277.6L293 234H3l334 103.4v-59.8z" opacity=".3" fill-rule="evenodd" clip-rule="evenodd" fill="#bfdcf8"/><g><defs><path id="mask" d="M293.1 1H1.1v232h292V1z"/></defs><clipPath id="mask_1_"><use xlink:href="#mask" overflow="visible"/></clipPath><path d="M181.5 82.3s-.1.5-.2 1.1c-.2.6-.2 2.4-.2 2.6 0 .2 0 .5-.2 1.1-.2.6-.5.2-1.8.2-1.2 0-.9 0-1.5-.3s-.8-.2-1.1.2c-.3.4.4.5.9.9s.1.7.1.7-1-.3-1.9-.6c-.9-.3-1.3.2-1.9.2-.6 0-.1-.6-.1-1-.1-.3-1.1-.5-1.6-1s-.5-.7-.8-1.2c-.2-.5-.1-1.5.1-1.9.1-.4.4-.8.2-1.1-.2-.3-.2-.9-.1-1.1.1-.2-.2-.6-.9-.9-.6-.3-1.3-.5-1.8-.5-.5-.1-1.2-.3-1.6-.9-.4-.6-.8-.2-1 .1-.2.2-1.1-.1-1.7-.5-.6-.4-.5.1-.6.4-.2.3-1.9.3-1.9.3s-1.7.1-2.5.1c-.9 0-.9-1-.9-1.3 0-.3.1-.9.1-1.4.1-.5-.8-.6-.8-.6l-1.9-.5s-.8-.5-1.2-.9c-.5-.4-.9.7-1.2 1-.4.3-1.2 0-2.4 0s-1.3-.2-2-.5c-.4-.2-1.3-.7-1.9-1 0 .3.1.5.1.5v1.9c0 1-.5 2-.5 3.2V85l.5.5c.5.5.7 1.4.7 1.4l-.8 1.2s-1.9 1.7-2.4 2.5-1.5.3-3.5 0-1.5.2-2.5.5-1.5.7-1.5.7-1.9-1.4-2.9-2.2c-1-.8-1.7-.3-1.7-.3s-1 .3-2 .7c-1 .3-1-1-1.2-1.9-.2-.8-1.7-1.3-2.2-2-.5-.7-2.9.5-2.9.5s-.8 0-1.7-1c-.8-1-1.3 0-1.3 0l-1.9 1.4s-.7-.5-1.2-1.7-1.2-.7-1.9 0c-.3.3-.7.4-1 .4v.4c-.1.6-.8.8-2.4 1.8-1.6 1-2.2 2.3-2.2 2.3s-.2.9-.6 2c-.3 1.1-.7.6-1.5 1.5s-.1 1 .1 1.8-1.2.6-1.2.6l-.7 1.1-.9.1s-1.1.7-1.7 1.1c-.6.4-.3 2.5-.3 2.8 0 .3.6.7.8 1.2.2.6.6 1 .6 1.7s.1 1.8.1 2.4c0 .6.6.9.9 1.3.3.4-.1.6-.1.6s-.4.5-1.1.9c-.7.5-.8 0-1.2-.4-.4-.5-1.3-.2-1.3-.2s-.6.1-1.1.1h-.6s-.4.6-1.4.6c-.9 0-.6-.4-1.3-.8-.8-.3-1.1.2-1.7.2-.6 0-.6 1-.6 1v1.8c0 .7-.2.9-1.2.8-1-.1-2-.4-2-.4l-1 .7s-.8-.1-1.6-.1-1.6.7-2.7 1c-1.1.3-1 0-2.1 0s-.9 1.2-.9 1.2-.5.7-.7 1.8c-.2 1.1.9.9 1.5 1.1.6.2.2.6.4.9.2.3-.1 1.7-.6 2.4s-.2.5-.1 1.6 0 1-.6 2.5-.3.8-2 2.7c-1.7 1.9.6 3.4.9 4.1.3.7.7.2.7.2s.5-.1.9-.2c.5-.1.8 1 .8 1s.8 1.4.8 1.9c0 .6-.4 2.5-.4 4.3v1.9c0 .8.6.9.8 2.6.2 1.7-.3 2.6-.3 2.6s.4 1.3.4 1.7c0 .3-.2 1.2-.8 2.5-.2.5-.5.6-.7.6 0 .3.1.5.6.5 1 .1 1.7 0 2 .1.3.1.8.4.8.4s1.3.4 2.1.4 0-.7.8 0 1 .5 1.6.7l.6.2 1.2.3c.1-.3.3-.6.7-.8l.8-.5s.5-.1.7-.5c.2-.4 1.1-1.2 1.1-1.2l.8-1.4s.5 0 1.1-.1c.6-.1 1.5.1 1.5.1s.7-.8 1.8-1.4c1.1-.6 1.5-1.3 2.6-1.7 1.1-.4 1.7.4 2.3-.5.6-.8.4-1.3 1.2-1.4.8-.1.6-.4 1.5-1.1.9-.7 1.7-.9 2.5-1.2.8-.2.4-.6 1.5-.6 1.2 0 1.3.4 1.9-.4.6-.7.6-.8 1.4-.7.8.1 1.5.1 1.5.1s.1-.2.1-.8v-1.3s1.3-1.4 2.5-1.9 2.4-.5 2.4-.5h1.1s-.2-.2 1.2-.2 2 .1 2 .1l1.7.8s1.3.2 2.6.5c1.3.2 1.8.6 1.8.6s.9 0 1.7.2c.7.2 1.2.8 1.2.8l1.1.4s0 1.1.8 1.7c.8.6 1.4.8 1.8 1.2.4.4.5 1.1.5 1.1l.6 1.3s-.1.8.7.8c.8 0 1.8-.1 1.8-.1v1.2s-.4 1.2-.1 2c.2.8.2 1.5.2 1.5l.4 1.1v.8c.5-.1 1.2-.2 1.6.2.8.7 2 1.3 2.4 2.2.3.8 1.2 1.5 1.2 1.5l1.5.5.3 1.7s.2.3 1 1 2 .8 2 .8.5 0 1 .7 1.2 1.5 1.2 1.5.3.3 1-.3c.7-.7.3-1.3 1-1.5.7-.2 1.3-.8 1.3-.8s-.5-1 1-1.7 1.5-.2 2.2-1c.7-.8.7-1.9.7-1.9l-.8-1.5s-.3-1.7.3-1.7c.7 0 1.7 0 1.7.8s1 1.5 1 1.5.7.7 1.3.7c.7 0 1.5.2 2 .5s1.2-.2 1.3.8c.2 1 .3 1 1.3 1 .8 0 2.7-.4 4.1-.3.3-1.6 1-3.2 3.7-3.3l1.4-1.4c-.1 0 .6-.1 1.6-.5l.5.5.4-.4 2.3-1.8s-.2-.6.3-1.2c.3-.8.6.2.7-1.7l-.2-.7-.1-.6c.2-1.1-.8-4.7 1.4-6 .2-.9.1-.6.1-3.3 0-.6-.2-3 .1-5.4.3-.4 0-1.7.7-4.4-.1-.9 1-.1.8-3-.1-.1-.1-1.4.3-2.5.2-1 .2-1-.3-3.5.1-1.4.3-3.8.3-3.8l.1-1.5c.1.3-.3-1-.1-1.5v-1.2l-.5-.5c0-1.3-.1-6.3-.2-8.7 0 0-.3-2-.3-2.4-.2-.5-.5-1.8-.2-3.9.1-.4-.2-2.2-.2-2.2l-.8-1.3c.1.2-.5-1.8-1.8-1.6l.2-1.6c.3-.2-1.3.2-.9-1.4l-.2-.4-.4-1.3c-.5-.9-.9-2.6-1.2-4.6-1.4.6-3.3 1.4-3.6 1.8-.5.1-.2 1.3-.2 1.3z" clip-path="url(#mask_1_)" fill-rule="evenodd" clip-rule="evenodd" fill="#0c308e"/><path class="st5" d="M127.9-12c.5-.1.8-.3 2 0s.9-.2 1.3-.4.6-.5 1.6-.4c1 .1 1.4.8 1.7.9.3.2.1 1.1.1 1.6s1.5.9 1.5.9 1.1.4 1.5.7c.5.3.6.7.6.7s.8.1 1.1.5c.3.3.7.2.7.2s1.3-.4 2.3-.4c1 0 .5.6.5.6s.1.7.4 1.2c.3.5 1.1.2 1.8.3.7.2.8 0 1.7 0s.8.4 1.3.8 1.2.2 1.2.2.4-.7.8-.9c.4-.2 1 .2 1 .2s.9.1 1.3.3c.4.2.2 1.5.5 2 .4.5 1.2.3 1.4.3.2 0 1.7.1 2.5.6s.8 1.5.9 1.9c.1.4.2 1.5.2 2.3 0 .8 1.1 1.1 1.1 1.1s.7.1.9.5c.2.4.3.8.3.8l.6.2s1.2 0 1.9.1.3.3.6.7c.2.3-.1.7-.3 1.1.3.1.7.2 1.2-.1.9-.7 1.3-1.1 1.6-1.1.3 0 .7-.4 1.6-.2.9.2 1 .5 1.6.2.6-.4 1.1-.2 1.7-1 .5-.8.2-1.2.8-1.3.6-.1 1.4-.5 1.4-.5l.6-.8s.3-1 1.2-1.4c.9-.4 1.9-.7 1.9-.7h.2c0-.2-.1-.4-.2-.7-.3-1-.1-1.9.1-2.3.2-.4.7-1.2.9-1.6.2-.4.4-1 .4-1.4 0-.4.4-.5.5-.8.1-.2.1-1.1.1-1.1s.2-.6-.2-.9c-.5-.3-.9-.5-1.2-.5-.3-.1-1.4.1-1.4-.6v-2.1c0-.2.8.1.5-.5-.2-.6-.9-.5-.8-1.1.1-.6.5-1.3.5-1.3s-.1-1.1.7-1.1c.8-.1 1.1-.1 1.4-.2.2-.2.9-.5.3-1.1-.6-.5-.8-.9-1.4-1.3-.5-.4-.3.5-.5-.4-.2-.8-.3-1.4.1-1.5.4-.1 1.1.2.8-.4-.3-.5-.8-1.2-1-1.5-.2-.3-1.4-.8-1.8-1.1-.4-.2-1 .2-1.1-.7-.2-.8 0-1.2-.4-1.5-.4-.3-1-1.1-1-1.1s-.3-.2.1-1 1.2-.6.5-1.3c-.7-.7-.3.4-.7-.7-.4-1.1-.9-1.9-.9-1.9s.2-.8-.3-.9c-.5-.2-.9.5-.9-.3s.3-1.3.3-1.3v-.5s1.5.7 1.3-.4c-.3-1.1-.6-1.3-.3-1.8s.2-.9.9-1.3c.8-.3.9-.3 1-1.2.1-.9-.1-1.2.1-1.5.2-.3.8-1.7.8-1.7s.7-.4.7-.8c0-.3-.3-1.8-.3-1.8s-.9-.6-.2-.7c.8-.1 1.3-.2 1.7-1.1.4-.9-.4-.5.4-.9s1.3-.3 1.6-.8c.3-.6.5-1.2.6-1.5.1-.3.8-1.7.8-3.3-.1-1.6-.3-2.4-.3-2.4l.1-.9-.7-.8-.3-.3-.5-.9s-.3 0 .3-.7c.7-.7.6-.7.8-1 .3-.3.8-.9.8-1.2.1-.3 1-1.7 1-1.7s.6-.3 0-.9c-.6-.7-.9-1.3-1.3-1.4-.4-.1-.9.4-1.2-.2-.3-.6-.5-1.4-.5-1.4l-.3-1.7s.2-1 .6-1.2c.4-.2 1.1-.3 1.1-.3s.2-.5.8 0c.7.5 1.4.7 1.4.7s1.5.5 1.6 0c.1-.5.2-1.3 0-1.6-.2-.3-.8-1.7-.8-1.7l-.3-1.6s-.5-3.8-.4-4.6c.1-.8.3-2.9.3-2.9l-.4-2s-.3-1.5.5-1.8c.8-.3 1.3-1.5 1.3-1.5l-.3-2 .1-.9s.9-.7.4-1c-.5-.3-1-.3-1-.7 0-.3-.3-.8.2-.9.5-.1 1.2-.5 1.3-1.1.2-.6.3-1.5.5-1.9.3-.3.1-.7.6-.8.5-.1 1.6.1 1.9-.6.3-.7.3-1.3.3-1.3h.2c-.1-.1-.2-.2-.2-.3-.1-.4-.1-.6-.1-.6l.1-.5.3-.8-.5-1v-.8l.4-.7.6-.4.2-2.2h.5l.8-.2.3-.5.1-.8-.4-1.9-.2-1.9s-.2-.8-.3-1.1c-.1-.3-.6-.1-.6-.1l-1.3.3-1.6.1-.4-.1s-1 0-1.4-.1c-.4-.1-.7-.4-.9-.7-.2-.3-.1-.3-.3-.6-.2-.3-.2-.4-.3-.7-.1-.3 0-.9 0-.9s.7-2.4.8-3c.1-.6-.1-.5-.3-.7-.1-.2-1.3.5-1.3.5s-.5 0-1.1.2c-.6.2-.9.9-1.3 1.4-.3.5-.1 1.4-.2 1.8 0 .5-.6.8-1 .9-.4.1-.5-.3-.8-.3-.3 0-.6.2-1.1.6-.5.5-1 .5-1.4.8-.4.2 0 .8-.2 1.4-.1.6-.5 0-.8-.2-.3-.3-.8-.5-.8-.5s-.6 0-1 .1-.5.5-.5.5-.2.1-.3.3c-.2.1-.4.5-1.3.7-.9.3-1-.1-1.1-.5-.1-.4-.2-.3-.4-.9-.2-.6-.2-.1-.5-.1h-.4s-.3-.2-1-.4 0 0-.3.2 0 0-.6 0-.3 0-.9.1c-.5.1-.4.2-.5.3s.3.5.6.8c.3.3 0 .5-.4.8-.4.4-.5-.2-.7-.4-.2-.2-.4-.3-.4-.3s-.8-.7-.8-.9c0-.2.3-.5.3-.7 0-.3-.8 0-.8 0s-.6-.2-.8-.5c-.3-.3-.2-.2-.6-.3-.4-.2-.3-.4-.5-.8-.2-.5-.5-.3-.5-.3h-1c-.4 0-.5.3-.9.3s-.3-.4-.4-.8c-.2-.4 0-.6 0-1 .1-.3-.2-.3-.6-.7-.5-.3-.6.4-1.5.4-.8 0-.5-.5-.8-.8-.3-.3-.3.3-.5.7-.2.3-.4 0-.9 0-.5.1-.8.7-1.1 1.1-.3.3-.2 1.2-.4 1.6-.2.4-.3.4-.3.4l-1.2.1s-.3-.1-.6-.4c-.3-.2-.7-.2-.7-.2l-.7.1s-.4.1-.6.2c-.3.1-.2 0-.4 0-.3 0-.5 0-.8.1-.3.1-.8.5-1.2.5-.3 0-.4 0-.6-.1-.2-.1-.1 0-.4 0-.3 0-.5 0-.8-.1-.3-.1-.3-.2-.8-.2h-1.1c-.6-.1-.5 0-1.2 0s-.7.1-1.6.3c-.9.2-.5-.1-1-.5s-.2-.5-.3-1.2c-.1-.7-.6-.6-1.8-.9-1.2-.3-.4.2-1.1.7-.7.5-.4 0-1 .6s-.4 1.1-.4 1.1l-.2 1c-.2 1-.9-.6-.9-.6s-2.2.2-3.5.3c4.3 4.1 6.1 7.1 4.2 14.6-.4.4.6 1.4-1 2.7.1 0-.3.1-.4 1.3-.1.4.1.2-.2 1.5l-.2 1.7c-.2.7-.6 1-1.2 3.3-2.2 4.7-3.4 8.7-9.2 11.7l-1-.2c0 .1-.9-1.3-2.2-1.5.1-.1-1.4-.2-2.1-1l-.5-.8c-.4 0-.9.1-.5 2.2-.5.4 1.4 1 1.1 2-1 0-.9.9.2 3 .6.2 1-.5.8 2 .2.3-.1.5.8 1.4 0 0-.2.7.3.4.4-.2.5-.4 1.3-.4.6-.6 1.9 1.2 3.2-.3h.4l.5.2c.3 0 1.3-.1.3-1.3l-.1-.6c.2 0-.1-.1 2-.8 3.2-.8 7.4 3.3 9.1 7.7v1.3c-.3 2.4.5-.6 1.1 1.8 0 0 .3.4.1.4-.4.1-.8-.5-.2 1.3l.3 2.5c0 3.2-.3 11.2-1.3 16.8-.3.8-.8 3.7-1.2 5.7-.1.3 0 .2-.2 1.5-1.2 1.8-.7 7.5-5.4 8.2-.4.8-1 2-1.2 4.1-.2.9-.7 1.1.1 3.3l-.3 3.1c0 .1-.3.9-.6 2 .4.1 1.1.2 1.9.2.9.1 1.2 0 1.6-.1z"/><path class="st5" d="M252.7-45.5l-.5-.9-1.5-.7-.7-3-.1-1.8-.4-.8-.8 1.2-1.2 1.7-.6 1.2-.7.7-.5-.9.9-1.3.2-1.1.1-1.6.7-.6v-.9l-.2-1.7v-1.2c.2-.6.5-2 .8-4l.6-.9-.8-1.1c.1-.4 0-1.7-.2-3.2-.2 0 .4-.4-.9-1.8l.2-1-.3-1-1-.9s0-.9-.2-1.5c.3-.4-1.4-.9.3-2.5.2-.9.2-1.5.3-3.4l-.8-1-1.2-.8-.8-.8c-.1 0-1.3-1.2-2.4-2.4-.8-.5-4.6-3.5-1.4-6.2 0-.5.8.8 1.4-.5-.3 0 .8-.4-.6-1.7.1 0-.7-.8-1.1-1.2l-1.1-.5c-1.6 0-2.7-2.1.3-3.2-.2 0 .7-.4 0-1.2-.5-1-.4-2-1.8-4.4-2.3-2.2-2.1-6.2-5.1-9.6-.2-.1 0-.3-1.1-1.3-1.7.3-3.1.5-3.1.5l-.8.2s-.9.4-1.8 1.1c-.8.7-.8 1.3-.7 2.3.1.9-.8 1.3-1.7 1.5-.9.3-.4.8-1.7.9-1.3.2-1.3-.8-1.3-.8s-.8-.4-1.9-.9c-1.2-.5-1.5-.2-2.4.2-.9.3-.3.5-.7.5-.4 0-.4-.1-1.3.1-.8.2-.4.6-1 1.2s-.8 1.1-1.4.9c-.6-.2-1-.8-1.3-1.7-.3-.8-.6-1-1.1-1.1-.5-.1-1.5 1-1.8 1.6-.3.6-.3.2-.8.3-.5.2-.9.6-1.9 1-.9.4-.6.7-1.8 1.4-1.2.7-.8.6-2 .6-1.3 0-2.5 1.1-2.9 1.3-.3.2-.7.2-1.3.6-.6.4-.3.5-.3.8 0 .3 0 .5-.3 1.5s-.6.1-1.3.3c-.7.2-1 .9-1 .9s-.8.2-1.2.4c-.4.3-.4.5-1.3.9-.8.4-.8 0-1.3-.1s-1.3-.3-1.6-.7c-.3-.3 0-.8 0-.8s-.6-.4-.8-.8l-.5.4s-.1.6-.3 1.3c-.3.7-1.3.5-1.9.6-.5.1-.3.4-.6.8-.3.3-.3 1.3-.5 1.9-.2.6-.8 1-1.3 1.1-.5.1-.2.6-.2.9 0 .3.5.3 1 .7.5.3-.4 1-.4 1l-.1.9.3 2s-.5 1.3-1.3 1.5c-.8.3-.5 1.8-.5 1.8l.4 2s-.2 2-.3 2.9c-.1.8.4 4.6.4 4.6l.3 1.6s.6 1.3.8 1.7c.2.3.1 1.1 0 1.6s-1.6 0-1.6 0-.7-.2-1.4-.7c-.7-.5-.8 0-.8 0s-.7.1-1.1.3c-.4.2-.6 1.2-.6 1.2l.3 1.7s.3.8.5 1.4c.3.6.8.1 1.2.2.4.1.8.8 1.3 1.4.6.7 0 .9 0 .9s-.9 1.4-1 1.7c-.1.3-.6.8-.8 1.2-.3.3-.2.3-.8 1-.7.7-.3.7-.3.7l.5.9.3.3.7.8-.1.9s.2.8.3 2.4c.1 1.6-.7 3-.8 3.3-.1.3-.3.9-.6 1.5s-.8.4-1.6.8 0 0-.4.9-.9 1-1.7 1.1c-.8.1.2.7.2.7s.3 1.4.3 1.8c0 .3-.7.8-.7.8s-.6 1.3-.8 1.7c-.2.3 0 .6-.1 1.5s-.3.8-1 1.2c-.8.3-.7.8-.9 1.3-.3.5.1.7.3 1.8.3 1.1-1.3.4-1.3.4v.9s-.3.5-.3 1.3.4.1.9.3c.5.2.3.9.3.9s.5.8.9 1.9c.4 1.1 0 0 .7.7s-.1.5-.5 1.3-.1 1-.1 1 .6.8 1 1.1c.4.3.2.7.4 1.5.1.8.8.5 1.1.7.4.2 1.7.8 1.8 1.1.2.3.7 1 1 1.5.3.5-.5.3-.8.4-.4.1-.3.7-.1 1.5.2.8 0 0 .5.4s.8.8 1.4 1.3c.6.5-.1.9-.3 1.1-.2.2-.6.2-1.4.2-.8.1-.7 1.1-.7 1.1s-.4.7-.5 1.3c-.2.6.5.5.8 1.1.2.6-.5.3-.5.5v2.1c0 .7 1.1.5 1.4.6.3.1.8.2 1.2.5.5.3.2.9.2.9s0 .8-.1 1.1c-.1.2-.5.4-.5.8s-.2 1-.4 1.4c-.2.4-.8 1.2-.9 1.6-.2.4-.4 1.3-.1 2.3.1.3.1.5.2.7.3 0 1.3-.1 2.2-.1 1.1 0 1 0 1.4.5.5.5.4.5.9.8.5.3.6.3 1.1.8.5.5.2.6.8.6.6 0 1.1-.4 1.3.1.2.5-.1.6.5.8.6.2 1-.2 1.5.2s1.1.5 1.5 1.1c.5.6.4 1 .8 1.4.5.5.2.6.9.5.8-.1 1.1-.8 1.4-.8.4.1.2.3.8.5.5.2 1 .2 1 .2s.3.1.8 0 .5-.2 1.1-.3c.6-.1.2-.2 1-.1.8.2 1.1.2 1.1.2s.7-.5 1 0c.3.5 1 .6.9 1.2-.1.6-1 1.6-1 1.6l-1.2.6s-.4.4.2.7c.6.3.5.6 1.1.9.7.3.5.5.5.9 0 .5-.1 1.1.4 1.1s.5.2.8.3c.3.2.7-.1 1 0 .3.1 1.2.8 1.2.8s.5.4.5.8c.1.4.2 1.2.8 1.1.6-.2.5-.5.9-.6.4-.1.9.1 1.2-.6.3-.7.5-1.7.5-1.7s-.2-.6.6-.6 1 .2 1.2 0c.2-.2.5-.1.5-.7s.2-2.3 1.1-1.3c.8 1 .1 1 .8 1 .8 0 .5-.3 1.1-.1.6.2 1.1.7 1.4.8.3.2.5-.2.9.2s.7.5.9.7c.2.2 1 1.1 1.2.2.2-1 .2-1.8.2-1.8s.3 0 .8-.2.6-.2.5-.8c-.1-.7-.4-1.1-.1-1.6l.3-.5s.5-.2.2-.7c-.3-.5-.6-.6-.5-1.1.1-.5.6-1 .9-1.1.3-.2 1.2-.8 1.2-1.4V2.9c0-1.1.2-2.1.2-2.1s-.4-1.1-.5-1.4c-.1-.3-.4-1.3.3-1.4.7-.2 1.7-.5 1.7-.2s-.5.5.3.5c.8-.1.7-.2 1.8 0s1.5.5 1.5.5.7.2.9.2c.2 0 .2 0 .9.4s2 .8 2 .8-.5-.1-1-.3c-.1-.3 0 0-.2-.9v-.2c.2-.5-.2-1.4 1.8-1.1l1.3.6-.8.8c.2.2.3.3 1.3 1.7.1-.3 0 1.7.2 1.6 1 .2 1.5-.3 1.5-.3l.4-.4c.4-.3.6-.4-1-1.2l-.3-.8.8-.3.2-.6V-3l1.1.7.2-.6c.2-.1-.6-1.5-1.6-2.6 0 0 .4-1.2.6-1.7-.1-.6 1.4-2.4.9.2 0 .5-.8.6.5 1.7l1.1-.1.7-.3 1-.6c.2.3.5.7.3.9 1 .2 0 .1 2.2.3l.4-.7c.2.1-1-.6-1.9-1.7.5-.5.5-.4 2.8-.6-.1-.1.2-1.2-1.6-1-.3-.3-.8 0-.9-1.8.2.4-.5-1.5.9-.9.5.1.2.7 2.1.7-.1-.5.6 1.5 1.9.1l.2-.8c.3 0-.7 0-1.5-.2l-1.9-1.7c-.1-.7-.6-.7.2-2.1 1 .1 1.3 1.5 3.7-.4l.1-.6c.1-.3-2.3.2-2.5-1.5l.1-.9h.5c.8.2 1.2 0 2.8-.6l1-.8.1-1.2c-.1-.1-.8.6-2.1-.1-.1-.1 0-.6-1.4-1.3 0-.1-.9-1.4.3-1.6.7.3.3.2 1.3.3l.2-.6c-.9-.7-.7-1.9 1.3-2l1.6-.5.3-1.1s-.6-.2-1.2 0c-.7.1-.7.9-2.8.7-.3-.7-.2-1.3-.2-1.3l.6-.5.1-1.2c.1-.3.2 1.2 1.6.4l.6-.6c0-.1-.1-.6.1-2.4.5-.7.7-.9 1.7-2.7l.6 1.4 1.5-1 1.1.3.3-1.7.6-1.3.1-.8c-.5 0-.6-.6-1.8.5-.8.1.1 1.5-2.8 1l-.5-1.1.2-.8 1-.3 1 .2.3-.7.4-1.5.7-.4.2-.8.6-.5c-.3-.4 1.7 1.2 1.3-1.1v-.6z"/><path class="st5" d="M224.8-2.1c-.2 0-.9-.2-.9-.2s-.4-.4-1.5-.5c-1.1-.2-1.1-.1-1.8 0-.8.1-.3-.2-.3-.5s-1 .1-1.7.2c-.7.2-.4 1.1-.3 1.4.1.3.5 1.4.5 1.4s-.2 1-.2 2.1v1.9c0 .7-.9 1.3-1.2 1.4-.3.2-.8.6-.9 1.1-.1.5.2.7.5 1.1.3.5-.2.7-.2.7l-.3.5c-.3.5 0 .9.1 1.6.1.7 0 .6-.5.8-.5.2-.8.2-.8.2s.1.8-.2 1.8c-.2 1-1 0-1.2-.2-.2-.2-.5-.3-.9-.7-.4-.4-.6 0-.9-.2-.3-.2-.8-.6-1.4-.8-.6-.2-.3.1-1.1.1s0 0-.8-1-1.1.7-1.1 1.3c0 .6-.3.5-.5.7-.2.2-.4 0-1.2 0-.8 0-.6.6-.6.6s-.2 1-.5 1.7-.8.5-1.2.6c-.4.1-.3.5-.9.6-.6.2-.7-.7-.8-1.1-.1-.4-.5-.8-.5-.8s-.9-.7-1.2-.8c-.3-.1-.7.2-1 0-.3-.2-.4-.3-.8-.3-.5 0-.4-.7-.4-1.1 0-.5.2-.6-.5-.9-.7-.3-.5-.6-1.1-.9-.6-.3-.2-.7-.2-.7l1.2-.6s.9-1 1-1.6c.1-.6-.6-.8-.9-1.2-.3-.5-1 0-1 0s-.4-.1-1.1-.2c-.8-.2-.4 0-1 .1s-.6.2-1.1.3c-.5.1-.8 0-.8 0s-.5 0-1-.2-.4-.4-.8-.5c-.4-.1-.7.7-1.4.8-.8.1-.5-.1-.9-.5-.5-.5-.4-.8-.8-1.4-.5-.6-1-.7-1.5-1.1-.5-.4-.9 0-1.5-.2s-.3-.3-.5-.8-.7-.1-1.3-.1c-.6 0-.3-.2-.8-.6-.5-.5-.5-.5-1.1-.8-.5-.3-.5-.2-.9-.8-.5-.5-.4-.5-1.4-.5-.9 0-1.8.1-2.2.1.1.4 0 .5 0 .5s.1-.1 0-.5h-.2s-1 .3-1.9.7c-.9.4-1.2 1.4-1.2 1.4l-.6.8s-.8.4-1.4.5c-.6.1-.2.5-.8 1.3-.5.8-1.1.6-1.7 1-.6.4-.7.1-1.6-.2-.9-.2-1.3.2-1.6.2-.3 0-.7.5-1.6 1.1-.4.3-.9.3-1.2.1-.1.2-.1.4-.1.7.1.8 1.1.8 1.1.8s.6.9 2 1.4c1.4.5.2 1.3.2 2.2.1.9.5 1.5.5 1.5s1.5.8 2 1.1c.5.3-.3.7-.3.7l-.6 1.1s-.5 1.4-.7 2.1c-.2.7.2 1.1.2 1.1s.3.6.2 1.9c-.1 1.3-.8 1.6-1.3 2.6-.5 1.1-1.2.4-1.2.4s-1-.6-1.7-.7c-.7-.1-.2 1.5-.2 1.5s1.1 1.9 1.5 3c.5 1.1.1 1.4-.2 2-.3.7-.5 1.2-.6 1.7-.1.5.4.6.6 1.2.2.6.1.9.3 1.3.2.4.7.6 1.5 1.4.8.8.4.8.4 1.4 0 .5.2.7.1 1.7-.2 1-1 .7-1.4.8-.4.1-.5 1.3-.5 1.3s0 .9-.1 2-.4.8-1 1.2c-.6.5-.9 1.3-1.3 1.5-.4.2-.6.4-.6.7 0 .3 0 .5.2 2 .1 1.5-.4.5-1.4.9-1 .4-.5.8-.5 1.2-.1.4 0 .5-.2 1.1-.2.6-1 .6-1 .6l-.2.7v1.4s.2 1 .2 2.4c0 1.3.2 2.2.2 2.2s-.8 1.9-1.7 3.4c-.8 1.5-1.7 1.9-1.7 1.9s-.2 1.2-.5 2.5c-.3 1.4-1 .2-2.4 1.2-1.3 1-3.2 0-3.9.2-.7.2-1.3.3-1.3.3l-.2 1.3s.7 1.9.2 2.9c-.3.6-.3 1.3-.2 1.7.6.3 1.4.8 1.9 1 .7.3.8.5 2 .5s2 .3 2.4 0c.4-.3.8-1.4 1.2-1 .5.4 1.2.9 1.2.9l1.9.5s.8.1.8.6c-.1.5-.1 1.1-.1 1.4 0 .3.1 1.3.9 1.3.9 0 2.5-.1 2.5-.1s1.7-.1 1.9-.3c.2-.3 0-.8.6-.4s1.5.7 1.7.5c.2-.2.5-.6 1-.1.4.6 1.1.8 1.6.9.5.1 1.1.3 1.8.5.6.3 1 .6.9.9-.1.2-.1.8.1 1.1.2.3-.1.6-.2 1.1-.1.4-.3 1.4-.1 1.9.2.5.3.7.8 1.2s1.5.7 1.6 1c.1.3-.5 1 .1 1s1-.5 1.9-.2c.9.3 1.9.6 1.9.6s.4-.3-.1-.7c-.5-.4-1.2-.5-.9-.9.3-.4.5-.5 1.1-.2.6.3.3.3 1.5.3s1.6.4 1.8-.2c.2-.6.2-.9.2-1.1 0-.2 0-2 .2-2.6.2-.6.2-1.1.2-1.1s-.3-1.2.1-1.7c.3-.3 2.2-1.2 3.6-1.8-.5-2.9-.7-6.5-.3-8.8.5-4.2 2.8-16.1 8.2-19 0 0 .7-.5 1-.6.3-.3 1.6.1.4-1.4-.1-1.3-4 .5-1.4-2.8.1-.2-.1-.1 1-1.9.3-.3 1.3-.8 3.2-.4 0 .7 1.1 1 .9 2.4.5.7-.8 1.2 1.2 1.3 0 0 .1-.7-.1-2.1.3-.6 1.7-2.1 3-2.8 1-.4 1.5-1.2 3.3-1.3l.8.3.8-.3s1.6-.1 1.9-.2c.2-.1.6-.1 1.9-.1.3.8.4 1.1 1.1 2.3.5-.1.4.2 1.4-.6l.7-.3h.8v.7s-.1.3.5.5c.1.3 1.5-.1.7.9-.7.2-1.4.1-.9 1.1.2.1 1-.2 2.4.2-.2.4-.3.2-.9 1.5.3.2 0 .6 1.4 1.1.2.1 1.5.3.7 1.1 0 0 .9 0 1.1.3.1.3.3.8.3 1.1l.8.3.3-2.4c.2-.4.8-1.9-1-4-.7 0-2.6-1.2-.1-1.7 0 0 .6 0 .3-.3-.6-.2-.9-2.1-2.9-1.1.3-.2-.7-1.5-.5-2.8.5-.1.7 0 2.3-.2.1-.6.4-.6.1-2.2.9-.9-1.3-2-.8-3.4-.2.4 1.8-.1 1.5.9.3.6.9 1 .9 1 .4-.4.8-.2.8-1.9l-.3-1.6-.3-.6c.2-.3-2.9 2-2.7-.9-.4-.4-1.4.7-2.2-.4v-.7l1.7-.8 1.4-.6c.2-.6 1.2-.6 1.4-2.9-.7-.5-1.8-.2-4-1.4h-.8l.1-.7.3-.8c.1.2-.2-1.1 1.3-.9 1 .5 1.3-.6 3.1-1.9l.3-.8c-.1-.2.4.6 1.3.3l.3-1.1.4-.9c0-.1-.8.4-1.8-.2-.1-.3-.5-1.2-.5-1.2l-.7-1.9c.2-.5.9-.9 1.9-1.9l1.8-1.1 1.1-.9-1-.9c.1-.2.4-2.2 1.5-2.8.3.3.1.8 1.3-.6.8.1.9.7.9.7l.3.8.8.5c-.1-.2.6-.5-.5-2 0 0 0-.2-.5-1.1-.5-.8-.7-1.4-1-3.9 0 0 0-.1-.1-.3l.9-.1s-1.4-.4-2-.8c-.5-.5-.5-.5-.8-.5z"/><path class="st5" d="M106.7 32.6c.4.4 1 0 1 0s.9.1 1.2.2c.4.1.5.6 1.2 1s1.3-.1 1.7-.1c.4 0 .9.4 1.3.6.4.2.7.3 1.1.7.4.4 0 .6 0 .6l-.3.7s.1.4.1 2.1c.1 1.6-.4 3-.4 3s-.1.7 0 1.3c.1.7.7 0 1.3 0 .6 0 .1 1.1.1 1.1s.7.8 1 1.1c.4.3.9.4 1.4.6.5.2 1.1 0 1.4-.1.3-.1 1.5 0 1.5 0l.9.9c.5.4 1.2.8 1.4 1.1.2.3 1.3 1.6 1.9 2.6.6 1-.6 2.1-.6 2.1l-1.2 2.1s-.8.6-1.1.7c-.3.1-1.8 1.2-1.8 1.2s-.9.7-1.5 1.1c-.7.4-.7-.1-1-.1-.4-.1-.6.1-1.5.1s-.4-.1-1.4-.4c-1-.3-1.3.7-1.3.7s-.9 1.4-1 1.6c-.1.2.2 1.1.2 1.5 0 .4.2 1.8.3 2.5.1.7-.4 1.3-.7 1.7-.4.4-.4 1-.4 1s.7.7.7 1.1c0 .4-.2 1.2-.2 1.2s-.5.7-.7 1c-.2.2-.8.3-.8.3l-.3 1V72l-.3.7v1.7l.5 1.1s-.1.8-1 1.5-.2.9-.2 1.7c0 .8.2 1.8.2 1.8l2.1 2.1 1 1s.9-.2 1.8-.1l.6.6.4.7s.3.4.3.9c.3 0 .7-.1 1-.4.7-.7 1.3-1.2 1.9 0 .5 1.2 1.2 1.7 1.2 1.7l1.9-1.4s.5-1 1.3 0 1.7 1 1.7 1 2.4-1.2 2.9-.5 2 1.2 2.2 2c.2.8.2 2.2 1.2 1.9 1-.3 2-.7 2-.7s.7-.5 1.7.3 2.9 2.2 2.9 2.2.5-.3 1.5-.7c1-.3.5-.8 2.5-.5 2 .3 3 .8 3.5 0s2.4-2.5 2.4-2.5l.8-1.2s-.2-.8-.7-1.4l-.5-.5v-5.4c0-1.2.5-2.2.5-3.2v-1.9s0-.2-.1-.5c-.3-.2-.6-.3-.6-.3l.6.3c-.1-.4-.1-1.1.2-1.7.5-1-.2-2.9-.2-2.9l.2-1.3s.7-.2 1.3-.3c.7-.2 2.5.8 3.9-.2s2 .2 2.4-1.2c.3-1.3.5-2.5.5-2.5s.8-.3 1.7-1.9c.8-1.5 1.7-3.4 1.7-3.4s-.2-.8-.2-2.2c0-1.3-.2-2.4-.2-2.4v-1.4l.2-.7s.8 0 1-.6c.2-.6.2-.8.2-1.1.1-.4-.5-.8.5-1.2 1-.4 1.5.6 1.4-.9-.2-1.5-.2-1.7-.2-2 0-.3.2-.5.6-.7.4-.2.7-1.1 1.3-1.5.6-.5.9-.2 1-1.2.1-1.1.1-2 .1-2s.1-1.2.5-1.3c.4-.1 1.2.2 1.4-.8.2-1-.1-1.1-.1-1.7 0-.5.5-.6-.4-1.4-.8-.8-1.3-1-1.5-1.4-.2-.4-.1-.7-.3-1.3-.2-.6-.7-.7-.6-1.2.1-.5.3-1.1.6-1.7.3-.7.7-.9.2-2-.5-1.1-1.5-3-1.5-3s-.5-1.6.2-1.5c.7.1 1.7.7 1.7.7s.7.7 1.2-.4 1.2-1.4 1.3-2.6c.1-1.3-.2-1.9-.2-1.9s-.4-.4-.2-1.1c.2-.7.7-2.1.7-2.1l.6-1.1s.8-.4.3-.7c-.5-.3-2-1.1-2-1.1s-.4-.6-.5-1.5c-.1-.9 1.1-1.7-.2-2.2-1.4-.5-2-1.4-2-1.4s-1 0-1.1-.8c0-.2 0-.5.1-.7-.3-.1-.5-.4-.5-.4s.2.2.5.4c.2-.5.5-.9.3-1.1-.3-.4.1-.6-.6-.7-.7-.1-1.9-.1-1.9-.1l-.8-.1s-.1-.5-.3-.8c-.2-.4-.9-.5-.9-.5s-1.1-.4-1.1-1.1c0-.8-.2-1.9-.2-2.3-.1-.4-.1-1.4-.9-1.9s-2.3-.6-2.5-.6c-.2 0-1.1.2-1.4-.3-.4-.5-.2-1.8-.5-2-.4-.2-1.3-.3-1.3-.3s-.6-.4-1-.2-.8.9-.8.9-.7.2-1.2-.2-.5-.8-1.3-.8-1 .2-1.7 0-1.5.2-1.8-.3c-.3-.5-.4-1.2-.4-1.2s.5-.6-.5-.6-2.3.4-2.3.4-.4.1-.7-.2c-.2-.3-.9-.5-.9-.5s-.2-.4-.6-.7c-.5-.3-1.5-.7-1.5-.7s-1.5-.5-1.5-.9c0-.5.2-1.4-.1-1.6-.3-.2-.8-.8-1.7-.9-1-.1-1.2.2-1.6.4-.4.2-.1.7-1.3.4-1.2-.3-1.6-.1-2 0-.5.1-.8.2-1.8.1-.7-.1-1.4-.2-1.9-.2-.2.7-.5 1.5-.7 2.3-7 25.2-5.2 18.3-17.8 36.9-.4 1-.9 2-1.4 3 .6.8 2 2.3 2.3 2.5z"/><g class="st6"><g><path d="M95.1 176.5h0c-.1 0-.1 0 0 0z" fill="none" stroke="#231815" stroke-linecap="round" stroke-linejoin="round" stroke-miterlimit="10"/><g><g><path class="st8" d="M94.9 309.8s-1.4-1.5-2-.8c-.3.2-1.3 2.9-.8 4.7-.7 2 2.9 2.5 4.9 3.5 1.8-1 1.4-6.6-2.1-7.4zm-7.3 19.6c.9-.3 1.2-1.8 1.2-1.8s-1.4.6-2 1.1c0-.1-.1 1 .8.7zm.4 6.8l-1.1 1.7-.5.6c.4-.2-2 1.9-1.2 3 0-.2.6 1.2 2.1.8.1-.3.8-2 .8-3.5-.1-.9 1-4.2-.1-2.6zm-4.4 6.7l-.6.6c-.4.5.9 1.2 1.9-.6 0 0-.9-.7-1.3 0zm90.7-186.2c-1 0-1.2 0-1.4-1-.2-1-.9-.5-1.4-.9-.5-.3-1.4-.5-2-.5-.7 0-1.4-.7-1.4-.7s-1-.7-1-1.5c0-.9-1-.9-1.7-.9s-.3 1.7-.3 1.7l.9 1.5s0 1-.7 1.9c-.7.9-.7.3-2.2 1-1.5.7-1 1.7-1 1.7s-.7.7-1.4.9c-.7.2-.3.9-1 1.5-.7.7-1 .3-1 .3s-.7-.9-1.2-1.5c-.5-.7-1-.7-1-.7s-1.2-.2-2-.9c-.9-.7-1-1-1-1l-.3-1.7-1.5-.5s-.9-.7-1.2-1.5c-.3-.9-1.5-1.5-2.4-2.2-.5-.4-1.2-.3-1.7-.2v1s-.5.6-.2 1.7c.2 1.1.4 1 .2 1.6-.1.6-.5.7-.1 1.7s.7 1.8.7 2.4c0 .6 0 2-.2 2.5s-.4 2.2 0 3c.4.8 1.8 1 1.5 2-.4 1-1 1.3-1.3 1.5-.4.1-1.9.1-2 .8-.1.7.7 2.3.7 2.9v1.6s-.6.8-.1 1.1c.5.2.5.8.5 1.6 0 .7.2 2.6.1 3-.1.4-.1.7-.1 1.2s.1 1.6.1 1.6.5 1 0 1-.8.1-1 .6c-.1.5-.6 1.1-1.2 2.3-.6 1.2-.4 3.2-.8 4-.5.7-.7 1.2-1.3 1.2-.6 0-1.4-1-2-1-.6 0-1.4.2-1.7.7-.2.5-1.8 0-1.8 0s-.6-.6-.7 0c-.1.6-1.2 1.8-1.9 2-.7.2-2.4.4-2.4.4s-.1.7-1 .2c-.8-.5-1.4-.4-1.4 0s.1 1.2-.4 1.2-1.9.6-1.9.6.1 1.6-.5 2.2c-.6.6-1.8-.1-1.8-.1s-.7-.2-1.2 0-1.1.6-1.2 1.1c-.1.5-.7 2.5-.7 2.5s-.4 1.4-1 1.9-2.4 1.2-2.4 1.2l-1.9 1-1.1.6-1.7-.1-1.2.3c.2.3.5.7.6.9.3.4.3.9.4 1.7.1.8.3 1 .3 1l1.2 1.7s0 .9.3 1.3.3 1.2.3 1.2l1.3.6 2.2.4-.4-1s-.7-1.4.3-.8c1 .6 1.4 1.3 1.5 1.6.1.3.2 1 .9 1.7s1.4 1.9 2.6 2.8c1.3.9 1.1 2.2 1.1 2.2s.5.8 1.1 1.2c.7.5 1.7.7 1.7 1.1 0 .5.6 1.3 1.3 1.8.7.6 1.4 1 2 1.5.7.5 1.8.5 2.4.8.6.3 1 .9 1.4 1.1.3.2 1.9.2 2.6.6.7.3 1.8.9 1.8.9s.6 1.7 1.6 1.6c1-.1 1.6-.7 2-.8.5-.1.5-.3 1.5-.2 1 .1 1.4.3 2.3-.1.9-.5 1.3-.8 2.4-.7 1.1.1 2 0 3-.5.9-.5 1.8-2.2 3-2.3 1.1-.1 2.8-.2 3.3-.5.5-.2.8-.8 1.7-.2.9.6 1.5 1 1.5.5 0-.6-.2-.8 0-1.4.2-.6.6-1.5.6-1.5s0-.8.8 0 1.1.9 2.2 1.5c1 .6 1.9.7 2.2 1.3.2.6 1.2 1.5 1.4 1.8.1.3.7 1.1.8 1.6.1.5.9.7 1.8.9.9.2 2 .3 2.5 1.3.5.9 1.5 2.5 1.5 2.5l1.9 2 3.7.8c-2.1-2.4-4.7-7.7-5.8-10.4l-1.8-2.9-2.2-3.2c-1-1.9-3.9-9.3-4.7-12.4-.5-3.4-2.4-11.2 2.2-15.1l.1-.9-.4-1c.1.1-.2-1.4.3-3 0 0 .4-.5.2-.7-.5-.6-.4-.2-.5-1.9-.1-.4 1.1-2.6 1.4-4.7l.7-1.5c.3-.8 1.5-4.1 2.3-6.3.2-.1.7-1 1.7-1.9-.2-.8.4-5.6 1.5-7.5l.1-1.4c-.1 0 1.8-3 2.7-4.2.4-.7.4-1.8.6-2.9-2-.3-3.9.2-4.7.2z"/><g><path class="st8" d="M125.3 244.2l.5-.7s.3-.5.2-.9c-.1-.5 0 0-.5-.6s-.5-1.1-.5-1.1l-.9-1.8c-.7-1.5-.4-1-.4-1.2-.3.3-.7.3-.7.3s.3-.1.7-.3c0-.1 0-.2-.1-.4-.3-1-.3-1.3-.3-1.3l-.5-.2c-.5-.2-.6-.1-1.4-.2-.7-.1-.4-.2-.6-.8-.3-.6-.4 0-.8 0-.5 0-.9.1-1.6-.1-.7-.2-.4-.2-.7-.5-.4-.3-.5-.1-1-.1s-.5.3-.5.9c0 .6 0 .7-.5 1.4-.5.6-.8-.1-1.3-.4-.5-.3-.5-.2-1.5-.7-1-.5-1.4-.3-1.4-.3l-1.6.8s-.7.1-1.4.5c-.6.4-.6.9-1.3.9-.6 0-.5-.1-.8-.2-.4-.1-1.3.6-1.3.6l-.5.4c-.5.4-.6-.3-.6-.3l-.7-.2.4-.9c.4-.9 0 0-.4-1s0 0-.5.2c-.6.2 0 0-.5.3s-.9.5-.9.5l-1.3.2-.5.1c-.5.1-.6.5-.9.7-.3.2-.9.1-1.5.1h-.6s-.6 0-2.5-.3 0 0-.3-.5-.6-.6-.9-.8c-.3-.2-1-.5-1.3-.5-.3 0-.8-.1-1.4-.4-.5-.3 0 0-.3-.6s-.3-.6-.5-1.1c-.3-.5-1.2-.7-1.2-.7s-.6-.1-1.1-.1h-1.9c-.7 0-1-.2-1.6-.5-.6-.3-1.1.3-2-.2-.9-.5-1.9-1.2-1.9-1.2s-.8 0-1.7-.1c-.9-.1-.5-.3-1.4-.7-.8-.5-.5.1-1.6.2s-.8-.8-1.5-1.4c-.6-.5-1.6-.4-1.6-.4l-.7.6s-.8.2-1.1.2-.8.2-1.2.2c-.4 0-1 .6-1 .6l-.4.5.2.8.8-.2-.8.2.2.8.6.5s.7.3.7.5c0 .3-.5 2-.2 2.7.4.7.5.7.8 1.1.4.4.3.2.5.9l.2.7s.5.1.9.8c.5.7 2.2 2.5 2.2 2.5s1.2.9 1.8 1.2c.6.3 1.4.6 1.4.6s.8.4 1.1.5c.2.1.9.5 1.1.6.3-.3.7-.5.8-.6-.2 0-.5.3-.8.6h.1s1-.2 1.4.3c.4.5.5.8.5.8l-.1.5s.1.2.8.2c.7 0 .8 0 1.3.1s.9 0 1.2.4c.3.4.5.4.6.9.1.5.5 1 .5 1s1.6.5 1.8.5H89c.7 0 1.1.1 1.1.1l4.2 1.2 2.2 2.9 1.3 1.4s.4.5.7 1.3c.4.7 1.3-.2 1.3-.2s.5-.2.9-.3c.5-.1 0-.8 0-1.6s-.3-.6-.4-.9c-.1-.3-.4-1.1-.4-1.1l1.1-.6c1.1-.6-.1-.6-.1-.6s-.1-.4-.3-.6c-.2-.3-1.3-.5-2-.8-.7-.3-.5-.1-.5-.6-.1-.5 0 0 .3 0s1.6.2 1.6.2h1.5l.7-.5c.7-.5.5 0 1.9 0 1.5 0 .6.3 1.6.5s.9.3.9.3.5.3 1.1.5c.5.2.5.5.8.5.3.1.5.3 1.7.9 1.2.6 1.1.5 2.1 1s1.1.7 2 1.5c.5.4 1.7 1.3 2.8 2.1l.3-.2c0-.1.4-.4-.1-.5l.3-1.2c.2-.6.3-.5 0-1.5-.1-.1-.1-.1-.1-.2l4.9-5.3 1 .2.6.1.1.6.8.3c0-.1.1 0 .4-.1-.1-.6-.4-1.7-.9-3.7 0-.6.9-.5.9-.5z"/><path class="st8" d="M181.2 239.4c-.4-.2-.8-.6-1.3-1.1l-3.7-.8-1.9-2s-1-1.6-1.5-2.5c-.5-.9-1.6-1-2.5-1.3-.9-.2-1.7-.5-1.8-.9-.1-.5-.7-1.3-.8-1.6-.1-.3-1.1-1.3-1.4-1.8-.2-.6-1.1-.7-2.2-1.3-1-.6-1.4-.7-2.2-1.5-.8-.8-.8 0-.8 0s-.3.9-.6 1.5c-.2.6 0 .8 0 1.4 0 .6-.6.1-1.5-.5s-1.3 0-1.7.2c-.5.2-2.2.3-3.3.5-1.1.1-2 1.8-3 2.3-.9.5-1.8.6-3 .5-1.1-.1-1.5.2-2.4.7-.9.5-1.3.2-2.3.1-1-.1-1 .1-1.5.2s-1 .7-2 .8c-1 .1-1.6-1.6-1.6-1.6s-1.1-.6-1.8-.9c-.7-.3-2.3-.3-2.6-.6-.3-.2-.8-.8-1.4-1.1-.6-.3-1.7-.3-2.4-.8s-1.4-.9-2-1.5c-.7-.6-1.3-1.4-1.3-1.8 0-.5-1-.7-1.7-1.1-.7-.5-1.1-1.2-1.1-1.2s.1-1.3-1.1-2.2c-1.3-.9-1.9-2.2-2.6-2.8-.7-.7-.8-1.4-.9-1.7-.1-.3-.5-1-1.5-1.6-1-.6-.3.8-.3.8l.4 1h.2-.2l.1.2 1 1.9.8 1.6.2 1.5s0 1.5.1 1.8c.1.3.5.7.8 1.2.3.6.2 1.1.6 1.7.3.6.7.7 1.3 1.1.6.5.6.9.8 1.4.2.5.9 1.4 1.3 1.9.3.6-.1 1-.5 2.3-.3 1.3-.1 1.3-.1 1.8 0 .6.1 1.3.1 2.8 0 .8-.3 1.2-.7 1.5 0 .2-.3-.3.4 1.2l.9 1.8s0 .5.5 1.1c.5.6.4.2.5.6.1.5-.2.9-.2.9l-.5.7s-.9-.1-.7.4c.5 2 .8 3.1.9 3.7.3 0 .8-.2 1.5-1.3 0 0-.4-.8-.3-.9 1-.3-.2-2.2 2.8-1.9l1.5 1.5c.8.3 3 2.5 4.3 3.7l1.5.3.3 1.1-.6.6s0 .7.1 1c.2.7 1.2.3.2 1.9-.1.2-.6-.1-.7.2-.2.4 0 .7-1 .6-.4 1.3-2.2 2.5-3.5 4.5-.4.3-.6.9-1.9.3l-.6.7-.1.6-.5.3-.1-.4c-.8.4-.1 1.3-2.6 1.7-.3.2-.5.1-.5.4 0 .6-.2.7.3 2.4.4.5 1.1.3-.1 1.5 0 0-.3.4-.6.4-1 0-1 .2-2.8-.3l-.1.4 1 .8c.2 0-1.1 1-2.3.3l.3 1c.4.6-.9 1.1-1.3 2.4l.9.3 1.1.8 1.3 1.9c0 .4.6 1.2.5 3-.5 1.2-1.1-.3-2.7 2.6-.4 1.1-.4 2 .4 4.2.1.4.2.4 0 1.8.3.3 1.1 2.3.3 3.6-3.2 3.4 2.1.2 1.1 4.7.2.1-.9-.3-1.5.4-.4.9-1.7.4-3.5.7l-1 .4v.8l1.1.5 3 1.6c.3-.1-.8.8.8 1.7l1.3.2c.4-.1 3.7-.3 3.7-.3l1.3-1.2.7-1.3s.2-1.6.2-1.8c.8-3.7 4.8-5.6 8.6-8.6.1-1.7 2.6-2.9 5.2-2.5l.5.3c4-.9 13.2-3.5 12.1-11-.6-1.2 1-1.9-.2-4.4-.2-1.1-.4-1.8-.7-4.2 1-8.4 8.3-18 16.3-22.3 1-.2 1.4-1.1 3.9-.6.5.2.8.3.8.3.4.4 5-2.3 6.3-.6l.8.4.6.1.2-1.6c-.2-.4-.4-2-1.9-2.6z"/></g><path class="st8" d="M112.5 252.4c-1-.5-.9-.4-2.1-1-1.2-.6-1.5-.8-1.7-.9-.3-.1-.3-.4-.8-.5-.5-.2-1.1-.5-1.1-.5s.1-.1-.9-.3c-1-.2-.2-.5-1.6-.5-1.5 0-1.2-.5-1.9 0l-.7.5H100s-1.3-.2-1.6-.2c-.3 0-.4-.5-.3 0 .1.5-.2.4.5.6.7.3 1.8.6 2 .8.2.3.3.6.3.6s1.2 0 .1.6l-1.1.6s.3.8.4 1.1c.1.3.4.1.4.9s.5 1.6 0 1.6c-.5.1-.9.3-.9.3s-.9.9-1.3.2-.7-1.3-.7-1.3l-1.3-1.4-2.2-2.9-4.2-1.2s-.4-.1-1.1-.1h-1.9c-.3 0-1.8-.5-1.8-.5s-.5-.5-.5-1c-.1-.5-.3-.5-.6-.9s-.7-.3-1.2-.4c-.5-.1-.5-.1-1.3-.1-.7 0-.8-.2-.8-.2l.1-.5s-.1-.4-.5-.8c-.4-.5-1.4-.3-1.4-.3H79c-.3.3-.6.5-.6.5s-.2 1.1.2 1.8c.3.7.4 2.8.4 2.8l-.4 1.1s0 1-.2 1.6l-.4 1.2c-.1.3-.3 1.1-.7 1.7-.3.6-1 .5-2.1.9s-2.2 1.5-2.2 2-1.5.8-2 .9c-.6.2-1.3.1-2.2.7-.9.6-1.5 1.3-1.9 1.8-.4.5-.2.9-.4 1.8-.1.4-.2.6-.3.8.3 0 .6.1.8.1.4 0 2-.3 2-.3s1.5.4 2 .4 0 .4 0 .4l.6 1.9s.4 2 .5 2.4c.1.4-.3.9-.3.9l-.3 1.2s-.2.7-.8 1.6c-.6.9-.9 2.3-.9 2.3s.1 1.2.3 2c.2.8.3.7.5 1.3.3.6.9 1.4.9 1.4l.9.3.3.5c.3.5.1.8.1 1.5s.2.4.7.9c.3.3 2.3 1 4.1 1.5l.3-1.5 1.5-.6.3-.8-.4-1.2 1.1-4.3c.7-1.5 6.8-4.1 9.8-5 2.4-.1 5.8-1.4 9.3-.4.5.6.9.7 2.7.7l1.2-.6c.7.4.1.3 2 1.5.2.5.3 1.3.4 2.6-.1.1 1.4 1.3 1.6 2.2.2.4 2.4.6.3 1.5-.5.6-.3.2.4 2.2 0 .3-.2.2-.2 1.3 0 0-.2.3-.3.6-.3 1 1.6 1.2 3.6.6l.5-.6c0-.1-.4-.1-1.3-1.9 0 0-.3-1 .1-1.2.4.1.2-.9 2.7-1.3.6-.3.7.2 1-1.3 0 .2-.2-1.4 1.4-2l-.8-.9c-.1-.2-.5.4-2.9-.4.3 0-.8-.3-.6-1.3l.3-.3c-1.3.4-.1-2.1-1.8-2.9.5-.4.4-1.7.2-3.3-1.5-.3-1.8-3.3 1.6-1.9l.2-1.2.3-1.1-1.7-.9c.1.2-.1-.5.1-.9l1-.1c.4.1 1.1.1 1.1.1v-.9l.1-1.3c.2-.1-.1-.2 1.8-1.6l.9-.1 1.7-.9c-1.1-.8-2.3-1.7-2.8-2.1-.7 0-.8-.2-1.8-.7zm-1.6-46.7c0 .1.1.2.1.2s0-.1-.1-.2l-.8-.3-.4.5s-.4.5-.7.7c-.3.2-1.6-.4-2.3-.9-.7-.5-.7 0-2 .5-1.3.4-4 .4-5.8.4-1.8 0-2.2-1.5-2.8-1.9-.5-.4-1.3-1.5-2.5-2.2-1.3-.6-1.9.5-3.1.5-1.2 0-2.2-.5-3.1-.5-.8.1-1 0-2.1-.3s-.7-.3-1.8-.7c-1.1-.4-.9-.5-1.9-1-1-.4-1-.2-2.6 0s-1.5 1.2-1.5 1.2l-.7 2s-1.6 2.8-1.9 3.1c-.3.3 0 .6.1 1.9.1 1.3-.4.5-1.2.7-.8.2-.3.7-.5 1.6-.2.9-.5.1-1.4 0-.9-.1-.6.3-1.4.9-.8.6-.4.5-1.3.1-.8-.4-.5.7-.8 1.7-.3 1-1.3.6-2.7.6s-2.4 1.1-3 1.2c-.5.1-.7.7-1.1 1.4-.4.7-.8.9-2 1.5s-.9 0-1.8-.1-1.4.5-1.4.5-.5 1.2-1.2 1.9c-.4.4-1.1.7-1.6.9l.4.4c.7.7.1 1 .1 1.4 0 .3.3 1.5.5 3.1 0 .5.1.9.1 1.1.1 0 .3 0 .4.1.3.2.7.5 1.6.5h1.5s.6.3.6.7c0 .4.2.8.3 1 .2.2.7.6 1.1.8.4.1 1.1.1 1.1.1s1.2-.2 1.5.2c.4.4.3.4.7.6.4.2.5.6 1 .6s.7 0 1-.1c.3-.2.3-.4.8-.3.5.1.4.1.9 0 .2 0 .5-.1.8-.2l-.2-.8.4-.5s.6-.6 1-.6.9-.2 1.2-.2 1.1-.2 1.1-.2l.7-.6s.9-.2 1.6.4c.6.5.4 1.5 1.5 1.4 1.1-.1.8-.6 1.6-.2.8.5.5.6 1.4.7.9.1 1.7.1 1.7.1s1 .7 1.9 1.2c.9.5 1.4-.1 2 .2.6.3.9.5 1.6.5h1.9c.5 0 1.1.1 1.1.1s.9.3 1.2.7c.3.5.3.5.5 1.1.3.6-.3.4.3.6.5.3 1.1.4 1.4.4.3 0 1 .3 1.3.5.3.2.6.3.9.8.3.5-1.6.3.3.5 1.9.3 2.5.3 2.5.3h.6c.5 0 1.2.1 1.5-.1.3-.2.4-.6.9-.7l.5-.1 1.3-.2s.5-.2.9-.5c.5-.3-.1-.1.5-.3.5-.2.2-1.2.5-.2.4 1 .7.1.4 1l-.4.9.7.2s.2.6.6.3l.5-.4s.9-.7 1.3-.6c.4.1.2.2.8.2.6 0 .6-.5 1.3-.9.6-.4 1.4-.5 1.4-.5l1.6-.8s.4-.3 1.4.3c1 .5 1 .5 1.5.7.5.3.8 1 1.3.4s.5-.7.5-1.4c0-.6 0-.9.5-.9s.6-.2 1 .1c.4.3 0 .3.7.5s1.2.1 1.6.1c.5 0 .5-.6.8 0 .3.6-.1.7.6.8.7.1.8 0 1.4.2l.5.2s0 .3.3 1.3c.1.2.1.3.1.4.3-.3.7-.7.7-1.5 0-1.6-.1-2.3-.1-2.8 0-.6-.2-.6.1-1.8.3-1.3.8-1.7.5-2.3-.3-.6-1-1.5-1.3-1.9-.2-.5-.2-.9-.8-1.4-.6-.5-.9-.6-1.3-1.1-.3-.6-.2-1.1-.6-1.7-.3-.6-.7-.9-.8-1.2-.1-.3-.1-1.8-.1-1.8l-.2-1.5-.8-1.6-1-1.9-.1-.2-2.2-.4-1.3-.6s0-.8-.3-1.2c-.3-.4-.3-1.3-.3-1.3l-1.2-1.7s-.1-.3-.3-1c-.1-.8-.1-1.3-.4-1.7-.1-.2-.4-.6-.6-.9l-.5.1.5-.1c-.2-.2-.3-.4-.3-.4l-.4-.4z"/><path class="st8" d="M84.5 149.9c-.8-.3-.8-.2-1.6-.5-.8-.2-.5-.2-.8-.6-.3-.3-.2-.7-.2-1.2 0-.6-.6-.7-.9-1.3-.3-.6-1.3-1-1.9-1.6-.7-.6-.3-.7-.3-.7s-.1-.8-.9-1.7c-.8-.9-1.1 1-1.1 1l-.2 2.2s-.7.5-1.5 1.2c-.8.8-1.5.8-2.3 1-.8.2-1.1.1-2.6.2s-.8 1.1-.8 1.1v3.2c0 1.3-.3 1.7-1.3 1.9-.9.2-1.5 1.1-1.5 1.1s.1 1.8.2 3c.1 1.1-1.3.8-1.3.8s-.9.2-1.6.6c-.7.3-.7.7-1.8.6-1.1-.1-1.4.9-1.4.9s.2 1.4.2 1.9c0 .6-.5 1.3-1.5 1.3s-.6.9-1.6 1.3c-1 .3-1.3-.7-2.5-1-1.3-.3-.8.6-1.3 1.4-.3.4-.7.5-1.2.5-.3 0-.7-.1-.9-.1-.5 0-1.1.3-1.7.5-.6.1-1.3.3-1.8.8-.6.5-1.4.7-2 .8-.7.1-1.8.1-2.4.3-.6.2-.3.9-.5 2-.1 1.1-.9 1.3-1.7 1.7-.8.5-2.7.9-3.3 1.3-.6.3 0 1-.2 1.7s-.9 1.1-1.5 1.9c-.6.8.2 1.1.1 2.3-.1 1.1-.7 1.4-1 1.7-.3.3-.2.9-.6 2.3-.3 1.4-.1 1.7-.1 2 0 .3 0 .7.1 2.2.1 1.5.9.8.9.8s.9.7 1.3.9c.3.2 1.3 0 1.7.1.5.1.1.9.8 1.3.7.3.9-.3 1.2-.8.3-.5.6 0 .6 0s.6.3 1.3.6c.7.2 1.1-.2 1.6-1s.8-.3 1.9-.3c1.1 0 .9.1 2.4.5 1.5.3 1 1 1.4 1.8.3.8-.3 2.6-.3 2.6l.2 1.9s0 .9-.5 1.9c-.5 1-.6.9-1.3 1.4-.7.5-.9.9-1.4 1.6-.5.7.7 1.7.7 1.7s.7 1.2 1.2 1.9c.6.7.5.1.2.9-.2.8-.3.8-.3 1.6s0 0-.3.8-1.3.5-1.9.2c-.7-.2-.3.5-.3.5s.6.5.8 1.5c.2 1 .6.5 1.1.7.6.2.8.3 1.1.7.3.3.1.6.2 1 .1.5.2.8-.1 1.3-.3.5-.2 1-.2 1s.2.5.5 1.8c.2 1.4-.6 1.3-.3 2 .2.8.9.6 1.5.7.6.1.8.6 1.4 1 .5.4.8.7 1.2 1.1.5-.1 1.2-.4 1.6-.9.6-.7 1.2-1.9 1.2-1.9s.5-.6 1.4-.5c.9.1.6.7 1.8.1 1.2-.6 1.6-.8 2-1.5.4-.7.5-1.3 1.1-1.4.5-.1 1.5-1.2 3-1.2s2.4.4 2.7-.6c.3-1 0-2.2.8-1.7.8.5.4.5 1.3-.1.8-.6.5-1 1.4-.9.9.1 1.3.9 1.4 0 .2-.9-.4-1.4.5-1.6.8-.2 1.3.5 1.2-.7-.1-1.3-.4-1.6-.1-1.9.3-.3 1.9-3.1 1.9-3.1l.7-2s-.1-1 1.5-1.2c1.6-.2 1.6-.4 2.6 0s.8.5 1.9 1c1.1.5.7.5 1.8.7 1.1.3 1.3.4 2.1.3.8-.1 1.9.5 3.1.5 1.2 0 1.8-1.2 3.1-.5 1.3.6 2 1.8 2.5 2.2.5.4 1 1.9 2.8 1.9 1.8 0 4.6 0 5.8-.4 1.3-.5 1.3-1 2-.5s2.1 1.1 2.3.9c.3-.2.7-.7.7-.7l.4-.5.8.3c-.2-.5-.7-2-1-2.4-.4-.5-.8-.7-.7-1.1.1-.4.6-.6.1-1s-1.4-.2-1.4-.2-.5.2-1.3.2h-2.4s.6-.5-.2-.7c-.8-.2-2.2-.4-2.2-.4s.1.4-1.1.4c-1.2 0-2.2-.2-2.2-.2l-.4-.7s-.1.2-.8-.4c-.7-.6-1.1-1.4-1.2-1.8-.1-.4-.1-.4-.1-1s-.6-1.2-.6-1.2-.6 0-1.1-.8c-.5-.8-1.1-1-1.1-2 0-1.1.8-2.3.8-2.3s1.2-1 1.3-1.7c.1-.7.5-1.6 1-1.6s.7.5.6-.5c-.1-1-.7-1.2-.4-2.2.4-1 .6-1.7.6-1.7s-.8-1.1.1-1.7c1-.6 1.1-.6 1.6-1.3.5-.7.8-1.3.7-2-.1-.7-.8-1.1-.8-1.1h-2l-.7-.2-.9.3H95h.1c.1-.1.2-.2-.7-.6-1.2-.5-1.8-.8-1.8-.8l-.6-.6s-1-.1-1-.7-.1-2.9 0-3.2c.1-.4.5-1.4.5-1.4s1.3.1 1.3-1.6c0-1.7-.4-2.6-.4-3v-1.7s.6-.5 1.4-1.4c.8-1 1.6-1.3 1.1-1.8s-.7-.5-1.1-.8c-.4-.4-1.2-.8-1.2-.8l-.2-.5.5-1.9.7-1 .8-.5s0-.3.1-.6l-1.2-.3-.6-.2c-.6-.2-.8 0-1.6-.7s0 0-.8 0-2.2-.5-2.2-.5-.5-.3-.8-.5c-.3-.1-1 0-2-.1-.5-.1-.6-.3-.6-.5-.3 0-.6-.4-.6-.4s.2.3.6.4c.2-.3.2-.6-.2-.8z"/><path class="st8" d="M93.7 154.5l-.7 1-.5 1.9.2.5s.8.5 1.2.8c.4.4.6.4 1.1.8.5.5-.2.8-1.1 1.8-.8 1-1.4 1.4-1.4 1.4v1.7c0 .4.4 1.3.4 3s-1.3 1.6-1.3 1.6-.4 1.1-.5 1.4c-.1.4 0 2.6 0 3.2 0 .6 1 .7 1 .7l.6.6s.6.4 1.8.8c.9.4.8.5.7.6l.9-.3.7.2h2s.7.4.8 1.1c.1.7-.2 1.3-.7 2-.5.7-.6.7-1.6 1.3-1 .6-.1 1.7-.1 1.7s-.2.7-.6 1.7c-.4 1 .2 1.2.4 2.2.1 1-.1.5-.6.5s-.8.8-1 1.6c-.1.7-1.3 1.7-1.3 1.7s-.8 1.2-.8 2.3c0 1.1.6 1.2 1.1 2 .5.8 1.1.8 1.1.8s.6.6.6 1.2 0 .6.1 1 .5 1.2 1.2 1.8c.7.6.8.4.8.4l.4.7s1 .2 2.2.2c1.2 0 1.1-.4 1.1-.4s1.3.1 2.2.4c.8.2.2.7.2.7h2.4c.8 0 1.3-.2 1.3-.2s1-.1 1.4.2c.5.4 0 .6-.1 1s.4.6.7 1.1c.3.4.9 1.9 1 2.4l.3.1s.1.2.3.4l1.2-.3 1.7.1 1.1-.6 1.9-1s1.8-.7 2.4-1.2c.6-.5 1-1.9 1-1.9s.6-2 .7-2.5c.1-.5.7-.8 1.2-1.1.5-.2 1.2 0 1.2 0s1.2.7 1.8.1c.6-.6.5-2.2.5-2.2s1.4-.6 1.9-.6.4-.8.4-1.2c0-.4.6-.5 1.4 0 .8.5 1-.2 1-.2s1.7-.1 2.4-.4c.7-.2 1.8-1.4 1.9-2 .1-.6.7 0 .7 0s1.6.5 1.8 0c.2-.5 1.1-.7 1.7-.7.6 0 1.4 1 2 1 .6 0 .8-.5 1.3-1.2s.2-2.8.8-4c.6-1.2 1.1-1.8 1.2-2.3.1-.5.5-.6 1-.6s0-1 0-1-.1-1.1-.1-1.6 0-.8.1-1.2c.1-.4-.1-2.3-.1-3 0-.7 0-1.3-.5-1.6-.5-.2.1-1.1.1-1.1v-1.6c0-.6-.8-2.2-.7-2.9.1-.7 1.7-.7 2-.8.4-.1 1-.5 1.3-1.5.4-1-1.1-1.2-1.5-2-.4-.8-.2-2.5 0-3s.2-1.9.2-2.5c0-.6-.4-1.4-.7-2.4-.4-1 0-1.1.1-1.7.1-.6 0-.5-.2-1.6s.2-1.7.2-1.7v-1c-.4.1-.7.2-.7.2s.3-.1.7-.2v-.8l-.4-1.1s0-.7-.2-1.6c-.2-.8.1-2 .1-2v-1.2s-1 .1-1.8.1-.7-.8-.7-.8l-.6-1.3s-.1-.7-.5-1.1c-.4-.4-1-.6-1.8-1.2s-.8-1.7-.8-1.7l-1.1-.4s-.5-.6-1.2-.8c-.7-.2-1.7-.2-1.7-.2s-.5-.4-1.8-.6c-1.3-.2-2.6-.5-2.6-.5l-1.7-.8s-.6-.1-2-.1-1.2.2-1.2.2h-1s-1.2 0-2.4.5-2.5 1.9-2.5 1.9v1.3c0 .6-.1.8-.1.8s-.7 0-1.6-.1c-.8-.1-.8 0-1.4.7-.6.7-.7.4-1.9.4s-.7.4-1.6.6c-.8.2-1.6.5-2.5 1.2-1 .7-.7 1-1.6 1.1-.8.1-.6.6-1.2 1.4-.6.8-1.2.1-2.3.5-1.1.4-1.6 1.1-2.6 1.7-1.1.6-1.8 1.4-1.8 1.4s-1-.2-1.6-.1c-.6.1-1.1.1-1.1.1L98 150s-.8.8-1.1 1.2c-.2.4-.7.5-.7.5l-.8.5c-.4.2-.6.5-.7.8l.3.1-.3-.1c-.1.3-.1.6-.1.6l-.9.9z"/></g><path class="st8" d="M66.2 231.8c-.5-.1-.5.1-.8.3-.3.2-.6.2-1 .1-.5 0-.6-.4-1-.6-.4-.2-.3-.2-.7-.6-.4-.4-1.5-.2-1.5-.2s-.7 0-1.1-.1c-.4-.1-.9-.6-1.1-.8-.2-.2-.3-.6-.3-1s-.6-.7-.6-.7h-1.5c-.9 0-1.2-.3-1.6-.5-.1-.1-.2-.1-.4-.1h-.9c-.3 0-.5.7-.8.8-.3.1-.5.3-.6.4-.1.1-.2.5-.5 1s-1 .3-1 .3H49c-1.2 0-1.2-.5-1.5-.7-.2-.3.1-1.1.1-1.5 0-.4-.3-.8-.6-1-.3-.2-1.3-.1-1.3-.1s-1.2 0-1.5.1c-.4 0-1.4 0-2.1-.2-.7-.2-.6 0-.6 0s-.6 1-.8 1.4c-.3.4-.5.3-1.4.1-.9-.2-1.2-.7-1.3-1.2-.1-.4 0-1.2.1-1.3 0-.1.2-.6 0-1-.3-.4-.8-.6-1.4-.9-.6-.3-.9-.2-1.3-.2s-.6-.4-1.2-.6c-.5-.3-.9.4-.9.4s-.9 1.7-1.2 2.2c-.3.6-2.1 3.3-2.1 3.3l-.8 1s-.4.7-1.1.9c-.6.2-.7-.3-1-.5-.3-.3-.6-.8-1-.9-.5-.1-.8.5-.9 1.2-.1.7-.5 1-.8 1.6-.4.6-.8 1.2-.8 1.5 0 .3-.1.7-.3 1.2-.2.5-.6.7-.6 1.3 0 .6.8 1 1 1.1.2.1.8.5 1.3.9.5.3-.2.8-.5 1-.3.2-.9 1.5-1.6 1.8-.6.3-.8.7-.8.9 0 .2.5 1.1.5 1.2s.2.9.5 1.8c.4.9.6.9 1 1.9.1.3.1.5.1.6l.5.5.3 1.1.3.9s.1.9.1 1.2c0 .3.3.9.3 1.1.1.3.7 1 .8 1.3.1.3.1.5.1.9 0 .3.1.8.1 1 0 .3.4.8.3 1.4-.1.6-.3 1.1-.3 1.1s0 1.4-.6 2.3c-.6.9.3 1.5.3 1.5s.3.9.2 1.8c-.1.9-.7 1.5-1.2 2.4-.5.9.3 1.3.3 1.3s.6.8.7 1.1c.1.3 0 .7-.2 1.5s.2.6.7 1c.5.4 0 0 .3.4s.9.3.9.3l.8-.8s1.5-.4 2-.6c.6-.2 1 .9 1 .9s.8.1 1 .4c.3.3 0 1.5.1 2.4.1.9.4 1.2.4 1.2l.7 1.9s.5 1.5.5 1.8c0 .3.8.7 1.3.9.5.2.5.5.7.8.2.3.4.6.9.8.4.2 2.2.3 2.2.3l.3.3c.3.3 1-.5 1-.5s.4-.6.8-1c.3-.4.1-.5.7-.6.6-.1.2-.4.2-1s.2-1 .2-1l-.5-1s-.1-1.3-.1-1.6c0-.3-.3-1.8-.4-2.2-.1-.4 0-.9.1-1.8s.6-.8.6-.8.3-.4.4-.9c.1-.4-.4-1.2-.4-1.7s.3-1.3.3-1.3.2-1 .2-1.9c0-.9.6-.6.6-.6l.8-.9s.9-1 1.6-1c.7 0 1 1.2 1 1.2l.6 1.5c.2.4.6.7.6.7l2 .5 1.4.5v1.4l.7.2 1.8-.4 1.7-.3 2-.2 2.4-.1s1.2-.7 2-1c.9-.3.5 0 1.5.3.9.3.9-.4 1.6-1 .2-.2.4-.3.6-.3.1-.2.2-.4.3-.8.3-.9 0-1.3.4-1.8s.9-1.2 1.9-1.8c.9-.6 1.6-.5 2.2-.7.6-.2 2-.4 2-.9s1.1-1.5 2.2-2c1.1-.4 1.8-.3 2.1-.9.3-.6.6-1.4.7-1.7.1-.3.3-.6.4-1.2.2-.6.2-1.6.2-1.6l.4-1.1s-.1-2.1-.4-2.8c-.3-.7-.2-1.8-.2-1.8s.3-.3.6-.5c-.2-.1-.9-.5-1.1-.6-.3-.1-1.1-.5-1.1-.5s-.7-.4-1.4-.6c-.6-.3-1.8-1.2-1.8-1.2s-1.7-1.8-2.2-2.5c-.5-.7-.9-.8-.9-.8l-.2-.7c-.2-.7-.1-.6-.5-.9-.4-.4-.5-.4-.8-1.1-.4-.7.2-2.5.2-2.7 0-.3-.7-.5-.7-.5l-.6-.5-.2-.8c-.3.1-.6.2-.8.2-.1-.3 0-.3-.5-.4z"/></g></g><g><path class="st9" d="M95.1 176.5c-.1 0-.1 0 0 0z"/><g><g><path class="st9" d="M94.9 309.8s-1.4-1.5-2-.8c-.3.2-1.3 2.9-.8 4.7-.7 2 2.9 2.5 4.9 3.5 1.8-1 1.4-6.6-2.1-7.4zm-7.3 19.6c.9-.3 1.2-1.8 1.2-1.8s-1.4.6-2 1.1c0-.1-.1 1 .8.7zm.4 6.8l-1.1 1.7-.5.6c.4-.2-2 1.9-1.2 3 0-.2.6 1.2 2.1.8.1-.3.8-2 .8-3.5-.1-.9 1-4.2-.1-2.6zm-4.4 6.7l-.6.6c-.4.5.9 1.2 1.9-.6 0 0-.9-.7-1.3 0zm90.7-186.2c-1 0-1.2 0-1.4-1-.2-1-.9-.5-1.4-.9-.5-.3-1.4-.5-2-.5-.7 0-1.4-.7-1.4-.7s-1-.7-1-1.5c0-.9-1-.9-1.7-.9s-.3 1.7-.3 1.7l.9 1.5s0 1-.7 1.9c-.7.9-.7.3-2.2 1-1.5.7-1 1.7-1 1.7s-.7.7-1.4.9c-.7.2-.3.9-1 1.5-.7.7-1 .3-1 .3s-.7-.9-1.2-1.5c-.5-.7-1-.7-1-.7s-1.2-.2-2-.9c-.9-.7-1-1-1-1l-.3-1.7-1.5-.5s-.9-.7-1.2-1.5c-.3-.9-1.5-1.5-2.4-2.2-.5-.4-1.2-.3-1.7-.2v1s-.5.6-.2 1.7c.2 1.1.4 1 .2 1.6-.1.6-.5.7-.1 1.7s.7 1.8.7 2.4c0 .6 0 2-.2 2.5s-.4 2.2 0 3c.4.8 1.8 1 1.5 2-.4 1-1 1.3-1.3 1.5-.4.1-1.9.1-2 .8-.1.7.7 2.3.7 2.9v1.6s-.6.8-.1 1.1c.5.2.5.8.5 1.6 0 .7.2 2.6.1 3-.1.4-.1.7-.1 1.2s.1 1.6.1 1.6.5 1 0 1-.8.1-1 .6c-.1.5-.6 1.1-1.2 2.3-.6 1.2-.4 3.2-.8 4-.5.7-.7 1.2-1.3 1.2-.6 0-1.4-1-2-1-.6 0-1.4.2-1.7.7-.2.5-1.8 0-1.8 0s-.6-.6-.7 0c-.1.6-1.2 1.8-1.9 2-.7.2-2.4.4-2.4.4s-.1.7-1 .2c-.8-.5-1.4-.4-1.4 0s.1 1.2-.4 1.2-1.9.6-1.9.6.1 1.6-.5 2.2c-.6.6-1.8-.1-1.8-.1s-.7-.2-1.2 0-1.1.6-1.2 1.1c-.1.5-.7 2.5-.7 2.5s-.4 1.4-1 1.9-2.4 1.2-2.4 1.2l-1.9 1-1.1.6-1.7-.1-1.2.3c.2.3.5.7.6.9.3.4.3.9.4 1.7.1.8.3 1 .3 1l1.2 1.7s0 .9.3 1.3.3 1.2.3 1.2l1.3.6 2.2.4-.4-1s-.7-1.4.3-.8c1 .6 1.4 1.3 1.5 1.6.1.3.2 1 .9 1.7s1.4 1.9 2.6 2.8c1.3.9 1.1 2.2 1.1 2.2s.5.8 1.1 1.2c.7.5 1.7.7 1.7 1.1 0 .5.6 1.3 1.3 1.8.7.6 1.4 1 2 1.5.7.5 1.8.5 2.4.8.6.3 1 .9 1.4 1.1.3.2 1.9.2 2.6.6.7.3 1.8.9 1.8.9s.6 1.7 1.6 1.6c1-.1 1.6-.7 2-.8.5-.1.5-.3 1.5-.2 1 .1 1.4.3 2.3-.1.9-.5 1.3-.8 2.4-.7 1.1.1 2 0 3-.5.9-.5 1.8-2.2 3-2.3 1.1-.1 2.8-.2 3.3-.5.5-.2.8-.8 1.7-.2.9.6 1.5 1 1.5.5 0-.6-.2-.8 0-1.4.2-.6.6-1.5.6-1.5s0-.8.8 0 1.1.9 2.2 1.5c1 .6 1.9.7 2.2 1.3.2.6 1.2 1.5 1.4 1.8.1.3.7 1.1.8 1.6.1.5.9.7 1.8.9.9.2 2 .3 2.5 1.3.5.9 1.5 2.5 1.5 2.5l1.9 2 3.7.8c-2.1-2.4-4.7-7.7-5.8-10.4l-1.8-2.9-2.2-3.2c-1-1.9-3.9-9.3-4.7-12.4-.5-3.4-2.4-11.2 2.2-15.1l.1-.9-.4-1c.1.1-.2-1.4.3-3 0 0 .4-.5.2-.7-.5-.6-.4-.2-.5-1.9-.1-.4 1.1-2.6 1.4-4.7l.7-1.5c.3-.8 1.5-4.1 2.3-6.3.2-.1.7-1 1.7-1.9-.2-.8.4-5.6 1.5-7.5l.1-1.4c-.1 0 1.8-3 2.7-4.2.4-.7.4-1.8.6-2.9-2-.3-3.9.2-4.7.2z"/><g><path class="st9" d="M125.3 244.2l.5-.7s.3-.5.2-.9c-.1-.5 0 0-.5-.6s-.5-1.1-.5-1.1l-.9-1.8c-.7-1.5-.4-1-.4-1.2-.3.3-.7.3-.7.3s.3-.1.7-.3c0-.1 0-.2-.1-.4-.3-1-.3-1.3-.3-1.3l-.5-.2c-.5-.2-.6-.1-1.4-.2-.7-.1-.4-.2-.6-.8-.3-.6-.4 0-.8 0-.5 0-.9.1-1.6-.1-.7-.2-.4-.2-.7-.5-.4-.3-.5-.1-1-.1s-.5.3-.5.9c0 .6 0 .7-.5 1.4-.5.6-.8-.1-1.3-.4-.5-.3-.5-.2-1.5-.7-1-.5-1.4-.3-1.4-.3l-1.6.8s-.7.1-1.4.5c-.6.4-.6.9-1.3.9-.6 0-.5-.1-.8-.2-.4-.1-1.3.6-1.3.6l-.5.4c-.5.4-.6-.3-.6-.3l-.7-.2.4-.9c.4-.9 0 0-.4-1s0 0-.5.2c-.6.2 0 0-.5.3s-.9.5-.9.5l-1.3.2-.5.1c-.5.1-.6.5-.9.7-.3.2-.9.1-1.5.1h-.6s-.6 0-2.5-.3 0 0-.3-.5-.6-.6-.9-.8c-.3-.2-1-.5-1.3-.5-.3 0-.8-.1-1.4-.4-.5-.3 0 0-.3-.6s-.3-.6-.5-1.1c-.3-.5-1.2-.7-1.2-.7s-.6-.1-1.1-.1h-1.9c-.7 0-1-.2-1.6-.5-.6-.3-1.1.3-2-.2-.9-.5-1.9-1.2-1.9-1.2s-.8 0-1.7-.1c-.9-.1-.5-.3-1.4-.7-.8-.5-.5.1-1.6.2s-.8-.8-1.5-1.4c-.6-.5-1.6-.4-1.6-.4l-.7.6s-.8.2-1.1.2-.8.2-1.2.2c-.4 0-1 .6-1 .6l-.4.5.2.8.8-.2-.8.2.2.8.6.5s.7.3.7.5c0 .3-.5 2-.2 2.7.4.7.5.7.8 1.1.4.4.3.2.5.9l.2.7s.5.1.9.8c.5.7 2.2 2.5 2.2 2.5s1.2.9 1.8 1.2c.6.3 1.4.6 1.4.6s.8.4 1.1.5c.2.1.9.5 1.1.6.3-.3.7-.5.8-.6-.2 0-.5.3-.8.6h.1s1-.2 1.4.3c.4.5.5.8.5.8l-.1.5s.1.2.8.2c.7 0 .8 0 1.3.1s.9 0 1.2.4c.3.4.5.4.6.9.1.5.5 1 .5 1s1.6.5 1.8.5H89c.7 0 1.1.1 1.1.1l4.2 1.2 2.2 2.9 1.3 1.4s.4.5.7 1.3c.4.7 1.3-.2 1.3-.2s.5-.2.9-.3c.5-.1 0-.8 0-1.6s-.3-.6-.4-.9c-.1-.3-.4-1.1-.4-1.1l1.1-.6c1.1-.6-.1-.6-.1-.6s-.1-.4-.3-.6c-.2-.3-1.3-.5-2-.8-.7-.3-.5-.1-.5-.6-.1-.5 0 0 .3 0s1.6.2 1.6.2h1.5l.7-.5c.7-.5.5 0 1.9 0 1.5 0 .6.3 1.6.5s.9.3.9.3.5.3 1.1.5c.5.2.5.5.8.5.3.1.5.3 1.7.9 1.2.6 1.1.5 2.1 1s1.1.7 2 1.5c.5.4 1.7 1.3 2.8 2.1l.3-.2c0-.1.4-.4-.1-.5l.3-1.2c.2-.6.3-.5 0-1.5-.1-.1-.1-.1-.1-.2l4.9-5.3 1 .2.6.1.1.6.8.3c0-.1.1 0 .4-.1-.1-.6-.4-1.7-.9-3.7 0-.6.9-.5.9-.5z"/><path class="st9" d="M181.2 239.4c-.4-.2-.8-.6-1.3-1.1l-3.7-.8-1.9-2s-1-1.6-1.5-2.5c-.5-.9-1.6-1-2.5-1.3-.9-.2-1.7-.5-1.8-.9-.1-.5-.7-1.3-.8-1.6-.1-.3-1.1-1.3-1.4-1.8-.2-.6-1.1-.7-2.2-1.3-1-.6-1.4-.7-2.2-1.5-.8-.8-.8 0-.8 0s-.3.9-.6 1.5c-.2.6 0 .8 0 1.4 0 .6-.6.1-1.5-.5s-1.3 0-1.7.2c-.5.2-2.2.3-3.3.5-1.1.1-2 1.8-3 2.3-.9.5-1.8.6-3 .5-1.1-.1-1.5.2-2.4.7-.9.5-1.3.2-2.3.1-1-.1-1 .1-1.5.2s-1 .7-2 .8c-1 .1-1.6-1.6-1.6-1.6s-1.1-.6-1.8-.9c-.7-.3-2.3-.3-2.6-.6-.3-.2-.8-.8-1.4-1.1-.6-.3-1.7-.3-2.4-.8s-1.4-.9-2-1.5c-.7-.6-1.3-1.4-1.3-1.8 0-.5-1-.7-1.7-1.1-.7-.5-1.1-1.2-1.1-1.2s.1-1.3-1.1-2.2c-1.3-.9-1.9-2.2-2.6-2.8-.7-.7-.8-1.4-.9-1.7-.1-.3-.5-1-1.5-1.6-1-.6-.3.8-.3.8l.4 1h.2-.2l.1.2 1 1.9.8 1.6.2 1.5s0 1.5.1 1.8c.1.3.5.7.8 1.2.3.6.2 1.1.6 1.7.3.6.7.7 1.3 1.1.6.5.6.9.8 1.4.2.5.9 1.4 1.3 1.9.3.6-.1 1-.5 2.3-.3 1.3-.1 1.3-.1 1.8 0 .6.1 1.3.1 2.8 0 .8-.3 1.2-.7 1.5 0 .2-.3-.3.4 1.2l.9 1.8s0 .5.5 1.1c.5.6.4.2.5.6.1.5-.2.9-.2.9l-.5.7s-.9-.1-.7.4c.5 2 .8 3.1.9 3.7.3 0 .8-.2 1.5-1.3 0 0-.4-.8-.3-.9 1-.3-.2-2.2 2.8-1.9l1.5 1.5c.8.3 3 2.5 4.3 3.7l1.5.3.3 1.1-.6.6s0 .7.1 1c.2.7 1.2.3.2 1.9-.1.2-.6-.1-.7.2-.2.4 0 .7-1 .6-.4 1.3-2.2 2.5-3.5 4.5-.4.3-.6.9-1.9.3l-.6.7-.1.6-.5.3-.1-.4c-.8.4-.1 1.3-2.6 1.7-.3.2-.5.1-.5.4 0 .6-.2.7.3 2.4.4.5 1.1.3-.1 1.5 0 0-.3.4-.6.4-1 0-1 .2-2.8-.3l-.1.4 1 .8c.2 0-1.1 1-2.3.3l.3 1c.4.6-.9 1.1-1.3 2.4l.9.3 1.1.8 1.3 1.9c0 .4.6 1.2.5 3-.5 1.2-1.1-.3-2.7 2.6-.4 1.1-.4 2 .4 4.2.1.4.2.4 0 1.8.3.3 1.1 2.3.3 3.6-3.2 3.4 2.1.2 1.1 4.7.2.1-.9-.3-1.5.4-.4.9-1.7.4-3.5.7l-1 .4v.8l1.1.5 3 1.6c.3-.1-.8.8.8 1.7l1.3.2c.4-.1 3.7-.3 3.7-.3l1.3-1.2.7-1.3s.2-1.6.2-1.8c.8-3.7 4.8-5.6 8.6-8.6.1-1.7 2.6-2.9 5.2-2.5l.5.3c4-.9 13.2-3.5 12.1-11-.6-1.2 1-1.9-.2-4.4-.2-1.1-.4-1.8-.7-4.2 1-8.4 8.3-18 16.3-22.3 1-.2 1.4-1.1 3.9-.6.5.2.8.3.8.3.4.4 5-2.3 6.3-.6l.8.4.6.1.2-1.6c-.2-.4-.4-2-1.9-2.6z"/></g><path class="st9" d="M112.5 252.4c-1-.5-.9-.4-2.1-1-1.2-.6-1.5-.8-1.7-.9-.3-.1-.3-.4-.8-.5-.5-.2-1.1-.5-1.1-.5s.1-.1-.9-.3c-1-.2-.2-.5-1.6-.5-1.5 0-1.2-.5-1.9 0l-.7.5H100s-1.3-.2-1.6-.2c-.3 0-.4-.5-.3 0 .1.5-.2.4.5.6.7.3 1.8.6 2 .8.2.3.3.6.3.6s1.2 0 .1.6l-1.1.6s.3.8.4 1.1c.1.3.4.1.4.9s.5 1.6 0 1.6c-.5.1-.9.3-.9.3s-.9.9-1.3.2-.7-1.3-.7-1.3l-1.3-1.4-2.2-2.9-4.2-1.2s-.4-.1-1.1-.1h-1.9c-.3 0-1.8-.5-1.8-.5s-.5-.5-.5-1c-.1-.5-.3-.5-.6-.9s-.7-.3-1.2-.4c-.5-.1-.5-.1-1.3-.1-.7 0-.8-.2-.8-.2l.1-.5s-.1-.4-.5-.8c-.4-.5-1.4-.3-1.4-.3H79c-.3.3-.6.5-.6.5s-.2 1.1.2 1.8c.3.7.4 2.8.4 2.8l-.4 1.1s0 1-.2 1.6l-.4 1.2c-.1.3-.3 1.1-.7 1.7-.3.6-1 .5-2.1.9s-2.2 1.5-2.2 2-1.5.8-2 .9c-.6.2-1.3.1-2.2.7-.9.6-1.5 1.3-1.9 1.8-.4.5-.2.9-.4 1.8-.1.4-.2.6-.3.8.3 0 .6.1.8.1.4 0 2-.3 2-.3s1.5.4 2 .4 0 .4 0 .4l.6 1.9s.4 2 .5 2.4c.1.4-.3.9-.3.9l-.3 1.2s-.2.7-.8 1.6c-.6.9-.9 2.3-.9 2.3s.1 1.2.3 2c.2.8.3.7.5 1.3.3.6.9 1.4.9 1.4l.9.3.3.5c.3.5.1.8.1 1.5s.2.4.7.9c.3.3 2.3 1 4.1 1.5l.3-1.5 1.5-.6.3-.8-.4-1.2 1.1-4.3c.7-1.5 6.8-4.1 9.8-5 2.4-.1 5.8-1.4 9.3-.4.5.6.9.7 2.7.7l1.2-.6c.7.4.1.3 2 1.5.2.5.3 1.3.4 2.6-.1.1 1.4 1.3 1.6 2.2.2.4 2.4.6.3 1.5-.5.6-.3.2.4 2.2 0 .3-.2.2-.2 1.3 0 0-.2.3-.3.6-.3 1 1.6 1.2 3.6.6l.5-.6c0-.1-.4-.1-1.3-1.9 0 0-.3-1 .1-1.2.4.1.2-.9 2.7-1.3.6-.3.7.2 1-1.3 0 .2-.2-1.4 1.4-2l-.8-.9c-.1-.2-.5.4-2.9-.4.3 0-.8-.3-.6-1.3l.3-.3c-1.3.4-.1-2.1-1.8-2.9.5-.4.4-1.7.2-3.3-1.5-.3-1.8-3.3 1.6-1.9l.2-1.2.3-1.1-1.7-.9c.1.2-.1-.5.1-.9l1-.1c.4.1 1.1.1 1.1.1v-.9l.1-1.3c.2-.1-.1-.2 1.8-1.6l.9-.1 1.7-.9c-1.1-.8-2.3-1.7-2.8-2.1-.7 0-.8-.2-1.8-.7zm-1.6-46.7c0 .1.1.2.1.2s0-.1-.1-.2l-.8-.3-.4.5s-.4.5-.7.7c-.3.2-1.6-.4-2.3-.9-.7-.5-.7 0-2 .5-1.3.4-4 .4-5.8.4-1.8 0-2.2-1.5-2.8-1.9-.5-.4-1.3-1.5-2.5-2.2-1.3-.6-1.9.5-3.1.5-1.2 0-2.2-.5-3.1-.5-.8.1-1 0-2.1-.3s-.7-.3-1.8-.7c-1.1-.4-.9-.5-1.9-1-1-.4-1-.2-2.6 0s-1.5 1.2-1.5 1.2l-.7 2s-1.6 2.8-1.9 3.1c-.3.3 0 .6.1 1.9.1 1.3-.4.5-1.2.7-.8.2-.3.7-.5 1.6-.2.9-.5.1-1.4 0-.9-.1-.6.3-1.4.9-.8.6-.4.5-1.3.1-.8-.4-.5.7-.8 1.7-.3 1-1.3.6-2.7.6s-2.4 1.1-3 1.2c-.5.1-.7.7-1.1 1.4-.4.7-.8.9-2 1.5s-.9 0-1.8-.1-1.4.5-1.4.5-.5 1.2-1.2 1.9c-.4.4-1.1.7-1.6.9l.4.4c.7.7.1 1 .1 1.4 0 .3.3 1.5.5 3.1 0 .5.1.9.1 1.1.1 0 .3 0 .4.1.3.2.7.5 1.6.5h1.5s.6.3.6.7c0 .4.2.8.3 1 .2.2.7.6 1.1.8.4.1 1.1.1 1.1.1s1.2-.2 1.5.2c.4.4.3.4.7.6.4.2.5.6 1 .6s.7 0 1-.1c.3-.2.3-.4.8-.3.5.1.4.1.9 0 .2 0 .5-.1.8-.2l-.2-.8.4-.5s.6-.6 1-.6.9-.2 1.2-.2 1.1-.2 1.1-.2l.7-.6s.9-.2 1.6.4c.6.5.4 1.5 1.5 1.4 1.1-.1.8-.6 1.6-.2.8.5.5.6 1.4.7.9.1 1.7.1 1.7.1s1 .7 1.9 1.2c.9.5 1.4-.1 2 .2.6.3.9.5 1.6.5h1.9c.5 0 1.1.1 1.1.1s.9.3 1.2.7c.3.5.3.5.5 1.1.3.6-.3.4.3.6.5.3 1.1.4 1.4.4.3 0 1 .3 1.3.5.3.2.6.3.9.8.3.5-1.6.3.3.5 1.9.3 2.5.3 2.5.3h.6c.5 0 1.2.1 1.5-.1.3-.2.4-.6.9-.7l.5-.1 1.3-.2s.5-.2.9-.5c.5-.3-.1-.1.5-.3.5-.2.2-1.2.5-.2.4 1 .7.1.4 1l-.4.9.7.2s.2.6.6.3l.5-.4s.9-.7 1.3-.6c.4.1.2.2.8.2.6 0 .6-.5 1.3-.9.6-.4 1.4-.5 1.4-.5l1.6-.8s.4-.3 1.4.3c1 .5 1 .5 1.5.7.5.3.8 1 1.3.4s.5-.7.5-1.4c0-.6 0-.9.5-.9s.6-.2 1 .1c.4.3 0 .3.7.5s1.2.1 1.6.1c.5 0 .5-.6.8 0 .3.6-.1.7.6.8.7.1.8 0 1.4.2l.5.2s0 .3.3 1.3c.1.2.1.3.1.4.3-.3.7-.7.7-1.5 0-1.6-.1-2.3-.1-2.8 0-.6-.2-.6.1-1.8.3-1.3.8-1.7.5-2.3-.3-.6-1-1.5-1.3-1.9-.2-.5-.2-.9-.8-1.4-.6-.5-.9-.6-1.3-1.1-.3-.6-.2-1.1-.6-1.7-.3-.6-.7-.9-.8-1.2-.1-.3-.1-1.8-.1-1.8l-.2-1.5-.8-1.6-1-1.9-.1-.2-2.2-.4-1.3-.6s0-.8-.3-1.2c-.3-.4-.3-1.3-.3-1.3l-1.2-1.7s-.1-.3-.3-1c-.1-.8-.1-1.3-.4-1.7-.1-.2-.4-.6-.6-.9l-.5.1.5-.1c-.2-.2-.3-.4-.3-.4l-.4-.4z"/><path class="st9" d="M84.5 149.9c-.8-.3-.8-.2-1.6-.5-.8-.2-.5-.2-.8-.6-.3-.3-.2-.7-.2-1.2 0-.6-.6-.7-.9-1.3-.3-.6-1.3-1-1.9-1.6-.7-.6-.3-.7-.3-.7s-.1-.8-.9-1.7c-.8-.9-1.1 1-1.1 1l-.2 2.2s-.7.5-1.5 1.2c-.8.8-1.5.8-2.3 1-.8.2-1.1.1-2.6.2s-.8 1.1-.8 1.1v3.2c0 1.3-.3 1.7-1.3 1.9-.9.2-1.5 1.1-1.5 1.1s.1 1.8.2 3c.1 1.1-1.3.8-1.3.8s-.9.2-1.6.6c-.7.3-.7.7-1.8.6-1.1-.1-1.4.9-1.4.9s.2 1.4.2 1.9c0 .6-.5 1.3-1.5 1.3s-.6.9-1.6 1.3c-1 .3-1.3-.7-2.5-1-1.3-.3-.8.6-1.3 1.4-.3.4-.7.5-1.2.5-.3 0-.7-.1-.9-.1-.5 0-1.1.3-1.7.5-.6.1-1.3.3-1.8.8-.6.5-1.4.7-2 .8-.7.1-1.8.1-2.4.3-.6.2-.3.9-.5 2-.1 1.1-.9 1.3-1.7 1.7-.8.5-2.7.9-3.3 1.3-.6.3 0 1-.2 1.7s-.9 1.1-1.5 1.9c-.6.8.2 1.1.1 2.3-.1 1.1-.7 1.4-1 1.7-.3.3-.2.9-.6 2.3-.3 1.4-.1 1.7-.1 2 0 .3 0 .7.1 2.2.1 1.5.9.8.9.8s.9.7 1.3.9c.3.2 1.3 0 1.7.1.5.1.1.9.8 1.3.7.3.9-.3 1.2-.8.3-.5.6 0 .6 0s.6.3 1.3.6c.7.2 1.1-.2 1.6-1s.8-.3 1.9-.3c1.1 0 .9.1 2.4.5 1.5.3 1 1 1.4 1.8.3.8-.3 2.6-.3 2.6l.2 1.9s0 .9-.5 1.9c-.5 1-.6.9-1.3 1.4-.7.5-.9.9-1.4 1.6-.5.7.7 1.7.7 1.7s.7 1.2 1.2 1.9c.6.7.5.1.2.9-.2.8-.3.8-.3 1.6s0 0-.3.8-1.3.5-1.9.2c-.7-.2-.3.5-.3.5s.6.5.8 1.5c.2 1 .6.5 1.1.7.6.2.8.3 1.1.7.3.3.1.6.2 1 .1.5.2.8-.1 1.3-.3.5-.2 1-.2 1s.2.5.5 1.8c.2 1.4-.6 1.3-.3 2 .2.8.9.6 1.5.7.6.1.8.6 1.4 1 .5.4.8.7 1.2 1.1.5-.1 1.2-.4 1.6-.9.6-.7 1.2-1.9 1.2-1.9s.5-.6 1.4-.5c.9.1.6.7 1.8.1 1.2-.6 1.6-.8 2-1.5.4-.7.5-1.3 1.1-1.4.5-.1 1.5-1.2 3-1.2s2.4.4 2.7-.6c.3-1 0-2.2.8-1.7.8.5.4.5 1.3-.1.8-.6.5-1 1.4-.9.9.1 1.3.9 1.4 0 .2-.9-.4-1.4.5-1.6.8-.2 1.3.5 1.2-.7-.1-1.3-.4-1.6-.1-1.9.3-.3 1.9-3.1 1.9-3.1l.7-2s-.1-1 1.5-1.2c1.6-.2 1.6-.4 2.6 0s.8.5 1.9 1c1.1.5.7.5 1.8.7 1.1.3 1.3.4 2.1.3.8-.1 1.9.5 3.1.5 1.2 0 1.8-1.2 3.1-.5 1.3.6 2 1.8 2.5 2.2.5.4 1 1.9 2.8 1.9 1.8 0 4.6 0 5.8-.4 1.3-.5 1.3-1 2-.5s2.1 1.1 2.3.9c.3-.2.7-.7.7-.7l.4-.5.8.3c-.2-.5-.7-2-1-2.4-.4-.5-.8-.7-.7-1.1.1-.4.6-.6.1-1s-1.4-.2-1.4-.2-.5.2-1.3.2h-2.4s.6-.5-.2-.7c-.8-.2-2.2-.4-2.2-.4s.1.4-1.1.4c-1.2 0-2.2-.2-2.2-.2l-.4-.7s-.1.2-.8-.4c-.7-.6-1.1-1.4-1.2-1.8-.1-.4-.1-.4-.1-1s-.6-1.2-.6-1.2-.6 0-1.1-.8c-.5-.8-1.1-1-1.1-2 0-1.1.8-2.3.8-2.3s1.2-1 1.3-1.7c.1-.7.5-1.6 1-1.6s.7.5.6-.5c-.1-1-.7-1.2-.4-2.2.4-1 .6-1.7.6-1.7s-.8-1.1.1-1.7c1-.6 1.1-.6 1.6-1.3.5-.7.8-1.3.7-2-.1-.7-.8-1.1-.8-1.1h-2l-.7-.2-.9.3H95h.1c.1-.1.2-.2-.7-.6-1.2-.5-1.8-.8-1.8-.8l-.6-.6s-1-.1-1-.7-.1-2.9 0-3.2c.1-.4.5-1.4.5-1.4s1.3.1 1.3-1.6c0-1.7-.4-2.6-.4-3v-1.7s.6-.5 1.4-1.4c.8-1 1.6-1.3 1.1-1.8s-.7-.5-1.1-.8c-.4-.4-1.2-.8-1.2-.8l-.2-.5.5-1.9.7-1 .8-.5s0-.3.1-.6l-1.2-.3-.6-.2c-.6-.2-.8 0-1.6-.7s0 0-.8 0-2.2-.5-2.2-.5-.5-.3-.8-.5c-.3-.1-1 0-2-.1-.5-.1-.6-.3-.6-.5-.3 0-.6-.4-.6-.4s.2.3.6.4c.2-.3.2-.6-.2-.8z"/><path class="st9" d="M93.7 154.5l-.7 1-.5 1.9.2.5s.8.5 1.2.8c.4.4.6.4 1.1.8.5.5-.2.8-1.1 1.8-.8 1-1.4 1.4-1.4 1.4v1.7c0 .4.4 1.3.4 3s-1.3 1.6-1.3 1.6-.4 1.1-.5 1.4c-.1.4 0 2.6 0 3.2 0 .6 1 .7 1 .7l.6.6s.6.4 1.8.8c.9.4.8.5.7.6l.9-.3.7.2h2s.7.4.8 1.1c.1.7-.2 1.3-.7 2-.5.7-.6.7-1.6 1.3-1 .6-.1 1.7-.1 1.7s-.2.7-.6 1.7c-.4 1 .2 1.2.4 2.2.1 1-.1.5-.6.5s-.8.8-1 1.6c-.1.7-1.3 1.7-1.3 1.7s-.8 1.2-.8 2.3c0 1.1.6 1.2 1.1 2 .5.8 1.1.8 1.1.8s.6.6.6 1.2 0 .6.1 1 .5 1.2 1.2 1.8c.7.6.8.4.8.4l.4.7s1 .2 2.2.2c1.2 0 1.1-.4 1.1-.4s1.3.1 2.2.4c.8.2.2.7.2.7h2.4c.8 0 1.3-.2 1.3-.2s1-.1 1.4.2c.5.4 0 .6-.1 1s.4.6.7 1.1c.3.4.9 1.9 1 2.4l.3.1s.1.2.3.4l1.2-.3 1.7.1 1.1-.6 1.9-1s1.8-.7 2.4-1.2c.6-.5 1-1.9 1-1.9s.6-2 .7-2.5c.1-.5.7-.8 1.2-1.1.5-.2 1.2 0 1.2 0s1.2.7 1.8.1c.6-.6.5-2.2.5-2.2s1.4-.6 1.9-.6.4-.8.4-1.2c0-.4.6-.5 1.4 0 .8.5 1-.2 1-.2s1.7-.1 2.4-.4c.7-.2 1.8-1.4 1.9-2 .1-.6.7 0 .7 0s1.6.5 1.8 0c.2-.5 1.1-.7 1.7-.7.6 0 1.4 1 2 1 .6 0 .8-.5 1.3-1.2s.2-2.8.8-4c.6-1.2 1.1-1.8 1.2-2.3.1-.5.5-.6 1-.6s0-1 0-1-.1-1.1-.1-1.6 0-.8.1-1.2c.1-.4-.1-2.3-.1-3 0-.7 0-1.3-.5-1.6-.5-.2.1-1.1.1-1.1v-1.6c0-.6-.8-2.2-.7-2.9.1-.7 1.7-.7 2-.8.4-.1 1-.5 1.3-1.5.4-1-1.1-1.2-1.5-2-.4-.8-.2-2.5 0-3s.2-1.9.2-2.5c0-.6-.4-1.4-.7-2.4-.4-1 0-1.1.1-1.7.1-.6 0-.5-.2-1.6s.2-1.7.2-1.7v-1c-.4.1-.7.2-.7.2s.3-.1.7-.2v-.8l-.4-1.1s0-.7-.2-1.6c-.2-.8.1-2 .1-2v-1.2s-1 .1-1.8.1-.7-.8-.7-.8l-.6-1.3s-.1-.7-.5-1.1c-.4-.4-1-.6-1.8-1.2s-.8-1.7-.8-1.7l-1.1-.4s-.5-.6-1.2-.8c-.7-.2-1.7-.2-1.7-.2s-.5-.4-1.8-.6c-1.3-.2-2.6-.5-2.6-.5l-1.7-.8s-.6-.1-2-.1-1.2.2-1.2.2h-1s-1.2 0-2.4.5-2.5 1.9-2.5 1.9v1.3c0 .6-.1.8-.1.8s-.7 0-1.6-.1c-.8-.1-.8 0-1.4.7-.6.7-.7.4-1.9.4s-.7.4-1.6.6c-.8.2-1.6.5-2.5 1.2-1 .7-.7 1-1.6 1.1-.8.1-.6.6-1.2 1.4-.6.8-1.2.1-2.3.5-1.1.4-1.6 1.1-2.6 1.7-1.1.6-1.8 1.4-1.8 1.4s-1-.2-1.6-.1c-.6.1-1.1.1-1.1.1L98 150s-.8.8-1.1 1.2c-.2.4-.7.5-.7.5l-.8.5c-.4.2-.6.5-.7.8l.3.1-.3-.1c-.1.3-.1.6-.1.6l-.9.9z"/></g><path class="st9" d="M66.2 231.8c-.5-.1-.5.1-.8.3-.3.2-.6.2-1 .1-.5 0-.6-.4-1-.6-.4-.2-.3-.2-.7-.6-.4-.4-1.5-.2-1.5-.2s-.7 0-1.1-.1c-.4-.1-.9-.6-1.1-.8-.2-.2-.3-.6-.3-1s-.6-.7-.6-.7h-1.5c-.9 0-1.2-.3-1.6-.5-.1-.1-.2-.1-.4-.1h-.9c-.3 0-.5.7-.8.8-.3.1-.5.3-.6.4-.1.1-.2.5-.5 1s-1 .3-1 .3H49c-1.2 0-1.2-.5-1.5-.7-.2-.3.1-1.1.1-1.5 0-.4-.3-.8-.6-1-.3-.2-1.3-.1-1.3-.1s-1.2 0-1.5.1c-.4 0-1.4 0-2.1-.2-.7-.2-.6 0-.6 0s-.6 1-.8 1.4c-.3.4-.5.3-1.4.1-.9-.2-1.2-.7-1.3-1.2-.1-.4 0-1.2.1-1.3 0-.1.2-.6 0-1-.3-.4-.8-.6-1.4-.9-.6-.3-.9-.2-1.3-.2s-.6-.4-1.2-.6c-.5-.3-.9.4-.9.4s-.9 1.7-1.2 2.2c-.3.6-2.1 3.3-2.1 3.3l-.8 1s-.4.7-1.1.9c-.6.2-.7-.3-1-.5-.3-.3-.6-.8-1-.9-.5-.1-.8.5-.9 1.2-.1.7-.5 1-.8 1.6-.4.6-.8 1.2-.8 1.5 0 .3-.1.7-.3 1.2-.2.5-.6.7-.6 1.3 0 .6.8 1 1 1.1.2.1.8.5 1.3.9.5.3-.2.8-.5 1-.3.2-.9 1.5-1.6 1.8-.6.3-.8.7-.8.9 0 .2.5 1.1.5 1.2s.2.9.5 1.8c.4.9.6.9 1 1.9.1.3.1.5.1.6l.5.5.3 1.1.3.9s.1.9.1 1.2c0 .3.3.9.3 1.1.1.3.7 1 .8 1.3.1.3.1.5.1.9 0 .3.1.8.1 1 0 .3.4.8.3 1.4-.1.6-.3 1.1-.3 1.1s0 1.4-.6 2.3c-.6.9.3 1.5.3 1.5s.3.9.2 1.8c-.1.9-.7 1.5-1.2 2.4-.5.9.3 1.3.3 1.3s.6.8.7 1.1c.1.3 0 .7-.2 1.5s.2.6.7 1c.5.4 0 0 .3.4s.9.3.9.3l.8-.8s1.5-.4 2-.6c.6-.2 1 .9 1 .9s.8.1 1 .4c.3.3 0 1.5.1 2.4.1.9.4 1.2.4 1.2l.7 1.9s.5 1.5.5 1.8c0 .3.8.7 1.3.9.5.2.5.5.7.8.2.3.4.6.9.8.4.2 2.2.3 2.2.3l.3.3c.3.3 1-.5 1-.5s.4-.6.8-1c.3-.4.1-.5.7-.6.6-.1.2-.4.2-1s.2-1 .2-1l-.5-1s-.1-1.3-.1-1.6c0-.3-.3-1.8-.4-2.2-.1-.4 0-.9.1-1.8s.6-.8.6-.8.3-.4.4-.9c.1-.4-.4-1.2-.4-1.7s.3-1.3.3-1.3.2-1 .2-1.9c0-.9.6-.6.6-.6l.8-.9s.9-1 1.6-1c.7 0 1 1.2 1 1.2l.6 1.5c.2.4.6.7.6.7l2 .5 1.4.5v1.4l.7.2 1.8-.4 1.7-.3 2-.2 2.4-.1s1.2-.7 2-1c.9-.3.5 0 1.5.3.9.3.9-.4 1.6-1 .2-.2.4-.3.6-.3.1-.2.2-.4.3-.8.3-.9 0-1.3.4-1.8s.9-1.2 1.9-1.8c.9-.6 1.6-.5 2.2-.7.6-.2 2-.4 2-.9s1.1-1.5 2.2-2c1.1-.4 1.8-.3 2.1-.9.3-.6.6-1.4.7-1.7.1-.3.3-.6.4-1.2.2-.6.2-1.6.2-1.6l.4-1.1s-.1-2.1-.4-2.8c-.3-.7-.2-1.8-.2-1.8s.3-.3.6-.5c-.2-.1-.9-.5-1.1-.6-.3-.1-1.1-.5-1.1-.5s-.7-.4-1.4-.6c-.6-.3-1.8-1.2-1.8-1.2s-1.7-1.8-2.2-2.5c-.5-.7-.9-.8-.9-.8l-.2-.7c-.2-.7-.1-.6-.5-.9-.4-.4-.5-.4-.8-1.1-.4-.7.2-2.5.2-2.7 0-.3-.7-.5-.7-.5l-.6-.5-.2-.8c-.3.1-.6.2-.8.2-.1-.3 0-.3-.5-.4z"/></g></g></g><g class="st6"><path class="st8" d="M25.5 245.5c-.4-1-.6-1-1-1.9-.4-.9-.5-1.6-.5-1.7 0-.2-.5-1-.5-1.2 0-.2.1-.5.7-.9.6-.3 1.2-1.6 1.5-1.8.3-.2 1-.7.5-1-.5-.3-1.1-.7-1.3-.9-.2-.1-1-.5-1-1.1 0-.6.4-.8.6-1.3.2-.5.3-.9.3-1.2 0-.3.4-.8.7-1.5.4-.6.7-1 .8-1.6.1-.7.5-1.3.9-1.2.5.1.7.6 1 .9.3.2.3.7 1 .5.6-.2 1-.9 1-.9l.8-1s1.8-2.7 2.1-3.3c.3-.5 1.2-2.2 1.2-2.2s.4-.6.9-.4c.5.3.7.6 1.1.6.4 0 .7-.1 1.3.2.6.3 1.1.5 1.4.9.3.4.1.8 0 1 0 .1-.2.8-.1 1.3.1.4.4 1 1.3 1.1.8.2 1.1.3 1.4-.1.3-.4.8-1.4.8-1.4s-.2-.3.5 0c.7.2 1.7.3 2.1.2.4 0 1.5-.1 1.5-.1s1-.1 1.3.1c.3.2.6.5.6 1 0 .4-.3 1.2-.1 1.5.2.3.3.8 1.4.7h1.8s.7.2 1-.3c.3-.5.4-.8.5-1 .1-.1.3-.3.5-.4.3-.1.5-.8.8-.8.2 0 .6-.1.9 0 0-.3 0-.6-.1-1.1-.1-1.6-.5-2.7-.5-3 0-.3.6-.7-.1-1.3-.1-.1-.2-.2-.4-.3-.3.1-.5.1-.5.1s.2 0 .5-.1c-.5-.5-.8-.8-1.2-1.1-.6-.5-.8-.9-1.4-1-.6-.1-1.2.1-1.5-.7-.2-.8.6-.7.3-2-.2-1.4-.4-1.8-.4-1.8s-.1-.6.2-1c.3-.4.2-.8.1-1.2-.1-.5.1-.7-.2-1-.3-.3-.6-.5-1.1-.7-.6-.2-.9.3-1.1-.7-.2-1-.8-1.5-.8-1.5s-.3-.7.3-.4c.7.2 1.6.6 1.9-.2.3-.8.3 0 .3-.8s.1-.8.3-1.6c.2-.8.3-.2-.2-.9-.6-.7-1.2-1.9-1.2-1.9s-1.1-1-.7-1.7c.5-.7.7-1.1 1.3-1.6.7-.4.8-.3 1.2-1.4.5-1 .5-1.9.5-1.9l-.2-1.9s.7-1.8.3-2.6c-.3-.8.1-1.5-1.3-1.8-1.5-.3-1.2-.5-2.4-.5-1.1 0-1.5-.5-1.9.3-.4.8-.9 1.2-1.6 1-.7-.2-1.2-.6-1.2-.6s-.2-.5-.6 0c-.3.4-.6 1.1-1.2.8-.7-.3-.3-1.1-.8-1.2-.4-.1-1.3.1-1.7-.1-.3-.2-1.2-.9-1.2-.9s-.8.7-.9-.8c-.1-1.5-.1-1.8-.1-2.1 0-.3-.2-.7.1-2 .3-1.3.2-1.9.6-2.3.3-.3.9-.6 1-1.7.1-1.1-.7-1.5-.1-2.2.6-.8 1.2-1.2 1.5-1.9.2-.7-.3-1.3.2-1.7.6-.3 2.5-.8 3.3-1.2.8-.4 1.6-.6 1.7-1.7.1-1.1-.1-1.8.4-2 .6-.2 1.7-.2 2.4-.3.7-.1 1.5-.3 2-.8.6-.5 1.2-.7 1.8-.8.6-.1 1.2-.5 1.7-.5.2 0 .5.1.9.1 0-.4.1-1.1.1-1.5 0-.5-.3-.8-.8-1.3s-.5-.5-.4-1c.1-.5.9-.4 1.2-.9.2-.4.1-.9-.3-1.2-.4-.3-.3-.6-.1-1 .2-.4.5-1.6.3-2.2-.2-.6-1.8-.7-1.8-.7s-.4-.4-.7-.4c-.3-.1-.9-.7-1.1-.8-.2-.1-.3-.9-.5-1.3s-.7-.5-1-.6c-.4-.1-.4-.4-.5-1-.2-.6-.5-.7-.5-.7s.1-3.1.1-3.5c0-.4-.1-.8-.4-1.4-.3-.5-.1-.4-.3-.9-.3-.5-.7-.7-1.3-.9-.7-.2-.5-.1-1.2-.2s-.5-.3-1.3-.2c-.8.1-1.1.4-1.1.4s-.3.1-1 .1-1.5.5-1.8.8c-.3.3-.5.4-1.3.5-.8.1-1.3.4-2 .9s-.3 1.3-.3 1.3-.6.8-.8 1.1c-.2.4-.1.4-.1.6-.1.2-.1.4-.2.5-.1.2-.2.3-.7 1-.5.7-.6.2-1 .2s-.9 0-1.5.3-.9 1.1-.9 1.7c.1.5.1.5.1 1.1-.1.7 0 .5-.2 1.1-.2.5 0 .3.2 1s-1.3 0-1.3 0-.8-.7-1-.8c-.2-.1-.7.1-1 .1-.3 0-.5-.4-1.4-.4-.9.1-.4.4-.5.7-.1.3-.4.4-1.2.5-.8.1-1.3.4-1.3.4s-1.5-.1-2.5-.1-1.2.5-1.2.5-.4.3-.7.4c-.3.1-.3.3-.4.5-.1.2-.2.9-.2 1 0 .2-.3.7-1 .8-.7.1-.7-.2-.9-.4-.2-.2-.8-.2-.8-.2l-.7-.5-.7-.3-.4-.4.2-.4s.4-.7.4-1c0-.3-.1-.8.1-1.1.1-.4 0 0 .2-.1s.4-.6.5-.9c.2-.3.2-.5.3-.7.1-.2-.1-.4-.4-.5-.4-.1-.5-.2-.7-.5-.1-.3-.9-.7-1.4-.7-.5 0-1.3.2-1.5.3-.2.1-.5 0-.6-.2-.1-.2-.5-.3-.5-.3s-.8-.2-1.4-.4c-.6-.2-.5.2-1.2.2-.7.1-1.1 0-1.4-.1-.3-.1-.5.5-.4.9.2.4-.4.4-.4.8s.1.4.2.8.4.4.4 1.2c0 .8-.8.7-.8.7l-.7 1.4c-.3.5-.4.8-.8 1.3s-.7.7-.9.9c-.3.2-.8 1.1-.8 1.1s-1.1.9-2 1.4c-.4.2-.6.3-.8.3v.6s-.1 2-.2 2.4c-.2.4-.2 1.6-.2 2 0 .4.1 1.3.2 2.3.1 1 .1 1.6.1 2 0 .4-.2.8-.5 1.5-.4.7.3 1 .2 1.5-.1.4-.6 1-1.1 1-.5 0-.7.4-1 .5-.3.2-.7.5-1.2.8-.5.3-.2 1-.4 1.7-.3.8.3.6.3.6s.4.1.7.4c.2.4-.2.8-.3 1.3-.1.5-.5.1-1.2.2-.7.2-.5.3-.6.7-.1.3-.1.4-.5.8s-.5 1-.5 2-.5 1.1-.7 1.3c-.2.2 0 .6-.4 1.5s-.9.3-1.6.8c-.7.4-.1.7-.4 1.4-.1.2-.3.5-.5.7l.7 1 .9 1c.3.4 1 .8 1.1 1.1.2.2.7.4.7.7.1.3 0 .5 0 1.1 0 .6 0 1.2-.1 1.6 0 .4-.2.8-.4 1.1-.2.3-.5.4-.9.9l-2 2.5s0 .5-.3.8c-.3.3-.2.2-.5.6-.2.4.3 1.3.5 1.7.3.4.4.8.3 1.3-.1.5-.1.8-.5 1-.4.3-1 .9-1.2 1.1-.2.2-.3.5-.3.8 0 .3.1.8 0 1.1-.1.3-.1.7-.1.7s.3.7.5 1c.2.3 1.6 1 1.8 1.3.2.3 1 .7 1.1 1.1.1.4-.4.8-.8 1.4-.5.6-.3 1.9-.4 2.3-.1.3-.5.9-1 1.3s-1.2.6-1.7 1.1c-.5.5-.4.9-.4.9l-.5.7s-.2.6-.3 1c-.2.4-.7.3-1.1.5-.5.2-.2.5-.3.9-.1.4-1.2 1.9-1.6 2.3-.4.4-.5.2-1 .2s-.7-.4-1.2-.7c-.5-.3-.8-.2-.8-.2s-1.3.5-1.7.5c-.5 0-1 .6-1.3.9-.3.3-.4 1.5-.5 1.8-.1.2-.1.7-.2 1-.2.3-1 .3-1.3.3s-.8 1.1-.8 1.5c0 .4.5 1.2.7 1.5.2.3.6.2.6.2s.5.1.6.2c.2 0 1-.2 1.4-.2.5 0 .7.5.7.5s.1 1.1.4 1.5c.3.3 1.7.2 1.7.2s.2.1.4.4c.2.3.2.2.7.4.5.2.4 0 .7.3.3.3.3.8.3 1.1 0 .3.2.5.6.8.4.4.5.5.5.7 0 .3.1.6.2 1 .1.3.5 1.2.5 1.3 0 .1 1 .7 1.3 1 .3.3 1.1.7 1.1.7s0 .3.1.7c.1.4 0 .4-.1.6-.1.2-.7.8-.7.8s-.1.6-.2.9c-.1.2-.3.3-.5.7-.2.4.4.8.4.8s1 .9 1.1 1.1c.1.2 1.4 1.1 1.5 1.5.1.3.4 1 .7 1.6.3.7 1.1 1 1.4 1.1.3.1.7.3 1 .5.3.1.5.6.5.9.1.3-.2.5-.2.5s0 .7.1 1c.1.3.1.9.1 1.2 0 .3-.4.4-.4.4s-1.1.8-1.3 1.1c-.2.3.1.8.1.8s.4.2.7.4c.3.2.3.7.5 1.2.1.5.3.4.6 1.1.3.7-.2.7-.7 1-.5.3-1 .1-1.7-.1-.7-.1-.4.2 0 .9s.7 2 .7 2.4c0 .4-.1.8-.3 1-.2.2-.7.8-1.3 1.3-.7.5-.9 1.1-.8 1.4.1.3.1.9-.2 1.1-.1.1-.3.1-.4.1l.1.3s0 .8-.2 1.1c-.2.3 0 .4-.1 1s1 1 1.4 1.2c.4.2.4 1 .4 1s-.3 1.1 1 1.2c1.3.1 1-.5 1.4-.6.4-.1.9.1 1.6.1.7 0 .5-.6.7-1.1.2-.5.5-.4.5-.4l.8-.2s1.4-.1 2.1-.1c.7 0 .9.9 1.3 1.2.4.3 1.6.3 1.6.3l.1.6c.1.6 2.1-.2 2.1-.2l1.2-.5.4.1c.1-.2.3-.6 1.1-.7 1.2-.1 1.7.4 1.9-.4.2-.8.5-1.7.5-1.7s-.2-.2.8-.3c1-.1 1.4-.6 1.6-.9.2-.3-.2-.5.8-.8 1-.3 1.4-.4 1.4-.4s.6-.3 1.4-1c.8-.7.7-.7 1.5-.7s.7-.3 1.1-.8c.4-.5.9-.6 1.1-1 .2-.4-.2-1 .9-1s1.1 1 1.7 0c.6-1 .3-1.2 1-1.6.7-.4-.5.2.7-.4 1.2-.6 1.4-.6 1.5-1.1.1-.5.2-.5.2-.9v-.4l-.3-.6s-.4.4-.4-.2c0-.6-.3-.3-.7-.9-.4-.6-.4-1.6-.4-1.6s.5-.6.9-.7c.4-.1 1.4.3 1.4-.6 0-.9.1-1.3-.2-1.8-.3-.5-.7-.6-.7-.9 0-.3-.2-.7 0-1.1.2-.4.5-.9.5-.9l.1-.6-.4-.9s-.3-.7.1-1.1c.4-.4.9-.8.9-.8s.5.2 1-.3c.4-.5.6-1.2.6-1.4 0-.2 0-.8.2-1 .2-.3.4-.3.7-.7.2-.3.5-.3.6-.6l-.6-.6.6.6c-.3-.2-.3-.4-.4-.7z"/><path class="st8" d="M73.4 280.8c0-.7.3-.9-.1-1.4s-.3-.5-.3-.5l-.9-.3s-.7-.8-.9-1.3c-.3-.6-.3-.5-.5-1.3s-.3-1.9-.3-1.9.3-1.4.9-2.3c.6-.9.8-1.6.8-1.6l.3-1.2s.3-.5.3-.9c-.1-.4-.5-2.4-.5-2.4l-.6-1.9s.5-.4 0-.4-1.9-.4-1.9-.4-1.5.3-1.9.3c-.3 0-.5-.2-.8-.1-.1.3-.3.4-.3.4s.1-.1.3-.4c-.2 0-.4.1-.6.3-.7.6-.7 1.3-1.6 1-.9-.3-.6-.6-1.4-.3-.8.3-2 1-2 1l-2.4.1-1.9.2-1.7.3-1.8.4-.7-.2v-1.4l-1.3-.5-1.9-.5s-.4-.3-.6-.7c-.2-.4-.6-1.4-.6-1.4s-.3-1.2-1-1.2-1.6 1-1.6 1l-.8.9s-.6-.3-.6.6c0 .8-.2 1.9-.2 1.9s-.3.8-.3 1.3.5 1.3.4 1.7c-.1.4-.4.8-.4.8s-.5-.1-.6.8c-.1.8-.2 1.4-.1 1.8.1.4.4 1.9.4 2.2 0 .3.1 1.6.1 1.6l.5 1s-.2.4-.2 1 .4.9-.2 1c-.6.1-.3.2-.7.6-.3.4-.8 1-.8 1s-.7.8-1 .5l-.3-.3s-1.8-.2-2.2-.3c-.4-.2-.7-.5-.8-.8-.2-.3-.2-.6-.7-.8-.5-.2-1.3-.5-1.3-.8 0-.3-.5-1.8-.5-1.8l-.7-1.9s-.3-.3-.4-1.2c-.1-.8.2-2-.1-2.4-.3-.3-1-.4-1-.4s-.4-1-1-.8c-.6.2-2 .6-2 .6l-.8.8s-.6.2-.9-.3c-.3-.4.2 0-.3-.4s-.8-.3-.7-1c.2-.8.3-1.1.2-1.4-.1-.3-.7-1.1-.7-1.1s-.8-.3-.3-1.3c.5-.9 1.1-1.4 1.2-2.4.1-.9-.2-1.8-.2-1.8s-.9-.6-.3-1.5c.6-.9.6-2.3.6-2.3s.3-.5.3-1.1c.1-.6-.3-1.1-.3-1.3 0-.3-.1-.7-.1-1 0-.3 0-.6-.1-.8-.1-.3-.7-1-.8-1.3-.1-.3-.3-.8-.3-1.1 0-.3-.1-1.2-.1-1.2l-.3-.8-.3-1.1-.5-.5c-.1.3-.4.4-.6.6-.3.4-.4.4-.7.7-.2.2-.2.8-.2 1 0 .2-.2.9-.6 1.4-.4.5-1 .3-1 .3s-.5.4-.9.8-.1 1.1-.1 1.1l.4.9-.1.6s-.3.5-.5.9 0 .8 0 1.1c0 .3.4.4.7.9.3.5.2.9.2 1.8s-1 .5-1.4.6c-.4.1-.9.7-.9.7s0 1 .4 1.6c.4.6.7.3.7.9 0 .6.4.2.4.2l.3.6v.4c0 .4-.1.4-.2.9s-.3.5-1.5 1.1c-1.2.6 0 0-.7.4s-.4.6-1 1.6-.6 0-1.7 0-.7.6-.9 1c-.2.4-.7.5-1.1 1-.4.5-.3.8-1.1.8s-.7 0-1.5.7-1.4 1-1.4 1-.4.1-1.4.4c-1 .3-.6.5-.8.8-.2.3-.6.8-1.6.9-1 .1-.8.3-.8.3s-.3.9-.5 1.7c-.2.8-.7.3-1.9.4-.8.1-1 .5-1.1.7l.5.1-.5.7-.4.5c-.4.5-.7.8-.7.8s.3.6 1 1 0 0 0 .4-.3.7-.3.7 0 .4-.1.7c-.1.3-.5.6-.9.8-.4.2-.3.5-.3 1.3s-.1.9-.8 1.2c-.7.3-.5.4-.8.7-.3.3-.5 1.1-1 1.8s-1.5.9-1.5.9-.4 1.2-1.3 2.6c-.9 1.4-.4 2.3-.4 2.3s-.2 1-.7 1.8c-.5.8-.8.8-1.6 1.1-.8.3-.3.6-.9 1.9-.6 1.3-.6 2-.9 2.4-.3.4-.6.4-1.6.6-1 .2-.6.6-.9 1.3-.3.7-.6.2-1.4.2-.8 0-1.5.2-1.9.4-.4.2-1.1.6-1.6 1s-.2.7-.6 1.2c-.4.5-.1 1 .1 1.6.2.6-.2.7-1.1 1.8-.9 1.1 0 1 .1 1.8s.2 1.1.5 1.8c.2.6.1 2-.1 3.2 1.6-.2 3.2-.4 4.8-.7 3.3.3 4.2 0 8 .9 8.2 3.4 18.9-2.3 28.3 4.7.7 0 1.4.7 2.7.4-.2 0 .1-.6-1.8-2.1-.3-1.2-.3-1.5.4-3.9.2-1.8 3.3-5 5.1-6.4l2-3 .8-1.6c-.3-.7-1.2.2-1-2.3.3-.4 2.1-3.8 2.1-3.8 1.2-.4 5.8-2.1 7.6-3l1.8-1.5.9-1.2-.2-.9c0-.1-.4.2-1.5-.5-.2 0 .3-2.4 2.3-2.4l1.1-3.7 3.5-.8 3.4-1.2c.7-.6 5.6.4 7 .6 1.2.9 3.8 1.4 4.3 4 .4.5.2.9 1.8 2l-.6 1.5-2.3.3-1.5-.3-1.5.1-.6-.1-1.4 3.9.3 2.1.7 1.3.2.9-.8.9-.7.2v2l.8.6-.1.7-.5.6v1.1l.3 1.8v.9l.5.9.1 1c-.4 0-.9.3-.8 1.5l-.9.3-.1 2.1.8.2 1.5 2.2-.3.6.3 1.4.9.4c.4.4.1 1.1 2 1.7.4.1.9.3.9.3l1.2-1 1.7-.4c.3-.4.6-.6 1.5-2l1.5-1.2.5-.3.3.6 1.1.4.4-.5-.6-.8c.2-.8-.2-.6.4-2.7l.4-.2s.5-1.1.6-1.3c.2-.1.1-.6 1.2-1.6 0-.2.5.2 1.3-1.1.5-.2.5-.5 1.2-1.6l.7-1.7.6-.8c-.2-.8.4-2.7 1.8-3.9l.8-.6c.5-1.5.7-3.3-.4-5.8-.3-.6-1.6 0-2.2-2.3l.5-.6.4-2.1-1.3-.6-.4-.9c.9-.3-.4-2.2 1.8-3 .1-.1.2-.7.4-1.4-1.7-.5-3.7-1.3-4-1.5-.9-.2-1.1.1-1.1-.6zm-86.7-8.9c.3-.2.3-.9.2-1.1-.1-.3.1-.9.8-1.4.7-.5 1.1-1.1 1.3-1.3.2-.2.3-.6.3-1s-.3-1.7-.7-2.4c-.4-.7-.7-1.1 0-.9.7.1 1.2.4 1.7.1.5-.3 1-.3.7-1-.3-.7-.5-.6-.6-1.1-.1-.5-.2-1-.5-1.2-.3-.2-.7-.4-.7-.4s-.3-.5-.1-.8c.2-.3 1.3-1.1 1.3-1.1s.4-.1.4-.4c0-.3-.1-.9-.1-1.2-.1-.3-.1-1-.1-1s.3-.2.2-.5c-.1-.3-.3-.7-.5-.9-.3-.1-.7-.3-1-.5-.3-.1-1.1-.5-1.4-1.1-.3-.7-.6-1.3-.7-1.6-.1-.3-1.4-1.3-1.5-1.5-.1-.2-1.1-1.1-1.1-1.1s-.6-.4-.4-.8c.2-.4.4-.5.5-.7.1-.2.2-.9.2-.9s.6-.6.7-.8c.1-.2.2-.2.1-.6-.1-.4-.1-.7-.1-.7s-.8-.3-1.1-.7c-.3-.3-1.3-.9-1.3-1 0-.1-.4-1-.5-1.3-.1-.3-.2-.7-.2-1 0-.3-.1-.3-.5-.7-.4-.4-.5-.5-.6-.8 0-.3-.1-.8-.3-1.1-.3-.3-.2 0-.7-.3-.5-.2-.5-.1-.7-.4-.2-.3-.4-.4-.4-.4s-1.3.2-1.7-.2c-.3-.3-.4-1.5-.4-1.5s-.2-.5-.7-.5c-.5 0-1.3.2-1.4.2-.2 0-.6-.2-.6-.2s-.4.1-.6-.2c-.2-.3-.7-1.1-.7-1.5 0-.4.5-1.5.8-1.5s1.2 0 1.3-.3c.2-.3.2-.8.2-1 .1-.2.2-1.5.5-1.8.3-.3.8-.8 1.3-.9.5 0 1.7-.5 1.7-.5s.3-.1.8.2c.5.3.8.7 1.2.7.5 0 .6.2 1-.2s1.5-1.8 1.6-2.3c.1-.4-.2-.7.3-.9.5-.2 1-.1 1.1-.5.2-.4.3-1 .3-1l.5-.7s-.1-.4.4-.9 1.2-.7 1.7-1.1c.5-.4.9-1 1-1.3.1-.3-.1-1.7.4-2.3.5-.6 1-1 .8-1.4-.1-.4-.9-.8-1.1-1.1-.2-.3-1.6-1-1.8-1.3-.2-.3-.5-1-.5-1s0-.4.1-.7c.1-.3 0-.8 0-1.1 0-.3.1-.6.3-.8.2-.2.8-.8 1.2-1.1.4-.3.4-.5.5-1 .1-.5 0-1-.3-1.3-.3-.4-.8-1.3-.5-1.7.2-.4.2-.2.5-.6.3-.3.3-.8.3-.8l2-2.5c.4-.5.7-.6.9-.9.2-.3.3-.7.4-1.1 0-.4.1-1 .1-1.6 0-.6.1-.8 0-1.1-.1-.3-.6-.5-.7-.7-.2-.2-.8-.7-1.1-1.1l-.9-1-.7-1-.6.6.6-.6-.1-.1s0-.2-.3-.2-.8.1-.8.1-.2.3-.7.1c-.5-.2-1-.3-1.4-.7-.4-.4-1.1-1.3-1.1-1.3l-.2-.5-.8-.1H-18s-.2-.1-.3 0c0 .1-.1.6-.8.6-.7 0-1.3-.1-2-.4-.7-.3-1.6-.3-1.8-.8-.2-.5-.1-1.3-.3-1.4-.1-.1-.6-.2-.8-.1-.2 0-.8.1-.8.1s.1.5-.1.7c-.2.2 0 .5-.4.5s-.8 0-1.1.2c-.3.1-1 .4-1 .4s-.2.2-.4-.1c-.2-.3-.4-.5-.2-.9.3-.4.3-1 .3-1s-.1-.6-.5-.6-.7.2-1.1.2c-.3 0-.4-.2-.8-.2-.3 0-.8.4-.8.4s-.1.4-.6.3c-.5-.2-.7-.3-.9 0-.2.3-.2.4-.4.5-.2.1-.3.2-.5.3-.2.1-.2.4-.5.4s-.7-.2-.8-.4c-.1-.2-.4-.6-.6-.7-.2-.1-.5-.1-.5-.1s-.4-.2-.9-.2-.7.4-.8.5c-.1.2 0 .5-.3.5s-.7 0-.8.4c-.2.4-.1.8-.3.9-.3.2-.5.3-.7.4-.3.1-.2 0-.4.5-.3.5-.2.6-.6.7-.4.1-.3 0-.3.4-.1.4.2.5-.1.7-.3.2-.8.2-.9.3-.1.1-.4.3-.5.5-.2.2-.3.1-.3.5-.1.4.1.6-.3.9-.4.3-.4.5-.4.8 0 .3.1.9-.1 1.3s-.7.9-.9.9c-.2 0-.3-.3-.5-.1-.1.2-.4.9-.4.9s-.3.1-.3.3c-.1.2-.3.8-.7.9-.4.1-.6 0-.7.2-.1.2-.6.5-.6.5s-.9.3-1 0c-.1-.3.2-.9.3-1.5.1-.6.3-.6 0-1.2s-.5-.7-.5-1.1c-.1-.3 0-.5-.7-.9s-.8-.5-1.1-.6c-.3-.1-.7-.7-1-.7-.3 0-.8.8-1.2.8-.4 0-.8.2-.8-.1-.1-.3-.1-.5-.1-.5s-.4.2-.5.3c0 .2-.7.2-.7.2s-.5-.3-.5 0 .1.7.1.9c0 .2-.4 1.4-.4 1.4l-.5.7s-.6.3-.8.3h-1.4c0 .2 0 .4.1.5.1.4.6.7.6.7s.3.5.5.7c.1.2.2.4.6.8.4.4.4.2.8.2s.5.4.7 1c.2.6-.1 1-.2 1.2-.1.2-1 1.9-1.4 2.4-.4.5-1 1.6-1.1 1.8-.1.2-.7.7-1.4 1-.7.2-.1 1 .2 2 .3 1-1 1.9-1 1.9l-.7.7c-.2.2-.1.7-.1 1.1 0 .3.1.5.3.7.2.2.3.8.3.8s-.1.3-.2.9c-.2.6-.3.3-.5.4-.2.1-.1.5-.1.8 0 .3-.2.6-.2 1.1 0 .4-.5.7-.6.7v.2c.1.7.6.8 1 1.5.5.7.5 1.2.5 1.7 0 .6.5.8.5.8s.8.2 1.1.4c.3.2.5.9.4 1.2-.1.3.1.6.4.8.3.2.8.5 1.2 1 .4.5.3 1.1.2 1.5-.1.4.3.8.5 1.5.2.6 0 .6 0 1s-.9.6-1.4.8c-.4.2-.2.7-.2.9 0 .2-.1.3-.3 1.6-.3 1.3-1.7.1-2.1 0-.4-.1-.9.4-1.3.3-.4-.1-1.2.5-1.6.7-.3.2-1.5.3-2.2.3-.7 0-2.1-.6-3.1-.6s-1.3.1-2.1.2-.6.9-.6.9-.7.3-1.4.3-.6-.2-1.3-.1c-.7.1-.7 1.3-1 1.9-.2.6-.8-.1-.8-.1s-.3-.6-.5-.7c-.2-.2-.3-.2-.6-.4s-.7-.2-1.1-.2c-.4-.1-.6.1-1.2 0s-1.5-.4-1.5-.4-1.3-.5-1.8-.7c-.5-.2-1.1.2-1.1.2s-.9.5-1.3.8c-.4.3-.7.3-1 .7-.3.3-.3 1.1-.3 1.1s0 .8.1 1.5-.2 1.1-.4 1.5c-.2.3-.8 1-1.2 1.5-.4.4-.1.8-.2 1.6-.1.5-.5.7-.8.9.1.3.1.5.1.5l.3 1.5s0 .7.6.7h1.1s.2-.1.2.2c0 .3.4 1.4.4 1.9s-.1 1.5-.1 1.5l-.3.6s0 .7.6.7.9.1.9.4c.1.4.7.8.9.3.2-.5.4-1.4.9-.9.4.5.4 1.1.4 1.1s0 .3.4.4c.4.1.9.6.8.9-.1.4-.4.9-.4.9l-.1.7v.7s.3.4.4.6c.1.2.1.1.4.5.3.4 1.3.7 1.2 1.2-.1.5-.6 1.4-.6 1.9.1.5.4 1 .4 1.2.1.2.4.7.4.7l.7.7s.1.4-.4.7c-.5.4-1.1.6-1.3.7-.2.1-.6-.1-.3.5.2.6.6.6.6.9.1.3 0 .7 0 .7s-.4 2.4-.8 2.7c-.4.4-.4.6-.4 1.1s.2 1.3 0 1.8-.8.7-.8 1.3c0 .6.9 1.5 1.2 1.6.2.1.3.2.5.4l.6-.3.4-.1.5.4s.6.5.8.1c.2-.4.3-.5.6-.9.3-.3.9-.3 1.3-.5.3-.1 1.3-.1 1.3-.1s.3-.1.3-.3c.1-.2.2-.6.2-.6l.6-.3s.8-.2.8.2.5 1 .5 1.2c0 .2.4.3.4.7 0 .4.5.7.3 1-.1.3.1.5.1.5l.5.1s.6.3.7.6c.1.3.1.2.5.5.3.3.7.5.9.7.1.3.5.9.5.9s.3.5.5.8c.1.3 0 .7.5.7s.6.1.8-.2c.2-.3.5-.9.5-.9s.4.1.6.7c.1.3.4.7.7 1 0-.1 0-.2.1-.3.1-.9.2-1.1.2-1.5v-1.2c0-.2-.3-.6 0-.7.3-.1.5-.4.5-1s-.1-1.6-.1-1.6-.1-.7 0-1.2.7-.8.7-1c0-.2.2-.7.3-.9.1-.2.9-1 .9-1s.5-1.1.9-1.7c.5-.6 1-1.9 1.1-2.1.1-.2.8-1.5.8-1.5s.7-1.1 1.6-.8c.9.3 1.3.8 1.9.8.7 0 .9.3 1.3-.2s1.1-.9 1.1-.9.3-.1 1.1-.3c.8-.2 1.8.1 2.6-.3.7-.5 1.2-.7 1.6-1.1.5-.4.5-1.4.9-1.4.3 0 .8-.3 1 .3.2.5.9 1 .9 1.3 0 .3 0 .1.3.5.3.5.7.5.7.5s.9.3 1.1.4c.2.1.6-.3.7.3.1.6.7.9.5 1.4-.2.5-.2.9-.2.9s.5-.1.8.1c.3.2.3-.3.3.5 0 .7-.1 1.1.3 1.4.3.3.8.4.9.7.1.3.3.7.7.4.3-.3.7-1.1 1.1-.5.5.6 1.1 1.1 1.1 1.1l.7.2 1.3-.1s.1.1.3.7c.1.5.2 1.3.9 1.4.7.1 1.1-.2 1.5-.3.3-.1-.3-.1.3-.1.7 0 1.8-.5 1.8-.5l.7-.9s.2-.7.7-.7c.5 0 .9-.5 2-.1 1.1.5 2 .5 2 .9.1.4-.1 1.3.4 1.3s.7-.1 1.1-.1c.3 0 .6-.3.8.1l.5 1s.5.1.7.3c.3.2 1.1-.1 1.1.3 0 .5.5.7 1.1.4.5-.3.9-.5 1.6-1.2.7-.7 1.3-1.1 1.6-1.2.3-.1.6-.2 1-.6.4-.4.9-.9 1.2-.9.2 0 .8.2 1.3.2l-.3-1.2.3 1.2c-1 .7-.8.7-.7.6z"/><path class="st8" d="M-17.4 312.3c-.3-.7-.4-1-.5-1.8-.1-.8-1-.7-.1-1.8s1.3-1.2 1.1-1.8c-.2-.6-.5-1.1-.1-1.6s.1-.8.6-1.2c.5-.4 1.2-.8 1.6-1 .4-.2 1.1-.4 1.9-.4.8 0 1.1.5 1.4-.2.3-.7-.1-1.1.9-1.3 1-.2 1.3-.2 1.6-.6.3-.4.3-1.1.9-2.4.6-1.3.1-1.6.9-1.9.8-.3 1.1-.3 1.6-1.1s.7-1.8.7-1.8-.5-.9.4-2.3 1.3-2.6 1.3-2.6 1-.2 1.5-.9.7-1.5 1-1.8c.3-.3.1-.4.8-.7.7-.3.8-.4.8-1.2 0-.8-.1-1.1.3-1.3.4-.2.8-.5.9-.8.1-.3.1-.7.1-.7s.3-.3.3-.7c0-.4.7 0 0-.4s-1-1-1-1 .3-.3.7-.8l.4-.5.5-.7-.5-.1-.4-.1-1.2.5s-2 .8-2.1.2l-.1-.6s-1.2 0-1.6-.3c-.4-.3-.6-1.2-1.3-1.2-.7 0-2.1.1-2.1.1l-.8.2s-.3-.1-.5.4 0 1.1-.7 1.1-1.2-.2-1.6-.1c-.4.1-.1.7-1.4.6-1.3-.1-1-1.2-1-1.2s0-.8-.4-1c-.4-.2-1.5-.6-1.4-1.2.1-.6-.1-.7.1-1 .2-.3.2-1.1.2-1.1l-.1-.3c-.4 0-1-.2-1.3-.2-.3 0-.8.5-1.2.9-.4.4-.7.5-1 .6-.3.1-.9.5-1.6 1.2-.7.7-1.1.9-1.6 1.2-.5.3-1.1.1-1.1-.4s-.9-.1-1.1-.3c-.3-.2-.7-.3-.7-.3l-.5-1c-.2-.4-.5-.1-.8-.1-.3 0-.5.1-1.1.1-.5 0-.3-.9-.4-1.3-.1-.4-.9-.4-2-.9s-1.6.1-2 .1c-.5 0-.7.7-.7.7l-.7.9s-1.1.5-1.8.5 0 0-.3.1-.8.3-1.5.3c-.7-.1-.7-.9-.9-1.4-.1-.5-.3-.7-.3-.7l-1.3.1-.7-.2s-.6-.5-1.1-1.1c-.5-.6-.8.1-1.1.5-.3.3-.5-.1-.7-.4-.1-.3-.6-.5-.9-.7-.3-.3-.3-.7-.3-1.4s0-.3-.3-.5-.8-.1-.8-.1 0-.4.2-.9-.4-.8-.5-1.4c-.1-.6-.5-.2-.7-.3-.2-.1-1.1-.4-1.1-.4s-.4-.1-.7-.5c-.3-.5-.3-.3-.3-.5 0-.3-.7-.7-.9-1.3-.2-.5-.7-.3-1-.3-.3 0-.4 1-.9 1.4-.5.4-.9.6-1.6 1.1-.7.5-1.8.1-2.6.3-.8.2-1.1.3-1.1.3s-.7.4-1.1.9c-.4.5-.7.2-1.3.2-.7 0-1.1-.5-1.9-.8-.9-.3-1.6.8-1.6.8s-.7 1.3-.8 1.5c-.1.2-.7 1.5-1.1 2.1-.5.6-.9 1.7-.9 1.7s-.8.8-.9 1c-.1.2-.3.7-.3.9 0 .2-.6.5-.7 1-.1.5 0 1.2 0 1.2s.1 1 .1 1.6c0 .6-.2.9-.5 1-.3.1 0 .5 0 .7v1.2c0 .5-.1.7-.2 1.5 0 .1 0 .2-.1.3.1.2.3.3.3.3s.2.3.5.5l.3.1s.7.5.9.9l.2.5.7.3.7.2s1 .9 1.3 1.6c.3.7.3 1.6.3 1.8 0 .1.1.9.2 1.6.1 0 .3.1.5.2 0 0 .1 0 .2.1h-.1c1.2.1 2.2-.2 4.4-.2 1.6.2-.2 2.9-1.5 4.7l-.2.4s-.2.1 0 .6c.1.7 1.4 3-.6 5.5.1.2-.5.8.1 2.5l.4-.5.2-.9.9-1.4 1.6 2c-.3 1.1.8 3.3-.8 5.7.4 1.1 2.9 3.7 5.9 4.4h1.1c.1-.8-.6-4.2-3-4.8l.1-1.6v-1.2l.7-2.6c.1 0 0-.6 1.6-2.2l.7-1.1s.1.4 0 .8c-.1-.1-.3 2.6-.2 3.3-1 .7 2.2 1.5 3.5 3.6l.9.9c.1.2.4-.7 2.8-.6.4.1 1.3.1 1.3.1l.9-.4h1.7l1.1.1v1.2l.8-.5.2-1.2.7-1.1h1l1.2-.1 2.1.6h1.7l.4.9 1.1.6 1.3.8-1.2 2-.7.5.5 1-2.1.1c-.9.2-2.2 1.6-3.4 3.2-1.3.7-1.4-.3-4.3 1.8-.4.3-2 .8-2 .8-.3-.4-1.3 1.5-2.1-.4-.2-.1-.5-.8-.5-.8h-.9c-.4 1.1-1.6 3-2.5 4.9 1.1 1.4 5.2-.7 8.3-.7 5.2-3.2 11.8-4.5 18.8-5.5.8-1.4.9-2.8.7-3.4zm-29.5-163.4c-.7-.1-.2.6-.8 1.2-.6.6-.8-.2-1.6-.3-.8-.1-.5.1-1.1.3-.6.2-.3.7-.8 1.2-.6.5-1.5 1.1-1.7 1.6-.2.5-.3 1.2-.1 1.9.2.7 0 .8-.6 1.7-.6.8-.5 1-.6 1.6-.2.6-.6 2-.5 2.5.1.6-.1 1.1-.3 1.4-.2.3-.1.4.1 1.4.2 1-.3 1.1-.5 1.2-.2.1-.6.6-.9 1.2-.3.6-1 .4-1.7.6-.7.2-.2.6 0 .8.2.2.7.8 1 1.2.3.4 0 .9 0 .9s.3.3.6.8c.2.6-.3.8-.3.8s-.5.8-.8 1.1c-.3.3-.3.6-.4 1.2-.1.6-.7.3-.8 1.2-.1.9.4 1.3.6 2.1.2.8.7 1.6 1.2 2.2.6.7-.3 1.7-.3 1.7s-.3.9-.5 2.3.1.8.1 1.3c.1.4-.1.7-.2 1.3-.1.6-.3.6-.3 1.3.1.7-.3.8-.6 1.1-.3.2-.7.4-.7 1.1.1.6.8.6 1.2 1 .4.3.3.9.6 1.9.2 1 .2 1.6-.1 2.5-.3.8-.4 2.3-.4 2.3v1h1.4c.2 0 .8-.3.8-.3l.5-.7s.4-1.2.4-1.4c0-.2-.1-.5-.1-.9s.5 0 .5 0 .7 0 .7-.2.5-.3.5-.3 0 .3.1.5c.1.3.5.1.8.1.4 0 .9-.8 1.2-.8.3 0 .7.5 1 .7.3.1.4.2 1.1.6.7.4.6.5.7.9.1.3.3.5.5 1.1.3.6.2.6 0 1.2-.1.6-.5 1.2-.3 1.5.1.3 1 0 1 0s.5-.4.6-.5c.1-.2.3 0 .7-.2.4-.1.6-.7.7-.9.1-.2.3-.3.3-.3s.3-.7.4-.9c.1-.2.3 0 .5.1.2 0 .7-.5.9-.9.2-.4.1-.9.1-1.3 0-.3 0-.5.4-.8.4-.3.2-.5.3-.9.1-.4.2-.3.3-.5l.5-.5c.1-.1.5-.1.9-.3.3-.2 0-.3.1-.7.1-.4 0-.3.3-.4.4-.1.3-.2.6-.7.3-.5.2-.5.4-.5.3-.1.5-.3.7-.4.3-.2.2-.5.3-.9.2-.4.5-.4.8-.4.3 0 .1-.3.3-.5.1-.2.3-.5.8-.5s.9.2.9.2.3 0 .5.1.5.5.6.7c.1.2.5.4.8.4.3 0 .3-.3.5-.4.2-.1.3-.3.5-.3.2-.1.2-.2.4-.5s.4-.2.9 0 .6-.3.6-.3.5-.4.8-.4c.3 0 .4.1.8.2.3 0 .7-.2 1.1-.2.4 0 .5.6.5.6s0 .6-.3 1 0 .6.2.9c.2.3.4.1.4.1s.8-.3 1-.4c.3-.1.7-.2 1.1-.2.4 0 .2-.3.4-.5s.1-.7.1-.7.7-.1.8-.1c.2 0 .7 0 .8.1.1.1.1.8.3 1.4.2.5 1.1.5 1.8.8.7.3 1.3.4 2 .4s.8-.5.8-.6c0-.1.3 0 .3 0h1.1l.8.1.2.5s.7.9 1.1 1.3c.4.4.9.5 1.4.7.5.2.7-.1.7-.1s.5-.1.8-.1c.3 0 .3.2.3.2l.1.1c.2-.2.3-.4.5-.7.3-.7-.3-.9.4-1.4.7-.4 1.3.2 1.6-.8.4-.9.2-1.4.4-1.5.2-.2.7-.3.7-1.3s.1-1.6.5-2c.4-.4.4-.5.5-.8.1-.3-.1-.5.6-.7.7-.2 1.2.3 1.2-.2.1-.5.5-.9.3-1.3s-.7-.4-.7-.4-.5.2-.3-.6c.3-.8-.1-1.4.4-1.7.5-.3.9-.7 1.2-.8.3-.2.5-.5 1-.5s1-.5 1.1-1c.1-.4-.6-.8-.2-1.5.4-.7.5-1.1.5-1.5 0-.4.1-.9-.1-2-.1-1-.2-1.9-.2-2.3 0-.4.1-1.6.2-2 .2-.4.2-2.4.2-2.4v-.6h-.3.3c0-.8 0-2.2-.2-2.6-.3-.7-1.1-1-1.3-1.6-.2-.5-.2-2.3-.2-2.6 0-.3.1-.7-.4-1.5s-.7-1.1-.6-1.5c.1-.4.2-2.2.2-2.2s-.1-.7-.4-.7c-.3 0-.5.1-1-.1s-.6-.3-1-.4c-.3-.1-1.1-1.3-1.7-2.3-.5.2-.9.4-1.4.5-1.2.2-4 .5-6.1 1-.9 0-4.1 1.3-5.5 2.4-.1.8-.9 2.1-.8 4.3-.3 1.3-.5 2.3-1.6 5.1-.6.2-2.1 1.3-3.4 2.5-1.1 1.1-7.7.4-11.2-.4-.3-.2-1.5-.5-2.7-.9-2.2-1-3.1-1.9-5.9-4.5l1-3.7c.5-.5 1-.9 1.1-1.3 0-.9.2-.1.2-2.1.4-.2.9-.5 1.2-1.2 0-.1 0-.1.1-.2v-.3c-.9 0-1.9.1-2.3.1-.7-.3-.8-.4-1.5-.5z"/><path class="st8" d="M-6.3 150.1c.4.2.5.2 1 .4s.7.1 1 .1c.3 0 .4.7.4.7s-.1 1.8-.2 2.2c-.1.4.1.7.6 1.5.5 1 .5 1.4.5 1.7 0 .3 0 2 .2 2.6.2.5.9.9 1.3 1.6.2.5.2 1.8.2 2.6.2 0 .4-.1.8-.3.9-.5 2-1.4 2-1.4s.5-.9.8-1.1c.3-.2.5-.4.9-.9s.5-.7.8-1.3c.3-.5.7-1.4.7-1.4s.8.1.8-.7c0-.8-.3-.8-.4-1.2-.1-.4-.2-.4-.2-.8s.5-.4.4-.8c-.2-.4.1-1 .4-.9.3.1.7.1 1.4.1.7-.1.6-.4 1.2-.2s1.4.4 1.4.4.4.1.5.3c.1.2.4.3.6.2.2-.1 1-.3 1.5-.3s1.3.4 1.4.7c.1.3.3.4.7.5.4.1.5.3.4.5-.1.2-.1.3-.3.7-.2.3-.4.8-.5.9-.2.1-.1-.3-.2.1s-.1.8-.1 1.1c0 .3-.4 1-.4 1l-.2.4.4.4.7.3.7.5s.5.1.8.2c.2.2.2.5.9.4.7-.1 1-.7 1-.8 0-.2.1-.8.2-1 .1-.2.1-.4.4-.5.3-.1.7-.4.7-.4s.2-.5 1.2-.5 2.5.1 2.5.1.5-.3 1.3-.4c.8-.1 1.1-.2 1.2-.5.1-.3-.4-.6.5-.7.9-.1 1.1.4 1.4.4.3 0 .8-.2 1-.1.2.1 1 .8 1 .8s1.5.7 1.3 0c-.2-.7-.4-.5-.2-1s.2-.4.2-1.1c.1-.7 0-.6-.1-1.1-.1-.5.3-1.4.9-1.7.6-.3 1-.3 1.5-.3.4 0 .5.5 1-.2s.5-.8.7-1c.1-.2.2-.3.2-.5.1-.2-.1-.2.1-.6.2-.4.8-1.1.8-1.1s-.4-.8.3-1.3 1.3-.8 2-.9c.8-.1.9-.2 1.3-.5.3-.3 1.1-.8 1.8-.8s1-.1 1-.1.3-.3 1.1-.4c.8-.1.6.1 1.3.2.7.1.5 0 1.2.2s1 .4 1.3.9c.3.5 0 .4.3.9s.4 1 .4 1.4c0 .4-.1 3.5-.1 3.5s.3.1.5.7.2.9.5 1c.4.1.8.2 1 .6.2.4.3 1.2.5 1.3.2.1.8.7 1.1.8.3.1.7.4.7.4s1.6.1 1.8.7c.2.6-.2 1.8-.3 2.2-.2.4-.3.7.1 1 .4.3.5.8.3 1.2-.2.4-1.1.4-1.2.9-.1.5-.1.5.4 1s.8.8.8 1.3c0 .4 0 1.1-.1 1.5.4 0 .9-.1 1.2-.5.5-.8 0-1.7 1.2-1.3 1.2.3 1.5 1.3 2.5 1 1-.3.6-1.2 1.6-1.2s1.5-.7 1.5-1.2c0-.6-.2-1.9-.2-1.9s.2-1 1.3-.9c1.1.1 1.1-.2 1.8-.6.7-.3 1.6-.6 1.6-.6s1.3.3 1.2-.8c-.1-1.1-.2-2.9-.2-2.9s.6-.9 1.5-1.1c.9-.2 1.2-.7 1.2-1.9v-3.1s-.7-1 .8-1.1c1.5-.1 1.8 0 2.6-.2s1.5-.2 2.2-1c.8-.8 1.5-1.2 1.5-1.2l.2-2.1s.3-1.9 1.1-1c.8.9.9 1.7.9 1.7s-.3.1.3.7c.7.6 1.6 1 1.9 1.6.3.6.9.7.9 1.2 0 .6-.1.9.2 1.2.3.3 0 .3.8.6.8.2.8.1 1.6.5.4.2.4.5.4.8.2 0 .5-.1.7-.6.6-1.2.8-2.1.8-2.5 0-.3-.4-1.7-.4-1.7s.6-.9.3-2.6c-.2-1.7-.8-1.8-.8-2.6v-1.9c0-1.8.4-3.7.4-4.3 0-.6-.8-1.9-.8-1.9s-.3-1.1-.8-1c-.4.1-.9.2-.9.2s-.3.5-.7-.2c-.3-.7-2.6-2.1-.9-4 1.7-1.9 1.5-1.2 2-2.7.6-1.5.7-1.3.6-2.5-.1-1.1-.3-.9.1-1.6.4-.7.8-2 .6-2.4-.2-.3.1-.7-.4-.9-.6-.2-1.7 0-1.5-1.1.2-1.1.7-1.8.7-1.8s-.2-1.2.9-1.2 1 .3 2.1 0 1.9-1 2.7-1c.8 0 1.6.1 1.6.1l1-.7s1 .3 2 .4c1 .1 1.2-.1 1.2-.8V110s0-1 .6-1 .9-.6 1.7-.2c.8.3.4.8 1.3.8s1.4-.6 1.4-.6h.6c.6 0 1.1-.1 1.1-.1s.9-.2 1.3.2c.5.4.6.9 1.2.4.7-.4 1.1-.9 1.1-.9s.4-.1.1-.6c-.3-.5-.9-.8-.9-1.3 0-.6-.1-1.7-.1-2.4s-.3-1.1-.6-1.7c-.2-.6-.8-.9-.8-1.2 0-.3-.2-2.4.3-2.8.6-.5 1.7-1.1 1.7-1.1l.9-.1.7-1.1s1.5.2 1.2-.6c-.2-.8-.9-.9-.1-1.8s1.1-.3 1.5-1.5c.3-1.1.6-2 .6-2s.7-1.2 2.2-2.2c1.6-1 2.2-1.2 2.4-1.8V86c-.4 0-.7-.1-.7-.1s.3.1.7.1c-.1-.4-.3-.9-.3-.9l-.4-.7-.6-.6c-.9-.1-1.8.1-1.8.1l-1-1-2.1-2.1s-.2-1-.2-1.8-.7-1 .2-1.7c.9-.7 1-1.5 1-1.5l-.5-1.1V73l.3-.7v-1.6l.3-1s.6 0 .8-.3c.2-.2.7-1 .7-1s.2-.8.2-1.2c0-.4-.7-1.1-.7-1.1s.1-.7.4-1c.4-.4.8-1 .7-1.7-.1-.7-.3-2.1-.3-2.5 0-.4-.3-1.2-.2-1.5.1-.2 1-1.6 1-1.6s.4-1 1.3-.7c1 .3.5.4 1.4.4.9 0 1.1-.1 1.5-.1.4.1.4.5 1 .1.7-.4 1.5-1.1 1.5-1.1s1.5-1.1 1.8-1.2c.3-.1 1.1-.7 1.1-.7l1.2-2.1s1.2-1.1.6-2.1-1.7-2.3-1.9-2.6c-.2-.3-.9-.7-1.4-1.1-.5-.4-.9-.9-.9-.9s-1.2-.1-1.5 0c-.3.1-.9.3-1.4.1-.5-.2-1-.3-1.4-.6-.4-.3-1-1.1-1-1.1s.4-1.1-.1-1.1c-.6 0-1.2.7-1.3 0-.1-.7 0-1.3 0-1.3s.5-1.4.4-3c-.1-1.6-.1-2.1-.1-2.1l.3-.7s.4-.1 0-.6c-.4-.4-.7-.5-1.1-.7-.4-.2-1-.6-1.3-.6-.4 0-1 .5-1.7.1s-.8-.9-1.2-1c-.4-.1-1.2-.2-1.2-.2s-.5.4-1 0c-.3-.3-1.7-1.8-2.4-2.6-3 6.2-6.9 13.3-6 21.4-.5 1.1.5 2.9-.9 5.7l-.2 1.3c-1.3 3.4-6.6 10.5-10.2 13.2-7.2 4.7-23.2 7.7-26.7 18.8-3.6 15-14.4 27.7-27.3 38.3l-4 3.2-2.9 1.6c-.7 0-4.3 1.4-6.3.3-.9-.7-1.9.2-3.2 2.2l-1.6 1.3c-.4.8-2.6.9-4.5 2.7-4.6 3-11.1 5-18.4 8 1.2.5 2.1 1.7 2.3 1.8zM-88 200.7c.7.2.7.3 1.1.6.3.3.3.5.3 1s.4.2.8.6c.4.3.1.7.1 1.5s.1 1.3.3 1.8c.2.4.7 1 .9 1.2.2.3 1.2.1 1.5.1.3 0 1.7-.1 2 0 .3.1.5.7.5.7s.6.9 1.1 1.3c.5.4.8.1 1.3.1s1.5-.8 1.7-1.2c.2-.4.7.1 1.1.4.3.3.6 0 .6 0s2-.2 2.5-.2c.5.1.4.5.7.8.3.3.7.4.7.4s.9.5 1.4 1c.5.6 1.2 1.4 1.2 1.4s.8.3 1.3.6c.5.2.3.4.5.8.1.4.3.7.6 1.1.3.4.8.1 1.1.2.3.1.8.1 1.3.2s.8.6 1.3 1.2c.4.6.1 1.8.1 2.5.1-.1.6-.4.6-.7.1-.5.2-.8.2-1.1 0-.3-.1-.7.1-.8.2-.1.3.2.5-.4.2-.6.2-.9.2-.9s-.1-.6-.3-.8c-.2-.2-.3-.3-.3-.7 0-.3-.1-.9.1-1.1l.7-.7s1.2-.9 1-1.9c-.3-1-.9-1.7-.2-2 .7-.2 1.3-.8 1.4-1 .1-.2.7-1.3 1.1-1.8.4-.5 1.3-2.1 1.4-2.4.1-.2.4-.7.2-1.2-.2-.6-.3-1-.7-1-.4 0-.4.3-.8-.2-.4-.4-.5-.7-.6-.8-.1-.2-.5-.7-.5-.7s-.5-.3-.6-.7c0-.1-.1-.3-.1-.5h-.1.1v-1s.2-1.4.4-2.3c.3-.8.3-1.5.1-2.5-.2-1-.2-1.5-.6-1.9-.4-.3-1.1-.3-1.2-1-.1-.6.3-.8.7-1.1.3-.2.7-.4.6-1.1-.1-.7.2-.7.3-1.3.1-.6.3-.8.2-1.3-.1-.5-.3.1-.1-1.3.2-1.4.5-2.3.5-2.3s.9-1.1.3-1.7c-.6-.7-1.1-1.4-1.2-2.2-.2-.8-.7-1.2-.6-2.1.1-.9.7-.6.8-1.2.1-.6.1-.8.4-1.2.3-.3.8-1.1.8-1.1s.6-.3.3-.8c-.2-.6-.6-.8-.6-.8s.3-.5 0-.9-.8-1-1-1.2c-.2-.2-.7-.6 0-.8.7-.2 1.5 0 1.7-.6.3-.6.7-1.1.9-1.2.2-.1.7-.3.5-1.2-.2-1-.3-1.1-.1-1.4.2-.3.3-.8.3-1.4-.1-.6.3-1.9.5-2.5.2-.6 0-.8.6-1.6s.8-1 .6-1.7c-.2-.7-.1-1.5.1-1.9.2-.5 1.2-1.1 1.7-1.6.6-.4.2-1 .8-1.2.6-.2.2-.4 1.1-.3.8.1 1 .9 1.6.3.6-.6.1-1.2.8-1.2.7.1.8.2 1.5.2.4 0 1.5-.1 2.3-.1 0-.4-.3-.7-.3-2.5.4-2.3-.2-3.2 0-7.5l-.5-.1-.2-.3c-1.2 0-1.1 2-3.1 4.2 0-.2-.4 1.1-1.6-.2-.3-.2-.4-.8-.9-2.2-.1-.1-.4-.5-1.5-.4l-.5.2c-.4.2-.1 1.5-2.5.9 0 0-.9-.4-.5-.6.3-.4.5-.3.5-1.9.3-.6.4.2 1.6-1.3-.3 0 1.1-.7 0-1.7-.3 0-1.4.6-.2-1.2.4-.7 1-.8 1.6-2.7l.6-.4c-.1-.5-.2-.3-.6-1.5.4.5 1.8-.8 2.9-.7-.3.6-2 1.6 1.3 2.6.3.1 1.1 2.3 2.3.2.5-.7.9-.4 2.3-1.3.1-1.4 2.1-4.8 5-6.5 0 0 .6 0 1.2.2.5.1.6.1 2.8.2.9-.7 2.5-1.6 2.4-3.8-.9-.2-1.3-.8-1.3-3.3.7-1.6 1.6-4.4 5.3-3.4 1.5-.2 2-1.4 1.3-4.4.2.1-.4-1.4-1.2-2.2H-29l-1.5-.2-1.4.1-1.8 1.3s-.2.6-.9.7c-1.6.2-4 .2-6.4 1.7-.8.7-1.3 1.2-2.5 2.6-.8.4-3.9 1.4-5.7 2.6-.6.2-.9.9-3.4.8-.4-.2-.9-.2-.9-.2l-2 .3c-.2.1-1.1.5-2 1.3l-1.3.7-.9.1-.9.5c-.3.2-.8.1-.6 1.5l-.9.3c-.2.2-.6.6-.8.9-.1.2-.2.4-.1 1.8l.2 1 .6.4-.7 1.8s-.9.8-1.3 1.3c-.3.4-.1.5-.5 2.2.1.1-.9.4-.9 1.7-.4.2-.1 1.1-.4 3-.2 1.8 3.5-1.8 2.9 2.8 0 0 .2 1.1.1 1.3-.1.2-.4 1.1-.4 1.1v.9c.3 0-.7.7 1.2 1.7.2.1-.4.4.5 2.2 0 .4 1.4.3 1.1 2-.1.9.2.3-.2 2.7l-.6 1.4c-.1.3-.3.3.1 1 .2.6.2.3.4 1.7.5 4-6 14.7-7.9 17.9l-1.4 1.8c.1 0-.7.6-1.8 2.6-.2.3-4.6 6.2-5.2 6.9 0 0-3 3.8-3.6 4.8l-1.5 2.1-2.5 2c-.8.9-2.7 1.8-2.7 1.8.1-.2-2 1.2-2.5 2.5l-1.6 1.6-.1.1c.5.7 1.1 1.4 1.2 1.7.9.3 1.8.4 2.5.6z"/><path class="st8" d="M-136.4 255.5c.1 1.2-.3 2-.3 2s-.2.1-.1.7-.1.6.5 1l.6.4s.7.5.7 1.1c0 .7-.7.4 0 .7.7.2 1.8-.6 1.8.1s.6 1.2.6 1.7c0 .4-.1.7-.1 1.1 0 .5.2.8.8.8h2.6c.4 0 1.5.2 1.5.2s-.7.2.5.2h1.8s.2.2.6.4c.3.2.6.6 1.1.8.6.2.4.2 1 .2s.8-.3 1.2-.3c.5 0 .3-.1.9-.1h.6s.7 0 1.2-.1c.2 0 .3-.1.4-.1.1-.4.1-.8.5-1.1.4-.4.4-.9.9-1.1.6-.2.9-.2.9-.4v-1s.1-.5.4-.5h1.4s.4-.1.6.1c.1.2.7 1 .7 1s.7.1 1-.1c.3-.2.8-.4.8-.7v-1.1s.3-.4.6-.4c.3-.1.7-1.2.7-1.5 0-.3.1-1.1.3-1.6.2-.5.2-1 .4-1.4.2-.4.5-1.6.5-1.6s.1-.9.6-.3c.5.6.9 1 1.2 1.2.3.2.8.8 1.3.7.5-.1 1-.4 1-.4s.2-.7.4-1.1c.2-.4.2-.7.8-1.1.6-.4.4-.6 1.2-.5.8.1.9.3 1.2.4.2.1.1-.1.5-.4.4-.2.5-.3 1-.2.5.1.9.4.9-.1-.1-.5-.2-1.6-.1-1.9.1-.3.2-1.1.6-1 .4.1.9.2 1.2.2.3 0 .9.2.9.2l.6.1s.2-.4.4-.7c.1-.3.3-1.4.3-1.4s-.9-1.4-.9-2c0-.6-.4-1.7-.4-1.7s0-.6-.3-.7c-.3-.2-1-.6-.1-1.4 0 0 .5-.7.6-1 .1-.2.6-.6 1.2-.7.6-.1.7.5 1.3.9.6.4.8.6 1.4.6.6.1 1.1.2 1.6.4.5.1 1.5.7 1.6 1 0 .1.1.2.1.4.3-.2.7-.4.8-.9.1-.7-.2-1.1.2-1.6s1.1-1.1 1.2-1.5c.2-.3.4-.8.4-1.5-.1-.7-.1-1.5-.1-1.5s-.1-.8.3-1.1c.3-.3.6-.4 1-.7.4-.3 1.3-.8 1.3-.8s.6-.4 1.1-.2c.5.2 1.8.7 1.8.7s.8.4 1.5.4c.6.1.8-.1 1.2 0 .4.1.7 0 1.1.2.3.2.4.2.6.4.2.2.5.7.5.7s.6.6.8.1c.2-.6.2-1.8 1-1.9.7-.1.7.1 1.3.1.7 0 1.4-.3 1.4-.3s-.3-.8.6-.9c.8-.1 1.2-.2 2.1-.2 1 0 2.4.6 3.1.6.7 0 1.9-.1 2.2-.3.3-.2 1.1-.8 1.6-.7.4.1 1-.3 1.3-.3.4.1 1.9 1.3 2.1 0 .3-1.4.3-1.5.3-1.6 0-.2-.2-.7.2-.9.5-.2 1.4-.4 1.4-.8s.2-.3 0-1c-.2-.6-.6-1.1-.5-1.5.1-.4.2-1-.2-1.5s-.8-.8-1.2-1c-.3-.2-.5-.4-.4-.8.1-.3-.1-1-.4-1.2-.3-.2-1.1-.4-1.1-.4s-.5-.3-.5-.8c0-.6-.1-1-.5-1.7-.5-.7-1-.8-1-1.5v-.2h-.1.1c0-.7.3-1.9-.1-2.5-.5-.7-.8-1.1-1.3-1.2-.5-.1-1.1-.1-1.3-.2-.3-.1-.8.2-1.1-.2-.3-.4-.4-.7-.6-1.1-.1-.4.1-.6-.5-.8-.5-.2-1.3-.6-1.3-.6s-.7-.8-1.2-1.4c-.5-.6-1.4-1-1.4-1s-.4-.1-.7-.4c-.3-.3-.2-.7-.7-.8-.5-.1-2.5.2-2.5.2s-.3.3-.6 0-.8-.8-1.1-.4c-.2.4-1.2 1.2-1.7 1.2s-.8.3-1.3-.1-1.1-1.3-1.1-1.3-.1-.6-.5-.7c-.3-.1-1.7 0-2 0-.3 0-1.3.2-1.5-.1-.2-.3-.7-.8-.9-1.2-.2-.5-.3-1-.3-1.8s.3-1.1-.1-1.5c-.4-.3-.8-.1-.8-.6s0-.7-.3-1c-.3-.3-.4-.4-1.1-.6-.7-.2-1.6-.2-1.7-.8-.1-.3-.6-1-1.2-1.7-1.1 1.2-4.3 3.2-6.8 4.1-.1.9.6.7.2 2.5-.4.3-1.2 1.5-1.2 1.5 0 .2-1.4 1.2-1.4 2.8l-2.5 2.2c-.6.6-2.3 5.1-2.5 6.6l-1.5 1.8c-1.7.2-.3 3 .8 4.4-.3 3.3 2.7 6.3 5.8 10.2 1.9 2.3.5 4.3-.3 9.2-.1 1-2 2.6-3.1-.3-.3-.8 1.4-1 .6-2.2 0-.4-.1-.8-.1-1.6-.3-.6-.4.1-.9-1.3 0-.1 1.3.7 0-.5-.6-.6-1.5.4-2.7 1.7-.1 0-.6-.1-1.3.5-.1 2.5.7.2 1.3 2l.1 1c-1.6 1.1 1.6 2.9-.2 3.9-1.7-.5-2.1 2.7-4.2 1.3l-.6-.2c-.9.1-1.8-.1-2.8-1.5.3-.3-1.9-1.1-1.7.1.7 0 .9.2.3.6 1.3.1.7 1.5 2.1 2.1-.2 0 .5.4-.1 1.4.1-.1-.8.7-1.3.8l-.6-.4c-.1-.2-1.4.3.1 1.3-.1.2.6.3.6 1.2-.7.2-2.4 1.9-3-.5l-.5-.5s-.3-1-.4-.6c-.2.3.4 1.8-.9.5-.1-.6-.5-.8-.5-.8l-.8-.2c-2.7-.3-1.5 5 1.2 2.5 0 .2 1.4-.2.3.9l-.9 1.4c-.4.1-.7.8-2.3.7-.4 0-2.3.4-4.9.2 0 0-1.5.5-1.2 0 .3-.5.3-.4 1.4-.6.3-.4.5-.4.9-1.8.5-.3.8-.5.8-.5 2.5.4-.8-2.6-2.3 1-1.3-.3-2 1.4-4.5 1.5l-.9-.4-.4-.3c.4-1.7-.4-5.4-1.1-1.4-.3-.2-.7 0-.8-.6-.5-.1-1.1-.2-.3-1.4.2-.3.1-.7-.6-1.2l-.9 3.3s1.1.2 1.2 1.4zM-43.1 135c0-.2-.2-.4-.2-.4-.6-2.2-1.7 2.4-3.2 1.5-1.3-2.3-3.4 1.8-5-1-.3-.1-.4-.2-.2.9.1.4.6.5.6.5.1.7 1.2.9 2.1 2.8 0 0 .3-.5.5-.6.1-.5.8 1.3.9-.2l.8-1c-.1-.3.6.9 1.1.2.6 1 2.4.1 2-2.2.1.1.6-.3.6-.5zm69-48.8c.2-.2 1.8 1.1 3.4-.7-.3 0 2.4-.3 4.4-.5 2.1-2.1 4.5-3.9 8.7-7.8.6-2.8 1.9-3.8 3.8-8.8-.2-.5.7-1.1-.1-2.7-.1.2-.3-.6-1.6.6l-1.2.6c-.3-.2-1.2.5-3.1.1-.3-.3-1.6-.1-1.9-2.1.1-.3 0-.4.2-1.5.2-1.6 2.5-4.8 3.4-8.6.2-.5.6-1.6.8-3.4l.1-1.9.1-.5s.5-1.9-.1-1.9c-.3.2-1.7-.1-2.9 1.4-.1.2-.4.6-.9 1.9-.5.8.4 2.7-2.9 3.1-2.2 3.2-6.9 6.3-8.1 11.3-.1.3-.8-.3-.9 1.5-.2.2-.5.2-.4.9-.1.7.5.7-.1 2.8-.3.5-.4 2.2.5 4.3l.5.5s.1-.3.7-1.9l.3-.3c-.1-.1.6 0 .7-1 0 0 .8-.4 1.1-.3.7 1 1.2 0 2.7 2.6-.2.1 0 1.4-1.9 2.3-.7.4-1 1.3-1.3 2-.2.8-.4.1-.2 2.8-.1.2-.7 3.2-3.2 3-.1.5-2.9.2-.6 2.2z"/></g></g><path id="frame_1_" d="M293.1 1H1.1v232h292V1z" fill="none" stroke="#b7cedf" stroke-width="2"/></g></svg>