<svg version="1.1" xmlns="http://www.w3.org/2000/svg" xmlns:xlink="http://www.w3.org/1999/xlink" x="0" y="0" viewBox="0 0 458 434" xml:space="preserve"><style type="text/css">.st2{fill-rule:evenodd;clip-rule:evenodd;fill:#dbedff;stroke:#b2c5eb}.st10,.st11,.st6{stroke:#b2c5eb;stroke-width:1.0062}.st6{clip-path:url(#SVGID_2_);fill:#daeaf8}.st10{fill:#0c308e}.st11{fill:#daeaf8}</style><g id="map_1_"><g id="map"><g><rect id="Rectangle" width="458" height="434" fill-rule="evenodd" clip-rule="evenodd" fill="#fff"/></g><path id="Line-6" d="M316 339l-57.6-52.5H1S273 339 270.9 339H316z" fill-rule="evenodd" clip-rule="evenodd" fill="#eef7ff"/><g id="Group-21" transform="translate(120 134)"><g id="Group"><path id="Combined-Shape" class="st2" d="M89.1 242.5c.3.7.2 1.1.1 1.5s-.1.9.1 1.4c.1.5.9 2.6 2 3.2 1.1.6 2.9 1.1 3.4 1.2.5.1 1.7.3 1.9.1.2-.2.5-1.4 1.1-1.6.5-.2 1.4-.8 2.1-.5s1.8 1.4 2 2.1c.1.6.4 1.6-.1 2s-.9.6-1.1.9c-.2.2-.2.5-.5.7s-2.2.9-1.8 1.6c.4.6.6.9 1.6.9 1-.1.9-.2 1.4-.2s1.6-.2 1.9.1c.3.2.8 1.6 1.1 2.2.3.6.4 1.2.9 1.7s1.4 1.8 1.1 2.4-.6 1-.6 1.4.1.7-.2.9c-.3.2-2.2 1.8-3.1 3.4s-3 6.6-3.5 7.8c-.5 1.3-1.5 5.2-1.7 6.5-.1.5-.2 1.5-.3 2.4l-.1.6c-.1 1.1-.3 2.2-.4 2.6-.2.8-.6 2.9-1.1 3.4-.4.5-.6.9-1.3.8-.6-.2-.8-.5-1.5-.8s-1.2-.6-1.6-.4c-.5.3-.8.3-.8.9s-.2 3.2-.9 3.7-1.7 1.7-2.5 2c-.8.2-1.8.6-2.3 1-.1 0-.1.1-.2.1l-.2.1c-.4.3-.7.6-.8.3 0-.4.1-.6-.1-.7-.1-.2-.2-.3.3-.7.5-.4 1.6-2.3 1.6-3-.1-.7-.3-2.2-.5-3-.3-.8-.5-2.1-.5-2.3-.1-.2-.1-.5-.6-.5s-1.3-.3-1.1-.6c.2-.3.6-.5 1-.6.4 0 .8 0 .8.2s.1.3.3 0c.2-.3.9-1.2.7-1.6-.2-.4-1-.8-2.2.1s-2.5 2.3-2.2 3.7c.3 1.4 1.1 2.7 1.5 3.2s1.1 1.1 1 1.3c0 .2-.6 2.1-1.8 1.5-1.2-.6-2-1.2-3.1-1.4-1.1-.2-2.7-1-3-1.5-.4-.5-1-1.3-.4-1.5s2.6-1.2 2.7-2 .2-2.1-.4-2.9c-.5-.7-1.2-1.2-1.5-1.4-.3-.1-.5 0-.4-.4s.5-1.9.4-2.7c-.2-.8-.5-1.4-.6-1.8 0-.5-.7-1.5-.8-2-.1-.5-.3-1.8.2-1.6.5.2 1.5.9 2.2.9.6 0 1.7-.3 2.1-1.1s2.1-3.8 2.6-5.1c.5-1.1 1.2-2.8 1.3-3 0 0-.6 0-.7.1s-.7.1-1 .3c-.3.2-.4.3-.5.2-.1-.1-.1-.4-.3-.1-.2.3-.5.8-.6.4-.1-.3.4-1.1 1-1.6.5-.5 1.8-1.4 1.7-2.3-.2-.8-1.3-2.3-1.7-3-.4-.7-1.4-2.4-1.7-2.9-.3-.5-1.5-1.8-2.1-1.5s-.8.4-.9 1.1-.2 1.8-.3 2.2c-.1.5 0 .8-.4 1.3-.5.5-1.2.7-.8.9.5.2.9.1 1.7.2.8.1 1.6.3 2 .7.4.4 1.2 1.6 0 3-1.1 1.4-2.5 1.7-2.8.9-.3-.7-.3-1.9-.5-2.3 0-.1-.1-.2-.1-.2l-.1-.2c-.1-.4-.3-.8-1-.7-1 .1-1.4.3-1.9.9s-.8.6-1.5 1.3c-.7.7-1.1.8-1.4 1.2-.3.4-.5.7-.3.1s.6-1.7.4-2.3c-.3-.6-1.2-2.1-1.6-2.7-.5-.6-1.4-1.9-1.2-2.5.3-.6.5-1.4 1.3-1.1s1.6.9 1.8 1.3c.1.4.5 1.1.5 1.6s.1 1.2.3 1.1c.2-.1.5-.4 1.1-.3s1.2.5 1.1.1-.7-1.7-1.3-2.4c-.6-.7-1.6-1.5-2.3-1.8-.6-.4-3.5-2.3-3.5-3.6 0-1.3.4-2.1 1.4-2.2.9-.1 1-.1 1 0 0 0 2.9-3.5 3.7-2.9.8.6.9 1.4 1.3 1.5s.6.2 1.1-.4c.5-.6 1.6-2.7 2.2-2.8s1 .1 1.6.3c.5.2 1.4 0 1.7-.4.3-.4.9-3.3.9-3.3s.7-1.7 2-2c1.4-.3 1.4-.5 2.2-.5.8 0 1.4-.2 2.2-.4.6-.3 2.4-.9 2.7-.2zm50.8-7c.5.3 1.1.5 1.6.4.4-.1.7-.6 1.2-.2.6.4.7.5 1 .6.3 0 .5.4.7.7.1.3.7.9 1.2 1.3s1.5.7 2 .7 1.7.1 2 .4c.3.2.7.9.4 1.6-.3.8-.4 1.5-.1 2.2.4.7.9 1.1 1 2 0 .8.2 1.9-.3 2.5-.5.7-1.2 1-1.8 1.4-.5.4-1 .9-1.4 1.1-.5.3-1.3 1-1.8 1.5s-1.4 1.6-1.8 2.3c-.4.8-.7 1.7-1 2.3-.2.6-.4 1.1-.4 1.4 0 .4 0 1.1-.1.9-.2-.2-1.4-1.3-1.6-1.9-.2-.6-1.1-1.9-2-2.8-.9-.8-2.5-1.2-3.5-1.3s-1.8-.1-2.8.6c-.9.7-1.4 1.1-2.1 1.3-.6.3-2.2.8-2.5 1.4s-.4 2.1-.7 2.5c-.3.4-.9 1.7-1.3 2.2s-.9 1.2-1 1.4c-.1.2-.9.2-1.2.5-.2.3-.3.3-.3.8s-.1 1.5-.2 1.7-.3.5-.3.9-.1.7.1 1.1.7 1.3.3 1.2c-.4-.1-1-.5-1.3-.8-.2-.3-.3-.8-.6-.8-.3.1-.6.2-1.3.3-.6 0-.9-.2-1.5-.2s-1.6-.3-1.4-.5 1.2-1.4 1.2-1.6v-.2s.2-.4-1-.4-.9-.4-1.2-.5c-.4-.1-1.1.4-1.3.1-.1-.2.1-.9-.2-1.1-.3-.3-1-1.1-.7-1.5.3-.3.9-.7.9-1.3.1-.7.2-1.1.4-1.3.2-.2 1-.7.9-.9-.1-.1-1.2-1.3-1.6-1.6-.4-.3-1.1-1.2-1-1.7.2-.5.6-1.3-.1-1.5-.7-.1-1.5.3-1.9.5s-.8.5-1.3.8-1.7.4-1.1.1c.5-.4 1.9-1 2.3-1.3s1.7-1.1 2.1-1.2c.3-.1.8-.5 1.2-.9.4-.3.6-.6 1.1-1s1.2-.5 1.6-.9 1.2-.8 1.3-1.1c.1-.3.4-1.7.4-2.1 0-.4.7-1.7 1-2.2.3-.4.6-1.3 1-1.7s1.2-.8 1.5-1.2.7-1.4 1-.9.6 1.4.8 1.9c.2.5 1.2 2.2 1.5 2.3.3 0 .3 0 .9-.2.6-.3 1-.5 1.8-.6.8-.1 1.2-.1 1.4-.1s1.6.1 1.6.1 2.1-.6 2.5-1.5c.3-.9.2-1.6.2-2 0-.3-.5-1.2.2-1.3.6-.1.6.1 1.3-.5.6-.5.8-1.2 1.3-1.1.4.1.7 0 1.2-.5.4-.2 1.1-.8 1.6-.6zM258.5 90.1c.1-.2.3.2.4.3.1.1.5.3.6.3.1.1.5.4.7.5s.5.1.9.1.7.2.8.4c.2.2.8 1 .9 1.2s.9.8 1.5 1 1.4.1 1.6 0c.2 0 1.6-1.1 1.7-1.2.1-.2.3-.2.3-.2s-.1.8-.2.9c0 .2-.1.6-.2.8-.1.2-.5 2.4-.5 2.4s-.5.9-.4 1.3 0 2.6 0 3.2c0 .3 0 1.1.1 2v.5c0 1 .1 1.9.1 2.2v.2l.1.3c.2 1.1.7 3.3 1 3.7.4.5 1.2 1.2 1.6 1.6.5.4 1.4 1 1.6 1.2.3.3.8.7 1.1 1.2.3.5 1.1 1.7 1.1 2s.1 1.7.3 2c.2.3.4.6.6.8.2.2 0 .7 0 1.1s.2 1.2.5 1.5 1.1 1 1.2 1.4.5 1.9.6 2.3c.1.5.2 1 .2 1.4s-.3 2.5-.3 2.8-.2.7 0 .9.7.1.9.3c.2.2.3 1.2.1 1.6-.2.5-.3.7-.2 1 .1.3.4.7.1 1.2s-.9 1.3-1.1 1.7-.5.7-.6 1.2v.7c0 .3 0 .6-.1.7-.3.2-.7.6-.8 1 0 .4.1 1.1.1 1.2 0 .1 0 .4-.3.7s-.6.6-1.1.9c-.5.3-1-.1-1.1.2s-.3.9-.2 1c0 .1 0 .5-.3.3s-.8-.7-.7-.4c.1.4-.1.9 0 1.1.1.3.4 1 .1 1s-.4-.5-.5-.1c0 .4-.5.2-.6.1-.1-.2-.4-.4-.4-.1 0 .4-.1 1-.3 1.3-.2.3-.5.9-.4 1.4s.3.7.2.9c-.2.2-.3.5-.6.6-.4.2-.9.4-.6.6.3.2.6.2.5.5s-.1.6-.2 1c0 .4.1.7.3.9.3.3.5.5.3.7-.3.1-.2-.2-.5.1s-.5.7-.5.9-.3.4 0 .7c.3.2.5.2.6.4s-.1 0 .1.5.3.3.3.8.2 1.5-.1 1.2c-.3-.3-.7-.9-1.1-1.1-.4-.2-.9-.4-.6-.5.3-.2.7-.3.3-.5-.5-.2-.6-.3-.8-.2-.2.1-.1.2-.4-.1-.3-.2-.5-.4-1.2-.4-.6 0-1.1.3-1.4.6-.4.3-.6.4-.7.7 0 .3-.1.5-.3.6-.2 0-.3 0-.4-.4-.2-.4-.2-.6-.5-.5-.4.1-.6.2-.7.5s-.2 1.3-.5 1.9c-.3.6-.4.9-.8 1.3s-.9 1.2-.9 1.6c-.1.4-.4 1.3-.4 1.9.1.6.1 1.5.1 1.8s.6 1.7.7 1.9.4.5.5 1.1.4 1.7.4 2.6c.1.8.4 3.4.5 3.9 0 .5.2 2.1.1 2.6s-.2 1.2-.4 1.7c-.2.6-.2.5-.3 1.2-.2.7-.2 1.3-.4 1.9-.2.6-.4 1.7-.6 2.2-.3.4-.5.6-.9.9-.5.4-.9.6-1.1.9-.2.2-.3 1.2-.6 1.3-.3.1-.6.2-.7.6-.1.4-.5 1.9-.6 2.3-.2.4-.4 1.1-.6 1.6-.2.5-.8.8-.8 1.2s-.2.9-.2 1.2c0 .4.1.9 0 1.1-.1.2-.1.5 0 .7s.3.7-.2 1.2-1 1-1 1.3c0 .4-.2 1.4-.1 1.8.1.5.3 1.3.5 1.5.1.2 1.2 1.6 1.4 2s.8 1.2 1.1 1.6c.3.5 1.5 2.3 1.6 2.6.2.4.7 1.2.7 1.3s.1.3-.2.2c-.3-.1-1.6-.1-2.4 0-.7.1-1.1.3-1.6.6s-1.7 1.4-2 2-1.1 1.6-1.2 2.5c-.1.9-.3 2.8-.4 3.2v.2c-.2.7-.7 2.5-1 2.6-.4 0-1.6.1-2 .2-.4.1-1.2.3-1.7.7s-.8.8-1.3 1.1c-.5.2-.9.4-1.1.9-.2.5-.4 1.5-.8 1.6-.4.1-1.2.2-1.5-.1-.1-.1-.3-.2-.5-.3l-.2-.1c-.4-.2-.7-.3-.5-.5.4-.4 1-.7 1.1-1.4s0-2.5-.1-2.9c0-.4-.4-1.9-.4-2.1 0-.2 0-.5.2-.7s.6-.5.9-.7c.3-.1.5-.2.5-.5.1-.3.7-1 .9-1.2.2-.3.6-.7.9-1 .3-.3 1.3-1.5.8-2s-1.3-.9-2.1-.9c-.7 0-1.6.2-2 .6-.4.4-1.2 1.5-1.5 1.8-.3.4-.6 1-.9 1.4-.2.4-.8.9-.6 1.3l.2.3c.3.4.6 1.1.7 1.4.1.4.4 1.9-.2 2.6-.5.7-1.4 1.2-1.3.4.1-.8-.6-1.9-.8-2.2s-1.4-.8-1.9-.9c-.5-.1-1.3-.1-1.8 0s-1.5.3-2 .6-1.3.8-1.4 1c-.1.2-.2.5-.1.9s.3.8.1.7-1.2.6-1.2 1.1.1 1.2.2 1.5c.1.3.5.9.6 1 0 .2.2 1.5-.8 2.6-1 1.2-1.4 2.5-1.7 2.9-.4.5-1.2 1.2-1.7 1s-1.3-.8-1.6-.9c-.3-.1-.5-.7-.4-1.3s.2-1.8.2-2.3-.1-1.2-.1-1.7.3-1.2.8-1.3 1.3-.4 1.3-.8c0-.3-.9-1-1.5-1.3s-1.8-.4-2.7-.2c-.8.2-1.6.8-1.8 1.1-.3.2-.5.2-.4.7s.5.8.1 1l-1.6.8c-.5.2-.9.4-1.1.7-.1.4-.4 1.3-.8 1.8s-1.3 1.1-1.4 1.6c-.1.5-.5 1.2-.4 1.6.1.4.4 1 .1.9-.2 0-.7-.2-1.2-.4l-.4-.1c-.2-.1-.5-.2-.7-.3-.8-.3-1.4-.6-2.5-.4-1 .2-1.7.4-2.3.4-.6-.1-1.9-.5-2.6-.6-.7 0-2.6 0-3.8.2s-3.5 1-4.1 1.2-2.7.3-2.6 0c.2-.3.9-1.2 1.2-1 .3.1.6.5.8 0 .3-.5 1-1 1.5-1.1s.7-.2 1 0 .3-.1.3-.5-.1-1.1-.5-1.3-.9-.5-1.1-.1c-.2.4-.1.7-.6.6-.5-.1-1.7-.1-2.3-.4-.5-.3-.8-.2-1-.5-.2-.4-.5-1.2-.6-.8-.2.4-.4.9-.2 1.6.2.6.8 1.4.5 1.4-.3.1-1.1-.2-1.7-1.3-.6-1.1-.5-1.9-.4-2.7s.3-1.6.3-1.9 0-.5-.3-.5-.3.1-.7.2c-.4.1-.6 0-.9.2-.3.2-.5.5-.7.7s-.6.8-.7 1.1c-.2.4-1.5 2.1-1.8 2.7-.3.6-.5 2-.2 2.6s1.5 1.7 2 1.9 1.6.9 2.1.9c.5.1 1.5.3 1.7.7s.9 1.2.5 1.8c-.5.5-.6.9-.9 1.4-.3.4-.7.9-.8.8-.1-.1-.4-.5-.8-.7-.3-.1-.5-.2-.8-.2s-.5-.4-.7-.1c-.2.3-.3.7-.9.8-.5.1-.7.1-1.1.2-.4.1-.6.2-.8.4s-.8.4-1.4.5c-.6.2-1.6.4-1.8.9s-.2.9-.3 1.2c-.1.2-.3.4-.6.4-.4 0-.8.1-.7.4.1.3 1.1 1.1.9 1.4-.2.4-.6.5-.8.8s-.3.4-.4.5c-.1.1-.3 0-.5.3-.2.2-.7.5-1 .7s-.8.8-.8 1.2c-.1.5-.5 1.1-.6 1.4-.2.3-.1.6-.4.9-.3.3-.8 1.1-.8 1.3s-.4.9-1.2 1.6c-.8.6-1.4 1.5-2.6 1.5-1.2 0-2.9-.5-3.8-.8-.9-.3-1.8-1.1-2-1.7-.2-.5-.5-.9-.7-1s-.7-.4-.3-.5 1.4-.2 1-.5-.7-.7-1.3-.9-1.2-.2-1.4-.5c-.2-.4-.5-1.2-1.1-1.6-.6-.3-1-.4-1.3-.4-.3-.1-.6-.2-.4-.5.2-.3.5-.5.4-.8-.2-.2-.8-.2-.3-.5.5-.2 1.7-.7 1.6-1 0-.3-.3-.6-.6-.7-.4-.1-.7.2-.6-.3.1-.5.3-1 .5-1s1 0 .9-.4-.7-1.4-1-1.5c-.3-.2-.6-1-.3-1.4s1.1-.6 1.5-.9c.4-.3 2.1-1.6 2.4-2 .3-.4.7-1.3 1-1.7s.8-.8.8-1.2-.4-.9-.4-1.1c0-.2-.5-.6-1-.8-.5-.1-1.6-.3-2-.1s-1.2 1-1.5 1c-.1 0-.5.1-.9.1.2.3.2.7.1 1-.3.4-.7.8-1.1 1.4-.3.5-.5.9-.7 1.4-.1.5-.3 2.3-.5 2.6-.3.3-.8.5-1.3.7-.5.1-2.5-.4-2.5-.9 0-.4 0-1.5.5-2 .4-.5 1.7-1.8 1.7-1.8s1.1-1 1.3-1.2.5-.7.8-1c-.1 0-.2 0-.3-.1-1-.3-2.4-1-2.7-1.4-.4-.4-1-1-1.8-1.1s-3.4-.1-3.6-.2c-.2 0-.4-.2-.8.1-.4.2-.5.6-1.5.7-1 .1-1.3 0-1.8 0s-.6.2-.8.6c-.2.3-.8 1.4-1.1 1.6-.4.2-.8.9-1.5.6-.7-.3-.8-.8-1.1-.6s-.8.7-.5.7.8-.1.9.2c0 .3-.5 1.7-1.4 1.9s-2.2.5-2.7.4c-.5-.2-.9-.2-.9-.6-.1-.4 0-.9-.3-.8-.2.2-.6.1-.9.4-.3.3-.3.6-.9.7-.6.2-1.3.6-1.8.3s-.5-.4-.7-.2c-.3.2-.6.3-.7.5-.1.3-.4 1-1.4.9-.9 0-.9-.5-1.5-.5-.5 0-2 .3-2.4.5s-1.8 1.1-2.5 1.4c-.7.3-2.1.6-2.4.8-.3.1-.8.8-1.1.9-.4.1-1.1.2-1.5.2-.5 0-.6.2-1.2.1s-.6-.8-.8-1.4c-.3-.5-.9-1.7-1.8-1.7-.9.1-1.4.8-1.7 1.2-.4.4-.9 1.1-1 1.5-.1.5 0 1.3-.2 1.6-.2.2-.5.5-.5.9s.1 1.5 0 1.8-.3.9-.6.9c-.3.1-.8 0-.7.3.1.3.4 1.1.3 1.5 0 .4 0 .5-.5.9-.6.4-1.4.7-1.2.4.2-.2.1-.7.5-.7s.6.1.6-.3-.6-.9-1.1-1-1.2-.3-1.5-.5-.7-.8-1.4-.8c-.7-.1-1 0-1.3 0s-.5-.2-.4-.4c.2-.2 0-.9-.5-.9s-2.1.2-2.8.4c-.7.2-2.2.3-2.6.4-.5.1-1.2.2-1.6.6-.4.3-.5.7-1.3.7s-1.6-.5-2.2-.8c-.7-.3-.6-.5-1.6-.6-.9 0-1.7-.1-1.7-.5s.1-1.1-.3-1.3c-.5-.2-1-.4-.8-.5s.8-.6.8-1c0-.2 0-.4-.1-.7l-.1-.3c-.1-.4-.2-.8-.1-.9.1-.2 1-1.1 1.2-1.4.2-.2.6-1.1.9-1.1.3-.1.8-.2 1.3.1s1.4.8 2 .7c.5-.1 1.6-.2 2.1-.4.5-.3 1.6-.9 1.9-1.4.4-.5 1.4-2 1.8-2.5s.9-1.2 1.6-1.3c.6-.1 1.6-.2 2.1-.3s1-.5 1.5-1c.5-.6 1.7-1.4 2-1.8.3-.4 1.3-1.1 1.6-1.4.3-.3 1.7-1.9 2.2-2.1.5-.2 2.2-1.3 2.3-1.6.2-.2 1.1-1.2 1.2-1.4s1.3-1.3 1.7-1.6c.4-.3 1.9-1.5 2-1.8s.5-1.8.8-2.1.8-.4 1.1-.5c.3-.1.7-.7 1-.7.2 0 1.2-.2 1.6-.4s1.5-.2 1.7-.3.7-.5 1.1-.8.5-.5.9-.4c.4.2 1.1.4 1.2.6.1.2.2.7 0 .9s-.8.6-.6 1c.1.4.6 1.1 1.2.9.6-.2 1.6-.5 1.9-.9.3-.4 1.5-1.4 2.3-1.4s3 .4 4 .5 2.6.1 3-.1c.4-.2 1.5-.3 2.4-.3s2.2.1 2.9-.1c.7-.2 2.2-1.1 2.6-1.3.4-.2 2.3-.9 2.9-1 .6 0 2.3-.1 3.1.1.8.1 1.6.3 2.1.2s.7-.3 1.1-.3c.4.1 1.1-.1 1.5-.3s1.9-1.1 2.4-1.1c.5-.1 2.3-.9 2.8-.5.5.3 1 1.4.7 1.6-.3.2-.7.4-1 .8-.3.4-.7 1-.4 1.3.4.3.4.2.9.7s.6 1.5 1 1.2.5-.4.4-.8c-.1-.4-.5-.6 0-.8s1.2-.5 1.6-.3c.4.2.1.5.5.4.5-.1 1.1-.1 1.5.2s1.8 1.1 2.1.9c.4-.2.9-1.1 1.5-1.3s1.5-1 1.8-1.3.9-1.4 1.5-1.3c.5.2 1.3.5 1.5.3s.1-1 .4-1.6c.3-.5-.2-1-.5-1.6s-1.9-2.2-1.6-2.9c.3-.8.8-2.2 1.2-2.6.5-.4 1.2-1.3 1.3-1.8s.1-1.1.5-1.2c.4-.1 2-1 2.2-1.3.3-.3 2.4-1.9 2.8-2.3.4-.4 2.9-3.4 3.6-4.5.1-.2.3-.5.5-.9l.3-.8s.9-2.1 1.2-3.8c.3-1.6-.3-2.3-1-3.6s-.5-2-.1-3.1 2-2.6 3.1-2.7c1.1-.1 2.4-1.1 3.2-1.4.8-.3 2.4-1.5 3.6-1.1 1.3.4 0 2.1-.4 2.6s-.4 1.5-.4 1.8-1.2.5-1.6.7c-.4.2-1.5 1.2-1.8 1.5s-1.2.1-1.7-.1c-.4-.2-.9.6-1.2 1.4s.3.9.9 1.2c.6.3 1.3-.2 1.8-.4.4-.2.4.4.4 1v.6c0 .8 0 1.6-.7 2.5-.6.9.5 1.6.5 1.6l.9.5c.4.2.7.3 1.1.4 1 .2 3 .3 3.5-.3s.8-2.4 1.2-2.7 1-.7 1.8-.9c.9-.2 1.9-.3 2.4-.5s2-.6 2.6-.9c.6-.3 1.4-.5 2.1-.9.6-.4 1.3-.7 1.6-1s.5-.9 1.1-.9 2.3.1 2.9-.6c.7-.7 2.2-2.2 2.8-2.6s1.6-.7 1.9-1.3c.4-.7.5-1.1 1-1.6.3-.3.6-.7.8-.9l.1-.1.1-.1c.1-.1.7-1.2.7-1.2.3-.7.8-1.8 1.1-2.5s.8-1.7 1.3-2.2c.4-.5 1.7-1.4 2-1.6.3-.2 2.7-1.6 3.6-1.9.9-.3 2.9-2.1 3.4-2.7.5-.6.8-2.5.8-3.1s1.4-4.4 1.6-4.8.7-2.2.9-2.6c.2-.4 1.5-1.4 1.7-1.9.2-.4 1.1-1.5 1.4-2 .3-.5.7-1.7.7-2.1 0-.4.6-1.5.7-1.9.1-.4.2-1 .3-1.5s.5-2.5.5-2.9c0-.5 1.3-1.4 1.6-1.8.3-.4.3-1.3.3-1.6 0-.4.2-1.2.4-1.7.1-.4.2-1.1.4-1.5.3-.3.2-2.3.2-2.7s-.4-1.2-.7-1.6-.5-1.2-.6-1.6c0-.3-.5-.9-.8-1.1-.2-.2-.9 0-1.1.1-.2.1-1.2.4-1.9.5s-1.1-.9-1.2-1.2c-.1-.3.3-.8.4-.8.1 0 1.5-.2 2.1-.3.6-.1 1.4-1 1.7-1.4.4-.4 1.1-2.8 1.1-3.2.1-.5.2-2.5.1-2.9-.1-.5-.8-1-1-1.2s-.3-.7-.4-1c-.1-.3.1-.9.1-1.1v-1.1c0-.2-.4-.3-.8-.5-.4-.1-.4-.4-.6-.5-.2-.2.5-.7.6-.8.1-.2.6-.5.8-.7s.7-1 .8-1.3.6-.5.8-.6.8.2 1.2.4c.3.1.8-.3.9-.4 0-.1.8-.2 1-.3.2-.2.6-.4.6-.5s.4-1 .5-1.3.1-.9.2-1.3.2-1.2.3-1.5c0-.3.2-1.1.2-1.4s-.7-.8-.9-.9-.2-.4-.2-.6.7 0 .8 0c.2 0 .2-.4.2-.6s.1-1.1.1-1.3c0-.3.2-.7.3-.6.1 0 .6.3.9.6.3.3.5.6.8.8.3.1.7-.2.9-.4.2-.2.7-.4 1-.3.3 0 .9.5 1.1.7.2.2.3.8.2 1s-.1 1.1-.1 1.1.3 1.3.3 1.4.2 1.5.2 1.8c0 .4.3 1.3.3 1.5s.5.5.8.8c.3.2.6.1.8.1.3-.1.3-.1.5-.4.1-.3.6-.7.8-1 .2-.3.1-.6 0-1s0-.4.1-.5.3-.6.4-.9.4.2.6.2c.1 0 .6.2.7.3.1.2.5.7.6.9.1.2.7.5.9.6.2.1.7.5.8.7.1.2.5.2.8 0s.7-.8.8-1.1c.1-.3.7-1.6.8-1.8.1-.3.1-1.4.2-1.8 0-.4.3-.6.4-.9 0-.3-.1-1.2-.3-1.5-.2-.3-.7-.8-.8-.9-.1-.1-.3-.4-.4-.4-.2 0-.4.5-.4.7s-.3.4-.5.6-.5.3-.8.4-.6.3-.7.3-.6-.2-.7-.2c-.1-.1-.4.1-.5.2s-.3.3-.6.3c-.2 0-.7.1-.9.1-.2 0-.6.3-.8.4-.2.1-.6.3-.7.3s-.3-.2-.5-.3c-.2-.1 0-.8 0-1.1 0-.3.2-.7.3-1.1.1-.3.3-.9.3-1.5 0-.5.3-.6.3-.8 0-.2.3-1.2.5-1.6s.5-.6.8-.8c.2-.2.2-.8.2-1s-.6-.6-.5-.8zm-41.9 67.6c.2 0 .2.5.2.9 0 .5-.2 1.3-.4 1.8s-1.1 1.5-.8 1.9c.4.3.5.5 1 .6h.3c.4 0 .7.1.8.4.1.4-.2 2-1.2 2.9s-1.7 1.3-2.3 1.6-2 .6-2.4.6c-.3 0-.4-.4.1-.6.5-.2.8-.3.8-.8s0-1 .3-1.2.9-.8.5-1.1-.5-.6-.9-.2c-.3.3-.3.9-.6.7s-.5-.8-.5-1.1.1-.7.2-1c0-.3.3-.6.5-.9.1-.3.9-1.4.9-1.4s.7-.9 1.1-1.1c.3-.1 1-.7 1.2-.9.4-.3 1-1.1 1.2-1.1zm56-156c1.4-2 2.3 1.2 3.2 2 1.1 1.1 2.2 1.9 3.2 3.2.1.2.2.3.4.5l.7 1c.6.8 1.2 1.6 1.9 2.3 3 3 4.4 7.1 7.3 10.3 1.1 1.2 2.3 2.2 3.5 3.2 1.3 1.2 2.7 2.4 4.3 3.4 1.5.9 3.2 1.3 4.7 2.3.4.3.9.6 1.3.8 2.5 1.4 4.9 2.1 7.8 3.1 2.9 1.1 5.6 3.6 8.9 3.1s5.5-3.6 7.5-5.9c.7-.8 2.9-3.8 3-1.4.2 3.5-3.8 5.8-4.5 9-.5 2.7 2.3 4.4 2.7 6.9.2 1.1-.3 2.3-.1 3.4.2 1.1 1.1 2.1 2.2 2.4.6.2 1.6.3 2.2.1.7-.2.9-.9 1.2-1.4.4-.6.9-1.1 1.7-1.4.5-.1 1.4-.2 1.5.4.1.5-.8 1.1-1.2 1.4-1.3 1.1-2.4 2.9-4.2 3.3-1.8.4-3.6-.1-5.2 1.1-.8.6-1.2 1.5-2 2s-1.4.2-1.9-.1l-.2-.1c-.3-.2-.7-.4-1-.3-.8.1-1 1.2-1.5 1.7-.7.7-2.2.1-3-.2-1.7-.5-3.9-.9-5.6-.4-3.1 1-5.5 3.2-7.7 5.4-2.8 2.8-6.1 5.7-7.1 9.7-.3 1.3.4 2.5.1 3.9-.2 1.5-1.4 2.6-1.4 4.2-2.2-2.5-5-3.9-8-5.3l-.9-.4c-1-.5-2.1-1-3.1-1.5-1.5-.8-3-1.6-4.3-2.8-.9-.8-2.1-1.4-3.2-2-2.1-1.1-3.9-2.8-6.3-3.5-.8-.2-1.5 0-2.2.2-1.6.5-3 1.4-4.3 2.3-1.2.8-3.4 5.4-5.3 4.6-.5-.2-.6-.9-.9-1.4-.2-.5-.6-.9-.9-1.3-.7-1.1-1.4-2.2-2.6-2.9-1.4-.8-4-.6-5.2.5-1.1 1.1-2 2.8-2.2 4.3-.3 2.3 1.1 2.3 2.6 3.5 1 .8 1.5 1.5 2.8 1.5 2.5.1 3.4 1 4.9 2.8.8.9 1.1 1.5 2.2 2.1 1.2.6 2.7 1.3 1.5 2.5-.5.5-1.8 1.6-2.7 1.2-.8-.3-1.4-1-2.1-1.4-.8-.4-1.4-.3-2.3-.3-1.8 0-2.9 1.3-3.9 2.5-.7.8-.6 1.7-.8 2.6-.2.6-1.5 1.3-2 1.7-.3.2-1.6 1.7-1.8 1.7-2.1-.2-3.3-1.7-3.4-3.7 0-1.1.5-5.4 2.2-4.9 0-1.3.5-2.6.1-3.9-.2-.8-.9-1.9-1.5-2.4-.7-.5-1.5-.6-2.1-1.1-.5-.4-.7-1.1-1.2-1.6-2.1-2 .2-8 2.1-9.6 2.1-1.8 5.7-2.2 7.5-4.2.8-.9 1.5-2.2 1.7-3.5s-1.2-2.3-2-3.1c-1-1.1-1.2-3.6.7-4 2.9-.6 3.5 2.2 5.8 3 .5.2 1.1.2 1.7.2s1.3-.4 1.8-.3c.9.1 1.5 1 2.4 1.1 1.1.1 2.3-.4 3-1.2.8-.9 1.7-1.9 1.9-3.1.2-1.4-.6-1.8-1-3-.2-.8.2-1.6 0-2.5-.2-1.1-.8-1.8-.6-2.9.3-1.3 1.3-1.6 2.4-2.1 1.2-.5 1.5-1 2.3-1.9.1-.1.1-.3.1-.4l.1-.1s-.1-.2-.1-.4c.1-.2.3-1.2.3-1.5.1-1.6-.1-3.2 0-4.8.1-1.4.6-2.6 1.1-3.9.4-1 .4-2 .7-3.1.6-2.5 0-5-.5-7.4-.2-.9-.7-1.9-1.1-2.8l-.4-.7c-.6-1.2-1.2-2.5-1.3-3.8 0-1.6.7-4.5 2.6-5 1.5-.5 2.3-.6 3-1.5z"/><path id="Fill-101" class="st2" d="M4.9 261c-.1 0-.1-.2-.1-.3 0-.2.1-.3.1-.4-.1-.1-.1-.1 0-.3.1-.2-.1-.5-.2-.5s-.1-.1 0-.2c.1 0 .1-.2 0-.4s-.1-.2 0-.3c0-.1-.1-.3-.2-.4s-.2-.1-.3-.3c-.1-.2-.1-.3 0-.5s-.1-.2-.2-.2-.2 0-.3.1c-.1.2-.1-.2-.2-.3-.1-.1-.2-.2-.2-.3 0-.1-.3-.2-.4-.2-.1 0-.1-.2-.3-.3-.1 0-.1-.2 0-.3s-.1-.1-.2-.1-.1 0-.2.1c0 .1-.1.1-.2.1s-.1.1-.2.3c-.1.2 0 .3.1.4.1.1.2.1.2.2s-.1.3-.1.4c-.1.1-.2.4-.4.7-.2.3-.2.5-.3.6 0 .1 0 .2-.1.3-.1 0-.1.1-.2.3 0 .2-.1.1-.2.2s-.1.1-.2.3c-.2.1-.3.2-.3.4s-.1.2-.3.2c-.2.1-.3.2-.4.3-.1.1-.1.4-.3.4s-.3 0-.4.1-.3.2-.5.1-.2 0-.2.1.1.1.2.3c.1.2.1.6 0 .7l-.1.1c-.1.1-.2.2-.4.3-.2.2-.6.2-.8.3-.2 0-.3.1-.3.2s0 .3-.1.3c-.2 0-.2.1-.2.2s0 .1-.1.2-.1.3 0 .5.3.1.5.1c.1 0 .2.1.3.2 0 .1 0 .1.2.2.1.1-.1.1-.1 0H-3c-.1 0-.2 0-.2-.1s.1-.1 0-.2-.1 0-.1 0c0 .1-.2.1-.2-.1 0-.1-.1-.1-.2-.1s-.1.1.1.1c.1 0 .1.1-.1.2-.1.1-.3.2-.5.5l-.2.2c-.1.1-.2.1-.2.1-.1 0-.4.1-.7.3-.3.2-.3.1-.5 0-.3-.1-.2.1-.3.2-.1.1-.3.1-.4 0s-.2 0-.3 0c-.1 0-.2 0-.3-.1-.1-.1 0-.1 0-.2s-.1-.1-.2-.2-.1-.1-.2-.1h-.2c-.1 0-.1-.1-.2-.1 0-.1.1-.1.2-.1.1.1.1 0 .1-.1-.1-.1 0-.2.1-.3 0-.1.1-.3.1-.4s.1-.3.2-.3l.3-.3c.1-.1.1-.1 0-.1s-.4-.1-.5-.2-.4-.1-.6-.2c-.2-.1-.1.1-.2.1s-.1-.1-.1-.2c.1-.1.1-.2 0-.2s-.3-.1-.5-.1c-.2-.1-.3 0-.5.1s-.7.1-.9.1h-.4c-.1 0-.2.1-.3 0-.1 0-.3-.1-.4-.1-.1 0-.1-.1-.2-.2s-.1 0-.1.1-.1.2-.1.3c0 .1 0 .1-.1.2s-.1.2-.1.3c0 .1 0 .2.1.1.1 0 .1 0 .2.1s.3.3.3.4 0 .3.1.4 0 .1-.2.1-.2.1-.3.3c0 .2 0 .5.1.6 0 .1.2.2.2.3 0 .1 0 .2.1.3.1.1.2.3.2.5s.1.2.3.2c.1 0 .1 0 .3.1s.2 0 .3-.1.1-.2.1-.2h.2c.1 0 .2.1.3.2s.1.2.4.1c.2 0 .2 0 .5.3.3.2.7.2.8.3.1 0 .2.1.2.4s-.1.5-.2.7-.2.3-.3.4-.1.2-.3.4c-.1.2-.1.1-.2 0 0-.1-.1-.1-.2 0l-.3.3c-.1.1-.2 0-.3-.1-.1-.2-.2-.1-.1.1s-.2.2-.2.3c0 .1 0 .2-.2.2s-.1 0-.2.4-.2 0-.4 0c-.2.1-.4.2-.5.2s-.1.1-.1.2 0 .1-.2.2-.2 0-.3-.1-.1-.1-.3-.2c-.1-.1-.2.1-.2.2s0 .1-.2 0c-.1-.1-.1 0-.1.1v.1c-.1 0-.1-.1-.1-.1-.1-.1-.2 0-.3 0s0 .2-.1.3c-.1.1-.1.1.1.4.1.3 0 .3-.2.3s-.2.1-.2.2c0 .2-.2.3-.3.3s-.1 0-.2.1-.3.2-.3.2c0 .1-.2.2-.3.2s-.1.2 0 .3c.1.1.1.2 0 .3-.1.1-.2.1-.3.1h-.2c-.1 0-.1.1-.2 0l-.2-.2c-.1-.1-.2 0-.2-.1s0-.1-.1 0-.1.2-.1.2c-.1 0-.1.1-.3.2-.2 0-.4.2-.4.3 0 .1-.1.1-.2.1h-.2c-.1-.1-.3-.3-.4-.5s-.2-.2-.3-.2c-.2 0-.2 0-.1.1s.1.2.1.3v.8c0 .5.4.9.6 1.3.1.2.2.4.3.7.1.3.3.6.3.7 0 .2-.1.4-.1.4-.1.1 0 .3.1.4s.1.1.3.1c.1-.1.2.2.2.3v.7c0 .1-.1.1-.1.1-.1 0-.1.1-.2.2s-.2.2-.3.2c-.1.1-.1.2-.2.1h-.2v.2c0 .1-.1.1-.2.2h-.1c-.1.1-.1.1-.2 0 0-.1 0-.1-.2-.1-.1 0-.1.1-.2 0-.2 0-.1.1-.2.2s-.1.2-.1.2c0 .1-.2.1-.3.2-.1.1-.1.1-.2.1s-.1 0-.2.1c-.1 0-.1.1 0 .2s.1.1.1.2v.1c0 .1-.1.1-.1 0-.1 0-.1-.1-.2-.2l-.2-.2c-.1 0-.1.1 0 .2s.1.2.1.3c0 .2 0 .1.1 0s0-.1.1-.1c.1.1.1.4.2.5s.1.2 0 .1h-.2c-.1 0-.2.1-.4.2-.1.1 0 .2.1.3.2.1.2.1.1.1s-.1.1-.3-.1c-.2-.2-.3-.1-.4-.1s-.1-.1-.2-.1c0 0-.1 0-.2.1s0 .1-.1.2-.1.1 0 .2c.1 0 .1.2-.1.2s-.2.1-.1.2.2.3.2.4.1.2.2.2.1.1.1.2v.1c-.1.2.1.2.1.2s.1 0 .1.2c0 .1 0 0 .2.2.2.1.1.1.3.3.1.1-.1.1-.1.1-.1 0-.3.2-.5.2-.1.1-.1.2 0 .4s0 0 .2 0c.1 0 .2-.1.2.1s.1.1.2.1c.1-.1.1.1 0 .1s-.1 0-.1.1 0 .2.1.2 0 .2-.1.4-.2.4-.3.7c0 .3 0 .7.1.7s.2.1.3.1c.1.1.1 0 .2.1 0 .1.1.1.2 0 .1 0 .2-.2.2-.2.1-.1.5-.2.7-.3.2-.1.2-.1.4 0s.3 0 .4-.1.1-.2.2-.3h.1s.1 0 .1-.1c.1-.1.2-.4.3-.6.1-.2.2-.2.3-.2.1 0 .2 0 .3-.1l.1-.1c.1 0 .2 0 .4-.1.3 0 .1-.2 0-.2-.1-.1 0-.1.1-.1s.3 0 .3.1c.1 0 .2.1.2 0l.2-.2c.1-.1.2-.3.3-.4l.5-.5c.2 0 .1-.1.2-.2s0-.1.1-.1.1-.1.1-.2 0-.3-.2-.3c-.1-.1-.1-.2-.1-.3 0-.1.2-.1 0-.2s-.1 0-.3 0c-.1 0-.3 0-.6.2s-.3.3-.3.5-.1.2-.1.1c-.1-.1-.1-.1-.1 0-.1.1-.2 0-.2-.1v-.2s0-.3-.1-.4l-.1-.1c-.1-.1-.3-.2-.5-.2s-.2-.2-.2-.3c-.1-.1.1-.2.3-.3.2-.1.3-.2.4-.3.1-.1.1-.2.2-.2l.2-.2c0-.1.1-.1.1-.2l.1-.1c.1-.1 0-.2 0-.4s0-.3.1-.4.1-.2.2-.3c0-.1.1-.2.1-.2.1 0 .1-.1.2-.1 0-.1.2-.1.3-.1.1-.1.1-.2.1-.4 0-.1 0-.2-.1-.2l-.1-.1c0-.1 0-.1.1-.1s.2 0 .3-.1c.2-.1.2-.3.2-.5 0-.1.3-.1.4-.1.1 0 .2.1.3-.1s-.1 0-.2-.2c-.1-.1-.1-.1-.2-.1s-.1-.2 0-.2c.1-.1.1-.2.3-.2.1 0 .1 0 .2-.1s.1-.2.1-.2.2-.1.3-.2.1-.1.3.1c.2.1.1.2.2.4s.3.4.7.8.4.4.6.4c.1.1.2.1.3.2.1.2.1.1.2.1.2 0 0-.3 0-.4s-.1-.3-.2-.6-.3-.3-.3-.3c0-.1-.2-.1-.2-.1h.3c.2 0 .1-.1.1-.1h-.6c-.1-.1-.1-.2-.3-.2-.1-.1-.2-.2-.2-.4-.1-.2-.5-.6-.5-.7s0-.4.1-.5.1-.2 0-.3l-.3-.3c-.1-.1-.2-.1-.3-.2 0-.1-.1-.1-.1-.1-.1-.1-.2-.1-.4-.2s-.3-.2-.3-.3c0-.1-.1-.2-.1-.2-.1 0-.1-.1-.2-.2s-.1-.2 0-.2.2 0 .1-.1 0-.1.1-.1h.4c.2 0 0-.2 0-.3 0-.1.1-.2.2-.2.1-.1 0-.2.1-.2.1-.1.2-.1.3-.2.1 0 .2-.1.3-.1.2 0 .2-.1.2-.1 0 .1.2 0 .3 0s.3.1.4.1c.1.1.2.1.5.1s.5.2.8.3c.2.1.3.1.4.1.1 0 .2-.1.3 0s.1 0 .1 0c-.1 0-.1-.2-.2-.2 0-.1.1-.3.1-.3.1 0 .2-.1.1-.2s-.1-.2 0-.2 0-.1.1-.2c0-.1.1-.1.2-.1s.2.1.3.1c.1.1.2.1.3 0 .1-.1.3-.1.4-.1.2 0 .2-.1.2-.2s.1-.1.3-.1c.2 0 .2-.1.2-.3 0-.1 0-.3-.1-.3-.1-.1-.1-.1-.2-.3 0-.1 0-.2.1-.2h.1s.1 0 .2.1c.2.1.1-.2.1-.2 0-.1.1-.1.2 0s.2.1.5.1.4-.1.3-.3 0-.2.5-.1c.5 0 .2-.2.1-.3-.1-.1 0-.2-.1-.5-.1-.2-.3-.3-.4-.4s0-.2.1-.1.1 0 .2-.1 0-.1.1.2c.1.2.2.1.2.1.1 0 .2 0 .2-.1.1-.1.1-.1.3-.1.2 0 .1 0 .5.2.3.2.3.3.6.5s.3.2.2-.1c-.1-.2.1-.1.2-.1s0-.1.1-.3c.1-.2.6-.2.8-.3.2 0 .4-.1.5-.1s.1-.2.1-.4.2-.1.3-.1c.2 0 .1-.1-.1-.2s-.3-.4-.3-.5 0-.2-.2-.3c-.1 0-.1 0-.1-.1 0 0 0-.1-.1-.2s0-.2.1-.2.4 0 .6.1.3.1.3 0 .2-.2.1-.3c0-.1-.1-.2-.2-.3 0-.1-.1-.2-.2-.4 0-.2.2-.2.3-.2s.2.1.3.1.3.1.6.2 1.1-.1 1.2-.1.2-.1.3-.1c.1 0 .2 0 .4-.1.3-.1.3-.1.4-.2.1-.2.1-.3.3-.4s.1-.2 0-.3c-.1-.1.1-.1.2-.2s.1 0 .2 0 .1.1.1-.1v-.3c0-.1.2-.1.2-.1.1 0 .1-.1.2-.1s.1-.2.1-.3v-.4c.1-.1.1-.2.1-.3 0-.1.1-.1.2-.1s.2-.2.1-.2c-.1-.1-.1-.1 0-.1 0-.1.2-.1.2-.2.1-.1.1-.1-.1-.1s-.1 0-.1-.1c.1-.1.1-.2.2-.2s.2-.2.2-.3c0-.1.3-.2.4-.2s.1-.2.1-.4.1-.3.2-.3c0-.4 0-.5-.1-.5"/><polyline id="Path-3" points="-34,245 17,245 33,294" opacity=".6" fill="none" stroke="#979797"/></g><rect id="Rectangle_1_" x="153" y="205" width="43" height="53.5" fill="none" stroke="#0762a4" stroke-width="2.343"/></g><g><defs><path id="SVGID_1_" d="M258.4 1v285.5H1V1h257.4z"/></defs><clipPath id="SVGID_2_"><use xlink:href="#SVGID_1_" overflow="visible"/></clipPath><path d="M48.2 233.8s-.4 0-.5-.3c0 0 0-.3-.4-.1 0 0-.6.2-.6.3 0 0 0 .1-.3.1 0 0-.3-.2-.7.4 0 0-.3.6-.5-.1 0 0 .3-.4-.5-.2 0 0-.8-.1-.9-.1 0 0-.4.5-.5.6 0 0-.2.1-.5-.1 0 0-.2-.1-.4 0 0 0-1.1.2-.6-.1 0 0 .6-.6 1.8-.8 0 0 1-.1 1.3-.2.2-.1.8-.3.3-.7 0 0-.4-.2-.8-.2h-.8s-.4.2-.6 0c-.2-.2-.4-.2-.7-.2-.4.1-.6.1-.6.1l-.5.3s-.1.5-.5.1c0 0-.3-.2-.4 0-.1.2-.2.2-.5 0 0 0-.1-.1-.5 0-.4.2-1.5.6-1.2-.2 0 0 .5-.1.5-.5v-1.4s0-.2-.2.3-.7.6-.9.6c-.2 0-.5.2-.2-.5.4-.7.7-1.1 1.3-1.2.6-.1.5 0 .6.1.1.1.6 0 .7-.2.1-.1.3-.2 0-.5-.2-.3-.5-.6.3 0 .6.4.6.2.7.1.1 0 1-.9 1.1-1.7.1-.8.9-1 1.1-1.1.2-.1.4-.3.4-.6 0 0 .2-.7.2-1.2s.4-.6.4-.6.3-.4 0-.8-.6-1.1-.7-1.4c0-.3.2-.6-.1-.8-.3-.2-.3 0-.8-.5 0 0-.1-.3-.7-.4-.6-.1-.9-.1-1.3-.6l-1.1-2.6s-.7-1.8-1.4-2.3c0 0-1.4-.6-.8.5.6 1.1.5 1.4.1 1.5 0 0-.6-.2-1 0-.4.1-.7 0-.7 0s-.2 0-.5-.5c-.3-.4-.9-1.1-1.2-1.4-.3-.2 0-1 .4-.8 0 0 .6-.2.2-.7-.4-.5-.7-.7-.7-.7s-.2-.3.3-.5c0 0 .7-.2.3-.3l-.9-.1s-.4 0 .2-.3c.7-.3.7-1.1.2-1.5l-.4-.1c-.1 0-.2.1.1-.3 0 0 .7-1.2.8-1.4 0-.2.3-.5.3-.5s.4-.8.5-1.2c.1-.4.2-.9.2-1.3-.1-.4-.2-.8-.5-1.1 0 0-.1-.3.4-1.3 0 0 .2-.8.4-1.1.2-.3.2-.3.3-.5.1-.2.3-.8.3-.8l.4-1 1.1-1.6.6-1.1.2-.4s.5-.5-.6-.4h-.9s-.2 0-.6-.4c0 0-.7-.5-.9-.6 0 0-.9-.4-1.2-.4 0 0-1-.5-1-.9 0 0-.2-1 0-1.3.2-.3.9-.4.6-1 0 0-.4-.5-.3-.8.1-.3.2-.3.2-.6 0-.4-.1-.3-.2-.4 0 0-1.6.2-1.8.5 0 0-.3.3 0 .5.3.3.3.3.3.4s.2.3-.1.3c-.3 0-.4-.1-.4-.2 0 0-.1.1-.3.2-.2.1-.4.1-.6 0-.2-.1-1.3-.3-1.3-.3h-1.4s-2.6.1-2.7.2c-.2.1-.5.3-.8.6-.3.4-1.3 1.1-1.3 1.1s-.4.2-1 .2l-1.5.1h-.5s-.1.5-.2.8c0 .3-.3 1.5-.6 1.7 0 0-.3.2-.1.8.2.6 0 .9 0 .9s-1 .9-1.1.9c-.1 0-.7.4-1 0-.2-.4-.2-.7-.2-.7s-.2-.2-.5-.1-1 .3-1 .3-.3.1-.5-.4c-.2-.4 0-.7-.5-.5-.5.2-.4.1-.8-.2-.4-.3-1.6-1.1-1.6-1.1s-.3-.3-.5.2-.4.9-.4.9-.1.5-1.2.2c-1.1-.3-1.4-.3-1.6-.2-.2.1-1.3.8-1.5.4 0 0-.2-.3-.3-.7 0 0-.2-.5-.9-.2 0 0-.8.4-1-.3 0 0-.1-.4-.9-.2s-1.1.5-1.4.5c0 0-.6.1-1.1-.2 0 0-.4-.3-1.3.1H0v66.9c.1 0 .1.1.2.1.3.3 1.4 1.2 1.4 1.2s.2.3.5 0c.3-.2.6 0 .7.1 0 .1.1 0 .4 0 .3 0 .9-.1 1.5-.2 0 0 .3 0 .5-.3 0 0 0-.3.9 0s1.5.5 1.6.7c.1.2.1.3.3.3.2 0 .2.2.2.2s0 .1.5.1c.4 0 .5.1.3-.3-.2-.3-.3-.3-.1-.6.2-.2.5-.4.3-.5-.2-.1-.3 0-.4-.2-.1-.2-.3-.2-.5-.3-.2 0-.1 0-.1-.3.1-.2 0-.5 0-.6 0-.1-.2-.3.3-.5.4-.2.5 0 .5-.3 0-.4.1-.4.2-.4.1-.1.3-.1.4 0 .1.1 0 0 .3 0 .2 0 .1 0 .5.2s.2.2.9.2c.7-.1 1.6-.1 1.7-.2 0-.1.2-.3-.4-.3-.5 0-1.9 0-2-.2 0-.2.3-.2.9-.2.6 0 1.6-.1 1.7-.1s.5 0 .3-.2c-.2-.3-1-.9.4-2.2l.5-.4s.6 0 .7-.4c0 0 0-.3.2-.3s.3-.2.1-.3c-.3-.1-.3-.3-1.9-.3 0 0-.8-.1-.1-.4 0 0 .3-.1.4-.3 0-.2.1-.3.3-.2.2.1.4.3.4-.2 0-.4-.1-.3.2-.6.4-.3.8-.5.8-.7 0-.2.2-.4.4-.4s.3 0 .3-.4.1-.3.3-.4c.2-.1.3-.4.4-.2.1.2.3.5.6.5s.5-.1.7-.5c.1-.5.4-.7.5-.5.1.2.2.6.7.3.5-.3 1-.6 1.3-.7.2-.1.8-.5.8-.5s1-.6 1.2-.7c.2-.1.9-.5.9-.5s1.2-.5 1.2-.7c.1-.2.4-.3.5-.3.1 0 .4-.1.5-.2.1-.2.5-.4.9-.5.3-.1.5-.3.6-.4.2-.1 2.2-1.7 2.2-1.8 0-.1.2-.1.2-.5s-.2-1-.2-1-.1-.3.4-.3c.4 0 .5.2.7-.2.2-.4.4-.7.4-.3v.7s-.2.3.4.2c.5 0 .5 0 .6-.3.1-.4.1-.7.1-.7s.4-.5.4-.9c0-.5 0-.6-.2-.8-.2-.2-.1-.7.1-.6.1.1.5.2.5.2s.2.1.2-.2c0-.3.2-.7.2-.7s.2-.2.6.1c0 0 .3.1.4-.3.1-.4.3-.3.3-.1 0 .2.1.6.1.6s.5.6.6.2c0 0 .2-.1-.1-.4 0 0-.2-.2.4-.4 0 0 .4-.2.4-.6 0 0 0-.5.5-.5 0 0 .4 0 .5-.3 0 0 0-.4.5-.2l.9.2.5.4s.1.1.1-.3c0 0-.1-.4.4-.4 0 0 .4 0 .8-.4 0 0 1.4-.9 1.8-1.1.4-.2.9-.4 1.1-.4.2 0 .4-.2.6-.4l.5-.5.5-.3 1.2-.5s.7-.4.8-.3c.1 0 .7-.1.9-.3.2-.2.3-.3.6-.4-.3.5.7.1 0-.1z" clip-path="url(#SVGID_2_)" fill="#dbedff" stroke="#b2c5eb" stroke-width="1.024"/><path class="st6" d="M314.9 58.2c-.3-.7-.3-1.6-.7-1.9-.4-.3-1.1-.7-1.1-.7s-.4-.8-.1-1.2c.3-.4 2-1.7 2-1.7s.7-.1.7-.7-.1-1.3-.3-1.9-.1-1.6-.1-1.6.4-.3.3-.8c-.1-.4-.4-1.2-.8-1.3-.4-.3-1.2-.5-1.6-.7-.4-.3-1.7-.8-2.1-1.7-.5-1.1-.9-2.1-1.2-2.7-.3-.5-2.3-2-2.4-2.3l-1.7-1.7s-1.1-.7-.7-1.2c.4-.7.7-.7.8-1.1.1-.4.3-1.3.3-1.3s.9-.9 1.1-1.2c.2-.3.3-.4.1-.9-.1-.7-.1-1.2-.1-1.2s-1.2-.5-1.7-1.1c-.5-.6-2.1-1.3-2.1-1.6 0-.1-.7-1.6-.8-2.1-.1-.5-.3-1.1-.3-1.5s-.1-.5-.8-1.2c-.7-.7-.8-.8-.9-1.3 0-.5-.1-1.3-.5-1.7s-.3 0-1.1-.4-.8-.1-1.2-.7c-.3-.4-.7-.7-.7-.7s-2.1.3-2.7-.3c-.5-.5-.7-2.4-.7-2.4s-.4-.8-1.1-.8c-.7 0-2 .3-2.3.3-.3 0-.9-.3-.9-.3s-.7.1-.9-.4c-.4-.5-1.2-1.9-1.2-2.4 0-.7.7-2.4 1.2-2.4s1.9 0 2.1-.4c.3-.4.3-1.2.4-1.6.1-.4.3-2.4.8-2.8.5-.4 1.3-1.3 2.1-1.3.7 0 2.8-.8 2.8-.8s.4-.1 1.2.3c.8.5 1.2 1.2 2 1.2.7 0 .9.3 1.6-.4.6-.6 2-2.3 2.4-3.2h-68.5c.1.1.3.2.4.3.5.4 1.2.8 1.9 1.6s.4 1.7.4 2.4c-.1.7.4 1.3.8 2.3s0 .9 0 1.5c0 .7-1.5.9-2.1 1.2-.7.3-.4 1.2-.4 1.5 0 .3-.1.4-.5 2.5s-2.8.1-3.3 0c-.7-.1-1.5.7-2.1.4-.7-.1-2 .8-2.5 1.1-.5.3-2.3.4-3.5.4-1.2 0-3.3-.9-4.9-.9-1.5 0-2 .1-3.3.3-1.3.1-.9 1.5-.9 1.5s-1.1.4-2.1.4c-1.1 0-.9-.4-2.1-.1-1.2.1-1.2 2.1-1.5 3.1-.4.9-1.2-.1-1.2-.1s-.4-.9-.8-1.2c-.4-.3-.4-.3-.9-.7-.5-.4-1.1-.3-1.7-.4-.6-.1-.9.1-2 0-.9-.1-2.3-.7-2.3-.7s-2-.8-2.8-1.1c-.8-.3-1.7.4-1.7.4s-1.5.8-2 1.2c-.7.4-1.1.5-1.6 1.1-.5.6-.4 1.7-.4 1.7s0 1.3.1 2.4c.1 1.1-.4 1.7-.7 2.3-.3.5-1.3 1.6-2 2.3-.7.7-.1 1.3-.3 2.5-.1.8-.8 1.2-1.3 1.5.1.4.1.8.1.8l.5 2.4s0 1.1.9 1.1h1.7s.4-.3.4.3.5 2.3.5 3.1-.1 2.4-.1 2.4l-.5.9s0 1.2.9 1.2 1.3.1 1.5.7 1.2 1.3 1.5.5c.3-.8.7-2.3 1.3-1.5.6.8.7 1.7.7 1.7s0 .4.7.5c.7.1 1.3.9 1.3 1.5-.1.5-.7 1.5-.7 1.5l-.1 1.2v1.2s.5.5.5.9c.1.3.1.1.5.8.5.5 2.1 1.2 1.9 2-.1.8-.9 2.1-.9 2.9.1.8.5 1.6.7 1.9.1.3.5 1.1.5 1.1l1.1 1.1s.1.5-.5 1.2c-.8.5-1.7.9-2.1 1.1-.3.1-.9-.1-.5.8s.9.9.9 1.5c.1.5 0 1.1 0 1.1s-.7 3.7-1.3 4.4c-.5.5-.7.9-.7 1.7 0 .8.3 2.1 0 2.9-.3.8-1.3 1.2-1.3 2.1 0 .9 1.3 2.4 1.9 2.5.3.1.5.4.8.7l.9-.4.7-.3.8.7s.9.8 1.2.3c.3-.7.4-.8.9-1.3s1.5-.5 2-.7c.5-.3 2.1-.3 2.1-.3s.4-.1.5-.4l.3-.9.9-.4s1.2-.3 1.2.3c0 .7.8 1.6.8 1.9 0 .3.7.4.7 1.1 0 .7.8 1.2.5 1.6-.3.4.1.8.1.8l.8.1s.9.5 1.1.9c.1.4.3.3.8.7.5.4 1.2.8 1.3 1.2.3.4.8 1.5.8 1.5s.5.8.7 1.2c.3.4 0 1.1.8 1.1s.9.1 1.2-.3.8-1.5.8-1.5.7.3.9 1.1c.1.5.7 1.2 1.1 1.6 0-.1.1-.3.1-.5.3-1.3.3-1.7.3-2.4v-1.9c0-.3-.5-.9 0-1.2.5-.3.8-.7.8-1.6 0-.9-.1-2.5-.1-2.5s-.3-1.2 0-1.9c.3-.8 1.2-1.2 1.2-1.6 0-.3.3-1.2.4-1.5.1-.3 1.3-1.6 1.3-1.6s.8-1.7 1.5-2.7c.8-.9 1.6-3.1 1.7-3.3.3-.3 1.2-2.4 1.2-2.4s1.2-1.7 2.5-1.2c1.3.4 2 1.2 3.1 1.2s1.5.4 2.1-.3c.7-.8 1.7-1.3 1.7-1.3s.5-.1 1.7-.4c1.2-.3 2.9.3 4.1-.5 1.2-.8 1.9-1.1 2.7-1.7.8-.7.8-2.1 1.3-2.1s1.2-.4 1.6.4c.3.8 1.5 1.6 1.5 2 0 .4 0 .1.5.8.5.7 1.2.8 1.2.8s1.3.4 1.7.7c.3.3.9-.4 1.1.5s1.1 1.3.8 2.3c-.3.8-.3 1.5-.3 1.5s.8-.1 1.2.3c.4.3.4-.4.4.8 0 1.2-.1 1.7.4 2.1.5.4 1.2.7 1.5 1.2.3.5.5 1.2 1.1.7.5-.5 1.1-1.7 1.7-.8.8.9 1.7 1.7 1.7 1.7l1.1.3 2.1-.1s.3.3.4 1.1c.5.9.5 2.2 1.5 2.2 1.1.1 1.7-.3 2.3-.4.6-.1-.5-.1.5-.1 1.1 0 2.8-.8 2.8-.8l1.2-1.3s.3-1.1 1.1-1.1 1.5-.8 3.2-.1c1.7.8 3.2.8 3.2 1.3.1.7-.3 2.1.7 2.1.8 0 1.2-.1 1.7-.1s.9-.4 1.2.3c.3.7.8 1.6.8 1.6s.8.3 1.2.5c.4.3 1.7-.3 1.7.5s.8 1.1 1.7.7c.8-.4 1.5-.8 2.7-1.9 1.2-1.1 2-1.7 2.5-1.9.5-.1.9-.3 1.6-.9.7-.7 1.3-1.5 1.9-1.5.4 0 1.3.3 2 .3 1.4-.5 1.6-.5 1.8-.6.5-.3.5-1.3.3-1.7-.2-.4.3-1.3 1.2-2.3 1.1-.8 1.7-1.7 2.1-2.1.3-.3.5-.9.5-1.6s-.5-2.7-1.2-3.9c-.7-1.2-1.2-1.7 0-1.5 1.2.3 1.9.7 2.7.1.8-.5 1.6-.5 1.2-1.6-.2-1.2-.6-1-.7-1.8z"/><path d="M240.3 4.6c.1-.7.3-1.6-.4-2.5S238.6.9 238 .5c-.2-.2-.4-.3-.5-.5H161c.5 4.7 5 9.2 9.4 14.8 3 3.7.7 6.9-.4 15-.1 1.6-3.3 4.2-5-.5-.4-1.3 2.3-1.5 1.1-3.6 0-.5-.1-1.2-.1-2.6-.5-.9-.5.1-1.5-2.1 0-.1 2.1 1.2 0-.8-.9-.9-2.5.7-4.4 2.8-.1 0-.9-.1-2.1.8-.1 4.1 1.1.3 2.1 3.3l.1 1.6c-2.8 1.7 2.8 4.6-.3 6.4-2.8-.8-3.4 4.4-6.8 2l-1.1-.4c-1.5.3-2.9-.1-4.6-2.5.5-.4-3-1.7-2.9.1 1.1 0 1.5.3.4 1.1 2.1.1 1.1 2.5 3.4 3.4-.3 0 .8.5-.1 2.3.3-.1-1.2 1.1-2.1 1.3l-.9-.7c-.1-.3-2.3.4.1 2-.1.3 1.1.4.9 1.9-1.1.4-3.8 3-4.9-.8l-.7-.8s-.5-1.6-.7-.9c-.3.5.5 2.9-1.5.8-.1-.9-.7-1.3-.7-1.3l-1.2-.3c-4.5-.5-2.5 8.2 1.9 4.1 0 .3 2.3-.4.4 1.5l-1.3 2.3c-.7.1-1.2 1.3-3.8 1.1-.7 0-3.7.7-7.9.4 0 0-2.5.8-1.9 0 .5-.8.5-.7 2.3-1.1.5-.7.8-.5 1.3-3 .8-.4 1.3-.8 1.3-.8 4.1.5-1.3-4.2-3.7 1.6-2.1-.5-3.3 2.3-7.4 2.5l-1.3-.7-.7-.4c.7-2.8-.7-8.7-1.7-2.3-.5-.3-1.1 0-1.3-1.1-.8-.1-1.7-.3-.4-2.3.4-.5.1-1.1-1.1-1.9-.5 1.7-1.5 5.4-1.5 5.4s2.5-.8 2.7 1.2c.1 2-.5 3.3-.5 3.3s-.4.1-.1 1.1c.1.9-.1.9.7 1.6l.9.7s1.1.7 1.1 1.7-1.1.7 0 1.1c1.1.4 2.9-.9 2.9.1 0 1.1.9 2 .9 2.8s-.1 1.1-.1 1.7c0 .7.4 1.2 1.2 1.2h4.2c.7 0 2.3.4 2.3.4s-1.1.4.7.4h2.9s.4.4.9.7c.5.4.9.9 1.7 1.2.9.4.7.4 1.6.4.9 0 1.2-.5 2-.5s.5-.1 1.5-.1h.9s1.1 0 2-.1c.4-.1.5-.1.7-.1.1-.7.3-1.2.7-1.7.7-.5.5-1.3 1.5-1.7.9-.3 1.5-.3 1.5-.7v-1.6s.1-.8.7-.8h2.3s.7-.1.9.1c.1.3 1.2 1.6 1.2 1.6s1.1.3 1.6-.1c.5-.3 1.3-.5 1.3-1.1v-1.7s.5-.5.9-.7c.5-.1 1.1-1.9 1.1-2.5s.1-1.7.5-2.6.4-1.6.7-2.1.8-2.6.8-2.6.1-1.3.9-.5c.8.9 1.5 1.6 2 1.9.5.3 1.3 1.3 2.1 1.2s1.6-.5 1.6-.5.3-1.1.7-1.7c.4-.7.4-1.1 1.3-1.7.9-.5.5-.9 1.9-.8 1.3.1 1.5.5 1.9.5.4.1.1-.1.8-.5.5-.4.8-.5 1.6-.3.8.1 1.5.5 1.3-.1-.1-.8-.3-2.6-.1-3.2.1-.5.4-1.7.9-1.6.5.1 1.3.4 1.9.4.5 0 1.3.3 1.3.3l.9.1s.4-.5.5-1.1c.3-.5.5-2.1.5-2.1s-1.3-2.1-1.3-3.3c0-.9-.7-2.8-.7-2.8s0-.9-.5-1.2c-.5-.3-1.6-.9-.1-2.1 0 0 .8-1.2.9-1.6s.9-.9 2-1.1c.9-.1 1.2.8 2.1 1.3s1.3.9 2.1.9c.9.1 1.7.4 2.6.5s2.5 1.1 2.6 1.6c.1.1.1.4.1.7.5-.3 1.2-.7 1.3-1.5.1-1.2-.4-1.7.3-2.6.7-.7 1.7-1.7 2-2.3.3-.5.7-1.2.7-2.3-.1-1.1-.1-2.5-.1-2.5s-.1-1.2.4-1.7.9-.7 1.6-1.1c.7-.4 2-1.2 2-1.2s.9-.7 1.7-.4c.8.3 2.9 1.1 2.9 1.1s1.3.7 2.3.7c.9.1 1.3-.1 2 0s1.2 0 1.7.4.7.4.9.7c.4.3.8 1.2.8 1.2s.9.9 1.2.1c.4-.9.4-2.9 1.5-3.2 1.2-.1 1.1.1 2.1.1 1.1 0 2.1-.4 2.1-.4s-.4-1.2.9-1.5c1.3-.1 1.9-.3 3.4-.3 1.4 0 3.8.9 5 .9s3-.1 3.6-.4c.5-.3 1.7-1.2 2.6-1.1.7.1 1.5-.5 2.1-.4.6.1 3 2.1 3.4 0s.5-2.3.5-2.6c0-.3-.4-1.2.4-1.5.7-.3 2.1-.7 2.1-1.2 0-.7.4-.5 0-1.5 1-1 .5-1.7.6-2.3z" clip-path="url(#SVGID_2_)" fill="#daeaf8" stroke="#b2c5eb" stroke-width="1.022"/><rect x=".3" y="79.5" width="16.1" height="25.5" clip-path="url(#SVGID_2_)" fill="#daeaf8" stroke="#b2c5eb" stroke-width=".712"/><g id="map_kansai-railway" clip-path="url(#SVGID_2_)"><g transform="translate(-26 -295)"><path id="Path" class="st10" d="M191.5 432.5c-.3.1-.6.9-1.7.5-1-.3-1-.5-1.8-.5-.7 0-1.6 1.2-1.7-.3-.1-1.3-.6-2.3-.6-2.3s.6 0-.7-.4l-1.4-.4s-.3-.3-1.1.1-1.6-.1-1.8-.5c-.3-.4-.6-1.3-1.1-.7-.6.5-2.3 2.8-2.3 2.8s-.1 1.3-1.1 1.7c-1 .3-2.3.7-3 .7-.6 0-4.7-.4-4.7-.4s-1.3-.3-2.3-.8c-1-.5-1.6-.7-2.3-1.7-.7-1.1-1.3-.9-1.6-1.5s-.4-.9-.7-1.3c-.3-.4-.6-1.5-.8-2-.1 0-.3.1-.3.1s-1.6-.9-1.7-.5c-.1.4-.1 1.6-.1 1.6s.6 1.3 0 1.5c-.6.2-.3-.7-.6.1-.3.8.1 0-.1 1.6-.4 1.6-.1 2-.7 2.4-.7.4-1.1.7-1.1.7s-.4.5-.6 1.7c-.1 1.2-.1 1.9-.1 2.3-.1.4.4.9-.1 1.6-.5.7-1 1.6-1 1.6l-.3 2.4s-.8 1.6-.4 2.2c.4.4 1.7-.3 1.8.4.1.7 1.3 1.3.4 2.2-.7.8-.6 1.3-1 1.7-.4.4-.4-.4-1 .9s-.6 2.2-.6 2.2-.3.5.7.9l1 .4s.7.1.7 1.2v3.2c0 .4.4.4.4.9v3.5c0 .7-.6 1.6-.7 2.3-.1.7-.8.7-.6 1.5.3.7 1 .7.8 1.3-.1.7-.1 1.2-.7 1.3-.6.1-1.1.4-1.1.4s-.1.7-.6.9h-.1c.1.7.4 2.3 1 3.1.6 1.1.3 2.7.3 2.7s.4.7.6 2.2c.1 1.5.6 4 .7 5 .1 1.1 2-.7 2-.7s1 .4 1.7 1.3 1 2.2 1 3.9c0 1.7-.1 1.3-1.3 1.9-1.1.5-1.8-.3-2.8-.5-1.1-.3-1.7-.1-1.7-.1s-.4 0-1.8.8-.7 2.3-.6 3-.3 1.1-1.6 1.9c-1.3.9-.3.7-.7 1.5-.4.8-1.4.4-1.4.4s-1.1.8-1.8 1.7c-.7 1.1-.7 1.9-1.1 2.7-.4.8-1.6.9-1.6.9l-1.1 1.3v1.5c0 .4.1.8.4 1.1.3.3 1 .7 1 .7l1.8.7.8.8.4.9.7.9.1 1.1v1.2c0 .4.3.5.3.5h2.3v.7s.4.7 1.3 1.7c1 1.1 0 2.6 0 3.5 0 .9-1.1 1.1-1.1 1.1l-1-.1-.3 1.9s-.1.7-.3 1.6c-.1.9-.7.9-.7.9l.3 1.3s1.3.1 2 .1c.6 0 0 .5 0 .5l-.1 1.1-.3.9 1.7-.3s.6-.1 1.1-.4c.4-.4.7-.5.7-.5l.4-.9.4-.3s.4.1.8 0 .8-.3 1.8-.4c1.1-.1 1.1.1 2.4.1 1.3 0 1 0 1.8.3s1.3.3 1.7.7c.3.4 1.1.4 1.1.4s1.1-.1 2.4-.5c1.1-.4 2.3-1.3 2.3-1.3h.8l1.4.5 3 1.2v.7c.8-.5 2.3-1.3 2.4-2 .3-1.1.8-2.6.8-2.6l.6-.1s.1-1.7.3-2.7c.1-.9.3-.5 1.1-1.6s.8-1.6 2.7-1.9c1.8-.3 1.6.5 3.7-.8s2.3-2.2 2.4-2.6c.3-.4.7-1.6 1.8-2.3s.7-.7 2.1-.7h2.7c.3 0 1.8 1.3 2.3.7.4-.7.3-1.7.3-1.7s-.8-.7-.3-2.2c.6-1.3.8-2.3 1.7-2.2.8.1.6 0 0-1.7s-.4-2.8-.4-2.8.3-.8.1-1.2c-.1-.4-.3-.5-.1-1.2.1-.5.6-1.7.3-3.1-.1-1.3-1.1-2.4-1.1-2.8s.4-2.7 1.4-3.6c1-.9 2.4-1.1 1.8-2.8-.6-1.7-1-3-1.7-3.2-.6-.4-2-2.2-1-3 1-.7 1.8-.3 2.1-.9.3-.5.8-.9-.4-1.7-1.3-.8-1.7-1.5-1.7-1.5s-.3-2.4-1.1-3.9-2.3-1.7-1.7-2.8c.6-1.1 1.4-3.2 1.4-3.2s.6-.7 2-1.1c1.4-.4 2.7-1.1 4.4-1.3 1.7-.3 3.4-.3 3.4-.3s1.3.3 1.8-.3c.6-.5.6-2.2 1-3 .4-.8 1.1-1.3 1.1-1.3s.6-.3.1-.8c-.4-.5-1-.5-1-.8v-1.2s1-1.7-.6-1.6c-1.4.1-3 .7-3 .7s-.8 1.2-1 .1c-.1-1.1-.7-3-.7-3s-.6-.8-1-.9.6-.1-.4-.1-.8.5-1.7.5c-.8.1-1 .9-1.6.3s-.6-1.6-1.3-1.6c-.6 0-2.3-.1-2.3-.1s-2.3-.1-2.5-1.5c-.3-1.3-.6-3.2-.1-3.8.4-.5 1.6-1.7 1.6-1.7s.3-1.2.3-1.6-.3-.9-.3-.9-.7-1.2.1-1.5l.8-.3.6-1.5s-.7-2.2-1.1-3.2c-.4-1.1-.6-2-.6-2.6s-.3-1.2-.7-1.3c-.3-.1-.6-.5-.8-.4l.3.3-.3-.3c-.1 0-.1 0-.3.1-.6 1.7-1.1 3.6-1.5 3.7z"/><path id="Path_2_" class="st11" d="M186.1 545.8c-1.3-.4-2.1-.7-2.5-1.6-.4-1.1.1-1.2-.7-1.9-.8-.7-1.5-.4-1.9-1.1-.4-.7-.9-.4-1.2-1.5-.4-1.2-1.3-2.5-1.3-2.5s-1.2-1.1-1.7-1.2c-.5-.3 0 .8-.5-.3s-.7-2.3-.7-2.3-.1-.9 0-1.5l.3-1.9v-2.1c-.5.3-.9.5-.9.5s.4-.1.9-.5v-.7l-2.8-1.2-1.3-.5h-.8s-1.1.9-2.1 1.3-2.3.5-2.3.5-.7-.1-1.1-.4c-.4-.4-.8-.4-1.6-.7-.8-.3-.4-.3-1.7-.3-1.2 0-1.2-.3-2.3-.1s-1.5.3-1.7.4c-.4.1-.8 0-.8 0l-.4.3-.4.9s-.3.3-.7.5c-.4.4-1.1.4-1.1.4l-1.6.3.3-.9.1-1.1s.5-.5 0-.5-1.9-.1-1.9-.1l-.3-1.3s.5 0 .7-.9c.2-.9.3-1.6.3-1.6l.3-1.9.9.1s1.1-.1 1.1-1.1.9-2.4 0-3.5-1.2-1.7-1.2-1.7v-.4h-2.1s-.3-.3-.3-.5V512l-.1-1.1-.7-.9-.4-.9-.8-.8-1.7-.7s-.7-.4-.9-.7c-.3-.4-.4-.7-.4-1.1v-1.5l1.1-1.3s1.1-.1 1.5-.9c.4-.8.4-1.7 1.1-2.7.7-1.1 1.7-1.7 1.7-1.7s1.1.4 1.3-.4c.4-.8-.5-.5.7-1.5 1.2-.9 1.6-1.2 1.5-1.9-.1-.7-.8-2.1.5-2.9 1.3-.8 1.7-.8 1.7-.8s.5-.1 1.6.1c1.1.3 1.6 1.1 2.7.5 1.1-.6 1.2-.3 1.2-1.9 0-1.7-.3-2.9-.9-3.9-.7-.9-1.6-1.3-1.6-1.3s-1.9 1.7-1.9.7c-.1-1.1-.5-3.5-.7-4.9-.1-1.5-.5-2.1-.5-2.1s.3-1.7-.3-2.7c-.4-.8-.8-2.4-.9-3.1-.5.3-1.2.3-1.2.3h-2.1c-.5 0-1.6.3-1.6.3s-1.3.4-1.7.7c-.4.1-.7.4-1.3.9-.7.5-2 1.2-2.7 1.3-.7.1-1.7.8-2 .9s-.1.9-.8.5c-.7-.4-1.2-1.2-1.2-1.2s.3-1.2-.5-.9c-.8.1-1.2.9-1.2.9s1.2.3-.7.3c-2 0-2.5.1-2.5.1s-.7-.1-.9.3c-.4.4 0 .3-.9.7s-.8.4-1.9.7-1.9.4-1.9.4-.7.3-1.5.3-2-.1-2.3-.3c-.3-.1.1-.4-.3-.1-.4.4-1.1 1.5-1.5 1.6-.4.1-.7-.3-1.2.4l-.5.7c-.5.7-.4 1.6-1.2.7-.7-.9-.1-1.3-.7-1.3h-.9l-.8.1s1.1-1.1-.4-.4c-1.5.7-1.6 1.1-1.6 1.1s-.4.4-1.1.5-.9-.3-1.5.1c-.4.4-.7.8-.7.8s1.2.7-.4.8c-1.7.1-.9-.3-1.7.1-.7.4-.5.4-1.1.7-.5.3-.9.3-.9.3s-.7-.1-1.1-.1c-.4 0-.4-.4-.8 0s.5.1-.4.4c-.9.4-1.7.3-2.4-.4s-1.1-.9-1.1-1.2c0-.1-.7-1.1-1.3-1.9-.3.3-.7.5-1.2.8v2.1l-1.2.8.1 1.3c.9.1 4.1-.1 6.1 2.3-.4.4 0 .9-2 .1l.3.8c-.3-.1 3.9 1.7 3.9 3.7l-.1.7s-.3.4 1.2 1.1c1.5 1.1 2 .1 2.4 3.3 0 0-.3 1.5-.9 1.6-.7.3-1.1-.1-4.3.4l-.4.8.1 1.1c-.1.4.3.5-1.3 1.1-.1.7-.3.8-.5 2.1.1.1-.7 0-1.7 1.9-.1 0 1.1.4 2.7.9 0-.1 1.2.9 3.6 2.1-.1.7 1.5.7-.3 2.7l-.5.3-.5 1.3c-.9.4-1.3 1.2-4.9 1.9-.4.3-.7 1.1-.7 1.6-.4 1.1-.7 2-.7 2s1.2.3 2.1.1c0 .5.8.8-1.2 2.1l-1.1.5s-.7.1-.5.7c-.3.4 1.1.3 1.1 1.6l-1.5.7v2c.1.4-.8.3.1.4 1.5.4 3.6-.3 7.2.3 1.6 1.3 1.9 2.7 3.6 6l1.5 1.3 2.8 2.1.7 1.6 1.6.5 5.1 1.7h.9c.4.7.5.3 2 3.1.1 0 3.5-.4 3.2 1.2 2.5 3.6.7 4-3.1 6.9 4.8 2 5.3 12.1 14.2 12.9 3.2 2.4 2.1 3.1 8.9 5.6 4.8 1.2 2.9-1.9 10.6 2.1 1.3.4 4.4.5 6.8 1.2l1.2.7c.5-.9-.4-1.5 2.7-3.2 1.3-1.3 7.9-4.4 12.3-8.5-1.2-2.9 2-10.1 5.6-17.3-.5-.3-1.1-.4-1.2-.4-1.1.1-.8.8-2.1.4z"/><path id="Path_3_" class="st10" d="M79.4 332.8c.1 1.1 1.1 1.5 1.6 2.1.5.7 1.6 1.1 2 1.6.4.5.5.1 1.1 1.1.5.9.9 2.1 1.1 2.7.1.5-.7 1.2.7 1.2h3.2s.4-2 2.3-2.1c2-.1 3.8-.1 3.8-.1s.5-.7.7.4c.1 1.1.5 1.2.5 2 0 .7-.1.7-.1 1.5 0 .7.1 3.7.5 5.2s.4 1.2.4 2.3.5 2.8-.1 3.1c-.7.1-.9.1-1.5.9-.5.7.1 2-1.7 2-2 0-2.5-.7-3-1.1-.5-.4-1.5-2.5-2.7-1.6-1.2.9-2 1.6-2 2.3 0 .7 0 1.6-.1 2.3s-.4.5-.5 2.5c-.1 2-1.1 1.5.1 2.8 1.2 1.5 1.7 2 2.5 2.3.7.4 1.1.4 1.7.7.7.4 1.6.7 1.6.7s1.6-1.1 2.7.7c1.1 1.7-.1 1.2 1.1 1.7l1.2.5s1.2-.1 1.5.5c.1.7.7 2.5 1.6 1.6l1.6-1.6s1.6-.1 2.5-.1c.9 0 2.3.1 2.3.1s2.3-1.1 2.3.1c0 1.2-.1 2.1-.1 2.1s-1.2 1.6-.4 1.6c.9 0 1.5-.4 2 .5s1.6.7 1.1 2.1c-.5 1.5-.1 2.5.5 3.3.7.9 2 2 2.3 1.1.4-.9 1.1-1.6 1.1-1.6l2-.4 2.7.4s.4.1.4 1.1-1.7 1.7.1 2c2 .1 2.5 0 3 0s.1-.1 1.5.5c1.2.7 2.5.7 2.5.7l1.2 1.2s1.5-.9 1.2.4c-.1 1.2-.4 2.3-.1 2.8.1.5-.4-.7.1.5s0 2.3 0 2.3-1.6.5-1.7 1.2c-.1.7-.3 1.3-.4 1.5.1.1.4.4.5.8.7 1.5.5.4.7 1.5.2 1.1-.4 1.6.1 2.1s2.8.5 2.8.5l2.3-.1h1.7s1.2.5 1.7.9 1.2.9 1.2.9.1.4 0 1.2c-.1.9-.4 3.5-.4 3.5s-.5 1.6.7 1.5c1.1-.1 1.9-1.6 1.9-.5s.5 1.9.5 1.9l.8.8s0 .5 1.1.5h1.9c.8 0-.4 1.3.8 0l1.1-1.3s.4.4-.5-.8c-.9-1.1-1.3-1.6-.8-2.3.5-.5.1 1.5.5-.5.1-.4-.1.3.8.1 1.2-.3.7-1.1 1.6-1.1s1.7-.1 1.9.4c.1.5.3.8.1 1.5-.1.7-.1 1.2-.1 1.2l-.7.4s-1.3.4-.4.8 1.2-.1 1.9-.3c.7-.1 1.2-.5 1.6-.1.4.4.1-.1.4.4.4.7 0-.1.4.7.4.8.4 1.2.4 1.2s-.7.5.1.7c.7.1.7-.1 1.5.4.7.5 1.2.1 1.2.9 0 .7-.3 1.2.1 1.5.4.4.5-.1.8.7s.4.3.4 1.2v1.6c0 .3.5.4.5.4l1.1.4s.1.8.7 1.6.7.7 1.5 1.5.9 1.3.9 1.3.5.7 0 1.2l-.9.9c-.4.4-.3.7-.4.9l-.3.3c.3.7.7 1.7.8 2 .3.5.4.9.7 1.3.3.5.8.4 1.5 1.5s1.3 1.3 2.1 1.7c.9.5 2.1.8 2.1.8s3.7.4 4.4.4c.5 0 1.7-.4 2.8-.7.9-.3 1.1-1.7 1.1-1.7s1.6-2.1 2.1-2.8c.5-.5.9.3 1.1.7.1.4.9.9 1.7.5s1.1-.1 1.1-.1l1.3.4c1.3.4.7.4.7.4s.4.9.5 2.3c.1 1.3.9.3 1.6.3.7 0 .7.1 1.7.5.9.3 1.3-.4 1.6-.5.3-.3.7-2.1 1.2-2.5.1-.1.1-.1.3-.1-.5-.4-1.6-1.5-1.9-2.1-.3-.9-.3-1.5-.3-2s-.7-1.2-.8-1.3c-.3.1-.4.3-.4.3s.1-.1.4-.3c0 0-1.7-.9-1.1-1.7.5-.7 1.7-.4 1.6-1.2-.1-.8-.7-1.6-1.2-1.7-.5-.1-1.1-.7-1.1-.7s.1-.4.1-.8c-.1-.4-.5-.5-1.2-.4-.7.1-1.9.5-1.9.5s-.3-.9-.5-1.2c-.3-.3-.1-.5-.8-.5-.5 0-1.3.1-1.3-.3 0-.5.1-1.9.1-1.9v-.9s.3-.8-.4-.8-1.5.4-1.5.4-.4-.1-.7.3c-.3.5-1.2 1.2-1.2 1.2s-.8.8-.9.3c-.1-.5.1-.8-.4-1.2-.5-.4-1.3-.7-1.7-1.2-.4-.5-.8-.8-.3-1.7.5-.9.5-1.3.5-1.3l.1-.9s.4.1.4-.8-.3-1.7-.5-2c-.1-.3-.8-.9-.9-1.9-.1-.9-.8-2.5-1.3-3.2-.5-.7-1.2-.8-1.3-1.6-.1-.8.1-.9-.1-1.9-.3-.9-1.2-.9-1.2-1.7 0-.7 1.3-1.6 1.3-1.6s.1-.8.5-2c.3-1.2-.4-1.7.3-2.9.7-1.3.5-1.9.7-3.1.1-1.2.4-2.5.4-2.5s0-.4-.1-1.6c-.1-1.2-.4-2.3-.4-2.3s-.5-1.5-.9-2.3c-.3-.8-.5-2.5.1-4.5.5-2 1.2-3.5 1.2-3.5s.9-.7.7-1.2c-.3-.5-.8-.4-.9-.1-.1.3-.5 1.3-1.1.5s-2-3.6-2.5-4.4c-.5-.7-.9-.9-1.1-1.3-.1-.4-.4-1.1-1.1-1.6-.7-.5-1.9-.1-1.6-1.2.1-.3.1-.5.1-.7-.1 0-.3 0-.7.1-.9.1-2 .1-2 .1h-.9c-.9 0-.7.1-1.5.1s-1.1.5-2 .5-.7 0-1.6-.4-1.2-.9-1.7-1.2c-.5-.4-.9-.7-.9-.7h-2.8c-1.7 0-.7-.4-.7-.4s-1.6-.4-2.3-.4h-4.1c-.9 0-1.2-.5-1.2-1.2s.1-1.1.1-1.7c0-.6-.9-1.6-.9-2.7s-1.7.1-2.8-.1c-1.1-.4 0 0 0-1.1s-1.1-1.7-1.1-1.7l-.9-.7c-.9-.7-.5-.7-.7-1.6s.1-1.1.1-1.1.7-1.2.5-3.2c-.2-2-1.7-1.5-1.7-1.5s.9-3.5 1.5-5.3c-.1-.1-.1-.1-.3-.1-2.5-1.3.5-6.9-4.8.3-.3-.1-1.1 1.9-4.1 1.3-.7 2-5.4-.9-2.3 3.9 1.6 1.9-1.9 9.9-2.8 6.3.4-.8 1.1-.7 1.1-2.9-.1-.3 1.1-.8 0-3.1-.4 2.1-12-2.7-6.9-4.7 2.5 2.5.1-5.7-.9-2.8-2.4-.4-3 8.1-5.8 3.1-4.1-.9.3-2.4 5-6.4 1.7-1.6.8-.3 2.5-4.8.7-.8 1.9-3.9 2.5-1.1.7-.5.9-.5.9-3.5-.8-1.9.4-3.1-3.3-5.5-.7-.5-1.5-1.9-3.3-3.7.4 0-2.5 1.3-4.2 1.6-.7 0-1.9 1.2-4.5.7-2.5.8-4.2 2.7-8 6 0 0-.4-.1-1.2.5-.9.4-.8.9-4.5.9-.9 1.1-.8 0-4.2 4.3-.1.3-2.3.9-4.8.9l-.8-1.1c0 .1 0-.4-.8-.4h-.9l-.1-.1c-.3.1-.4.1-.5.3-.6 2.7-.8 6.6-.6 7.5z"/><path id="Path_4_" class="st11" d="M96.3 445.2c-.5.3-2-.9-3.6 1.3-1.3 1.3-.9 3.7-4.1 5.5-1.2.7-3.1 1.1-5.7 4l-1.9 3.3s-.1 1.1-.4 1.3c-.9 1.4-1.2-.7-3.3 2.2l-.8 1.1-.8 1.3c0 .8-.8 3.4-2.8 4.9-.4 1.1-1.7 3.6-2.7 5.7l-.5 1.3c-.3.1-1.5.3-3.6-.4-.3 0 .7.5-.9 1.3l-.9 1.3-.4.9c-.1.4-.4.4.1 1.3-.1.4-.1 1.1-.1 1.1-.4.5 1.5-.9 1.6 2.6.8.4.5.8 2.8.3 0 0 .5-1.3.7-1.1-.1.5 1.3 1.4-.9 2.4-.1.3-.5 1.4-.4 1.8 1.2.7 2.9.7 2.8 3.4.9-.3 3.3-.8 6.5-.8 1.1-.7 1.5-1.3 5.2-3.8 1.2-.5.4-.3 4.7-2.4 2.7 0 7.2-2.4 1.5-6.9-.9-1.2.8-1.3-2-3.3-.1-1.7.1-5.3.1-8.4 0 0 .5-1.2.7-1.4.1-.1.1-.5.8-2 .8-1.1 1.6-2.1 4.8-4.5.5-.4 1.9-1.4 2-2 .3-.9.3-2.5 1.5-5.3-.3-.5 2.3.3 1.2-4.1-.7-.5-1.2-1.9-1.2-1.9z"/><path id="Path_6_" class="st11" d="M130.8 389.8c-.5-1.2 0 0-.1-.5s0-1.6.1-2.8-1.2-.4-1.2-.4l-1.2-1.2s-1.2 0-2.5-.7c-1.2-.7-.9-.5-1.5-.5-.5 0-1.1.1-3 0-2-.1-.1-1.1-.1-2 0-.9-.4-1.1-.4-1.1l-2.6-.4-2 .4s-.7.7-1.1 1.6c-.4.9-1.6-.1-2.3-1.1-.7-.9-1.1-2-.5-3.3.5-1.5-.5-1.2-1.1-2.1-.5-.9-1.1-.5-2-.5-.9 0 .4-1.6.4-1.6s.1-.9.1-2.1c0-1.2-2.3-.1-2.3-.1s-1.5-.1-2.3-.1c-.9 0-2.5.1-2.5.1l-1.6 1.6c-.9.9-1.5-.9-1.6-1.6-.1-.7-1.5-.5-1.5-.5l-1.2-.5c-1.2-.5 0 0-1.1-1.7s-2.6-.7-2.6-.7-.9-.4-1.6-.7c-.7-.4-1.1-.4-1.7-.7-.7-.4-1.2-.9-2.5-2.3-1.2-1.5-.4-.9-.1-2.8.1-2 .4-1.7.5-2.5.1-.7.1-1.6.1-2.3 0-.7.7-1.5 2-2.3 1.2-.9 2.1 1.2 2.6 1.6.5.4 1.1 1.1 3 1.1 2 0 1.2-1.2 1.7-2 .5-.7.7-.7 1.5-.9.7-.1.1-2 .1-3.1s0-.9-.4-2.3c-.4-1.5-.5-4.5-.5-5.2s.1-.7.1-1.5c0-.7-.4-.9-.5-2s-.7-.4-.7-.4-2 0-3.8.1c-2 .1-2.3 2.1-2.3 2.1h-3.2c-1.5 0-.5-.7-.7-1.2-.1-.5-.5-1.7-1.1-2.7-.5-.9-.7-.5-1.1-1.1-.4-.5-1.5-.9-2-1.6-.5-.7-1.5-1.1-1.6-2.1-.1-.9 0-4.8 0-7.3-.1 0-.3.1-.3.1-.1 0-.3.1-.3.1l-.1.1h-2.3c-.1 0-1.1-1.7-3.6-1.1-.4 0-.1 0-1.6.3-.8 0-1.9.3-2.3.3-.1 0-.3 0-.4.1-.4 0-.9.1-1.5.1h-1.3c-.5.1-3.7-.1-4.2-.3-.3 0-.7 0-2.1.4-.5.1-.7.5-.8.8-.1.3-.1.5-.4.7-.1 0-.3.1-.7 0-1.1-.1-2.4-1.1-3.2-1.3-.3 0 0-.1-.9-.1-.8 0-2.3.3-2.4-.1-.1 0-.1-.1-.1-.3 0-.4.1-.8-.3-.9-.1-.1-.4-.1-.9 0-1.5.5-3.8 1.5-4.2 1.5-.1.1-.3.1-.5.3-.7.4-1.6.9-1.6.9l-1.7 1.3h.1l-.1.1s.4 0 .4.1c-.1.1-.5.5-2.5 1.1-.4.1-.7.3-1.1.3-.9.4-.5 0-2.9.7.4.5.9 1.2 1.6 2.3.5.8 1.2 3.1 1.2 3.1v1.6s0 1.2-.1 1.7-.1 2.1-.1 2.1 1.1.7 2 1.7c.9 1.1 0 0 .4.7s0 1.1 0 2.3.5 3.3.5 3.3.9.4 1.5.7c.5.4 1.1.7 1.6 2 .5 1.2 0 1.7 0 1.7s0 1.7.1 2.8c.1 1.1.7.5 1.7 1.6 1.1 1.1 1.6 1.6 1.2 3.1-.4 1.5 0 1.6 0 2.7s.4 3.2.4 3.2-.4 1.1-1.2 2.1c-.9 1.1-1.2.5-2 .9-.7.4-1.5 1.6-2.5 2.8-1.1 1.2-2.5.5-2.5.5l-2.8-1.3c0 .1 0 .3-.1.4-.5 1.2-.9 1.2-.9 2.3 0 1.1.4 2.8.4 2.8s1.5.4 1.6.9.1 2 0 2.7c-.1.7.1 1.7-.5 1.7s-2.1-.7-2.6.4-.5 1.7-.7 2.3c-.1.5-.9 2.7-1.1 3.2-.1.5-1.1.9-2.1 2s-1.1 1.6-1.2 2.5c-.1.9-1.5 1.6-2 1.7-.5.1-1.2.1-1.7 1.6s-1.7 1.5-1.1 2.5c.6 1 .4.1.7 1.1.4.9.7 2.1.1 2.8-.5.7-1.2.5-1.6 2.1-.4 1.6.9 2.7 1.5 2.8.5.1 2.1 1.2 1.2 2.5-.9 1.2-1.7 2.8-1.7 2.8l-.5 3.3s.4 2.8.9 2.8 2.3.7 2.3.7l1.7 3.1s-.9.4.1 1.2c1.1.9 1.7 4.1 1.1 5.5h.8c.3 0 .5-.1 2.3-.8.4-.1.7-.1.7-.1s.1 0 .4.1l.3.1s.1.1.4.1c.1 0 .3.1.5.1h1.2c.1 0 .4 0 .7.1.3 0 .4-.1.5-.1.4-.1.8.3 2.1-.4.3-.4-.3-.1.3-1.6.3-.4.7-.7 1.1-.8.1-.1.3-.1.4-.1l2.4-.3s.5-.1 1.3-.3c.3 0 .7-.1 1.1-.1 1.3-.3 4.5-.5 4.5-.4 0 0 2.6.7 3.3.8H56s1.1-.3 2.1-.4c.5-.1 1.2-.3 1.5-.3.3-.1.1 0 .8-.1.3 0 .5-.1.8-.1.5-.1 1.1-.1 1.1-.1l2.8.3 2.3.5c.7.3 2 .1 5.2 1.2.7.3 1.3.7 1.6.9.1.1.3.1.4.3.7.4 1.5.8 1.7 1.1.3.4 0 0 .7.7.3.3.1.3.5 1.5.3.3.9 1.2 3.2 2.4.1.1.4.3.7.4 1.1.3 1.5.5 2 .7.1 0 .3-.1.3-.3.5 0 .9.5 2.4 1.6.3.4.4.7.8.8.7.4.4.3 1.6.9.9.4.8.3 3.8.9 2.8.7 4.1.8 4.8 1.2.4.3 1.1 1.3 1.9 1.5.8.3 1.7.4 2.5.4.1 0 .4 0 .7-.1.5 0 1.3-.3 2.1-.4.3 0 .5-.1.8-.1.1 0 .1-.1.3-.1 1.2-.4 1.9-.9 2.1-1.2.1 0 .1-.1.1-.1-.1.3.5-.7 1.6-1.1.8-.1.5-.3 1.5-.3h1.1c.1-.1.4-1.2.8-1.7l.7-.7.4-.4 2.5-1.5c.3-.1.5-.3.5-.3s.3-.1.4-.1l3.6-.9c.8-.1 1.5-.3 1.9-.4.9-.4 3.6-.1 3.4-.1.1 0 .7-.3 1.2-.3.1 0 .7.4 1.3.8.1-4.8.1-9.7-.1-14.5-.1-1.5-.3-2.9-.5-4.4-.4-1.5-1.1-2.8-1.5-4.3-1.1-2.9-1.6-6-1.5-9.2 0-2 .3-4 1.3-5.6l.4-.4c0-.1.1-.3.3-.4.7-.7 1.3-1.2 2.1-1.5.1 0 .3.1.4.3 0 0 0-.1.1-.4.1-.3.1-.7.3-1.1.1-.7 1.7-1.2 1.7-1.2s-.2.1-.7-1.2z"/><path id="Path_5_" class="st10" d="M128.7 393.3c.7.3.8.4.9.5.4.3.5.5.7.9.2.5.3.6.4.7.2.3.3.4.3.9.1.5 0 .9-.1 1.3 0 .2-.1.4.1.6.5.5 2.4.4 2.4.4l2.3-.1h1.9c.1 0 1.4.6 1.9 1.1.4.3 1 .7 1.1.9.1.1.5.3.3 1.7-.3 1-.4 3.5-.4 3.5 0 .2-.1.5-.1.7.7.1.9-.1 1.2-.3.4-.3.7-.4.9-.4.5 1.6.9 2.3 1 2.5l.8.8c.3.3.5.4.7.4h2.2l.9-.9c-.1-.1-.2-.2-.3-.4-.6-.7-.9-1.3-1.1-1.7.6-.9.6-1.1.7-1.6l.1-.6.6.3c.9 0 1-.2 1.1-.3 1.2-.7 1.5-.7 1.6-.7.5 0 .9 0 1.1.1.4.1.6.3.7.7.2.9.2 1.2.1 1.7 0 .6-.1 1.3-.1 1.3l-.9.7c.1 0 .2 0 .3-.1h.1c.2-.1.4-.2.7-.3.2 0 .3-.1.5-.1.3-.1.6-.2.8-.2l2 2.7c.2.4.3.5.4.5.3 0 .5 0 1.1.4.3.2.5.2.6.3.9 1.2.8 1.5.7 1.7 0 .2-.1.4 0 .5.9 1 1 1.1 1.1 1.2.1.1.3.2.3 1v1.6l1.6.5c0 .3.1 1 .6 1.7.3.4.4.6.7.7.2.2.4.3.7.7.9 1 1.1 1.6 1.1 1.6 0 1.1-.3 1.4-.7 1.6l-.8.8c-.1.2-.2.4-.2.5-.6.8-1.4.7-2 .5-.4.3-.4.8-.3 1 .1.2.3.7.3 1.2-.8 1.3-.7 1.5-.9 2.3-.1.5-.1.9-.1 1.2-.1.9-.2 1.2-.8 1.6-.5.2-.8.5-.9.6s-.3.6-.4 1.5c0 1.3 0 1.9-.1 2.3.2.8.2 1.3-.3 1.9-.4.5-.7 1.2-.8 1.5l-.3 2.5c0 .1-.4.8-.5 1.4.1.4.3.3.4.3h.8c.4.7.6.9.7 1.2l.1.1c.2.3.4.7.4 1 0 .3-.1.6-.3 1-.3.4-.4.7-.5 1-.1.3-.2.6-.5.8-.6.3-.7.5-.8.8-.4 1.1-.5 1.8-.5 1.9.1.3.2.5.4.5l.9.4c.1 0 .5.2.8.7.1.2.2.6.2 1v3.3l.4 4.5c0 .6-.2 1.1-.4 1.7-.1.3-.2.5-.3.8-.1.4-.3.6-.4.9 0 .6.1.7.2.8.4.3.6.6.5 1.2-.1.7-.2 1-.3 1.2-.2.3-.4.4-.7.5-.3.1-.6.2-.8.3-.1.3-.3.8-.7 1-.7.2-1.5.4-1.5.4h-2.2c-.4 0-1.3.2-1.4.2l-.1.1c-.4.1-1.2.5-1.5.6l-1.3.9c-.8.6-2.1 1.3-2.8 1.4-.7.3-1.7.8-1.9.9-1.8.4-2.3-.4-2.5-.7-.7-.5-1-.2-1-.2l-.1-.4c-.2 0-.4 0-.9-.1h-.2v1c-1.9 0-2.4.1-2.4.1-1 .5-1.1.6-1.8.9-.8.4-.9.5-1.4.6-.1 0-.3.1-.6.1-.9.2-1.7.4-1.9.4-.2.1-.8.3-1.6.3-.7 0-1.7-.1-2.2-.2-.3.2-.5.5-.7.7-.3.3-.6.6-.8.7-.2.1-.4.1-.6.1-.8.6-1 1-1.2 1.2-.3.5-.6.8-.8.8-1.1-.8-1.3-1.2-1.4-1.5l-.8-.2-2.2.4-.1.1c-.1.2-.6.7-1.4.9-.4.1-.7 0-1 0-.3 1.3-.5 1.7-1.6 1.8-.7.1-1.1 0-1.3 0-.6.3-.7.3-.8.4-.2.1-.3.2-.6.4-.6.3-1 .3-1.1.3-.1 0-.7-.1-1-.1-1.6.3-2.1.5-2.6.5-.6 0-1-.2-1.4-.6-1-.8-1.2-1.1-1.2-1.6 0-.1-.4-.6-.9-1.2l-.2-.3-.1-.1c.4-.9.6-1.2.7-1.3l.6.1 2.9-1.7c1.3.6 2.3.7 3.1.6h.2c1.1-.2 1.7-.9 2.4-1.6.9-1 1.5-1.4 2.1-1.7.6-.5 3-2.5 3.1-2.7l3.9-3.7c1.7-1 3.9-2.9 5.6-5 1.4-1.7 2.4-3.4 2.4-4.5 3.7-3.6 7.2-7.1 7.4-10.7l.4-1.9c.3-3.5.5-6.2-.5-7.6l-2.1-1.4-1.6-.9c-.6 0-2.8-.3-2.9-.4-.5-.2-.8-.3-1-.5-.3-.2-.6-.4-.9-.7.1-5.3-.1-10.3-.3-15.2 0-1.5-.1-2.9-.5-4.4-.2-1.1-.6-2-1-3-.2-.4-.3-.9-.5-1.3-1.1-3-1.5-6.2-1.5-9.5 0-2 .3-4.3 1.4-6l.4-.4c.4-1.1 1.3-1.7 2.2-2z"/><g id="Group_1_" transform="translate(110)"><path id="Path_7_" class="st11" d="M286.9 325.8c-.7-1.6-.9-1.6-1.6-2.9-.5-1.3-.8-2.5-.8-2.8 0-.3-.8-1.6-.8-1.9-.1-.3.3-.8 1.2-1.3s1.9-2.5 2.4-2.8c.5-.3 1.5-1.1.8-1.6s-1.7-1.2-2-1.3c-.3-.1-1.5-.8-1.6-1.7 0-.9.5-1.2.9-2.1.3-.8.5-1.5.5-1.9s.5-1.3 1.2-2.3c.5-.9 1.2-1.5 1.3-2.5.1-1.1.7-2.1 1.5-1.9.7.1 1.2.9 1.6 1.3.4.4.5 1.1 1.5.8.9-.3 1.6-1.3 1.6-1.3l1.2-1.6s2.8-4.3 3.3-5.2 1.9-3.5 1.9-3.5.7-1.1 1.5-.7c.8.4 1.2.9 1.9 1.1.7.2 1.2-.1 2.1.4s1.9.8 2.3 1.5.1 1.3.1 1.6c-.1.3-.3 1.3-.1 2 .1.7.7 1.6 2 1.9 1.3.3 1.7.5 2.1-.1.4-.6 1.3-2.3 1.3-2.3s-.3-.4.9-.1c1.2.4 2.8.4 3.3.4.7-.1 2.4-.1 2.4-.1s1.6-.1 2.1.3c.5.3.9.9.9 1.6s-.5 2-.3 2.4c.2.4.5 1.2 2.3 1.2 1.9-.1 2.8-.1 2.8-.1s1.2.4 1.6-.4c.5-.8.7-1.3.8-1.6.1-.3.4-.5.9-.7.5-.3.9-1.3 1.3-1.3.3 0 .9-.1 1.3 0 0-.4 0-.9-.1-1.7-.1-2.5-.7-4.3-.7-4.8s.9-1.1-.1-2.1l-.5-.5c-.5.1-.8.1-.8.1s.4 0 .8-.1c-.7-.7-1.2-1.2-2-1.7-.9-.7-1.2-1.5-2.1-1.6-.9-.1-2 .1-2.3-1.1-.4-1.2.9-1.1.5-3.2s-.7-2.8-.7-2.8-.1-.9.4-1.6c.5-.7.4-1.2.1-2-.1-.7.1-1.1-.4-1.6s-.9-.7-1.7-1.1c-.9-.4-1.5.5-1.7-1.1-.4-1.6-1.2-2.3-1.2-2.3s-.5-1.1.5-.7c1.1.4 2.5.9 3.1-.4.5-1.2.5 0 .5-1.2s.1-1.2.5-2.5c.4-1.2.5-.4-.4-1.5s-2-3.1-2-3.1-1.7-1.6-1.1-2.7c.7-1.1 1.1-1.7 2.1-2.5 1.1-.7 1.2-.5 2-2.1.7-1.6.7-3.1.7-3.1l-.4-3.1s1.1-2.8.5-4.1c-.5-1.2.1-2.3-2.1-2.8-2.3-.5-2-.7-3.7-.7-1.7 0-2.3-.7-3.1.5-.7 1.2-1.5 2-2.5 1.6-1.1-.4-2-.9-2-.9s-.4-.7-.9 0-.9 1.7-2 1.2-.5-1.7-1.2-2c-.7-.1-2.1.1-2.7-.1-.5-.4-2-1.5-2-1.5s-1.2 1.1-1.5-1.2c-.1-2.3-.1-2.8-.1-3.3s-.4-1.1.1-3.2.4-3.1.9-3.6 1.5-.9 1.6-2.7c.1-1.7-1.1-2.3-.1-3.6.9-1.2 2-2 2.3-3.1.4-1.1-.5-2.1.4-2.7.9-.5 3.9-1.2 5.2-2 1.2-.7 2.5-.9 2.7-2.7.1-1.7-.1-2.8.7-3.2.9-.4 2.7-.4 3.7-.5 1.1-.1 2.3-.5 3.2-1.2.9-.7 2-1.1 2.8-1.2.9-.1 2-.7 2.7-.7.3 0 .8.1 1.3.1 0-.7.1-1.7.1-2.4 0-.8-.4-1.3-1.3-2.1s-.8-.9-.7-1.6c.1-.8 1.5-.7 1.9-1.3.4-.7.1-1.3-.5-1.9-.7-.5-.4-.9-.1-1.6.3-.7.9-2.5.5-3.5-.4-.9-2.8-1.1-2.8-1.1s-.7-.7-1.1-.7c-.5-.1-1.3-1.1-1.7-1.2-.4-.1-.5-1.3-.9-2.1-.4-.7-1.1-.9-1.6-.9-.7-.1-.7-.7-.9-1.6-.2-.9-.8-1.1-.8-1.1s.1-4.9.1-5.6c0-.7-.1-1.3-.7-2.1-.5-.9-.1-.7-.5-1.5-.4-.9-1.1-1.1-2.1-1.5s-.9-.1-1.9-.4c-1.1-.1-.8-.4-2-.3-1.2.1-1.7.7-1.7.7s-.5.1-1.6.1-2.4.8-2.8 1.2c-.5.4-.8.7-2 .8-1.2.1-2.1.7-3.2 1.5s-.5 2.1-.5 2.1-.9 1.2-1.3 1.9-.1.7-.1.9c-.1.4-.1.7-.4.9-.1.3-.3.4-1.1 1.6-.8 1.1-.9.4-1.6.4s-1.3 0-2.4.4c-.9.4-1.5 1.9-1.3 2.7.1.9.1.8.1 1.9-.1 1.1 0 .9-.4 1.7-.4.9 0 .5.4 1.6.4 1.2-2 0-2 0s-1.2-1.1-1.6-1.3c-.4-.1-1.1.1-1.6.1s-.8-.7-2.3-.7c-1.5.1-.7.7-.8 1.1-.1.4-.7.7-1.9.8-1.2.1-2 .7-2 .7s-2.4-.1-3.9-.1c-1.6 0-1.9.8-1.9.8s-.7.4-1.1.7c-.5.1-.4.5-.7.9-.1.4-.4 1.3-.4 1.6s-.5 1.1-1.6 1.3c-1.1.1-1.1-.4-1.3-.7-.4-.3-1.2-.4-1.2-.4l-1.1-.8-1.1-.4-.7-.7.3-.7s.7-1.1.7-1.6-.1-1.2.1-1.9c.1-.7 0 0 .3-.1s.7-.9.9-1.5c.3-.5.4-.8.4-1.1.1-.3-.1-.7-.7-.8-.7-.1-.9-.3-1.1-.8-.1-.5-1.5-1.1-2.3-1.1s-2.1.4-2.4.5c-.4.1-.8 0-.9-.4-.1-.4-.8-.4-.8-.4s-1.3-.3-2.3-.7c-.9-.4-.8.3-1.9.4-1.1.1-1.7 0-2.1-.1-.4-.1-.9.9-.7 1.5.3.7-.7.7-.7 1.3 0 .7.1.7.3 1.3.2.6.7.7.7 1.9s-1.2 1.1-1.2 1.1-.7 1.3-1.1 2.1c-.4.9-.7 1.2-1.3 2-.7.8-1.1 1.1-1.5 1.3-.4.4-1.3 1.7-1.3 1.7s-1.7 1.3-3.1 2.1c-.7.4-.9.5-1.2.5v.9s-.1 3.1-.4 3.7c-.3.6-.4 2.5-.4 3.2 0 .7.1 2 .4 3.6.1 1.6.1 2.5.1 3.1 0 .7-.3 1.2-.9 2.4-.7 1.1.4 1.6.4 2.4-.1.7-.9 1.6-1.7 1.6s-1.1.7-1.6.8c-.5.3-1.1.8-1.9 1.3-.9.5-.3 1.6-.7 2.8-.4 1.2.4.9.4.9s.7.1 1.1.7c.4.7-.4 1.3-.4 2.1-.1.8-.8.1-1.9.4s-.8.5-.9 1.1c-.1.5-.1.7-.9 1.3-.7.7-.8 1.6-.8 3.2s-.8 1.9-1.1 2.1c-.3.3 0 .9-.7 2.4s-1.5.5-2.7 1.2c-1.1.7-.1 1.1-.7 2.1-.1.4-.4.8-.7 1.1l1.2 1.6 1.5 1.5c.5.7 1.5 1.3 1.7 1.7.2.4 1.1.7 1.2 1.2.1.5 0 .8 0 1.7s0 1.9-.1 2.5c0 .7-.3 1.3-.7 1.9-.4.5-.8.7-1.5 1.3-.7.7-3.2 4-3.2 4s0 .7-.5 1.3c-.5.5-.4.3-.7.9-.4.7.4 2.1.8 2.8s.7 1.3.5 2.1c-.2.8-.1 1.2-.8 1.6-.7.4-1.6 1.5-2 1.7-.4.3-.5.7-.5 1.2s.1 1.3 0 1.9c-.1.6-.1 1.2-.1 1.2s.5 1.1.8 1.6 2.5 1.6 2.9 2.1 1.6 1.1 1.7 1.7c.1.7-.7 1.3-1.3 2.3-.7.9-.4 3.1-.7 3.6-.1.5-.7 1.5-1.6 2.1-.8.7-2 .9-2.7 1.7-.8.7-.7 1.3-.7 1.3l-.8 1.2s-.3.9-.5 1.6c-.3.7-1.1.5-1.9.8-.7.3-.3.7-.4 1.3-.1.7-2 2.9-2.5 3.6-.7.7-.8.4-1.6.4-.7 0-1.2-.7-2-1.2s-1.2-.3-1.2-.3-2 .7-2.8.8c-.7 0-1.6.9-2.1 1.3s-.7 2.4-.8 2.8c-.1.4-.1 1.2-.4 1.6-.3.4-1.6.4-2.1.4s-1.2 1.7-1.2 2.4.8 1.9 1.2 2.4c.4.5.9.4.9.4s.7.1.9.3c.3 0 1.5-.3 2.3-.3.7 0 1.1.8 1.1.8s.1 1.9.7 2.4c.5.5 2.7.3 2.7.3s.4.1.7.7c.3.4.4.3 1.2.7.8.4.7 0 1.1.4.4.4.5 1.2.5 1.7s.3.7.9 1.3c.7.7.8.8.8 1.2 0 .4.1.9.3 1.5.1.5.8 2 .8 2.1s1.6 1.1 2.1 1.6 1.7 1.1 1.7 1.1 0 .5.1 1.2 0 .7-.1.9c-.1.3-1.1 1.2-1.1 1.2s-.1 1.1-.3 1.3c-.1.4-.4.5-.8 1.1-.4.7.7 1.2.7 1.2s1.6 1.5 1.7 1.7c.3.3 2.1 1.7 2.4 2.3.3.5.7 1.6 1.2 2.7s1.7 1.6 2.1 1.7c.4.3 1.2.5 1.6.7.4.3.7.9.8 1.3.1.4-.3.8-.3.8s0 1.1.1 1.6.3 1.3.3 1.9c0 .5-.7.7-.7.7s-1.7 1.2-2 1.7c-.3.4.1 1.2.1 1.2s.7.3 1.1.7c.4.3.5 1.2.7 1.9.3.8.5.7.9 1.7.4 1.1-.3 1.1-1.2 1.6-.8.5-1.6.1-2.7-.1-1.2-.3-.7.3 0 1.5s1.2 3.2 1.2 3.9c0 .7-.3 1.2-.5 1.6-.3.3-1.1 1.2-2.1 2.1-1.1.8-1.5 1.7-1.2 2.3.3.4.3 1.5-.3 1.7-.1.1-.4.1-.7.1l.1.4s0 1.3-.3 1.7c-.3.5 0 .7-.1 1.6-.1.9 1.6 1.6 2.3 1.9.7.3.7 1.6.7 1.6s-.5 1.7 1.6 1.9c2 .1 1.6-.8 2.3-.9.7-.1 1.5.1 2.5.1 1.1 0 .8-.9 1.1-1.7.3-.8.8-.7.8-.7l1.3-.3s2.3-.1 3.3-.1 1.5 1.5 2 1.9c.7.5 2.5.5 2.5.5l.1.9c.1.9 3.3-.3 3.3-.3l1.9-.8.7.1c.1-.4.4-.9 1.7-1.1 1.9-.1 2.7.7 3.1-.7.3-1.2.8-2.7.8-2.7s-.3-.3 1.3-.5c1.6-.1 2.3-.9 2.5-1.5s-.3-.8 1.3-1.3 2.3-.7 2.3-.7.9-.5 2.3-1.6c1.3-1.1 1.1-1.1 2.4-1.1s1.1-.5 1.7-1.2c.7-.8 1.5-.9 1.7-1.6.3-.7-.3-1.6 1.5-1.6s1.7 1.6 2.7 0c.9-1.6.5-1.9 1.6-2.5 1.1-.7-.8.3 1.1-.7 1.9-.9 2.3-.9 2.4-1.7.1-.8.3-.8.3-1.5v-.7l-.5-.9s-.7.7-.7-.3-.5-.5-1.1-1.5c-.7-.9-.7-2.5-.7-2.5s.8-.9 1.5-1.1c.7-.1 2.3.5 2.3-.9s.1-2-.3-2.8c-.5-.8-1.1-.9-1.1-1.5 0-.5-.3-1.1 0-1.7.3-.7.8-1.5.8-1.5l.1-.9-.7-1.5s-.4-1.2.1-1.9 1.5-1.3 1.5-1.3.8.3 1.5-.4.9-1.9.9-2.1c.1-.3 0-1.2.4-1.6.4-.4.5-.4 1.1-1.1.3-.4.8-.5.9-1.1l-.9-.9.9.9c-.1-.2-.2-.5-.4-1z"/><path id="Path_8_" class="st11" d="M361.4 381.4c0-1.1.4-1.5-.1-2.3l-.5-.8-1.5-.4s-1.1-1.2-1.5-2.1-.5-.8-.8-2c-.3-1.2-.4-3.1-.4-3.1s.5-2.1 1.5-3.6 1.2-2.5 1.2-2.5l.4-1.9s.5-.8.4-1.5c-.1-.7-.8-3.7-.8-3.7l-.9-2.9s.8-.7 0-.7-3.1-.7-3.1-.7-2.4.4-3.1.4c-.4 0-.8-.3-1.3-.1-.3.4-.4.5-.4.5s.1-.1.4-.5c-.3 0-.5.1-.9.4-1.1.9-1.1 2-2.5 1.6-1.5-.4-.9-.9-2.3-.4-1.3.5-3.2 1.6-3.2 1.6l-3.7.1-3.1.3-2.7.4-2.8.7-1.1-.3v-2.2l-2.1-.8-3.1-.8s-.7-.4-.9-1.1c-.3-.7-.9-2.3-.9-2.3s-.5-1.9-1.6-1.9-2.5 1.6-2.5 1.6l-1.2 1.5s-.9-.4-.9.9-.3 2.9-.3 2.9-.4 1.2-.4 2 .8 2 .7 2.7c-.1.7-.7 1.3-.7 1.3s-.8-.1-.9 1.2c-.1 1.3-.3 2.1-.1 2.8.1.7.7 2.9.7 3.5 0 .6.1 2.5.1 2.5l.8 1.6s-.3.7-.3 1.6c0 .9.7 1.5-.3 1.6-1 .1-.5.3-1.1.9-.5.7-1.2 1.6-1.2 1.6s-1.1 1.3-1.6.8l-.5-.5s-2.8-.3-3.5-.5c-.7-.3-1.1-.8-1.3-1.2-.3-.4-.3-.9-1.1-1.2-.8-.3-2-.8-2-1.3s-.8-2.8-.8-2.8l-1.1-2.9s-.5-.5-.7-1.9c-.2-1.4.3-3.2-.1-3.7s-1.6-.7-1.6-.7-.7-1.6-1.6-1.3c-.9.3-3.2.9-3.2.9l-1.2 1.2s-.9.3-1.5-.4c-.5-.7.3 0-.5-.7s-1.3-.4-1.1-1.6c.3-1.2.4-1.7.3-2.3-.1-.5-1.1-1.7-1.1-1.7s-1.2-.5-.4-2 1.7-2.3 1.9-3.7c.2-1.4-.3-2.8-.3-2.8s-1.5-.9-.5-2.4c.9-1.5.9-3.6.9-3.6s.4-.8.5-1.7c.1-.9-.5-1.7-.5-2.1 0-.4-.1-1.1-.1-1.6s0-.9-.1-1.3-1.1-1.6-1.2-2-.5-1.3-.5-1.7-.1-1.9-.1-1.9l-.5-1.3-.5-1.7-.8-.8c-.1.5-.5.5-.9 1.1-.4.7-.7.7-1.1 1.1s-.3 1.3-.4 1.6c0 .3-.3 1.5-.9 2.1-.7.7-1.5.4-1.5.4s-.8.7-1.5 1.3c-.5.7-.1 1.9-.1 1.9l.7 1.5-.1.9s-.5.8-.8 1.5c-.3.7 0 1.3 0 1.7 0 .5.7.7 1.1 1.5.5.8.3 1.5.3 2.8 0 1.5-1.6.8-2.3.9-.7.1-1.5 1.1-1.5 1.1s0 1.6.7 2.5c.7.9 1.1.5 1.1 1.5 0 .9.7.3.7.3l.5.9v.7c0 .7-.1.7-.3 1.5-.2.8-.5.8-2.4 1.7-1.9.9 0 0-1.1.7s-.7.9-1.6 2.5-.9 0-2.7 0c-1.7 0-1.1.9-1.5 1.6-.3.7-1.1.8-1.7 1.6-.7.8-.5 1.2-1.7 1.2s-1.1 0-2.4 1.1c-1.2 1.1-2.3 1.6-2.3 1.6s-.7.1-2.3.7-.9.8-1.3 1.3c-.3.5-.9 1.3-2.5 1.5-1.6.2-1.3.5-1.3.5s-.5 1.5-.8 2.7c-.3 1.3-1.1.5-3.1.7-1.3.1-1.6.7-1.7 1.1l.8.1-.8 1.1-.7.8c-.7.8-1.1 1.2-1.1 1.2s.5.9 1.6 1.6c1.1.7 0 0 0 .7s-.5 1.1-.5 1.1 0 .7-.1 1.1c-.1.5-.8.9-1.5 1.3-.7.3-.5.8-.5 2 0 1.3-.1 1.5-1.2 1.9-1.1.5-.8.7-1.3 1.1-.5.5-.8 1.7-1.6 2.8-.8 1.1-2.4 1.5-2.4 1.5s-.7 1.9-2 4.1c-1.5 2.3-.7 3.6-.7 3.6s-.3 1.6-1.1 2.8c-.8 1.3-1.2 1.3-2.5 1.7-1.2.5-.5.9-1.5 3.1-.9 2-.9 3.2-1.5 3.9-.5.7-.9.7-2.5.9-1.6.3-.9.9-1.5 2-.5 1.1-.9.3-2.3.3s-2.4.3-3.1.7c-.7.3-1.7.9-2.5 1.6s-.3 1.1-.9 1.9c-.7.8-.1 1.6.1 2.5.3.9-.3 1.1-1.7 2.8-1.4 1.7 0 1.6.1 2.8.1 1.3.3 1.7.8 2.8.4.9.3 3.2-.1 5.2 2.5-.4 5.1-.7 7.6-1.1 5.3.5 6.7 0 12.8 1.5 13.2 5.3 30.2-3.7 45.3 7.5 1.2 0 2.1 1.1 4.3.7-.3 0 .3-.9-2.8-3.3-.5-1.9-.5-2.4.7-6.1.3-2.8 5.2-7.9 8.1-10.2l3.1-4.8 1.3-2.7c-.5-1.1-1.9.3-1.6-3.6.4-.7 3.3-6 3.3-6 2-.7 9.3-3.3 12.1-4.8l2.8-2.4 1.5-1.9-.3-1.5c0-.1-.7.4-2.4-.8-.4 0 .5-3.7 3.6-3.9l1.7-5.9 5.6-1.2 5.5-1.9c1.2-.9 9 .5 11.3 1.1 2 1.5 6 2.3 6.8 6.4.5.8.3 1.5 2.9 3.1l-.9 2.3-3.6.4-2.3-.5-2.4.1-.9-.3-2.3 6.3.4 3.3 1.1 2.3.3 1.5-1.2 1.5-1.1.3v3.2l1.2.9-.3 1.1-.8 1.1v1.9l.4 2.9v1.5l.8 1.5.1 1.6c-.7 0-1.3.5-1.3 2.3l-1.5.4-.3 3.5 1.2.4 2.4 3.5-.5.9.4 2.3 1.5.7c.7.5.1 1.7 3.1 2.7.7.1 1.5.5 1.5.5l1.9-1.6 2.7-.7c.4-.7.9-.9 2.3-3.2l2.3-1.9.8-.4.5 1.1 1.7.7.7-.8-.9-1.3c.3-1.2-.3-.9.7-4.3.3-.1.7-.3.7-.3s.8-1.7 1.1-2c.3-.1.1-1.1 1.9-2.7 0-.3.8.4 2-1.9.8-.4.8-.8 1.9-2.7l1.1-2.7.9-1.2c-.4-1.2.7-4.3 2.8-6.1l1.2-1.1c.8-2.4 1.2-5.2-.7-9.3-.5-.9-2.5.1-3.5-3.6l.8-1.1.7-3.3-2-.9-.7-1.5c1.5-.5-.7-3.5 2.8-4.8.1-.1.4-1.1.7-2.1-2.7-.8-5.9-2-6.4-2.4-1.5-1.1-1.9-.7-1.9-1.7z"/><path id="Path_10_" class="st11" d="M217.7 432.4c-.5-1.1-.7-1.6-.8-2.8-.1-1.3-1.6-1.1-.1-2.8 1.5-1.7 2-1.9 1.7-2.8-.3-.9-.8-1.7-.1-2.5.7-.8.1-1.3.9-1.9.8-.7 1.9-1.3 2.5-1.6.7-.3 1.7-.7 3.2-.7 1.4 0 1.7.8 2.3-.3.5-1.1-.1-1.7 1.5-2 1.6-.3 2-.3 2.5-.9.5-.7.5-1.7 1.5-3.9.9-2 .1-2.5 1.5-3.1 1.3-.5 1.7-.5 2.5-1.7.8-1.3 1.1-2.8 1.1-2.8s-.8-1.5.7-3.6c1.5-2.3 2-4.1 2-4.1s1.6-.3 2.4-1.5c.8-1.1 1.1-2.4 1.6-2.8.5-.5.1-.7 1.3-1.1 1.1-.5 1.2-.7 1.2-1.9s-.1-1.7.5-2c.7-.3 1.3-.8 1.5-1.3.2-.5.1-1.1.1-1.1s.5-.5.5-1.1c0-.7 1.1 0 0-.7s-1.6-1.6-1.6-1.6.5-.5 1.1-1.2l.7-.8.8-1.1-.8-.1-.7-.1-1.9.8s-3.3 1.3-3.4.3l-.1-.9s-1.9 0-2.5-.5c-.7-.5-.9-1.9-2-1.9s-3.4.1-3.4.1l-.9.6s-.5-.1-.8.7c-.3.8 0 1.7-1.1 1.7s-1.9-.3-2.5-.1c-.7.1-.1 1.1-2.3.9-2-.1-1.6-1.9-1.6-1.9s0-1.3-.7-1.6-2.4-.9-2.3-1.9c.1-1-.1-1.1.1-1.6.3-.5.3-1.7.3-1.7l-.1-.4c-.7 0-1.6-.3-2-.3-.5 0-1.2.8-1.9 1.5s-1.1.8-1.6.9-1.3.8-2.5 1.9c-1.2 1.1-1.7 1.5-2.8 1.9-.8.4-1.7.1-1.7-.7 0-.8-1.3-.3-1.7-.5-.4-.3-1.2-.5-1.2-.5s-.5-.9-.8-1.6c-.3-.7-.7-.3-1.2-.3s-.8.1-1.7.1c-.8 0-.5-1.5-.7-2.1-.1-.7-1.5-.7-3.3-1.3-1.7-.8-2.5.1-3.3.1-.7 0-1.1 1.1-1.1 1.1l-1.2 1.3s-1.7.8-2.9.8c-1.1 0 0 0-.5.1s-1.2.5-2.3.4-1.2-1.3-1.3-2.1c-.3-.8-.4-1.1-.4-1.1l-2.1.1-1.1-.3s-.9-.7-1.7-1.7c-.7-.9-1.2.3-1.7.8s-.8-.1-1.1-.7c-.3-.6-.9-.8-1.5-1.2-.5-.4-.4-1.1-.4-2.1 0-1.2 0-.4-.4-.8-.4-.3-1.2-.3-1.2-.3s0-.7.3-1.5-.7-1.2-.8-2.3c-.1-.9-.7-.3-1.1-.5-.3-.3-1.7-.7-1.7-.7s-.7-.1-1.2-.8c-.5-.8-.5-.4-.5-.8s-1.2-1.2-1.5-2c-.3-.8-1.1-.4-1.6-.4s-.7 1.6-1.3 2.1c-.8.7-1.5.9-2.8 1.7-1.2.7-2.9.3-4.2.5-1.2.3-1.7.4-1.7.4s-1.1.7-1.7 1.3c-.7.7-1.1.3-2.1.3-1.1 0-1.7-.8-3.2-1.2-1.4-.4-2.5 1.2-2.5 1.2s-1.1 2.1-1.2 2.4c-.3.3-1.1 2.4-1.7 3.3-.7.9-1.5 2.7-1.5 2.7s-1.2 1.2-1.3 1.6c-.1.3-.4 1.2-.4 1.5s-.9.8-1.2 1.6c-.3.7 0 1.9 0 1.9s.1 1.6.1 2.5c0 .9-.3 1.3-.8 1.6-.5.3 0 .8 0 1.2v1.9c0 .7-.1 1.1-.3 2.4 0 .3-.1.4-.1.5.3.3.4.5.4.5s.3.5.8.8l.5.3s1.2.7 1.5 1.5l.3.8 1.2.5 1.1.3s1.6 1.5 2 2.5c.4 1.1.4 2.5.5 2.9 0 .3.1 1.5.3 2.5.3 0 .4.1.9.3 0 0 .1 0 .3.1h-.1c1.9.1 3.6-.3 7-.4 2.4.3-.4 4.7-2.3 7.5l-.4.7s-.4.1 0 .9c.1 1.2 2.1 4.8-.9 8.8.1.3-.8 1.3.1 3.9l.7-.7.4-1.5 1.5-2.1 2.5 3.2c-.5 1.9 1.3 5.3-1.2 9.1.5 1.7 4.8 5.9 9.5 6.9h1.7c.1-1.3-.9-6.7-4.9-7.7l.1-2.5v-2l1.1-4.1c.1 0 0-.9 2.5-3.6l1.1-1.7s.1.7 0 1.2c-.1-.3-.4 4.1-.4 5.2-1.6 1.1 3.6 2.4 5.7 5.7l1.5 1.5c.1.3.7-1.2 4.6-.9.7.1 2.1.1 2.1.1l1.5-.7h2.8l1.7.1v2l1.2-.7.4-2 1.1-1.7h1.6l2-.1 3.4.9h2.8l.7 1.5 1.7.9 2.1 1.2-2 3.2-1.1.8.8 1.6-3.4.1c-1.3.4-3.6 2.5-5.4 5.1-2 1.1-2.3-.5-6.9 2.8-.7.4-3.2 1.3-3.2 1.3-.5-.5-2 2.4-3.4-.7-.3-.1-.8-1.2-.8-1.2h-1.5c-.7 1.7-2.5 4.8-4 7.7 1.7 2.3 8.5-1.2 13.5-1.1 8.5-5.1 19.2-7.2 30.5-8.8-.6-2.1-.4-4.3-.8-5.2z"/><path id="Path_13_" d="M105.7 254.8c1.1.3 1.2.5 1.7.9s.5.8.5 1.5.7.4 1.2.9c.7.5.1 1.1.1 2.3 0 1.2.1 2.1.5 2.8.4.7 1.2 1.5 1.5 2 .3.4 1.9.1 2.3.1.4 0 2.7-.1 3.2 0s.7 1.1.7 1.1.9 1.5 1.7 2c.8.7 1.2.1 2 .1s2.3-1.3 2.7-2c.4-.7 1.2.1 1.7.7.5.4.9 0 .9 0s3.2-.4 3.9-.3c.7.1.7.8 1.1 1.2.4.4 1.1.7 1.1.7s1.5.7 2.3 1.6c.8.9 1.9 2.3 1.9 2.3s1.3.5 2.1.9.5.7.7 1.3c.1.7.4 1.1.9 1.7.4.7 1.3.1 1.7.3.4.1 1.3.1 2.1.3.8.1 1.3.9 2 2 .7.9.1 2.8.1 4 .3-.1.9-.5.9-1.2.1-.7.4-1.2.4-1.7 0-.4-.1-1.1.1-1.2.3-.1.5.3.8-.7.3-.9.4-1.5.4-1.5s-.1-.9-.4-1.2-.4-.5-.4-1.1-.1-1.5.1-1.7c.4-.3 1.2-1.1 1.2-1.1s2-1.5 1.5-2.9c-.4-1.5-1.5-2.8-.3-3.1 1.2-.4 2-1.2 2.3-1.5.1-.3 1.2-2 1.7-2.8.7-.8 2-3.3 2.3-3.7.1-.4.7-1.1.4-2-.3-.9-.4-1.5-1.1-1.5-.7 0-.7.4-1.2-.3-.7-.7-.8-1.1-.9-1.3-.1-.3-.7-1.1-.7-1.1s-.8-.4-.9-1.1c0-.1-.1-.4-.1-.8h-.1.1c0-.7-.1-1.6-.1-1.6s.3-2.3.7-3.6c.4-1.3.4-2.4.1-3.9-.4-1.5-.3-2.4-.9-2.9-.7-.5-1.7-.5-1.9-1.5-.2-1 .5-1.3 1.1-1.7.5-.4 1.1-.7.9-1.7-.2-1 .3-1.1.4-2 .1-.9.4-1.3.4-2-.1-.7-.4.1-.1-2 .3-2.3.8-3.6.8-3.6s1.5-1.7.5-2.8c-.9-1.1-1.7-2.3-2-3.6-.3-1.3-1.1-2-.9-3.5.1-1.5 1.2-.9 1.3-1.9.1-.9.1-1.3.7-1.9.4-.5 1.2-1.7 1.2-1.7s.9-.4.5-1.3-.9-1.3-.9-1.3.4-.8 0-1.5-1.3-1.5-1.6-1.9c-.3-.4-1.2-.9 0-1.3s2.3 0 2.8-.9c.4-.9 1.2-1.7 1.5-1.9.3-.1 1.1-.4.8-2-.3-1.5-.4-1.7-.1-2.3.4-.5.5-1.3.4-2.3-.1-1 .5-3.1.8-4s0-1.2.9-2.5 1.2-1.5.9-2.7-.1-2.3.1-3.1c.4-.7 1.9-1.7 2.8-2.5.9-.7.4-1.5 1.3-1.9.9-.4.4-.7 1.7-.4 1.3.1 1.6 1.5 2.5.4.9-.9.1-2 1.3-1.9 1.2.1 1.2.3 2.4.3.7 0 2.3-.1 3.7-.1 0-.7-.5-1.1-.4-4 .7-3.7-.4-5.1 0-12.1l-.8-.1-.4-.5c-2 0-1.9 3.2-4.9 6.7-.1-.4-.5 1.7-2.5-.4-.4-.3-.5-1.3-1.5-3.5-.3-.1-.5-.8-2.4-.7l-.9.4c-.7.4-.1 2.4-4 1.3 0 0-1.5-.7-.9-.9.5-.5.8-.4.8-2.9.5-.9.7.4 2.5-2-.4.1 1.7-1.2 0-2.8-.5 0-2.3.9-.3-1.9.7-1.1 1.6-1.2 2.7-4.4l1.1-.7c-.3-.8-.3-.5-.9-2.4.7.8 2.9-1.3 4.7-1.1-.5 1.1-3.1 2.7 2.1 4.1.5.1 1.7 3.6 3.6.3.7-1.2 1.3-.7 3.6-2.1.1-2.1 3.3-7.6 8-10.5 0 0 .9 0 1.9.3.8.1.9.3 4.5.3 1.5-1.1 4-2.5 3.9-6-1.5-.4-2-1.3-2.1-5.2 1.1-2.7 2.5-6.9 8.5-5.3 2.4-.3 3.1-2.3 2-6.9.3.1-.7-2.3-1.9-3.5h-2.5l-2.4-.3-2.3.1-2.8 2s-.3.9-1.5 1.1c-2.5.4-6.4.4-10.2 2.7-1.2 1.2-2 2-4 4.1-1.2.7-6.1 2.1-9 4.1-.9.3-1.5 1.5-5.3 1.2-.7-.3-1.5-.4-1.5-.4l-3.2.5c-.3.1-1.7.8-3.2 2.1l-2.1 1.1-1.3.1-1.3.8c-.4.4-1.3.1-.9 2.4 0 0-1.1.3-1.3.5-.4.3-1.1.9-1.2 1.3s-.4.7-.1 2.8l.4 1.6.9.7-1.1 2.8s-1.3 1.2-2 2.1c-.5.7-.3.8-.8 3.5.1.1-1.5.7-1.3 2.8-.5.4-.3 1.7-.7 4.8-.4 2.9 5.5-2.8 4.7 4.5 0 0 .3 1.7.1 2.1-.1.4-.7 1.7-.7 1.7v1.3c.4 0-1.1 1.2 1.9 2.8.3.1-.7.7.9 3.5-.1.7 2.3.5 1.7 3.2-.1 1.3.3.5-.3 4.3l-.9 2.3c-.1.5-.5.4.1 1.6.4.9.3.5.7 2.7.8 6.3-9.7 23.5-12.7 28.6l-2.1 2.8c.1 0-1.1 1.1-2.8 4.1-.4.5-7.3 9.8-8.4 11.2 0 0-4.7 6-5.7 7.6l-2.4 3.2-4 3.2c-1.2 1.5-4.3 2.8-4.3 2.8.1-.3-3.2 2-3.9 3.9-.3.1-.8.8-2.7 2.5l-.1.1c.8 1.1 1.7 2.3 1.9 2.7.4 1.2 1.9 1.2 3 1.4z" fill="#daeaf8" stroke="#cdddf2" stroke-width="1.006"/></g><path id="Path_17_" class="st11" d="M257.8 391.1c-.4-1.1-2-2.5-2-2.5l-1.1-.3-1.2-.5-.3-.8c-.3-.8-1.5-1.5-1.5-1.5l-.5-.3c-.5-.3-.8-.8-.8-.8s-.1-.3-.4-.5c-.1.8-.4.9-.4.9s.3-.1.4-.9c-.4-.5-.8-1.2-1.1-1.6-.3-.8-.9-1.1-.9-1.1s-.4 1.1-.8 1.5c-.3.4-.4.3-1.2.3s-.7-.7-.8-1.1c-.3-.4-.7-1.2-.7-1.2s-.7-1.1-.8-1.5c-.3-.4-.8-.8-1.3-1.2-.5-.4-.7-.3-.8-.7-.1-.4-1.1-.9-1.1-.9l-.8-.1s-.3-.4-.1-.8c.3-.4-.5-.9-.5-1.6 0-.7-.7-.8-.7-1.1s-.8-1.2-.8-1.9-1.2-.3-1.2-.3l-.9.4s-.3.7-.3.9c-.1.3-.5.4-.5.4s-1.6 0-2.1.3-1.5.3-2 .7c-.5.5-.7.8-.9 1.3-.3.7-1.2-.3-1.2-.3l-.8-.7-.7.3-.9.4c.3.3.4.7.4.9 0 .5-.1 1.7-.1 1.7s-1.1.9-.1 1.3-1.6 1.4-1 1.9c.5.5 3 1.2 2.8 2.1-.3.9 1.6.4 1.3.7-.3.3-.7.7-.7.9 0 .3.4 1.1.4 1.1s.1.4.1.9c-.1.5-.1.9-.1.9s0 .5-.3 1.3c-.1.8-.1 1.3-.1 1.3s-.5 3.2-.8 3.5c-.1.3-1.1 2.5-1.1 2.5l-.1 2.7v2.1l-1.3 2.8-.7 1.6-1.3.5s-.9.5-.9 1.3c-.1.9-.4 2.9-.4 2.9s0 .9-.7 1.2c-.7.3-2.4.9-2.4.9l-1.1.4s-.5.1-.8.5c-.3.4-2.1 1.2-2.1 1.2s-1.1.9-1.3 1.1c-.3.1-1.9.7-2.3.7-.4 0-2.9-.5-3.2-.5-.3-.1-1.7.1-2.5-.7-.8-.9-.5-.4-.8-.9-.3-.5.7-.9-.3-.9h-3.2c-.9 0-1.1.8-1.9-.1l-.8-.9s-.5-.4-1.1-.3c-.5.1-1.5.9-1.5.9s-.5.5-.5.9c0 .3.1 1.2 1.1 1.3 1 .1-.3.5-.3.5s.5.1.4.5c-.3.4 1.6.9 1.6.9s-.4.1-.5.4c-.1.3-.3 1.1-.3 1.1l-1.3.3c-.5.9-.1 2.1-.1 2.1s.1.5-.1.8c-.3.1-1.3.5-1.3.5s-.3.7-.7.9c-.4.1-1.9.4-2.3.5-.3.1-1.3.7-2 1.1.1.1.8.9.8 1.3 0 .5-.1.9.3 2 .3.8 1.3 1.7 1.9 2.1.3-.1.5.3.8.4.4.1.7.9.7 1.3 0 .5.1 1.3.5 2.5.4 1.1 1.1 3.2 1.1 3.2l-.5 1.5-.8.3c-.8.3-.1 1.5-.1 1.5s.3.5.3.9-.3 1.6-.3 1.6-1.1 1.2-1.5 1.7c-.4.5-.1 2.5.1 3.7.3 1.3 2.4 1.5 2.4 1.5s1.6.1 2.1.1.7.9 1.2 1.6c.5.7.7-.1 1.5-.3.8-.1.5-.5 1.6-.5.9 0 0 0 .4.1s.9.9.9.9.5 1.9.7 2.9c.1 1.1.9-.1.9-.1s1.5-.5 2.9-.7c1.3-.1.5 1.6.5 1.6v1.2c0 .3.5.3.9.8s-.1.8-.1.8-.7.5-1.1 1.3c-.4.8-.4 2.3-.9 2.9-.5.5-1.7.3-1.7.3s-1.6 0-3.3.3c-1.6.3-3 .9-4.2 1.3-1.3.4-1.9 1.1-1.9 1.1s-.9 2.1-1.3 3.2c-.5 1.1.8 1.3 1.6 2.8.8 1.5 1.1 3.9 1.1 3.9s.4.7 1.6 1.5c1.2.8.7 1.1.4 1.7-.3.5-.9.3-2 .9-.9.7.3 2.5.9 2.9.5.4 1.1 1.6 1.6 3.2.5 1.7-.9 1.9-1.7 2.8-.9.9-1.3 3.2-1.3 3.6s.9 1.3 1.1 2.8c.1 1.3-.1 2.5-.3 3.1-.1.5 0 .8.1 1.2.1.4-.1 1.2-.1 1.2s-.1 1.1.4 2.8c.5 1.7.8 1.7 0 1.7-.8-.1-1.1.8-1.6 2.1s.3 2.1.3 2.1.1 1.1-.3 1.7c-.4.7-1.9-.7-2.1-.7h-2.5c-1.3 0-.9 0-2 .7s-1.6 1.9-1.7 2.3c-.1.4-.3 1.2-2.3 2.5-2 1.3-1.7.5-3.6.8-1.7.3-1.7.8-2.5 1.9-.8 1.1-.9.5-1.1 1.6l-.3 2.7-.5.1s-.5 1.3-.8 2.5c-.1.7-1.5 1.5-2.3 2v2.1l-.3 1.9c-.1.7 0 1.5 0 1.5s.1 1.2.7 2.3 0 0 .5.3 1.7 1.2 1.7 1.2 1.1 1.3 1.3 2.5c.4 1.2.9.9 1.2 1.5.4.7 1.2.4 1.9 1.1.8.7.3.9.7 1.9.4 1.1 1.2 1.2 2.5 1.6 1.3.4 1.2-.3 1.6-.4.1 0 .7.1 1.2.4 2.3-4.8 4.8-9.7 6.2-13.5.9-.4 2.5-6.5 6.2-6.4l1.6-2.5 1.6-.1 1.1.1 1.6-2 1.2.7c.5.4.7-4.4 2-6.2l1.6 1.5 1.5.4c.3-.8.1-1.9 0-3.7 1.1-.7 1.9-1.3-.9-4.1-.7-1.1-.9-2.1-.9-2.1s-2.3-.1-3.3-.5c0 .1-2.9-2.1.9-2 .1-2 2.1-4.3 5.8-2.7l.9-1.5-1.1-2.7.7-2.3c1.7-1.1 4.1-1.7 6.4-5.2l1.5.5 3.7-2.1c.8 0 2.4.3 4-1.1l1.2-1.5c.3 0 .7-.1 2.9-.4l1.6-1.5 2.1-1.2h1.1l2.3-.9 2-.5.1.9.7.4c.8.1 1.9-.4 3.4-.9l1.1-1.6c1.9-.1.4-4.8 5-4.9-.5.1 2.1-.1.9 2.1-.3.8-.9.3-1.2 3.6.8 0 1.9-.1 4.2-.4h2v-1.3c-.1-.3 1.5 0 3.2 1.2 0 0 .9-1.7 1.1-2.3.3-1.1 2.9-1.9 3.7 1.2l.9.5 1.1.9c.3-.1-1.5.4-2.1.7l-.1.9.5.9c-.8.4-1.9.5-3.8.5l.9.7 2.9.1 1.7-1.2 2-.7.9-1.5c.8-.4-.3-3.9-.1-6.6l1.1-1.7-2.1.1-.7 1.1-.1-1.6-.5-1.2 1.6-1.7h1.2l.4 2.1.7.1.7-2.5.4-2.3.4-1.2.1-2.1c-.9.4-2.9-.3-3.8-2.7.1.1-.5-.7-.4-1.2l-3.3-1.7c-1.5-.5-.8-.9-4.9-.7-.4-.1-3.8-1.1-5.7-3.9.3-.5-2 1.5-3.4-2.1-.4-.1-2.4-1.9-4.4-2.8l-1.5-1.6-5.8-1.6c-.7-.4-1.6-.8-3.3-.7l-.5-1.6.5-.7c.1-.1-.1-.5.1-4.1l-1.2-1.1c-1.5-.9-.7-5.6.1-8.9.7-.1 4.4-7.3 4.4-7.3 1.6-2.1 4.2-4.5 5.4-8.9l.5-2.7c0-.1.3-.4.1-4.5-.1 0 1.9-3.5 3.8-5l.7-1.1 1.6-.7s-.4-.9.7-1.1c1.1-.1.1-.1 4.2-.1h.1c-.1-1.1-.3-2.3-.3-2.5-.8.1-.8-1.5-1.3-2.6z"/></g></g><path class="st6" d="M25.8 74.3c-.3-1.1-.2-2.1-.2-2.3 0-.2-.6-.9-.8-1.3-.2-.4-.2-1.4-.2-1.4s-.3-1.1.5-1.9c.8-.8.6-1.6 0-1.7-.6-.1-.4-.5-.6-.7-.2-.2-.2-.6-.8-.5-.5.1-.8-.1-.8-.1l-1.7-1.2s-.1-.2 0-.8c.1-.6.5-2 .4-2.8 0 0-.3-1-.1-1.4 0 0 .4-.6-.2-1 0 0-2.6-1-3.3-1.3l-.3-.1c-.1-.1-.4-.3-.6-1.3-.3-1.3-.5-2-.5-2V52s.1-.1.1-.2c.1-.1.1-.3-.1-.6l-.6-1.4s-.2-.5-.2-1-.4-.9-.7-1.1c-.3-.1-1-.8-1.1-.6-.1.2-.2-.1.1-1 .4-.8 1.4-2.5.6-5 0 0 0-.4-.8-.3-.8.1-.7-.3-.8-.4 0-.2-.2-2-.2-2s0-1.2-2-2.4l-1.4-.2s-.4-.2-.5 0c-.1.2-.8.5-1.7.5-.9 0-.8-.2-1-.3 0 0-.3-.3-.2-.6 0 0-.4-.2-.7 0-.3.2.1.4.2.5.5 0 0 .1 0 .1s-.2.2.2.3c.4.1.3.2 0 .2s-.3.1-.3.2-.2.3-.7.5c-.5.1-1.3.1-1.5-.1-.2-.1-.7-.1-1 0-.3.1-.7.2-.8.2-.1 0 0 .3 0 .3H.9v45.5c.1 0 .2 0 .3-.1 0 0 .8-.6 2.5-.2 0 0 .8.4 1.3-.1 0 0 1.3-1.1 2-1.1 0 0 3-.4 3.1-.4.1 0 .6-.1.7-.7 0-.6-.2-.9 1.5-1.4.1 0 .2-.1.3-.1 0 0 .6-.2 1.2.6 0 0 .1.3.6.3 0 0 2.2.7 2.5 1.1 0 0 .3.2 1.1-.3 0 0 0-.6 2.1-.5 0 0 .6 0 .2-.5 0 0-.3-.1.7-.7s1.1-.4 1.3-.8c.2-.4.8-.9.8-.9l2.5-2.1c.2.3.5.2.2-.9zM20 193.2c-.1 0-.6-.2-.9-.5-.3-.2-1.9-1.3-2.2-1.7 0 0-.2-.3.1-.5.4-.2.5-.3.3-.5-.2-.1-.9-.2-1-.2 0 0-.3-.1-.1-.4 0 0 .2-1-1.2-1.7-.3-.1-.7-.7-.7-.1 0 .2-.1.6-.6.9-.2.1-.5.1-.8-.1-.2-.3-.3-.4-.8-.2s-.4.1-.7-.1c-.3-.1-.3-.3-.6-.3 0 0-.7-.5-1-.8-.3-.3-1-.9-1-.9s-.4-.4-1-.4c-.4 0-1.1.2-1.6 0-.2 0-.4-.1-.6-.3 0 0-.7-.6-.6-.9 0 0 .1-.4-.5-.4 0 0-.2-.1 0 .5 0 0 .1.3-.4.2 0 0-1.6-.6-1.6-2.3 0 0-.1-.8.7-.9 0 0 .5-.3.5-.4 0-.1.2-.3.3-.3 0 0 .2-.1.1-.3-.1-.2-.4-1-.1-1.1.3-.1.3-.4.1-.4-.2 0-.7 0-.7-.4s.2-.7-.4-1.2c0 0-.2-.5-.8.5 0 0-.6 1.1-1 .8 0 0-.5-.6-.6-.8-.1-.2-.3-.3-.7-.5v18.8c.1 0 .2-.1.2-.1.1-.1.7-.4 1.1-.2.4.2.5.3 1 .2.5 0 1.2-.3 1.4-.4.2-.1.6-.1.7-.1.2 0 .4.1.6.5.2.4.4.2.8.1s.7-.1.9.1c.2.3.2.8.6.8.4 0 .6-.2.8-.3.2-.1.6-.4 1.1-.3.5.1 1.8.6 2.1.2 0 0 .3-.6.4-.7 0-.2.2-.8.6-.6 0 0 .5.2 1 .6.5.4 1 .7 1 .7s0 .1.4 0c.3-.1.3-.1.4.1.1.2.3.9.8.7.5-.2 1.1-.4 1.2-.3.1.2.2.3.2.5s.2.6.6.5c.4-.1 1.6-1 1.6-1.3 0-.3-.3-1.2-.1-1.4.2-.2.6-.7.6-1.1 0-.4.3-1.5.3-1.5s.1.1-.2.2z"/><path d="M204.2 89.8c.3-.3.6-.9.8-1.9.1-.9-.7-1.1-1.4-1.6-.6-.5-1.5-.8-2.6-1.2-1-.4.1-1.3.1-1.3s.1-1.2.1-1.7c0-.3-.1-.7-.4-.9.1-.5-.2-.6-.4-.8-.6-.3-1.9-1.7-1.9-2.5 0-.9 1-1.3 1.4-2.1.3-.8 0-2 0-2.9 0-.9.1-1.2.7-1.7s1.4-4.4 1.4-4.4.1-.5 0-1.1c-.1-.5-.6-.5-1-1.5s.1-.5.6-.8c.3-.3 1.4-.5 2.2-1.1.8-.5.6-1.2.6-1.2l-1.1-1.1s-.6-.8-.6-1.1c-.1-.3-.6-1.1-.7-1.9-.1-.8.7-2.1 1-2.9.1-.8-1.4-1.3-1.9-2-.6-.5-.6-.5-.6-.8-.1-.3-.6-.9-.6-.9v-1.2l.1-1.2s.6-.9.7-1.5c.1-.5-.6-1.3-1.4-1.5-.7-.1-.7-.5-.7-.5s0-.9-.7-1.7c-.7-.8-1.1.7-1.4 1.5-.3.8-1.4.1-1.5-.5-.1-.5-.6-.7-1.5-.7-1 0-1-1.2-1-1.2l.6-.9s.1-1.6.1-2.4c0-.8-.6-2.5-.6-3.1 0-.5-.4-.3-.4-.3h-1.8c-1 0-1-1.1-1-1.1l-.6-2.4s0-.4-.1-.8c0-.3-.1-.4-.1-.7-.1-.5-1.8-1.3-2.6-1.6-.8-.1-1.8-.5-2.6-.5s-1.4-.4-2.2-.9c-1-.5-1.1-1.5-2.2-1.3-1 .1-1.8.7-2.1 1.1-.1.4-1 1.6-1 1.6-1.4 1.3-.3 1.9.1 2.1.6.3.6 1.2.6 1.2s.7 1.7.7 2.7c0 1 1.4 3.2 1.4 3.2s-.3 1.7-.6 2.1c-.3.5-.6 1.1-.6 1.1l-1-.1s-1-.3-1.4-.3c-.6 0-1.4-.3-1.9-.4-.6-.1-1 1.1-1 1.6-.1.5.1 2.3.1 3.1.1.8-.6.4-1.4.1-.8-.1-1-.1-1.7.3-.6.4-.4.7-.8.5-.4-.2-.6-.5-1.9-.5-1.4-.1-1 .1-1.9.8-1 .5-1 .9-1.4 1.7-.4.7-.7 1.7-.7 1.7s-.8.5-1.7.5c-.8.1-1.7-.9-2.2-1.2-.6-.3-1.2-.9-2.1-1.9-.9-1-1 .5-1 .5s-.6 2-.8 2.5c-.3.5-.3 1.3-.7 2.1-.4.8-.6 2.1-.6 2.5 0 .5-.6 2.3-1.1 2.4-.6.1-1 .7-1 .7v1.7c0 .5-.8.8-1.4 1.1-.6.3-1.7.1-1.7.1s-1-1.3-1.2-1.6c-.3-.3-1-.1-1-.1h-2.4c-.6 0-.7.8-.7.8v1.6c0 .4-.6.4-1.5.7-1 .3-.8 1.1-1.5 1.7-.6.4-.6 1.1-.7 1.7 0 .3-.1.4-.1.7-.3.9 1 .7 1.7 1.2s1 1.2 1.1 1.6c.1.4.6.5 1.1 1.3.6.7 1.9 3.6 2.6 4.4.6.8 1-.3 1.1-.5.1-.3.7-.4 1 .1.3.5-.7 1.2-.7 1.2s-.6 1.5-1.2 3.5-.4 3.7-.1 4.5c.3.8 1 2.3 1 2.3s.1 1.1.4 2.3c.1 1.2.1 1.6.1 1.6s-.3 1.3-.4 2.5c-.1 1.2 0 1.7-.7 3.1-.7 1.3 0 1.7-.3 2.9s-.6 2-.6 2-1.4.9-1.4 1.6 1 .7 1.2 1.7c.3.9 0 1.1.1 1.9.3.8 1 .9 1.4 1.6.6.7 1.1 2.3 1.4 3.2.1.9.8 1.6 1 1.9.1.3.6 1.1.6 2 0 .9-.4.8-.4.8l-.1.9s-.1.4-.6 1.3c-.6.9-.1 1.3.3 1.7.4.5 1.2.8 1.8 1.2.6.4.3.7.4 1.2.1.5 1-.3 1-.3s1-.7 1.2-1.2c.3-.5.7-.3.7-.3s.8-.4 1.5-.4.4.8.4.8v.9s-.1 1.3-.1 1.9c0 .6.8.3 1.4.3.6 0 .6.3.8.5.2.2.6 1.2.6 1.2s1.2-.4 1.9-.5c.7-.1 1.1 0 1.2.4.1.4-.1.8-.1.8s.6.5 1.1.7c.6.1 1 .9 1.2 1.7.1.8-1 .5-1.7 1.2-.6.7 1.1 1.7 1.1 1.7.6-.3 1.7-.9 2.1-1.1.4-.1 1.9-.3 2.4-.5.4-.3.7-.9.7-.9s1-.3 1.4-.5c.3-.1.1-.8.1-.8s-.4-1.2.1-2.1l1.4-.3s.1-.8.3-1.1c.1-.3.6-.4.6-.4s.6-.7.7-1.1c.3-.4-.4-.5-.4-.5s-1-.1-2.1-.3c-1-.1-1.1-.9-1.1-1.3 0-.3.6-.9.6-.9s1-.8 1.5-.9c.6-.1 1.1.3 1.1.3l.8.9c.8.9 1 .1 1.9.1h3.4c1 0 .1.4.3.9.1.5 0 0 .8.9s2.2.5 2.6.7c.3.1 2.8.5 3.2.5.4 0 2.1-.5 2.4-.7.3-.1 1.4-1.1 1.4-1.1s1.8-.8 2.2-1.2c.3-.4.8-.5.8-.5l1.1-.4s1.8-.7 2.5-.9c.7-.2.7-1.2.7-1.2s.3-2.1.4-2.9c.1-.9 1-1.3 1-1.3l1.4-.5.7-1.6 1.4-2.8v-2l.1-2.7s1-2.1 1.1-2.5c.1-.3.8-3.5.8-3.5s0-.5.1-1.3c.3-.8.3-1.3.3-1.3s0-.4.1-.9-.1-.9-.1-.9-.4-.8-.4-1.1c0-.3.4-.7.7-.9zm-17-23.4c0 .1 0 .6-.1 1.2 0 .7-.1 1.3-.2 1.5-.2.3-.4.7-.6 1.5-.2.8-.7 1.6-.9 2.2-.1.3-.2.4-.2.5-.1.1-.1.2 0 .4.1.3-.1.4-.7 1s-1.6 1.4-1.7 1.4c-.1.1-1.1.7-1.7 1.4-.5.8-1 .9-2 1.5s-1.9 1.1-2.2 1.4c-.3.3-.9.9-2 1.2-1.2.3-2.2.6-2.4.6h-.1c-.2.1-.2.2-.3.3 0 .2-.1.6-.2.7-.1.1-.6.4-.9.6-.2.1-.3.2-.4.2-.1 0-.1-.2-.3-.4-.1-.2-.2-.1-.4.1s-.3.3-.3.4c.1.1.3.1.5.3.2.1.3.1.2.3-.2.2-.3.5-.4.5h-.6c-.2 0-.3-.2-.6-.1s-1.2 1.4-1.2 1.4-.2 1.8-.2 2c0 .2.1.3.1.3.1 0 .3 0 .3.1 0 .2-.2.9-.3 1.1-.1.2-.4.4-1 .4-.7 0-2-.5-2.3-.5-.3 0-.8.5-.8.7 0 .1 0 .2-.1.3 0 .1-.1.2-.1.2s-.5.1-.8 0c-.2-.1-1.2-.8-1.4-.9-.2-.1-1.1 1.6-1.1 1.6s-.1.1-.1.2c-.1.2-.3.6-.4.6-.1 0-.9-.3-1.3-.4-.4-.2-.5-.3-.5-.2-.1.1-.6.6-.6.8-.1.2-.5 2.3-.5 2.4 0 .2.2.4.2.6 0 .2.1.5.3.7.1.1.4.5.6.6.2.1.2.2.1.4-.2.2-.4.4-.6.5 0 0 0 0 0 0-.3.1-.3-.1-.6-.2-.2-.1-.4 0-.3.1.1.1.3.5.4.7.1.1.1.3-.1.4-.2.2-.3 0-.5.1s-1.7 2.2-2 2.4c-.2.3-.2.4-.2.5 0 .1.2.2.3.3.1.1.3.2.2.3-.1.1-.1.2 0 .3.2.1.1.7.1 1 0 .2.1.4.3.6.2.2.1.3 0 .7-.1.4-.1.6-.5.8-.3.1-.5.5-.6.7v.2c0 .2.1 1.2.1 1.3 0 .1-.4-.1-.7-.4-.3-.3-.4-.8-.5-1-.1-.2-.2-.5-.2-.7 0-.2 0-.2-.2-.3-.2-.1-1.3-.3-1.5-.5s-.7-.6-.9-.7c-.1-.1-.1-.2 0-.4s.3-.7.4-1c.1-.3.1-.5.2-1.2.1-.6.2-.9.4-1.3.2-.3.3-.5.4-.8.1-.3.4-.8.6-1.1.2-.3.4-.6.4-.7 0-.1 0-.3.1-.5s.4-.7.4-.8c0-.1.1-.3.3-.4.1-.1.3-.1.6-.4.3-.2.5-.8.3-.9-.1-.1-.3-.2-.2-.3.1-.1.4-.3.7-.2.2 0 .4.1.4-.1.1-.2.8-1.4.9-1.5.1-.1.4-.6.4-.8 0-.2-.3-.8-.5-1.1-.1-.3-.1-.4 0-.7.1-.3.6-1 .7-1.3.1-.3 0-.3-.4-.8s-.4-.6-.6-.8c-.1-.3-.3-.9-.3-1.1 0-.1-.2-.5-.1-.7.1-.2.6-1.5.8-1.7.2-.3.3-.4.4-.4h.4c.1 0 .2-.2.6-.8.4-.5.2-.5.5-.8.3-.3 1-.6 1.2-.8.3-.2.2-.4.1-.7-.1-.4-.1-.7 0-.8.1-.1.5-.4.7-.7.3-.3.4-.7 1-1.2.3-.2.7-.5 1-.8.3-.2.5-.4.8-.5.5-.3.8-.4 1.2-.7.4-.3.2-1 .2-1.6 0-.5.4-1 .6-1 .2-.1.3-.1.7-.3.4-.1.6-.2.8-.1.2.1.3.1.8-.3s1.3-1 1.7-1.2c.4-.1.7.2.8.1.1 0 .1-.3.2-.6 0-.3.1-.4-.1-.6-.1-.2-.5-.9-.6-1.2-.1-.3-.2-1.5-.2-1.7 0-.1-.6-.9-.6-.9s-1-1.3-1.2-1.4c-.2-.1-.7-.3-.8-.4-.1-.2-.3-.9-.3-1.2 0-.3.3-1.5.3-1.7.1-.2.4-.2.6-.3.1-.1.1-.3.1-.5v-1.2c0-.2-.1-.5-.2-.8-.1-.3-.2-.6-.2-.8 0-.1.3-.5.8-1s.8-1 1-1.2c.2-.3.8-.6 1-.8.2-.2.3-.2.4-.1.1.1.3.6.4.8.1.2.4.8.5.8.1 0 .6 0 .7-.1.1 0 .4 0 .5-.2 0-.1.2-.4.3-.9.3-.8.6-2 .7-2.2.1-.3.3-.4.5-.6.3-.2.2-.1.3 0 .1.1.1.3.3.2.2 0 .3-.2.4-.1.1.1.1.3.3.5.1.2-.1.3-.3.2-.2-.1-.3.3-.4.8-.1.5-.1.9 0 1 .1.1.2 0 .2.2s-.1.3.1.3.6-.1.8-.1c.2 0 .3 0 .4.2.1.2 0 .6-.1.9-.1.3.2.4.3.4.1.1.2.2.4.1.1-.1.2-.3.5-.9.3-.6.5-1 .5-1.1 0-.1-.2-.1-.4-.1s-.3-.6-.4-.9c-.1-.3-.1-.5.1-.7.3-.3.9-.9 1-1.1 0-.1-.1-.4-.1-.6 0-.2.2-.6.3-.8.1-.2.1-.3 0-.5s-.2-.7-.1-1.1c.1-.3.2 0 .2 0s.3.6.5 1.1c.3.5.3.5.4.4.1-.1.3-.3.5-.4.3-.1.5.4.7.8.2.3.1.5.1.5v1.6c0 .4.3 1.6.3 1.6s.2 1 .2 1.1c0 .2-.2.2-.6.4-.4.2-.3.2-.3.4s.1.2.3.6c.2.4.7 1.8 1 2.4.3.6.5.8.8 1.1.3.3.3.7.3.7v1.4c0 .3.2.3.4.3s1.6.2 1.9.3c.4 0 .6.1.7.2.1.1.8.9.8.9s.3.3.4.3c.1 0 .2 0 .3.1.1 0 .5.4.7.7.7.2.8.3.7.5z" clip-path="url(#SVGID_2_)" fill="#daeaf8" stroke="#b2c5eb" stroke-width=".996"/><use xlink:href="#SVGID_1_" overflow="visible" fill="none" stroke="#b7cedf" stroke-width="2.083" stroke-miterlimit="10"/></g></g></g></svg>