<svg width="1244" height="483" viewBox="0 0 1244 483" fill="none" xmlns="http://www.w3.org/2000/svg">
<path d="M1241.35 1C1246.05 37.8019 1227.53 179.792 1113.24 174C970.378 166.76 28 70.9236 28 340" stroke="#767676" stroke-width="3" stroke-dasharray="20 20"/>
<path d="M18 433L18 483" stroke="#767676" stroke-width="3" stroke-dasharray="20 20"/>
<path d="M37 382.905C37 394.451 26.4593 404.006 18.5 413C11.5087 405.1 0 394.451 0 382.905C0 371.36 8.28273 362 18.5 362C28.7173 362 37 371.36 37 382.905Z" fill="url(#paint0_radial_184_2)"/>
<path d="M25.3828 392.188V395H11.0859V392.583L18.0293 385.01C18.791 384.15 19.3916 383.408 19.8311 382.783C20.2705 382.158 20.5781 381.597 20.7539 381.099C20.9395 380.591 21.0322 380.098 21.0322 379.619C21.0322 378.945 20.9053 378.354 20.6514 377.847C20.4072 377.329 20.0459 376.924 19.5674 376.631C19.0889 376.328 18.5078 376.177 17.8242 376.177C17.0332 376.177 16.3691 376.348 15.832 376.689C15.2949 377.031 14.8896 377.505 14.6162 378.11C14.3428 378.706 14.2061 379.39 14.2061 380.161H10.6758C10.6758 378.921 10.959 377.788 11.5254 376.763C12.0918 375.728 12.9121 374.907 13.9863 374.302C15.0605 373.687 16.3545 373.379 17.8682 373.379C19.2939 373.379 20.5049 373.618 21.501 374.097C22.4971 374.575 23.2539 375.254 23.7715 376.133C24.2988 377.012 24.5625 378.052 24.5625 379.253C24.5625 379.917 24.4551 380.576 24.2402 381.23C24.0254 381.885 23.7178 382.539 23.3174 383.193C22.9268 383.838 22.4629 384.487 21.9258 385.142C21.3887 385.786 20.7979 386.44 20.1533 387.104L15.5391 392.188H25.3828Z" fill="white"/>
<path d="M1138.23 298.651L1135.48 297.934L1132.93 291.685L1116.54 287.397L1117.29 312.012L1113.5 311.021L1106.03 284.646L1090.62 280.615C1089.7 280.375 1089.01 279.858 1088.55 279.061C1088.08 278.265 1087.97 277.41 1088.21 276.495C1088.45 275.581 1088.96 274.891 1089.76 274.425C1090.56 273.959 1091.41 273.845 1092.33 274.084L1107.74 278.116L1127.17 258.779L1130.96 259.77L1118.25 280.866L1134.64 285.154L1139.93 280.955L1142.67 281.673L1138.03 289.53L1138.23 298.651Z" fill="#F7EDED" fill-opacity="0.2"/>
<path d="M191.686 110.822L189.244 112.261L183.013 109.665L168.416 118.266L186.4 135.091L183.027 137.078L159.053 123.783L145.329 131.871C144.515 132.35 143.661 132.475 142.768 132.244C141.874 132.013 141.188 131.49 140.708 130.676C140.228 129.862 140.104 129.008 140.334 128.115C140.565 127.222 141.088 126.535 141.902 126.055L155.627 117.968L155.612 90.5546L158.985 88.567L164.989 112.451L179.586 103.849L180.334 97.1409L182.776 95.7017L185.08 104.53L191.686 110.822Z" fill="#F7EDED" fill-opacity="0.2"/>
<defs>
<radialGradient id="paint0_radial_184_2" cx="0" cy="0" r="1" gradientUnits="userSpaceOnUse" gradientTransform="translate(54.2667 350.037) rotate(131.539) scale(85.5536 62.9149)">
<stop stop-color="#E3DBDB"/>
<stop offset="1" stop-color="#2F2A2A" stop-opacity="0.61"/>
</radialGradient>
</defs>
</svg>
