<svg width="1244" height="483" viewBox="0 0 1244 483" fill="none" xmlns="http://www.w3.org/2000/svg">
<path d="M1241.35 1C1246.05 37.8019 1227.53 179.792 1113.24 174C970.378 166.76 28 70.9236 28 340" stroke="#767676" stroke-width="3" stroke-dasharray="20 20"/>
<path d="M18 433L18 483" stroke="#767676" stroke-width="3" stroke-dasharray="20 20"/>
<path d="M37 382.905C37 394.451 26.4593 404.006 18.5 413C11.5087 405.1 0 394.451 0 382.905C0 371.36 8.28273 362 18.5 362C28.7173 362 37 371.36 37 382.905Z" fill="url(#paint0_radial_184_3)"/>
<path d="M15.2314 382.739H17.3408C18.1611 382.739 18.8398 382.598 19.377 382.314C19.9238 382.031 20.3291 381.641 20.5928 381.143C20.8564 380.645 20.9883 380.073 20.9883 379.429C20.9883 378.755 20.8662 378.179 20.6221 377.7C20.3877 377.212 20.0264 376.836 19.5381 376.572C19.0596 376.309 18.4492 376.177 17.707 376.177C17.082 376.177 16.5156 376.304 16.0078 376.558C15.5098 376.802 15.1143 377.153 14.8213 377.612C14.5283 378.062 14.3818 378.599 14.3818 379.224H10.8369C10.8369 378.091 11.1348 377.085 11.7305 376.206C12.3262 375.327 13.1367 374.639 14.1621 374.141C15.1973 373.633 16.3594 373.379 17.6484 373.379C19.0254 373.379 20.2266 373.608 21.252 374.067C22.2871 374.517 23.0928 375.19 23.6689 376.089C24.2451 376.987 24.5332 378.101 24.5332 379.429C24.5332 380.034 24.3916 380.649 24.1084 381.274C23.8252 381.899 23.4053 382.471 22.8486 382.988C22.292 383.496 21.5986 383.911 20.7686 384.233C19.9385 384.546 18.9766 384.702 17.8828 384.702H15.2314V382.739ZM15.2314 385.493V383.56H17.8828C19.1328 383.56 20.1973 383.706 21.0762 383.999C21.9648 384.292 22.6875 384.697 23.2441 385.215C23.8008 385.723 24.2061 386.304 24.46 386.958C24.7236 387.612 24.8555 388.306 24.8555 389.038C24.8555 390.034 24.6748 390.923 24.3135 391.704C23.9619 392.476 23.459 393.13 22.8047 393.667C22.1504 394.204 21.3838 394.609 20.5049 394.883C19.6357 395.156 18.6885 395.293 17.6631 395.293C16.7451 395.293 15.8662 395.166 15.0264 394.912C14.1865 394.658 13.4346 394.282 12.7705 393.784C12.1064 393.276 11.5791 392.646 11.1885 391.895C10.8076 391.133 10.6172 390.254 10.6172 389.258H14.1475C14.1475 389.893 14.2939 390.454 14.5869 390.942C14.8896 391.421 15.3096 391.797 15.8467 392.07C16.3936 392.344 17.0186 392.48 17.7217 392.48C18.4639 392.48 19.1035 392.349 19.6406 392.085C20.1777 391.821 20.5879 391.431 20.8711 390.913C21.1641 390.396 21.3105 389.771 21.3105 389.038C21.3105 388.208 21.1494 387.534 20.8271 387.017C20.5049 386.499 20.0459 386.118 19.4502 385.874C18.8545 385.62 18.1514 385.493 17.3408 385.493H15.2314Z" fill="white"/>
<path fill-rule="evenodd" clip-rule="evenodd" d="M1084.13 136.164C1084.34 133.918 1082.69 131.928 1080.44 131.718L1042.05 128.133C1037.87 127.743 1033.82 129.747 1031.61 133.311L1030.3 135.403C1029.4 136.864 1028.84 138.516 1028.68 140.229L1028.23 145.005C1028.02 147.25 1029.67 149.241 1031.92 149.45L1078.38 153.789C1080.63 153.999 1082.62 152.348 1082.83 150.103L1084.13 136.164ZM1080.12 135.203C1080.44 135.233 1080.68 135.517 1080.65 135.838L1079.34 149.778C1079.31 150.098 1079.03 150.334 1078.71 150.304L1032.24 145.965C1031.92 145.935 1031.69 145.651 1031.72 145.33L1032.16 140.555C1032.27 139.382 1032.65 138.252 1033.28 137.252L1034.58 135.161C1036.1 132.722 1038.86 131.351 1041.72 131.618L1080.12 135.203Z" fill="#686868"/>
<path fill-rule="evenodd" clip-rule="evenodd" d="M1076.94 137.836C1077.03 136.874 1076.33 136.021 1075.36 135.931L1066.07 135.063C1065.11 134.973 1064.26 135.681 1064.17 136.643L1062.86 150.582C1062.77 151.545 1063.48 152.397 1064.44 152.487L1073.74 153.355C1074.7 153.445 1075.55 152.738 1075.64 151.775L1076.94 137.836ZM1073.3 139.253L1072.32 149.708L1066.51 149.165L1067.49 138.711L1073.3 139.253Z" fill="#686868"/>
<path fill-rule="evenodd" clip-rule="evenodd" d="M1060.68 136.317C1060.77 135.355 1060.06 134.502 1059.1 134.412L1049.81 133.545C1048.85 133.455 1047.99 134.162 1047.9 135.124L1047.25 142.094C1047.16 143.056 1047.87 143.909 1048.83 143.999L1058.13 144.867C1059.09 144.957 1059.94 144.249 1060.03 143.287L1060.68 136.317ZM1057.03 137.734L1056.71 141.219L1050.9 140.677L1051.23 137.192L1057.03 137.734Z" fill="#686868"/>
<path fill-rule="evenodd" clip-rule="evenodd" d="M1042.11 128.139C1041.15 128.049 1040.3 128.756 1040.21 129.719L1039.66 135.527C1039.63 135.847 1039.35 136.083 1039.03 136.053L1032.06 135.402C1031.1 135.313 1030.24 136.02 1030.15 136.982C1030.06 137.944 1030.77 138.797 1031.73 138.887L1038.7 139.538C1040.95 139.748 1042.94 138.097 1043.15 135.852L1043.69 130.044C1043.78 129.082 1043.07 128.229 1042.11 128.139Z" fill="#686868"/>
<path fill-rule="evenodd" clip-rule="evenodd" d="M1082.18 157.073C1082.27 156.11 1081.56 155.257 1080.6 155.168L1029.49 150.395C1028.53 150.305 1027.67 151.012 1027.58 151.975C1027.49 152.937 1028.2 153.79 1029.16 153.88L1080.27 158.652C1081.24 158.742 1082.09 158.035 1082.18 157.073Z" fill="#686868"/>
<path fill-rule="evenodd" clip-rule="evenodd" d="M1074.06 149.87C1073.1 149.78 1072.25 150.488 1072.16 151.45L1071.72 156.096C1071.63 157.059 1072.34 157.912 1073.3 158.001C1074.27 158.091 1075.12 157.384 1075.21 156.422L1075.64 151.775C1075.73 150.813 1075.02 149.96 1074.06 149.87Z" fill="#686868"/>
<path fill-rule="evenodd" clip-rule="evenodd" d="M1060.12 148.569C1059.16 148.479 1058.31 149.186 1058.22 150.148L1057.78 154.795C1057.69 155.757 1058.4 156.61 1059.36 156.7C1060.33 156.79 1061.18 156.082 1061.27 155.12L1061.7 150.474C1061.79 149.511 1061.09 148.658 1060.12 148.569Z" fill="#686868"/>
<path fill-rule="evenodd" clip-rule="evenodd" d="M1046.18 147.267C1045.22 147.177 1044.37 147.884 1044.28 148.847L1043.84 153.493C1043.75 154.456 1044.46 155.308 1045.42 155.398C1046.39 155.488 1047.24 154.781 1047.33 153.819L1047.76 149.172C1047.85 148.21 1047.15 147.357 1046.18 147.267Z" fill="#686868"/>
<path fill-rule="evenodd" clip-rule="evenodd" d="M1032.24 145.965C1031.28 145.876 1030.43 146.583 1030.34 147.545L1029.9 152.192C1029.82 153.154 1030.52 154.007 1031.48 154.097C1032.45 154.187 1033.3 153.479 1033.39 152.517L1033.82 147.871C1033.91 146.908 1033.21 146.055 1032.24 145.965Z" fill="#686868"/>
<path fill-rule="evenodd" clip-rule="evenodd" d="M247.772 224.047C248.334 226.231 247.019 228.457 244.834 229.019L207.485 238.626C203.42 239.672 199.112 238.331 196.358 235.163L194.743 233.303C193.614 232.005 192.803 230.461 192.375 228.794L191.179 224.149C190.618 221.965 191.933 219.739 194.117 219.177L239.312 207.551C241.496 206.989 243.722 208.304 244.284 210.488L247.772 224.047ZM243.963 225.629C244.275 225.549 244.462 225.231 244.382 224.919L240.894 211.36C240.814 211.048 240.496 210.86 240.184 210.94L194.989 222.567C194.677 222.647 194.489 222.965 194.569 223.277L195.764 227.922C196.057 229.063 196.612 230.119 197.384 231.008L199 232.867C200.884 235.035 203.832 235.952 206.613 235.237L243.963 225.629Z" fill="#686868"/>
<path fill-rule="evenodd" clip-rule="evenodd" d="M240.411 223.531C240.651 224.467 240.088 225.421 239.152 225.662L230.113 227.987C229.177 228.228 228.223 227.664 227.982 226.728L224.494 213.17C224.253 212.234 224.817 211.279 225.753 211.039L234.792 208.713C235.728 208.473 236.682 209.036 236.923 209.972L240.411 223.531ZM236.585 222.708L233.969 212.539L228.32 213.992L230.936 224.161L236.585 222.708Z" fill="#686868"/>
<path fill-rule="evenodd" clip-rule="evenodd" d="M224.593 227.6C224.834 228.536 224.27 229.49 223.334 229.731L214.295 232.056C213.359 232.297 212.405 231.733 212.165 230.797L210.421 224.018C210.18 223.082 210.744 222.128 211.68 221.887L220.719 219.562C221.655 219.321 222.609 219.885 222.849 220.821L224.593 227.6ZM220.768 226.777L219.896 223.388L214.246 224.841L215.118 228.23L220.768 226.777Z" fill="#686868"/>
<path fill-rule="evenodd" clip-rule="evenodd" d="M207.548 238.61C206.612 238.851 205.658 238.287 205.418 237.351L203.964 231.702C203.884 231.39 203.566 231.202 203.254 231.282L196.475 233.026C195.539 233.267 194.585 232.704 194.344 231.768C194.103 230.832 194.667 229.878 195.603 229.637L202.382 227.893C204.566 227.331 206.792 228.646 207.354 230.83L208.807 236.479C209.048 237.416 208.484 238.37 207.548 238.61Z" fill="#686868"/>
<path fill-rule="evenodd" clip-rule="evenodd" d="M242.54 203.709C242.78 204.645 242.217 205.599 241.281 205.84L191.566 218.629C190.63 218.869 189.676 218.306 189.435 217.37C189.194 216.434 189.758 215.48 190.694 215.239L240.409 202.45C241.345 202.209 242.299 202.773 242.54 203.709Z" fill="#686868"/>
<path fill-rule="evenodd" clip-rule="evenodd" d="M235.665 212.103C234.729 212.344 233.775 211.78 233.534 210.844L232.371 206.325C232.13 205.389 232.694 204.435 233.63 204.194C234.566 203.953 235.52 204.517 235.761 205.453L236.923 209.972C237.164 210.908 236.601 211.862 235.665 212.103Z" fill="#686868"/>
<path fill-rule="evenodd" clip-rule="evenodd" d="M222.106 215.591C221.17 215.832 220.216 215.268 219.975 214.332L218.813 209.813C218.572 208.877 219.135 207.923 220.071 207.682C221.007 207.441 221.961 208.005 222.202 208.941L223.365 213.46C223.606 214.396 223.042 215.35 222.106 215.591Z" fill="#686868"/>
<path fill-rule="evenodd" clip-rule="evenodd" d="M208.547 219.079C207.611 219.32 206.657 218.756 206.417 217.82L205.254 213.301C205.013 212.365 205.577 211.411 206.513 211.17C207.449 210.929 208.403 211.493 208.644 212.429L209.806 216.948C210.047 217.884 209.483 218.838 208.547 219.079Z" fill="#686868"/>
<path fill-rule="evenodd" clip-rule="evenodd" d="M194.989 222.567C194.053 222.808 193.099 222.244 192.858 221.308L191.695 216.788C191.455 215.852 192.018 214.898 192.954 214.658C193.89 214.417 194.844 214.98 195.085 215.916L196.248 220.436C196.488 221.372 195.925 222.326 194.989 222.567Z" fill="#686868"/>
<defs>
<radialGradient id="paint0_radial_184_3" cx="0" cy="0" r="1" gradientUnits="userSpaceOnUse" gradientTransform="translate(54.2667 350.037) rotate(131.539) scale(85.5536 62.9149)">
<stop stop-color="#E3DBDB"/>
<stop offset="1" stop-color="#2F2A2A" stop-opacity="0.61"/>
</radialGradient>
</defs>
</svg>
