<svg width="1244" height="483" viewBox="0 0 1244 483" fill="none" xmlns="http://www.w3.org/2000/svg">
<path d="M1241.35 1C1246.05 37.8019 1227.53 179.792 1113.24 174C970.378 166.76 28 70.9236 28 340" stroke="#767676" stroke-width="3" stroke-dasharray="20 20"/>
<path d="M18 433L18 483" stroke="#767676" stroke-width="3" stroke-dasharray="20 20"/>
<path d="M37 382.905C37 394.451 26.4593 404.006 18.5 413C11.5087 405.1 0 394.451 0 382.905C0 371.36 8.28273 362 18.5 362C28.7173 362 37 371.36 37 382.905Z" fill="url(#paint0_radial_184_11)"/>
<path d="M25.7783 387.397V390.21H10.3975L10.2803 388.086L19.4795 373.672H22.3066L19.2451 378.916L13.957 387.397H25.7783ZM23.1123 373.672V395H19.582V373.672H23.1123Z" fill="white"/>
<path d="M897.479 125.934C900.013 114.374 904.211 102.71 909.83 92.1681C906.279 100.586 903.164 109.159 900.903 117.927C900.146 120.875 899.711 123.193 899.055 126.163C898.821 126.828 897.479 127.137 897.479 125.934Z" fill="#CDCDCF" fill-opacity="0.6"/>
<path d="M940.805 109.671C940.392 109.915 940.016 109.398 939.867 108.964C935.854 99.6495 929.022 92.0348 921.034 86.417L921.106 86.2864C929.358 91.6167 936.476 99.1149 940.847 108.326C941.079 108.742 941.329 109.44 940.805 109.671Z" fill="#CAC4C4" fill-opacity="0.6"/>
<path d="M907.678 77.4659C898.574 74.3854 889.136 72.5518 879.594 72.0097C878.791 72.1216 878.57 70.7369 879.495 70.8146C889.13 71.6709 898.662 73.8155 907.747 77.3509L907.678 77.4659Z" fill="#CDCDCF" fill-opacity="0.6"/>
<path d="M906.331 84.131C897.274 87.0836 888.814 92.0456 882.003 99.0667C881.691 99.4008 881.22 99.9556 880.784 99.5127C880.428 99.1475 880.741 98.6611 881.065 98.4062C888.213 91.5468 896.971 86.5475 906.331 84.131Z" fill="#CAC4C4" fill-opacity="0.6"/>
<path d="M912.77 74.1946C912.77 74.2086 912.751 74.2366 912.718 74.3081C908.465 66.9296 901.134 62.454 893.688 59.4874C893.549 59.4391 893.434 59.3342 893.367 59.1956C893.301 59.057 893.289 58.8962 893.335 58.7484C893.38 58.6007 893.479 58.4781 893.61 58.4077C893.74 58.3374 893.892 58.3249 894.031 58.3731C901.472 61.5433 908.863 66.5209 912.77 74.1946Z" fill="#CAC4C4" fill-opacity="0.6"/>
<path d="M939.376 60.7104C932.41 63.7935 926.175 68.4369 920.394 73.5419L920.274 73.4145C924.357 69.6025 928.525 65.8479 933.213 62.8938C935.105 61.7484 937.019 60.6 938.996 59.6303C939.064 59.5971 939.137 59.5792 939.212 59.5777C939.287 59.5761 939.361 59.5909 939.431 59.6212C939.5 59.6515 939.562 59.6966 939.614 59.7537C939.666 59.8108 939.707 59.8787 939.733 59.9531C939.759 60.0275 939.771 60.1068 939.767 60.1862C939.763 60.2655 939.743 60.3431 939.71 60.4142C939.676 60.4853 939.63 60.5482 939.572 60.5992C939.515 60.6501 939.448 60.688 939.376 60.7104Z" fill="#CAC4C4" fill-opacity="0.6"/>
<path d="M921.255 78.0735C925.34 77.141 929.464 76.4448 933.641 76.1869C935.125 76.2521 944.488 75.2125 944.441 76.737C944.416 77.155 944.098 77.3089 943.47 77.2452C940.011 76.8667 936.53 76.7586 933.055 76.9219C929.1 77.0907 925.159 77.5252 921.256 78.2226L921.255 78.0735Z" fill="#CDCDCF" fill-opacity="0.6"/>
<path d="M902.729 82.1357C896.825 83.7658 890.896 85.5421 885.643 88.9485C884.794 89.2593 882.892 91.536 882.192 90.7123C881.987 90.3875 882.115 90.0425 882.577 89.7069C888.579 85.4597 895.701 83.4566 902.729 82.1124V82.1357Z" fill="#CDCDCF" fill-opacity="0.6"/>
<path d="M919.553 92.1793C924.793 97.0419 928.144 103.853 929.807 110.958C930.016 111.468 929.494 111.877 929.075 111.696C927.181 104.588 924.583 97.6293 919.553 92.1793Z" fill="#CDCDCF" fill-opacity="0.6"/>
<path d="M916.806 72.465C916.793 65.6475 917.107 58.7445 915.565 52.0653C915.382 51.6706 915.512 51.063 915.955 51.0133C917.173 50.6792 917.068 56.7523 917.315 57.7981C917.69 62.6949 917.27 67.5885 916.856 72.4712L916.806 72.465Z" fill="#CDCDCF" fill-opacity="0.6"/>
<path d="M902.737 91.0107C898.356 95.1863 894.592 99.9836 891.766 105.476C887.212 106.911 901.363 91.0853 902.721 90.9874L902.737 91.0107Z" fill="#CDCDCF" fill-opacity="0.6"/>
<path d="M904.31 79.2685C898.507 78.8862 892.76 79.455 887.06 80.6283C886.215 80.8039 886.061 79.5871 886.88 79.4845C888.49 79.2281 890.112 79.082 891.728 78.8831C895.925 78.4558 900.135 78.7277 904.317 79.2312L904.31 79.2685Z" fill="#CDCDCF" fill-opacity="0.6"/>
<path d="M903.034 68.855C898.292 66.3468 893.373 64.2458 888.204 62.9637C887.737 62.7881 886.863 62.8083 886.98 62.0608C888.033 60.297 901.309 67.4362 903.083 68.813L903.034 68.855Z" fill="#CDCDCF" fill-opacity="0.6"/>
<path d="M925.561 73.8621C929.463 71.8978 933.419 70.0081 937.651 69.0027C938.42 68.9778 941.296 67.7796 941.418 68.9017C941.476 69.3679 941.074 69.5606 940.698 69.5466C935.493 70.2261 930.415 71.7354 925.634 74.0237C925.61 73.9693 925.59 73.9165 925.561 73.8621Z" fill="#CDCDCF" fill-opacity="0.6"/>
<path d="M918.987 82.2009C920.473 82.7464 921.968 83.2654 923.443 83.8404C924.175 83.9958 936.94 89.8234 932.728 89.9353C928.461 86.7729 923.815 84.2298 918.914 82.3734L918.987 82.2009Z" fill="#CDCDCF" fill-opacity="0.6"/>
<path d="M905.153 95.8903C903.396 99.1537 901.761 102.5 900.893 106.169C900.572 107.467 900.399 108.802 900.376 110.144C900.376 110.814 900.164 111.12 899.772 111.076C899.401 111.033 899.186 110.647 899.251 110.037C899.772 104.793 902.281 100.102 905.153 95.8903Z" fill="#CDCDCF" fill-opacity="0.6"/>
<path d="M924.545 71.7315C928.497 69.2699 932.478 66.8317 936.614 64.7213C937.338 64.1106 938.291 64.7322 937.572 65.5216C933.18 67.4393 928.884 69.6056 924.623 71.8341L924.545 71.7315Z" fill="#CDCDCF" fill-opacity="0.6"/>
<path d="M896.102 76.4619C891.451 75.7735 886.953 75.6476 882.324 76.3423C881.181 76.5832 881.211 75.1332 882.258 75.1364C886.909 74.8144 891.58 75.2616 896.102 76.4619Z" fill="#CDCDCF" fill-opacity="0.6"/>
<path d="M919.5 67.388C920.258 62.7958 921.226 58.1866 921.156 53.5013C924.167 48.7506 920.055 66.6918 919.5 67.388Z" fill="#CDCDCF" fill-opacity="0.6"/>
<path d="M907.944 62.7462C904.743 59.3755 901.32 56.3747 897.251 54.2472C895.951 49.8944 907.931 61.5884 907.944 62.7462Z" fill="#CDCDCF" fill-opacity="0.6"/>
<path d="M929.441 84.2725C932.907 85.3401 936.301 86.7061 939.369 88.7527C940.189 89.3432 941.038 89.9229 941.774 90.63C942.343 91.1521 941.627 92.0581 941.007 91.4924C937.77 88.0736 933.541 86.2305 929.425 84.3439L929.441 84.2725Z" fill="#CDCDCF" fill-opacity="0.6"/>
<path d="M903.531 87.6275C899.608 89.7895 895.889 92.3456 892.425 95.2609C887.333 95.825 902.672 87.5374 903.494 87.5343L903.531 87.6275Z" fill="#CDCDCF" fill-opacity="0.6"/>
<path d="M928 94.6766C930.375 97.7722 932.497 101.093 933.856 104.837C934.018 105.375 934.659 106.511 933.939 106.761C933.595 106.869 933.314 106.703 933.165 106.257C932.092 102.11 930.215 98.2959 927.87 94.8056L928 94.6766Z" fill="#CDCDCF" fill-opacity="0.6"/>
<path d="M922.435 99.2267C922.965 99.8577 929.093 114.806 925.707 111.786C925.076 107.474 923.851 103.328 922.302 99.2951L922.435 99.2267Z" fill="#CDCDCF" fill-opacity="0.6"/>
<path d="M922.697 67.9475C923.305 67.4471 932.149 55.3039 931.395 59.5076C928.411 62.2131 925.569 65.1269 922.817 68.078L922.697 67.9475Z" fill="#CDCDCF" fill-opacity="0.6"/>
<path d="M917.422 103.233C918.474 107.256 919.585 111.272 920.771 115.25C921.109 116.246 919.893 116.685 919.682 115.561C918.896 111.46 917.936 107.387 917.34 103.25L917.422 103.233Z" fill="#CDCDCF" fill-opacity="0.6"/>
<path d="M913.72 66.6592C911.964 63.2885 910.168 59.924 907.856 56.9356C907.547 56.5798 907.407 56.025 907.843 55.7188C909.445 55.5634 913.053 64.8472 913.789 66.6296L913.72 66.6592Z" fill="#CDCDCF" fill-opacity="0.6"/>
<path d="M908.246 74.235C904.744 72.9654 901.399 71.8931 897.738 71.5388C896.713 71.6243 896.23 70.2863 897.422 70.2956C901.191 71.0679 904.854 72.2583 908.246 74.235Z" fill="#CDCDCF" fill-opacity="0.6"/>
<path d="M918.875 87.5592C920.379 88.4248 927.629 94.5818 926.647 96.2804C926.291 96.5523 925.82 96.2415 925.665 95.8142C923.926 92.6129 921.396 90.0783 918.818 87.6478L918.875 87.5592Z" fill="#CDCDCF" fill-opacity="0.6"/>
<path d="M923.945 80.1652C927.827 79.7735 931.682 80.7137 935.454 81.5638C936.384 81.9212 935.874 83.1333 934.798 82.5817C931.247 81.4674 927.684 80.2677 923.945 80.1652Z" fill="#CDCDCF" fill-opacity="0.6"/>
<path d="M914.213 97.3029C914.945 101.11 915.893 104.879 916.682 108.663C916.655 108.963 916.511 109.202 916.189 109.238C915.549 109.323 915.542 108.504 915.457 108.032C914.973 104.467 914.465 100.905 914.096 97.3185L914.213 97.3029Z" fill="#CDCDCF" fill-opacity="0.6"/>
<path d="M914.399 63.6086C913.341 59.663 911.547 56.1493 909.337 52.8424C909.814 48.3792 914.81 62.6327 914.399 63.6086Z" fill="#CDCDCF" fill-opacity="0.6"/>
<path d="M892.86 82.3097C889.571 83.1937 886.335 84.2903 883.171 85.5934C882.761 85.741 882.108 86.0938 881.903 85.4675C881.368 83.8995 891.499 82.5009 892.872 82.2445L892.86 82.3097Z" fill="#CDCDCF" fill-opacity="0.6"/>
<path d="M909.079 102.739C908.262 106.254 907.415 109.777 907.277 113.413C907.306 113.863 907.12 114.424 906.678 114.346C905.052 113.772 908.463 104.287 909.079 102.739Z" fill="#CDCDCF" fill-opacity="0.6"/>
<path d="M914.915 75.3057C913.849 71.9288 912.516 68.6716 910.67 65.6941C911.364 61.4516 915.124 74.3966 915.023 75.2591L914.915 75.3057Z" fill="#CDCDCF" fill-opacity="0.6"/>
<path d="M932.71 79.5001C935.5 79.3975 938.308 79.5001 940.984 80.4325C941.768 80.7433 942.629 80.95 943.359 81.3836C943.816 81.7115 943.506 82.5491 942.951 82.4092C939.755 80.7231 936.268 79.749 932.704 79.5467L932.71 79.5001Z" fill="#CDCDCF" fill-opacity="0.6"/>
<path d="M903.485 94.1296C901.411 96.806 899.642 99.7334 898.216 102.851C897.997 103.939 896.674 103.848 897.071 102.745C898.75 99.5196 900.917 96.609 903.485 94.1296Z" fill="#CDCDCF" fill-opacity="0.6"/>
<path d="M912.36 104.789C912.341 108.124 912.419 111.539 913.492 114.711C913.584 115.168 913.429 115.507 913.104 115.586C912.097 115.755 912.128 112.824 911.956 112.061C911.81 109.64 911.966 107.213 912.249 104.807L912.36 104.789Z" fill="#CDCDCF" fill-opacity="0.6"/>
<path d="M915.268 90.2352C916.878 93.0962 918.225 96.1405 919.55 99.1553C919.574 99.2255 919.585 99.3001 919.582 99.3747C919.579 99.4494 919.562 99.5227 919.532 99.5904C919.502 99.6582 919.461 99.7191 919.409 99.7696C919.357 99.8201 919.296 99.8593 919.23 99.8849C919.164 99.9105 919.094 99.9221 919.023 99.9189C918.953 99.9157 918.884 99.8978 918.82 99.8663C918.756 99.8347 918.699 99.7902 918.651 99.7351C918.604 99.68 918.567 99.6156 918.543 99.5454C917.577 96.3975 916.451 93.3081 915.167 90.2912L915.268 90.2352Z" fill="#CDCDCF" fill-opacity="0.6"/>
<path d="M910.623 81.0556C907.596 80.964 904.4 81.2235 901.35 81.3167C898.094 78.9095 909.899 80.9406 910.623 81.0556Z" fill="#CDCDCF" fill-opacity="0.6"/>
<path d="M894.44 95.8484C892.348 97.8204 890.525 100.044 888.759 102.35C888.496 102.756 888.008 103.378 887.557 102.887C886.628 101.681 893.297 96.6068 894.44 95.8484Z" fill="#CDCDCF" fill-opacity="0.6"/>
<path d="M929.996 74.6857C932.733 73.8978 935.51 73.2871 938.289 72.6857C939.072 72.4106 939.826 73.0835 938.983 73.7129C936.026 74.1791 933.001 74.4899 930.017 74.8007L929.996 74.6857Z" fill="#CDCDCF" fill-opacity="0.6"/>
<path d="M893.024 70.6281C890.168 70.1619 887.29 69.9055 884.409 69.6957C883.451 69.6305 883.647 68.3546 884.556 68.5691C887.418 69.1036 890.265 69.719 893.073 70.5365L893.024 70.6281Z" fill="#CDCDCF" fill-opacity="0.6"/>
<path d="M920.451 103.016C922.174 105.406 922.94 108.299 923.717 111.14C923.756 111.292 923.736 111.455 923.662 111.591C923.588 111.728 923.466 111.828 923.323 111.87C923.179 111.911 923.026 111.89 922.897 111.811C922.768 111.733 922.674 111.603 922.635 111.451C922.146 108.571 921.628 105.682 920.451 103.016Z" fill="#CDCDCF" fill-opacity="0.6"/>
<path d="M932.263 91.09C934.655 92.7962 936.796 94.8678 938.618 97.2377C938.959 97.8251 938.203 98.4467 937.76 97.9245C936.113 95.491 934.381 93.1382 932.168 91.2423L932.263 91.09Z" fill="#CDCDCF" fill-opacity="0.6"/>
<path d="M912.302 91.2469C912.326 93.8887 912.289 96.4109 912.204 99.017C912.253 99.4832 912.092 100.178 911.57 100.083C910.533 99.7458 911.399 98.1188 911.37 97.2936C911.699 95.2842 911.909 93.2485 912.302 91.2469Z" fill="#CDCDCF" fill-opacity="0.6"/>
<path d="M911.929 84.6283C910.319 86.5879 908.892 88.5833 907.413 90.602C904.162 91.163 911.309 85.0417 911.929 84.6283Z" fill="#CDCDCF" fill-opacity="0.6"/>
<path d="M922.209 65.1844C922.355 64.3561 924.665 57.3786 925.637 58.4633C925.879 58.628 925.99 58.8906 925.81 59.1968C924.51 61.1269 923.225 63.0585 922.209 65.1844Z" fill="#CDCDCF" fill-opacity="0.6"/>
<path d="M938.801 83.9041C940.959 84.3439 943.115 85.0246 944.825 86.5459C944.913 86.6525 944.962 86.7891 944.964 86.9309C944.965 87.0728 944.918 87.2105 944.832 87.3189C944.746 87.4274 944.626 87.4993 944.494 87.5217C944.362 87.5442 944.227 87.5155 944.113 87.4411C942.608 85.8031 940.726 84.8319 938.801 83.9041Z" fill="#CDCDCF" fill-opacity="0.6"/>
<path d="M949 70.3686C948.946 71.4906 947.29 71.4906 947.308 70.3344C947.401 69.1332 948.937 69.2466 949 70.3686Z" fill="#CDCDCF" fill-opacity="0.6"/>
<path d="M904.291 53.8836C904.291 55.06 902.607 54.9558 902.643 53.8261C902.64 52.6978 904.363 52.718 904.291 53.8836Z" fill="#CDCDCF" fill-opacity="0.6"/>
<path d="M882.808 94.2881C882.836 95.4396 881.198 95.5018 881.163 94.3394C881.118 93.2018 882.801 93.1459 882.808 94.2881Z" fill="#CDCDCF" fill-opacity="0.6"/>
<path d="M942.936 94.5927C943.975 94.5803 943.98 96.327 942.945 96.3285C941.853 96.3752 941.859 94.5632 942.936 94.5927Z" fill="#CDCDCF" fill-opacity="0.6"/>
<path d="M883.22 61.3273C882.125 61.4019 882.163 59.5853 883.213 59.6179C884.283 59.5449 884.309 61.3709 883.22 61.3273Z" fill="#CDCDCF" fill-opacity="0.6"/>
<path d="M879.313 79.225C879.424 80.3672 877.637 80.4045 877.722 79.2685C877.66 78.1512 879.32 78.145 879.313 79.225Z" fill="#CDCDCF" fill-opacity="0.6"/>
<path d="M943.741 104.009C943.731 104.75 942.701 104.726 942.69 103.993C942.717 103.333 943.741 103.319 943.741 104.009Z" fill="#CDCDCF" fill-opacity="0.6"/>
<path d="M945.659 79.0789C946.272 79.0882 946.313 80.1667 945.672 80.1823C944.978 80.2056 944.984 79.0882 945.659 79.0789Z" fill="#CDCDCF" fill-opacity="0.6"/>
<path d="M891.836 66.4432C892.518 66.3997 892.46 67.545 891.827 67.5123C891.196 67.5248 891.155 66.381 891.836 66.4432Z" fill="#CDCDCF" fill-opacity="0.6"/>
<path d="M942.057 65.0787C942.732 65.1704 942.676 66.2567 941.944 66.1588C941.253 66.0577 941.441 65.0554 942.057 65.0787Z" fill="#CDCDCF" fill-opacity="0.6"/>
<path d="M935.165 108.153C935.834 108.153 935.812 109.213 935.181 109.241C934.493 109.236 934.442 108.152 935.165 108.153Z" fill="#CDCDCF" fill-opacity="0.6"/>
<path d="M879.721 89.6198C879.032 89.6354 879.048 88.4916 879.721 88.5118C880.348 88.5289 880.356 89.6089 879.721 89.6198Z" fill="#CDCDCF" fill-opacity="0.6"/>
<path d="M884.249 101.581C884.249 102.293 883.163 102.291 883.216 101.556C883.244 100.855 884.242 100.925 884.249 101.581Z" fill="#CDCDCF" fill-opacity="0.6"/>
<path d="M896.793 107.87C896.118 107.87 896.181 106.803 896.822 106.824C897.453 106.815 897.458 107.923 896.793 107.87Z" fill="#CDCDCF" fill-opacity="0.6"/>
<path d="M882.63 66.9373C882.611 67.5962 881.539 67.5232 881.591 66.8658C881.604 66.7235 881.67 66.5924 881.773 66.5C881.876 66.4076 882.008 66.3612 882.143 66.3704C882.277 66.3797 882.403 66.4439 882.494 66.5496C882.585 66.6553 882.634 66.7943 882.63 66.9373Z" fill="#CDCDCF" fill-opacity="0.6"/>
<path d="M930.313 53.2791C930.318 53.3505 930.31 53.4223 930.288 53.4901C930.267 53.558 930.232 53.6205 930.187 53.6739C930.142 53.7273 930.088 53.7705 930.026 53.8008C929.965 53.8312 929.899 53.8482 929.832 53.8507C929.764 53.8532 929.697 53.8412 929.634 53.8155C929.571 53.7897 929.514 53.7507 929.465 53.7008C929.417 53.6509 929.378 53.5911 929.352 53.5251C929.326 53.459 929.313 53.388 929.313 53.3164C929.236 52.6155 930.34 52.6046 930.313 53.2791Z" fill="#CDCDCF" fill-opacity="0.6"/>
<path d="M891.134 55.035C891.134 55.6986 890.133 55.7701 890.153 55.035C890.101 54.3155 891.152 54.3777 891.134 55.035Z" fill="#CDCDCF" fill-opacity="0.6"/>
<path d="M948.28 86.6532C947.958 86.9966 947.277 87.2748 947.234 86.4978C947.27 85.7534 948.312 85.87 948.28 86.6532Z" fill="#CDCDCF" fill-opacity="0.6"/>
<path d="M395.216 338.137C390.656 311.713 383.1 285.054 372.984 260.957C379.376 280.199 384.984 299.795 389.053 319.835C390.415 326.572 391.199 331.872 392.38 338.659C392.801 340.179 395.216 340.887 395.216 338.137Z" fill="#CDCDCF" fill-opacity="0.6"/>
<path d="M306.471 297.946C307.352 298.466 308.154 297.362 308.472 296.438C317.027 276.579 331.592 260.344 348.623 248.367L348.47 248.089C330.877 259.453 315.7 275.439 306.381 295.076C305.888 295.964 305.354 297.452 306.471 297.946Z" fill="#CAC4C4" fill-opacity="0.6"/>
<path d="M377.098 229.283C396.509 222.715 416.63 218.806 436.974 217.65C438.687 217.889 439.158 214.937 437.186 215.103C416.644 216.928 396.32 221.5 376.951 229.038L377.098 229.283Z" fill="#CDCDCF" fill-opacity="0.6"/>
<path d="M379.97 243.493C399.279 249.788 417.315 260.367 431.837 275.336C432.501 276.049 433.506 277.231 434.436 276.287C435.195 275.509 434.527 274.472 433.837 273.928C418.598 259.304 399.925 248.645 379.97 243.493Z" fill="#CAC4C4" fill-opacity="0.6"/>
<path d="M366.243 222.309C366.243 222.339 366.283 222.398 366.352 222.551C375.422 206.82 391.051 197.278 406.925 190.953C407.221 190.85 407.467 190.626 407.609 190.331C407.75 190.035 407.775 189.692 407.678 189.377C407.581 189.062 407.371 188.801 407.092 188.651C406.814 188.501 406.491 188.474 406.194 188.577C390.33 195.336 374.573 205.948 366.243 222.309Z" fill="#CAC4C4" fill-opacity="0.6"/>
<path d="M309.517 193.56C324.369 200.133 337.662 210.033 349.986 220.917L350.242 220.645C341.538 212.518 332.653 204.514 322.656 198.215C318.624 195.773 314.542 193.325 310.328 191.257C310.183 191.187 310.026 191.149 309.867 191.145C309.707 191.142 309.549 191.173 309.401 191.238C309.254 191.303 309.12 191.399 309.009 191.521C308.898 191.642 308.812 191.787 308.756 191.946C308.7 192.104 308.676 192.273 308.684 192.443C308.693 192.612 308.734 192.777 308.805 192.929C308.877 193.08 308.977 193.214 309.099 193.323C309.222 193.432 309.364 193.512 309.517 193.56Z" fill="#CAC4C4" fill-opacity="0.6"/>
<path d="M348.151 230.578C339.441 228.591 330.649 227.106 321.745 226.556C318.58 226.695 298.619 224.479 298.719 227.729C298.772 228.62 299.449 228.948 300.788 228.813C308.164 228.006 315.586 227.775 322.993 228.123C331.425 228.483 339.827 229.41 348.148 230.897L348.151 230.578Z" fill="#CDCDCF" fill-opacity="0.6"/>
<path d="M387.65 239.239C400.237 242.715 412.877 246.502 424.078 253.764C425.888 254.427 429.942 259.281 431.434 257.525C431.871 256.832 431.599 256.097 430.613 255.381C417.817 246.326 402.634 242.055 387.65 239.189V239.239Z" fill="#CDCDCF" fill-opacity="0.6"/>
<path d="M351.781 260.652C340.608 271.019 333.464 285.541 329.919 300.689C329.473 301.776 330.587 302.647 331.479 302.263C335.518 287.108 341.058 272.272 351.781 260.652Z" fill="#CDCDCF" fill-opacity="0.6"/>
<path d="M357.637 218.621C357.665 204.086 356.994 189.369 360.283 175.129C360.673 174.287 360.396 172.992 359.45 172.886C356.853 172.174 357.078 185.121 356.551 187.351C355.752 197.791 356.647 208.224 357.531 218.634L357.637 218.621Z" fill="#CDCDCF" fill-opacity="0.6"/>
<path d="M387.631 258.161C396.972 267.063 404.996 277.291 411.023 289C420.732 292.061 390.562 258.32 387.665 258.111L387.631 258.161Z" fill="#CDCDCF" fill-opacity="0.6"/>
<path d="M384.28 233.126C396.651 232.311 408.904 233.524 421.057 236.025C422.858 236.4 423.186 233.806 421.441 233.587C418.008 233.04 414.55 232.729 411.104 232.305C402.157 231.394 393.181 231.973 384.264 233.047L384.28 233.126Z" fill="#CDCDCF" fill-opacity="0.6"/>
<path d="M386.998 210.925C397.11 205.577 407.596 201.098 418.616 198.364C419.612 197.99 421.475 198.033 421.225 196.439C418.981 192.679 390.677 207.9 386.895 210.835L386.998 210.925Z" fill="#CDCDCF" fill-opacity="0.6"/>
<path d="M338.973 221.6C330.652 217.412 322.219 213.383 313.197 211.239C311.555 211.186 305.426 208.632 305.163 211.024C305.042 212.018 305.897 212.429 306.699 212.399C317.796 213.848 328.624 217.066 338.817 221.944C338.867 221.828 338.91 221.716 338.973 221.6Z" fill="#CDCDCF" fill-opacity="0.6"/>
<path d="M352.987 239.378C349.819 240.541 346.632 241.648 343.486 242.874C341.926 243.205 314.711 255.63 323.69 255.868C332.788 249.126 342.693 243.704 353.143 239.746L352.987 239.378Z" fill="#CDCDCF" fill-opacity="0.6"/>
<path d="M382.482 268.564C386.227 275.522 389.713 282.655 391.564 290.478C392.248 293.246 392.618 296.091 392.666 298.953C392.666 300.381 393.118 301.033 393.955 300.941C394.744 300.848 395.203 300.026 395.066 298.724C393.955 287.545 388.605 277.543 382.482 268.564Z" fill="#CDCDCF" fill-opacity="0.6"/>
<path d="M341.139 217.057C332.712 211.809 324.226 206.611 315.406 202.112C313.865 200.809 311.833 202.135 313.365 203.818C322.728 207.906 331.888 212.525 340.973 217.276L341.139 217.057Z" fill="#CDCDCF" fill-opacity="0.6"/>
<path d="M401.778 227.143C411.693 225.675 421.284 225.407 431.152 226.888C433.59 227.401 433.524 224.31 431.293 224.317C421.376 223.63 411.419 224.584 401.778 227.143Z" fill="#CDCDCF" fill-opacity="0.6"/>
<path d="M351.894 207.797C350.277 198.006 348.214 188.179 348.364 178.19C341.944 168.062 350.711 206.313 351.894 207.797Z" fill="#CDCDCF" fill-opacity="0.6"/>
<path d="M376.53 197.901C383.356 190.714 390.653 184.316 399.329 179.781C402.1 170.5 376.558 195.432 376.53 197.901Z" fill="#CDCDCF" fill-opacity="0.6"/>
<path d="M330.7 243.795C323.31 246.071 316.075 248.983 309.534 253.347C307.786 254.606 305.976 255.842 304.406 257.349C303.192 258.462 304.718 260.394 306.041 259.188C312.942 251.899 321.958 247.969 330.734 243.947L330.7 243.795Z" fill="#CDCDCF" fill-opacity="0.6"/>
<path d="M385.94 250.948C394.304 255.557 402.234 261.007 409.619 267.222C420.473 268.425 387.772 250.756 386.018 250.749L385.94 250.948Z" fill="#CDCDCF" fill-opacity="0.6"/>
<path d="M333.77 265.977C328.708 272.577 324.183 279.657 321.286 287.638C320.94 288.785 319.573 291.207 321.108 291.74C321.842 291.972 322.441 291.617 322.759 290.667C325.047 281.824 329.048 273.693 334.048 266.252L333.77 265.977Z" fill="#CDCDCF" fill-opacity="0.6"/>
<path d="M345.636 275.678C344.506 277.023 331.442 308.892 338.661 302.455C340.006 293.261 342.618 284.421 345.92 275.823L345.636 275.678Z" fill="#CDCDCF" fill-opacity="0.6"/>
<path d="M345.078 208.99C343.783 207.923 324.926 182.034 326.533 190.996C332.897 196.764 338.955 202.976 344.822 209.268L345.078 208.99Z" fill="#CDCDCF" fill-opacity="0.6"/>
<path d="M356.325 284.219C354.081 292.797 351.712 301.358 349.184 309.84C348.464 311.964 351.057 312.898 351.506 310.503C353.182 301.759 355.23 293.075 356.5 284.255L356.325 284.219Z" fill="#CDCDCF" fill-opacity="0.6"/>
<path d="M364.215 206.243C367.961 199.057 371.79 191.884 376.718 185.512C377.377 184.754 377.676 183.571 376.746 182.918C373.332 182.587 365.639 202.38 364.069 206.18L364.215 206.243Z" fill="#CDCDCF" fill-opacity="0.6"/>
<path d="M375.887 222.395C383.352 219.688 390.484 217.402 398.289 216.647C400.474 216.829 401.504 213.976 398.963 213.996C390.927 215.643 383.118 218.181 375.887 222.395Z" fill="#CDCDCF" fill-opacity="0.6"/>
<path d="M353.226 250.802C350.021 252.648 334.563 265.775 336.657 269.396C337.415 269.976 338.42 269.313 338.751 268.402C342.459 261.577 347.852 256.173 353.348 250.991L353.226 250.802Z" fill="#CDCDCF" fill-opacity="0.6"/>
<path d="M342.415 235.038C334.138 234.203 325.921 236.208 317.878 238.02C315.896 238.782 316.982 241.366 319.276 240.19C326.848 237.814 334.444 235.257 342.415 235.038Z" fill="#CDCDCF" fill-opacity="0.6"/>
<path d="M363.166 271.576C361.606 279.693 359.583 287.728 357.901 295.795C357.961 296.435 358.266 296.945 358.953 297.021C360.317 297.203 360.333 295.457 360.514 294.45C361.547 286.85 362.63 279.256 363.416 271.609L363.166 271.576Z" fill="#CDCDCF" fill-opacity="0.6"/>
<path d="M362.769 199.739C365.026 191.327 368.849 183.836 373.562 176.785C372.544 167.27 361.892 197.659 362.769 199.739Z" fill="#CDCDCF" fill-opacity="0.6"/>
<path d="M408.691 239.61C415.704 241.495 422.603 243.833 429.348 246.611C430.222 246.926 431.614 247.678 432.051 246.343C433.193 243 411.593 240.018 408.666 239.471L408.691 239.61Z" fill="#CDCDCF" fill-opacity="0.6"/>
<path d="M374.112 283.165C375.853 290.66 377.66 298.171 377.954 305.924C377.891 306.881 378.288 308.077 379.23 307.912C382.698 306.689 375.426 286.465 374.112 283.165Z" fill="#CDCDCF" fill-opacity="0.6"/>
<path d="M361.668 224.678C363.94 217.478 366.783 210.534 370.719 204.186C369.239 195.141 361.222 222.739 361.437 224.578L361.668 224.678Z" fill="#CDCDCF" fill-opacity="0.6"/>
<path d="M323.73 233.62C317.781 233.401 311.795 233.62 306.09 235.608C304.417 236.271 302.582 236.711 301.025 237.636C300.051 238.335 300.713 240.121 301.896 239.822C308.709 236.228 316.144 234.151 323.742 233.719L323.73 233.62Z" fill="#CDCDCF" fill-opacity="0.6"/>
<path d="M386.037 264.81C390.459 270.516 394.231 276.758 397.272 283.404C397.737 285.723 400.559 285.531 399.713 283.179C396.133 276.302 391.513 270.096 386.037 264.81Z" fill="#CDCDCF" fill-opacity="0.6"/>
<path d="M367.114 287.536C367.155 294.646 366.989 301.928 364.702 308.69C364.505 309.664 364.836 310.387 365.529 310.556C367.676 310.917 367.611 304.668 367.976 303.041C368.288 297.879 367.954 292.704 367.351 287.575L367.114 287.536Z" fill="#CDCDCF" fill-opacity="0.6"/>
<path d="M360.916 256.508C357.483 262.607 354.612 269.098 351.788 275.525C351.736 275.675 351.713 275.834 351.72 275.993C351.726 276.152 351.762 276.309 351.825 276.453C351.889 276.597 351.978 276.727 352.089 276.835C352.199 276.943 352.329 277.026 352.47 277.081C352.611 277.135 352.76 277.16 352.91 277.153C353.06 277.146 353.207 277.108 353.344 277.041C353.48 276.974 353.602 276.879 353.703 276.761C353.805 276.644 353.883 276.507 353.935 276.357C355.993 269.646 358.395 263.059 361.132 256.627L360.916 256.508Z" fill="#CDCDCF" fill-opacity="0.6"/>
<path d="M370.82 236.936C377.274 236.741 384.087 237.294 390.591 237.493C397.532 232.361 372.364 236.691 370.82 236.936Z" fill="#CDCDCF" fill-opacity="0.6"/>
<path d="M405.322 268.475C409.782 272.679 413.671 277.42 417.434 282.337C417.996 283.202 419.036 284.527 419.997 283.48C421.979 280.909 407.76 270.092 405.322 268.475Z" fill="#CDCDCF" fill-opacity="0.6"/>
<path d="M329.516 223.356C323.679 221.676 317.759 220.374 311.835 219.092C310.166 218.505 308.558 219.94 310.356 221.282C316.66 222.276 323.108 222.938 329.472 223.601L329.516 223.356Z" fill="#CDCDCF" fill-opacity="0.6"/>
<path d="M408.339 214.705C414.428 213.711 420.564 213.164 426.706 212.717C428.75 212.578 428.332 209.858 426.394 210.315C420.292 211.455 414.222 212.767 408.236 214.51L408.339 214.705Z" fill="#CDCDCF" fill-opacity="0.6"/>
<path d="M349.865 283.755C346.192 288.851 344.56 295.02 342.902 301.077C342.82 301.401 342.862 301.748 343.019 302.039C343.177 302.331 343.438 302.544 343.743 302.632C344.049 302.72 344.376 302.675 344.65 302.508C344.925 302.34 345.126 302.064 345.209 301.739C346.251 295.6 347.356 289.441 349.865 283.755Z" fill="#CDCDCF" fill-opacity="0.6"/>
<path d="M324.682 258.33C319.583 261.968 315.018 266.384 311.134 271.437C310.407 272.689 312.017 274.014 312.963 272.901C316.474 267.713 320.166 262.697 324.885 258.654L324.682 258.33Z" fill="#CDCDCF" fill-opacity="0.6"/>
<path d="M367.239 258.664C367.189 264.297 367.267 269.674 367.448 275.23C367.345 276.224 367.688 277.705 368.799 277.503C371.012 276.784 369.165 273.315 369.227 271.556C368.525 267.272 368.078 262.932 367.239 258.664Z" fill="#CDCDCF" fill-opacity="0.6"/>
<path d="M368.035 244.554C371.468 248.731 374.511 252.986 377.663 257.289C384.595 258.486 369.359 245.435 368.035 244.554Z" fill="#CDCDCF" fill-opacity="0.6"/>
<path d="M346.117 203.099C345.805 201.333 340.88 186.457 338.808 188.769C338.293 189.121 338.056 189.68 338.44 190.333C341.211 194.448 343.951 198.566 346.117 203.099Z" fill="#CDCDCF" fill-opacity="0.6"/>
<path d="M310.743 243.01C306.143 243.947 301.546 245.398 297.9 248.642C297.712 248.869 297.607 249.16 297.604 249.463C297.601 249.765 297.701 250.059 297.884 250.29C298.068 250.521 298.324 250.675 298.605 250.722C298.887 250.77 299.175 250.709 299.417 250.55C302.626 247.058 306.639 244.987 310.743 243.01Z" fill="#CDCDCF" fill-opacity="0.6"/>
<path d="M289 214.152C289.116 216.544 292.646 216.544 292.608 214.079C292.408 211.518 289.134 211.76 289 214.152Z" fill="#CDCDCF" fill-opacity="0.6"/>
<path d="M384.318 179.005C384.318 181.513 387.91 181.291 387.832 178.883C387.838 176.477 384.165 176.52 384.318 179.005Z" fill="#CDCDCF" fill-opacity="0.6"/>
<path d="M430.12 265.148C430.061 267.603 433.553 267.736 433.628 265.258C433.725 262.832 430.136 262.713 430.12 265.148Z" fill="#CDCDCF" fill-opacity="0.6"/>
<path d="M301.927 265.798C299.711 265.771 299.702 269.495 301.909 269.499C304.237 269.598 304.224 265.735 301.927 265.798Z" fill="#CDCDCF" fill-opacity="0.6"/>
<path d="M429.244 194.876C431.579 195.035 431.498 191.161 429.26 191.231C426.979 191.075 426.922 194.968 429.244 194.876Z" fill="#CDCDCF" fill-opacity="0.6"/>
<path d="M437.573 233.034C437.336 235.469 441.146 235.548 440.965 233.126C441.097 230.744 437.557 230.731 437.573 233.034Z" fill="#CDCDCF" fill-opacity="0.6"/>
<path d="M300.21 285.872C300.232 287.453 302.429 287.403 302.451 285.839C302.395 284.431 300.21 284.401 300.21 285.872Z" fill="#CDCDCF" fill-opacity="0.6"/>
<path d="M296.122 232.722C294.814 232.742 294.727 235.041 296.094 235.075C297.573 235.124 297.561 232.742 296.122 232.722Z" fill="#CDCDCF" fill-opacity="0.6"/>
<path d="M410.873 205.783C409.419 205.69 409.544 208.132 410.892 208.062C412.237 208.089 412.325 205.65 410.873 205.783Z" fill="#CDCDCF" fill-opacity="0.6"/>
<path d="M303.803 202.874C302.364 203.069 302.482 205.385 304.043 205.176C305.516 204.961 305.116 202.824 303.803 202.874Z" fill="#CDCDCF" fill-opacity="0.6"/>
<path d="M318.496 294.709C317.069 294.709 317.116 296.968 318.461 297.028C319.928 297.018 320.037 294.705 318.496 294.709Z" fill="#CDCDCF" fill-opacity="0.6"/>
<path d="M436.703 255.196C438.173 255.229 438.139 252.79 436.703 252.833C435.368 252.87 435.349 255.172 436.703 255.196Z" fill="#CDCDCF" fill-opacity="0.6"/>
<path d="M427.049 280.697C427.049 282.215 429.365 282.211 429.253 280.644C429.194 279.15 427.065 279.299 427.049 280.697Z" fill="#CDCDCF" fill-opacity="0.6"/>
<path d="M400.306 294.105C401.745 294.105 401.61 291.829 400.243 291.876C398.898 291.856 398.889 294.218 400.306 294.105Z" fill="#CDCDCF" fill-opacity="0.6"/>
<path d="M430.501 206.836C430.542 208.241 432.826 208.085 432.717 206.684C432.687 206.38 432.548 206.101 432.329 205.904C432.109 205.707 431.827 205.608 431.54 205.627C431.253 205.647 430.985 205.784 430.791 206.009C430.597 206.235 430.493 206.531 430.501 206.836Z" fill="#CDCDCF" fill-opacity="0.6"/>
<path d="M328.84 177.717C328.829 177.869 328.847 178.022 328.893 178.167C328.939 178.311 329.012 178.444 329.108 178.558C329.204 178.672 329.321 178.764 329.451 178.829C329.581 178.894 329.723 178.93 329.866 178.935C330.01 178.941 330.153 178.915 330.288 178.86C330.422 178.805 330.544 178.722 330.647 178.616C330.751 178.509 330.833 178.382 330.888 178.241C330.944 178.1 330.972 177.949 330.971 177.796C331.137 176.302 328.783 176.279 328.84 177.717Z" fill="#CDCDCF" fill-opacity="0.6"/>
<path d="M412.371 181.46C412.371 182.875 414.505 183.027 414.462 181.46C414.574 179.926 412.333 180.059 412.371 181.46Z" fill="#CDCDCF" fill-opacity="0.6"/>
<path d="M290.535 248.871C291.222 249.603 292.673 250.196 292.764 248.539C292.689 246.952 290.467 247.201 290.535 248.871Z" fill="#CDCDCF" fill-opacity="0.6"/>
<defs>
<radialGradient id="paint0_radial_184_11" cx="0" cy="0" r="1" gradientUnits="userSpaceOnUse" gradientTransform="translate(54.2667 350.037) rotate(131.539) scale(85.5536 62.9149)">
<stop stop-color="#E3DBDB"/>
<stop offset="1" stop-color="#2F2A2A" stop-opacity="0.61"/>
</radialGradient>
</defs>
</svg>
