<svg width="1244" height="483" viewBox="0 0 1244 483" fill="none" xmlns="http://www.w3.org/2000/svg">
<path d="M1241.35 1C1246.05 37.8019 1227.53 179.792 1113.24 174C970.378 166.76 28 70.9236 28 340" stroke="#767676" stroke-width="3" stroke-dasharray="20 20"/>
<path d="M18 433L18 483" stroke="#767676" stroke-width="3" stroke-dasharray="20 20"/>
<path d="M37 382.905C37 394.451 26.4593 404.006 18.5 413C11.5087 405.1 0 394.451 0 382.905C0 371.36 8.28273 362 18.5 362C28.7173 362 37 371.36 37 382.905Z" fill="url(#paint0_radial_184_10)"/>
<path d="M14.792 385.083L11.9795 384.395L13.1367 373.672H24.6357V376.66H16.0664L15.4805 381.89C15.8125 381.694 16.2715 381.504 16.8574 381.318C17.4434 381.123 18.1123 381.025 18.8643 381.025C19.8701 381.025 20.7686 381.191 21.5596 381.523C22.3604 381.846 23.0391 382.319 23.5957 382.944C24.1523 383.56 24.5771 384.312 24.8701 385.2C25.1631 386.079 25.3096 387.07 25.3096 388.174C25.3096 389.16 25.1631 390.083 24.8701 390.942C24.5869 391.802 24.1572 392.559 23.5811 393.213C23.0049 393.867 22.2773 394.38 21.3984 394.751C20.5293 395.112 19.499 395.293 18.3076 395.293C17.4189 395.293 16.5645 395.166 15.7441 394.912C14.9336 394.648 14.2061 394.263 13.5615 393.755C12.917 393.237 12.3994 392.603 12.0088 391.851C11.6182 391.089 11.3936 390.215 11.335 389.229H14.792C14.8799 389.922 15.0703 390.513 15.3633 391.001C15.666 391.479 16.0664 391.846 16.5645 392.1C17.0625 392.354 17.6387 392.48 18.293 392.48C18.8887 392.48 19.4014 392.378 19.8311 392.173C20.2607 391.958 20.6172 391.655 20.9004 391.265C21.1934 390.864 21.4082 390.396 21.5449 389.858C21.6914 389.321 21.7646 388.726 21.7646 388.071C21.7646 387.446 21.6816 386.875 21.5156 386.357C21.3594 385.84 21.1201 385.391 20.7979 385.01C20.4854 384.629 20.0898 384.336 19.6113 384.131C19.1328 383.916 18.5811 383.809 17.9561 383.809C17.1162 383.809 16.4717 383.931 16.0225 384.175C15.583 384.419 15.1729 384.722 14.792 385.083Z" fill="white"/>
<path d="M1161.7 418.653H1076.36L1037 478H1077.43C1076.92 472.403 1077.62 466.765 1079.49 461.443C1081.35 456.121 1084.35 451.233 1088.28 447.089C1092.21 442.945 1097 439.635 1102.33 437.371C1107.65 435.107 1113.41 433.938 1119.24 433.938C1125.06 433.938 1130.82 435.107 1136.15 437.371C1141.48 439.635 1146.26 442.945 1150.19 447.089C1154.13 451.233 1157.12 456.121 1158.99 461.443C1160.86 466.765 1161.56 472.403 1161.04 478H1201.47L1161.7 418.653Z" stroke="#7A7A7A" stroke-width="2" stroke-miterlimit="10"/>
<path d="M1091.09 387.922L1076.36 418.788H1094.08L1110.26 387.922H1091.09Z" stroke="#7A7A7A" stroke-width="2" stroke-miterlimit="10"/>
<path d="M1125.93 387.922H1110.26L1094.08 418.788H1136.51L1125.93 387.922Z" stroke="#7A7A7A" stroke-width="2" stroke-miterlimit="10"/>
<path d="M1161.83 418.788L1149.52 387.922H1125.92L1136.51 418.788H1161.83Z" stroke="#7A7A7A" stroke-width="2" stroke-miterlimit="10"/>
<path d="M1150.36 378.023H1087.88C1086.46 378.023 1085.31 379.131 1085.31 380.498V385.492C1085.31 386.859 1086.46 387.967 1087.88 387.967H1150.36C1151.78 387.967 1152.93 386.859 1152.93 385.492V380.498C1152.93 379.131 1151.78 378.023 1150.36 378.023Z" stroke="#7A7A7A" stroke-width="2" stroke-miterlimit="10"/>
<path d="M1137.35 287.721H1100.84C1100.22 287.721 1099.72 288.204 1099.72 288.801V300.004C1099.72 300.601 1100.22 301.084 1100.84 301.084H1137.35C1137.97 301.084 1138.47 300.601 1138.47 300.004V288.801C1138.47 288.204 1137.97 287.721 1137.35 287.721Z" stroke="#7A7A7A" stroke-width="2" stroke-miterlimit="10"/>
<path d="M1130.26 271.928H1107.93C1106.54 271.928 1105.41 273.016 1105.41 274.358V282.862C1105.41 284.203 1106.54 285.291 1107.93 285.291H1130.26C1131.66 285.291 1132.78 284.203 1132.78 282.862V274.358C1132.78 273.016 1131.66 271.928 1130.26 271.928Z" stroke="#7A7A7A" stroke-width="2" stroke-miterlimit="10"/>
<path d="M1140.85 374.154H1097.34L1107.32 302.254H1131.24L1140.85 374.154Z" stroke="#7A7A7A" stroke-width="2" stroke-miterlimit="10"/>
<rect x="1076.7" y="371.051" width="85.073" height="7.29197" fill="#7A7A7A"/>
<defs>
<radialGradient id="paint0_radial_184_10" cx="0" cy="0" r="1" gradientUnits="userSpaceOnUse" gradientTransform="translate(54.2667 350.037) rotate(131.539) scale(85.5536 62.9149)">
<stop stop-color="#E3DBDB"/>
<stop offset="1" stop-color="#2F2A2A" stop-opacity="0.61"/>
</radialGradient>
</defs>
</svg>
