<svg width="1244" height="483" viewBox="0 0 1244 483" fill="none" xmlns="http://www.w3.org/2000/svg">
<path d="M1241.35 1C1246.05 37.8019 1227.53 179.792 1113.24 174C970.378 166.76 28 70.9236 28 340" stroke="#767676" stroke-width="3" stroke-dasharray="20 20"/>
<path d="M18 433L18 483" stroke="#767676" stroke-width="3" stroke-dasharray="20 20"/>
<path d="M37 382.905C37 394.451 26.4593 404.006 18.5 413C11.5087 405.1 0 394.451 0 382.905C0 371.36 8.28273 362 18.5 362C28.7173 362 37 371.36 37 382.905Z" fill="url(#paint0_radial_184_9)"/>
<path d="M21.75 373.54H22.1895V376.426H21.9404C20.6807 376.426 19.5918 376.621 18.6738 377.012C17.7656 377.402 17.0186 377.939 16.4326 378.623C15.8467 379.307 15.4072 380.107 15.1143 381.025C14.8311 381.934 14.6895 382.9 14.6895 383.926V387.28C14.6895 388.13 14.7822 388.882 14.9678 389.536C15.1533 390.181 15.4121 390.723 15.7441 391.162C16.0859 391.592 16.4766 391.919 16.916 392.144C17.3555 392.368 17.8291 392.48 18.3369 392.48C18.8643 392.48 19.3428 392.373 19.7725 392.158C20.2021 391.934 20.5684 391.626 20.8711 391.235C21.1738 390.845 21.4033 390.381 21.5596 389.844C21.7158 389.307 21.7939 388.721 21.7939 388.086C21.7939 387.48 21.7158 386.914 21.5596 386.387C21.4131 385.85 21.1934 385.381 20.9004 384.98C20.6074 384.57 20.2412 384.253 19.8018 384.028C19.3721 383.794 18.874 383.677 18.3076 383.677C17.6045 383.677 16.9648 383.843 16.3887 384.175C15.8223 384.507 15.3633 384.941 15.0117 385.479C14.6699 386.006 14.4844 386.567 14.4551 387.163L13.1074 386.724C13.1855 385.815 13.3857 385 13.708 384.277C14.04 383.555 14.4746 382.939 15.0117 382.432C15.5488 381.924 16.1689 381.538 16.8721 381.274C17.585 381.001 18.3662 380.864 19.2158 380.864C20.251 380.864 21.1494 381.06 21.9111 381.45C22.6729 381.841 23.3027 382.373 23.8008 383.047C24.3086 383.711 24.6846 384.473 24.9287 385.332C25.1826 386.182 25.3096 387.07 25.3096 387.998C25.3096 389.023 25.1533 389.98 24.8408 390.869C24.5283 391.748 24.0693 392.52 23.4639 393.184C22.8682 393.848 22.1406 394.365 21.2812 394.736C20.4316 395.107 19.4648 395.293 18.3809 395.293C17.2383 395.293 16.2178 395.073 15.3193 394.634C14.4307 394.194 13.6738 393.589 13.0488 392.817C12.4336 392.046 11.9648 391.157 11.6426 390.151C11.3203 389.146 11.1592 388.081 11.1592 386.958V385.493C11.1592 383.872 11.3643 382.344 11.7744 380.908C12.1846 379.463 12.8145 378.188 13.6641 377.085C14.5234 375.981 15.6221 375.117 16.96 374.492C18.2979 373.857 19.8945 373.54 21.75 373.54Z" fill="white"/>
<path d="M776.852 206.487C775.87 207.052 775.587 207.593 775.739 208.527C775.87 209.215 775.587 209.633 774.998 209.658C774.867 209.658 774.496 209.166 774.191 208.576C773.864 207.962 773.515 207.396 773.406 207.323C773.297 207.249 772.642 207.372 771.988 207.593C770.898 207.986 770.723 208.158 769.981 209.51L769.174 211.009L769.087 214.328L769 217.646L770.439 220.792C771.225 222.512 771.879 224.086 771.879 224.307C771.879 224.7 773.58 228.559 774.235 229.64C774.474 230.034 775.303 230.673 776.197 231.164L777.768 232L778.858 230.525C780.232 228.682 780.232 228.657 780.799 226.003C781.061 224.774 781.367 223.446 781.476 223.029C781.606 222.611 781.694 220.915 781.694 219.219C781.716 217.547 781.803 215.679 781.912 215.065C782.174 213.59 781.825 210.665 781.236 209.387C780.996 208.822 780.341 207.814 779.796 207.175C778.662 205.823 778.16 205.7 776.852 206.487Z" fill="#767676"/>
<path d="M862.852 71.4869C861.87 72.0522 861.587 72.593 861.739 73.527C861.87 74.2152 861.587 74.633 860.998 74.6576C860.867 74.6576 860.496 74.166 860.191 73.5761C859.864 72.9617 859.515 72.3963 859.406 72.3226C859.297 72.2489 858.642 72.3718 857.988 72.593C856.898 72.9862 856.723 73.1583 855.981 74.5101L855.174 76.0095L855.087 79.3276L855 82.6458L856.439 85.7919C857.225 87.5125 857.879 89.0855 857.879 89.3067C857.879 89.7 859.58 93.5589 860.235 94.6404C860.474 95.0337 861.303 95.6727 862.197 96.1643L863.768 97L864.858 95.5253C866.232 93.6818 866.232 93.6572 866.799 91.0027C867.061 89.7737 867.367 88.4465 867.476 88.0286C867.606 87.6108 867.694 85.9148 867.694 84.2189C867.716 82.5475 867.803 80.6795 867.912 80.065C868.174 78.5903 867.825 75.6654 867.236 74.3872C866.996 73.8219 866.341 72.8142 865.796 72.1751C864.662 70.8233 864.16 70.7004 862.852 71.4869Z" fill="#767676"/>
<path d="M531.126 84.7456C528.411 86.3115 527.355 87.4051 525.955 90.1142C525.244 91.4812 524.318 93.0968 523.887 93.6933C523.456 94.3146 522.637 95.7562 522.056 96.9244L521 99.0121L521.065 101.15C521.108 102.293 521.194 103.337 521.28 103.436C521.366 103.536 522.228 103.71 523.176 103.859C524.706 104.082 525.136 104.058 526.3 103.66C529.596 102.541 531.039 101.846 532.763 100.628C533.754 99.9069 535.154 98.9873 535.865 98.5896C538.709 96.9741 540.131 95.1348 540.799 92.1026C541.187 90.4125 541.079 90.0148 539.894 89.0952C538.946 88.3495 538.257 88.2998 537.761 88.9709C537.309 89.5674 537.093 89.5923 536.598 89.0703C536.232 88.6975 536.232 88.5981 536.856 87.3554L537.503 86.0381L536.49 85.019C535.499 84.0249 535.434 84 533.948 84C532.698 84 532.181 84.1491 531.126 84.7456Z" fill="#767676"/>
<path d="M860.172 218.037C860.649 218.541 861.548 219.642 862.158 220.461C862.779 221.298 863.726 222.339 864.284 222.787C865.509 223.708 867.673 224.296 869.296 224.119C870.593 223.992 871.128 223.512 871.731 222.064C872.066 221.215 872.046 221.102 871.444 220.506C870.886 219.931 870.842 219.783 871.103 219.343C871.373 218.872 871.497 218.834 872.16 219.004C872.573 219.12 873.2 219.239 873.577 219.304L874.256 219.411L875.076 218.269C875.841 217.218 875.877 217.014 875.729 215.612C875.55 213.952 874.864 212.726 872.99 210.758C872.092 209.786 871.726 209.61 869.337 208.874C867.896 208.413 866.273 207.824 865.739 207.538C864.848 207.045 862.106 206.151 860.7 205.869C860.355 205.807 859.234 206.012 858.206 206.305L856.337 206.861L856.236 207.57C855.913 209.458 856.113 210.976 856.943 212.789C858.001 215.181 859.068 216.902 860.172 218.037Z" fill="#767676"/>
<path d="M555.646 316.848C556.124 317.352 557.022 318.453 557.632 319.272C558.254 320.109 559.201 321.15 559.759 321.598C560.983 322.519 563.148 323.107 564.77 322.93C566.068 322.803 566.602 322.323 567.206 320.875C567.54 320.026 567.52 319.913 566.918 319.317C566.36 318.742 566.316 318.594 566.578 318.154C566.847 317.683 566.972 317.646 567.634 317.815C568.048 317.931 568.675 318.05 569.052 318.115L569.731 318.222L570.551 317.08C571.315 316.029 571.351 315.825 571.204 314.423C571.025 312.763 570.339 311.537 568.465 309.569C567.566 308.597 567.201 308.421 564.812 307.685C563.37 307.224 561.748 306.635 561.214 306.349C560.323 305.856 557.58 304.962 556.175 304.68C555.829 304.618 554.709 304.823 553.68 305.116L551.812 305.672L551.711 306.381C551.388 308.269 551.588 309.787 552.417 311.6C553.476 313.992 554.543 315.713 555.646 316.848Z" fill="#767676"/>
<path d="M443.088 360.324C443.156 361.016 443.192 362.436 443.172 363.457C443.15 364.5 443.261 365.902 443.427 366.598C443.83 368.076 445.18 369.868 446.571 370.722C447.674 371.417 448.39 371.365 449.755 370.591C450.539 370.125 450.593 370.023 450.482 369.184C450.394 368.387 450.45 368.243 450.926 368.056C451.428 367.848 451.549 367.896 451.969 368.436C452.224 368.781 452.647 369.258 452.905 369.541L453.376 370.042L454.724 369.642C455.972 369.28 456.126 369.141 456.868 367.943C457.744 366.521 457.953 365.132 457.678 362.429C457.564 361.109 457.383 360.747 455.946 358.701C455.09 357.453 454.169 355.994 453.922 355.441C453.52 354.505 451.901 352.117 450.963 351.033C450.728 350.772 449.717 350.248 448.724 349.849L446.908 349.143L446.393 349.642C444.981 350.936 444.208 352.258 443.753 354.199C443.124 356.737 442.911 358.752 443.088 360.324Z" fill="#767676"/>
<path d="M603.661 198.122C602.974 198.221 601.556 198.319 600.535 198.344C599.493 198.368 598.096 198.541 597.408 198.737C595.949 199.205 594.219 200.633 593.427 202.06C592.781 203.192 592.865 203.906 593.698 205.235C594.199 205.998 594.303 206.047 595.137 205.899C595.929 205.776 596.074 205.826 596.283 206.293C596.512 206.786 596.471 206.909 595.949 207.352C595.616 207.622 595.157 208.065 594.886 208.336L594.407 208.828L594.866 210.157C595.282 211.388 595.428 211.536 596.658 212.225C598.117 213.037 599.514 213.185 602.202 212.791C603.515 212.619 603.87 212.422 605.85 210.896C607.059 209.985 608.476 209.001 609.018 208.73C609.935 208.287 612.249 206.564 613.291 205.58C613.541 205.333 614.02 204.3 614.375 203.291L615 201.445L614.479 200.953C613.124 199.599 611.769 198.885 609.81 198.516C607.246 197.999 605.225 197.876 603.661 198.122Z" fill="#767676"/>
<path d="M352.167 241.153C352.085 241.301 351.799 242.163 351.513 243.1C351.064 244.505 350.982 245.146 351.003 247.069C351.044 250.299 351.33 252.616 351.942 254.761C352.228 255.771 352.595 257.423 352.759 258.409C353.208 261.145 354.086 263.142 355.352 264.325C357.026 265.879 357.802 266.248 358.558 265.854C359.293 265.484 360.211 264.276 360.211 263.66C360.211 263.438 360.068 263.019 359.905 262.723C359.619 262.205 359.619 262.131 360.007 261.663L360.436 261.145L361.334 262.131C361.845 262.698 362.314 263.142 362.396 263.142C362.457 263.142 362.968 262.772 363.499 262.329C364.418 261.589 364.499 261.441 364.805 259.863C365.173 257.891 365.051 256.659 364.173 253.602C363.58 251.556 362.927 250.594 357.557 243.938C355.679 241.596 355.576 241.523 354.515 241.35C353.902 241.251 353.167 241.103 352.861 241.03C352.555 240.956 352.248 241.03 352.167 241.153Z" fill="#767676"/>
<defs>
<radialGradient id="paint0_radial_184_9" cx="0" cy="0" r="1" gradientUnits="userSpaceOnUse" gradientTransform="translate(54.2667 350.037) rotate(131.539) scale(85.5536 62.9149)">
<stop stop-color="#E3DBDB"/>
<stop offset="1" stop-color="#2F2A2A" stop-opacity="0.61"/>
</radialGradient>
</defs>
</svg>
