<svg width="1300" height="483" viewBox="0 0 1300 483" fill="none" xmlns="http://www.w3.org/2000/svg">
<path d="M1254.35 1C1259.05 37.8019 1240.53 179.792 1126.24 174C983.378 166.76 41 70.9236 41 340" stroke="#767676" stroke-width="3" stroke-dasharray="20 20"/>
<path d="M31 433L31 483" stroke="#767676" stroke-width="3" stroke-dasharray="20 20"/>
<path d="M50 382.905C50 394.451 39.4593 404.006 31.5 413C24.5087 405.1 13 394.451 13 382.905C13 371.36 21.2827 362 31.5 362C41.7173 362 50 371.36 50 382.905Z" fill="url(#paint0_radial_184_8)"/>
<path d="M38.251 373.672V375.605L29.7256 395H26.0049L34.5156 376.484H23.4707V373.672H38.251Z" fill="white"/>
<path d="M699.923 323.162C699.057 323.347 697.851 323.959 697.18 324.563C696.334 325.321 695.867 326.129 694.573 329.135C689.991 339.777 684.048 351.849 678.016 362.744C665.477 385.39 650.224 408.085 633.541 428.941C628.395 435.371 623.424 441.257 619.125 446.004C618.113 447.122 616.984 448.368 616.625 448.776C615.506 450.021 615 451.325 615 452.92C615 454.652 615.554 455.975 616.79 457.2C617.675 458.076 618.366 458.494 619.475 458.796L620.204 459H717.774C804.934 459 815.411 458.981 815.975 458.844C817.415 458.514 818.845 457.502 819.652 456.257C820.508 454.944 820.839 453.163 820.508 451.665C820.217 450.352 819.74 449.584 818.252 447.949C803.465 431.821 786.325 409.281 772.765 388.133C759.72 367.773 749.535 348.775 740.546 328.016C739.963 326.654 739.554 325.876 739.214 325.419C738.377 324.3 737.035 323.444 735.663 323.152C734.68 322.948 700.896 322.948 699.923 323.162ZM730.76 336.109C735.721 347.501 742.677 361.285 749.613 373.493C751.383 376.625 755.187 383.124 755.751 383.999C755.945 384.301 756.51 384.661 750.556 380.604C745.041 376.839 744.817 376.713 743.572 376.703C742.842 376.703 741.976 376.956 741.363 377.336C741.169 377.462 738.688 379.933 735.858 382.822C733.036 385.721 730.692 388.085 730.663 388.085C730.634 388.085 730.167 387.637 729.632 387.083C729.106 386.538 726.772 384.155 724.447 381.791C720.721 377.987 720.167 377.452 719.641 377.199C718.406 376.596 717.132 376.596 715.896 377.199C715.351 377.462 714.768 378.036 710.118 382.793C707.268 385.701 704.914 388.085 704.884 388.085C704.855 388.085 702.987 386.188 700.731 383.873C694.768 377.754 694.262 377.267 693.552 376.995C692.443 376.577 691.197 376.625 690.195 377.131C689.952 377.258 687.511 378.892 684.777 380.769C682.034 382.647 679.787 384.164 679.787 384.145C679.787 384.135 680.448 383.007 681.256 381.655C690.332 366.431 698.873 349.903 705.089 335.574L705.264 335.166H717.813H730.352L730.76 336.109ZM698.902 393.659C702.511 397.355 702.861 397.637 704.106 397.881C704.816 398.026 704.952 398.026 705.663 397.881C706.11 397.793 706.635 397.618 706.898 397.453C707.17 397.297 708.795 395.721 710.867 393.63C712.783 391.674 715.128 389.301 716.071 388.338L717.793 386.606L722.842 391.772C728.416 397.482 728.562 397.608 729.904 397.89C730.614 398.036 730.721 398.036 731.451 397.89C732.035 397.764 732.394 397.618 732.852 397.326C733.27 397.054 735.05 395.303 738.776 391.489L744.087 386.052L754.827 393.377C760.741 397.404 765.809 400.799 766.091 400.916C766.597 401.13 766.626 401.159 767.979 403.192C777.025 416.743 788.115 431.558 798.358 443.766C799.565 445.196 800.635 446.48 800.732 446.607L800.917 446.84H717.832C672.131 446.84 634.747 446.821 634.747 446.792C634.747 446.762 635.35 446.033 636.09 445.157C646.109 433.377 657.131 418.737 667.18 403.873L669.077 401.071L669.592 400.867C669.894 400.75 674.485 397.676 680.789 393.367L691.47 386.061L693.581 388.221C694.748 389.398 697.141 391.849 698.902 393.659Z" fill="#7A7A7A"/>
<path d="M554 312.788C504.465 262.519 504.465 351.886 464 312.788" stroke="#767474" stroke-width="5"/>
<path d="M572 393.788C522.465 343.519 522.465 432.886 482 393.788" stroke="#767474" stroke-width="5"/>
<path d="M847 306.5C896.535 256.231 896.535 345.598 937 306.5M574 349.5C623.535 299.23 623.535 388.598 664 349.5M776 349.5C825.535 299.23 825.535 388.598 866 349.5M847 401C896.535 350.73 896.535 440.098 937 401" stroke="#767474" stroke-width="5"/>
<defs>
<radialGradient id="paint0_radial_184_8" cx="0" cy="0" r="1" gradientUnits="userSpaceOnUse" gradientTransform="translate(67.2667 350.037) rotate(131.539) scale(85.5536 62.9149)">
<stop stop-color="#E3DBDB"/>
<stop offset="1" stop-color="#2F2A2A" stop-opacity="0.61"/>
</radialGradient>
</defs>
</svg>
