<svg xmlns="http://www.w3.org/2000/svg" width="458" height="432" viewBox="0 0 458 432"><defs><clipPath id="clip-path"><path id="frame" class="cls-1" d="M292.26 2H2.07v230.56h290.19z"/></clipPath><clipPath id="clip-path-2"><path class="cls-1" d="M200.73 32.64l-.15-1.73s-.15-.76-.23-1-.53-.07-.53-.07l-1.13.3-1.4.08-.34-.12a10.08 10.08 0 01-1.25-.1 1.51 1.51 0 01-.79-.64c-.19-.27-.11-.3-.3-.57a1.6 1.6 0 01-.27-.64 2.79 2.79 0 010-.79s.61-2.12.68-2.65-.11-.42-.22-.6-1.14.41-1.14.41a3.22 3.22 0 00-1 .19c-.53.19-.83.83-1.13 1.28s-.12 1.22-.16 1.63-.52.72-.86.79-.46-.3-.76-.3-.53.15-1 .57a5 5 0 01-1.28.68c-.38.19 0 .72-.15 1.28s-.5 0-.76-.19a3.48 3.48 0 00-.76-.41 3.71 3.71 0 00-.9.11.69.69 0 00-.42.46l-.3.22a2.29 2.29 0 01-1.14.64c-.79.23-.9-.07-1-.41a4.68 4.68 0 01-.34-.83c-.16-.57-.16-.08-.42-.12a.87.87 0 00-.34 0 4.78 4.78 0 00-.87-.34c-.6-.19 0 0-.3.19s0 0-.57 0a2.69 2.69 0 00-.79.11c-.49.12-.34.19-.46.31s.27.49.53.75 0 .44-.34.76-.49-.15-.64-.34a.68.68 0 00-.38-.23s-.71-.64-.75-.83.26-.42.26-.64-.68 0-.68 0a2.48 2.48 0 01-.75-.42c-.23-.22-.19-.15-.57-.3s-.26-.34-.41-.76a.41.41 0 00-.5-.3h-.9c-.34 0-.42.27-.8.27s-.22-.38-.37-.72a1.13 1.13 0 010-.87c.08-.3-.15-.3-.56-.6s-.57.34-1.33.34-.45-.5-.75-.72-.23.3-.42.6-.34 0-.83 0-.68.64-.94.95-.15 1.05-.34 1.39-.27.38-.27.38l-1.06.08s-.24-.14-.52-.34a1.12 1.12 0 00-.65-.19l-.6.07a3.43 3.43 0 00-.57.19c-.22.12-.15 0-.37 0a2.51 2.51 0 00-.76.06c-.27.05-.76.45-1 .45a1.65 1.65 0 01-.57-.09c-.17-.06-.11 0-.36 0a2.53 2.53 0 01-.75-.08 1.73 1.73 0 00-.72-.15h-1a4 4 0 00-1.1 0 5 5 0 00-1.45.27c-.83.18-.46-.1-.92-.46s-.18-.45-.27-1.09-.55-.55-1.64-.82-.37.18-1 .64-.37 0-.91.54-.37 1-.37 1l-.18.91c-.18.91-.82-.55-.82-.55s-2 .17-3.15.23c3.86 3.63 5.43 6.33 3.77 13.07-.34.32.5 1.27-.85 2.41a2.32 2.32 0 00-.35 1.15 9.46 9.46 0 01-.15 1.3l-.15 1.51a18.81 18.81 0 00-1.1 2.91c-2 4.18-3.08 7.76-8.23 10.44l-.86-.15a3.86 3.86 0 00-2-1.36c.08-.09-1.23-.18-1.91-.9l-.45-.7c-.36 0-.85.05-.45 2-.42.33 1.29.86 1 1.81-.86 0-.79.76.15 2.66.52.2.91-.49.75 1.75a2.41 2.41 0 00.71 1.26s-.2.65.24.35a1.69 1.69 0 011.16-.4c.54-.5 1.7 1.11 2.86-.25h.39l.45.15c.24 0 1.17-.06.3-1.16v-.5a9.7 9.7 0 011.81-.75c2.9-.69 6.63 3 8.13 6.92v1.22c-.24 2.13.48-.55 1 1.6 0 0 .25.35.1.4-.33.13-.71-.41-.2 1.21l.25 2.26a105.47 105.47 0 01-1.15 15c-.23.73-.69 3.29-1.06 5.11a6.51 6.51 0 00-.15 1.31c-1.06 1.64-.64 6.74-4.86 7.33a10 10 0 00-1.06 3.71 3.25 3.25 0 00.1 3l-.29 2.74c0 .1-.25.84-.55 1.8-.2.61-.42 1.33-.66 2-6.22 22.53-4.66 16.37-15.92 33.05-.39.88-1.09 2.36-1.54 3.28.65.73 1.86 2.07 2.14 2.31a.72.72 0 00.85 0 5.14 5.14 0 011.12.2c.33.13.46.52 1 .91s1.18-.06 1.51-.06a3.54 3.54 0 011.18.53 2.81 2.81 0 011 .65c.39.4 0 .53 0 .53l-.27.65s.07.4.14 1.84a7.78 7.78 0 01-.4 2.69 6.7 6.7 0 000 1.18c.07.6.66 0 1.18 0s.14 1 .14 1a9.82 9.82 0 00.91 1 5.34 5.34 0 001.25.53 1.89 1.89 0 001.25-.07 9.33 9.33 0 011.31 0 7.05 7.05 0 00.79.79 14 14 0 011.25 1c.19.26 1.54 1.08 2.06 2s-.61 1.69-.61 1.69l-1.12 1.9a5.51 5.51 0 01-1 .59 13.65 13.65 0 00-1.57 1.05 11.59 11.59 0 01-1.38 1c-.59.32-.59-.07-.92-.14s-.52.07-1.31.07-.4-.13-1.25-.4a1 1 0 00-1.18.6s-.79 1.24-.85 1.44a11.17 11.17 0 00.19 1.31c0 .33.2 1.58.27 2.23a2 2 0 01-.66 1.52 1.69 1.69 0 00-.39.91s.59.6.59 1a5.9 5.9 0 01-.2 1.12 10.52 10.52 0 01-.66.85 1.62 1.62 0 01-.74.24l-.3.9v1.41l-.3.61v1.51l.41 1a2.25 2.25 0 01-.91 1.31c-.81.6-.2.8-.2 1.51a16.82 16.82 0 00.28 2.17l1.91 1.91.91.91a5.05 5.05 0 011.61-.1l.51.5.4.61s.16-.19.22.21a1.3 1.3 0 00.9-.37c.61-.6 1.21-1 1.67 0a3.94 3.94 0 001.05 1.52l1.67-1.21s.45-.91 1.21 0a2.17 2.17 0 001.51.9s2.11-1.05 2.57-.45 1.81 1.06 2 1.81.15 2 1.06 1.66l1.81-.6s.61-.45 1.51.3 2.57 2 2.57 2a6.38 6.38 0 011.36-.61c.91-.3.46-.75 2.27-.45s2.72.76 3.17 0a17.54 17.54 0 012.12-2.27l.75-1.05a2.7 2.7 0 00-.6-1.21l-.45-.46v-4.83c0-1.06.45-2 .45-2.87v-1.67s0-.18-.07-.43a2.65 2.65 0 01.22-1.53 4.22 4.22 0 00-.15-2.57l.15-1.21 1.21-.3c.6-.15 2.27.75 3.47-.15s1.82.15 2.12-1.06.45-2.27.45-2.27a3.63 3.63 0 001.52-1.66c.75-1.36 1.51-3 1.51-3a11.22 11.22 0 01-.15-2 13.36 13.36 0 00-.16-2.11V178l.14-.67a1 1 0 00.88-.54 4 4 0 00.2-1c.07-.34-.41-.75.47-1.09s1.36.54 1.22-.81a17 17 0 01-.13-1.83c0-.27.2-.4.54-.61s.61-.94 1.15-1.35.81-.14.88-1.08.07-1.76.07-1.76.07-1.09.41-1.16 1.08.21 1.21-.67a4.5 4.5 0 00-.07-1.49c0-.48.41-.54-.33-1.22a9.07 9.07 0 01-1.36-1.22c-.2-.33-.06-.61-.27-1.15s-.61-.61-.54-1.08a6.32 6.32 0 01.54-1.56c.27-.61.61-.81.2-1.82a29.29 29.29 0 00-1.35-2.71s-.47-1.42.14-1.36a4.84 4.84 0 011.49.61s.6.61 1.08-.34 1.08-1.21 1.15-2.36a3.63 3.63 0 00-.2-1.7.91.91 0 01-.14-.94c.2-.61.61-1.9.61-1.9l.54-1s.74-.34.27-.61-1.83-1-1.83-1a3.37 3.37 0 01-.4-1.35c-.07-.82 1-1.49-.21-2a3.89 3.89 0 01-1.75-1.28s-.89 0-.95-.68a1.41 1.41 0 01.11-.61 1 1 0 001-.13c.81-.61 1.15-1 1.42-1a2.48 2.48 0 011.42-.13c.81.2.88.47 1.42.13s1-.13 1.49-.88.14-1.08.68-1.15a5.61 5.61 0 001.28-.41l.55-.67a2.11 2.11 0 011.08-1.22c.81-.34 1.69-.61 1.69-.61h.14a3.49 3.49 0 00-.14-.6 3.18 3.18 0 01.07-2c.14-.34.61-1.08.81-1.42a2.81 2.81 0 00.34-1.22c0-.34.34-.47.41-.68a6.12 6.12 0 00.06-.94.71.71 0 00-.2-.82 3.59 3.59 0 00-1.08-.47c-.27-.07-1.22.07-1.22-.54V120c0-.2.68.07.47-.47s-.81-.41-.67-1a5.47 5.47 0 01.47-1.15s-.07-.95.61-1a3.08 3.08 0 001.22-.2c.2-.13.81-.47.27-.95s-.75-.81-1.22-1.15-.27.41-.47-.34-.27-1.28.06-1.35 1 .14.75-.34-.75-1.08-.88-1.35-1.29-.75-1.63-1-.88.14-1-.61 0-1.08-.34-1.35a8 8 0 01-.88-.95s-.29-.2.09-.88 1.06-.53.45-1.14-.22.38-.6-.6a13.1 13.1 0 00-.83-1.74s.15-.68-.31-.83-.83.45-.83-.23a2.19 2.19 0 01.3-1.13v-.83s1.36.6 1.14-.38-.53-1.13-.3-1.59.15-.83.83-1.13.83-.23.9-1.06-.07-1.06.08-1.36.68-1.51.68-1.51.6-.38.6-.68-.22-1.59-.22-1.59-.83-.52-.15-.6a1.51 1.51 0 001.51-1c.38-.83-.38-.46.38-.83s1.13-.23 1.43-.76a5.74 5.74 0 00.53-1.36 7 7 0 00.68-3 14.85 14.85 0 00-.23-2.11l.08-.83-.61-.68-.3-.23-.45-.83s-.3 0 .3-.61a4.37 4.37 0 00.76-.9 7.33 7.33 0 00.75-1.06c.08-.23.91-1.51.91-1.51s.53-.23 0-.83-.83-1.21-1.21-1.29-.83.38-1.06-.15-.45-1.21-.45-1.21l-.26-1.32s.15-.91.53-1.06a4.86 4.86 0 011-.22s.15-.46.76 0a3.74 3.74 0 001.21.6s1.36.45 1.43 0a3 3 0 000-1.43c-.15-.31-.68-1.52-.68-1.52l-.3-1.43a41.16 41.16 0 01-.38-4.16c.08-.75.23-2.57.23-2.57l-.38-1.81s-.23-1.36.46-1.59 1.13-1.36 1.13-1.36l-.3-1.81.07-.83s.83-.61.38-.91-.91-.3-.91-.6-.3-.76.16-.83a1.6 1.6 0 001.2-1 7.64 7.64 0 01.46-1.66c.22-.3.07-.6.53-.68s1.43.08 1.66-.53a6.49 6.49 0 00.3-1.13l.45-.33a.86.86 0 01-.15-.28 3.29 3.29 0 01-.07-.53l.07-.45.23-.68-.45-.91v-.68l.37-.6.53-.38.15-2h.46l.75-.15.23-.46.07-.75z"/></clipPath><style>.cls-1{fill:none}.cls-2,.cls-9{fill:#dbedff;stroke:#b2c5eb}.cls-2{fill-rule:evenodd}.cls-8{fill:#0c308e}.cls-9{stroke-linejoin:round}</style></defs><g id="map"><g id="jpmap"><g id="Group"><path id="Combined-Shape" class="cls-2" d="M207.17 375.5a2 2 0 01.1 1.5 2.29 2.29 0 00.1 1.4c.1.5.9 2.6 2 3.2a15.63 15.63 0 003.4 1.2c.5.1 1.7.3 1.9.1s.5-1.4 1.1-1.6 1.4-.8 2.1-.5a4.51 4.51 0 012 2.1c.1.6.4 1.6-.1 2a5.86 5.86 0 00-1.1.9c-.2.2-.2.5-.5.7s-2.2.9-1.8 1.6a1.52 1.52 0 001.6.9c1-.1.9-.2 1.4-.2s1.6-.2 1.9.1a11.17 11.17 0 011.1 2.2 5.56 5.56 0 00.9 1.7c.5.5 1.4 1.8 1.1 2.4a3.88 3.88 0 00-.6 1.4c0 .4.1.7-.2.9a13.44 13.44 0 00-3.1 3.4c-.9 1.6-3 6.6-3.5 7.8a51.89 51.89 0 00-1.7 6.5c-.2 1.3-.6 4.8-.8 5.5s-.6 2.9-1.1 3.4-.6.9-1.3.8-.8-.5-1.5-.8-1.2-.6-1.6-.4-.8.3-.8.9-.2 3.2-.9 3.7a15.67 15.67 0 01-2.5 2 7 7 0 00-2.3 1c-.5.4-1.1 1-1.1.6s.1-.6-.1-.7-.2-.3.3-.7a6.73 6.73 0 001.6-3c-.1-.7-.3-2.2-.5-3a10.7 10.7 0 01-.5-2.3c-.1-.2-.1-.5-.6-.5s-1.3-.3-1.1-.6a1.7 1.7 0 011-.6c.4 0 .8 0 .8.2s.1.3.3 0 .9-1.2.7-1.6-1-.8-2.2.1-2.5 2.3-2.2 3.7a8.67 8.67 0 001.5 3.2c.4.5 1.1 1.1 1 1.3s-.6 2.1-1.8 1.5a12 12 0 00-3.1-1.4 6 6 0 01-3-1.5c-.4-.5-1-1.3-.4-1.5s2.6-1.2 2.7-2a4.25 4.25 0 00-.4-2.9 6 6 0 00-1.5-1.4c-.3-.1-.5 0-.4-.4a9.63 9.63 0 00.4-2.7c-.2-.8-.5-1.4-.6-1.8s-.7-1.5-.8-2-.3-1.8.2-1.6a7.26 7.26 0 002.2.9 2.48 2.48 0 002.1-1.1c.4-.8 2.1-3.8 2.6-5.1l1.3-3.1s-.6 0-.7.1-.7.1-1 .3-.4.3-.5.2-.1-.4-.3-.1-.5.8-.6.4.4-1.1 1-1.6 1.8-1.4 1.7-2.3a17.79 17.79 0 00-1.7-3c-.4-.7-1.4-2.4-1.7-2.9s-1.5-1.8-2.1-1.5-.8.4-.9 1.1-.2 1.8-.3 2.2 0 .8-.4 1.3-1.2.7-.8.9a7.18 7.18 0 001.7.2 3.65 3.65 0 012 .7 2.09 2.09 0 010 3c-1.1 1.4-2.5 1.7-2.8.9s-.3-1.9-.5-2.3-.2-1.2-1.2-1.1a2.32 2.32 0 00-1.9.9c-.5.6-.8.6-1.5 1.3s-1.1.8-1.4 1.2-.5.7-.3.1a4.68 4.68 0 00.4-2.3c-.3-.6-1.2-2.1-1.6-2.7s-1.4-1.9-1.2-2.5.5-1.4 1.3-1.1a3.81 3.81 0 011.8 1.3 7.49 7.49 0 01.5 1.6c0 .5.1 1.2.3 1.1a1.44 1.44 0 011.1-.3c.6.1 1.2.5 1.1.1a8.27 8.27 0 00-1.3-2.4 7.61 7.61 0 00-2.3-1.8c-.6-.4-3.5-2.3-3.5-3.6s.4-2.1 1.4-2.2 1 0 1 0 2.9-3.5 3.7-2.9.9 1.4 1.3 1.5.6.2 1.1-.4 1.6-2.7 2.2-2.8a3 3 0 011.6.3 1.73 1.73 0 001.7-.4 21 21 0 00.9-3.3s.7-1.7 2-2a10.17 10.17 0 012.2-.5 8.51 8.51 0 002.2-.4c.8-.2 2.3-.8 2.6-.1zm50.8-7a2.4 2.4 0 001.6.4c.4-.1.7-.6 1.2-.2a4.12 4.12 0 001 .6c.3 0 .5.4.7.7a4.56 4.56 0 001.2 1.3 4 4 0 002 .7 4.21 4.21 0 012 .4 1.4 1.4 0 01.4 1.6 2.82 2.82 0 00-.1 2.2c.4.7.9 1.1 1 2s.2 1.9-.3 2.5a5.86 5.86 0 01-1.8 1.4 11 11 0 01-1.4 1.1 11.92 11.92 0 00-1.8 1.5 14.1 14.1 0 00-1.8 2.3c-.4.8-.7 1.7-1 2.3a6.25 6.25 0 00-.4 1.4c0 .4 0 1.1-.1.9a8 8 0 01-1.6-1.9 9.86 9.86 0 00-2-2.8 6.85 6.85 0 00-3.5-1.3 3.63 3.63 0 00-2.8.6 6.31 6.31 0 01-2.1 1.3c-.6.3-2.2.8-2.5 1.4s-.4 2.1-.7 2.5-.9 1.7-1.3 2.2a13.69 13.69 0 00-1 1.4c-.1.2-.9.2-1.2.5s-.3.3-.3.8a7.18 7.18 0 01-.2 1.7 1.9 1.9 0 00-.3.9 2.08 2.08 0 00.1 1.1c.2.4.7 1.3.3 1.2a3.53 3.53 0 01-1.3-.8c-.2-.3-.3-.8-.6-.8a6.3 6.3 0 01-1.3.3c-.6 0-.9-.2-1.5-.2s-1.6-.3-1.4-.5a8.35 8.35 0 001.2-1.6v-.2s.2-.4-1-.4-.9-.4-1.2-.5-1.1.4-1.3.1.1-.9-.2-1.1-1-1.1-.7-1.5.9-.7.9-1.3a2.44 2.44 0 01.4-1.3c.2-.2 1-.7.9-.9s-1.2-1.3-1.6-1.6-1.1-1.2-1-1.7.6-1.3-.1-1.5a3.56 3.56 0 00-1.9.5c-.4.2-.8.5-1.3.8s-1.7.4-1.1.1 1.9-1 2.3-1.3a11.25 11.25 0 012.1-1.2 4.13 4.13 0 001.2-.9c.4-.3.6-.6 1.1-1s1.2-.5 1.6-.9 1.2-.8 1.3-1.1a13 13 0 00.4-2.1 8.41 8.41 0 011-2.2 15.05 15.05 0 011-1.7c.4-.4 1.2-.8 1.5-1.2s.7-1.4 1-1a15.39 15.39 0 01.8 1.9 8.32 8.32 0 001.5 2.3 2 2 0 00.9-.2 4.78 4.78 0 011.8-.6 10.33 10.33 0 011.4-.1c.2 0 1.6.1 1.6.1s2.1-.6 2.5-1.5a5.25 5.25 0 00.2-2c0-.3-.5-1.2.2-1.3s.6.1 1.3-.5.8-1.2 1.3-1.1.7 0 1.2-.5c.4-.1 1.1-.7 1.63-.5zm118.6-145.4c.1-.2.3.2.4.3a1.69 1.69 0 00.6.3 4.23 4.23 0 00.7.5 2.22 2.22 0 00.9.1.89.89 0 01.8.4 9.38 9.38 0 01.9 1.2 3.84 3.84 0 001.5 1 2.8 2.8 0 001.6 0 10.38 10.38 0 001.7-1.2.36.36 0 01.3-.2 3.71 3.71 0 01-.2.9 2.35 2.35 0 01-.2.8c-.1.2-.5 2.4-.5 2.4s-.5.9-.4 1.3 0 2.6 0 3.2.1 4.1.2 4.7a24.73 24.73 0 001.1 4.3c.4.5 1.2 1.2 1.6 1.6s1.4 1 1.6 1.2a6.53 6.53 0 011.1 1.2 10.35 10.35 0 011.1 2 6.93 6.93 0 00.3 2 5.55 5.55 0 00.6.8c.2.2 0 .7 0 1.1a2.69 2.69 0 00.5 1.5c.3.3 1.1 1 1.2 1.4s.5 1.9.6 2.3a7.84 7.84 0 01.2 1.4c0 .4-.3 2.5-.3 2.8s-.2.7 0 .9.7.1.9.3a2.15 2.15 0 01.1 1.6c-.2.5-.3.7-.2 1s.4.7.1 1.2-.9 1.3-1.1 1.7a4.49 4.49 0 00-.6 1.2c0 .5.2 1.2-.1 1.4a2 2 0 00-.8 1c0 .4.1 1.1.1 1.2a.94.94 0 01-.3.7 5.31 5.31 0 01-1.1.9c-.5.3-1-.1-1.1.2s-.3.9-.2 1 0 .5-.3.3-.8-.7-.7-.4-.1.9 0 1.1.4 1 .1 1-.4-.5-.5-.1-.5.2-.6.1-.4-.4-.4-.1a2.77 2.77 0 01-.3 1.3 2.12 2.12 0 00-.4 1.4c.1.5.3.7.2.9s-.3.5-.6.6-.9.4-.6.6.6.2.5.5-.1.6-.2 1a1.22 1.22 0 00.3.9c.3.3.5.5.3.7s-.2-.2-.5.1a1.65 1.65 0 00-.5.9c0 .2-.3.4 0 .7s.5.2.6.4-.1 0 .1.5.3.3.3.8.2 1.5-.1 1.2-.7-.9-1.1-1.1-.9-.4-.6-.5.7-.3.3-.5-.6-.3-.8-.2-.1.2-.4-.1a1.69 1.69 0 00-1.2-.4 2 2 0 00-1.4.6c-.4.3-.6.4-.7.7a.6.6 0 01-.3.6c-.2 0-.3 0-.4-.4s-.2-.6-.5-.5-.6.2-.7.5a10.83 10.83 0 01-.5 1.9 4.11 4.11 0 01-.8 1.3 3.27 3.27 0 00-.9 1.6 9 9 0 00-.4 1.9 12.83 12.83 0 01.1 1.8 10.66 10.66 0 00.7 1.9 2.82 2.82 0 01.5 1.1 15.89 15.89 0 01.4 2.6c.1.8.4 3.4.5 3.9a22.6 22.6 0 01.1 2.6 10.46 10.46 0 01-.4 1.7 4.22 4.22 0 00-.3 1.2c-.2.7-.2 1.3-.4 1.9s-.4 1.7-.6 2.2a3.84 3.84 0 01-.9.9 5.86 5.86 0 00-1.1.9c-.2.2-.3 1.2-.6 1.3s-.6.2-.7.6-.5 1.9-.6 2.3-.4 1.1-.6 1.6-.8.8-.8 1.2-.2.9-.2 1.2a4 4 0 010 1.1.85.85 0 000 .7 1 1 0 01-.2 1.2c-.5.5-1 1-1 1.3a10.87 10.87 0 00-.1 1.8 4.37 4.37 0 00.5 1.5c.1.2 1.2 1.6 1.4 2a15.26 15.26 0 001.1 1.6c.3.5 1.5 2.3 1.6 2.6s.7 1.2.7 1.3.1.3-.2.2a9.4 9.4 0 00-2.4 0 3.82 3.82 0 00-1.6.6 7.61 7.61 0 00-2 2 8.3 8.3 0 00-1.2 2.5c-.1.9-.3 2.8-.4 3.2s-.7 2.7-1.1 2.7a13.55 13.55 0 00-2 .2 4.72 4.72 0 00-1.7.7 12.67 12.67 0 01-1.3 1.1 1.67 1.67 0 00-1.1.9c-.2.5-.4 1.5-.8 1.6s-1.2.2-1.5-.1-1.6-.5-1.2-.9 1-.7 1.1-1.4a13.31 13.31 0 00-.1-2.9c0-.4-.4-1.9-.4-2.1a1 1 0 01.2-.7 7.05 7.05 0 01.9-.7c.3-.1.5-.2.5-.5a5.38 5.38 0 01.9-1.2 8.12 8.12 0 01.9-1c.3-.3 1.3-1.5.8-2a3.12 3.12 0 00-2.1-.9 3.17 3.17 0 00-2 .6c-.4.4-1.2 1.5-1.5 1.8s-.6 1-.9 1.4-.8.9-.6 1.3.8 1.3.9 1.6.4 1.9-.2 2.6-1.4 1.2-1.3.4a4.07 4.07 0 00-.8-2.2 4.8 4.8 0 00-1.9-.9 5.44 5.44 0 00-1.8 0 7.62 7.62 0 00-2 .6 6.38 6.38 0 00-1.4 1 1.25 1.25 0 00-.1.9c.1.4.3.8.1.7s-1.2.6-1.2 1.1a6.05 6.05 0 00.2 1.5 4.37 4.37 0 00.6 1 3.37 3.37 0 01-.8 2.6 17.91 17.91 0 00-1.7 2.9c-.4.5-1.2 1.2-1.7 1s-1.3-.8-1.6-.9-.5-.7-.4-1.3a19.53 19.53 0 00.2-2.3c0-.5-.1-1.2-.1-1.7s.3-1.2.8-1.3 1.3-.4 1.3-.8-.9-1-1.5-1.3a4.77 4.77 0 00-2.7-.2 3.7 3.7 0 00-1.8 1.1c-.3.2-.5.2-.4.7s.5.8.1 1l-1.6.8a2.33 2.33 0 00-1.1.7 5.55 5.55 0 01-.8 1.8c-.4.5-1.3 1.1-1.4 1.6s-.5 1.2-.4 1.6.4 1 .1.9-1.5-.5-2.3-.8a4 4 0 00-2.5-.4 13.89 13.89 0 01-2.3.4c-.6-.1-1.9-.5-2.6-.6a27.58 27.58 0 00-3.8.2 35.76 35.76 0 00-4.1 1.2c-.6.2-2.7.3-2.6 0s.9-1.2 1.2-1 .6.5.8 0a2.7 2.7 0 011.5-1.1c.5-.1.7-.2 1 0s.3-.1.3-.5-.1-1.1-.5-1.3-.9-.5-1.1-.1-.1.7-.6.6a10.11 10.11 0 01-2.3-.4c-.5-.3-.8-.2-1-.5s-.5-1.2-.6-.8a2.05 2.05 0 00-.2 1.6c.2.6.8 1.4.5 1.4s-1.1-.2-1.7-1.3a3.91 3.91 0 01-.4-2.7c.1-.8.3-1.6.3-1.9s0-.5-.3-.5-.3.1-.7.2-.6 0-.9.2a4.62 4.62 0 00-.7.7 4.13 4.13 0 00-.7 1.1c-.2.4-1.5 2.1-1.8 2.7a3.9 3.9 0 00-.2 2.6 6 6 0 002 1.9 9.49 9.49 0 002.1.9c.5.1 1.5.3 1.7.7s.9 1.2.5 1.8a5.51 5.51 0 00-.9 1.4c-.3.4-.7.9-.8.8a3 3 0 00-.8-.7 2.35 2.35 0 00-.8-.2c-.3 0-.5-.4-.7-.1s-.3.7-.9.8-.7.1-1.1.2a1.51 1.51 0 00-.8.4 3.17 3.17 0 01-1.4.5c-.6.2-1.6.4-1.8.9a10.34 10.34 0 00-.3 1.2.68.68 0 01-.6.4c-.4 0-.8.1-.7.4s1.1 1.1.9 1.4-.6.5-.8.8a2.74 2.74 0 01-.4.5c-.1.1-.3 0-.5.3a8.65 8.65 0 01-1 .7 2 2 0 00-.8 1.2 9.75 9.75 0 01-.6 1.4c-.2.3-.1.6-.4.9a3.81 3.81 0 00-.8 1.3 3.57 3.57 0 01-1.2 1.6c-.8.6-1.4 1.5-2.6 1.5a14.18 14.18 0 01-3.8-.8 3.47 3.47 0 01-2-1.7 2.12 2.12 0 00-.7-1c-.2-.1-.7-.4-.3-.5s1.4-.2 1-.5a4.28 4.28 0 00-1.3-.9c-.6-.2-1.2-.2-1.4-.5a3.85 3.85 0 00-1.1-1.6 3 3 0 00-1.3-.4c-.3-.1-.6-.2-.4-.5s.5-.5.4-.8-.8-.2-.3-.5 1.7-.7 1.6-1a.86.86 0 00-.6-.7c-.4-.1-.7.2-.6-.3s.3-1 .5-1 1 0 .9-.4a3.31 3.31 0 00-1-1.5 1.2 1.2 0 01-.3-1.4c.3-.4 1.1-.6 1.5-.9a23.13 23.13 0 002.4-2c.3-.4.7-1.3 1-1.7s.8-.8.8-1.2-.4-.9-.4-1.1-.5-.6-1-.8a4.58 4.58 0 00-2-.1c-.4.2-1.2 1-1.5 1a7.75 7.75 0 01-.9.1 1.18 1.18 0 01.1 1c-.3.4-.7.8-1.1 1.4a9.14 9.14 0 00-.7 1.4 17.17 17.17 0 01-.5 2.6 4 4 0 01-1.3.7c-.5.1-2.5-.4-2.5-.9a3.14 3.14 0 01.5-2c.4-.5 1.7-1.8 1.7-1.8s1.1-1 1.3-1.2.5-.7.8-1a.37.37 0 01-.3-.1 7.43 7.43 0 01-2.7-1.4 3.27 3.27 0 00-1.8-1.1c-.8-.1-3.4-.1-3.6-.2s-.4-.2-.8.1-.5.6-1.5.7a10.35 10.35 0 01-1.8 0c-.5 0-.6.2-.8.6a9.06 9.06 0 01-1.1 1.6c-.4.2-.8.9-1.5.6s-.8-.8-1.1-.6-.8.7-.5.7.8-.1.9.2-.5 1.7-1.4 1.9a10.32 10.32 0 01-2.7.4c-.5-.2-.9-.2-.9-.6s0-.9-.3-.8-.6.1-.9.4-.3.6-.9.7-1.3.6-1.8.3-.5-.4-.7-.2-.6.3-.7.5a1.23 1.23 0 01-1.4.9c-.9 0-.9-.5-1.5-.5a9.3 9.3 0 00-2.4.5c-.4.2-1.8 1.1-2.5 1.4s-2.1.6-2.4.8-.8.8-1.1.9a7.72 7.72 0 01-1.5.2c-.5 0-.6.2-1.2.1s-.6-.8-.8-1.4-.9-1.7-1.8-1.7a2.52 2.52 0 00-1.7 1.2 4.37 4.37 0 00-1 1.5c-.1.5 0 1.3-.2 1.6a1.35 1.35 0 00-.5.9 10.8 10.8 0 010 1.8c-.1.3-.3.9-.6.9s-.8 0-.7.3a3.65 3.65 0 01.3 1.5c0 .4 0 .5-.5.9s-1.4.7-1.2.4.1-.7.5-.7.6.1.6-.3-.6-.9-1.1-1a5.27 5.27 0 01-1.5-.5c-.3-.2-.7-.8-1.4-.8a5.35 5.35 0 00-1.3 0c-.3 0-.5-.2-.4-.4a.63.63 0 00-.5-.9 15.69 15.69 0 00-2.8.4c-.7.2-2.2.3-2.6.4a3.14 3.14 0 00-1.6.6c-.4.3-.5.7-1.3.7a5.28 5.28 0 01-2.2-.8c-.7-.3-.6-.5-1.6-.6s-1.7-.1-1.7-.5.1-1.1-.3-1.3-1-.4-.8-.5.8-.6.8-1a19.58 19.58 0 01-.3-2c.1-.2 1-1.1 1.2-1.4s.6-1.1.9-1.1a1.53 1.53 0 011.3.1 3.72 3.72 0 002 .7 15.52 15.52 0 002.1-.4 6.69 6.69 0 001.9-1.4c.4-.5 1.4-2 1.8-2.5s.9-1.2 1.6-1.3 1.6-.2 2.1-.3a3.29 3.29 0 001.5-1c.5-.6 1.7-1.4 2-1.8a20 20 0 011.6-1.4 14.69 14.69 0 012.2-2.1 8.44 8.44 0 002.3-1.6 14.93 14.93 0 001.2-1.4 13.59 13.59 0 011.7-1.6 12 12 0 002-1.8 9 9 0 01.8-2.1 2.7 2.7 0 011.1-.5c.3-.1.7-.7 1-.7a6.18 6.18 0 001.6-.4 15.47 15.47 0 011.7-.3c.2-.1.7-.5 1.1-.8s.5-.5.9-.4 1.1.4 1.2.6.2.7 0 .9-.8.6-.6 1 .6 1.1 1.2.9a4.8 4.8 0 001.9-.9 4.12 4.12 0 012.3-1.4c.8 0 3 .4 4 .5a9.25 9.25 0 003-.1 7.38 7.38 0 012.4-.3 13.58 13.58 0 002.9-.1 20.92 20.92 0 002.6-1.3 19.64 19.64 0 012.9-1 16.57 16.57 0 013.1.1 8.61 8.61 0 002.1.2c.5-.1.7-.3 1.1-.3a2.7 2.7 0 001.5-.3 10.44 10.44 0 012.4-1.1c.5-.1 2.3-.9 2.8-.5s1 1.4.7 1.6a3.51 3.51 0 00-1 .8c-.3.4-.7 1-.4 1.3a4.43 4.43 0 01.9.7c.5.5.6 1.5 1 1.2s.5-.4.4-.8-.5-.6 0-.8 1.2-.5 1.6-.3.1.5.5.4a1.94 1.94 0 011.5.2c.4.3 1.8 1.1 2.1.9s.9-1.1 1.5-1.3a6.42 6.42 0 001.8-1.3c.3-.3.9-1.4 1.5-1.3s1.3.5 1.5.3.1-1 .4-1.6-.2-1-.5-1.6-1.9-2.2-1.6-2.9a10.55 10.55 0 011.2-2.6 4.35 4.35 0 001.3-1.8c.1-.5.1-1.1.5-1.2a8 8 0 002.2-1.3c.3-.3 2.4-1.9 2.8-2.3a54.07 54.07 0 003.6-4.5c.1-.2.3-.5.5-.9l.3-.8a21.06 21.06 0 001.2-3.8c.3-1.6-.3-2.3-1-3.6a3.13 3.13 0 01-.1-3.1 4.87 4.87 0 013.1-2.7c1.1-.1 2.4-1.1 3.2-1.4s2.4-1.5 3.6-1.1 0 2.1-.4 2.6a3.29 3.29 0 00-.4 1.8c0 .3-1.2.5-1.6.7a13 13 0 00-1.8 1.5c-.3.3-1.2.1-1.7-.1s-.9.6-1.2 1.4.3.9.9 1.2 1.3-.2 1.8-.4.4.8.4 1.6a3.57 3.57 0 01-.7 2.5c-.6.9.5 1.6.5 1.6l.9.5a4.87 4.87 0 001.1.4c1 .2 3 .3 3.5-.3s.8-2.4 1.2-2.7a5 5 0 011.8-.9 24.22 24.22 0 002.4-.5c.5-.2 2-.6 2.6-.9s1.4-.5 2.1-.9a15.77 15.77 0 001.6-1c.3-.3.5-.9 1.1-.9s2.3.1 2.9-.6a32 32 0 012.8-2.6c.6-.3 1.6-.7 1.9-1.3a6.24 6.24 0 011-1.6 14.73 14.73 0 001-1.2c.1-.1.7-1.2.7-1.2.3-.7.8-1.8 1.1-2.5a8 8 0 011.3-2.2 12.68 12.68 0 012-1.6 28.54 28.54 0 013.6-1.9 13.08 13.08 0 003.4-2.7 7.14 7.14 0 00.8-3.1 33.77 33.77 0 011.6-4.8c.2-.4.7-2.2.9-2.6s1.5-1.4 1.7-1.9 1.1-1.5 1.4-2a6.48 6.48 0 00.7-2.1 14.58 14.58 0 01.7-1.9c.1-.4.2-1 .3-1.5s.5-2.5.5-2.9 1.3-1.4 1.6-1.8a3.23 3.23 0 00.3-1.6 5.93 5.93 0 01.4-1.7 8.33 8.33 0 01.4-1.5c.3-.3.2-2.3.2-2.7a3.74 3.74 0 00-.7-1.6 5.23 5.23 0 01-.6-1.6 2.1 2.1 0 00-.8-1.1c-.2-.2-.9 0-1.1.1a9.79 9.79 0 01-1.9.5c-.7.1-1.1-.9-1.2-1.2s.3-.8.4-.8 1.5-.2 2.1-.3 1.4-1 1.7-1.4a10.15 10.15 0 001.1-3.2 14.31 14.31 0 00.1-2.9c-.1-.5-.8-1-1-1.2a3 3 0 01-.4-1 3.75 3.75 0 01.1-1.1v-1.1c0-.2-.4-.3-.8-.5s-.4-.4-.6-.5.5-.7.6-.8.6-.5.8-.7a5.67 5.67 0 00.8-1.3c.1-.3.6-.5.8-.6s.8.2 1.2.4.8-.3.9-.4.8-.2 1-.3.6-.4.6-.5.4-1 .5-1.3.1-.9.2-1.3.2-1.2.3-1.5.2-1.1.2-1.4-.7-.8-.9-.9-.2-.4-.2-.6.7 0 .8 0 .2-.4.2-.6.1-1.1.1-1.3.2-.7.3-.6a2.69 2.69 0 01.9.6 6 6 0 00.8.8c.3.1.7-.2.9-.4a1.21 1.21 0 011-.3c.3 0 .9.5 1.1.7a1.23 1.23 0 01.2 1 5.38 5.38 0 00-.1 1.1s.3 1.3.3 1.4.2 1.5.2 1.8.3 1.3.3 1.5.5.5.8.8a1.18 1.18 0 00.8.1c.3-.1.3-.1.5-.4s.6-.7.8-1 .1-.6 0-1 0-.4.1-.5a3.92 3.92 0 00.4-.9c.1-.3.4.2.6.2a2.12 2.12 0 01.7.3c.1.2.5.7.6.9a2.84 2.84 0 00.9.6 2.7 2.7 0 01.8.7c.1.2.5.2.8 0a2.84 2.84 0 00.8-1.1c.1-.3.7-1.6.8-1.8s.1-1.4.2-1.8.3-.6.4-.9a4 4 0 00-.3-1.5 8.18 8.18 0 00-.8-.9c-.1-.1-.3-.4-.4-.4s-.4.5-.4.7-.3.4-.5.6a2 2 0 01-.8.4c-.3.1-.6.3-.7.3s-.6-.2-.7-.2-.4.1-.5.2a.85.85 0 01-.6.3c-.2 0-.7.1-.9.1s-.6.3-.8.4a3.63 3.63 0 01-.7.3c-.1 0-.3-.2-.5-.3s0-.8 0-1.1a6.15 6.15 0 01.3-1.1 4.91 4.91 0 00.3-1.5c0-.5.3-.6.3-.8a7.07 7.07 0 01.5-1.6 2 2 0 01.8-.8c.2-.2.2-.8.2-1-.7-.2-.5-.3-.4-.5zm-41.9 67.6c.2 0 .2.5.2.9a5.84 5.84 0 01-.4 1.8c-.2.5-1.1 1.5-.8 1.9s.5.5 1 .6 1.1 0 1.2.4a4 4 0 01-1.2 2.9 9.64 9.64 0 01-2.3 1.6 7.68 7.68 0 01-2.4.6c-.3 0-.4-.4.1-.6s.8-.3.8-.8 0-1 .3-1.2.9-.8.5-1.1-.5-.6-.9-.2-.3.9-.6.7a1.61 1.61 0 01-.5-1.1 3.55 3.55 0 01.2-1c0-.3.3-.6.5-.9a11.61 11.61 0 01.9-1.4 5.49 5.49 0 011.1-1.1 5.38 5.38 0 001.2-.9c.3-.3.9-1.1 1.1-1.1zm56-156c1.4-2 2.3 1.2 3.2 2a32.22 32.22 0 013.2 3.2 37.17 37.17 0 003 3.7c3 3 4.4 7.1 7.3 10.3a34.89 34.89 0 003.5 3.2 29.26 29.26 0 004.3 3.4c1.5.9 3.2 1.3 4.7 2.3a9.13 9.13 0 001.3.8 45.29 45.29 0 007.8 3.1c2.9 1.1 5.6 3.6 8.9 3.1s5.5-3.6 7.5-5.9c.7-.8 2.9-3.8 3-1.4.2 3.5-3.8 5.8-4.5 9-.5 2.7 2.3 4.4 2.7 6.9.2 1.1-.3 2.3-.1 3.4a3.16 3.16 0 002.2 2.4 4.12 4.12 0 002.2.1c.7-.2.9-.9 1.2-1.4a3.41 3.41 0 011.7-1.4c.5-.1 1.4-.2 1.5.4s-.8 1.1-1.2 1.4c-1.3 1.1-2.4 2.9-4.2 3.3s-3.6-.1-5.2 1.1c-.8.6-1.2 1.5-2 2-1.5.9-2.1-.7-3.2-.5-.8.1-1 1.2-1.5 1.7-.7.7-2.2.1-3-.2a10.72 10.72 0 00-5.6-.4c-3.1 1-5.5 3.2-7.7 5.4-2.8 2.8-6.1 5.7-7.1 9.7-.3 1.3.4 2.5.1 3.9s-1.4 2.6-1.4 4.2c-3.2-3.7-7.7-5-12-7.2a19.83 19.83 0 01-4.3-2.8 17.27 17.27 0 00-3.2-2c-2.1-1.1-3.9-2.8-6.3-3.5a4.07 4.07 0 00-2.2.2 16.13 16.13 0 00-4.3 2.3c-1.2.8-3.4 5.4-5.3 4.6-.5-.2-.6-.9-.9-1.4a6 6 0 00-.9-1.3 8 8 0 00-2.6-2.9 5.12 5.12 0 00-5.2.5 8.09 8.09 0 00-2.2 4.3c-.3 2.3 1.1 2.3 2.6 3.5 1 .8 1.5 1.5 2.8 1.5 2.5.1 3.4 1 4.9 2.8a7.35 7.35 0 002.2 2.1c1.2.6 2.7 1.3 1.5 2.5-.5.5-1.8 1.6-2.7 1.2a15.34 15.34 0 01-2.1-1.4 4.45 4.45 0 00-2.3-.3c-1.8 0-2.9 1.3-3.9 2.5-.7.8-.6 1.7-.8 2.6-.2.6-1.5 1.3-2 1.7-.3.2-1.6 1.7-1.8 1.7a3.63 3.63 0 01-3.4-3.7c0-1.1.5-5.4 2.2-4.9 0-1.3.5-2.6.1-3.9a5.45 5.45 0 00-1.5-2.4c-.7-.5-1.5-.6-2.1-1.1s-.7-1.1-1.2-1.6c-2.1-2 .2-8 2.1-9.6 2.1-1.8 5.7-2.2 7.5-4.2a7.2 7.2 0 001.7-3.5c.2-1.3-1.2-2.3-2-3.1-1-1.1-1.2-3.6.7-4 2.9-.6 3.5 2.2 5.8 3a4.68 4.68 0 001.7.2c.6 0 1.3-.4 1.8-.3.9.1 1.5 1 2.4 1.1a3.72 3.72 0 003-1.2 6.72 6.72 0 001.9-3.1c.2-1.4-.6-1.8-1-3-.2-.8.2-1.6 0-2.5-.2-1.1-.8-1.8-.6-2.9.3-1.3 1.3-1.6 2.4-2.1a5.37 5.37 0 002.3-1.9.6.6 0 00.1-.4l.1-.1a1 1 0 01-.1-.4 6.64 6.64 0 00.3-1.5c.1-1.6-.1-3.2 0-4.8a13.36 13.36 0 011.1-3.9 28.17 28.17 0 00.7-3.1c.6-2.5 0-5-.5-7.4s-2.7-4.7-2.8-7.3c0-1.6.7-4.5 2.6-5 1.6-.4 2.43-.5 3.1-1.4z"/><path id="Fill-101" class="cls-2" d="M123 394c-.1 0-.1-.2-.1-.3s.1-.3.1-.4-.1-.1 0-.3a.41.41 0 00-.2-.5c-.1 0-.1-.1 0-.2s.1-.2 0-.4-.1-.2 0-.3a.76.76 0 00-.2-.4c-.1-.1-.2-.1-.3-.3a.45.45 0 010-.5c.1-.2-.1-.2-.2-.2a.37.37 0 00-.3.1c-.1.2-.1-.2-.2-.3s-.2-.2-.2-.3-.3-.2-.4-.2-.1-.2-.3-.3-.1-.2 0-.3-.1-.1-.2-.1-.1 0-.2.1-.1.1-.2.1-.1.1-.2.3 0 .3.1.4.2.1.2.2-.1.3-.1.4-.2.4-.4.7-.2.5-.3.6a.37.37 0 01-.1.3c-.1 0-.1.1-.2.3s-.1.1-.2.2a.77.77 0 00-.2.3c-.2.1-.3.2-.3.4s-.1.2-.3.2a1.38 1.38 0 00-.4.3c-.1.1-.1.4-.3.4s-.3 0-.4.1a.44.44 0 01-.5.1c-.2-.1-.2 0-.2.1s.1.1.2.3a.85.85 0 010 .7l-.1.1a1.38 1.38 0 01-.4.3c-.2.2-.6.2-.8.3s-.3.1-.3.2 0 .3-.1.3-.2.1-.2.2 0 .1-.1.2a.45.45 0 000 .5c.1.2.3.1.5.1s.2.1.3.2 0 .1.2.2-.1.1-.1 0h-.3c-.1 0-.2 0-.2-.1s.1-.1 0-.2-.1 0-.1 0-.2.1-.2-.1-.1-.1-.2-.1-.1.1.1.1.1.1-.1.2a2.25 2.25 0 00-.5.5l-.2.2a.31.31 0 01-.2.1 1.74 1.74 0 00-.7.3c-.3.2-.3.1-.5 0s-.2.1-.3.2a.3.3 0 01-.4 0c-.1-.1-.2 0-.3 0a.37.37 0 01-.3-.1c-.1-.1 0-.1 0-.2s-.1-.1-.2-.2-.1-.1-.2-.1h-.2c-.1 0-.1-.1-.2-.1s.1-.1.2-.1.1 0 .1-.1 0-.2.1-.3.1-.3.1-.4.1-.3.2-.3l.3-.3c.1-.1.1-.1 0-.1a1.06 1.06 0 01-.5-.2c-.1-.1-.4-.1-.6-.2s-.1.1-.2.1-.1-.1-.1-.2.1-.2 0-.2a4.33 4.33 0 00-.5-.1c-.2-.1-.3 0-.5.1a2.77 2.77 0 01-.9.1h-.4c-.1 0-.2.1-.3 0s-.3-.1-.4-.1-.1-.1-.2-.2-.1 0-.1.1-.1.2-.1.3 0 .1-.1.2a.37.37 0 00-.1.3c0 .1 0 .2.1.1s.1 0 .2.1.3.3.3.4a.6.6 0 00.1.4c.1.1 0 .1-.2.1s-.2.1-.3.3 0 .5.1.6.2.2.2.3a.37.37 0 00.1.3.76.76 0 01.2.5c0 .2.1.2.3.2.1 0 .1 0 .3.1s.2 0 .3-.1a.31.31 0 00.1-.2h.2c.1 0 .2.1.3.2s.1.2.4.1.2 0 .5.3.7.2.8.3.2.1.2.4a1.45 1.45 0 01-.2.7 1.38 1.38 0 01-.3.4c-.1.1-.1.2-.3.4s-.1.1-.2 0-.1-.1-.2 0l-.3.3c-.1.1-.2 0-.3-.1s-.2-.1-.1.1-.2.2-.2.3c0 .1 0 .2-.2.2s-.1 0-.2.4-.2 0-.4 0a1.69 1.69 0 01-.5.2c-.1 0-.1.1-.1.2s0 .1-.2.2-.2 0-.3-.1a.77.77 0 00-.3-.2c-.1-.1-.2.1-.2.2s0 .1-.2 0-.1 0-.1.1v.1a.1.1 0 01-.1-.1c-.1-.1-.2 0-.3 0s0 .2-.1.3-.1.1.1.4 0 .3-.2.3-.2.1-.2.2a.32.32 0 01-.3.3c-.1 0-.1 0-.2.1a1.44 1.44 0 01-.3.2c0 .1-.2.2-.3.2s-.1.2 0 .3a.19.19 0 010 .3.37.37 0 01-.3.1h-.2c-.1 0-.1.1-.2 0l-.2-.2c-.1-.1-.2 0-.2-.1s0-.1-.1 0a.31.31 0 00-.1.2c-.1 0-.1.1-.3.2a.45.45 0 00-.4.3c0 .1-.1.1-.2.1h-.2a2.18 2.18 0 01-.4-.5c-.1-.2-.2-.2-.3-.2s-.2 0-.1.1a.37.37 0 01.1.3v.8c0 .5.4.9.6 1.3a4.88 4.88 0 01.3.7c.1.3.3.6.3.7a1 1 0 01-.1.4c-.1.1 0 .3.1.4s.1.1.3.1.2.2.2.3v.7a.1.1 0 01-.1.1c-.1 0-.1.1-.2.2s-.2.2-.3.2-.1.2-.2.1h-.2v.2c0 .1-.1.1-.2.2h-.1c-.1.1-.1.1-.2 0s0-.1-.2-.1-.1.1-.2 0-.1.1-.2.2a.31.31 0 00-.1.2c0 .1-.2.1-.3.2s-.1.1-.2.1-.1 0-.2.1-.1.1 0 .2.1.1.1.2v.1c0 .1-.1.1-.1 0s-.1-.1-.2-.2l-.2-.2c-.1 0-.1.1 0 .2a.37.37 0 01.1.3c0 .2 0 .1.1 0s0-.1.1-.1.1.4.2.5.1.2 0 .1h-.2c-.1 0-.2.1-.4.2s0 .2.1.3.2.1.1.1-.1.1-.3-.1-.3-.1-.4-.1-.1-.1-.2-.1a.31.31 0 00-.2.1c-.1.1 0 .1-.1.2s-.1.1 0 .2.1.2-.1.2-.2.1-.1.2a.76.76 0 01.2.4.22.22 0 00.2.2c.1 0 .1.1.1.2v.1c-.1.2.1.2.1.2s.1 0 .1.2 0 0 .2.2l.3.3c.1.1-.1.1-.1.1s-.3.2-.5.2-.1.2 0 .4 0 0 .2 0 .2-.1.2.1.1.1.2.1.1.1 0 .1-.1 0-.1.1 0 .2.1.2 0 .2-.1.4a4.88 4.88 0 00-.3.7c0 .3 0 .7.1.7s.2.1.3.1.1 0 .2.1.1.1.2 0l.2-.2a4.88 4.88 0 01.7-.3c.2-.1.2-.1.4 0s.3 0 .4-.1.1-.2.2-.3h.1a.1.1 0 00.1-.1 3.33 3.33 0 00.3-.6c.1-.2.2-.2.3-.2a.37.37 0 00.3-.1l.1-.1a.76.76 0 00.4-.1c.3 0 .1-.2 0-.2s0-.1.1-.1.3 0 .3.1.2.1.2 0l.2-.2c.1-.1.2-.3.3-.4l.5-.5c.2 0 .1-.1.2-.2s0-.1.1-.1.1-.1.1-.2 0-.3-.2-.3a.37.37 0 01-.1-.3c0-.1.2-.1 0-.2s-.1 0-.3 0a1 1 0 00-.6.2c-.3.2-.3.3-.3.5s-.1.2-.1.1-.1-.1-.1 0-.2 0-.2-.1v-.2s0-.3-.1-.4l-.1-.1a.76.76 0 00-.5-.2c-.2 0-.2-.2-.2-.3s.1-.2.3-.3a1.38 1.38 0 00.4-.3c.1-.1.1-.2.2-.2l.2-.2c0-.1.1-.1.1-.2l.1-.1c.1-.1 0-.2 0-.4s0-.3.1-.4.1-.2.2-.3a.31.31 0 00.1-.2c.1 0 .1-.1.2-.1s.2-.1.3-.1.1-.2.1-.4 0-.2-.1-.2l-.1-.1c0-.1 0-.1.1-.1a.37.37 0 00.3-.1c.2-.1.2-.3.2-.5s.3-.1.4-.1.2.1.3-.1-.1 0-.2-.2-.1-.1-.2-.1-.1-.2 0-.2.1-.2.3-.2.1 0 .2-.1a.31.31 0 00.1-.2 1.44 1.44 0 00.3-.2c.1-.1.1-.1.3.1s.1.2.2.4a3.78 3.78 0 00.7.8c.4.4.4.4.6.4s.2.1.3.2.1.1.2.1 0-.3 0-.4a3.93 3.93 0 00-.2-.6c-.1-.3-.3-.3-.3-.3l-.2-.1h.3c.2 0 .1-.1.1-.1h-.6c-.1-.1-.1-.2-.3-.2a.52.52 0 01-.2-.4c0-.2-.5-.6-.5-.7s0-.4.1-.5a.19.19 0 000-.3l-.3-.3c-.1-.1-.2-.1-.3-.2a.1.1 0 00-.1-.1c-.1-.1-.2-.1-.4-.2s-.3-.2-.3-.3a.35.35 0 00-.1-.2c-.1 0-.1-.1-.2-.2s-.1-.2 0-.2.2 0 .1-.1 0-.1.1-.1h.4c.2 0 0-.2 0-.3a.22.22 0 01.2-.2c.1-.1 0-.2.1-.2s.2-.1.3-.2.2-.1.3-.1.2-.1.2-.1h.3c.1 0 .3.1.4.1s.2.1.5.1.5.2.8.3a.76.76 0 00.4.1c.1 0 .2-.1.3 0s.1 0 .1 0-.1-.2-.2-.2a1 1 0 01.1-.3c.1 0 .2-.1.1-.2s-.1-.2 0-.2 0-.1.1-.2.1-.1.2-.1.2.1.3.1a.19.19 0 00.3 0 .6.6 0 01.4-.1c.2 0 .2-.1.2-.2s.1-.1.3-.1.2-.1.2-.3 0-.3-.1-.3a.77.77 0 01-.2-.3c0-.1 0-.2.1-.2h.1a.31.31 0 01.2.1c.2.1.1-.2.1-.2s.1-.1.2 0 .2.1.5.1.4-.1.3-.3 0-.2.5-.1.2-.2.1-.3 0-.2-.1-.5-.3-.3-.4-.4 0-.2.1-.1.1 0 .2-.1 0-.1.1.2.2.1.2.1.2 0 .2-.1.1-.1.3-.1.1 0 .5.2.3.3.6.5.3.2.2-.1.1-.1.2-.1 0-.1.1-.3.6-.2.8-.3a4.33 4.33 0 00.5-.1c.1 0 .1-.2.1-.4s.2-.1.3-.1.1-.1-.1-.2a.68.68 0 01-.3-.5c0-.1 0-.2-.2-.3s-.1 0-.1-.1a.31.31 0 00-.1-.2c-.1-.1 0-.2.1-.2a1.49 1.49 0 01.6.1q.3.15.3 0c0-.1.2-.2.1-.3s-.1-.2-.2-.3-.1-.2-.2-.4.2-.2.3-.2.2.1.3.1a3.93 3.93 0 01.6.2 4.12 4.12 0 001.2-.1c.1 0 .2-.1.3-.1a.76.76 0 00.4-.1c.3-.1.3-.1.4-.2s.1-.3.3-.4.1-.2 0-.3.1-.1.2-.2.1 0 .2 0 .1.1.1-.1v-.3c0-.1.2-.1.2-.1s.1-.1.2-.1.1-.2.1-.3v-.4a.37.37 0 00.1-.3c0-.1.1-.1.2-.1s.2-.2.1-.2-.1-.1 0-.1.2-.1.2-.2.1-.1-.1-.1-.1 0-.1-.1.1-.2.2-.2.2-.2.2-.3.3-.2.4-.2.1-.2.1-.4.1-.3.2-.3c0-.4 0-.5-.1-.5"/><polyline id="Path-3" points="84.07 378 135.07 378 151.07 427" style="isolation:isolate" stroke="#979797" opacity=".6" fill="none"/><g><path d="M351.6 360.67s-.62-.67-.89-.34a3.1 3.1 0 00-.33 2.1c-.29.89 1.27 1.09 2.16 1.56.8-.45.6-2.94-.94-3.32zm-3.25 8.73c.4-.13.54-.81.54-.81a5.71 5.71 0 00-.88.48s-.07.47.34.33zm.2 3.05l-.48.75-.2.27c.18-.08-.89.84-.54 1.35 0-.1.27.54.95.34a4.92 4.92 0 00.34-1.56c-.07-.4.38-1.89-.07-1.15zm-1.98 2.95l-.27.25c-.16.21.38.52.83-.25 0 0-.37-.31-.56 0z" fill="#dbedff" stroke="#b2c5eb"/></g></g><polygon points="411.72 238.6 318.17 238.6 318.17 306.05 1.07 233 293.07 233 292.26 1 411.72 238.6" fill="#bfdcf8" opacity=".3" fill-rule="evenodd"/><rect id="Rectangle" x="318.17" y="238.6" width="93.56" height="67.45" stroke-width="2" stroke="#0762a4" fill="none"/></g><g><path id="Stroke-151" class="cls-2" d="M184.34 382.31a.37.37 0 01-.4-.28c0-.09-.05-.13-.15-.13a.2.2 0 010-.13c0-.06.08-.1.11-.12s0-.16 0-.16c-.08 0-.22.14-.28.22v.06h-.05a.53.53 0 01-.11-.15v-.05c0-.11.05-.16.06-.2v-.16c-.05-.33-.06-.4.07-.42h-.14a.08.08 0 01-.06 0s0-.08.17-.22l.2.13a.42.42 0 000-.15c0-.14-.08-.31 0-.41s.2-.22.26-.24h.05s.05 0 .1-.13h.28a.45.45 0 01.12.12l.23.09c.26 0 .39.06.41.17a.15.15 0 01-.07.15v.21l-.05.22a2.37 2.37 0 00.52.29v.15a.08.08 0 01-.07 0h-.18a.72.72 0 00-.2.05v.07c.33.09.48.16.49.28s-.06.15-.12.19a.28.28 0 01-.05.2.22.22 0 01-.16.06h-.54a1 1 0 01-.2.4.19.19 0 01-.1.16z"/><path id="Stroke-155" class="cls-2" d="M180.31 365.82h.08a.3.3 0 00.18.05h.06a.75.75 0 00-.17-.1l-.09-.07a.2.2 0 010 .09zM177.9 369a.28.28 0 010-.12.15.15 0 01-.07 0h-.05s.1.12.12.12zm.11 1.56v.11c.06-.09.09-.13.09-.17a.29.29 0 01-.08-.38v-.05h-.11s-.05.08-.05.11a1.16 1.16 0 01.06.26zm.16.44h.27a.29.29 0 00.1.09V371c0-.11 0-.25-.07-.28v-.24c.05 0 .08-.06.08-.09h-.09a.12.12 0 00-.08 0 .07.07 0 00-.06.05v.13s0 .08-.17.28c-.07.08-.1.11-.13.11v.08zm0 .38a1 1 0 00-.07.23v.18a.58.58 0 01.35-.17h.16l.08.05c0-.08-.07-.11-.08-.14h-.26v-.06a.49.49 0 00-.14-.23zm-1.53 4.23v-.32c0-.05-.16-.08-.27-.09s-.29 0-.32-.21v-.3a1.31 1.31 0 010-.32c0-.27 0-.28.06-.36v-.47a1.51 1.51 0 01.07-.45c0-.11.06-.13.09-.14a.66.66 0 010-.48v-.11c.06-.17.06-.18.06-.23V372a2.59 2.59 0 010-.69.62.62 0 000-.13.22.22 0 01.22-.18.32.32 0 01.14 0 .19.19 0 01.17.17 1.6 1.6 0 010 .17.45.45 0 010 .18v.13a.23.23 0 01.14-.18.26.26 0 01.18-.1.1.1 0 01.08 0h.06v.15h.12a.12.12 0 01.11 0h-.06c-.1-.11-.13-.18-.1-.24a.14.14 0 01.12-.07h.05a.37.37 0 01.31.23l.18-.06c-.17-.05-.21-.13-.22-.18a.16.16 0 01.17-.2l.07-.05-.07-.06a.17.17 0 01-.16.13.3.3 0 01-.18-.1.33.33 0 00-.16-.09h-.19a.47.47 0 01-.28-.07v-.27a.12.12 0 01.11-.05.2.2 0 01.16.06.76.76 0 01.23-.22s.07 0 .07-.05a1 1 0 01.09-.62v-.2c0-.1 0-.21.07-.24h.09-.09v-.25l-.11-.16.2-.24c.09-.28.26-.75.34-.75.1 0 .1 0 .1-.07a.18.18 0 01.05-.14v-.05l.05.05s0-.09-.05-.18-.14-.13-.16-.13-.19-.1-.22-.16a.6.6 0 01-.23.07h-.08a.19.19 0 010-.17v-.06a1.81 1.81 0 00.29-.48v-.05c0-.09.15-.42.16-.46 0-.26.06-.41.19-.41a.22.22 0 01.12.05.09.09 0 00.06 0 .7.7 0 01.34-.1.63.63 0 01.23 0s.06 0 .1-.24V365a1.37 1.37 0 01.37-.3.34.34 0 010-.27.26.26 0 01.19-.07h.39a.12.12 0 00.1 0 .2.2 0 01.13-.06h.05a.71.71 0 01.55.47.44.44 0 010 .45h-.06v.05a.29.29 0 01.14.24.63.63 0 01-.27.42h.07c.06.18.08.23.06.25v.31a.34.34 0 010 .09 3.46 3.46 0 000 .36v.06h-.16a.19.19 0 000 .11.08.08 0 010 .07.73.73 0 01-.2.32 1.38 1.38 0 01-.44.5.27.27 0 00-.11.1 3.17 3.17 0 01-.49.58c.06.26.07.32 0 .36h-.19v.1l.1.08c.06.17.07.19.05.26s0 0 0 .05c.13-.07.26-.16.26-.21h.13a.36.36 0 01-.08.35 1.05 1.05 0 00-.14.92v.25h-.18v.06c0 .01.09.14.05.21a.16.16 0 01-.13.08 1.11 1.11 0 00-.14.25h.07c.05 0 .07-.07.11-.14s0-.13.12-.13h.08c.05.49-.21.57-.34.59h-.34l-.07.09v-.08a.62.62 0 00-.13.3.13.13 0 010 .06v.5a.16.16 0 01-.13.1.17.17 0 01-.11-.06c-.05.17 0 .19 0 .21a.31.31 0 010 .18c-.09.06-.08.12 0 .22s0 .05 0 .09a.32.32 0 010 .25.15.15 0 01-.13.08 1.41 1.41 0 01-.12.35.5.5 0 01-.24.37.33.33 0 00-.13.17 1.2 1.2 0 00-.41.33c-.09.1-.14.15-.19.15h-.06z"/></g><g clip-path="url(#clip-path)"><g><path class="cls-8" d="M200.73 32.64l-.15-1.73s-.15-.76-.23-1-.53-.07-.53-.07l-1.13.3-1.4.08-.34-.12a10.08 10.08 0 01-1.25-.1 1.51 1.51 0 01-.79-.64c-.19-.27-.11-.3-.3-.57a1.6 1.6 0 01-.27-.64 2.79 2.79 0 010-.79s.61-2.12.68-2.65-.11-.42-.22-.6-1.14.41-1.14.41a3.22 3.22 0 00-1 .19c-.53.19-.83.83-1.13 1.28s-.12 1.22-.16 1.63-.52.72-.86.79-.46-.3-.76-.3-.53.15-1 .57a5 5 0 01-1.28.68c-.38.19 0 .72-.15 1.28s-.5 0-.76-.19a3.48 3.48 0 00-.76-.41 3.71 3.71 0 00-.9.11.69.69 0 00-.42.46l-.3.22a2.29 2.29 0 01-1.14.64c-.79.23-.9-.07-1-.41a4.68 4.68 0 01-.34-.83c-.16-.57-.16-.08-.42-.12a.87.87 0 00-.34 0 4.78 4.78 0 00-.87-.34c-.6-.19 0 0-.3.19s0 0-.57 0a2.69 2.69 0 00-.79.11c-.49.12-.34.19-.46.31s.27.49.53.75 0 .44-.34.76-.49-.15-.64-.34a.68.68 0 00-.38-.23s-.71-.64-.75-.83.26-.42.26-.64-.68 0-.68 0a2.48 2.48 0 01-.75-.42c-.23-.22-.19-.15-.57-.3s-.26-.34-.41-.76a.41.41 0 00-.5-.3h-.9c-.34 0-.42.27-.8.27s-.22-.38-.37-.72a1.13 1.13 0 010-.87c.08-.3-.15-.3-.56-.6s-.57.34-1.33.34-.45-.5-.75-.72-.23.3-.42.6-.34 0-.83 0-.68.64-.94.95-.15 1.05-.34 1.39-.27.38-.27.38l-1.06.08s-.24-.14-.52-.34a1.12 1.12 0 00-.65-.19l-.6.07a3.43 3.43 0 00-.57.19c-.22.12-.15 0-.37 0a2.51 2.51 0 00-.76.06c-.27.05-.76.45-1 .45a1.65 1.65 0 01-.57-.09c-.17-.06-.11 0-.36 0a2.53 2.53 0 01-.75-.08 1.73 1.73 0 00-.72-.15h-1a4 4 0 00-1.1 0 5 5 0 00-1.45.27c-.83.18-.46-.1-.92-.46s-.18-.45-.27-1.09-.55-.55-1.64-.82-.37.18-1 .64-.37 0-.91.54-.37 1-.37 1l-.18.91c-.18.91-.82-.55-.82-.55s-2 .17-3.15.23c3.86 3.63 5.43 6.33 3.77 13.07-.34.32.5 1.27-.85 2.41a2.32 2.32 0 00-.35 1.15 9.46 9.46 0 01-.15 1.3l-.15 1.51a18.81 18.81 0 00-1.1 2.91c-2 4.18-3.08 7.76-8.23 10.44l-.86-.15a3.86 3.86 0 00-2-1.36c.08-.09-1.23-.18-1.91-.9l-.45-.7c-.36 0-.85.05-.45 2-.42.33 1.29.86 1 1.81-.86 0-.79.76.15 2.66.52.2.91-.49.75 1.75a2.41 2.41 0 00.71 1.26s-.2.65.24.35a1.69 1.69 0 011.16-.4c.54-.5 1.7 1.11 2.86-.25h.39l.45.15c.24 0 1.17-.06.3-1.16v-.5a9.7 9.7 0 011.81-.75c2.9-.69 6.63 3 8.13 6.92v1.22c-.24 2.13.48-.55 1 1.6 0 0 .25.35.1.4-.34.13-.71-.41-.2 1.21l.25 2.26a105.47 105.47 0 01-1.15 15c-.23.73-.69 3.29-1.06 5.11a6.51 6.51 0 00-.15 1.31c-1.06 1.64-.64 6.74-4.86 7.33a10 10 0 00-1.06 3.71 3.25 3.25 0 00.1 3l-.29 2.74c0 .1-.25.84-.55 1.8.4 0 1 .14 1.67.19a5.43 5.43 0 001.62-.07 3.11 3.11 0 011.83 0c1.08.27.81-.14 1.15-.34a1.85 1.85 0 011.42-.34 3 3 0 011.56.81c.27.14.06 1 .06 1.43s1.36.81 1.36.81a8.49 8.49 0 011.35.61 1.43 1.43 0 01.54.61 2.33 2.33 0 01.95.4.74.74 0 00.61.21 8.55 8.55 0 012-.35c.88 0 .41.55.41.55a3.25 3.25 0 00.34 1.08c.27.48 1 .14 1.62.27a5.29 5.29 0 001.49 0c.74 0 .68.34 1.15.68a1.47 1.47 0 001.08.2 2.66 2.66 0 01.68-.81c.34-.2.88.14.88.14a3.48 3.48 0 011.15.27c.34.2.14 1.35.48 1.82s1.08.27 1.28.27a5.13 5.13 0 012.24.55 2.19 2.19 0 01.81 1.69 14.7 14.7 0 01.2 2c0 .68.95 1 .95 1s.61.07.81.41a2.52 2.52 0 01.27.74l.54.14s1.08 0 1.7.07.26.27.54.61-.07.59-.23 1a1 1 0 001-.13c.81-.61 1.15-1 1.42-1a2.48 2.48 0 011.42-.13c.81.2.88.47 1.42.13s1-.13 1.49-.88.14-1.08.68-1.15a5.61 5.61 0 001.28-.41l.55-.67a2.11 2.11 0 011.08-1.22c.81-.34 1.69-.61 1.69-.61h.14a3.49 3.49 0 00-.14-.6 3.18 3.18 0 01.07-2c.14-.34.61-1.08.81-1.42a2.81 2.81 0 00.34-1.22c0-.34.34-.47.41-.68a6.12 6.12 0 00.06-.94.71.71 0 00-.2-.82 3.59 3.59 0 00-1.08-.47c-.27-.07-1.22.07-1.22-.54V120c0-.2.68.07.47-.47s-.81-.41-.67-1a5.47 5.47 0 01.47-1.15s-.07-.95.61-1a3.08 3.08 0 001.22-.2c.2-.13.81-.47.27-.95s-.75-.81-1.22-1.15-.27.41-.47-.34-.27-1.28.06-1.35 1 .14.75-.34-.75-1.08-.88-1.35-1.29-.75-1.63-1-.88.14-1-.61 0-1.08-.34-1.35a8 8 0 01-.88-.95s-.29-.2.09-.88 1.06-.53.45-1.14-.22.38-.6-.6a13.1 13.1 0 00-.83-1.74s.15-.68-.31-.83-.83.45-.83-.23a2.19 2.19 0 01.3-1.13v-.83s1.36.6 1.14-.38-.53-1.13-.3-1.59.15-.83.83-1.13.83-.23.9-1.06-.07-1.06.08-1.36.68-1.51.68-1.51.6-.38.6-.68-.22-1.59-.22-1.59-.83-.52-.15-.6a1.51 1.51 0 001.51-1c.38-.83-.38-.46.38-.83s1.13-.23 1.43-.76a5.74 5.74 0 00.53-1.36 7 7 0 00.68-3 14.85 14.85 0 00-.23-2.11l.08-.83-.61-.68-.3-.23-.45-.83s-.3 0 .3-.61a4.37 4.37 0 00.76-.9 7.33 7.33 0 00.75-1.06c.08-.23.91-1.51.91-1.51s.53-.23 0-.83-.83-1.21-1.21-1.29-.83.38-1.06-.15-.45-1.21-.45-1.21l-.24-1.32s.15-.91.53-1.06a4.86 4.86 0 011-.22s.15-.46.76 0a3.74 3.74 0 001.21.6s1.36.45 1.43 0a3 3 0 000-1.43c-.15-.31-.68-1.52-.68-1.52l-.3-1.43a41.16 41.16 0 01-.38-4.16c.08-.75.23-2.57.23-2.57l-.38-1.81s-.23-1.36.46-1.59 1.13-1.36 1.13-1.36l-.3-1.81.07-.83s.83-.61.38-.91-.91-.3-.91-.6-.3-.76.16-.83a1.6 1.6 0 001.2-1 7.64 7.64 0 01.46-1.66c.22-.3.07-.6.53-.68s1.43.08 1.66-.53a6.49 6.49 0 00.3-1.13l.45-.33a.86.86 0 01-.15-.28 3.29 3.29 0 01-.07-.53l.07-.45.23-.68-.45-.91v-.68l.37-.6.53-.38.15-2h.46l.75-.15.23-.46.07-.75z"/><path class="cls-8" d="M182.32 143.59c-.47-.28-1.83-1-1.83-1a3.37 3.37 0 01-.4-1.35c-.07-.82 1-1.49-.21-2a3.89 3.89 0 01-1.75-1.28s-.89 0-.95-.68a1.41 1.41 0 01.11-.61c.16-.42.41-.78.23-1s.06-.55-.54-.61-1.7-.07-1.7-.07l-.54-.14a2.52 2.52 0 00-.27-.74c-.2-.34-.81-.41-.81-.41s-.95-.33-.95-1a14.7 14.7 0 00-.2-2 2.19 2.19 0 00-.81-1.69 5.13 5.13 0 00-2.24-.55c-.2 0-1 .21-1.28-.27s-.14-1.62-.48-1.82a3.48 3.48 0 00-1.15-.27s-.54-.34-.88-.14a2.66 2.66 0 00-.68.81 1.47 1.47 0 01-1.08-.2c-.47-.34-.41-.68-1.15-.68a5.29 5.29 0 01-1.49 0c-.61-.13-1.35.21-1.62-.27a3.25 3.25 0 01-.34-1.08s.47-.55-.41-.55a8.55 8.55 0 00-2 .35.74.74 0 01-.61-.21 2.33 2.33 0 00-.95-.4 1.43 1.43 0 00-.54-.61 8.49 8.49 0 00-1.35-.61s-1.36-.41-1.36-.81.21-1.29-.06-1.43a3 3 0 00-1.56-.81 1.85 1.85 0 00-1.42.34c-.34.2-.07.61-1.15.34a3.11 3.11 0 00-1.83 0 5.43 5.43 0 01-1.62.07c-.65 0-1.27-.14-1.67-.19-.2.61-.42 1.33-.66 2-6.22 22.53-4.66 16.37-15.92 33.05-.39.88-1.09 2.36-1.54 3.28.65.73 1.86 2.07 2.14 2.31a.72.72 0 00.85 0 5.14 5.14 0 011.12.2c.33.13.46.52 1 .91s1.18-.06 1.51-.06a3.54 3.54 0 011.18.53 2.81 2.81 0 011 .65c.39.4 0 .53 0 .53l-.27.65s.07.4.14 1.84a7.78 7.78 0 01-.4 2.69 6.7 6.7 0 000 1.18c.07.6.66 0 1.18 0s.14 1 .14 1a9.82 9.82 0 00.91 1 5.34 5.34 0 001.25.53 1.89 1.89 0 001.25-.07 9.33 9.33 0 011.31 0 7.05 7.05 0 00.79.79 14 14 0 011.25 1c.19.26 1.45.86 2 1.78s-.52 1.91-.52 1.91l-1.12 1.9a5.51 5.51 0 01-1 .59 13.65 13.65 0 00-1.57 1.05 11.59 11.59 0 01-1.38 1c-.59.32-.59-.07-.92-.14s-.52.07-1.31.07-.4-.13-1.25-.4a1 1 0 00-1.18.6s-.79 1.24-.85 1.44a11.17 11.17 0 00.19 1.31c0 .33.2 1.58.27 2.23a2 2 0 01-.66 1.52 1.69 1.69 0 00-.39.91s.59.6.59 1a5.9 5.9 0 01-.2 1.12 10.52 10.52 0 01-.66.85 1.62 1.62 0 01-.74.24l-.3.9v1.41l-.3.61v1.51l.41 1a2.25 2.25 0 01-.91 1.31c-.81.6-.2.8-.2 1.51a16.82 16.82 0 00.28 2.17l1.91 1.91.91.91a5.05 5.05 0 011.61-.1l.51.5.4.61s.16-.19.22.21a1.3 1.3 0 00.9-.37c.61-.6 1.21-1 1.67 0a3.94 3.94 0 001.05 1.52l1.67-1.21s.45-.91 1.21 0a2.17 2.17 0 001.51.9s2.11-1.05 2.57-.45 1.81 1.06 2 1.81.15 2 1.06 1.66l1.81-.6s.61-.45 1.51.3 2.57 2 2.57 2a6.38 6.38 0 011.36-.61c.91-.3.46-.75 2.27-.45s2.72.76 3.17 0a17.54 17.54 0 012.12-2.27l.75-1.05a2.7 2.7 0 00-.6-1.21l-.45-.46v-4.83c0-1.06.45-2 .45-2.87v-1.67s0-.18-.07-.43a2.65 2.65 0 01.22-1.53 4.22 4.22 0 00-.15-2.57l.15-1.21 1.21-.3c.6-.15 2.27.75 3.47-.15s1.82.15 2.12-1.06.45-2.27.45-2.27a3.63 3.63 0 001.52-1.66c.75-1.36 1.51-3 1.51-3a11.22 11.22 0 01-.15-2 13.36 13.36 0 00-.16-2.11V178l.14-.67a1 1 0 00.88-.54 4 4 0 00.2-1c.07-.34-.41-.75.47-1.09s1.36.54 1.22-.81a17 17 0 01-.13-1.83c0-.27.2-.4.54-.61s.61-.94 1.15-1.35.81-.14.88-1.08.07-1.76.07-1.76.07-1.09.41-1.16 1.08.21 1.21-.67a4.5 4.5 0 00-.07-1.49c0-.48.41-.54-.33-1.22a9.07 9.07 0 01-1.36-1.22c-.2-.33-.06-.61-.27-1.15s-.61-.61-.54-1.08a6.32 6.32 0 01.54-1.56c.27-.61.61-.81.2-1.82a29.29 29.29 0 00-1.35-2.71s-.47-1.42.14-1.36a4.84 4.84 0 011.49.61s.6.61 1.08-.34 1.08-1.21 1.15-2.36a3.63 3.63 0 00-.2-1.7.91.91 0 01-.14-.94c.2-.61.61-1.9.61-1.9l.54-1s.69-.33.22-.6z"/><path class="cls-9" d="M203.3 230.54a3.65 3.65 0 01-.08-1.36v-1.05l-.45-.46c0-1.2-.09-5.61-.15-7.78 0 0-.23-1.81-.31-2.12a7.54 7.54 0 01-.15-3.47 11.76 11.76 0 00-.15-2l-.75-1.13c.07.14-.42-1.58-1.59-1.44l.15-1.43c.31-.15-1.16.16-.83-1.29l-.15-.37-.38-1.14a15.69 15.69 0 01-1.07-4.1 18.11 18.11 0 00-3.25 1.58c-.39.43-.09 1.49-.09 1.49a6.73 6.73 0 01-.2 1 15.53 15.53 0 00-.14 2.37 2.54 2.54 0 01-.2 1c-.19.53-.48.19-1.59.19s-.77 0-1.35-.29-.72-.19-1 .15.34.43.77.77.1.63.1.63-.92-.29-1.74-.58-1.16.19-1.69.19-.05-.58-.1-.87-1-.48-1.4-.91a2.64 2.64 0 01-.67-1.07 3.18 3.18 0 010-1.68c.09-.39.33-.68.19-1a1.41 1.41 0 01-.1-1c.1-.19-.19-.53-.77-.77a6.61 6.61 0 00-1.59-.48 2.08 2.08 0 01-1.45-.77c-.39-.53-.68-.15-.87 0s-1-.1-1.54-.44-.44.1-.58.34-1.69.29-1.69.29-1.5.1-2.27.1-.82-.92-.82-1.21.05-.77.09-1.26-.67-.57-.67-.57l-1.69-.49s-.68-.43-1.11-.77-.77.63-1.11.92-1.06 0-2.12 0A3.34 3.34 0 01165 198a15.6 15.6 0 01-1.66-.89c0 .25.07.43.07.43v1.67c0 .9-.45 1.81-.45 2.87v4.83l.45.46a2.7 2.7 0 01.6 1.21l-.75 1.05a17.54 17.54 0 00-2.12 2.27c-.45.76-1.36.3-3.17 0s-1.36.15-2.27.45a6.38 6.38 0 00-1.36.61s-1.66-1.21-2.57-2-1.51-.3-1.51-.3l-1.81.6c-.91.31-.91-.9-1.06-1.66s-1.51-1.21-2-1.81-2.57.45-2.57.45a2.17 2.17 0 01-1.51-.9c-.76-.91-1.21 0-1.21 0l-1.67 1.21a3.94 3.94 0 01-1.05-1.52c-.46-1-1.06-.6-1.67 0a1.3 1.3 0 01-.9.37 1.29 1.29 0 010 .34c-.1.5-.71.7-2.12 1.61a6.26 6.26 0 00-2 2s-.2.8-.5 1.81-.61.5-1.32 1.31-.1.91.11 1.61-1.11.5-1.11.5l-.61 1-.8.1s-1 .61-1.51 1-.31 2.22-.31 2.52.51.6.71 1.11a3.8 3.8 0 01.5 1.51c0 .6.1 1.61.1 2.11s.51.81.81 1.21-.1.51-.1.51a7 7 0 01-1 .8c-.6.41-.7 0-1.11-.4s-1.21-.2-1.21-.2a5.85 5.85 0 01-1 .1h-.51a1.59 1.59 0 01-1.21.5c-.8 0-.5-.4-1.21-.7s-1 .2-1.51.2-.5.91-.5.91v1.61c0 .6-.2.8-1.11.7a10.05 10.05 0 01-1.81-.4l-.91.61a10.58 10.58 0 00-1.41-.11c-.71 0-1.41.61-2.42.91s-.91 0-1.91 0-.81 1.11-.81 1.11a4.83 4.83 0 00-.6 1.61c-.21 1 .8.81 1.31 1s.2.5.4.8a3.09 3.09 0 01-.5 2.12c-.41.6-.21.4-.1 1.41s0 .91-.51 2.22-.3.7-1.81 2.42.5 3 .8 3.62.61.2.61.2l.8-.2c.41-.1.71.91.71.91a5.83 5.83 0 01.7 1.71c0 .51-.4 2.22-.4 3.83v1.71c0 .71.5.81.71 2.32a3.68 3.68 0 01-.31 2.32 10.2 10.2 0 01.41 1.51 6.86 6.86 0 01-.71 2.21c-.2.46-.42.57-.62.55 0 .22.11.42.52.46.91.1 1.51 0 1.81.1a3 3 0 01.71.41 8.26 8.26 0 001.91.4c.71 0 0-.6.71 0s.9.4 1.41.6l.5.2 1 .23a1.47 1.47 0 01.62-.72l.74-.42a1.27 1.27 0 00.64-.42 11.84 11.84 0 011-1.07l.74-1.27a5.26 5.26 0 001-.11 4.18 4.18 0 011.38.11 6.46 6.46 0 011.59-1.28c1-.52 1.38-1.16 2.34-1.48s1.49.32 2-.43.31-1.16 1.06-1.27.53-.32 1.38-1a6.31 6.31 0 012.23-1.06c.74-.21.32-.53 1.38-.53s1.17.32 1.7-.32.53-.74 1.27-.63a11.56 11.56 0 001.38.1 1.76 1.76 0 00.11-.74v-1.17a8 8 0 012.23-1.7 6.47 6.47 0 012.12-.42h1s-.21-.21 1.06-.21a11.12 11.12 0 011.8.1l1.49.75 2.33.42a4.13 4.13 0 011.6.53 5.6 5.6 0 011.48.21 2.56 2.56 0 011.07.75l.95.31a2 2 0 00.74 1.49 19 19 0 011.6 1.06 2.18 2.18 0 01.42 1l.53 1.17a.62.62 0 00.64.74 14.59 14.59 0 001.59-.11v1.07a3.83 3.83 0 00-.1 1.8 5.64 5.64 0 01.21 1.38l.32 1v.7a1.78 1.78 0 011.47.19c.76.61 1.81 1.21 2.12 2a4 4 0 001.05 1.36l1.36.45.31 1.51a3.61 3.61 0 00.9.91 4.32 4.32 0 001.82.75 1.26 1.26 0 01.9.61l1.06 1.36s.3.3.91-.3.3-1.21.9-1.36a3.15 3.15 0 001.21-.76s-.45-.91.91-1.51 1.36-.15 2-.91a2.93 2.93 0 00.6-1.66l-.76-1.36s-.3-1.51.31-1.51 1.51 0 1.51.75.9 1.36.9 1.36a2.13 2.13 0 001.21.61 3.64 3.64 0 011.82.45c.45.31 1.05-.15 1.21.76s.3.91 1.2.91a29.49 29.49 0 013.64-.26 3.14 3.14 0 013.35-3l1.29-1.28a11.7 11.7 0 001.39-.45l.45.45.39-.4 2.06-1.61a1.21 1.21 0 01.28-1.06c.27-.69.5.19.62-1.57l-.23-.61-.05-.5c.17-1-.75-4.23 1.28-5.42.18-.8.06-.53.06-3a27 27 0 01.09-4.82c.31-.4 0-1.51.6-3.93-.08-.8.87-.05.68-2.72a4.18 4.18 0 01.3-2.27c.16-.88.17-.94-.22-3.18.07-1.28.3-3.4.3-3.4zm34.36-201.39l-.51-.6c-.05-.06-.07 0-.9-.94-.52-.4-1.17-1.64-2.23-2.74-.49-.27.14-.49-.89-.9-.14.05-1.07-.45-1.55-1.92.29-.5-1.46 1.82-1.23 1a2.4 2.4 0 01-.9-.39c-.69-.38 0-.34.08-.46s.23-.66-.6-.6a2.3 2.3 0 00-.72-.13l-.17-.13c-.12.09-.22-.57-1-1.24-.92-.95-1.31-3.21-2.1-5.18-.44-1.52-.91-3.7-1.49-6.62C223 5.44 222.34.72 222-2.16c0-.2.06-1.26 0-2.39-.09-.32.06-.14-.51-.64-.09-.27 0-.19.13-.39h.3a47.56 47.56 0 01.08-7.95 29.62 29.62 0 000-8.17l.43-2.35a85.09 85.09 0 012.43-11.29 4.19 4.19 0 00.77-2.69 5.67 5.67 0 00.21-1.07l.35-.39-.3-.64-.39.17s-1.06 1.11-1.2 1.2a2.83 2.83 0 00-.38.6c-1.81 3.29-8.74 5-12.31 1.07-2.79-2.55-4.26-7.28-10.1-7.1-.26-.15-1.68-1.58-3.25-2.74l-1-.47c.14.26-.78-.59-.86.81.42 1.9-1.18 5-3.59 7.17l-.35 1.16a26.41 26.41 0 01-.34 3.82 4 4 0 00-1 2.71c-.57.63-.17 2.37-1.21 4.21a3.26 3.26 0 010 2.11c-.32.51 0 .08-.5 1.41-.2.25-.45.1-.4.6 0 .72.07.1.15 2.81.1.45.15.75.15.75 0 .19.77.6 2 1.11.81-.59 1.71-2.47 4.36-2.77 0 0 .71 0 .86-.19.34-.25.44-.35 2.21-.61.35-.25.44-.65.95-.95.63.07.66-1.42 3.06.15 2.05.71 4-1.16 6.82-3.81.1-.83-1.87.53 0-1.91 2.17-2.15 5.82 3.33 6.67 7.48l-.1.95a32.65 32.65 0 01-1.8 3 8.1 8.1 0 000 2.56c-.44 2.09.32 1.4-.9 5.52a13.48 13.48 0 01-4.07 7.63 3.19 3.19 0 01-2 .85l-.56-.45s-.47-.55-1.45-1.91l-.61-.65c-.73.18-2.2-1-3.76-1.56-1.59.3-.13-.92-1.55-2.46l-.56-.7-.25-.8-1.15-.15h-.4c-.19.12.09-.7-1.81-1l-.3.05-.05.81-.5.5c-.47.32.56.16-.3.9a3.32 3.32 0 01-.12 1.42c-.79-.1-.71 1 .25.5l.2.25a5.92 5.92 0 00-.1 1.2s-.05.36-.1.66c0 .6.67.34-.3 1.4-.1.35.05.75-.2.9-.25.36-.31-.32-1.21 1.36-1.85 2.35-6.45 5-8.58-2.51-.65-4.55-1.72-9.79-1.9-15.5-.13-.9 1.12-4.21-.81-5.37a7.67 7.67 0 00-1.2-1.31l-1.4-.6a2.56 2.56 0 00-1.56.25c-.2.05-.65.2-.65.2-.84 0-1 2.61-3.26 2.61l-.76-.4a15.65 15.65 0 01-2.05-1.71l-.76-.8c-.2-.05.21-.37-1.65-1.8-1.11-1-2.07.62-2 3.06-.15.7.48 1.18-.3 3.71l-.45.4-.21.33c-.17.14.06 1.19-1.21.45h-1.45s-.4-.35-.45.05-.23.75 1.35 1.06a3.39 3.39 0 01.85.4c.81.51 1.82 1.69 1.46 4.71.22.3 1.1.14 3.11.61h.8s.51-.3.66.1c.16.62.49 1.18-1.56.85-1.17 1.3-1.38 3.2-2.66-.6-.78 0-.3 2.58-.65 4.51C164.64-4.47 164 1.85 161.1 5c.15-.24-.83.84-2 .35-.4.2-1.31.7-1.31.7-.76.74-2.11 3.89-5.36.8.08-.22-1.73-.71-2.41.91.12.29-1.21-.61-1.76 1.4a14.79 14.79 0 01-1.6 3.46c.05.31-2.15.36-2.11 2.06L144 15c-.48-.27-.85 1.09-2.16 1.86-.5 2.21 1.42 1.23 3.26 3.26a8.87 8.87 0 01.7 6.72 5.21 5.21 0 00-.41 2.89l.1.09c1.18-.06 3.15-.23 3.15-.23s.64 1.46.82.55l.18-.91s-.18-.46.37-1 .27-.09.91-.54-.09-.92 1-.64 1.55.18 1.64.82-.18.73.27 1.09.09.64.92.46a5 5 0 011.45-.27 4 4 0 011.1 0h1a1.73 1.73 0 01.72.15 2.53 2.53 0 00.75.08c.25 0 .19-.06.36 0a1.65 1.65 0 00.57.09c.28 0 .77-.4 1-.45a2.51 2.51 0 01.76-.06c.22 0 .15.1.37 0a3.43 3.43 0 01.57-.19l.6-.07a1.12 1.12 0 01.65.19c.28.2.52.34.52.34l1.06-.08s.08 0 .27-.38.07-1.09.34-1.39.45-.87.94-.95.64.27.83 0 .12-.83.42-.6 0 .72.75.72.91-.64 1.33-.34.64.3.56.6a1.13 1.13 0 000 .87c.15.34 0 .72.37.72s.46-.27.8-.27h.9a.41.41 0 01.5.3c.15.42 0 .61.41.76s.34.08.57.3a2.48 2.48 0 00.75.42s.68-.23.68 0-.3.45-.26.64.75.83.75.83a.68.68 0 01.38.23c.15.19.32.66.64.34s.61-.49.34-.76-.64-.64-.53-.75 0-.19.46-.31a2.69 2.69 0 01.79-.11c.57 0 .27.15.57 0s-.3-.38.3-.19a4.78 4.78 0 01.87.34.87.87 0 01.34 0c.26 0 .26-.45.42.12a4.68 4.68 0 00.34.83c.11.34.22.64 1 .41a2.29 2.29 0 001.14-.64l.3-.22a.69.69 0 01.42-.46 3.71 3.71 0 01.9-.11 3.48 3.48 0 01.76.41c.26.23.64.76.76.19s-.23-1.09.15-1.28a5 5 0 001.28-.68c.49-.42.72-.57 1-.57s.42.38.76.3.83-.37.86-.79-.15-1.17.16-1.63.6-1.09 1.13-1.28a3.22 3.22 0 011-.19s1-.6 1.14-.41.3.07.22.6-.68 2.65-.68 2.65a2.79 2.79 0 000 .79 1.6 1.6 0 00.27.64c.19.27.11.3.3.57a1.51 1.51 0 00.79.64 10.08 10.08 0 001.25.11l.34.12 1.4-.08 1.13-.3s.45-.15.53.07.23 1 .23 1l.15 1.73.37 1.67-.07.75-.23.46-.75.15h-.46l-.15 2-.53.38-.37.6v.68l.45.91-.23.68-.07.45a3.29 3.29 0 00.07.53.86.86 0 00.15.28 4.63 4.63 0 00.76.71.52.52 0 000 .68 3 3 0 001.43.6c.46.08.46.45 1.21.08s.76-.61 1.14-.83a4.39 4.39 0 011.03-.49 1.6 1.6 0 01.91-.83c.61-.15.83.68 1.14-.23a3.53 3.53 0 00.3-1.36c0-.3-.3-.38.22-.76a5.48 5.48 0 011.14-.53 5.42 5.42 0 012.57-1.13c1.13 0 .75.08 1.81-.53s.76-.83 1.59-1.21 1.21-.75 1.66-.9.53.22.76-.31 1.13-1.51 1.58-1.43.76.23 1 1a2 2 0 001.13 1.51c.53.15.75-.3 1.28-.83s.15-.91.91-1.06a3.18 3.18 0 011.13-.07c.38 0-.22-.15.61-.46s1.13-.6 2.19-.15 1.74.83 1.74.83 0 .84 1.13.68.68-.6 1.51-.83 1.59-.53 1.51-1.36-.15-1.43.61-2a8.6 8.6 0 011.58-1l.68-.15s1.23-.18 2.78-.43z"/><path class="cls-9" d="M257.75 90.78v-.71l-.4-.8-1.35-.61-.6-2.72-.11-1.61-.4-.71-.7 1.11-1.11 1.51-.5 1.11-.58.65-.4-.81.8-1.21.21-1 .1-1.41.6-.5v-.81l-.2-1.51v-1.16a25.11 25.11 0 00.7-3.62l.51-.81-.71-1a13.76 13.76 0 00-.2-2.83c-.17 0 .4-.39-.8-1.61l.2-.9-.31-.91-.9-.81a4.43 4.43 0 00-.2-1.31c.27-.34-1.25-.82.3-2.21a22.72 22.72 0 00.3-3l-.71-.9-1.08-.71-.76-.75a25.75 25.75 0 01-2.11-2.12c-.75-.42-4.12-3.17-1.27-5.59 0-.41.7.68 1.28-.42-.28 0 .76-.36-.51-1.54a7.48 7.48 0 00-1-1.07l-1-.43c-1.46 0-2.38-1.86.26-2.87-.16 0 .58-.34 0-1.11a23.34 23.34 0 00-1.58-3.93c-2.07-2-1.86-5.57-4.58-8.55a4 4 0 00-1-1.14c-1.55.25-2.78.43-2.78.43l-.68.15a8.6 8.6 0 00-1.58 1c-.76.61-.68 1.21-.61 2s-.68 1.14-1.51 1.36-.38.68-1.51.83-1.13-.68-1.13-.68-.68-.37-1.74-.83-1.36-.15-2.19.15-.23.46-.61.46a3.18 3.18 0 00-1.13.07c-.76.15-.38.53-.91 1.06s-.75 1-1.28.83a2 2 0 01-1.13-1.51c-.23-.75-.53-.91-1-1s-1.36.9-1.58 1.43-.31.16-.76.31-.83.52-1.66.9-.53.61-1.59 1.21-.68.53-1.81.53a5.42 5.42 0 00-2.57 1.13 5.48 5.48 0 00-1.14.53c-.52.38-.22.46-.22.76a3.53 3.53 0 01-.3 1.36c-.31.91-.53.08-1.14.23a1.6 1.6 0 00-.91.83 4.39 4.39 0 00-1.05.38c-.38.22-.38.45-1.14.83s-.75 0-1.21-.08a3 3 0 01-1.43-.6.52.52 0 010-.68 4.63 4.63 0 01-.76-.71l-.45.33a6.49 6.49 0 01-.3 1.13c-.23.61-1.21.46-1.66.53s-.31.38-.53.68a7.64 7.64 0 00-.46 1.66 1.6 1.6 0 01-1.2 1c-.46.07-.16.52-.16.83s.46.3.91.6-.38.91-.38.91l-.07.83.3 1.81s-.46 1.14-1.13 1.36-.46 1.59-.46 1.59l.38 1.81s-.15 1.82-.23 2.57a41.16 41.16 0 00.38 4.16l.3 1.43s.53 1.21.68 1.52a3 3 0 010 1.43c-.07.45-1.43 0-1.43 0a3.74 3.74 0 01-1.21-.6c-.61-.46-.76 0-.76 0a4.86 4.86 0 00-1 .22c-.38.15-.53 1.06-.53 1.06l.23 1.51s.23.68.45 1.21.68.08 1.06.15.68.68 1.21 1.29 0 .83 0 .83-.83 1.28-.91 1.51a7.33 7.33 0 01-.75 1.06 4.37 4.37 0 01-.76.9c-.6.61-.3.61-.3.61l.45.83.3.23.61.68-.08.83a14.85 14.85 0 01.23 2.11 7 7 0 01-.68 3 5.74 5.74 0 01-.53 1.36c-.3.53-.68.38-1.43.76s0 0-.38.83a1.51 1.51 0 01-1.51 1c-.68.08.15.6.15.6s.22 1.29.22 1.59-.6.68-.6.68-.53 1.21-.68 1.51 0 .53-.08 1.36-.22.76-.9 1.06-.61.68-.83 1.13.07.61.3 1.59-1.14.38-1.14.38v.83a2.19 2.19 0 00-.3 1.13c0 .68.38.08.83.23s.31.83.31.83a13.1 13.1 0 01.83 1.74c.38 1 0 0 .6.6s-.07.46-.45 1.14-.09.88-.09.88a8 8 0 00.88.95c.34.27.2.61.34 1.35s.67.41 1 .61 1.49.68 1.63 1 .61.88.88 1.35-.41.27-.75.34-.27.61-.06 1.35 0 0 .47.34.68.68 1.22 1.15-.07.82-.27.95a3.08 3.08 0 01-1.22.2c-.68.07-.61 1-.61 1a5.47 5.47 0 00-.47 1.15c-.14.54.47.41.67 1s-.47.27-.47.47v1.83c0 .61.95.47 1.22.54a3.59 3.59 0 011.08.47.71.71 0 01.2.82 6.12 6.12 0 01-.06.94c-.07.21-.41.34-.41.68a2.81 2.81 0 01-.34 1.22c-.2.34-.67 1.08-.81 1.42a3.18 3.18 0 00-.07 2 3.49 3.49 0 01.14.6 18.14 18.14 0 012-.12c.95 0 .88 0 1.29.47a1.86 1.86 0 00.81.68 3.06 3.06 0 01.94.67c.41.41.14.54.68.54s.95-.33 1.15.07-.06.54.48.68.88-.2 1.35.13 1 .41 1.35 1 .34.88.75 1.29.13.54.81.47 1-.74 1.29-.68.2.28.67.41a3.49 3.49 0 00.88.14 2.06 2.06 0 00.68 0c.41-.07.41-.21.95-.27s.2-.21.88-.07l1 .2s.61-.41.88 0 .88.54.82 1.08a4 4 0 01-.88 1.43l-1.09.54s-.33.33.21.61.4.54 1 .81.41.4.41.81-.07 1 .34 1 .47.13.74.27.61-.07.88 0a5.77 5.77 0 011.08.67 1.56 1.56 0 01.48.68c.07.34.13 1.08.68.95s.47-.48.81-.54.81.06 1.08-.55a9.57 9.57 0 00.47-1.48s-.2-.54.54-.54.88.13 1.09 0 .47-.07.47-.61.2-2 1-1.16.07.88.74.88.41-.27 1-.06a9.84 9.84 0 011.29.74c.27.14.47-.2.81.14a4.94 4.94 0 00.81.61c.2.13.88 1 1.08.13a5.51 5.51 0 00.14-1.62 2.12 2.12 0 00.74-.2c.48-.21.55-.14.48-.75s-.34-1-.07-1.42l.27-.41a.39.39 0 00.14-.61c-.27-.4-.54-.54-.48-1a1.63 1.63 0 01.81-1c.28-.13 1.09-.68 1.09-1.28v-1.7a9.58 9.58 0 01.2-1.89s-.34-.95-.4-1.22-.34-1.15.27-1.29 1.48-.47 1.48-.2-.4.47.28.41a4.1 4.1 0 011.62 0 2.38 2.38 0 011.35.47 6.31 6.31 0 00.82.14c.2 0 .2 0 .81.33a5.93 5.93 0 00.91.39c0-.3 0 0-.14-.79v-.14c.2-.48-.22-1.27 1.61-1l1.21.51-.71.7c.15.2.26.26 1.21 1.51.14-.22 0 1.49.21 1.42a1.3 1.3 0 001.31-.31l.4-.4c.32-.24.57-.37-.91-1.11l-.3-.7.71-.31.2-.5v-.4l1 .6.19-.5c.21-.1-.53-1.38-1.4-2.32 0 0 .4-1.11.5-1.51-.13-.5 1.21-2.16.8.2 0 .42-.68.58.41 1.51l1-.1.6-.3.91-.5c.15.23.42.65.3.8a11.4 11.4 0 002 .3l.41-.6a10 10 0 01-1.72-1.51c.48-.47.47-.36 2.47-.5 0-.12.21-1-1.46-.91-.29-.23-.73 0-.8-1.62.19.37-.46-1.3.8-.8.4.09.22.6 1.92.6-.05-.42.57 1.37 1.71.1l.2-.7a7.55 7.55 0 01-1.31-.2l-1.71-1.52c-.12-.62-.5-.64.2-1.91.9.09 1.17 1.36 3.32-.4l.1-.51c.07-.28-2.09.15-2.21-1.3l.1-.81h.4c.68.15 1.08 0 2.52-.51l.91-.7.1-1.11a2.19 2.19 0 01-1.92-.1c-.07-.07 0-.56-1.27-1.18 0-.12-.79-1.3.27-1.44.62.28.26.21 1.21.3l.2-.5c-.8-.59-.61-1.74 1.2-1.81l1.42-.41.3-1a1.69 1.69 0 00-1.11 0c-.64.08-.62.78-2.52.6a2.19 2.19 0 01-.2-1.21l.5-.4.1-1.11c.06-.28.18 1 1.42.4l.5-.5a12.1 12.1 0 01.1-2.12 23.55 23.55 0 001.51-2.41l.5 1.21 1.32-.91 1 .3.3-1.51.51-1.21.1-.71c-.48 0-.57-.56-1.61.41-.7.09.05 1.31-2.52.91l-.41-1 .21-.71.9-.3.91.2.3-.6.4-1.31.61-.41.2-.7.51-.41c-.32-.56 1.4.86 1.15-1.2z"/><path class="cls-9" d="M236 134.91a3.19 3.19 0 00-.4-1 8.21 8.21 0 01-.91-3.53 1.94 1.94 0 01-.06-.3l.84-.09a11.14 11.14 0 01-1.83-.68c-.61-.33-.61-.33-.81-.33a6.31 6.31 0 01-.82-.14 2.38 2.38 0 00-1.35-.47 4.1 4.1 0 00-1.62 0c-.68.06-.28-.14-.28-.41s-.87.07-1.48.2-.34 1-.27 1.29.4 1.22.4 1.22a9.58 9.58 0 00-.2 1.89v1.7c0 .6-.81 1.15-1.09 1.28a1.63 1.63 0 00-.81 1c-.06.47.21.61.48 1a.39.39 0 01-.14.61l-.27.41c-.27.4 0 .81.07 1.42s0 .54-.48.75a2.12 2.12 0 01-.74.2 5.51 5.51 0 01-.14 1.62c-.2.88-.88 0-1.08-.13a4.94 4.94 0 01-.81-.61c-.34-.34-.54 0-.81-.14a9.84 9.84 0 00-1.29-.74c-.54-.21-.27.06-1 .06s0 0-.74-.88-1 .62-1 1.16-.27.47-.47.61-.34 0-1.09 0-.54.54-.54.54a9.57 9.57 0 01-.47 1.48c-.27.61-.74.48-1.08.55s-.27.4-.81.54-.61-.61-.68-.95a1.56 1.56 0 00-.48-.68 5.77 5.77 0 00-1.08-.67c-.27-.07-.61.13-.88 0s-.34-.27-.74-.27-.34-.61-.34-1 .2-.54-.41-.81-.47-.54-1-.81-.21-.61-.21-.61l1.09-.54a4 4 0 00.88-1.43c.06-.54-.55-.67-.82-1.08s-.88 0-.88 0l-1-.2c-.68-.14-.34 0-.88.07s-.54.2-.95.27a2.06 2.06 0 01-.68 0 3.49 3.49 0 01-.88-.14c-.47-.13-.34-.34-.67-.41s-.61.61-1.29.68-.41-.07-.81-.47-.34-.75-.75-1.29-.88-.61-1.35-1-.81 0-1.35-.13-.27-.27-.48-.68-.61-.07-1.15-.07-.27-.13-.68-.54a3.06 3.06 0 00-.94-.67 1.86 1.86 0 01-.81-.68c-.41-.47-.34-.47-1.29-.47a18.14 18.14 0 00-2 .12h-.14s-.88.27-1.69.61a2.11 2.11 0 00-1.08 1.22l-.55.67a5.61 5.61 0 01-1.28.41c-.54.07-.2.41-.68 1.15s-1 .54-1.49.88-.61.07-1.42-.13a2.48 2.48 0 00-1.42.13c-.27 0-.61.41-1.42 1a1 1 0 01-1 .13 1.41 1.41 0 00-.11.61c.06.68.95.68.95.68a3.89 3.89 0 001.75 1.28c1.22.48.14 1.15.21 2a3.37 3.37 0 00.4 1.35s1.36.74 1.83 1-.27.61-.27.61l-.54 1s-.41 1.29-.61 1.9a.91.91 0 00.14.94 3.63 3.63 0 01.2 1.7c-.07 1.15-.68 1.42-1.15 2.36s-1.08.34-1.08.34a4.84 4.84 0 00-1.49-.61c-.61-.06-.14 1.36-.14 1.36a29.29 29.29 0 011.35 2.71c.41 1 .07 1.21-.2 1.82a6.32 6.32 0 00-.54 1.56c-.07.47.34.54.54 1.08s.07.82.27 1.15a9.07 9.07 0 001.36 1.22c.74.68.33.74.33 1.22a4.5 4.5 0 01.07 1.49c-.13.88-.88.61-1.21.67s-.41 1.16-.41 1.16 0 .81-.07 1.76-.34.67-.88 1.08-.81 1.15-1.15 1.35-.54.34-.54.61a17 17 0 00.13 1.83c.14 1.35-.33.47-1.22.81s-.4.75-.47 1.09a4 4 0 01-.2 1 1 1 0 01-.88.54l-.14.67v1.21a13.36 13.36 0 01.16 2.11 11.22 11.22 0 00.15 2s-.76 1.66-1.51 3a3.63 3.63 0 01-1.45 1.74s-.15 1.06-.45 2.27-.9.15-2.12 1.06-2.87 0-3.47.15l-1.21.3-.15 1.22a4.22 4.22 0 01.15 2.57 2.65 2.65 0 00-.22 1.53 15.6 15.6 0 001.67.9 3.34 3.34 0 001.79.44c1.06 0 1.78.29 2.12 0s.67-1.26 1.11-.92 1.11.77 1.11.77l1.69.49s.72.09.67.57-.09 1-.09 1.26.05 1.21.82 1.21 2.27-.1 2.27-.1 1.54 0 1.69-.29 0-.68.58-.34 1.35.63 1.54.44.48-.58.87 0a2.08 2.08 0 001.45.77 6.61 6.61 0 011.59.48c.58.24.87.58.77.77a1.41 1.41 0 00.1 1c.14.29-.1.58-.19 1a3.18 3.18 0 000 1.68 2.64 2.64 0 00.67 1.07c.44.43 1.35.62 1.4.91s-.43.87.1.87.87-.48 1.69-.19 1.74.58 1.74.58.33-.29-.1-.63-1.06-.43-.77-.77.43-.43 1-.15.24.29 1.35.29 1.4.34 1.59-.19a2.54 2.54 0 00.2-1 15.53 15.53 0 01.14-2.37 6.73 6.73 0 00.2-1s-.3-1.06.09-1.49a18.11 18.11 0 013.25-1.58 29.08 29.08 0 01-.29-7.91c.48-3.74 2.5-14.43 7.33-17a3.71 3.71 0 01.91-.53c.3-.28 1.4.07.38-1.29-.05-1.15-3.6.46-1.29-2.49a9.57 9.57 0 01.91-1.74 3.42 3.42 0 012.87-.38c0 .67 1 .87.83 2.12.43.66-.74 1.07 1.06 1.21a13.37 13.37 0 00-.08-1.89 7.65 7.65 0 012.65-2.49c.91-.36 1.37-1 2.94-1.21l.76.22.75-.3a15.69 15.69 0 001.67-.15 8.44 8.44 0 011.66-.08 9.65 9.65 0 001 2c.44-.06.4.17 1.29-.53l.6-.23h.61v.6s-.07.23.45.46c.14.31 1.31-.13.61.83-.59.2-1.28.06-.83 1a6.61 6.61 0 012.11.15 9.28 9.28 0 00-.83 1.36c.28.16 0 .57 1.29 1 .17.08 1.34.31.6 1 0 0 .83 0 1 .3a2 2 0 01.23 1l.68.3.23-2.11c.14-.35.76-1.69-.91-3.55-.65 0-2.28-1.12-.08-1.51 0 0 .53 0 .23-.31-.52-.15-.84-1.86-2.57-1 .27-.16-.64-1.31-.45-2.49.43-.09.6 0 2-.15a2.61 2.61 0 00.07-2c.78-.82-1.15-1.78-.68-3-.15.34 1.6-.12 1.36.83a2.45 2.45 0 00.83.91c.35-.39.71-.2.69-1.74l-.23-1.44-.23-.53c.14-.27-2.57 1.75-2.42-.83-.39-.39-1.29.61-2-.38v-.6l1.51-.75 1.21-.53c.18-.57 1.11-.5 1.29-2.57-.63-.44-1.64-.21-3.56-1.21h-.6l.08-.61.23-.75c.12.22-.19-1 1.13-.83.91.48 1.15-.58 2.8-1.67l.22-.68a1.34 1.34 0 001.21.31l.23-1 .37-.83a2.4 2.4 0 01-1.58-.15c-.08-.23-.45-1.06-.45-1.06l-.61-1.66c.21-.48.82-.81 1.74-1.74l1.61-1 1-.8-.9-1.3c.06-.22.39-1.93 1.3-2.53.28.23 0 .76 1.21-.5a.87.87 0 01.81.6l.3.71.71.4c-.09-.3.51-.62-.41-1.95zm-93 41.85a21.36 21.36 0 00-1.71-2.36 13.94 13.94 0 00-1.24-1 7.52 7.52 0 01-.79-.78 8 8 0 00-1.31 0 2 2 0 01-1.25.06 5.8 5.8 0 01-1.25-.52 9.94 9.94 0 01-.92-1s.39-1-.13-1-1.12.59-1.18 0a5.72 5.72 0 010-1.18 7.64 7.64 0 00.39-2.69 18 18 0 00-.13-1.85l.26-.65s.4-.13 0-.53a2.93 2.93 0 00-1-.65 3.54 3.54 0 00-1.18-.53c-.33 0-.92.46-1.51.07s-.72-.79-1.05-.92a5.86 5.86 0 00-1.12-.2.72.72 0 01-.85 0c-.29-.23-1.5-1.58-2.15-2.31-2.72 5.57-6.16 12-5.4 19.14-.45 1 .47 2.63-.78 5.07l-.21 1.19c-1.19 3.06-5.89 9.42-9.15 11.83-6.41 4.25-20.81 6.86-23.91 16.81-3.21 13.49-12.86 24.83-24.43 34.37L57.36 250l-2.6 1.41c-.64 0-3.89 1.28-5.63.28-.83-.66-1.71.21-2.88 2l-1.41 1.12c-.32.75-2.34.85-4 2.39-4.1 2.72-9.91 4.52-16.44 7.16a10.43 10.43 0 001.52 2l.88.39a1.5 1.5 0 00.89.1c.24 0 .34.64.34.64s-.1 1.61-.15 2 .1.64.54 1.37a2.21 2.21 0 01.4 1.37 14.19 14.19 0 00.14 2.31c.15.49.83.83 1.13 1.42a7.63 7.63 0 01.17 2.35A2.45 2.45 0 0031 278a15.63 15.63 0 001.77-1.23 6.6 6.6 0 01.73-1 4 4 0 00.84-.78 5.73 5.73 0 00.73-1.13c.25-.49.59-1.23.59-1.23a.57.57 0 00.69-.58c0-.69-.25-.74-.35-1.08a2 2 0 01-.14-.74c0-.39.49-.39.34-.73s.1-.89.34-.84a4.15 4.15 0 001.23 0c.64 0 .54-.39 1.08-.2a10.48 10.48 0 001.27.35s.39.05.44.24a.4.4 0 00.54.2 4.44 4.44 0 011.37-.3 1.71 1.71 0 011.28.64.6.6 0 00.59.45c.34 0 .44.29.39.43a4.26 4.26 0 01-.24.59 3.37 3.37 0 01-.49.94c-.15.1-.05-.25-.15.1a3.58 3.58 0 00-.05 1 2.71 2.71 0 01-.34.89l-.15.34.34.34.59.25.64.44a1.77 1.77 0 01.68.2c.2.14.2.44.79.34a1.07 1.07 0 00.88-.74 3.54 3.54 0 01.2-.93c.1-.19 0-.39.34-.49a3 3 0 00.64-.34s.19-.44 1.08-.44 2.2.09 2.2.09a3 3 0 011.13-.39c.69-.09 1-.19 1.08-.44s-.39-.54.44-.59 1 .35 1.28.35.73-.2.93-.1a9.65 9.65 0 01.88.73s1.32.64 1.13 0-.4-.44-.2-.93a2 2 0 00.2-1 3.41 3.41 0 00-.05-1 1.65 1.65 0 01.78-1.52 2.87 2.87 0 011.32-.24c.4 0 .5.44.94-.2s.49-.74.59-.88a1.67 1.67 0 00.19-.49c.05-.2-.1-.2.1-.54s.74-1 .74-1a1 1 0 01.29-1.18 4.11 4.11 0 011.81-.83 1.76 1.76 0 001.13-.44 2.89 2.89 0 011.62-.69 3.17 3.17 0 00.93-.1 2.17 2.17 0 011-.34c.69-.1.54 0 1.13.15a4.54 4.54 0 011.08.19c.59.2.93.34 1.17.84s0 .34.3.83a2.38 2.38 0 01.39 1.23c0 .34-.1 3.14-.1 3.14s.3 0 .44.58.15.84.49.88a1.14 1.14 0 01.94.55c.19.39.29 1.07.49 1.17s.68.64 1 .69a1.62 1.62 0 01.64.39s1.42.05 1.61.59a3.62 3.62 0 01-.29 2c-.15.39-.25.64.1.93a.86.86 0 01.29 1.08c-.19.39-1 .34-1 .79s-.1.49.39.93.74.73.74 1.17 0 1-.05 1.33a1 1 0 001-.46c.41-.71 0-1.51 1.11-1.21s1.31 1.21 2.22.91.5-1.11 1.41-1.11a1.18 1.18 0 001.31-1.11 16.23 16.23 0 00-.2-1.71 1.08 1.08 0 011.21-.81c1 .1 1-.2 1.61-.5a8.08 8.08 0 011.41-.5s1.21.3 1.11-.71-.2-2.62-.2-2.62a2.47 2.47 0 011.3-1c.81-.2 1.11-.6 1.11-1.71v-2.82s-.6-.91.71-1a11.56 11.56 0 002.32-.2 3.56 3.56 0 002-.91 10 10 0 011.31-1.1l.2-1.92s.31-1.71 1-.91a3.38 3.38 0 01.81 1.52s-.31.1.3.6 1.41.9 1.71 1.41.81.6.81 1.11-.1.8.2 1.11 0 .3.71.5a7.68 7.68 0 011.41.4c.38.17.35.48.38.75.2 0 .42-.09.62-.55a6.86 6.86 0 00.71-2.21 10.2 10.2 0 00-.41-1.51 3.68 3.68 0 00.31-2.32c-.21-1.51-.71-1.61-.71-2.32V256c0-1.61.4-3.32.4-3.83a5.83 5.83 0 00-.7-1.71s-.3-1-.71-.91l-.8.2s-.31.41-.61-.2-2.31-1.91-.8-3.62 1.31-1.11 1.81-2.42.61-1.21.51-2.22-.31-.81.1-1.41a3.09 3.09 0 00.5-2.12c-.2-.3.1-.6-.4-.8s-1.52 0-1.31-1a4.83 4.83 0 01.6-1.61s-.2-1.11.81-1.11.9.3 1.91 0 1.71-.91 2.42-.91a10.58 10.58 0 011.41.11l.91-.61a10.05 10.05 0 001.81.4c.91.1 1.11-.1 1.11-.7v-1.61s0-.91.5-.91.81-.51 1.51-.2.41.7 1.21.7a1.59 1.59 0 001.21-.5h.51a5.85 5.85 0 001-.1s.81-.2 1.21.2.51.81 1.11.4a7 7 0 001-.8s.4-.1.1-.51-.81-.7-.81-1.21-.1-1.51-.1-2.11a3.8 3.8 0 00-.5-1.51c-.2-.51-.71-.81-.71-1.11s-.2-2.12.31-2.52 1.51-1 1.51-1l.8-.1.61-1s1.31.21 1.11-.5-.81-.81-.11-1.61 1-.3 1.32-1.31.5-1.81.5-1.81a6.26 6.26 0 012-2c1.41-.91 2-1.11 2.12-1.61a1.29 1.29 0 000-.34 2.24 2.24 0 00-.3-.77l-.41-.6-.5-.51a5 5 0 00-1.61.1l-.91-.9-1.91-1.92a9.14 9.14 0 01-.2-1.61c0-.71-.61-.91.2-1.51a2.25 2.25 0 00.91-1.31l-.41-1v-1.51l.3-.61v-1.41l.3-.9a1.62 1.62 0 00.74-.24 10.52 10.52 0 00.66-.85 5.9 5.9 0 00.2-1.12c0-.39-.59-1-.59-1a1.69 1.69 0 01.39-.91 2 2 0 00.66-1.52c-.07-.65-.27-1.9-.27-2.23a11.17 11.17 0 01-.19-1.31c.06-.2.85-1.44.85-1.44a1 1 0 011.18-.6c.85.27.46.4 1.25.4s1-.13 1.31-.07.33.46.92.14a11.59 11.59 0 001.38-1 13.65 13.65 0 011.57-1.05 5.51 5.51 0 001-.59l1.12-1.9s1-1.03.48-1.95zM54.7 208.1c.18-.15 1.66 1 3.09-.59-.31 0 2.11-.3 4-.48 1.86-1.84 4-3.52 7.77-7 .54-2.48 1.7-3.43 3.38-7.89-.16-.44.62-1-.06-2.37-.06.2-.25-.57-1.42.53 0 0-.9.48-1.07.54-.29-.17-1.09.49-2.79.11-.31-.29-1.47-.11-1.66-1.84 0-.25 0-.37.17-1.36.2-1.46 2.21-4.3 3-7.71a9.34 9.34 0 00.71-3l.06-1.66.06-.47s.42-1.72-.06-1.72a4 4 0 00-2.61 1.24 17.62 17.62 0 00-.83 1.72c-.43.74.4 2.44-2.61 2.79-2 2.83-6.21 5.6-7.24 10.15-.13.23-.7-.24-.77 1.36-.18.18-.41.18-.35.77a4.41 4.41 0 01-.12 2.55 5.39 5.39 0 00.41 3.86l.42.42c0-.05.11-.32.65-1.67l.3-.23c-.08-.08.5 0 .59-.89 0 0 .71-.37 1-.24.64.88 1.12 0 2.43 2.31a2.75 2.75 0 01-1.72 2 4.21 4.21 0 00-1.19 1.78c-.18.75-.39.12-.17 2.49-.1.18-.65 2.89-2.85 2.67-.09.35-2.58.06-.52 1.83z"/><g id="line"><g clip-path="url(#clip-path-2)"><path d="M177.79 136.92l-.3-.7v-.55a.55.55 0 00-.54-.61c-.62-.07-1.7-.07-1.7-.07l-.54-.14a2.52 2.52 0 00-.27-.74c-.2-.34-.81-.41-.81-.41s-.95-.33-.95-1a14.7 14.7 0 00-.2-2 2.19 2.19 0 00-.81-1.69 5.13 5.13 0 00-2.24-.55c-.2 0-1 .21-1.28-.27s-.14-1.62-.48-1.82a3.48 3.48 0 00-1.15-.27s-.54-.34-.88-.14a2.66 2.66 0 00-.68.81 1.47 1.47 0 01-1.08-.2c-.47-.34-.41-.68-1.15-.68a5.29 5.29 0 01-1.49 0c-.61-.13-1.35.21-1.62-.27a3.25 3.25 0 01-.34-1.08s.47-.54-.41-.54a8.78 8.78 0 00-2 .34.74.74 0 01-.61-.21 2.33 2.33 0 00-.95-.4 1.43 1.43 0 00-.54-.61 8.49 8.49 0 00-1.35-.61s-1.36-.41-1.36-.81.21-1.29-.06-1.43a3 3 0 00-1.56-.81 1.85 1.85 0 00-1.42.34c-.34.2-.07.61-1.15.34a3.11 3.11 0 00-1.83 0 5.43 5.43 0 01-1.62.07c-.95-.07-1.22-.14-1.42-.14h-.87" stroke-linejoin="round" stroke="#b2c5eb" fill="none"/></g></g></g></g><path id="frame-2" data-name="frame" d="M293.07 1h-292v232h292z" stroke="#b7cedf" stroke-width="2" fill="none"/></g></svg>