<svg id="レイヤー_1" data-name="レイヤー 1" xmlns="http://www.w3.org/2000/svg" width="244" height="272" viewBox="0 0 244 272"><defs><style>.cls-1{fill:#506375;fill-rule:evenodd}</style></defs><g id="jpmap"><g id="Group-7"><path id="Okinawa" class="cls-1" d="M211.85 240.09a8.46 8.46 0 003.32-1.84c1-1.14 1.13-.58 1.41-2.05s.6-3.12 1.49-2.66 2.06 3.09 1.88 4.82a8.92 8.92 0 01-2.41 4.41c-.81.91-1.25.11-2 1.23s.67 2-1.08 2.74-3.33.65-3.24 1.09.61.76-.66 1.65-1.58 2-2.12 2.37-2.33.08-3.29.82-1.26 1.86-.5 2.24 2.61 1.56 2.59 2 .83.65-.47 1.18-2-.08-2 1.84-.67 2-.27 2.81 1.35.47 1.7 1 .23 1-.3 1.65a5.92 5.92 0 01-2.57 1.68c-1.64.76-1.75 1.42-2.3.68a9.16 9.16 0 01-1.1-1.59c-.53-.95-1.43-1.41-.63-2.42a11.06 11.06 0 002.15-3.51 5.59 5.59 0 00-.15-4c-.38-.9-1.78-1.05-.69-1.74a55.7 55.7 0 004.87-4.53c.84-.81 2.92-1.65 2.84-2.48s-.71-1.66-2.19-1.68-1.65-.31-1.86-1.22-.61-2.74.86-2.72a17.52 17.52 0 014.16.86 1.33 1.33 0 001.65-.22 5.92 5.92 0 00.91-2.41z"/><polyline id="Path-5" points="233.56 218.63 189.17 218.63 177.96 271.77" style="isolation:isolate" fill="none" stroke="#979797" opacity=".8"/></g><path id="Combined-Shape" class="cls-1" d="M29.55 215a1 1 0 010 .17 2.41 2.41 0 000 1.12c.11.41.71 2.14 1.59 2.63a16.26 16.26 0 002.76 1 3.55 3.55 0 001.54.11c.18-.14.44-1.16.88-1.34s1.09-.66 1.67-.38a3.69 3.69 0 011.58 1.71c.11.51.32 1.3-.1 1.66a9.58 9.58 0 00-.91.73c-.16.21-.16.44-.39.57s-1.8.76-1.48 1.3A1.11 1.11 0 0038 225c.8 0 .75-.18 1.14-.15s1.3-.13 1.54.07a11.24 11.24 0 01.91 1.84 3.31 3.31 0 00.73 1.37c.44.41 1.14 1.49.92 2a3.82 3.82 0 00-.48 1.18c0 .34.1.59-.13.74a12 12 0 00-2.53 2.81 67.63 67.63 0 00-2.81 6.47 52.14 52.14 0 00-1.35 5.41c-.16 1.07-.49 3.92-.62 4.56a10.54 10.54 0 01-.86 2.78c-.34.4-.5.76-1 .63s-.67-.43-1.25-.66-1-.53-1.32-.3-.65.28-.63.76-.15 2.65-.75 3.06-1.36 1.43-2 1.63a5.92 5.92 0 00-1.82.84c-.39.33-.88.79-.91.48s.05-.45-.05-.61-.13-.25.26-.58a5.15 5.15 0 001.27-2.5 13.77 13.77 0 00-.41-2.45c-.21-.63-.37-1.73-.44-1.94s-.08-.43-.5-.43-1-.25-.88-.51a1.12 1.12 0 01.8-.46c.29 0 .65 0 .65.21s.06.25.24 0 .7-1 .54-1.3-.83-.69-1.77.07-2 1.92-1.79 3a7.06 7.06 0 001.22 2.65c.34.41.86.92.83 1s-.49 1.74-1.48 1.23a9.14 9.14 0 00-2.52-1.18 4.71 4.71 0 01-2.45-1.25c-.29-.43-.78-1.07-.29-1.24s2.09-1 2.16-1.69a3.73 3.73 0 00-.31-2.37 4.1 4.1 0 00-1.19-1.12c-.21-.1-.42 0-.34-.33a6.48 6.48 0 00.28-2.27c-.15-.66-.44-1.12-.47-1.5s-.54-1.23-.62-1.66-.23-1.45.18-1.3 1.25.77 1.75.74a2 2 0 001.69-.89c.28-.64 1.69-3.16 2.11-4.18s1-2.53 1-2.53a3.25 3.25 0 00-.58.08 3.2 3.2 0 00-.83.28c-.23.18-.34.28-.39.21s-.08-.34-.26-.11-.42.64-.47.36a2.09 2.09 0 01.78-1.3c.44-.38 1.49-1.17 1.36-1.86a14.37 14.37 0 00-1.36-2.5c-.28-.58-1.09-2-1.35-2.42s-1.2-1.45-1.69-1.22-.65.35-.76.91-.13 1.46-.23 1.84 0 .66-.34 1-1 .62-.62.74a5.45 5.45 0 001.35.16 2.92 2.92 0 011.61.56 1.8 1.8 0 010 2.49c-.91 1.15-2.06 1.38-2.27.77s-.26-1.56-.41-1.91-.18-1-1-.92a2 2 0 00-1.51.71c-.42.46-.65.49-1.2 1.07s-.89.67-1.15 1-.39.62-.26.08.52-1.4.32-1.91a14.49 14.49 0 00-1.33-2.22c-.37-.46-1.17-1.55-1-2s.36-1.12 1-.92a2.41 2.41 0 011.43 1.08 5.94 5.94 0 01.44 1.35c0 .43.1 1 .24.87a1 1 0 01.86-.26c.41.07 1 .38.91.07a7 7 0 00-1.07-2 8.08 8.08 0 00-1.85-1.51c-.52-.3-2.83-1.88-2.83-3s.34-1.71 1.12-1.84.83 0 .83 0 2.33-2.9 3-2.42.73 1.18 1.05 1.25.49.13.86-.33 1.27-2.24 1.76-2.32a2.52 2.52 0 011.28.23 1.48 1.48 0 001.38-.3 15.73 15.73 0 00.75-2.73s.55-1.4 1.64-1.66a9.28 9.28 0 011.75-.41 11.15 11.15 0 001.79-.3 5.34 5.34 0 012.09-.29c-.37-.2-.83-.33-.69-.44s.69-.48.69-.86-.32-1.42-.24-1.62a8.17 8.17 0 011-1.12c.2-.2.46-.88.71-.94a1.25 1.25 0 011.06.11 2.91 2.91 0 001.61.56 6.9 6.9 0 001.73-.35 6 6 0 001.59-1.15c.32-.45 1.17-1.67 1.46-2.06s.74-1 1.27-1.1 1.27-.17 1.7-.27a2.44 2.44 0 001.25-.85c.39-.47 1.4-1.15 1.64-1.45a16.78 16.78 0 011.3-1.12A13.7 13.7 0 0147 199.2a9.54 9.54 0 002-1.12c.15-.19.9-1 1-1.16a8.62 8.62 0 011.4-1.29 8.49 8.49 0 001.6-1.45 6.27 6.27 0 01.67-1.69 2.83 2.83 0 01.93-.45c.23-.1.61-.6.79-.6a5.92 5.92 0 001.28-.3c.31-.12 1.24-.12 1.4-.22s.59-.4.93-.65.43-.45.77-.3.9.33 1 .53.16.59 0 .72-.63.52-.53.82.48.87 1 .72a4.07 4.07 0 001.54-.72 3.65 3.65 0 011.85-1.15c.64 0 2.47.35 3.28.44a7.77 7.77 0 002.46-.09 7.47 7.47 0 011.93-.25 11.14 11.14 0 002.36-.1 16.18 16.18 0 002.13-1.07 10.16 10.16 0 012.39-.79 16.58 16.58 0 012.52.05 5.42 5.42 0 001.72.12c.37-.1.61-.27.9-.22a2.52 2.52 0 001.23-.28 12.9 12.9 0 012-.92c.37-.05 1.91-.72 2.28-.45s.8 1.17.56 1.32a3 3 0 00-.82.62c-.24.3-.61.85-.3 1.1s.32.2.75.57.5 1.2.82.95.42-.32.32-.62-.43-.48 0-.62 1-.43 1.28-.23.05.4.45.35a2 2 0 011.25.12c.34.23 1.46.93 1.75.75s.77-.9 1.25-1.07a5 5 0 001.45-1.07c.22-.25.77-1.17 1.2-1.05s1.09.45 1.22.25.11-.84.34-1.27-.13-.82-.37-1.32-1.54-1.77-1.32-2.39a6.56 6.56 0 011-2.09 4.59 4.59 0 001.07-1.47c.1-.38 0-.9.37-.95a6.54 6.54 0 001.83-1.05c.21-.24 1.94-1.54 2.28-1.86a42.6 42.6 0 003-3.72 5.47 5.47 0 00.4-.75l.28-.65a16.09 16.09 0 001-3.08c.21-1.32-.28-1.89-.84-2.94a2.52 2.52 0 01-.06-2.53 4.2 4.2 0 012.53-2.25 10.1 10.1 0 002.63-1.17c.62-.28 1.94-1.21 3-.87s0 1.73-.33 2.1a2.9 2.9 0 00-.36 1.48c0 .28-1 .43-1.31.56a13.21 13.21 0 00-1.52 1.23c-.26.22-1 .06-1.38-.06s-.72.49-1 1.17.27.77.76 1 1-.12 1.45-.34.29.68.29 1.3a3.3 3.3 0 01-.54 2c-.5.72.44 1.28.44 1.28l.71.44a3.57 3.57 0 00.89.35c.85.17 2.44.24 2.84-.23s.69-2 1-2.24a3.81 3.81 0 011.52-.75c.71-.2 1.52-.27 2-.42s1.65-.5 2.18-.75a15.59 15.59 0 001.69-.75 8.48 8.48 0 001.33-.84c.24-.25.4-.75.9-.73a3.72 3.72 0 002.42-.47 21.58 21.58 0 012.31-2.12c.47-.27 1.27-.54 1.59-1.09a6 6 0 01.79-1.35c.43-.45.75-.89.83-.94a10.08 10.08 0 00.58-1c.27-.57.64-1.49.9-2.07a9.54 9.54 0 011-1.82 11.91 11.91 0 011.67-1.32 32.12 32.12 0 013-1.54 9.79 9.79 0 002.76-2.24 6 6 0 00.64-2.52 21.35 21.35 0 011.3-3.91c.19-.32.61-1.77.74-2.12s1.25-1.17 1.41-1.52.93-1.24 1.14-1.64a6.23 6.23 0 00.58-1.72 8.27 8.27 0 01.59-1.54A7.62 7.62 0 00154 132c.05-.45.4-2 .43-2.42s1.08-1.17 1.34-1.47a2.48 2.48 0 00.25-1.32 6.73 6.73 0 01.29-1.37 4.52 4.52 0 01.34-1.2 6.82 6.82 0 00.16-2.21 4.32 4.32 0 00-.55-1.35 3.57 3.57 0 01-.48-1.27 1.83 1.83 0 00-.64-.87 1.6 1.6 0 00-.9 0 8.48 8.48 0 01-1.57.37c-.55 0-.93-.72-1-1a.75.75 0 01.34-.68c.08 0 1.19-.17 1.7-.22s1.11-.8 1.4-1.12a10.39 10.39 0 00.93-2.64 13.66 13.66 0 00.06-2.39c-.08-.38-.67-.82-.85-1a1.62 1.62 0 01-.29-.82 3.1 3.1 0 01.08-.92v-.92c0-.17-.35-.28-.64-.38s-.32-.3-.48-.45.43-.54.54-.67.53-.37.68-.55a4.69 4.69 0 00.69-1.09c.08-.25.51-.43.7-.5s.68.2.95.3.68-.26.72-.36.62-.13.82-.28.46-.3.48-.39.34-.86.43-1.08.08-.73.18-1.09a8.28 8.28 0 00.22-1.19c0-.25.16-.94.14-1.18s-.59-.65-.73-.71-.2-.32-.18-.5.53 0 .69 0 .16-.29.2-.46.1-.9.12-1.11.2-.56.28-.52a5.12 5.12 0 01.76.47c.26.2.39.52.61.64s.6-.14.76-.3a1.18 1.18 0 01.8-.27 2.63 2.63 0 01.87.55 1.06 1.06 0 01.18.82 4.89 4.89 0 00-.1.93s.24 1.1.28 1.18a14.48 14.48 0 01.2 1.51c0 .32.26 1 .28 1.2s.42.45.67.61a.73.73 0 00.68.06.5.5 0 00.4-.3c.12-.2.5-.56.64-.82a1.21 1.21 0 000-.84c-.06-.34 0-.32.08-.43a3.53 3.53 0 00.31-.73c.07-.25.34.15.46.19a1.35 1.35 0 01.56.28c.1.13.42.58.52.73a3 3 0 00.73.52 4 4 0 01.68.58.53.53 0 00.64 0 2.52 2.52 0 00.67-.92c.1-.28.54-1.27.63-1.49a10.65 10.65 0 00.14-1.49c0-.33.29-.49.31-.72a3.78 3.78 0 00-.26-1.25 3.55 3.55 0 00-.66-.73c-.08-.07-.22-.3-.36-.32s-.29.42-.31.57-.26.31-.42.48a1.49 1.49 0 01-.66.34 4 4 0 00-.56.25c-.1 0-.45-.14-.53-.2s-.34.1-.44.15a1.4 1.4 0 01-.46.28c-.2 0-.6.08-.74.1a4.07 4.07 0 00-.65.31 3.31 3.31 0 01-.58.27 1.46 1.46 0 01-.39-.22c-.14-.08 0-.63 0-.88a4 4 0 01.25-.87 5.53 5.53 0 00.24-1.19c0-.43.24-.53.24-.69a6.78 6.78 0 01.38-1.33 2.22 2.22 0 01.61-.67 1.22 1.22 0 00.14-.82c0-.19.1-.29.22-.43s.26.14.34.2.4.23.46.28a2 2 0 00.56.39 3.79 3.79 0 00.71.12 1 1 0 01.7.33c.14.17.66.81.75 1a3.18 3.18 0 001.22.83 3.06 3.06 0 001.31 0 7.59 7.59 0 001.38-1c.1-.14.23-.19.22-.16s-.1.62-.14.75-.1.47-.16.62-.38 2-.38 2-.44.75-.36 1 0 2.11 0 2.61.1 3.39.18 3.84a19.38 19.38 0 00.9 3.48 8 8 0 001.36 1.27c.37.3 1.11.8 1.32 1a6.33 6.33 0 01.91.94 7 7 0 01.87 1.65A6.79 6.79 0 00181 113a4.43 4.43 0 00.48.67c.16.17 0 .57 0 .87a2.14 2.14 0 00.42 1.22c.27.27.93.82 1 1.17s.42 1.52.48 1.89.13.83.16 1.17-.27 2.07-.27 2.3-.19.54 0 .74.58.08.72.28a2 2 0 01.1 1.34c-.16.38-.26.58-.16.85s.32.6.11 1-.72 1-.88 1.37-.45.55-.47 1 .16 1-.06 1.17-.61.52-.63.85a3.86 3.86 0 00.08 1 .6.6 0 01-.24.55 5 5 0 01-.93.69c-.43.23-.85-.05-.93.2a3.52 3.52 0 00-.19.8c0 .1 0 .42-.24.27s-.65-.61-.59-.29 0 .72 0 .94.29.82.05.82-.36-.41-.39-.06-.37.19-.48.06-.32-.35-.32-.05a2.4 2.4 0 01-.24 1.07 1.87 1.87 0 00-.34 1.13c.05.39.26.59.13.74s-.24.4-.53.53-.74.34-.48.49.53.15.45.38a3.52 3.52 0 00-.13.8.94.94 0 00.26.77c.22.22.46.45.24.55s-.18-.18-.39.07a2 2 0 00-.46.77c0 .2-.21.35 0 .55s.45.12.53.3-.1 0 0 .4.27.27.24.67.16 1.24-.06 1a4 4 0 00-.89-.89c-.32-.18-.75-.3-.53-.45s.58-.25.21-.38-.5-.27-.69-.17-.11.12-.32-.08a1.15 1.15 0 00-.95-.32 1.84 1.84 0 00-1.17.47c-.29.25-.53.35-.56.58s0 .44-.24.47-.21 0-.34-.32-.16-.48-.45-.43a.67.67 0 00-.59.4 7.87 7.87 0 01-.4 1.55 4.17 4.17 0 01-.63 1.09 3.44 3.44 0 00-.78 1.3 5.82 5.82 0 00-.31 1.57c0 .49 0 1.22.08 1.47a7.72 7.72 0 00.61 1.54 1.64 1.64 0 01.4.92c0 .5.29 1.42.34 2.09s.35 2.79.37 3.17a11.65 11.65 0 01.06 2.14c-.11.42-.16 1-.3 1.42s-.13.44-.26 1-.16 1.05-.29 1.57a7.88 7.88 0 01-.53 1.77 3.12 3.12 0 01-.77.77 9.53 9.53 0 00-.93.7c-.16.2-.27 1-.48 1.07s-.48.17-.58.52-.37 1.52-.53 1.87-.3.92-.48 1.3-.64.64-.66 1-.16.72-.19 1 .08.7 0 .87a.7.7 0 000 .6.9.9 0 01-.16 1c-.37.45-.79.8-.82 1.1a4.37 4.37 0 00.32 2.74c.11.17 1 1.32 1.17 1.62s.69.94.9 1.34 1.19 1.87 1.35 2.17.56 1 .59 1.07.1.22-.16.12a6.37 6.37 0 00-1.94 0 2.84 2.84 0 00-1.27.47 5.78 5.78 0 00-1.65 1.62 7.52 7.52 0 00-1 2.07c-.08.77-.21 2.27-.32 2.59s-.58 2.22-.9 2.24-1.3.08-1.65.15a3.9 3.9 0 00-1.38.55 7.94 7.94 0 01-1 .87 1.66 1.66 0 00-.9.77c-.19.43-.35 1.2-.67 1.3a1.67 1.67 0 01-1.24-.1c-.3-.23-1.3-.45-1-.73s.8-.57.88-1.16a18.08 18.08 0 00-.05-2.4c0-.32-.32-1.51-.35-1.71a.67.67 0 01.16-.58 2.49 2.49 0 01.77-.55c.27-.09.37-.12.45-.39a4.69 4.69 0 01.77-1c.19-.22.53-.54.77-.82s1-1.24.64-1.64a2.47 2.47 0 00-1.7-.72 2.73 2.73 0 00-1.65.52c-.31.32-.95 1.2-1.22 1.49a7.94 7.94 0 00-.71 1.17c-.19.33-.67.73-.48 1.05a13.05 13.05 0 01.74 1.35 2.79 2.79 0 01-.16 2.09c-.45.57-1.11.95-1.06.32a3.88 3.88 0 00-.64-1.82 3.56 3.56 0 00-1.53-.69 4 4 0 00-1.46 0 10.19 10.19 0 00-1.65.47 3.24 3.24 0 00-1.14.85 1 1 0 00-.11.72c.08.3.22.65.06.6s-1 .53-1 .91.08 1 .13 1.23.45.7.48.82a2.66 2.66 0 01-.66 2.17 17.21 17.21 0 00-1.44 2.39c-.31.37-1 1-1.43.82s-1-.65-1.3-.75-.44-.6-.36-1.1a15.19 15.19 0 00.18-1.88c0-.38-.08-.95-.08-1.37a1 1 0 01.66-1.05c.45-.1 1.09-.35 1.09-.62s-.77-.85-1.25-1.07a4 4 0 00-2.2-.13 3.76 3.76 0 00-1.49.87c-.21.2-.45.2-.34.6s.45.65.1.8-1 .47-1.32.65-.77.29-.88.59a5.64 5.64 0 01-.66 1.45c-.32.4-1 .87-1.14 1.32s-.43 1-.35 1.34.32.8.05.75a19.83 19.83 0 01-1.88-.65 3.19 3.19 0 00-2-.35 6.9 6.9 0 01-1.88.3c-.51-.05-1.59-.44-2.15-.47a15.76 15.76 0 00-3.11.2c-1 .2-2.86.82-3.39.95s-2.26.27-2.1 0 .72-.95 1-.85.47.37.69 0a2 2 0 011.22-.9c.42 0 .58-.12.79 0s.27 0 .24-.4 0-.89-.37-1.09-.77-.38-.93-.08-.08.58-.48.53a6.11 6.11 0 01-1.85-.3c-.43-.25-.67-.15-.83-.45s-.39-1-.53-.65a2 2 0 00-.16 1.27c.14.5.64 1.12.38 1.17s-.93-.2-1.44-1.07a3.24 3.24 0 01-.34-2.24c.08-.65.24-1.3.24-1.6s0-.37-.24-.39-.24 0-.59.14-.53 0-.74.13a4 4 0 00-.58.6 4.44 4.44 0 00-.61.92c-.14.3-1.25 1.74-1.46 2.24a3.63 3.63 0 00-.19 2.12 4.56 4.56 0 001.67 1.54 10.13 10.13 0 001.75.75c.46.05 1.23.25 1.38.55s.75 1 .38 1.44a11.52 11.52 0 00-.77 1.12c-.24.35-.55.77-.65.66a1.93 1.93 0 00-.63-.53 1.68 1.68 0 00-.69-.15c-.26 0-.4-.32-.55-.1s-.27.55-.72.62-.61.08-.9.15a1.26 1.26 0 00-.67.35 2.71 2.71 0 01-1.16.42c-.51.13-1.36.3-1.52.7s-.16.75-.26 1a.46.46 0 01-.51.3c-.29 0-.66.05-.55.32s.87.87.74 1.17-.5.4-.64.65a1.66 1.66 0 01-.34.44c-.08.11-.24 0-.43.23a7.83 7.83 0 01-.82.57 2 2 0 00-.69 1 4.15 4.15 0 01-.53 1.12c-.13.25-.11.5-.32.74a3.77 3.77 0 00-.66 1.05 2.38 2.38 0 01-1 1.27c-.66.52-1.14 1.22-2.12 1.2a13.24 13.24 0 01-3.13-.63 2.85 2.85 0 01-1.65-1.37 1.77 1.77 0 00-.58-.82c-.13-.07-.58-.35-.24-.42s1.11-.12.81-.39a3.55 3.55 0 00-1.08-.76c-.5-.2-1-.15-1.11-.45s-.4-1-.9-1.27a4.14 4.14 0 00-1.09-.34c-.24 0-.48-.13-.29-.38s.42-.42.29-.62-.7-.2-.25-.39 1.36-.53 1.34-.78a.71.71 0 00-.53-.58c-.32-.09-.59.15-.48-.22s.28-.82.45-.83.85 0 .77-.34a3.17 3.17 0 00-.82-1.25 1 1 0 01-.24-1.12c.24-.3.87-.47 1.19-.74s1.71-1.34 2-1.63.56-1 .85-1.36.67-.68.64-1a6.87 6.87 0 00-.29-.9c0-.13-.43-.52-.85-.62a3.11 3.11 0 00-1.65 0c-.29.2-1 .82-1.24.82-.08 0-.25 0-.47.06-.24.33-.56.62-.81 1a4.76 4.76 0 00-.53 1.1 12.53 12.53 0 01-.41 2.11 2.12 2.12 0 01-1.08.55c-.44.11-2-.33-2-.69a2.79 2.79 0 01.38-1.61c.35-.39 1.38-1.49 1.38-1.49s.85-.76 1-1a7.71 7.71 0 01-2.15-1.09 2.8 2.8 0 00-1.51-.87c-.67-.08-2.76-.1-3-.13a.83.83 0 00-.66.05 2 2 0 01-1.25.55c-.8.05-1.09 0-1.49 0a.65.65 0 00-.63.48 5.36 5.36 0 01-.93 1.32c-.29.2-.64.74-1.25.52s-.66-.62-.93-.5-.69.55-.42.57.69-.1.71.15a2.07 2.07 0 01-1 1.52 1.52 1.52 0 00.78.05c.36-.11.53-.52 1-.19s.58.39.84.42.45.31.58.57a3.21 3.21 0 001.09 1 4.19 4.19 0 001.74.5 4.13 4.13 0 011.67.2 1.11 1.11 0 01.41 1.3 1.74 1.74 0 00.05 1.74c.35.52.81.86.88 1.53a3 3 0 01-.15 2 6.75 6.75 0 01-1.42 1.19 9.32 9.32 0 01-1.16 1 10.47 10.47 0 00-1.47 1.3 7.69 7.69 0 00-1.39 1.95c-.28.62-.53 1.4-.71 1.86a3.72 3.72 0 00-.25 1.17c0 .29.07.9-.07.72a11.1 11.1 0 01-1.42-1.42 8.14 8.14 0 00-1.82-2.13 5.66 5.66 0 00-3-.88 3 3 0 00-2.28.62 7 7 0 01-1.69 1.17c-.53.24-1.8.73-2 1.2s-.28 1.71-.49 2.05a15.12 15.12 0 01-1 1.84 13.23 13.23 0 00-.81 1.14c-.1.16-.77.2-1 .43s-.22.27-.19.69a5.22 5.22 0 01-.1 1.37 1.48 1.48 0 00-.25.73 1.29 1.29 0 00.15.86c.2.31.64 1 .33 1a2.3 2.3 0 01-1.09-.6c-.2-.26-.25-.67-.52-.58a4.54 4.54 0 01-1.05.27c-.53.05-.76-.11-1.26-.08s-1.34-.18-1.19-.37A7.33 7.33 0 0054 232v-.18s.15-.31-.86-.29-.73-.31-1-.33-.94.33-1.06.16 0-.69-.25-.89-.86-.88-.61-1.17.68-.57.73-1.12a1.88 1.88 0 01.28-1.06c.18-.21.8-.62.69-.72a17 17 0 00-1.4-1.25c-.38-.26-1-.91-.88-1.3s.45-1.09-.13-1.17a2.76 2.76 0 00-1.59.49c-.33.21-.66.42-1 .68s-1.36.41-.93.1 1.54-.88 1.84-1.17a10.87 10.87 0 011.67-1.06 4.77 4.77 0 001-.75 7.67 7.67 0 01.86-.83c.4-.31 1-.44 1.34-.76s1-.67 1.06-.92a10.3 10.3 0 00.27-1.72 6.08 6.08 0 01.74-1.79c.25-.37.43-1.09.77-1.4s1-.68 1.2-1 .54-1.17.79-.8a12.73 12.73 0 01.73 1.48c.2.41 1.1 1.74 1.35 1.76s.22 0 .7-.23a5 5 0 011.47-.55 6.29 6.29 0 011.16-.15h1.32s1.76-.57 2-1.32a3.18 3.18 0 00.09-1.58c0-.26-.45-.91.08-1s.53 0 1-.44.63-1 1-.93a.9.9 0 001-.42l.21-.23a2 2 0 01-.7 0c-.45-.12-.71-.17-.77-.52s0-.77-.21-.62-.53.1-.77.32-.26.47-.77.6-1.09.47-1.48.22-.38-.35-.59-.15-.48.21-.57.43a1.13 1.13 0 01-1.13.77c-.77 0-.74-.4-1.19-.37a7.62 7.62 0 00-2 .44c-.32.18-1.46.88-2 1.15s-1.72.52-1.93.62-.64.65-.93.75a4.9 4.9 0 01-1.25.17 4.21 4.21 0 01-1 .08c-.5-.08-.46-.7-.68-1.13s-.73-1.41-1.47-1.36a2.24 2.24 0 00-1.43.94 3.89 3.89 0 00-.82 1.27c-.11.38 0 1.08-.16 1.28a1.35 1.35 0 00-.45.77c0 .35.05 1.22 0 1.44s-.26.7-.53.77-.64 0-.56.28a4.22 4.22 0 01.27 1.19c0 .3 0 .4-.45.73s-1.14.54-1 .35.1-.58.39-.58.51.05.48-.27-.5-.72-.93-.82a4.74 4.74 0 01-1.22-.43c-.21-.15-.55-.62-1.11-.67a8.11 8.11 0 00-1.06 0c-.22 0-.45-.15-.32-.35s0-.75-.37-.73a12.44 12.44 0 00-2.31.33 15.59 15.59 0 01-2.15.32 3.5 3.5 0 00-1.33.45c-.34.27-.45.55-1.11.55a5.09 5.09 0 01-1.83-.62c-.56-.23-.51-.45-1.28-.48a2.89 2.89 0 01-1.37-.26zm175-174.27c.35.25.71.47 1.07.68A38.07 38.07 0 00212 44c2.39.87 4.59 2.94 7.32 2.53s4.54-3 6.17-4.83c.55-.63 2.36-3.08 2.44-1.18.13 2.91-3.16 4.71-3.67 7.4-.41 2.18 1.92 3.59 2.19 5.62.13.92-.25 1.87-.1 2.79a2.52 2.52 0 001.78 2 3.62 3.62 0 001.79.08c.58-.18.7-.72 1-1.16a2.76 2.76 0 011.36-1.11c.38-.12 1.19-.2 1.26.34s-.69.88-.95 1.11c-1.06.94-2 2.34-3.45 2.67s-3-.07-4.24.88c-.62.45-1 1.23-1.62 1.63-1.22.76-1.75-.56-2.63-.42-.64.1-.8 1-1.22 1.41-.58.55-1.78.06-2.43-.13a8.38 8.38 0 00-4.62-.3 16.19 16.19 0 00-6.31 4.44c-2.3 2.31-5 4.69-5.81 7.91-.27 1.08.29 2.08.11 3.18s-1.18 2.16-1.16 3.41c-2.63-3-6.34-4.06-9.82-5.88a16.24 16.24 0 01-3.51-2.28 12.22 12.22 0 00-2.61-1.61c-1.72-.92-3.21-2.33-5.14-2.86a3.27 3.27 0 00-1.83.14 11.88 11.88 0 00-3.56 1.91c-1 .69-2.82 4.39-4.36 3.73-.42-.18-.52-.76-.7-1.11a8 8 0 00-.76-1.07 6.8 6.8 0 00-2.13-2.39 4.14 4.14 0 00-4.25.42 6.53 6.53 0 00-1.81 3.53c-.26 1.89.87 1.88 2.17 2.85.86.64 1.22 1.21 2.34 1.26 2 .09 2.77.83 4.05 2.26a5.27 5.27 0 001.84 1.7c.95.46 2.22 1 1.21 2.05-.45.44-1.49 1.27-2.22 1a11.15 11.15 0 01-1.72-1.14 3.41 3.41 0 00-1.87-.27c-1.46 0-2.36 1-3.23 2-.54.63-.45 1.36-.66 2.11-.15.52-1.2 1-1.61 1.35a18.32 18.32 0 01-1.5 1.41 2.94 2.94 0 01-2.79-3c0-.89.4-4.4 1.83-4 0-1.1.41-2.13.09-3.21a4.4 4.4 0 00-1.25-1.92c-.53-.42-1.24-.49-1.75-.94s-.58-.94-1-1.32c-1.71-1.6.16-6.52 1.72-7.83 1.76-1.48 4.68-1.78 6.16-3.47a5.62 5.62 0 001.36-2.84c.13-1.06-1-1.86-1.61-2.57-.85-.92-1-2.92.58-3.23 2.36-.47 2.87 1.77 4.75 2.41a4.42 4.42 0 001.4.18c.48 0 1.1-.29 1.51-.25.74.06 1.19.83 1.95.88a3.23 3.23 0 002.48-1 5.07 5.07 0 001.58-2.57c.16-1.11-.52-1.49-.79-2.44-.19-.69.13-1.32 0-2-.12-.87-.68-1.46-.45-2.4s1.07-1.34 2-1.74a4.75 4.75 0 001.92-1.55c.07-.09.07-.26.12-.32a.11.11 0 01.11-.06.42.42 0 01-.06-.34 7 7 0 00.25-1.24c.06-1.29-.12-2.59 0-3.88a10 10 0 01.89-3.16 15.91 15.91 0 00.56-2.51 13 13 0 00-.44-6.06c-.48-2-2.25-3.86-2.27-6 0-1.34.6-3.69 2.14-4.12.88-.24 1.59-.28 2.12-1.07 1.12-1.66 1.87.94 2.63 1.66a23.64 23.64 0 012.64 2.53 29.85 29.85 0 002.45 3.06c2.47 2.48 3.65 5.8 6 8.41a34.76 34.76 0 002.86 2.61 24.54 24.54 0 003.49 2.77c1.22.77 2.66 1.15 3.84 1.91zM132 146.17a3.1 3.1 0 001-.75c.16-.22.63-.94.8-.92s.19.37.16.75a4.58 4.58 0 01-.36 1.47c-.19.4-.92 1.24-.64 1.5a1.26 1.26 0 00.84.47c.41.05.85 0 .94.32a3.29 3.29 0 01-1 2.37 8 8 0 01-1.85 1.29 6.57 6.57 0 01-1.91.48c-.25 0-.33-.3.11-.5s.67-.27.67-.67 0-.78.25-.95.74-.62.41-.85-.44-.45-.72-.2-.27.7-.45.54a1.38 1.38 0 01-.38-.86c0-.25.11-.57.14-.8a4.17 4.17 0 01.39-.75 12.08 12.08 0 01.72-1.09s.57-.75.88-.85z"/></g><g id="pin"><path d="M153 94.59a15.27 15.27 0 00-15.44 15.12c0 9 9.75 21.43 13.77 26.16a2.21 2.21 0 003.37 0c4-4.73 13.75-17.15 13.75-26.16A15.28 15.28 0 00153 94.59zm0 20.52a5.4 5.4 0 115.52-5.4 5.46 5.46 0 01-5.52 5.4z" fill="#00aff0" fill-rule="evenodd"/></g></svg>