<svg version="1.1" id="レイヤー_1" xmlns="http://www.w3.org/2000/svg" xmlns:xlink="http://www.w3.org/1999/xlink" x="0" y="0" width="467.9" height="433.6" viewBox="0 0 467.9 433.6" xml:space="preserve"><style type="text/css">.st1{fill-rule:evenodd;clip-rule:evenodd;fill:#0c308e;stroke:#aabde7}.st2,.st4{fill:#dbedff;stroke:#aabde7}.st4{fill-rule:evenodd;clip-rule:evenodd;stroke:#b2c5eb}</style><g><g><g><g><defs><rect id="SVGID_1_" y="1" width="225.4" height="262.7"/></defs><clipPath id="SVGID_00000003785647716154753380000012063510441552067770_"><use xlink:href="#SVGID_1_" overflow="visible"/></clipPath><g clip-path="url(#SVGID_00000003785647716154753380000012063510441552067770_)"><g><path class="st1" d="M108.1 193.1c-.6-1.3-.8-1.3-1.3-2.5s-.7-2.1-.7-2.3-.7-1.4-.7-1.6c-.1-.2.2-.7 1-1.2.8-.4 1.6-2.1 2-2.4.4-.2 1.3-.9.7-1.3-.6-.4-1.5-1-1.7-1.2s-1.3-.7-1.3-1.5c-.1-.8.5-1 .8-1.8.3-.7.4-1.2.4-1.6 0-.4.5-1.1 1-1.9.5-.8 1-1.3 1.1-2.1.1-.9.6-1.8 1.2-1.6s1 .8 1.4 1.2c.4.3.4.9 1.3.7.8-.2 1.4-1.2 1.4-1.2l1.1-1.4s2.4-3.6 2.8-4.3 1.6-2.9 1.6-2.9.5-.8 1.2-.5.9.8 1.5.8c.6.1 1-.1 1.7.3.8.4 1.5.6 1.8 1.2.3.6.1 1.1.1 1.3-.1.2-.2 1.1-.1 1.7.1.6.6 1.3 1.7 1.5s1.5.4 1.8-.1 1.1-1.8 1.1-1.8-.2-.3.7-.1c.9.3 2.3.3 2.8.3.5-.1 2-.1 2-.1s1.3-.1 1.7.2.8.7.8 1.3-.4 1.6-.2 2c.3.3.4 1 1.9.9s2.3-.1 2.3-.1 1 .3 1.3-.3c.4-.6.5-1.1.6-1.3s.3-.4.7-.6c.4-.2.7-1.1 1.1-1.1.2 0 .7-.1 1.2 0 0-.4 0-.8-.1-1.5-.1-2.1-.6-3.6-.6-4s.7-.9-.1-1.8l-.5-.5c-.4.1-.7.2-.7.2s.3 0 .7-.2c-.6-.6-1-1-1.6-1.5-.7-.6-1-1.2-1.8-1.3-.7-.1-1.6.2-1.9-.9-.3-1 .7-.9.4-2.7s-.6-2.4-.6-2.4-.1-.7.3-1.3c.4-.6.3-1 .2-1.6-.2-.6.1-.9-.3-1.3s-.7-.6-1.5-.9c-.7-.3-1.2.4-1.5-.9s-1-1.9-1-1.9-.4-.9.4-.6c.9.3 2.1.7 2.5-.3s.4 0 .4-1 .1-1 .4-2.1c.3-1 .4-.3-.3-1.2s-1.6-2.5-1.6-2.5-1.5-1.3-.9-2.2.9-1.5 1.8-2.1c.9-.6 1-.4 1.6-1.8.6-1.3.6-2.5.6-2.5l-.3-2.5s.9-2.4.4-3.4c-.4-1 .1-1.9-1.8-2.4-1.9-.4-1.6-.6-3.1-.6s-1.9-.6-2.5.4-1.2 1.6-2.1 1.3c-.9-.3-1.6-.7-1.6-.7s-.3-.6-.7 0-.7 1.5-1.6 1c-.9-.4-.5-1.5-1-1.6-.6-.1-1.8.2-2.2-.1l-1.6-1.2s-1 .9-1.2-1-.2-2.4-.2-2.8-.3-.9.2-2.7c.4-1.8.3-2.5.7-3 .4-.4 1.2-.7 1.3-2.2s-.9-1.9-.2-3c.7-1 1.6-1.6 1.9-2.5s-.4-1.8.3-2.2c.7-.4 3.3-1 4.3-1.6s2.1-.7 2.2-2.2c.1-1.5-.2-2.4.6-2.7.7-.3 2.2-.3 3.1-.4.9-.1 1.9-.4 2.7-1 .7-.6 1.6-.9 2.4-1 .7-.2 1.6-.6 2.2-.6.3 0 .7.1 1.2.1 0-.5.1-1.5.1-2 0-.7-.4-1.1-1.1-1.7-.7-.6-.7-.7-.6-1.4.1-.7 1.2-.6 1.5-1.2s.1-1.2-.4-1.6-.4-.8-.1-1.4c.2-.6.7-2.1.4-2.9s-2.4-.9-2.4-.9-.5-.5-.9-.6-1.2-.9-1.5-1-.4-1.2-.7-1.7c-.3-.6-.9-.7-1.4-.8s-.5-.5-.7-1.3-.7-.9-.7-.9.1-4.1.1-4.6-.1-1.1-.6-1.8c-.4-.7-.1-.5-.4-1.2-.4-.7-.9-.9-1.7-1.2-.9-.3-.7-.1-1.6-.3-.9-.1-.7-.4-1.7-.2-1 .1-1.5.5-1.5.5s-.4.1-1.4.1c-.9 0-2 .7-2.4 1-.4.4-.7.5-1.7.7-1 .1-1.7.6-2.7 1.2-.9.7-.4 1.7-.4 1.7s-.8 1-1.1 1.5-.1.5-.1.8c-.1.3-.1.5-.3.7-.1.2-.2.4-.9 1.3s-.8.3-1.4.3-1.2 0-2 .4-1.2 1.5-1.2 2.2c.1.7.1.7.1 1.5-.1.9 0 .7-.3 1.5-.3.7 0 .4.3 1.4.3.9-1.7 0-1.7 0s-1-.9-1.3-1.1c-.3-.1-.9.1-1.4.1-.4 0-.7-.6-1.9-.5s-.5.5-.7.9c-.1.4-.6.5-1.6.7-1 .1-1.7.6-1.7.6s-2-.1-3.3-.1-1.6.7-1.6.7-.5.4-.9.5-.4.4-.5.7c-.1.3-.3 1.2-.3 1.4 0 .2-.4.9-1.3 1.1-.9.1-.9-.3-1.2-.5-.3-.2-1-.3-1-.3l-.9-.7-.9-.4-.5-.5.2-.5s.5-.9.5-1.3-.1-1 .1-1.5c.1-.5 0 0 .2-.1s.5-.8.7-1.2.3-.7.4-.9c.1-.2-.1-.6-.6-.6-.5-.1-.7-.2-.9-.7-.1-.4-1.2-.9-1.9-.9-.6 0-1.7.3-2 .4s-.7 0-.8-.3c-.1-.3-.6-.4-.6-.4s-1.1-.2-1.9-.5-.7.2-1.6.3-1.5 0-1.8-.1c-.4-.1-.7.7-.5 1.2s-.5.5-.5 1.1.1.6.2 1.1.5.6.5 1.6-1 .9-1 .9-.5 1.1-.9 1.8-.6 1-1.1 1.7-.9.9-1.2 1.2c-.4.3-1.1 1.4-1.1 1.4s-1.5 1.2-2.6 1.8c-.5.3-.8.4-1.1.4v.8s-.1 2.6-.3 3.1c-.2.5-.3 2.1-.3 2.7s.1 1.7.3 3c.1 1.4.1 2.1.1 2.6s-.2 1-.7 2c-.5.9.4 1.4.3 2s-.8 1.3-1.4 1.3c-.7 0-.9.5-1.3.7s-.9.7-1.6 1.1-.2 1.3-.6 2.3.4.8.4.8.6.1.9.6-.3 1.1-.4 1.7c-.1.7-.7.1-1.6.3-.9.2-.7.4-.8.9-.1.4-.1.5-.7 1.1s-.7 1.3-.7 2.7c0 1.4-.7 1.5-.9 1.7s0 .8-.5 2-1.2.4-2.2 1c-.9.6-.1.9-.6 1.8l-.6.9 1 1.3 1.2 1.3c.5.6 1.3 1.1 1.5 1.4s.9.6 1 1 0 .7 0 1.5 0 1.5-.1 2.1-.2 1.1-.5 1.5-.7.6-1.2 1.2c-.6.6-2.6 3.3-2.6 3.3s-.1.6-.5 1.1-.3.2-.6.8.4 1.8.7 2.3c.4.5.5 1.1.4 1.8s-.1 1-.7 1.4c-.6.4-1.3 1.2-1.6 1.5s-.4.6-.4 1 .1 1.1.1 1.5c-.1.4-.2 1-.2 1s.4.9.7 1.3c.3.4 2.1 1.4 2.4 1.8.3.4 1.3.9 1.5 1.4.1.6-.5 1.1-1.1 1.9-.6.8-.4 2.5-.5 3-.2.5-.6 1.2-1.3 1.7s-1.6.8-2.3 1.4c-.7.6-.5 1.2-.5 1.2l-.7 1s-.2.8-.5 1.4c-.3.6-.9.4-1.5.7s-.3.6-.4 1.2c-.1.6-1.6 2.5-2.1 3s-.7.3-1.3.3-1-.6-1.6-1c-.7-.4-1-.3-1-.3s-1.7.6-2.3.7c-.6 0-1.3.8-1.7 1.2s-.6 2-.7 2.3-.1 1-.3 1.3c-.2.4-1.3.4-1.7.4s-1 1.5-1 2 .7 1.6 1 2c.3.5.8.3.8.3s.6.1.8.2c.2.1 1.3-.2 1.9-.2s.9.7.9.7.1 1.5.6 2 2.2.2 2.2.2.3.2.6.5c.3.4.3.2 1 .5s.6 0 .9.4c.4.4.4 1 .5 1.5s.3.6.8 1.1.6.6.7 1c0 .4.1.8.3 1.3.1.5.7 1.6.7 1.8s1.3.9 1.8 1.3 1.5.9 1.5.9 0 .5.2 1c.1.5 0 .6-.2.8-.2.3-.9 1-.9 1s-.2.9-.3 1.2-.4.4-.7.9.5 1.1.5 1.1 1.3 1.2 1.5 1.5 1.8 1.5 2 1.9.5 1.3 1 2.2c.4.9 1.5 1.3 1.8 1.5.4.2 1 .4 1.3.6.4.2.6.8.7 1.1s-.3.6-.3.6 0 .9.1 1.3.2 1.1.2 1.6c0 .4-.5.5-.5.5s-1.4 1.1-1.7 1.4c-.3.4.1 1 .1 1s.5.3.9.5c.3.3.4 1 .6 1.6s.4.5.8 1.4-.3.9-1 1.3-1.3.1-2.3-.1c-1-.2-.5.3 0 1.2.5 1 1 2.7 1 3.2s-.2 1.1-.4 1.3c-.3.3-.9 1-1.7 1.7-.9.7-1.2 1.5-1 1.8s.2 1.2-.3 1.5c-.1.1-.3.1-.6.1l.1.4s0 1.1-.3 1.5 0 .5-.1 1.3 1.3 1.3 1.9 1.6c.5.3.5 1.3.5 1.3s-.4 1.5 1.3 1.6 1.3-.7 1.9-.8c.5-.1 1.2.1 2.1.1s.7-.8.9-1.5c.3-.7.7-.5.7-.5l1.1-.3s1.9-.1 2.8-.1 1.2 1.2 1.7 1.6c.5.4 2.1.4 2.1.4l.1.8c.1.8 2.8-.3 2.8-.3l1.6-.7.6.1c.1-.3.3-.8 1.4-.9 1.6-.1 2.2.5 2.5-.5.3-1.1.7-2.2.7-2.2s-.3-.3 1.1-.4c1.3-.1 1.9-.8 2.1-1.2.3-.4-.3-.7 1.1-1.1 1.3-.4 1.9-.5 1.9-.5s.8-.4 1.9-1.3c1.1-.9.9-.9 2-.9s.9-.4 1.5-1.1c.5-.7 1.2-.8 1.5-1.3s-.3-1.3 1.2-1.3 1.5 1.3 2.2 0c.8-1.3.4-1.6 1.3-2.1s-.7.3.9-.5 1.9-.8 2-1.5.3-.7.3-1.2v-.5l-.4-.8s-.5.5-.5-.3-.4-.4-.9-1.2-.5-2.1-.5-2.1.7-.8 1.2-.9c.5-.1 1.9.4 1.9-.8s.1-1.7-.3-2.4-.9-.8-.9-1.2-.3-.9 0-1.5c.3-.5.7-1.2.7-1.2l.1-.8-.5-1.2s-.4-1 .1-1.5c.5-.6 1.2-1.1 1.2-1.1s.7.3 1.3-.3c.5-.6.8-1.5.8-1.8.1-.3 0-1 .3-1.4.3-.3.5-.3.9-.9.3-.4.7-.4.8-.9l-.8-.7.8.7c-.8-1.1-.8-1.3-1-1.7z"/><path class="st2" d="M171.3 240.5c0-.9.3-1.2-.1-1.9l-.4-.7-1.2-.3s-.9-1-1.2-1.8-.4-.7-.7-1.7c-.2-1-.3-2.6-.3-2.6s.4-1.8 1.2-3 1-2.1 1-2.1l.3-1.6s.4-.7.3-1.2c-.1-.6-.7-3.1-.7-3.1l-.8-2.5s.7-.6 0-.6-2.6-.6-2.6-.6-2 .3-2.6.3c-.4 0-.7-.2-1.1-.2-.2.3-.4.5-.4.5s.2-.1.4-.5c-.2 0-.5.1-.8.4-.9.8-.9 1.7-2.1 1.3-1.2-.3-.8-.8-1.9-.3-1.1.4-2.7 1.3-2.7 1.3l-3.1.1-2.6.2-2.2.3-2.3.6-.9-.2v-1.8l-1.8-.7-2.6-.7s-.6-.3-.8-.9c-.2-.6-.8-1.9-.8-1.9s-.4-1.6-1.3-1.6-2.1 1.3-2.1 1.3l-1 1.2s-.8-.3-.8.8-.2 2.5-.2 2.5-.3 1-.3 1.7.7 1.7.6 2.2c-.1.6-.6 1.1-.6 1.1s-.7-.1-.8 1-.2 1.8-.1 2.4c.1.6.6 2.5.6 2.9s.1 2.1.1 2.1l.7 1.3s-.2.6-.2 1.3c0 .8.6 1.2-.2 1.3s-.4.2-.9.8c-.4.6-1 1.3-1 1.3s-.9 1.1-1.3.7l-.4-.4s-2.3-.2-2.9-.4-.9-.7-1.1-1-.2-.8-.9-1-1.7-.7-1.7-1.1c0-.4-.7-2.4-.7-2.4l-.9-2.5s-.4-.4-.6-1.6c-.1-1.1.2-2.7-.1-3.1-.3-.4-1.3-.6-1.3-.6s-.6-1.3-1.3-1.1c-.8.2-2.7.8-2.7.8l-1 1s-.8.2-1.2-.3c-.4-.6.2 0-.4-.6-.7-.6-1.1-.3-.9-1.3s.3-1.5.2-1.9-.9-1.5-.9-1.5-1-.4-.3-1.7c.7-1.2 1.5-1.9 1.6-3.1.1-1.2-.2-2.3-.2-2.3s-1.2-.8-.4-2 .8-3 .8-3 .3-.7.4-1.5-.4-1.5-.4-1.8-.1-.9-.1-1.3 0-.8-.1-1.1-.9-1.3-1-1.7c-.1-.3-.4-1.1-.4-1.5 0-.3-.1-1.6-.1-1.6l-.4-1.1-.4-1.5-.7-.6c-.1.4-.5.5-.8.9-.4.6-.6.6-.9.9-.3.3-.3 1.1-.3 1.4-.1.3-.3 1.2-.8 1.8-.6.6-1.3.3-1.3.3s-.7.5-1.2 1.1c-.5.5-.1 1.5-.1 1.5l.5 1.2-.1.8s-.4.7-.7 1.2 0 1.1 0 1.5.5.5.9 1.2.3 1.2.3 2.4-1.3.7-1.9.8c-.5.1-1.2.9-1.2.9s0 1.3.5 2.1.9.4.9 1.2.5.3.5.3l.4.8v.5c0 .5-.1.5-.3 1.2-.1.7-.4.7-2 1.5s0 0-.9.5-.5.8-1.3 2.1-.8 0-2.2 0c-1.5 0-.9.8-1.2 1.3s-.9.7-1.5 1.3c-.5.7-.4 1.1-1.5 1.1s-.9 0-2 .9-1.9 1.3-1.9 1.3-.5.1-1.9.5c-1.3.4-.8.7-1.1 1.1-.3.4-.8 1.1-2.1 1.2-1.3.1-1.1.4-1.1.4s-.4 1.2-.7 2.2c-.3 1.1-.9.4-2.5.5-1.1.1-1.3.6-1.4.9l.6.1-.7.9-.5.7c-.5.7-.9 1.1-.9 1.1s.4.8 1.3 1.3 0 0 0 .5-.4.9-.4.9 0 .5-.1.9-.7.8-1.2 1.1-.4.7-.4 1.7c0 1.1-.1 1.2-1.1 1.6-.9.4-.7.5-1.1.9s-.7 1.5-1.3 2.4c-.7.9-2 1.2-2 1.2s-.5 1.6-1.7 3.4c-1.2 1.9-.5 3-.5 3s-.3 1.3-.9 2.4c-.7 1.1-1.1 1.1-2.1 1.5-1.1.4-.4.8-1.2 2.5s-.8 2.7-1.2 3.2-.8.5-2.1.8-.8.8-1.2 1.7c-.4.9-.8.3-1.9.3s-2 .3-2.5.5c-.5.3-1.5.8-2.1 1.3-.7.5-.3.9-.8 1.6s-.1 1.3.1 2.1c.3.8-.3.9-1.5 2.4s0 1.3.1 2.4.3 1.5.7 2.4c.3.8.2 2.7-.1 4.3 2.1-.3 4.2-.6 6.4-.9 4.4.4 5.6 0 10.6 1.3 10.9 4.5 25.1-3.1 37.5 6.2 1 0 1.8.9 3.6.5-.3 0 .2-.7-2.3-2.8-.4-1.6-.4-2 .5-5.1.2-2.4 4.3-6.6 6.8-8.5l2.6-4 1.1-2.2c-.5-.9-1.6.3-1.3-3 .3-.5 2.8-5 2.8-5 1.6-.6 7.6-2.8 10.1-4l2.3-2 1.3-1.6-.2-1.2c0-.2-.5.3-2-.7-.3 0 .5-3.1 3-3.2l1.4-4.9 4.7-1 4.5-1.6c1-.7 7.5.5 9.3.8 1.6 1.2 5 1.9 5.7 5.4.5.6.2 1.2 2.4 2.6l-.8 1.9-3 .3-1.9-.4-2 .1-.8-.2-1.8 5.2.3 2.8.8 1.8.3 1.2-1 1.3-.9.3v2.7l1 .8-.2.9-.7.8v1.5l.3 2.4v1.3l.7 1.3.1 1.3c-.6 0-1.1.4-1.1 1.9l-1.2.3-.2 2.8 1 .3 2 2.9-.4.8.3 1.8 1.2.6c.6.5.1 1.5 2.6 2.3.6.1 1.2.4 1.2.4l1.6-1.3 2.3-.5c.4-.5.8-.8 1.9-2.7l1.9-1.6.7-.3.4.8 1.4.5.5-.7-.8-1.1c.2-1-.2-.8.5-3.6l.6-.2s.7-1.4.8-1.7c.2-.1.1-.8 1.6-2.2 0-.2.6.3 1.7-1.5.7-.3.7-.7 1.6-2.2l.9-2.3.8-1c-.3-1 .5-3.6 2.4-5.1l1-.8c.6-2.1 1-4.3-.6-7.7-.4-.8-2.1.1-2.9-3l.7-.8.5-2.8-1.7-.8-.5-1.2c1.2-.4-.6-2.9 2.3-4 .1-.2.3-.9.6-1.8-2.3-.7-4.9-1.7-5.3-2-.9.2-1.1.5-1.1-.4zM56.2 228.8c.4-.3.4-1.1.3-1.5-.2-.4.2-1.1 1-1.8.9-.7 1.5-1.5 1.7-1.7.3-.3.4-.8.4-1.3s-.4-2.3-1-3.2c-.5-1-1-1.4 0-1.2s1.6.5 2.3.1 1.3-.4 1-1.3c-.3-.9-.6-.8-.8-1.4-.2-.6-.3-1.3-.6-1.6-.4-.3-.9-.5-.9-.5s-.3-.7-.1-1c.4-.6 1.8-1.6 1.8-1.6s.5-.1.5-.5-.1-1.1-.2-1.6c-.1-.4-.1-1.3-.1-1.3s.3-.3.3-.6c-.1-.4-.3-1-.7-1.1-.3-.2-1-.4-1.3-.6-.3-.2-1.4-.6-1.8-1.5s-.8-1.8-1-2.2-1.8-1.7-2-1.9c-.2-.3-1.5-1.5-1.5-1.5s-.8-.5-.5-1.1c.3-.5.6-.6.7-.9.1-.3.3-1.2.3-1.2s.8-.8.9-1c.2-.3.3-.3.2-.8l-.2-1s-1-.5-1.5-.9-1.8-1.2-1.8-1.3c0-.2-.6-1.3-.7-1.8s-.2-.9-.3-1.3c-.1-.4-.2-.5-.7-1s-.7-.7-.8-1.1c0-.5-.1-1.1-.5-1.5s-.3 0-.9-.4c-.7-.3-.7-.1-1-.5s-.6-.5-.6-.5-1.8.3-2.2-.2c-.5-.5-.6-2-.6-2s-.3-.7-.9-.7-1.7.3-1.9.2-.8-.2-.8-.2-.5.2-.8-.3-1-1.5-1-2 .6-2 1-2 1.5 0 1.7-.4.2-1 .3-1.3.3-2 .7-2.3c.4-.4 1.1-1.1 1.7-1.2.6-.1 2.3-.7 2.3-.7s.4-.2 1 .3c.7.4 1 1 1.6 1s.8.2 1.3-.3 2-2.4 2.1-3-.3-.9.4-1.2c.6-.3 1.3-.1 1.5-.7.3-.6.5-1.4.5-1.4l.7-1s-.1-.6.5-1.2c.7-.6 1.6-.9 2.3-1.4s1.2-1.3 1.3-1.7c.2-.5-.1-2.2.5-3s1.3-1.3 1.1-1.9c-.2-.6-1.2-1-1.5-1.4s-2.2-1.4-2.4-1.8c-.3-.4-.7-1.3-.7-1.3s0-.6.2-1c.1-.4-.1-1.1-.1-1.5s.1-.8.4-1c.3-.3 1.1-1.1 1.6-1.5.6-.4.6-.7.7-1.4s0-1.3-.4-1.8-1-1.7-.7-2.3.2-.3.6-.8.5-1.1.5-1.1 2.1-2.7 2.6-3.3c.6-.6.9-.8 1.2-1.2s.5-1 .5-1.5c.1-.6.1-1.3.1-2.1s.1-1.1 0-1.5-.8-.7-1-1-1-.9-1.5-1.4l-1.2-1.3-1-1.3c-.4.5-.8.8-.8.8s.4-.3.8-.8l-.1-.1s-.1-.3-.4-.3c-.4 0-1.1.1-1.1.1s-.3.4-.9.1c-.7-.3-1.3-.4-1.9-1s-1.5-1.8-1.5-1.8l-.3-.7-1.1-.1h-1.5s-.3-.1-.3.1c-.1.2-.1.8-1.1.8-.9 0-1.7-.1-2.6-.5s-2.1-.4-2.3-1.1-.2-1.7-.3-1.8c-.2-.2-.8-.2-1.1-.2-.2.1-1.1.2-1.1.2s.1.7-.1.9c-.2.2.1.7-.5.7s-1.1.1-1.5.2c-.3.2-1.3.6-1.3.6s-.3.3-.6-.1-.6-.7-.2-1.2c.3-.5.4-1.3.4-1.3s.3-.3-.2-.3-1 .3-1.4.2c-.4-.1-.6-.2-1-.2s-1.1.5-1.1.5-.1.6-.8.3c-.7-.2-.9-.4-1.2 0-.3.4-.3.6-.6.7-.3.1-.4.3-.7.4-.2.2-.2.5-.7.5-.4 0-.9-.2-1.1-.5s-.5-.8-.8-.9-.7-.2-.7-.2-.6-.3-1.2-.2c-.7.1-.9.5-1.1.7s.1.6-.3.7-.9.1-1.1.6-.1 1-.4 1.2-.6.4-1 .6c-.3.1-.2.1-.6.7-.3.7-.3.8-.8.9s-.3.1-.4.6.3.7-.2.9c-.4.2-1 .2-1.2.3-.2.1-.5.3-.7.6-.2.3-.3.2-.4.7-.1.6.2.8-.3 1.2-.5.4-.6.6-.5 1.1.1.4.2 1.2-.1 1.7-.3.5-.9 1.2-1.2 1.2-.3-.1-.4-.4-.6-.1-.2.3-.5 1.2-.5 1.2s-.3.2-.4.4c-.1.3-.4 1.1-.9 1.2-.5.2-.8 0-1 .2s-.8.7-.8.7-1.2.4-1.3-.1c-.2-.4.3-1.2.4-2 .2-.8.3-.8-.1-1.6s-.6-1-.7-1.4c-.1-.4.1-.6-.9-1.2s-1.1-.6-1.5-.8c-.4-.2-1-.9-1.3-.9-.4 0-1.1 1.1-1.6 1.1-.5.1-1 .3-1.1-.1s-.2-.7-.2-.7-.6.2-.6.4c-.1.2-.9.3-.9.3s-.7-.4-.7.1.2.9.1 1.2l-.6 1.8-.7.9s-.8.3-1.1.3h-1.8c0 .2 0 .5.1.6.2.5.8.9.8.9s.4.7.6.9c.1.2.3.5.8 1.1s.5.2 1 .2.7.5.9 1.3c.2.7-.2 1.3-.3 1.6-.2.3-1.3 2.5-1.9 3.1-.5.7-1.3 2.2-1.5 2.4s-.9 1-1.9 1.3-.1 1.3.2 2.6c.4 1.3-1.3 2.5-1.3 2.5s-.7.7-1 .9-.1 1-.1 1.4.1.7.4.9c.2.2.4 1 .4 1l-.3 1.2c-.2.7-.4.4-.7.5-.2.1-.2.7-.2 1 0 .4-.2.8-.3 1.4-.1.5-.6.9-.8 1v.3c.1.9.7 1 1.3 2s.7 1.6.7 2.3.6 1.1.6 1.1 1 .3 1.5.6c.4.3.6 1.2.5 1.6-.1.4.1.7.5 1s1 .7 1.6 1.3c.5.7.4 1.5.3 2s.4 1.1.7 1.9c.3.8 0 .7 0 1.3 0 .5-1.2.8-1.8 1s-.3 1-.3 1.2-.1.4-.4 2.2c-.4 1.8-2.3.1-2.8 0s-1.2.5-1.8.4c-.6-.2-1.6.7-2.1.9-.4.2-1.9.4-2.9.4s-2.8-.8-4.1-.8-1.7.1-2.8.2c-1.1.1-.7 1.2-.7 1.2s-.9.4-1.8.4-.8-.3-1.8-.1-1 1.8-1.3 2.5-1-.1-1-.1-.4-.7-.7-1c-.3-.2-.4-.2-.8-.5s-.9-.2-1.4-.3-.8.1-1.6 0-1.9-.6-1.9-.6-1.7-.7-2.4-.9-1.5.3-1.5.3-1.2.7-1.7 1c-.5.4-.9.4-1.3.9-.4.4-.4 1.5-.4 1.5s0 1.1.1 2-.3 1.5-.5 1.9-1.1 1.3-1.6 1.9c-.5.6-.1 1.1-.2 2.1-.1.6-.7 1-1.1 1.2.1.4.1.7.1.7l.4 2s0 .9.7.9h1.5s.3-.2.3.2.5 1.9.5 2.6c0 .7-.1 2-.1 2l-.4.8s0 1 .7 1 1.2.1 1.2.6c.1.5 1 1.1 1.2.4.2-.7.6-1.9 1.2-1.2s.6 1.5.6 1.5 0 .3.6.5 1.2.7 1.1 1.2c-.1.5-.6 1.2-.6 1.2l-.2 1v1s.4.5.5.7.1.2.5.7 1.7 1 1.6 1.6c-.2.7-.8 1.8-.7 2.5s.5 1.3.6 1.6c.1.2.5.9.5.9l.9.9s.2.5-.5 1-1.5.7-1.7.9c-.2.2-.7-.1-.4.7.3.7.7.8.8 1.2s0 .9 0 .9-.6 3.1-1.1 3.6-.6.7-.6 1.5.2 1.7 0 2.4-1.1 1-1.1 1.7 1.2 2 1.6 2.1c.2.1.4.3.6.5l.8-.4.5-.2.7.5s.8.7 1.1.2c.3-.5.4-.7.8-1.1.4-.4 1.2-.4 1.7-.6.4-.2 1.7-.2 1.7-.2s.3-.1.4-.3c.1-.3.3-.8.3-.8l.8-.4s1-.3 1 .3c0 .5.7 1.3.7 1.6s.5.3.5.9c0 .5.6 1 .4 1.3s.1.7.1.7l.6.1s.8.4.9.8c.1.4.2.3.6.6s1 .6 1.1 1c.2.4.7 1.2.7 1.2s.4.7.6 1c.2.4 0 .9.7.9s.8.1 1-.3c.3-.4.6-1.2.6-1.2s.5.2.8.9c.2.4.6 1 .9 1.4 0-.1.1-.2.1-.4.2-1.1.3-1.4.3-2v-1.6c0-.3-.4-.8 0-1s.7-.5.7-1.3-.1-2.1-.1-2.1-.2-1 0-1.6 1-1 1-1.3.3-1 .3-1.2c.1-.3 1.1-1.3 1.1-1.3s.6-1.5 1.2-2.3 1.3-2.5 1.5-2.8 1-2 1-2 1-1.4 2.1-1 1.7 1 2.5 1c.9 0 1.2.3 1.7-.3s1.4-1.1 1.4-1.1.4-.1 1.5-.3c1.1-.3 2.5.2 3.4-.4 1-.6 1.6-.9 2.2-1.4s.7-1.8 1.1-1.8c.4 0 1-.4 1.3.3s1.2 1.3 1.2 1.7 0 .1.4.7 1 .7 1 .7 1.1.4 1.4.5c.3.2.8-.3.9.4.1.8.9 1.1.6 1.8s-.3 1.2-.3 1.2.7-.1 1.1.2.4-.3.4.6c0 1-.1 1.5.4 1.8.4.4 1 .5 1.2 1 .2.4.4 1 .9.5.4-.4.9-1.4 1.5-.6.6.8 1.4 1.4 1.4 1.4l.9.3 1.7-.1s.2.2.4.9.3 1.7 1.1 1.8c.9.1 1.5-.3 1.9-.3.4-.1-.4-.1.4-.1.9 0 2.4-.7 2.4-.7l1-1.1s.3-.9.9-.9 1.2-.7 2.7-.1c1.5.6 2.6.6 2.7 1.1s-.2 1.7.5 1.7 1-.1 1.4-.1.8-.4 1 .2c.3.5.7 1.3.7 1.3s.6.2 1 .4c.3.3 1.5-.2 1.5.4 0 .6.7.9 1.4.5s1.2-.7 2.2-1.6c1-.9 1.7-1.5 2.1-1.6s.8-.3 1.3-.8 1.1-1.2 1.6-1.2c.3 0 1.1.2 1.7.2l-.4-1.6.4 1.6c.4.9.6.9.7.8z"/><path class="st2" d="M50.9 282.3c-.4-.9-.5-1.3-.7-2.4-.1-1.1-1.3-.9-.1-2.4s1.7-1.6 1.5-2.4c-.3-.8-.7-1.5-.1-2.1.5-.7.1-1.1.8-1.6s1.6-1.1 2.1-1.3c.5-.3 1.5-.5 2.5-.5 1.1 0 1.5.7 1.9-.3.4-.9-.1-1.5 1.2-1.7 1.3-.3 1.7-.3 2.1-.8s.4-1.5 1.2-3.2c.8-1.7.1-2.1 1.2-2.5s1.5-.4 2.1-1.5c.7-1.1.9-2.4.9-2.4s-.7-1.2.5-3c1.2-1.9 1.7-3.4 1.7-3.4s1.3-.3 2-1.2.9-2 1.3-2.4.1-.5 1.1-.9c.9-.4 1.1-.5 1.1-1.6s-.1-1.5.4-1.7c.5-.3 1.1-.7 1.2-1.1.1-.4.1-.9.1-.9s.4-.4.4-.9.9 0 0-.5-1.3-1.3-1.3-1.3.4-.4.9-1.1l.5-.7.7-.9-.6-.1-.6-.1-1.6.7s-2.6 1.1-2.8.3l-.1-.8s-1.6 0-2.1-.4-.8-1.6-1.7-1.6c-.9 0-2.8.1-2.8.1l-1.1.3s-.4-.1-.7.5c-.3.7 0 1.5-.9 1.5s-1.6-.3-2.1-.1c-.5.1-.1.9-1.9.8-1.7-.1-1.3-1.6-1.3-1.6s0-1.1-.5-1.3c-.5-.3-2-.8-1.9-1.6s-.1-.9.1-1.3c.3-.4.3-1.5.3-1.5l-.1-.4c-.6 0-1.4-.2-1.7-.2-.4 0-1 .7-1.6 1.2-.5.5-.9.7-1.3.8s-1.1.7-2.1 1.6c-1 .9-1.5 1.2-2.2 1.6-.7.4-1.4.1-1.4-.5s-1.1-.2-1.5-.4c-.4-.3-1-.4-1-.4s-.4-.8-.7-1.3-.6-.2-1-.2-.7.1-1.4.1-.4-1.2-.5-1.7-1.2-.5-2.7-1.1-2.1.1-2.7.1-.9.9-.9.9l-1 1.1s-1.5.7-2.4.7 0 0-.4.1-1 .4-1.9.3c-.9-.1-1-1.1-1.1-1.8-.2-.7-.4-.9-.4-.9l-1.7.1-.9-.3s-.8-.6-1.4-1.4c-.6-.8-1 .2-1.5.6-.4.4-.7-.1-.9-.5s-.8-.6-1.2-1c-.4-.3-.4-.9-.4-1.8 0-1 0-.4-.4-.6-.4-.3-1.1-.2-1.1-.2s0-.5.3-1.2-.5-1-.6-1.8-.6-.3-.9-.4c-.3-.2-1.4-.5-1.4-.5s-.5-.1-1-.7c-.4-.6-.4-.3-.4-.7 0-.3-1-1-1.2-1.7-.3-.7-.9-.3-1.3-.3s-.5 1.3-1.1 1.8-1.2.8-2.2 1.4c-1 .6-2.4.2-3.4.4-1 .3-1.5.3-1.5.3s-.9.5-1.4 1.1-.9.3-1.7.3c-.9 0-1.4-.7-2.5-1s-2.1 1-2.1 1-.9 1.7-1 2c-.2.3-.9 2-1.5 2.8s-1.2 2.3-1.2 2.3-1.1 1-1.1 1.3c-.1.3-.3 1-.3 1.2 0 .3-.8.7-1 1.3s0 1.6 0 1.6.1 1.3.1 2.1-.3 1.1-.7 1.3 0 .7 0 1v1.6c0 .6-.1.9-.3 2 0 .2-.1.3-.1.4.2.3.4.4.4.4s.3.4.7.6l.4.2s1 .6 1.2 1.2l.3.6 1 .4.9.3s1.3 1.2 1.7 2.1c.3.9.3 2.1.4 2.4 0 .2.1 1.2.2 2.1.2 0 .4.1.7.2 0 0 .1 0 .2.1h-.1c1.6.1 2.9-.2 5.8-.3 2.1.2-.3 3.8-1.9 6.3l-.4.4s-.3.2 0 .7c.1 1 1.8 4-.7 7.3.1.2-.7 1.1.2 3.3l.6-.6.3-1.2 1.2-1.8 2.1 2.7c-.5 1.5 1.1 4.4-1 7.6.5 1.4 3.9 4.9 7.8 5.8h1.5c.1-1.1-.8-5.5-4-6.4l.1-2.1v-1.6l.9-3.4c.1 0 0-.8 2.1-3l.9-1.5s.1.6 0 1c-.1-.2-.4 3.4-.3 4.3-1.3.9 2.9 2 4.6 4.8l1.2 1.2c.1.2.6-1 3.7-.7.6.1 1.8.1 1.8.1l1-.5h2.2l1.5.1v1.6l1-.6.3-1.6.9-1.5h1.3l1.6-.2 2.8.7h2.4l.6 1.2 1.5.7 1.8 1-1.6 2.7-.9.7.7 1.3-2.8.1c-1.1.3-2.9 2.1-4.4 4.3-1.7.9-1.9-.4-5.7 2.4-.6.3-2.6 1.1-2.6 1.1-.4-.5-1.7 2-2.8-.5-.3-.1-.7-1-.7-1h-1.2c-.6 1.5-2.1 4-3.3 6.5 1.4 1.8 6.9-1 11-.9 6.9-4.3 15.7-6 24.9-7.3.2-1.6.4-3.5.1-4.3zM11.8 65.8c-1-.1-.3.7-1.1 1.6-.8.8-1-.2-2.2-.4-1.1-.1-.6.1-1.4.4s-.4 1-1.1 1.6-2 1.5-2.3 2.1-.4 1.6-.1 2.5c.2 1 0 1.1-.8 2.2S2.2 77.1 2 78c-.2.8-.7 2.6-.7 3.4.1.7-.1 1.4-.4 1.9-.3.4-.2.6.1 1.9.2 1.3-.4 1.5-.7 1.6-.2.1-.8.7-1.2 1.6-.4.8-1.3.5-2.3.8s-.2.8 0 1.1 1 1 1.3 1.6c.4.5 0 1.2 0 1.2s.4.4.7 1.1-.4 1.1-.4 1.1-.7 1-1 1.5c-.4.4-.4.8-.5 1.6-.2.7-1 .4-1.1 1.6s.5 1.7.7 2.8c.2 1.1.9 2.1 1.6 3s-.4 2.3-.4 2.3-.4 1.2-.7 3.1c-.2 1.9.1 1.1.2 1.7s-.2.9-.3 1.7c-.2.8-.4.8-.4 1.7.1.9-.4 1.1-.8 1.4s-1 .6-.9 1.4 1 .8 1.6 1.3c.5.4.4 1.2.7 2.5s.3 2.2-.1 3.3c-.4 1.1-.6 3-.6 3s0 .7.1 1.3h1.8c.3 0 1.1-.3 1.1-.3l.7-.9s.5-1.6.6-1.8c.1-.3-.1-.7-.1-1.2s.7-.1.7-.1.9-.1.9-.3c.1-.2.6-.4.6-.4s.1.3.2.7c.1.4.6.2 1.1.1s1.2-1.1 1.6-1.1.9.7 1.3.9c.4.2.6.2 1.5.8.9.6.8.7.9 1.2.1.4.3.6.7 1.4s.2.8.1 1.6c-.2.8-.6 1.6-.4 2 .2.4 1.3.1 1.3.1s.6-.5.8-.7.4-.1 1-.2c.5-.2.8-1 .9-1.2.1-.3.4-.4.4-.4s.3-.9.5-1.2.3.1.6.1c.3.1.9-.7 1.2-1.2s.2-1.2.1-1.7c-.1-.4 0-.6.5-1.1.5-.4.2-.7.3-1.2.1-.6.2-.4.4-.7.2-.3.6-.5.7-.6.2-.1.7-.1 1.2-.3.4-.2.1-.4.2-.9s-.1-.4.4-.6c.5-.1.4-.2.8-.9.3-.7.2-.6.6-.7.3-.1.6-.3 1-.6.3-.2.2-.7.4-1.2s.7-.5 1.1-.6.2-.4.3-.7c.2-.2.4-.7 1.1-.7.7-.1 1.2.2 1.2.2s.4.1.7.2.6.6.8.9.6.5 1.1.5c.4 0 .4-.3.7-.5.2-.2.4-.3.7-.4.3-.1.3-.3.6-.7.3-.4.6-.2 1.2 0 .7.2.8-.3.8-.3s.5-1 .9-1 .6.2 1 .2c.4.1.9-.2 1.4-.2s.6.8.6.8-.1.8-.4 1.3-.1.8.2 1.2c.3.4.6.1.6.1s1-.4 1.3-.6.9-.2 1.5-.2.3-.4.5-.7c.2-.2.1-.9.1-.9s.9-.1 1.1-.2.9 0 1.1.2.1 1.1.3 1.8c.2.7 1.4.7 2.3 1.1 1 .4 1.7.5 2.6.5 1 0 1-.6 1.1-.8.1-.2.3-.1.3-.1h1.5l1.1.1.3.7s.9 1.2 1.5 1.8c.6.6 1.2.7 1.9 1s.9-.1.9-.1h1.2c.4 0 .4.3.4.3l.1.1c.2-.3.5-.6.6-.9.4-.9-.4-1.2.6-1.8.9-.6 1.7.2 2.2-1s.3-1.8.5-2 .9-.4.9-1.7c0-1.4.1-2.1.7-2.7s.6-.7.7-1.1-.1-.7.8-.9c.9-.2 1.5.4 1.6-.3.1-.7.7-1.2.4-1.7-.3-.5-.9-.6-.9-.6s-.7.2-.4-.8c.4-1-.1-1.9.6-2.3s1.2-.9 1.6-1.1.7-.7 1.3-.7c.6 0 1.4-.7 1.4-1.3.1-.6-.8-1-.3-2 .5-.9.7-1.4.7-2 0-.5.1-1.2-.1-2.6-.1-1.4-.3-2.5-.3-3 0-.6.1-2.2.3-2.7.2-.5.3-3.1.3-3.1v-.8c-.3.1-.4 0-.4 0s.1.1.4 0c0-1.1 0-2.9-.3-3.5-.4-.9-1.5-1.4-1.7-2.1s-.2-3-.2-3.4.1-.9-.6-2-.9-1.4-.8-2 .2-3 .2-3-.1-.9-.5-.9-.7.1-1.3-.1c-.6-.3-.8-.4-1.3-.6-.4-.2-1.5-1.8-2.3-3-.6.2-1.2.5-1.8.7-1.6.2-5.3.7-8.1 1.4-1.1 0-5.4 1.7-7.3 3.1-.2 1.1-1.2 2.8-1 5.7-.4 1.7-.7 3.1-2.2 6.8-.9.3-2.8 1.8-4.5 3.3-1.5 1.5-10.1.6-14.8-.5-.4-.3-1.9-.7-3.6-1.2-2.9-1.4-4.2-2.5-7.8-5.9l1.3-4.9c.7-.6 1.4-1.3 1.4-1.8 0-1.1.2-.2.2-2.8.5-.3 1.2-.6 1.6-1.6 0-.1.1-.2.1-.3.1-.2.1-.3 0-.4-1.2 0-2.5.1-3.1.1-.8-.2-.9-.4-1.8-.4z"/><path class="st2" d="M65.6 67.3c.5.2.7.3 1.3.6.7.3.9.1 1.3.1s.5.9.5.9-.1 2.4-.2 3 .1.9.8 2c.7 1.1.6 1.7.6 2 0 .4 0 2.7.2 3.4.2.7 1.2 1.2 1.7 2.1.3.6.3 2.4.3 3.5.2 0 .5-.1 1.1-.4 1.2-.6 2.6-1.8 2.6-1.8s.7-1.2 1.1-1.4c.4-.3.7-.5 1.2-1.2s.7-.9 1.1-1.7c.4-.7.9-1.8.9-1.8s1 .1 1-.9-.4-1.1-.5-1.6-.2-.5-.2-1.1.7-.6.5-1.1.1-1.3.5-1.2.9.1 1.8.1c.9-.1.8-.6 1.6-.3s1.9.5 1.9.5.6.1.6.4c.1.3.5.4.8.3s1.4-.4 2-.4c.7 0 1.7.5 1.9.9.1.4.4.6.9.7s.6.4.6.6c-.1.2-.1.4-.4.9-.2.4-.5 1.1-.7 1.2s-.1-.4-.2.1-.1 1.1-.1 1.5-.5 1.3-.5 1.3l-.2.5.5.5.9.4.9.7s.7.1 1 .3c.3.2.3.7 1.2.5.9-.1 1.3-.9 1.3-1.1s.1-1.1.3-1.4c.1-.3.1-.6.5-.7s.9-.5.9-.5.3-.7 1.6-.7 3.3.1 3.3.1.7-.4 1.7-.6c1-.1 1.4-.3 1.6-.7.1-.4-.6-.8.7-.9 1.2-.1 1.4.5 1.9.5.4 0 1.1-.3 1.4-.1.3.1 1.3 1.1 1.3 1.1s2 .9 1.7 0-.6-.7-.3-1.4.2-.6.3-1.5 0-.8-.1-1.5.4-1.9 1.2-2.2c.8-.4 1.4-.4 2-.4s.7.7 1.4-.3c.7-.9.7-1.1.9-1.3.1-.2.2-.4.3-.7.1-.3-.1-.3.1-.8.3-.5 1.1-1.5 1.1-1.5s-.5-1.1.4-1.7c.9-.7 1.7-1.1 2.7-1.2 1-.1 1.2-.3 1.7-.7.4-.4 1.4-1 2.4-1 .9 0 1.4-.1 1.4-.1s.4-.4 1.5-.5c1-.1.8.1 1.7.2.9.1.7 0 1.6.3.9.3 1.4.5 1.7 1.2.4.7 0 .5.4 1.2s.6 1.3.6 1.8-.1 4.6-.1 4.6.4.1.7.9c.2.8.2 1.2.7 1.3s1.1.2 1.4.8c.3.6.4 1.6.7 1.7s1 .9 1.5 1c.4.1.9.6.9.6s2.1.1 2.4.9c.3.8-.2 2.3-.4 2.9s-.4.9.1 1.4c.5.4.7 1 .4 1.6s-1.5.5-1.5 1.2c-.1.7-.1.7.6 1.4s1.1 1.1 1.1 1.7c0 .5 0 1.4-.1 2 .6 0 1.2-.1 1.5-.7.6-1 0-2.2 1.6-1.8s1.9 1.8 3.3 1.3c1.3-.4.7-1.6 2.1-1.6 1.3 0 1.9-.9 1.9-1.6s-.3-2.5-.3-2.5.3-1.3 1.8-1.2c1.5.2 1.5-.3 2.4-.7s2.1-.7 2.1-.7 1.8.4 1.6-1c-.2-1.5-.3-3.9-.3-3.9s.7-1.2 1.9-1.5 1.6-.9 1.6-2.5v-4.2s-.9-1.3 1-1.5c1.9-.1 2.4 0 3.4-.3s1.9-.3 3-1.3c1-1 1.9-1.6 1.9-1.6l.3-2.8s.4-2.5 1.5-1.3c1 1.2 1.2 2.2 1.2 2.2s-.4.1.4.9c.9.7 2.1 1.3 2.5 2.1.4.7 1.2.9 1.2 1.6 0 .7-.2 1.2.3 1.6.4.4 0 .4 1 .7 1 .3 1 .2 2.1.6.6.2.5.7.6 1.1.3 0 .6-.1.9-.8.7-1.6 1-2.8 1-3.3 0-.4-.6-2.2-.6-2.2s.7-1.2.4-3.4-1-2.4-1-3.4v-2.5c0-2.4.6-4.9.6-5.7 0-.7-1-2.5-1-2.5s-.4-1.5-1-1.3c-.6.1-1.2.3-1.2.3s-.4.6-.9-.3c-.4-.9-3.4-2.8-1.2-5.4 2.2-2.5 1.9-1.6 2.7-3.6.7-1.9.9-1.8.7-3.3s-.5-1.2.1-2.1 1-2.7.7-3.1.2-.9-.6-1.2c-.7-.3-2.2 0-1.9-1.5s.9-2.4.9-2.4-.3-1.6 1.2-1.6 1.3.4 2.8 0 2.5-1.3 3.6-1.3c1 0 2.1.2 2.1.2l1.3-.9s1.3.4 2.7.6c1.3.2 1.6-.1 1.6-1v-2.4s0-1.3.7-1.3 1.2-.7 2.2-.3.6 1 1.8 1 1.8-.7 1.8-.7h.7c.7 0 1.5-.2 1.5-.2s1.2-.3 1.8.3.7 1.2 1.6.6c.9-.6 1.5-1.2 1.5-1.2s.6-.1.1-.7c-.4-.6-1.2-1-1.2-1.8 0-.7-.2-2.2-.2-3.1s-.4-1.5-.7-2.2-1-1.2-1-1.6-.3-3.1.4-3.7 2.2-1.5 2.2-1.5l1.2-.1.9-1.5s1.9.3 1.6-.7c-.3-1-1.2-1.2-.2-2.4s1.5-.4 1.9-1.9.7-2.7.7-2.7.9-1.6 3-3c2.1-1.3 3-1.6 3.1-2.4v-.5c-.5 0-.9-.1-.9-.1s.4.1.9.1c-.1-.6-.4-1.1-.4-1.1l-.6-.9-.7-.7c-1.2-.1-2.4.2-2.4.2l-1.3-1.3-2.8-2.8s-.3-1.3-.3-2.4c0-1-.9-1.3.3-2.2s1.3-1.9 1.3-1.9l-.6-1.5v-2.2l.4-.9v-2.1l.4-1.3s.8-.1 1.1-.4 1-1.3 1-1.3.3-1.1.3-1.7-.9-1.5-.9-1.5.1-.9.6-1.4 1.1-1.3 1-2.2c-.1-1-.4-2.8-.4-3.3s-.4-1.7-.3-1.9c.1-.3 1.3-2.1 1.3-2.1s.5-1.3 1.7-.9c1.3.4.7.6 1.8.6 1.2 0 1.5-.2 1.9-.1.5.1.5.7 1.4.2s2-1.5 2-1.5 1.9-1.5 2.3-1.6 1.5-.9 1.5-.9l1.7-2.8s1.6-1.5.8-2.8c-.8-1.4-2.2-3.1-2.5-3.5s-1.2-.9-1.8-1.5c-.7-.6-1.2-1.2-1.2-1.2s-1.6-.1-1.9 0c-.4.1-1.2.4-1.8.1-.7-.3-1.4-.4-1.8-.8-.5-.4-1.4-1.5-1.4-1.5s.6-1.5-.2-1.5-1.7.9-1.7 0c-.1-.9 0-1.7 0-1.7s.7-1.8.6-4c-.1-2.1-.2-2.7-.2-2.7l.4-1s.6-.2 0-.8c-.6-.6-.9-.7-1.5-1s-1.3-.8-1.8-.8-1.4.7-2.2.1c-.9-.6-1.1-1.2-1.6-1.4-.5-.2-1.7-.3-1.7-.3s-.7.5-1.3 0c-.4-.4-2.2-2.3-3.2-3.4-4 8.2-9.1 17.7-8 28.3-.7 1.4.7 3.9-1.1 7.5l-.3 1.8c-1.8 4.5-8.7 13.9-13.5 17.5-9.5 6.3-30.8 10.2-35.4 24.9-4.8 19.9-19 36.7-36.2 50.8l-5.3 4.3-3.9 2.1c-.9 0-5.8 1.9-8.3.4-1.2-1-2.5.3-4.3 2.9l-2.1 1.7c-.5 1.1-3.5 1.3-5.9 3.5-6.1 4-14.7 6.7-24.3 10.6 1.1.8 2.2 2.5 2.5 2.6zm-108.3 67.1c.9.2 1 .4 1.4.8.4.4.4.7.4 1.3s.5.3 1 .7.1.9.1 1.9.1 1.8.4 2.4c.3.6 1 1.3 1.2 1.6.2.4 1.6.2 1.9.2.4 0 2.2-.2 2.7 0 .4.1.6.9.6.9s.8 1.2 1.5 1.7 1 .2 1.7.2 1.9-1.1 2.2-1.6c.3-.5 1 .1 1.4.5s.8 0 .8 0 2.7-.3 3.3-.2.5.7.9 1c.4.4.9.5.9.5s1.2.6 1.9 1.3 1.6 1.9 1.6 1.9 1.1.4 1.8.7.4.6.6 1.1.4.9.7 1.4c.4.5 1.1.2 1.5.2.4.1 1.1.1 1.8.2s1.1.7 1.7 1.6c.5.8.1 2.4.1 3.3.2-.1.7-.5.8-1 .1-.6.3-1 .3-1.4s-.1-.9.2-1c.2-.2.4.2.7-.5.2-.7.3-1.2.3-1.2s-.2-.8-.4-1c-.2-.2-.4-.4-.4-.9 0-.4-.1-1.2.1-1.4.3-.2 1-.9 1-.9s1.6-1.2 1.3-2.5c-.4-1.3-1.2-2.3-.2-2.6s1.7-1 1.9-1.3c.1-.2 1-1.7 1.5-2.4s1.7-2.8 1.9-3.1c.1-.3.5-.9.3-1.6s-.4-1.3-.9-1.3-.5.4-1-.2c-.5-.6-.7-.9-.8-1.1-.2-.2-.6-.9-.6-.9s-.7-.4-.8-.9c0-.1-.1-.4-.1-.6h-.1.1c-.1-.6-.1-1.3-.1-1.3s.2-1.9.6-3 .4-2 .1-3.3-.2-2-.7-2.5c-.5-.4-1.5-.4-1.6-1.3-.1-.8.4-1.1.9-1.4.4-.3.9-.5.8-1.4s.2-.9.4-1.7c.1-.8.4-1.1.3-1.7s-.4.1-.2-1.7c.2-1.9.7-3.1.7-3.1s1.2-1.4.4-2.3c-.7-.9-1.4-1.9-1.6-3s-.9-1.6-.7-2.8c.1-1.2 1-.8 1.1-1.6.1-.7.1-1.1.5-1.6.4-.4 1-1.5 1-1.5s.7-.4.4-1.1-.7-1.1-.7-1.1.4-.7 0-1.2S-3 90.3-3.2 90s-1-.8 0-1.1c1-.3 1.9 0 2.3-.8s1-1.4 1.2-1.6.9-.4.7-1.6C.8 83.6.6 83.5.9 83c.3-.4.4-1.1.4-1.9-.1-.7.4-2.5.7-3.4.2-.8 0-1 .8-2.2.8-1.1 1-1.3.8-2.2-.2-1-.2-1.9.1-2.5s1.6-1.5 2.3-2.1.3-1.3 1.1-1.6c.8-.3.3-.5 1.4-.4s1.3 1.2 2.2.4c.8-.8.1-1.6 1.1-1.6 1 .1 1 .2 2 .2.6 0 1.9-.1 3.1-.1 0-.5-.5-.9-.4-3.3.5-3.1-.3-4.2 0-10l-.6-.1-.3-.4c-1.6 0-1.5 2.6-4.1 5.5-.1-.3-.5 1.4-2.1-.3-.3-.2-.5-1.1-1.3-2.9-.2-.1-.5-.6-2-.5l-.7.3c-.5.3-.1 2-3.3 1.1 0 0-1.2-.5-.7-.8.4-.5.7-.3.6-2.5.4-.8.5.3 2.1-1.7-.4.1 1.4-1 0-2.3-.4 0-1.9.8-.2-1.6.6-.9 1.3-1 2.2-3.6l.8-.5c-.2-.7-.2-.4-.7-2 .6.7 2.4-1.1 3.8-.9-.4.8-2.6 2.2 1.8 3.4.4.1 1.4 3 3 .2.6-1 1.1-.5 3-1.8.1-1.8 2.7-6.4 6.7-8.6 0 0 .8 0 1.6.2.7.2.8.2 3.7.2 1.2-.9 3.3-2.1 3.2-5-1.2-.3-1.7-1.1-1.8-4.4 1-1.8 2.1-5.5 7.1-4.1 1.9-.3 2.6-1.9 1.7-5.8.2.1-.6-1.9-1.6-2.9h-2.1l-2-.2-1.9.1-2.4 1.7s-.2.8-1.3.9c-2.1.3-5.3.3-8.4 2.2-1 1-1.7 1.6-3.3 3.4-1 .6-5.1 1.8-7.5 3.4-.8.2-1.2 1.2-4.5 1-.5-.2-1.2-.3-1.2-.3l-2.7.4c-.2.1-1.5.6-2.7 1.8l-1.8.9-1.1.1-1.2.7c-.4.3-1.1.1-.8 2 0 0-.8.2-1.1.4-.3.2-.8.8-1 1.1-.1.3-.3.5-.1 2.4l.3 1.4.7.5-1 2.4s-1.1 1-1.7 1.8c-.5.5-.2.6-.6 2.9.1.1-1.2.5-1.1 2.3-.5.3-.2 1.5-.5 4-.3 2.4 4.6-2.3 3.8 3.8 0 0 .2 1.5.1 1.8l-.5 1.5v.9c.3 0-.9.9 1.6 2.3.3.1-.6.6.7 2.9-.1.5 1.9.4 1.5 2.7-.1 1.1.2.4-.2 3.5l-.7 1.9c-.1.4-.4.4.1 1.4.3.7.2.5.5 2.2.6 5.3-8 19.5-10.4 23.7l-1.9 2.4c.1 0-.9.8-2.4 3.5-.3.4-6.1 8.2-6.8 9.2 0 0-3.9 5-4.8 6.4l-2 2.7-3.4 2.7c-1 1.2-3.6 2.4-3.6 2.4.1-.2-2.6 1.6-3.3 3.3-.2.1-.6.7-2.2 2.1l-.1.1c.7.9 1.4 1.8 1.5 2.2.3.7 1.5.7 2.4 1z"/><path class="st2" d="M-106.8 207c.1 1.6-.4 2.7-.4 2.7s-.3.1-.1.9c.1.7-.1.7.6 1.3l.7.6s.9.6.9 1.5-.9.6 0 .9c.9.3 2.4-.7 2.4.1 0 .9.7 1.6.7 2.2 0 .6-.1.9-.1 1.5s.3 1 1 1h3.4c.6 0 1.9.3 1.9.3s-.9.3.6.3h2.4s.3.3.7.6.7.7 1.5 1c.7.3.6.3 1.3.3.7 0 1-.4 1.6-.4s.4-.1 1.2-.1h.7s.9 0 1.6-.1c.3-.1.5-.1.6-.1.1-.6.2-1 .6-1.4.6-.5.5-1.2 1.2-1.4s1.2-.2 1.2-.6v-1.3s.1-.7.6-.7h1.9s.6-.2.7.1c.2.2 1 1.3 1 1.3s.9.2 1.3-.1c.4-.2 1.1-.5 1.1-.9v-1.4s.4-.5.8-.6.9-1.6.9-2 .1-1.5.4-2.1c.3-.7.3-1.3.6-1.8.2-.5.7-2.1.7-2.1s.2-1.2.8-.4c.7.7 1.2 1.3 1.7 1.6.4.2 1.1 1.1 1.7 1 .7-.1 1.3-.5 1.3-.5s.2-.9.6-1.5c.3-.6.3-.9 1.1-1.4.7-.5.5-.7 1.6-.7 1.1.1 1.2.4 1.6.5.3.1.2-.2.7-.5s.7-.4 1.3-.2c.7.2 1.2.5 1.2-.2-.1-.7-.3-2.1-.2-2.6.1-.4.3-1.4.8-1.3.5.1 1.2.3 1.6.3.4 0 1.2.2 1.2.2l.7.1s.3-.5.5-.9.4-1.8.4-1.8-1.2-1.8-1.2-2.6-.6-2.2-.6-2.2 0-.7-.4-1c-.4-.2-1.3-.7-.2-1.8 0 0 .7-1 .8-1.3.2-.3.8-.8 1.7-.9.8-.1 1 .7 1.7 1.2s1.1.7 1.8.8 1.5.3 2.1.5c.7.2 2 .9 2.2 1.3.1.1.1.3.1.5.4-.2 1-.6 1.1-1.2.2-1-.3-1.5.2-2.1s1.4-1.5 1.6-1.9c.2-.4.6-1 .5-1.9s-.1-2-.1-2-.1-1 .4-1.5c.4-.4.8-.5 1.3-.9s1.7-1 1.7-1 .8-.5 1.5-.3 2.4.9 2.4.9 1.1.5 1.9.6 1.1-.1 1.6 0 1 0 1.4.3.5.3.8.5.7 1 .7 1 .7.8 1 .1.3-2.4 1.3-2.5.9.1 1.8.1 1.8-.4 1.8-.4-.4-1 .7-1.2 1.6-.2 2.8-.2c1.3 0 3.1.8 4.1.8s2.5-.1 2.9-.4c.4-.2 1.5-1 2.1-.9s1.3-.4 1.8-.4c.5.1 2.5 1.8 2.8 0 .4-1.8.4-1.9.4-2.2 0-.2-.3-1 .3-1.2s1.8-.5 1.8-1 .3-.4 0-1.3c-.3-.8-.7-1.4-.7-1.9.1-.5.2-1.3-.3-2s-1.1-1-1.6-1.3c-.4-.3-.6-.6-.5-1s-.1-1.3-.5-1.6-1.5-.6-1.5-.6-.6-.4-.6-1.1c0-.7-.1-1.3-.7-2.3s-1.3-1.1-1.3-2v-.3l-.1.1.1-.1c0-.9.5-2.5-.1-3.3-.6-.9-1-1.5-1.7-1.6-.7-.2-1.4-.2-1.8-.2-.4-.1-1.1.3-1.5-.2s-.6-.9-.7-1.4.1-.8-.6-1.1-1.8-.7-1.8-.7-.9-1.1-1.6-1.9c-.7-.7-1.9-1.3-1.9-1.3s-.5-.1-.9-.5-.3-1-.9-1c-.6-.1-3.3.2-3.3.2s-.4.4-.8 0-1.1-1-1.4-.5-1.6 1.6-2.2 1.6-1 .4-1.7-.2c-.7-.5-1.5-1.7-1.5-1.7s-.2-.7-.6-.9c-.4-.2-2.3 0-2.7 0s-1.7.2-1.9-.2-.9-1-1.2-1.6-.4-1.3-.4-2.4c0-1 .4-1.5-.1-1.9s-1-.1-1-.7 0-.9-.4-1.3-.5-.6-1.4-.8-2.1-.3-2.3-1c-.1-.4-.8-1.3-1.5-2.2-1.5 1.6-5.8 4.2-9 5.4-.1 1.2.8.9.2 3.4-.6.4-1.6 2-1.6 2 0 .2-1.8 1.6-1.9 3.7l-3.3 2.9c-.8.8-3 6.8-3.4 8.8l-2 2.4c-2.2.3-.4 4 1 5.8-.4 4.4 3.6 8.4 7.6 13.5 2.5 3 .6 5.7-.3 12.2-.1 1.3-2.7 3.5-4.1-.4-.4-1.1 1.9-1.3.8-2.9 0-.5-.1-1-.1-2.1-.4-.8-.5.1-1.2-1.8 0-.1 1.8 1 0-.7-.8-.8-2 .6-3.6 2.2-.2.1-.8-.1-1.8.7-.2 3.4.9.2 1.8 2.7l.1 1.3c-2.2 1.4 2.2 3.8-.2 5.2-2.2-.7-2.8 3.6-5.6 1.7l-.8-.3c-1.2.2-2.4-.2-3.8-2 .4-.4-2.5-1.5-2.3.1.9 0 1.2.2.4.8 1.8.2.9 2 2.8 2.8-.2 0 .7.5-.2 1.8.2-.2-1 .9-1.8 1.1l-.8-.5c-.1-.3-1.9.4.2 1.7-.1.3.8.3.8 1.5-.9.3-3.1 2.5-4-.7l-.6-.6s-.5-1.4-.5-.8c-.2.4.5 2.3-1.2.6-.2-.8-.6-1.1-.6-1.1l-1-.2c-3.6-.4-2 6.7 1.6 3.4 0 .2 1.9-.3.4 1.2l-.7 1.4c-.5.1-1 1.1-3.1.9-.5 0-3 .5-6.4.3 0 0-2 .7-1.6 0 .4-.6.4-.5 1.8-.8.5-.6.7-.5 1.1-2.5.7-.4 1.1-.6 1.1-.6 3.3.5-1.1-3.5-3 1.4-1.7-.4-2.7 1.9-6 2l-1.1-.5-.5-.3c.5-2.2-.6-7.1-1.5-1.9-.4-.2-.9 0-1.1-.8-.7-.1-1.5-.2-.4-1.8.3-.5.1-.9-.9-1.6-.5 1.5-1.2 4.4-1.2 4.4s1.5-.6 1.7 1zM16.8 47.3c-.1-.3-.3-.5-.3-.5-.8-2.9-2.3 3.2-4.2 2-1.7-3.1-4.5 2.4-6.6-1.4-.3-.1-.6-.2-.3 1.3.2.5.8.7.8.7.2 1 1.6 1.2 2.8 3.7 0 0 .4-.6.7-.8.2-.6 1 1.7 1.2-.3l1.1-1.3c-.1-.4.8 1.2 1.5.3.9 1.3 3.2.1 2.6-2.9.1 0 .7-.5.7-.8zm91.4-64.7c.3-.2 2.4 1.5 4.6-.9-.5 0 3.1-.4 5.9-.7 2.8-2.7 6-5.2 11.5-10.4.8-3.7 2.5-5.1 5-11.7-.2-.7.9-1.4-.1-3.5-.1.3-.4-.8-2.1.8 0 0-1.3.7-1.6.8-.4-.2-1.6.7-4.1.2-.5-.4-2.2-.2-2.5-2.7.1-.4 0-.6.3-2 .3-2.2 3.3-6.4 4.5-11.4.3-.6.8-2.1 1-4.5l.1-2.5.1-.7s.6-2.5-.1-2.5c-.4.3-2.3-.1-3.9 1.8-.1.2-.5.8-1.2 2.5-.6 1.1.6 3.6-3.9 4.1-2.9 4.2-9.2 8.3-10.7 15-.2.3-1-.3-1.1 2-.3.3-.6.3-.5 1.1-.1.9.6.9-.2 3.8-.4.6-.5 2.9.6 5.7l.6.6c0-.1.2-.5 1-2.5l.4-.4c-.1-.1.7 0 .9-1.3 0 0 1.1-.5 1.5-.4 1 1.3 1.7 0 3.6 3.4-.3.2 0 1.8-2.5 3-.9.5-1.3 1.8-1.8 2.6-.3 1.1-.6.2-.3 3.7-.1.3-1 4.3-4.2 4-.1.8-3.8.3-.8 3z"/></g><g><path class="st2" d="M319.5-26s-.1.8-.3 1.6c-.2.8-.2 3.4-.2 3.7s0 .7-.3 1.6c-.3.8-.7.3-2.5.3-1.7 0-1.2 0-2.1-.4s-1.1-.3-1.6.2c-.4.5.5.7 1.2 1.2s.1 1 .1 1-1.4-.4-2.7-.9c-1.3-.4-1.8.3-2.6.3s-.1-.9-.1-1.3c-.1-.4-1.5-.7-2.2-1.4s-.7-1-1-1.6c-.3-.7-.1-2 .1-2.6.1-.6.5-1 .3-1.5-.2-.4-.3-1.2-.1-1.5.1-.3-.3-.8-1.2-1.2-.9-.4-1.8-.7-2.5-.7-.7-.1-1.6-.4-2.2-1.2s-1-.2-1.3.1-1.5-.1-2.4-.7c-.9-.5-.7.1-.9.5-.2.4-2.6.5-2.6.5s-2.3.1-3.5.1-1.3-1.4-1.3-1.9.1-1.2.1-1.9c.1-.7-1-.9-1-.9l-2.6-.8s-1-.7-1.7-1.2-1.2 1-1.7 1.4-1.6 0-3.3 0c-1.6 0-1.8-.3-2.8-.7-.6-.2-1.8-.9-2.6-1.4 0 .4.1.7.1.7v2.6c0 1.4-.7 2.8-.7 4.4v7.5l.7.7c.7.7.9 1.9.9 1.9l-1.2 1.6s-2.6 2.3-3.3 3.5c-.7 1.2-2.1.5-4.9 0s-2.1.2-3.5.7-2.1.9-2.1.9-2.6-1.9-4-3c-1.4-1.2-2.3-.5-2.3-.5s-1.4.5-2.8.9c-1.4.5-1.4-1.4-1.6-2.6-.2-1.2-2.3-1.9-3-2.8s-4 .7-4 .7-1.2 0-2.3-1.4c-1.2-1.4-1.9 0-1.9 0l-2.6 1.9s-.9-.7-1.6-2.3-1.6-.9-2.6 0c-.4.4-1 .5-1.4.6v.5c-.2.8-1.1 1.1-3.3 2.5s-3.1 3.1-3.1 3.1-.3 1.2-.8 2.8-.9.8-2 2-.2 1.4.2 2.5c.3 1.1-1.7.8-1.7.8l-.9 1.6-1.2.2s-1.6.9-2.3 1.6c-.8.6-.5 3.4-.5 3.9s.8.9 1.1 1.7.8 1.4.8 2.3.2 2.5.2 3.3.8 1.2 1.2 1.9c.5.6-.2.8-.2.8s-.6.6-1.6 1.2c-.9.6-1.1 0-1.7-.6-.6-.6-1.9-.3-1.9-.3s-.8.2-1.6.2h-.8s-.6.8-1.9.8c-1.2 0-.8-.6-1.9-1.1-1.1-.5-1.6.3-2.3.3-.8 0-.8 1.4-.8 1.4v2.5c0 .9-.3 1.2-1.7 1.1-1.4-.2-2.8-.6-2.8-.6l-1.4.9s-1.1-.2-2.2-.2-2.2.9-3.7 1.4c-1.6.5-1.4 0-3 0s-1.2 1.7-1.2 1.7-.6.9-.9 2.5c-.3 1.6 1.2 1.2 2 1.6.8.3.3.8.6 1.2.3.5-.2 2.3-.8 3.3-.6.9-.3.6-.2 2.2.2 1.6 0 1.4-.8 3.4s-.5 1.1-2.8 3.7.8 4.7 1.2 5.6c.5.9.9.3.9.3s.6-.2 1.2-.3c.6-.2 1.1 1.4 1.1 1.4s1.1 1.9 1.1 2.7-.6 3.4-.6 5.9V55c0 1.1.8 1.2 1.1 3.6.3 2.3-.5 3.6-.5 3.6s.6 1.9.6 2.3c0 .5-.3 1.7-1.1 3.4-.3.7-.7.9-1 .8 0 .3.2.6.8.7 1.4.2 2.3 0 2.8.2s1.1.6 1.1.6 1.9.6 3 .6 0-.9 1.1 0 1.4.6 2.2.9l.8.3 1.6.4c.2-.4.4-.8.9-1.1l1.2-.7s.7-.2 1-.7 1.5-1.6 1.5-1.6l1.2-2s.7 0 1.5-.2 2.1.2 2.1.2 1-1.2 2.5-2 2.1-1.8 3.6-2.3 2.3.5 3.1-.7.5-1.8 1.6-2 .8-.5 2.1-1.5 2.3-1.3 3.4-1.6c1.2-.3.5-.8 2.1-.8s1.8.5 2.6-.5.8-1.2 2-1c1.1.2 2.1.2 2.1.2s.2-.3.2-1.1v-1.8s1.8-2 3.4-2.6c1.6-.7 3.3-.7 3.3-.7h1.5s-.3-.3 1.6-.3c2 0 2.8.2 2.8.2L249 49s1.8.3 3.6.7c1.8.3 2.5.8 2.5.8s1.3 0 2.3.3S259 52 259 52l1.5.5s0 1.5 1.2 2.3 2 1.2 2.5 1.6c.5.5.7 1.5.7 1.5l.8 1.8s-.2 1.2 1 1.2 2.5-.2 2.5-.2v1.6s-.5 1.6-.2 2.8c.3 1.1.3 2.1.3 2.1l.5 1.5v1.1c.7-.2 1.6-.2 2.3.3 1.2.9 2.8 1.9 3.3 3 .5 1.2 1.6 2.1 1.6 2.1l2.1.7.5 2.3s.2.5 1.4 1.4c1.2.9 2.8 1.2 2.8 1.2s.7 0 1.4.9 1.6 2.1 1.6 2.1.5.5 1.4-.5c.9-.9.5-1.9 1.4-2.1s1.9-1.2 1.9-1.2-.7-1.4 1.4-2.3 2.1-.2 3-1.4c.9-1.2.9-2.6.9-2.6l-1.2-2.1s-.5-2.3.5-2.3c.9 0 2.3 0 2.3 1.2s1.4 2.1 1.4 2.1.9.9 1.9.9c.9 0 2.1.2 2.8.7.7.5 1.6-.2 1.9 1.2.2 1.4.5 1.4 1.9 1.4 1.2 0 3.8-.6 5.6-.4.4-2.2 1.3-4.5 5.2-4.6l2-2c-.2 0 .8-.1 2.2-.7l.7.7.6-.6 3.2-2.5s-.3-.8.4-1.6c.4-1.1.8.3 1-2.4l-.3-1-.1-.8c.3-1.5-1.2-6.5 2-8.4.3-1.2.1-.8.1-4.6 0-.8-.3-4.2.1-7.5.5-.6 0-2.3.9-6.1-.1-1.2 1.3-.1 1.1-4.2-.1-.1-.2-1.9.5-3.5.2-1.4.2-1.5-.3-4.9.1-2 .5-5.3.5-5.3l.1-2.1c.1.4-.4-1.3-.1-2.1v-1.6l-.7-.7c-.1-1.9-.1-8.7-.2-12 0 0-.4-2.8-.5-3.3-.2-.7-.7-2.5-.2-5.4.1-.6-.2-3-.2-3l-1.2-1.8c.1.2-.6-2.4-2.5-2.2l.2-2.2c.5-.2-1.8.2-1.3-2l-.2-.6-.6-1.8c-.6-1.2-1.2-3.6-1.7-6.3-2 .8-4.6 2-5 2.4-.6.7-.1 2.3-.1 2.3z"/><path d="M200.3 101.3h-.1c0 .1 0 .1.1 0z" fill="none" stroke="#231815" stroke-linecap="round" stroke-linejoin="round" stroke-miterlimit="10"/><g><g><path class="st2" d="M200 275.8s-1.8-2-2.6-1c-.5.3-1.6 3.8-1 6.2-.9 2.6 3.7 3.2 6.4 4.6 2.4-1.3 1.8-8.7-2.8-9.8zm-9.5 25.7c1.2-.4 1.6-2.4 1.6-2.4s-1.8.8-2.6 1.4c0 0-.2 1.4 1 1zm.6 9l-1.4 2.2-.6.8c.5-.2-2.6 2.5-1.6 4 0-.3.8 1.6 2.8 1 .1-.5 1.1-2.6 1-4.6-.2-1.2 1.2-5.6-.2-3.4zm-5.8 8.6l-.8.7c-.5.6 1.1 1.5 2.5-.7-.1 0-1.2-.9-1.7 0zM303.9 75.4c-1.3 0-1.6 0-1.8-1.3-.2-1.3-1.1-.7-1.8-1.1-.7-.4-1.8-.7-2.7-.7-.9 0-1.8-.9-1.8-.9s-1.3-.9-1.3-2-1.3-1.1-2.2-1.1c-.9 0-.4 2.2-.4 2.2l1.1 2s0 1.3-.9 2.5c-.9 1.1-.9.4-2.9 1.3s-1.3 2.2-1.3 2.2-.9.9-1.8 1.1-.4 1.1-1.3 2-1.3.4-1.3.4-.9-1.1-1.6-2-1.3-.9-1.3-.9-1.6-.2-2.7-1.1-1.3-1.3-1.3-1.3l-.4-2.2-2-.7s-1.1-.9-1.6-2c-.4-1.1-2-2-3.1-2.9-.6-.5-1.5-.4-2.2-.3v1.3s-.6.8-.3 2.2c.3 1.4.5 1.3.3 2-.2.8-.6.9-.2 2.2.5 1.3.9 2.4.9 3.1 0 .8 0 2.7-.3 3.3s-.5 2.8 0 3.9 2.4 1.4 1.9 2.6c-.5 1.3-1.3 1.8-1.8 1.9-.5.2-2.5.2-2.7 1.1s.9 3 .9 3.8v2s-.8 1.1-.2 1.4c.6.3.6 1.1.6 2s.3 3.5.2 3.9c-.2.5-.2.9-.2 1.6 0 .6.2 2 .2 2s.6 1.3 0 1.3-1.1.2-1.3.8c-.2.6-.8 1.4-1.6 3s-.5 4.2-1.1 5.2c-.6.9-.9 1.6-1.7 1.6-.8 0-1.9-1.3-2.7-1.3-.8 0-1.9.3-2.2.9-.3.6-2.4 0-2.4 0s-.8-.8-.9 0c-.2.8-1.6 2.4-2.5 2.7-.9.3-3.1.5-3.1.5s-.2.9-1.3.3-1.9-.5-1.9 0 .2 1.6-.5 1.6c-.6 0-2.5.8-2.5.8s.2 2-.6 2.8-2.4-.2-2.4-.2-.9-.3-1.6 0c-.6.3-1.4.8-1.6 1.4-.2.6-.9 3.3-.9 3.3s-.5 1.9-1.3 2.5-3.1 1.6-3.1 1.6l-2.5 1.3-1.4.8-2.2-.2-1.6.3c.3.4.6.9.8 1.2.3.5.3 1.2.5 2.2s.3 1.4.3 1.4l1.5 2.2s0 1.2.3 1.7.3 1.5.3 1.5l1.7.8 2.8.5-.5-1.2s-.9-1.8.4-1c1.3.7 1.8 1.6 1.9 2.1.1.4.3 1.3 1.2 2.2s1.8 2.5 3.4 3.7 1.5 2.8 1.5 2.8.6 1 1.5 1.6 2.2.9 2.2 1.5.7 1.6 1.6 2.4c.9.7 1.8 1.3 2.7 1.9.9.6 2.4.6 3.1 1s1.3 1.2 1.8 1.5c.4.3 2.5.3 3.4.7s2.4 1.2 2.4 1.2.7 2.2 2.1 2.1c1.3-.2 2.1-.9 2.7-1 .6-.2.6-.4 1.9-.3 1.3.1 1.8.4 3-.2 1.2-.6 1.6-1 3.1-.9s2.7 0 3.9-.6c1.2-.6 2.4-2.8 3.9-3 1.5-.1 3.7-.3 4.3-.6.6-.3 1-1 2.2-.3s1.9 1.3 1.9.6-.3-1 0-1.8c.3-.7.7-1.9.7-1.9s0-1 1 0 1.5 1.2 2.8 1.9 2.5.9 2.8 1.6c.3.7 1.6 1.9 1.8 2.4.1.4.9 1.5 1 2.1s1.2.9 2.4 1.2c1.2.3 2.7.5 3.3 1.6.6 1.2 1.9 3.3 1.9 3.3l2.5 2.7 4.8 1.1c-2.7-3.1-6.2-10-7.6-13.6l-2.3-3.8-2.9-4.2c-1.3-2.5-5-12.2-6.1-16.2-.7-4.4-3.1-14.7 2.9-19.8l.2-1.2-.5-1.3c.1.2-.2-1.8.4-4 0 0 .6-.7.2-.9-.7-.8-.6-.2-.7-2.5-.2-.5 1.5-3.4 1.8-6.1l.9-1.9c.4-1 2-5.3 3-8.3.2-.1.9-1.3 2.2-2.5-.2-1 .6-7.4 2-9.8l.2-1.8c-.1-.1 2.4-3.9 3.5-5.4.5-.9.5-2.4.7-3.8-.8.2-3.4.7-4.5.7z"/><g><path class="st2" d="M239.8 190l.6-1s.4-.6.2-1.2c-.1-.6 0 0-.6-.8s-.6-1.4-.6-1.4l-1.2-2.4c-.9-1.9-.5-1.2-.5-1.6-.5.3-.9.4-.9.4s.5-.1.9-.4c0-.1 0-.2-.1-.5-.4-1.3-.4-1.7-.4-1.7l-.7-.2c-.7-.2-.8-.1-1.8-.2s-.5-.2-.8-1.1c-.4-.8-.5 0-1.1 0s-1.2.1-2.1-.1c-1-.2-.5-.2-1-.6-.5-.4-.7-.1-1.3-.1s-.6.4-.6 1.2 0 1-.6 1.8-1.1-.1-1.7-.5-.6-.2-1.9-1c-1.3-.7-1.8-.4-1.8-.4l-2.1 1.1s-1 .1-1.8.6-.8 1.2-1.7 1.2c-.8 0-.6-.1-1.1-.2-.5-.1-1.7.8-1.7.8l-.6.5c-.6.5-.8-.4-.8-.4l-1-.2.5-1.2c.5-1.2 0 0-.5-1.3s0 0-.7.2 0 0-.6.4-1.2.6-1.2.6l-1.7.2-.7.1c-.7.1-.8.7-1.2 1-.4.2-1.2.1-1.9.1h-.8s-.7 0-3.2-.4 0 0-.4-.7-.8-.8-1.2-1.1c-.4-.2-1.3-.6-1.7-.6s-1.1-.1-1.8-.5 0 0-.4-.8l-.7-1.4c-.4-.6-1.5-1-1.5-1s-.7-.1-1.4-.1h-2.5c-1 0-1.3-.2-2.1-.6-.8-.4-1.4.4-2.6-.2-1.2-.6-2.5-1.6-2.5-1.6s-1.1 0-2.3-.1-.7-.4-1.8-1-.7.1-2.1.2c-1.4.1-1.1-1.1-1.9-1.8-.8-.7-2-.5-2-.5l-1 .8s-1.1.2-1.4.2-1.1.2-1.5.2c-.5 0-1.3.8-1.3.8l-.5.7.2 1c.6-.2 1.1-.3 1.1-.3s-.5.2-1.1.3l.2 1 .8.6s1 .4 1 .7c0 .4-.7 2.6-.2 3.6s.6 1 1.1 1.4c.5.5.4.2.6 1.2l.2.9s.6.1 1.2 1.1 2.9 3.3 2.9 3.3 1.6 1.2 2.4 1.6c.8.4 1.8.8 1.8.8s1.1.5 1.4.6c.3.1 1.2.6 1.4.8.4-.3.9-.7 1.1-.8-.2.1-.7.4-1.1.8l.1.1s1.3-.2 1.8.4c.5.6.6 1.1.6 1.1l-.1.6s.1.2 1.1.2 1.1 0 1.7.1c.6.1 1.2 0 1.5.5.4.5.6.5.7 1.2.1.7.7 1.3.7 1.3s2 .6 2.4.6h2.5c1 0 1.4.1 1.4.1l5.5 1.5 2.9 3.8 1.7 1.8s.5.7 1 1.7 1.7-.2 1.7-.2l1.2-.4c.6-.1 0-1.1 0-2.1 0-1.1-.4-.8-.5-1.2s-.5-1.4-.5-1.4l1.4-.8c1.4-.8-.1-.8-.1-.8s-.1-.5-.4-.8c-.2-.4-1.7-.7-2.6-1.1-1-.4-.6-.1-.7-.8-.1-.7 0 0 .4 0s2 .2 2 .2h2.1l.9-.7c1-.7.6 0 2.5 0s.8.4 2.1.6c1.3.2 1.2.4 1.2.4s.7.4 1.4.6c.7.2.7.6 1.1.7.4.1.7.4 2.3 1.2s1.4.6 2.7 1.3 1.4 1 2.6 1.9c.6.5 2.2 1.7 3.6 2.7l.4-.2c0-.1.5-.6-.1-.6l.5-1.5c.3-.8.3-.6 0-2-.1-.1-.1-.2-.2-.3l6.5-6.9 1.2.3.8.1.1.8 1 .4c0-.2.1-.1.5-.1-.1-.8-.5-2.2-1.2-4.9-.1-.4 1-.2 1-.2z"/><path class="st2" d="M313 183.7c-.5-.2-1.1-.8-1.7-1.5l-4.8-1.1-2.5-2.7s-1.3-2.1-1.9-3.3-2.1-1.3-3.3-1.6c-1.2-.3-2.2-.6-2.4-1.2-.1-.6-.9-1.6-1-2.1-.2-.4-1.5-1.6-1.8-2.4-.3-.7-1.5-.9-2.8-1.6-1.3-.7-1.8-.9-2.8-1.9s-1 0-1 0-.4 1.2-.7 1.9c-.3.7 0 1 0 1.8 0 .7-.7.1-1.9-.6s-1.6 0-2.2.3-2.8.4-4.3.6c-1.5.2-2.7 2.4-3.9 3-1.2.6-2.4.7-3.9.6-1.5-.2-1.9.3-3.1.9-1.2.6-1.6.3-3 .2-1.3-.1-1.3.1-1.9.3-.6.1-1.3.9-2.7 1-1.3.1-2.1-2.1-2.1-2.1s-1.5-.7-2.4-1.2c-.9-.4-3-.4-3.4-.7s-1-1-1.8-1.5c-.7-.4-2.2-.4-3.1-1s-1.8-1.2-2.7-1.9-1.6-1.8-1.6-2.4c0-.6-1.3-.9-2.2-1.5s-1.5-1.6-1.5-1.6.1-1.6-1.5-2.8-2.5-2.8-3.4-3.7-1-1.8-1.2-2.2-.6-1.3-1.9-2.1c-1.3-.7-.4 1-.4 1l.5 1.2.3.1-.3-.1.1.2 1.3 2.5 1 2.1.3 1.9s0 1.9.1 2.4c.2.4.6.9 1 1.6.4.7.3 1.5.7 2.2s.9.9 1.6 1.5.7 1.2 1 1.8 1.2 1.8 1.6 2.5-.1 1.3-.6 3c-.4 1.6-.1 1.6-.1 2.4 0 .7.1 1.6.1 3.7 0 1-.4 1.6-.9 2 0 .3-.4-.3.5 1.6l1.2 2.4s0 .6.6 1.4c.6.8.5.2.6.8s-.2 1.2-.2 1.2l-.6 1s-1.1-.1-1 .5c.7 2.7 1 4.1 1.2 4.9.4 0 1.1-.3 2-1.7 0 0-.6-1-.3-1.2 1.3-.4-.3-2.8 3.6-2.4.4.3 2 1.9 2 1.9 1.1.4 3.9 3.2 5.6 4.8l2 .4.3 1.4-.8.8s0 .9.1 1.3c.2.9 1.5.3.2 2.4-.2.2-.8-.2-.9.2-.3.5-.1.9-1.3.8-.5 1.7-2.9 3.2-4.5 5.9-.5.4-.8 1.2-2.4.3l-.8.9-.2.8-.6.4-.1-.5c-1 .5-.1 1.6-3.4 2.2-.3.3-.6.2-.7.5 0 .8-.3.9.3 3.1.6.6 1.5.3-.2 2 0 0-.3.5-.8.6-1.3 0-1.3.3-3.7-.4l-.2.5 1.3 1.1c.2-.1-1.5 1.4-3 .4l.3 1.3c.5.8-1.1 1.4-1.8 3.1l1.2.4 1.4 1 1.8 2.4c0 .6.7 1.5.7 3.9-.7 1.6-1.4-.4-3.5 3.4-.5 1.5-.5 2.6.5 5.4.1.5.3.5 0 2.3.4.4 1.4 3 .3 4.7-4.2 4.4 2.8.2 1.4 6.2.3.2-1.2-.4-1.9.6-.5 1.2-2.3.6-4.6.9l-1.3.6v1l1.4.7 3.9 2.1c.4-.1-1 1.1 1.1 2.2l1.8.2c.6-.1 4.9-.4 4.9-.4l1.7-1.6.9-1.7s.2-2.1.2-2.3c1.1-4.8 6.3-7.3 11.2-11.2.2-2.3 3.4-3.8 6.8-3.3l.7.3c5.2-1.2 17.2-4.6 15.9-14.4-.8-1.5 1.3-2.5-.2-5.7-.2-1.4-.5-2.4-.9-5.5 1.3-11 10.9-23.5 21.3-29.1 1.3-.2 1.8-1.5 5.1-.7.7.2 1 .3 1 .3.5.5 6.5-3 8.3-.8l1 .5.7.2.2-2.1c.1-.3-.2-2.3-2.2-3.1z"/></g><path class="st2" d="M223.1 200.7c-1.3-.7-1.2-.5-2.7-1.3-1.6-.8-1.9-1.1-2.3-1.2-.4-.1-.4-.5-1.1-.7-.7-.2-1.4-.6-1.4-.6s.1-.1-1.2-.4c-1.3-.2-.2-.6-2.1-.6-1.9 0-1.6-.7-2.5 0l-.9.7h-2.1s-1.7-.2-2-.2c-.4 0-.5-.7-.4 0s-.2.5.7.8c1 .4 2.4.7 2.6 1.1l.4.8s1.5 0 .1.8l-1.4.8s.4 1.1.5 1.4c.1.4.5.1.5 1.2 0 1.1.6 2 0 2.1s-1.2.4-1.2.4-1.2 1.2-1.7.2-1-1.7-1-1.7l-1.7-1.8-2.9-3.8-5.5-1.5s-.5-.1-1.4-.1h-2.5c-.4 0-2.4-.6-2.4-.6s-.6-.6-.7-1.3c-.1-.7-.4-.7-.7-1.2-.4-.5-.9-.4-1.5-.5s-.7-.1-1.7-.1-1.1-.2-1.1-.2l.1-.6s-.1-.5-.6-1.1-1.8-.4-1.8-.4-.1 0-.1-.1c-.4.4-.8.7-.8.7s-.2 1.5.2 2.3c.4.9.6 3.7.6 3.7l-.6 1.5s0 1.3-.2 2.1-.4 1.1-.6 1.6c-.1.4-.4 1.5-.9 2.2-.4.8-1.3.7-2.8 1.2-1.5.6-2.9 1.9-2.9 2.6 0 .7-1.9 1-2.7 1.2s-1.7.1-2.9.9-1.9 1.7-2.5 2.3c-.6.7-.2 1.1-.6 2.3-.1.5-.3.8-.4 1.1.4 0 .7.2 1.1.2.6 0 2.6-.3 2.6-.3s1.9.6 2.6.6c.7 0 0 .6 0 .6l.8 2.5s.6 2.6.7 3.1c.1.6-.3 1.2-.3 1.2l-.3 1.6s-.2.9-1 2.1c-.8 1.2-1.2 3-1.2 3s.1 1.6.3 2.6.3.9.7 1.7c.3.8 1.2 1.8 1.2 1.8l1.2.3.4.7c.4.7.1 1 .1 1.9s.2.6.9 1.1c.4.4 3.1 1.3 5.3 2 .2-.6.3-1.3.4-2l1.9-.8.4-1.1-.6-1.5 1.4-5.6c.9-1.9 8.9-5.3 12.8-6.5 3.1-.1 7.6-1.8 12.2-.6.6.7 1.2.9 3.5.9l1.6-.8c.9.5.2.4 2.7 1.9.3.6.4 1.7.5 3.4-.1.1 1.8 1.6 2.1 2.9.2.5 3.1.8.4 1.9-.7.8-.4.3.6 2.9 0 .4-.3.2-.3 1.8 0 0-.2.3-.3.8-.5 1.3 2.1 1.5 4.8.8l.7-.8c0-.2-.6-.1-1.7-2.4 0 0-.4-1.3.1-1.5.6.1.3-1.2 3.5-1.8.7-.4.9.2 1.3-1.7.1.2-.3-1.8 1.8-2.7l-1-1.2c-.1-.2-.6.5-3.9-.5.3.1-1-.4-.8-1.8l.3-.3c-1.7.5-.1-2.8-2.3-3.8.7-.6.5-2.2.2-4.4-2-.4-2.4-4.3 2.1-2.4l.2-1.6.4-1.4-2.2-1.2c.1.2-.2-.6.2-1.2l1.3-.1c.5.1 1.4.2 1.4.2V210l.2-1.8c.2-.1-.1-.2 2.3-2.1l1.2-.1 2.3-1.1c-1.4-1.1-3-2.3-3.6-2.7-1-.5-1.1-.8-2.4-1.5zm-2.1-61.2c.1.1.1.2.1.2l-.1-.2-1.1-.4-.6.7s-.6.7-.9.9c-.4.2-2.1-.5-3.1-1.2-.9-.7-.9 0-2.6.6-1.6.6-5.3.6-7.6.6s-2.9-2-3.6-2.5c-.7-.5-1.6-2-3.3-2.8s-2.5.7-4 .7-2.9-.7-4-.6c-1.1.1-1.3 0-2.7-.4s-.9-.4-2.4-.9c-1.4-.6-1.2-.7-2.5-1.3s-1.3-.2-3.4 0c-2.1.2-2 1.5-2 1.5l-.9 2.6s-2.1 3.6-2.5 4c-.4.3 0 .8.1 2.5s-.5.7-1.5.9c-1.1.2-.4.9-.6 2.1-.2 1.2-.7.1-1.9 0s-.8.4-1.9 1.2c-1.1.8-.6.7-1.6.1-1.1-.6-.7.9-1.1 2.2-.4 1.3-1.6.8-3.5.8s-3.2 1.4-3.9 1.5-.9.9-1.4 1.9c-.5.9-1.1 1.2-2.6 2s-1.2 0-2.4-.1-1.9.7-1.9.7-.7 1.5-1.5 2.5c-.5.6-1.5.9-2.1 1.1l.5.5c.9.9.1 1.3.1 1.8 0 .4.4 1.9.6 4 0 .7.1 1.1.1 1.5.2 0 .4 0 .5.1.4.2.9.7 2.1.7h1.9s.8.4.8.9.2 1 .4 1.3.9.8 1.4 1 1.4.2 1.4.2 1.5-.3 2 .2.4.5.9.8.7.8 1.3.8c.6.1.9.1 1.3-.2.4-.2.4-.6 1.1-.4.7.2.6.1 1.1.1.2 0 .6-.1 1-.2l-.2-1 .5-.7s.8-.8 1.3-.8 1.2-.2 1.5-.2 1.4-.2 1.4-.2l1-.8s1.2-.2 2 .5.5 1.9 1.9 1.8c1.4-.1 1.1-.8 2.1-.2 1.1.6.6.8 1.8 1 1.2.1 2.3.1 2.3.1s1.3 1 2.5 1.6 1.8-.1 2.6.2c.8.4 1.2.6 2.1.6h2.5c.7 0 1.4.1 1.4.1s1.2.4 1.5 1c.4.6.4.6.7 1.4.4.8-.4.5.4.8.7.4 1.4.5 1.8.5.4 0 1.3.4 1.7.6.4.2.8.4 1.2 1.1.4.7-2.1.4.4.7 2.5.4 3.2.4 3.2.4h.8c.7 0 1.6.1 1.9-.1.4-.2.5-.8 1.2-1l.7-.1 1.7-.2s.6-.2 1.2-.6c.6-.4-.1-.1.6-.4.7-.2.2-1.5.7-.2s1 .1.5 1.3l-.5 1.2 1 .2s.2.8.8.4l.6-.5s1.2-1 1.7-.8c.5.1.2.2 1.1.2.8 0 .8-.7 1.7-1.2.8-.5 1.8-.6 1.8-.6l2.1-1.1s.5-.4 1.8.4c1.3.7 1.3.6 1.9 1s1.1 1.3 1.7.5.6-1 .6-1.8 0-1.2.6-1.2.8-.2 1.3.1c.5.4 0 .4 1 .6.9.2 1.5.1 2.1.1s.7-.8 1.1 0-.1 1 .8 1.1c1 .1 1.1 0 1.8.2l.7.2s0 .4.4 1.7c.1.3.1.4.1.5.4-.3.9-.9.9-2 0-2.1-.1-3-.1-3.7s-.3-.7.1-2.4c.4-1.6 1-2.2.6-3-.4-.7-1.3-1.9-1.6-2.5s-.3-1.2-1-1.8-1.2-.7-1.6-1.5c-.4-.7-.3-1.5-.7-2.2s-.9-1.2-1-1.6c-.1-.4-.1-2.4-.1-2.4l-.3-1.9-1-2.1-1.3-2.5-.1-.2-2.8-.5-1.7-.8s0-1-.3-1.5-.3-1.7-.3-1.7l-1.5-2.2s-.2-.3-.3-1.4c-.2-1-.2-1.7-.5-2.2-.2-.3-.5-.8-.8-1.2l-.6.1.6-.1c-.2-.3-.4-.5-.4-.5l-.8-.6z"/><path class="st2" d="M186.5 66.5c-1-.4-1-.3-2.1-.6-1-.3-.6-.3-1-.7s-.3-.9-.3-1.6c0-.7-.7-.9-1.2-1.6-.4-.7-1.6-1.3-2.5-2.1-.9-.7-.4-.9-.4-.9s-.1-1-1.2-2.2c-1-1.2-1.5 1.3-1.5 1.3l-.3 2.8s-.9.6-1.9 1.6-1.9 1-3 1.3c-1 .3-1.5.2-3.4.3s-1 1.5-1 1.5v4.2c0 1.6-.4 2.2-1.6 2.5-1.2.3-1.9 1.5-1.9 1.5s.1 2.4.3 3.9c.1 1.5-1.6 1-1.6 1s-1.2.3-2.1.7c-.9.4-.9.9-2.4.7-1.5-.1-1.8 1.2-1.8 1.2s.3 1.8.3 2.5-.6 1.6-1.9 1.6c-1.3 0-.7 1.2-2.1 1.6-1.3.4-1.6-.9-3.3-1.3-1.6-.4-1 .7-1.6 1.8-.3.6-.9.7-1.5.7-.5 0-.9-.1-1.2-.1-.6 0-1.5.4-2.2.6-.7.1-1.6.4-2.4 1-.7.6-1.8.9-2.7 1s-2.4.1-3.1.4c-.7.3-.4 1.2-.6 2.7-.1 1.5-1.2 1.6-2.2 2.2s-3.6 1.2-4.3 1.6 0 1.3-.3 2.2c-.3.9-1.2 1.5-1.9 2.5s.3 1.5.2 3c-.2 1.5-.9 1.8-1.3 2.2-.4.4-.3 1.2-.7 3s-.2 2.2-.2 2.7c0 .4 0 .9.2 2.8.1 1.9 1.2 1 1.2 1l1.6 1.2c.4.3 1.6 0 2.2.1.6.2.2 1.2 1 1.6.9.4 1.2-.4 1.6-1 .4-.6.7 0 .7 0s.7.4 1.6.7c.9.3 1.5-.3 2.1-1.3s1-.4 2.5-.4 1.2.1 3.1.6c1.9.4 1.3 1.3 1.8 2.4.4 1-.4 3.4-.4 3.4l.3 2.5s0 1.2-.6 2.5-.7 1.2-1.6 1.8c-.9.6-1.2 1.2-1.8 2.1-.6.9.9 2.2.9 2.2s.9 1.6 1.6 2.5c.7.9.6.1.3 1.2-.3 1-.4 1-.4 2.1 0 1 0 0-.4 1s-1.6.6-2.5.3-.4.6-.4.6.7.6 1 1.9.7.6 1.5.9c.7.3 1 .4 1.5.9.4.4.1.7.3 1.3.1.6.3 1-.2 1.6-.4.6-.3 1.3-.3 1.3s.3.6.6 2.4c.3 1.8-.7 1.6-.4 2.7.3 1 1.2.7 1.9.9s1 .7 1.8 1.3c.6.5 1 .9 1.6 1.5.7-.2 1.6-.5 2.1-1.1.8-.9 1.5-2.5 1.5-2.5s.7-.8 1.9-.7.8.9 2.4.1c1.5-.8 2.1-1.1 2.6-2s.7-1.8 1.4-1.9c.7-.1 2-1.5 3.9-1.5s3.2.5 3.5-.8c.4-1.3 0-2.8 1.1-2.2s.6.7 1.6-.1c1.1-.8.7-1.3 1.9-1.2s1.6 1.2 1.9 0c.2-1.2-.5-1.9.6-2.1s1.7.7 1.5-.9c-.1-1.6-.5-2.1-.1-2.5.3-.4 2.5-4 2.5-4l.9-2.6s-.1-1.3 2-1.5 2.1-.6 3.4 0c1.3.6 1.1.7 2.5 1.3s.9.6 2.4.9c1.4.4 1.6.5 2.7.4 1.1-.1 2.5.6 4 .6s2.3-1.5 4-.7c1.6.8 2.6 2.4 3.3 2.8.7.5 1.3 2.5 3.6 2.5 2.4 0 6 0 7.6-.6s1.6-1.3 2.6-.6c.9.7 2.7 1.4 3.1 1.2.4-.2.9-.9.9-.9l.6-.6 1.1.4c-.2-.7-1-2.6-1.4-3.1-.5-.6-1.1-.9-.9-1.4.2-.5.8-.8.2-1.3s-1.9-.3-1.9-.3-.6.3-1.7.3h-3.1s.8-.6-.3-.9-2.8-.5-2.8-.5.2.5-1.4.5c-1.6 0-2.8-.3-2.8-.3l-.5-.9s-.2.3-1.1-.5c-.9-.8-1.4-1.9-1.6-2.4-.2-.5-.2-.5-.2-1.3s-.8-1.6-.8-1.6-.8 0-1.4-1.1c-.6-1.1-1.4-1.3-1.4-2.7 0-1.4 1.1-3 1.1-3s1.6-1.3 1.7-2.2c.2-.9.6-2 1.3-2 .6 0 .9.6.8-.6-.2-1.3-.9-1.6-.5-2.8.5-1.3.8-2.2.8-2.2s-1.1-1.4.2-2.2c1.3-.8 1.4-.8 2-1.7.6-.9 1.1-1.7.9-2.7-.2-.9-1.1-1.4-1.1-1.4h-2.7l-.9-.3-1.1.4h-.1.1c.1-.1.3-.3-.9-.7-1.6-.6-2.4-1.1-2.4-1.1l-.8-.8s-1.3-.2-1.3-.9c0-.8-.2-3.8 0-4.2.2-.5.6-1.9.6-1.9s1.7.2 1.7-2-.5-3.5-.5-3.9v-2.2s.8-.6 1.9-1.9c1.1-1.3 2-1.7 1.4-2.4-.6-.6-.9-.6-1.4-1.1s-1.6-1.1-1.6-1.1l-.3-.6.6-2.5.9-1.3 1.1-.6s0-.4.2-.8l-1.5-.3-.7-.3c-.7-.3-1 0-2.1-.9-1-.9 0 0-1 0s-2.8-.6-2.8-.6-.6-.4-1-.6-1.3 0-2.7-.2c-.6-.1-.7-.4-.8-.7-.4 0-.7-.5-.7-.5s.3.5.7.5c-.5 0-.5-.4-1-.7z"/><path class="st2" d="M198.5 72.6l-.9 1.3-.6 2.5.3.6s1.1.6 1.6 1.1.8.5 1.4 1.1c.6.6-.3 1.1-1.4 2.4-1.1 1.3-1.9 1.9-1.9 1.9v2.2c0 .5.5 1.7.5 3.9s-1.7 2-1.7 2-.5 1.4-.6 1.9c-.2.5 0 3.5 0 4.2 0 .8 1.3.9 1.3.9l.8.8s.8.5 2.4 1.1c1.2.5 1 .7.9.7l1.1-.4.9.3h2.7s.9.5 1.1 1.4c.2.9-.3 1.7-.9 2.7-.6.9-.8.9-2 1.7-1.3.8-.2 2.2-.2 2.2s-.3.9-.8 2.2c-.5 1.3.3 1.6.5 2.8.2 1.3-.2.6-.8.6s-1.1 1.1-1.3 2-1.7 2.2-1.7 2.2-1.1 1.6-1.1 3 .8 1.6 1.4 2.7c.6 1.1 1.4 1.1 1.4 1.1s.8.8.8 1.6 0 .8.2 1.3.6 1.6 1.6 2.4c.9.8 1.1.5 1.1.5l.5.9s1.3.3 2.8.3c1.6 0 1.4-.5 1.4-.5s1.7.2 2.8.5.3.9.3.9h3.1c1.1 0 1.7-.3 1.7-.3s1.3-.2 1.9.3c.6.5 0 .8-.2 1.3s.5.8.9 1.4c.4.5 1.1 2.5 1.4 3.1l.4.1s.2.2.4.5l1.6-.3 2.2.2 1.4-.8 2.5-1.3s2.4-.9 3.1-1.6c.8-.6 1.3-2.5 1.3-2.5s.8-2.7.9-3.3c.2-.6.9-1.1 1.6-1.4.6-.3 1.6 0 1.6 0s1.6.9 2.4.2c.8-.8.6-2.8.6-2.8s1.9-.8 2.5-.8.5-1.1.5-1.6.8-.6 1.9 0 1.3-.3 1.3-.3 2.2-.2 3.1-.5 2.4-1.9 2.5-2.7c.2-.8.9 0 .9 0s2 .6 2.4 0c.3-.6 1.4-.9 2.2-.9.8 0 1.9 1.3 2.7 1.3.8 0 1.1-.6 1.7-1.6.6-.9.3-3.6 1.1-5.2s1.4-2.4 1.6-3 .6-.8 1.3-.8c.6 0 0-1.3 0-1.3s-.2-1.4-.2-2 0-1.1.2-1.6-.2-3-.2-3.9 0-1.7-.6-2 .2-1.4.2-1.4v-2c0-.8-1.1-2.8-.9-3.8.2-.9 2.2-.9 2.7-1.1s1.3-.6 1.8-1.9-1.4-1.5-1.9-2.6-.3-3.3 0-3.9.3-2.5.3-3.3-.5-1.9-.9-3.1c-.5-1.3 0-1.4.2-2.2.2-.8 0-.6-.3-2s.3-2.2.3-2.2v-1.3c-.5.1-.9.3-.9.3s.4-.2.9-.3v-1l-.5-1.4s0-.9-.3-2 .2-2.7.2-2.7V60s-1.3.2-2.4.2-.9-1.1-.9-1.1l-.8-1.7s-.2-.9-.6-1.4c-.5-.5-1.3-.8-2.4-1.6s-1.1-2.2-1.1-2.2l-1.4-.5s-.6-.8-1.6-1.1c-.9-.3-2.2-.3-2.2-.3s-.6-.5-2.4-.8c-1.7-.3-3.5-.6-3.5-.6l-2.2-1.1s-.8-.2-2.7-.2-1.6.3-1.6.3h-1.4s-1.6 0-3.1.6c-1.6.6-3.3 2.5-3.3 2.5v1.7c0 .8-.2 1.1-.2 1.1s-.9 0-2-.2-1.1 0-1.9.9c-.8.9-.9.5-2.5.5s-.9.5-2 .8-2 .6-3.3 1.6c-1.3.9-.9 1.3-2 1.4-1.1.2-.8.8-1.6 1.9-.8 1.1-1.6.2-3 .6-1.4.5-2 1.4-3.5 2.2-1.4.8-2.4 1.9-2.4 1.9s-1.3-.3-2-.2c-.8.2-1.4.2-1.4.2l-1.1 1.9s-1.1 1.1-1.4 1.6c-.3.5-.9.6-.9.6l-1.1.6c-.5.3-.8.7-.9 1.1l.4.1-.4-.1c-.2.4-.2.8-.2.8l-1.5.6z"/></g><path class="st1" d="M162.9 173c-.7-.2-.6.2-1.1.4-.4.2-.7.2-1.3.2-.6-.1-.8-.6-1.3-.8-.5-.3-.4-.3-.9-.8s-2-.2-2-.2-.9 0-1.4-.2-1.2-.7-1.4-1-.4-.8-.4-1.3-.8-.9-.8-.9h-1.9c-1.1 0-1.6-.4-2.1-.7-.1-.1-.3-.1-.5-.1h-1.2c-.3 0-.7.9-1.1 1.1-.4.2-.6.4-.7.6-.1.2-.2.7-.6 1.3-.4.6-1.3.3-1.3.3s-.8 0-2.3.1-1.6-.6-1.9-.9c-.3-.3.2-1.4.2-2s-.4-1-.8-1.3c-.4-.3-1.7-.2-1.7-.2s-1.5.1-2 .1c-.5.1-1.8 0-2.8-.3s-.7.1-.7.1-.7 1.3-1.1 1.8c-.3.5-.7.3-1.8.1s-1.6-1-1.7-1.5c-.1-.6.1-1.5.1-1.7.1-.2.3-.7-.1-1.3-.3-.6-1.1-.8-1.8-1.2-.8-.4-1.2-.2-1.7-.3-.6-.1-.8-.5-1.5-.8s-1.2.5-1.2.5-1.2 2.2-1.6 2.9-2.8 4.3-2.8 4.3l-1 1.4s-.5.9-1.4 1.2c-.8.2-.9-.4-1.3-.7s-.8-1-1.4-1.2-1.1.7-1.2 1.6c-.1.9-.6 1.3-1.1 2.1s-1 1.5-1 1.9-.2.9-.4 1.6c-.3.7-.8.9-.8 1.8.1.8 1.1 1.3 1.3 1.5s1.1.7 1.7 1.2c.6.4-.2 1.1-.7 1.3-.4.2-1.2 1.9-2 2.4-.8.4-1 .9-1 1.2.1.2.7 1.4.7 1.6s.2 1.2.7 2.3c.5 1.2.8 1.2 1.3 2.5.2.4.2.7.2.9l.7.6.4 1.5.4 1.1s.1 1.2.1 1.6c0 .3.3 1.1.4 1.5.1.3.9 1.3 1 1.7.1.3.1.7.1 1.1 0 .4.1 1 .1 1.3s.6 1 .4 1.8c-.1.8-.4 1.5-.4 1.5s0 1.8-.8 3 .4 2 .4 2 .3 1.1.2 2.3-.9 1.9-1.6 3.1c-.7 1.2.3 1.7.3 1.7s.8 1 .9 1.5c.1.4 0 .9-.2 1.9s.2.8.9 1.3c.7.6 0 0 .4.6s1.2.3 1.2.3l1-1s1.9-.6 2.7-.8 1.3 1.1 1.3 1.1 1 .1 1.3.6c.3.4 0 2 .1 3.1s.6 1.6.6 1.6l.9 2.5s.7 1.9.7 2.3c0 .4 1 .9 1.7 1.1.7.2.7.7.9 1s.6.8 1.1 1c.6.2 2.9.4 2.9.4l.4.4c.4.4 1.3-.7 1.3-.7s.6-.8 1-1.3c.4-.6.1-.7.9-.8.8-.1.2-.6.2-1.3 0-.8.2-1.3.2-1.3l-.7-1.3s-.1-1.7-.1-2.1c0-.4-.4-2.3-.6-2.9-.1-.6 0-1.2.1-2.3s.8-1 .8-1 .4-.6.6-1.1c.1-.6-.6-1.6-.6-2.2 0-.7.3-1.7.3-1.7s.2-1.3.2-2.5c0-1.1.8-.8.8-.8l1-1.2s1.2-1.3 2.1-1.3c.9 0 1.3 1.6 1.3 1.6s.6 1.3.8 1.9c.2.6.8.9.8.9l2.6.7 1.8.7v1.8l.9.2 2.3-.6 2.2-.3 2.6-.2 3.1-.1s1.6-.9 2.7-1.3.7 0 1.9.3 1.2-.6 2.1-1.3c.3-.3.6-.4.8-.4.1-.2.3-.6.4-1.1.3-1.2 0-1.7.6-2.3.6-.7 1.2-1.6 2.5-2.3 1.2-.8 2.1-.7 2.9-.9.8-.2 2.7-.6 2.7-1.2 0-.7 1.5-2 2.9-2.6 1.5-.6 2.3-.4 2.8-1.2.4-.8.8-1.8.9-2.2.1-.4.3-.8.6-1.6.2-.8.2-2.1.2-2.1l.6-1.5s-.1-2.8-.6-3.7c-.4-.9-.2-2.3-.2-2.3s.4-.3.8-.7c-.3-.1-1.1-.7-1.4-.8-.4-.1-1.4-.6-1.4-.6s-1-.5-1.8-.8c-.8-.4-2.4-1.6-2.4-1.6s-2.3-2.4-2.9-3.3c-.6-1-1.2-1.1-1.2-1.1l-.2-.9c-.2-1-.1-.7-.6-1.2s-.6-.5-1.1-1.4c-.5-1 .2-3.2.2-3.6 0-.4-1-.7-1-.7l-.8-.6-.2-1c-.4.1-.8.2-1 .2 0-.4.1-.4-.6-.6z"/></g></g></g></g></g></g></g><g id="jpmap"><g id="Group"><path id="Combined-Shape" class="st4" d="M219.2 376.5c.3.7.2 1.1.1 1.5-.1.4-.1.9.1 1.4.1.5.9 2.6 2 3.2s2.9 1.1 3.4 1.2 1.7.3 1.9.1c.2-.2.5-1.4 1.1-1.6.5-.2 1.4-.8 2.1-.5.7.3 1.8 1.4 2 2.1.1.6.4 1.6-.1 2s-.9.6-1.1.9c-.2.2-.2.5-.5.7s-2.2.9-1.8 1.6c.4.6.6.9 1.6.9 1-.1.9-.2 1.4-.2s1.6-.2 1.9.1c.3.2.8 1.6 1.1 2.2s.4 1.2.9 1.7 1.4 1.8 1.1 2.4-.6 1-.6 1.4.1.7-.2.9c-.3.2-2.2 1.8-3.1 3.4s-3 6.6-3.5 7.8c-.5 1.3-1.5 5.2-1.7 6.5s-.6 4.8-.8 5.5c-.2.8-.6 2.9-1.1 3.4-.4.5-.6.9-1.3.8-.6-.2-.8-.5-1.5-.8s-1.2-.6-1.6-.4c-.5.3-.8.3-.8.9s-.2 3.2-.9 3.7-1.7 1.7-2.5 2c-.8.2-1.8.6-2.3 1s-1.1 1-1.1.6.1-.6-.1-.7c-.1-.2-.2-.3.3-.7.5-.4 1.6-2.3 1.6-3-.1-.7-.3-2.2-.5-3-.3-.8-.5-2.1-.5-2.3-.1-.2-.1-.5-.6-.5s-1.3-.3-1.1-.6c.2-.3.6-.5 1-.6.4 0 .8 0 .8.2s.1.3.3 0 .9-1.2.7-1.6-1-.8-2.2.1-2.5 2.3-2.2 3.7c.3 1.4 1.1 2.7 1.5 3.2s1.1 1.1 1 1.3c0 .2-.6 2.1-1.8 1.5s-2-1.2-3.1-1.4c-1.1-.2-2.7-1-3-1.5-.4-.5-1-1.3-.4-1.5s2.6-1.2 2.7-2c.1-.8.2-2.1-.4-2.9-.5-.7-1.2-1.2-1.5-1.4-.3-.1-.5 0-.4-.4s.5-1.9.4-2.7c-.2-.8-.5-1.4-.6-1.8 0-.5-.7-1.5-.8-2s-.3-1.8.2-1.6c.5.2 1.5.9 2.2.9.6 0 1.7-.3 2.1-1.1.4-.8 2.1-3.8 2.6-5.1.5-1.2 1.3-3.1 1.3-3.1s-.6 0-.7.1c-.1.1-.7.1-1 .3-.3.2-.4.3-.5.2-.1-.1-.1-.4-.3-.1s-.5.8-.6.4c-.1-.3.4-1.1 1-1.6.5-.5 1.8-1.4 1.7-2.3-.2-.8-1.3-2.3-1.7-3s-1.4-2.4-1.7-2.9-1.5-1.8-2.1-1.5-.8.4-.9 1.1c-.1.7-.2 1.8-.3 2.2-.1.5 0 .8-.4 1.3-.5.5-1.2.7-.8.9.5.2.9.1 1.7.2s1.6.3 2 .7c.4.4 1.2 1.6 0 3-1.1 1.4-2.5 1.7-2.8.9-.3-.7-.3-1.9-.5-2.3s-.2-1.2-1.2-1.1-1.4.3-1.9.9-.8.6-1.5 1.3c-.7.7-1.1.8-1.4 1.2-.3.4-.5.7-.3.1s.6-1.7.4-2.3c-.3-.6-1.2-2.1-1.6-2.7-.5-.6-1.4-1.9-1.2-2.5.3-.6.5-1.4 1.3-1.1s1.6.9 1.8 1.3c.1.4.5 1.1.5 1.6s.1 1.2.3 1.1.5-.4 1.1-.3 1.2.5 1.1.1c-.1-.4-.7-1.7-1.3-2.4-.6-.7-1.6-1.5-2.3-1.8-.6-.4-3.5-2.3-3.5-3.6s.4-2.1 1.4-2.2c1-.2 1 0 1 0s2.9-3.5 3.7-2.9.9 1.4 1.3 1.5c.4.1.6.2 1.1-.4s1.6-2.7 2.2-2.8c.6-.1 1 .1 1.6.3.5.2 1.4 0 1.7-.4s.9-3.3.9-3.3.7-1.7 2-2c1.4-.3 1.4-.5 2.2-.5s1.4-.2 2.2-.4 2.3-.8 2.6-.1zm50.8-7c.5.3 1.1.5 1.6.4.4-.1.7-.6 1.2-.2.6.4.7.5 1 .6.3 0 .5.4.7.7.1.3.7.9 1.2 1.3s1.5.7 2 .7 1.7.1 2 .4c.3.2.7.9.4 1.6-.3.8-.4 1.5-.1 2.2.4.7.9 1.1 1 2 0 .8.2 1.9-.3 2.5-.5.7-1.2 1-1.8 1.4-.5.4-1 .9-1.4 1.1-.5.3-1.3 1-1.8 1.5s-1.4 1.6-1.8 2.3c-.4.8-.7 1.7-1 2.3-.2.6-.4 1.1-.4 1.4 0 .4 0 1.1-.1.9-.2-.2-1.4-1.3-1.6-1.9s-1.1-1.9-2-2.8c-.9-.8-2.5-1.2-3.5-1.3-1-.1-1.8-.1-2.8.6-.9.7-1.4 1.1-2.1 1.3-.6.3-2.2.8-2.5 1.4s-.4 2.1-.7 2.5c-.3.4-.9 1.7-1.3 2.2s-.9 1.2-1 1.4c-.1.2-.9.2-1.2.5-.2.3-.3.3-.3.8s-.1 1.5-.2 1.7-.3.5-.3.9-.1.7.1 1.1.7 1.3.3 1.2c-.4-.1-1-.5-1.3-.8-.2-.3-.3-.8-.6-.8-.3.1-.6.2-1.3.3-.6 0-.9-.2-1.5-.2s-1.6-.3-1.4-.5 1.2-1.4 1.2-1.6v-.2s.2-.4-1-.4-.9-.4-1.2-.5c-.4-.1-1.1.4-1.3.1-.1-.2.1-.9-.2-1.1-.3-.3-1-1.1-.7-1.5.3-.3.9-.7.9-1.3.1-.7.2-1.1.4-1.3.2-.2 1-.7.9-.9-.1-.1-1.2-1.3-1.6-1.6-.4-.3-1.1-1.2-1-1.7.2-.5.6-1.3-.1-1.5-.7-.1-1.5.3-1.9.5s-.8.5-1.3.8-1.7.4-1.1.1c.5-.4 1.9-1 2.3-1.3s1.7-1.1 2.1-1.2c.3-.1.8-.5 1.2-.9.4-.3.6-.6 1.1-1s1.2-.5 1.6-.9 1.2-.8 1.3-1.1c.1-.3.4-1.7.4-2.1s.7-1.7 1-2.2c.3-.4.6-1.3 1-1.7.4-.4 1.2-.8 1.5-1.2.3-.4.7-1.4 1-1 .3.5.6 1.4.8 1.9s1.2 2.2 1.5 2.3c.3 0 .3 0 .9-.2.6-.3 1-.5 1.8-.6s1.2-.1 1.4-.1c.2 0 1.6.1 1.6.1s2.1-.6 2.5-1.5c.3-.9.2-1.6.2-2 0-.3-.5-1.2.2-1.3.6-.1.6.1 1.3-.5.6-.5.8-1.2 1.3-1.1.4.1.7 0 1.2-.5.4-.1 1.1-.7 1.6-.5zm118.6-145.4c.1-.2.3.2.4.3s.5.3.6.3c.1.1.5.4.7.5s.5.1.9.1.7.2.8.4c.2.2.8 1 .9 1.2s.9.8 1.5 1 1.4.1 1.6 0c.2 0 1.6-1.1 1.7-1.2.1-.2.3-.2.3-.2s-.1.8-.2.9c0 .2-.1.6-.2.8s-.5 2.4-.5 2.4-.5.9-.4 1.3c.1.4 0 2.6 0 3.2 0 .6.1 4.1.2 4.7.1.5.7 3.7 1.1 4.3.4.5 1.2 1.2 1.6 1.6.5.4 1.4 1 1.6 1.2.3.3.8.7 1.1 1.2.3.5 1.1 1.7 1.1 2s.1 1.7.3 2c.2.3.4.6.6.8s0 .7 0 1.1c0 .4.2 1.2.5 1.5s1.1 1 1.2 1.4c.1.4.5 1.9.6 2.3.1.5.2 1 .2 1.4s-.3 2.5-.3 2.8-.2.7 0 .9c.2.2.7.1.9.3.2.2.3 1.2.1 1.6-.2.5-.3.7-.2 1 .1.3.4.7.1 1.2s-.9 1.3-1.1 1.7c-.2.4-.5.7-.6 1.2 0 .5.2 1.2-.1 1.4-.3.2-.7.6-.8 1 0 .4.1 1.1.1 1.2s0 .4-.3.7c-.3.3-.6.6-1.1.9s-1-.1-1.1.2c-.1.3-.3.9-.2 1 0 .1 0 .5-.3.3s-.8-.7-.7-.4c.1.4-.1.9 0 1.1.1.3.4 1 .1 1s-.4-.5-.5-.1c0 .4-.5.2-.6.1-.1-.2-.4-.4-.4-.1 0 .4-.1 1-.3 1.3-.2.3-.5.9-.4 1.4s.3.7.2.9c-.2.2-.3.5-.6.6-.4.2-.9.4-.6.6s.6.2.5.5-.1.6-.2 1c0 .4.1.7.3.9.3.3.5.5.3.7-.3.1-.2-.2-.5.1-.3.3-.5.7-.5.9 0 .2-.3.4 0 .7.3.2.5.2.6.4.1.2-.1 0 .1.5s.3.3.3.8.2 1.5-.1 1.2c-.3-.3-.7-.9-1.1-1.1s-.9-.4-.6-.5c.3-.2.7-.3.3-.5-.5-.2-.6-.3-.8-.2-.2.1-.1.2-.4-.1-.3-.2-.5-.4-1.2-.4-.6 0-1.1.3-1.4.6-.4.3-.6.4-.7.7 0 .3-.1.5-.3.6-.2 0-.3 0-.4-.4-.2-.4-.2-.6-.5-.5-.4.1-.6.2-.7.5s-.2 1.3-.5 1.9-.4.9-.8 1.3-.9 1.2-.9 1.6c-.1.4-.4 1.3-.4 1.9.1.6.1 1.5.1 1.8s.6 1.7.7 1.9c.1.2.4.5.5 1.1s.4 1.7.4 2.6c.1.8.4 3.4.5 3.9 0 .5.2 2.1.1 2.6s-.2 1.2-.4 1.7c-.2.6-.2.5-.3 1.2-.2.7-.2 1.3-.4 1.9-.2.6-.4 1.7-.6 2.2-.3.4-.5.6-.9.9-.5.4-.9.6-1.1.9-.2.2-.3 1.2-.6 1.3-.3.1-.6.2-.7.6s-.5 1.9-.6 2.3c-.2.4-.4 1.1-.6 1.6s-.8.8-.8 1.2c0 .4-.2.9-.2 1.2 0 .4.1.9 0 1.1s-.1.5 0 .7.3.7-.2 1.2-1 1-1 1.3c0 .4-.2 1.4-.1 1.8.1.5.3 1.3.5 1.5.1.2 1.2 1.6 1.4 2 .2.4.8 1.2 1.1 1.6.3.5 1.5 2.3 1.6 2.6.2.4.7 1.2.7 1.3 0 .1.1.3-.2.2-.3-.1-1.6-.1-2.4 0-.7.1-1.1.3-1.6.6s-1.7 1.4-2 2-1.1 1.6-1.2 2.5-.3 2.8-.4 3.2c-.1.4-.7 2.7-1.1 2.7s-1.6.1-2 .2-1.2.3-1.7.7c-.5.4-.8.8-1.3 1.1-.5.2-.9.4-1.1.9s-.4 1.5-.8 1.6-1.2.2-1.5-.1c-.4-.3-1.6-.5-1.2-.9s1-.7 1.1-1.4c.1-.7 0-2.5-.1-2.9 0-.4-.4-1.9-.4-2.1s0-.5.2-.7.6-.5.9-.7c.3-.1.5-.2.5-.5.1-.3.7-1 .9-1.2.2-.3.6-.7.9-1s1.3-1.5.8-2-1.3-.9-2.1-.9c-.7 0-1.6.2-2 .6s-1.2 1.5-1.5 1.8c-.3.4-.6 1-.9 1.4-.2.4-.8.9-.6 1.3.2.4.8 1.3.9 1.6.1.4.4 1.9-.2 2.6-.5.7-1.4 1.2-1.3.4.1-.8-.6-1.9-.8-2.2-.2-.3-1.4-.8-1.9-.9s-1.3-.1-1.8 0-1.5.3-2 .6-1.3.8-1.4 1-.2.5-.1.9.3.8.1.7c-.2-.1-1.2.6-1.2 1.1s.1 1.2.2 1.5.5.9.6 1c0 .2.2 1.5-.8 2.6-1 1.2-1.4 2.5-1.7 2.9-.4.5-1.2 1.2-1.7 1s-1.3-.8-1.6-.9c-.3-.1-.5-.7-.4-1.3.1-.6.2-1.8.2-2.3s-.1-1.2-.1-1.7.3-1.2.8-1.3c.5-.1 1.3-.4 1.3-.8 0-.3-.9-1-1.5-1.3s-1.8-.4-2.7-.2c-.8.2-1.6.8-1.8 1.1-.3.2-.5.2-.4.7s.5.8.1 1l-1.6.8c-.5.2-.9.4-1.1.7-.1.4-.4 1.3-.8 1.8s-1.3 1.1-1.4 1.6-.5 1.2-.4 1.6.4 1 .1.9-1.5-.5-2.3-.8-1.4-.6-2.5-.4c-1 .2-1.7.4-2.3.4-.6-.1-1.9-.5-2.6-.6-.7 0-2.6 0-3.8.2-1.2.2-3.5 1-4.1 1.2s-2.7.3-2.6 0c.2-.3.9-1.2 1.2-1 .3.1.6.5.8 0 .3-.5 1-1 1.5-1.1s.7-.2 1 0 .3-.1.3-.5-.1-1.1-.5-1.3c-.4-.2-.9-.5-1.1-.1s-.1.7-.6.6-1.7-.1-2.3-.4c-.5-.3-.8-.2-1-.5s-.5-1.2-.6-.8c-.2.4-.4.9-.2 1.6.2.6.8 1.4.5 1.4-.3.1-1.1-.2-1.7-1.3-.6-1.1-.5-1.9-.4-2.7.1-.8.3-1.6.3-1.9s0-.5-.3-.5-.3.1-.7.2c-.4.1-.6 0-.9.2s-.5.5-.7.7-.6.8-.7 1.1c-.2.4-1.5 2.1-1.8 2.7s-.5 2-.2 2.6 1.5 1.7 2 1.9c.5.2 1.6.9 2.1.9.5.1 1.5.3 1.7.7.2.4.9 1.2.5 1.8-.5.5-.6.9-.9 1.4-.3.4-.7.9-.8.8-.1-.1-.4-.5-.8-.7-.3-.1-.5-.2-.8-.2s-.5-.4-.7-.1-.3.7-.9.8c-.5.1-.7.1-1.1.2s-.6.2-.8.4-.8.4-1.4.5c-.6.2-1.6.4-1.8.9-.2.5-.2.9-.3 1.2-.1.2-.3.4-.6.4-.4 0-.8.1-.7.4.1.3 1.1 1.1.9 1.4-.2.4-.6.5-.8.8-.2.3-.3.4-.4.5s-.3 0-.5.3c-.2.2-.7.5-1 .7s-.8.8-.8 1.2c-.1.5-.5 1.1-.6 1.4-.2.3-.1.6-.4.9s-.8 1.1-.8 1.3c0 .2-.4.9-1.2 1.6-.8.6-1.4 1.5-2.6 1.5s-2.9-.5-3.8-.8-1.8-1.1-2-1.7c-.2-.5-.5-.9-.7-1s-.7-.4-.3-.5c.4-.1 1.4-.2 1-.5s-.7-.7-1.3-.9c-.6-.2-1.2-.2-1.4-.5-.2-.4-.5-1.2-1.1-1.6-.6-.3-1-.4-1.3-.4-.3-.1-.6-.2-.4-.5s.5-.5.4-.8c-.2-.2-.8-.2-.3-.5.5-.2 1.7-.7 1.6-1 0-.3-.3-.6-.6-.7-.4-.1-.7.2-.6-.3s.3-1 .5-1 1 0 .9-.4-.7-1.4-1-1.5c-.3-.2-.6-1-.3-1.4.3-.4 1.1-.6 1.5-.9s2.1-1.6 2.4-2 .7-1.3 1-1.7c.4-.4.8-.8.8-1.2 0-.4-.4-.9-.4-1.1s-.5-.6-1-.8c-.5-.1-1.6-.3-2-.1-.4.2-1.2 1-1.5 1-.1 0-.5.1-.9.1.2.3.2.7.1 1-.3.4-.7.8-1.1 1.4-.3.5-.5.9-.7 1.4-.1.5-.3 2.3-.5 2.6-.3.3-.8.5-1.3.7-.5.1-2.5-.4-2.5-.9 0-.4 0-1.5.5-2 .4-.5 1.7-1.8 1.7-1.8s1.1-1 1.3-1.2c.2-.2.5-.7.8-1-.1 0-.2 0-.3-.1-1-.3-2.4-1-2.7-1.4-.4-.4-1-1-1.8-1.1s-3.4-.1-3.6-.2c-.2 0-.4-.2-.8.1-.4.2-.5.6-1.5.7s-1.3 0-1.8 0-.6.2-.8.6c-.2.3-.8 1.4-1.1 1.6-.4.2-.8.9-1.5.6s-.8-.8-1.1-.6c-.3.2-.8.7-.5.7s.8-.1.9.2c0 .3-.5 1.7-1.4 1.9-.9.2-2.2.5-2.7.4-.5-.2-.9-.2-.9-.6-.1-.4 0-.9-.3-.8-.2.2-.6.1-.9.4s-.3.6-.9.7c-.6.2-1.3.6-1.8.3s-.5-.4-.7-.2c-.3.2-.6.3-.7.5-.1.3-.4 1-1.4.9-.9 0-.9-.5-1.5-.5-.5 0-2 .3-2.4.5s-1.8 1.1-2.5 1.4-2.1.6-2.4.8c-.3.1-.8.8-1.1.9-.4.1-1.1.2-1.5.2-.5 0-.6.2-1.2.1s-.6-.8-.8-1.4c-.3-.5-.9-1.7-1.8-1.7-.9.1-1.4.8-1.7 1.2-.4.4-.9 1.1-1 1.5-.1.5 0 1.3-.2 1.6-.2.2-.5.5-.5.9s.1 1.5 0 1.8-.3.9-.6.9c-.3.1-.8 0-.7.3s.4 1.1.3 1.5c0 .4 0 .5-.5.9-.6.4-1.4.7-1.2.4.2-.2.1-.7.5-.7s.6.1.6-.3-.6-.9-1.1-1-1.2-.3-1.5-.5-.7-.8-1.4-.8c-.7-.1-1 0-1.3 0s-.5-.2-.4-.4c.2-.2 0-.9-.5-.9s-2.1.2-2.8.4c-.7.2-2.2.3-2.6.4-.5.1-1.2.2-1.6.6-.4.3-.5.7-1.3.7s-1.6-.5-2.2-.8c-.7-.3-.6-.5-1.6-.6-.9 0-1.7-.1-1.7-.5s.1-1.1-.3-1.3c-.5-.2-1-.4-.8-.5s.8-.6.8-1c0-.5-.4-1.7-.3-2 .1-.2 1-1.1 1.2-1.4.2-.2.6-1.1.9-1.1.3-.1.8-.2 1.3.1.5.3 1.4.8 2 .7.5-.1 1.6-.2 2.1-.4.5-.3 1.6-.9 1.9-1.4.4-.5 1.4-2 1.8-2.5.4-.5.9-1.2 1.6-1.3.6-.1 1.6-.2 2.1-.3.5-.1 1-.5 1.5-1 .5-.6 1.7-1.4 2-1.8s1.3-1.1 1.6-1.4 1.7-1.9 2.2-2.1 2.2-1.3 2.3-1.6c.2-.2 1.1-1.2 1.2-1.4.1-.2 1.3-1.3 1.7-1.6.4-.3 1.9-1.5 2-1.8s.5-1.8.8-2.1c.3-.3.8-.4 1.1-.5s.7-.7 1-.7c.2 0 1.2-.2 1.6-.4.4-.2 1.5-.2 1.7-.3.2-.1.7-.5 1.1-.8.4-.3.5-.5.9-.4.4.2 1.1.4 1.2.6s.2.7 0 .9c-.2.2-.8.6-.6 1 .1.4.6 1.1 1.2.9s1.6-.5 1.9-.9 1.5-1.4 2.3-1.4 3 .4 4 .5 2.6.1 3-.1 1.5-.3 2.4-.3 2.2.1 2.9-.1c.7-.2 2.2-1.1 2.6-1.3.4-.2 2.3-.9 2.9-1 .6 0 2.3-.1 3.1.1.8.1 1.6.3 2.1.2.5-.1.7-.3 1.1-.3.4.1 1.1-.1 1.5-.3.4-.2 1.9-1.1 2.4-1.1.5-.1 2.3-.9 2.8-.5.5.3 1 1.4.7 1.6s-.7.4-1 .8-.7 1-.4 1.3c.4.3.4.2.9.7s.6 1.5 1 1.2.5-.4.4-.8-.5-.6 0-.8c.5-.2 1.2-.5 1.6-.3s.1.5.5.4c.5-.1 1.1-.1 1.5.2.4.3 1.8 1.1 2.1.9.4-.2.9-1.1 1.5-1.3.6-.2 1.5-1 1.8-1.3s.9-1.4 1.5-1.3c.5.2 1.3.5 1.5.3s.1-1 .4-1.6c.3-.5-.2-1-.5-1.6s-1.9-2.2-1.6-2.9c.3-.8.8-2.2 1.2-2.6.5-.4 1.2-1.3 1.3-1.8.1-.5.1-1.1.5-1.2s2-1 2.2-1.3c.3-.3 2.4-1.9 2.8-2.3s2.9-3.4 3.6-4.5c.1-.2.3-.5.5-.9l.3-.8s.9-2.1 1.2-3.8c.3-1.6-.3-2.3-1-3.6-.7-1.3-.5-2-.1-3.1s2-2.6 3.1-2.7 2.4-1.1 3.2-1.4c.8-.3 2.4-1.5 3.6-1.1 1.3.4 0 2.1-.4 2.6s-.4 1.5-.4 1.8-1.2.5-1.6.7-1.5 1.2-1.8 1.5-1.2.1-1.7-.1c-.4-.2-.9.6-1.2 1.4s.3.9.9 1.2c.6.3 1.3-.2 1.8-.4.5-.3.4.8.4 1.6s0 1.6-.7 2.5c-.6.9.5 1.6.5 1.6l.9.5c.4.2.7.3 1.1.4 1 .2 3 .3 3.5-.3s.8-2.4 1.2-2.7c.4-.3 1-.7 1.8-.9.9-.2 1.9-.3 2.4-.5s2-.6 2.6-.9 1.4-.5 2.1-.9c.6-.4 1.3-.7 1.6-1 .3-.3.5-.9 1.1-.9s2.3.1 2.9-.6c.7-.7 2.2-2.2 2.8-2.6.6-.3 1.6-.7 1.9-1.3.4-.7.5-1.1 1-1.6s.9-1.1 1-1.2.7-1.2.7-1.2c.3-.7.8-1.8 1.1-2.5.3-.7.8-1.7 1.3-2.2.4-.5 1.7-1.4 2-1.6s2.7-1.6 3.6-1.9 2.9-2.1 3.4-2.7.8-2.5.8-3.1 1.4-4.4 1.6-4.8.7-2.2.9-2.6c.2-.4 1.5-1.4 1.7-1.9.2-.4 1.1-1.5 1.4-2s.7-1.7.7-2.1.6-1.5.7-1.9.2-1 .3-1.5c.1-.5.5-2.5.5-2.9 0-.5 1.3-1.4 1.6-1.8.3-.4.3-1.3.3-1.6 0-.4.2-1.2.4-1.7.1-.4.2-1.1.4-1.5.3-.3.2-2.3.2-2.7 0-.4-.4-1.2-.7-1.6-.3-.4-.5-1.2-.6-1.6 0-.3-.5-.9-.8-1.1-.2-.2-.9 0-1.1.1s-1.2.4-1.9.5c-.7.1-1.1-.9-1.2-1.2-.1-.3.3-.8.4-.8s1.5-.2 2.1-.3 1.4-1 1.7-1.4c.4-.4 1.1-2.8 1.1-3.2.1-.5.2-2.5.1-2.9-.1-.5-.8-1-1-1.2s-.3-.7-.4-1 .1-.9.1-1.1v-1.1c0-.2-.4-.3-.8-.5-.4-.1-.4-.4-.6-.5-.2-.2.5-.7.6-.8.1-.2.6-.5.8-.7.2-.2.7-1 .8-1.3.1-.3.6-.5.8-.6.2-.1.8.2 1.2.4.3.1.8-.3.9-.4 0-.1.8-.2 1-.3.2-.2.6-.4.6-.5s.4-1 .5-1.3.1-.9.2-1.3.2-1.2.3-1.5c0-.3.2-1.1.2-1.4 0-.3-.7-.8-.9-.9-.2-.1-.2-.4-.2-.6 0-.2.7 0 .8 0 .2 0 .2-.4.2-.6 0-.2.1-1.1.1-1.3 0-.3.2-.7.3-.6.1 0 .6.3.9.6s.5.6.8.8c.3.1.7-.2.9-.4.2-.2.7-.4 1-.3.3 0 .9.5 1.1.7s.3.8.2 1c-.1.3-.1 1.1-.1 1.1s.3 1.3.3 1.4c0 .1.2 1.5.2 1.8 0 .4.3 1.3.3 1.5s.5.5.8.8c.3.2.6.1.8.1.3-.1.3-.1.5-.4.1-.3.6-.7.8-1 .2-.3.1-.6 0-1s0-.4.1-.5.3-.6.4-.9c.1-.3.4.2.6.2.1 0 .6.2.7.3.1.2.5.7.6.9s.7.5.9.6c.2.1.7.5.8.7.1.2.5.2.8 0s.7-.8.8-1.1c.1-.3.7-1.6.8-1.8.1-.3.1-1.4.2-1.8 0-.4.3-.6.4-.9 0-.3-.1-1.2-.3-1.5-.2-.3-.7-.8-.8-.9-.1-.1-.3-.4-.4-.4-.2 0-.4.5-.4.7s-.3.4-.5.6c-.2.2-.5.3-.8.4-.3.1-.6.3-.7.3s-.6-.2-.7-.2c-.1-.1-.4.1-.5.2-.1.1-.3.3-.6.3-.2 0-.7.1-.9.1-.2 0-.6.3-.8.4-.2.1-.6.3-.7.3s-.3-.2-.5-.3 0-.8 0-1.1.2-.7.3-1.1c.1-.3.3-.9.3-1.5 0-.5.3-.6.3-.8s.3-1.2.5-1.6c.2-.4.5-.6.8-.8.2-.2.2-.8.2-1-.7-.2-.5-.3-.4-.5zm-41.9 67.6c.2 0 .2.5.2.9 0 .5-.2 1.3-.4 1.8s-1.1 1.5-.8 1.9c.4.3.5.5 1 .6s1.1 0 1.2.4-.2 2-1.2 2.9-1.7 1.3-2.3 1.6c-.5.3-2 .6-2.4.6-.3 0-.4-.4.1-.6s.8-.3.8-.8 0-1 .3-1.2.9-.8.5-1.1c-.4-.3-.5-.6-.9-.2-.3.3-.3.9-.6.7s-.5-.8-.5-1.1c0-.3.1-.7.2-1 0-.3.3-.6.5-.9.1-.3.9-1.4.9-1.4s.7-.9 1.1-1.1c.3-.1 1-.7 1.2-.9.3-.3.9-1.1 1.1-1.1zm56-156c1.4-2 2.3 1.2 3.2 2 1.1 1.1 2.2 1.9 3.2 3.2s1.9 2.6 3 3.7c3 3 4.4 7.1 7.3 10.3 1.1 1.2 2.3 2.2 3.5 3.2 1.3 1.2 2.7 2.4 4.3 3.4 1.5.9 3.2 1.3 4.7 2.3.4.3.9.6 1.3.8 2.5 1.4 4.9 2.1 7.8 3.1 2.9 1.1 5.6 3.6 8.9 3.1s5.5-3.6 7.5-5.9c.7-.8 2.9-3.8 3-1.4.2 3.5-3.8 5.8-4.5 9-.5 2.7 2.3 4.4 2.7 6.9.2 1.1-.3 2.3-.1 3.4.2 1.1 1.1 2.1 2.2 2.4.6.2 1.6.3 2.2.1.7-.2.9-.9 1.2-1.4.4-.6.9-1.1 1.7-1.4.5-.1 1.4-.2 1.5.4.1.5-.8 1.1-1.2 1.4-1.3 1.1-2.4 2.9-4.2 3.3-1.8.4-3.6-.1-5.2 1.1-.8.6-1.2 1.5-2 2-1.5.9-2.1-.7-3.2-.5-.8.1-1 1.2-1.5 1.7-.7.7-2.2.1-3-.2-1.7-.5-3.9-.9-5.6-.4-3.1 1-5.5 3.2-7.7 5.4-2.8 2.8-6.1 5.7-7.1 9.7-.3 1.3.4 2.5.1 3.9-.2 1.5-1.4 2.6-1.4 4.2-3.2-3.7-7.7-5-12-7.2-1.5-.8-3-1.6-4.3-2.8-.9-.8-2.1-1.4-3.2-2-2.1-1.1-3.9-2.8-6.3-3.5-.8-.2-1.5 0-2.2.2-1.6.5-3 1.4-4.3 2.3-1.2.8-3.4 5.4-5.3 4.6-.5-.2-.6-.9-.9-1.4-.2-.5-.6-.9-.9-1.3-.7-1.1-1.4-2.2-2.6-2.9-1.4-.8-4-.6-5.2.5-1.1 1.1-2 2.8-2.2 4.3-.3 2.3 1.1 2.3 2.6 3.5 1 .8 1.5 1.5 2.8 1.5 2.5.1 3.4 1 4.9 2.8.8.9 1.1 1.5 2.2 2.1 1.2.6 2.7 1.3 1.5 2.5-.5.5-1.8 1.6-2.7 1.2-.8-.3-1.4-1-2.1-1.4-.8-.4-1.4-.3-2.3-.3-1.8 0-2.9 1.3-3.9 2.5-.7.8-.6 1.7-.8 2.6-.2.6-1.5 1.3-2 1.7-.3.2-1.6 1.7-1.8 1.7-2.1-.2-3.3-1.7-3.4-3.7 0-1.1.5-5.4 2.2-4.9 0-1.3.5-2.6.1-3.9-.2-.8-.9-1.9-1.5-2.4-.7-.5-1.5-.6-2.1-1.1-.5-.4-.7-1.1-1.2-1.6-2.1-2 .2-8 2.1-9.6 2.1-1.8 5.7-2.2 7.5-4.2.8-.9 1.5-2.2 1.7-3.5s-1.2-2.3-2-3.1c-1-1.1-1.2-3.6.7-4 2.9-.6 3.5 2.2 5.8 3 .5.2 1.1.2 1.7.2s1.3-.4 1.8-.3c.9.1 1.5 1 2.4 1.1 1.1.1 2.3-.4 3-1.2.8-.9 1.7-1.9 1.9-3.1.2-1.4-.6-1.8-1-3-.2-.8.2-1.6 0-2.5-.2-1.1-.8-1.8-.6-2.9.3-1.3 1.3-1.6 2.4-2.1 1.2-.5 1.5-1 2.3-1.9.1-.1.1-.3.1-.4l.1-.1s-.1-.2-.1-.4c.1-.2.3-1.2.3-1.5.1-1.6-.1-3.2 0-4.8.1-1.4.6-2.6 1.1-3.9.4-1 .4-2 .7-3.1.6-2.5 0-5-.5-7.4-.6-2.5-2.7-4.7-2.8-7.3 0-1.6.7-4.5 2.6-5 1.6-.4 2.4-.5 3.1-1.4z"/><path id="Fill-101" class="st4" d="M135 395c-.1 0-.1-.2-.1-.3 0-.2.1-.3.1-.4-.1-.1-.1-.1 0-.3s-.1-.5-.2-.5-.1-.1 0-.2c.1 0 .1-.2 0-.4s-.1-.2 0-.3c0-.1-.1-.3-.2-.4-.1-.1-.2-.1-.3-.3-.1-.2-.1-.3 0-.5s-.1-.2-.2-.2-.2 0-.3.1c-.1.2-.1-.2-.2-.3-.1-.1-.2-.2-.2-.3 0-.1-.3-.2-.4-.2-.1 0-.1-.2-.3-.3-.1 0-.1-.2 0-.3.1-.1-.1-.1-.2-.1s-.1 0-.2.1c0 .1-.1.1-.2.1s-.1.1-.2.3c-.1.2 0 .3.1.4s.2.1.2.2-.1.3-.1.4c-.1.1-.2.4-.4.7-.2.3-.2.5-.3.6 0 .1 0 .2-.1.3-.1 0-.1.1-.2.3 0 .2-.1.1-.2.2s-.1.1-.2.3c-.2.1-.3.2-.3.4s-.1.2-.3.2c-.2.1-.3.2-.4.3-.1.1-.1.4-.3.4s-.3 0-.4.1c-.1.1-.3.2-.5.1s-.2 0-.2.1.1.1.2.3c.1.2.1.6 0 .7l-.1.1c-.1.1-.2.2-.4.3-.2.2-.6.2-.8.3s-.3.1-.3.2 0 .3-.1.3c-.2 0-.2.1-.2.2s0 .1-.1.2-.1.3 0 .5.3.1.5.1c.1 0 .2.1.3.2 0 .1 0 .1.2.2.1.1-.1.1-.1 0h-.3c-.1 0-.2 0-.2-.1s.1-.1 0-.2-.1 0-.1 0c0 .1-.2.1-.2-.1 0-.1-.1-.1-.2-.1s-.1.1.1.1c.1 0 .1.1-.1.2-.1.1-.3.2-.5.5l-.2.2c-.1.1-.2.1-.2.1-.1 0-.4.1-.7.3-.3.2-.3.1-.5 0-.3-.1-.2.1-.3.2s-.3.1-.4 0-.2 0-.3 0-.2 0-.3-.1 0-.1 0-.2-.1-.1-.2-.2-.1-.1-.2-.1h-.2c-.1 0-.1-.1-.2-.1 0-.1.1-.1.2-.1.1.1.1 0 .1-.1-.1-.1 0-.2.1-.3 0-.1.1-.3.1-.4s.1-.3.2-.3l.3-.3c.1-.1.1-.1 0-.1s-.4-.1-.5-.2-.4-.1-.6-.2-.1.1-.2.1-.1-.1-.1-.2c.1-.1.1-.2 0-.2s-.3-.1-.5-.1c-.2-.1-.3 0-.5.1s-.7.1-.9.1h-.4c-.1 0-.2.1-.3 0-.1 0-.3-.1-.4-.1s-.1-.1-.2-.2-.1 0-.1.1-.1.2-.1.3c0 .1 0 .1-.1.2s-.1.2-.1.3c0 .1 0 .2.1.1.1 0 .1 0 .2.1s.3.3.3.4 0 .3.1.4 0 .1-.2.1-.2.1-.3.3c0 .2 0 .5.1.6 0 .1.2.2.2.3 0 .1 0 .2.1.3.1.1.2.3.2.5s.1.2.3.2c.1 0 .1 0 .3.1s.2 0 .3-.1.1-.2.1-.2h.2c.1 0 .2.1.3.2s.1.2.4.1c.2 0 .2 0 .5.3.3.2.7.2.8.3.1 0 .2.1.2.4s-.1.5-.2.7-.2.3-.3.4-.1.2-.3.4c-.1.2-.1.1-.2 0 0-.1-.1-.1-.2 0l-.3.3c-.1.1-.2 0-.3-.1-.1-.2-.2-.1-.1.1s-.2.2-.2.3c0 .1 0 .2-.2.2s-.1 0-.2.4-.2 0-.4 0c-.2.1-.4.2-.5.2s-.1.1-.1.2 0 .1-.2.2-.2 0-.3-.1-.1-.1-.3-.2c-.1-.1-.2.1-.2.2s0 .1-.2 0c-.1-.1-.1 0-.1.1v.1c-.1 0-.1-.1-.1-.1-.1-.1-.2 0-.3 0s0 .2-.1.3c-.1.1-.1.1.1.4.1.3 0 .3-.2.3s-.2.1-.2.2c0 .2-.2.3-.3.3s-.1 0-.2.1-.3.2-.3.2c0 .1-.2.2-.3.2s-.1.2 0 .3c.1.1.1.2 0 .3-.1.1-.2.1-.3.1h-.2c-.1 0-.1.1-.2 0l-.2-.2c-.1-.1-.2 0-.2-.1s0-.1-.1 0-.1.2-.1.2c-.1 0-.1.1-.3.2-.2 0-.4.2-.4.3 0 .1-.1.1-.2.1h-.2c-.1-.1-.3-.3-.4-.5s-.2-.2-.3-.2c-.2 0-.2 0-.1.1s.1.2.1.3v.8c0 .5.4.9.6 1.3.1.2.2.4.3.7.1.3.3.6.3.7 0 .2-.1.4-.1.4-.1.1 0 .3.1.4s.1.1.3.1c.1-.1.2.2.2.3v.7c0 .1-.1.1-.1.1-.1 0-.1.1-.2.2s-.2.2-.3.2c-.1.1-.1.2-.2.1h-.2v.2c0 .1-.1.1-.2.2h-.1c-.1.1-.1.1-.2 0 0-.1 0-.1-.2-.1-.1 0-.1.1-.2 0-.2 0-.1.1-.2.2s-.1.2-.1.2c0 .1-.2.1-.3.2s-.1.1-.2.1-.1 0-.2.1c-.1 0-.1.1 0 .2s.1.1.1.2v.1c0 .1-.1.1-.1 0-.1 0-.1-.1-.2-.2l-.2-.2c-.1 0-.1.1 0 .2s.1.2.1.3c0 .2 0 .1.1 0s0-.1.1-.1c.1.1.1.4.2.5s.1.2 0 .1h-.2c-.1 0-.2.1-.4.2-.1.1 0 .2.1.3.2.1.2.1.1.1s-.1.1-.3-.1-.3-.1-.4-.1-.1-.1-.2-.1c0 0-.1 0-.2.1s0 .1-.1.2-.1.1 0 .2c.1 0 .1.2-.1.2s-.2.1-.1.2.2.3.2.4.1.2.2.2.1.1.1.2v.1c-.1.2.1.2.1.2s.1 0 .1.2c0 .1 0 0 .2.2.2.1.1.1.3.3.1.1-.1.1-.1.1-.1 0-.3.2-.5.2-.1.1-.1.2 0 .4s0 0 .2 0c.1 0 .2-.1.2.1s.1.1.2.1c.1-.1.1.1 0 .1s-.1 0-.1.1 0 .2.1.2 0 .2-.1.4-.2.4-.3.7c0 .3 0 .7.1.7s.2.1.3.1c.1.1.1 0 .2.1 0 .1.1.1.2 0 .1 0 .2-.2.2-.2.1-.1.5-.2.7-.3.2-.1.2-.1.4 0s.3 0 .4-.1.1-.2.2-.3h.1s.1 0 .1-.1c.1-.1.2-.4.3-.6s.2-.2.3-.2.2 0 .3-.1l.1-.1c.1 0 .2 0 .4-.1.3 0 .1-.2 0-.2-.1-.1 0-.1.1-.1s.3 0 .3.1c.1 0 .2.1.2 0l.2-.2c.1-.1.2-.3.3-.4l.5-.5c.2 0 .1-.1.2-.2s0-.1.1-.1.1-.1.1-.2 0-.3-.2-.3c-.1-.1-.1-.2-.1-.3 0-.1.2-.1 0-.2s-.1 0-.3 0c-.1 0-.3 0-.6.2s-.3.3-.3.5-.1.2-.1.1c-.1-.1-.1-.1-.1 0-.1.1-.2 0-.2-.1v-.2s0-.3-.1-.4l-.1-.1c-.1-.1-.3-.2-.5-.2s-.2-.2-.2-.3c-.1-.1.1-.2.3-.3.2-.1.3-.2.4-.3.1-.1.1-.2.2-.2l.2-.2c0-.1.1-.1.1-.2l.1-.1c.1-.1 0-.2 0-.4s0-.3.1-.4.1-.2.2-.3.1-.2.1-.2c.1 0 .1-.1.2-.1 0-.1.2-.1.3-.1.1-.1.1-.2.1-.4 0-.1 0-.2-.1-.2l-.1-.1c0-.1 0-.1.1-.1s.2 0 .3-.1c.2-.1.2-.3.2-.5 0-.1.3-.1.4-.1s.2.1.3-.1-.1 0-.2-.2c-.1-.1-.1-.1-.2-.1-.2 0-.1-.2 0-.2.1-.1.1-.2.3-.2.1 0 .1 0 .2-.1s.1-.2.1-.2.2-.1.3-.2.1-.1.3.1c.2.1.1.2.2.4s.3.4.7.8.4.4.6.4c.1.1.2.1.3.2.1.2.1.1.2.1.2 0 0-.3 0-.4s-.1-.3-.2-.6-.3-.3-.3-.3c0-.1-.2-.1-.2-.1h.3c.2 0 .1-.1.1-.1h-.6c-.1-.1-.1-.2-.3-.2-.1-.1-.2-.2-.2-.4s-.5-.6-.5-.7 0-.4.1-.5.1-.2 0-.3l-.3-.3c-.1-.1-.2-.1-.3-.2 0-.1-.1-.1-.1-.1-.1-.1-.2-.1-.4-.2s-.3-.2-.3-.3c0-.1-.1-.2-.1-.2-.1 0-.1-.1-.2-.2s-.1-.2 0-.2.2 0 .1-.1 0-.1.1-.1h.4c.2 0 0-.2 0-.3 0-.1.1-.2.2-.2.1-.1 0-.2.1-.2.1-.1.2-.1.3-.2.1 0 .2-.1.3-.1.2 0 .2-.1.2-.1 0 .1.2 0 .3 0s.3.1.4.1c.1.1.2.1.5.1s.5.2.8.3c.2.1.3.1.4.1s.2-.1.3 0 .1 0 .1 0c-.1 0-.1-.2-.2-.2 0-.1.1-.3.1-.3.1 0 .2-.1.1-.2s-.1-.2 0-.2 0-.1.1-.2c0-.1.1-.1.2-.1s.2.1.3.1c.1.1.2.1.3 0s.3-.1.4-.1c.2 0 .2-.1.2-.2s.1-.1.3-.1.2-.1.2-.3c0-.1 0-.3-.1-.3-.1-.1-.1-.1-.2-.3 0-.1 0-.2.1-.2h.1s.1 0 .2.1c.2.1.1-.2.1-.2 0-.1.1-.1.2 0s.2.1.5.1.4-.1.3-.3c0-.1 0-.2.5-.1.5 0 .2-.2.1-.3-.1-.1 0-.2-.1-.5-.1-.2-.3-.3-.4-.4s0-.2.1-.1.1 0 .2-.1 0-.1.1.2c.1.2.2.1.2.1.1 0 .2 0 .2-.1.1-.1.1-.1.3-.1s.1 0 .5.2c.3.2.3.3.6.5s.3.2.2-.1c-.1-.2.1-.1.2-.1s0-.1.1-.3c.1-.2.6-.2.8-.3.2 0 .4-.1.5-.1s.1-.2.1-.4.2-.1.3-.1c.2 0 .1-.1-.1-.2s-.3-.4-.3-.5 0-.2-.2-.3c-.1 0-.1 0-.1-.1 0 0 0-.1-.1-.2s0-.2.1-.2.4 0 .6.1c.2.1.3.1.3 0s.2-.2.1-.3c0-.1-.1-.2-.2-.3 0-.1-.1-.2-.2-.4 0-.2.2-.2.3-.2s.2.1.3.1.3.1.6.2 1.1-.1 1.2-.1c.1 0 .2-.1.3-.1s.2 0 .4-.1c.3-.1.3-.1.4-.2.1-.2.1-.3.3-.4s.1-.2 0-.3c-.1-.1.1-.1.2-.2s.1 0 .2 0 .1.1.1-.1v-.3c0-.1.2-.1.2-.1.1 0 .1-.1.2-.1s.1-.2.1-.3v-.4c.1-.1.1-.2.1-.3 0-.1.1-.1.2-.1s.2-.2.1-.2c-.1-.1-.1-.1 0-.1 0-.1.2-.1.2-.2.1-.1.1-.1-.1-.1s-.1 0-.1-.1c.1-.1.1-.2.2-.2s.2-.2.2-.3c0-.1.3-.2.4-.2.1 0 .1-.2.1-.4s.1-.3.2-.3c0-.4 0-.5-.1-.5"/><polyline id="Path-3" points="96.1,379 147.1,379 163.1,428" opacity=".6" fill="none" stroke="#979797"/></g></g><path id="Line-6" d="M326.9 311.4l-101.5-47.7H0l325.5 93 1.4-45.3z" opacity=".3" fill-rule="evenodd" clip-rule="evenodd" fill="#bfdcf8"/><g><g><g><rect y="1" width="225.4" height="262.7" fill="none"/></g></g></g><path id="frame_1_" d="M225.4 1H0v262.7h225.4V1z" fill="none" stroke="#b7cedf" stroke-width="2"/><rect id="Rectangle_1_" x="325.5" y="311.5" width="38.7" height="45.3" fill="none" stroke="#0762a4" stroke-width="2"/></svg>