<svg width="306" height="323" viewBox="0 0 306 323" fill="none" xmlns="http://www.w3.org/2000/svg">
<path fill-rule="evenodd" clip-rule="evenodd" d="M64.4418 267.186L64.4844 267.412C64.435 267.773 64.5202 268.225 64.8319 268.634C65.0303 269.065 66.072 270.858 67.198 271.231C68.324 271.604 70.1084 271.736 70.5828 271.764C71.0573 271.792 72.2327 271.804 72.3034 271.557C72.5087 271.401 72.5011 270.115 73.0462 269.896C73.4568 269.584 74.1433 268.87 74.8869 269.081C75.6305 269.292 76.8416 270.117 77.0614 270.661C77.2811 271.205 77.678 272.066 77.31 272.604C76.942 273.141 76.5102 273.339 76.4395 273.587C76.2555 273.855 76.2981 274.082 76.1141 274.35C75.9088 274.506 74.2453 275.639 74.6916 276.14C75.1379 276.641 75.4283 276.937 76.3133 276.653C77.1983 276.37 77.177 276.257 77.5168 276.193C77.97 276.107 78.9683 275.802 79.2374 275.986C79.5066 276.169 80.3072 277.305 80.6402 277.828C80.9732 278.35 81.1929 278.894 81.7312 279.261C82.2695 279.628 83.2967 280.721 83.1766 281.329C83.0565 281.937 82.7805 282.34 82.8656 282.792C82.9295 283.131 83.1067 283.449 82.9014 283.605C82.7174 283.873 81.1816 285.684 80.6654 287.303C80.0359 288.943 79.0962 293.918 78.8772 295.247C78.637 296.462 78.4333 300.363 78.4409 301.649C78.4485 302.935 78.7047 306.163 78.7405 306.976C78.7549 307.675 78.685 309.795 78.317 310.332C78.0623 310.848 77.9209 311.343 77.3119 311.224C76.7242 311.218 76.4338 310.921 75.8035 310.689C75.0812 310.591 74.5642 310.337 74.2669 310.627C73.8563 310.938 73.5378 311.116 73.7575 311.659C73.864 312.224 74.1058 314.754 73.5112 315.334C72.9167 315.914 72.2233 317.215 71.5861 317.569C70.8357 317.944 70.1066 318.433 69.7173 318.857C69.3281 319.282 68.8681 319.953 68.8042 319.614C68.7404 319.275 68.8111 319.028 68.5632 318.958C68.4073 318.753 68.386 318.64 68.7753 318.215C69.1646 317.791 69.8435 315.791 69.7158 315.112C69.4748 314.456 69.106 313.121 68.7517 312.485C68.3974 311.85 67.9366 310.649 67.894 310.423C67.7382 310.218 67.6956 309.992 67.2425 310.078C66.7893 310.163 66.0457 309.952 66.1165 309.705C66.1659 309.344 66.5977 309.146 66.9163 308.969C67.2561 308.905 67.7093 308.82 67.7519 309.046C67.7944 309.272 67.929 309.363 67.9784 309.003C68.1411 308.621 68.5585 307.723 68.2681 307.427C67.9777 307.131 67.2128 306.806 66.2502 307.924C65.401 309.02 64.3891 310.498 64.8498 311.699C65.3106 312.899 66.3377 313.993 66.784 314.494C67.2091 314.882 67.9952 315.319 67.9032 315.454C67.9245 315.567 67.6987 317.482 66.4594 317.13C65.2201 316.778 64.434 316.341 63.3718 316.307C62.3097 316.273 60.7092 315.873 60.3975 315.463C59.9725 315.075 59.2571 314.391 59.8022 314.171C60.326 313.838 61.9683 312.593 61.9325 311.78C61.8968 310.968 61.6626 309.724 61.0817 309.132C60.5008 308.539 59.736 308.215 59.4881 308.144C59.2403 308.074 59.035 308.23 59.0844 307.869C59.1338 307.509 59.1969 305.976 58.9346 305.206C58.559 304.457 58.2473 304.048 58.0488 303.617C57.9637 303.165 57.2269 302.368 57.0072 301.824C56.8088 301.393 56.4613 300.171 56.957 300.312C57.4527 300.453 58.4867 300.96 59.0319 300.74C59.5983 300.634 60.554 300.103 60.7661 299.36C60.9782 298.618 62.0107 295.381 62.2509 294.165L62.8515 291.126C62.8515 291.126 62.2851 291.233 62.1931 291.367C62.1011 291.502 61.5347 291.609 61.3507 291.877C61.1667 292.146 61.0747 292.28 60.9401 292.189C60.8056 292.097 60.763 291.871 60.579 292.14C60.395 292.408 60.2536 292.903 60.0977 292.698C59.9206 292.381 60.246 291.617 60.7272 291.058C61.0952 290.521 62.171 289.382 61.9087 288.612C61.6464 287.842 60.2581 286.7 59.7905 286.085C59.3229 285.471 58.1186 284.06 57.6936 283.672C57.2686 283.284 56.0148 282.232 55.5122 282.678C54.9884 283.011 54.8044 283.28 54.7976 283.866C54.812 284.566 55.0036 285.583 54.9542 285.943C54.9261 286.417 55.1032 286.734 54.8273 287.137C54.4593 287.675 53.8221 288.029 54.2966 288.057C54.771 288.084 55.1109 288.02 55.9251 287.984C56.6261 287.969 57.4617 288.046 57.8654 288.321C58.2692 288.596 59.1831 289.711 58.3977 291.146C57.6123 292.581 56.3167 293.177 55.9624 292.541C55.6081 291.906 55.282 290.797 55.1048 290.479C54.7931 290.07 54.6653 289.392 53.7804 289.675C52.8954 289.959 52.5981 290.249 52.2301 290.786C51.8834 291.437 51.5436 291.501 51.1049 292.286C50.6662 293.071 50.2343 293.269 50.0716 293.651C49.8169 294.167 49.7462 294.414 49.7531 293.828C49.7599 293.241 50.0214 292.139 49.6884 291.616C49.3554 291.094 48.1724 289.795 47.7473 289.407C47.1878 288.928 46.0473 287.855 46.1887 287.36C46.3088 286.752 46.4077 286.032 47.13 286.13C47.9655 286.206 48.7517 286.643 48.9501 287.074C49.1486 287.505 49.5949 288.006 49.7013 288.571C49.7865 289.023 50.0275 289.68 50.1195 289.546C50.2115 289.411 50.5088 289.121 51.0752 289.015C51.6416 288.908 52.2932 289.253 52.116 288.935C51.9389 288.618 51.1383 287.481 50.4441 286.91C49.75 286.338 48.7159 285.831 48.0856 285.599C47.4554 285.366 44.5092 284.049 44.275 282.805C44.0408 281.562 44.2529 280.82 45.1379 280.536C46.0229 280.252 46.0442 280.366 46.0442 280.366C46.0442 280.366 48.0323 276.597 48.9318 277.013C49.7179 277.45 49.9802 278.22 50.3414 278.269C50.7025 278.318 50.9291 278.275 51.2971 277.738C51.6438 277.087 52.3014 274.974 52.8465 274.754C53.3917 274.534 53.7741 274.696 54.3618 274.703C54.8575 274.843 55.608 274.468 55.884 274.065C56.1599 273.662 56.2154 270.843 56.2154 270.843C56.2154 270.843 56.4838 269.153 57.666 268.58C58.8483 268.006 58.827 267.893 59.5067 267.765C60.2997 267.615 60.7103 267.304 61.482 267.042C62.0271 266.822 63.1881 266.135 63.7971 266.254C63.3014 266.114 62.8269 266.086 62.9189 265.952C63.0109 265.817 63.6055 265.237 63.5203 264.785C63.4352 264.333 62.8824 263.267 62.9531 263.02C63.0238 262.772 63.6678 261.832 63.8518 261.563C64.0358 261.294 64.2266 260.439 64.4532 260.396C64.7717 260.219 65.0903 260.042 65.7206 260.275C66.2376 260.528 67.2078 260.697 67.6609 260.611C68.206 260.392 69.2256 260.2 69.5229 259.909C69.9334 259.598 70.8465 258.841 71.1012 258.325C71.3559 257.809 72.0987 256.147 72.3534 255.631C72.6081 255.115 72.9335 254.352 73.5919 254.111C74.1371 253.891 75.0221 253.607 75.4539 253.409C75.8858 253.21 76.275 252.786 76.643 252.249C76.9897 251.598 77.9948 250.707 78.1575 250.325C78.3202 249.943 79.0988 249.094 79.396 248.804C79.6933 248.514 80.6414 246.697 81.0732 246.499C81.5051 246.3 82.8782 244.871 82.9489 244.624C83.0196 244.377 83.7556 243.302 83.8263 243.054C83.897 242.807 84.8382 241.576 85.1355 241.286C85.4328 240.996 86.6926 239.589 86.7633 239.341C86.834 239.094 86.9184 237.674 87.1943 237.27C87.4916 236.98 87.9235 236.782 88.1287 236.626C88.334 236.471 88.6807 235.82 88.9073 235.777C89.1339 235.735 89.9976 235.338 90.3161 235.161C90.6347 234.984 91.6542 234.792 91.8595 234.636C92.0648 234.48 92.4541 234.056 92.7514 233.766C93.0486 233.476 93.1193 233.229 93.5938 233.256C93.9549 233.305 94.6772 233.403 94.8331 233.608C94.9889 233.813 95.1874 234.243 94.9821 234.399C94.8901 234.533 94.4088 235.092 94.586 235.41C94.7631 235.728 95.344 236.32 95.8679 235.988C96.413 235.768 97.2554 235.258 97.4181 234.877C97.6941 234.473 98.5433 233.377 99.3363 233.228C100.016 233.1 102.232 233.033 103.16 232.976C104.087 232.918 105.56 232.641 105.971 232.329C106.289 232.152 107.288 231.847 108.081 231.698C108.874 231.548 110.141 231.427 110.778 231.073C111.415 230.718 112.626 229.671 112.923 229.381C113.22 229.091 114.905 228.072 115.471 227.965C116.038 227.858 117.603 227.446 118.304 227.431C119.005 227.416 119.932 227.359 120.251 227.182C120.683 226.983 120.866 226.715 121.228 226.764C121.589 226.813 122.226 226.459 122.523 226.168C122.82 225.878 124.144 224.81 124.597 224.724C125.05 224.639 126.601 223.528 127.118 223.782C127.635 224.035 128.279 224.967 128.074 225.123C127.869 225.279 127.458 225.59 127.296 225.972C127.133 226.353 126.786 227.004 127.19 227.279C127.572 227.441 127.572 227.441 128.111 227.808C128.649 228.174 128.933 229.057 129.209 228.654C129.506 228.364 129.598 228.23 129.421 227.912C129.244 227.594 128.861 227.432 129.293 227.234C129.838 227.014 130.341 226.568 130.723 226.73C131.105 226.892 130.921 227.161 131.353 226.963C131.806 226.877 132.352 226.658 132.734 226.82C133.116 226.982 134.625 227.517 134.922 227.227C135.219 226.937 135.637 226.039 136.047 225.728C136.571 225.395 137.237 224.567 137.513 224.164C137.697 223.895 138.163 222.637 138.659 222.778C139.133 222.806 139.99 222.995 140.061 222.748C140.132 222.5 140.004 221.822 140.124 221.215C140.266 220.72 139.841 220.332 139.394 219.831C139.061 219.308 137.312 218.116 137.411 217.396C137.509 216.675 137.707 215.233 138.096 214.809C138.486 214.384 138.995 213.352 139.023 212.879C139.051 212.405 138.945 211.84 139.285 211.776C139.625 211.712 140.927 210.53 141.111 210.262C141.295 209.993 142.944 208.161 143.312 207.623C143.588 207.22 145.435 203.947 145.923 202.802C145.993 202.554 146.177 202.285 146.206 201.812L146.396 200.957C146.396 200.957 146.919 198.752 146.869 197.24C146.819 195.728 146.125 195.156 145.346 194.133C144.453 193.131 144.552 192.41 144.7 191.329C144.962 190.226 146.044 188.501 147.043 188.196C148.041 187.891 149.117 186.752 149.732 186.285C150.348 185.817 151.629 184.523 152.939 184.627C154.249 184.732 153.301 186.549 153.047 187.065C152.792 187.581 152.962 188.485 152.913 188.845C152.977 189.184 151.865 189.511 151.568 189.801C151.249 189.978 150.421 191.187 150.124 191.477C149.827 191.767 149.013 191.804 148.517 191.663C148.042 191.635 147.83 192.377 147.639 193.233C147.449 194.088 148.15 194.073 148.759 194.192C149.368 194.311 149.983 193.844 150.281 193.554C150.691 193.243 150.77 194.281 150.897 194.96C151.025 195.638 151.174 196.429 150.778 197.44C150.361 198.338 151.508 198.824 151.508 198.824L152.386 199.126C152.768 199.288 153.13 199.337 153.47 199.273C154.418 199.329 156.231 198.987 156.599 198.45C156.946 197.799 156.966 196.04 157.263 195.75C157.539 195.347 158.063 195.014 158.814 194.639C159.564 194.263 160.449 193.98 160.994 193.76C161.426 193.561 162.7 192.853 163.337 192.499C163.861 192.167 164.612 191.791 165.114 191.345C165.617 190.9 166.233 190.432 166.417 190.164C166.601 189.895 166.721 189.287 167.287 189.181C167.854 189.074 169.461 188.888 169.9 188.103C170.473 187.41 171.555 185.685 172.058 185.239C172.561 184.793 173.424 184.397 173.636 183.654C173.87 183.025 173.898 182.552 174.266 182.014C174.634 181.477 174.867 180.848 174.981 180.826C175.094 180.805 175.447 179.568 175.447 179.568C175.659 178.826 175.808 177.745 176.02 177.003C176.232 176.261 176.515 175.271 176.769 174.755C177.024 174.239 178.1 173.1 178.419 172.923C178.624 172.767 180.634 170.984 181.498 170.587C182.227 170.099 183.855 168.154 184.201 167.503C184.548 166.853 184.569 165.094 184.349 164.55C184.242 163.985 184.829 160.246 184.991 159.865C185.154 159.483 185.288 157.702 185.337 157.342C185.387 156.981 186.441 155.729 186.604 155.348C186.766 154.966 187.368 153.799 187.509 153.305C187.651 152.81 187.891 151.594 187.827 151.255C187.763 150.916 188.138 149.792 188.187 149.432C188.237 149.071 188.244 148.485 188.137 147.92C188.165 147.446 188.165 145.574 188.079 145.122C187.994 144.67 189.07 143.531 189.233 143.149C189.509 142.746 189.36 141.955 189.296 141.616C189.232 141.277 189.31 140.443 189.338 139.97C189.387 139.609 189.259 138.931 189.422 138.549C189.585 138.168 189.244 136.359 189.18 136.02C189.116 135.681 188.628 134.954 188.224 134.679C187.933 134.382 187.444 133.655 187.381 133.316C187.317 132.977 186.665 132.632 186.509 132.427C186.261 132.357 185.603 132.598 185.49 132.619C185.376 132.64 184.421 133.172 183.762 133.413C183.083 133.541 182.594 132.814 182.417 132.496C182.239 132.178 182.607 131.641 182.607 131.641C182.721 131.619 183.924 131.159 184.491 131.052C185.036 130.832 185.566 129.913 185.842 129.51C186.118 129.107 186.372 126.718 186.308 126.379C186.337 125.906 185.996 124.097 185.911 123.645C185.712 123.215 184.948 122.891 184.792 122.686C184.523 122.502 184.437 122.05 184.281 121.846C184.126 121.641 184.246 121.033 184.203 120.807L184.012 119.79C183.969 119.564 183.608 119.515 183.247 119.466C182.886 119.417 182.843 119.191 182.595 119.121C182.347 119.05 182.942 118.47 183.013 118.223C183.104 118.088 183.494 117.664 183.699 117.508C183.883 117.239 184.208 116.476 184.258 116.116C184.329 115.868 184.739 115.557 184.944 115.401C185.15 115.245 185.78 115.478 186.141 115.527C186.502 115.576 186.87 115.038 186.849 114.925C186.828 114.812 187.507 114.684 187.691 114.416C187.897 114.26 188.194 113.97 188.173 113.857C188.151 113.744 188.321 112.776 188.392 112.528C188.462 112.281 188.356 111.716 188.384 111.242C188.412 110.769 188.398 110.069 188.355 109.843C188.312 109.617 188.39 108.783 188.213 108.466C188.17 108.24 187.384 107.803 187.271 107.824C187.136 107.732 186.98 107.527 186.938 107.301C186.895 107.075 187.504 107.195 187.731 107.152C187.957 107.109 187.894 106.77 187.851 106.544C187.808 106.318 187.773 105.506 187.73 105.28C187.687 105.054 187.829 104.559 187.963 104.651C188.077 104.629 188.594 104.883 188.976 105.045C189.359 105.207 189.536 105.525 189.784 105.595C190.031 105.665 190.442 105.354 190.626 105.085C190.81 104.817 191.242 104.618 191.468 104.576C191.695 104.533 192.347 104.878 192.594 104.949C192.729 105.04 193.062 105.563 192.991 105.81C192.921 106.057 193.07 106.849 193.07 106.849C193.07 106.849 193.53 108.049 193.665 108.141C193.686 108.254 194.147 109.454 194.211 109.793C194.275 110.133 194.764 110.86 194.806 111.086C194.849 111.312 195.345 111.452 195.727 111.615C196.109 111.777 196.315 111.621 196.541 111.578C196.747 111.422 196.86 111.401 196.931 111.154C197.001 110.906 197.369 110.369 197.44 110.122C197.489 109.761 197.447 109.535 197.27 109.217C197.092 108.9 197.206 108.878 197.298 108.744C197.39 108.61 197.418 108.136 197.489 107.889C197.538 107.528 197.85 107.938 198.098 108.008C198.211 107.987 198.685 108.014 198.841 108.219C198.976 108.311 199.422 108.812 199.557 108.904C199.691 108.995 200.208 109.249 200.456 109.319C200.704 109.39 201.221 109.643 201.377 109.848C201.511 109.94 201.872 109.989 202.056 109.72C202.262 109.564 202.608 108.914 202.658 108.553C202.707 108.193 202.948 106.977 203.018 106.73C203.089 106.483 202.876 105.353 202.812 105.013C202.748 104.674 203.046 104.384 203.003 104.158C202.96 103.932 202.677 103.049 202.386 102.753C202.209 102.435 201.558 102.09 201.444 102.111C201.31 102.02 201.154 101.815 200.927 101.858C200.814 101.879 200.673 102.374 200.715 102.6C200.758 102.826 200.439 103.003 200.369 103.25C200.185 103.519 199.979 103.675 199.639 103.739C199.434 103.894 199.116 104.071 199.024 104.206C198.91 104.227 198.436 104.199 198.415 104.086C198.28 103.995 198.096 104.263 197.983 104.285C197.891 104.419 197.685 104.575 197.48 104.73C197.254 104.773 196.822 104.972 196.708 104.993C196.595 105.014 196.185 105.326 195.979 105.481C195.774 105.637 195.477 105.927 195.363 105.948C195.25 105.97 195.002 105.899 194.868 105.808C194.733 105.716 194.74 105.13 194.676 104.791C194.612 104.451 194.775 104.07 194.824 103.709C194.874 103.349 194.881 102.762 194.796 102.31C194.71 101.858 194.916 101.703 194.873 101.477C194.83 101.25 194.887 100.304 195.049 99.9219C195.099 99.5615 195.396 99.2714 195.58 99.0027C195.764 98.734 195.679 98.2819 195.523 98.0772C195.481 97.8511 195.572 97.7168 195.664 97.5824C195.756 97.4481 196.026 97.6314 196.047 97.7444C196.182 97.8361 196.543 97.8851 196.677 97.9768C196.812 98.0685 197.194 98.2305 197.442 98.3009C197.69 98.3712 197.917 98.3285 198.256 98.2645C198.596 98.2005 198.979 98.3625 199.113 98.4542C199.269 98.6589 200.077 99.209 200.232 99.4137C200.388 99.6184 201.174 100.055 201.762 100.062C202.35 100.068 203.03 99.9401 203.235 99.7844C203.461 99.7417 204.516 98.4898 204.608 98.3554L204.792 98.0867C204.792 98.0867 204.806 98.7862 204.828 98.8992C204.849 99.0122 204.821 99.4857 204.729 99.62C204.637 99.7544 204.701 101.966 204.701 101.966C204.701 101.966 204.397 102.842 204.461 103.181C204.638 103.499 204.908 105.555 205.015 106.12C205.121 106.685 205.852 109.941 206.05 110.372C206.249 110.803 207.369 113.635 207.815 114.136C208.24 114.524 209.161 115.053 209.678 115.306C210.195 115.56 211.094 115.976 211.363 116.159C211.633 116.343 212.284 116.688 212.575 116.984C212.886 117.394 213.892 118.375 213.935 118.601C213.999 118.94 214.346 120.162 214.502 120.366C214.658 120.571 214.948 120.867 215.217 121.051C215.487 121.234 215.345 121.729 215.409 122.068C215.473 122.407 215.827 123.042 216.118 123.339C216.521 123.614 217.308 124.051 217.506 124.482C217.683 124.799 218.278 126.092 218.477 126.522C218.675 126.953 218.76 127.405 218.959 127.836C219.023 128.175 219.066 130.274 219.109 130.5C219.151 130.726 218.989 131.107 219.258 131.291C219.527 131.474 219.959 131.276 220.115 131.48C220.27 131.685 220.667 132.547 220.505 132.928C220.363 133.423 220.293 133.671 220.448 133.875C220.626 134.193 220.916 134.489 220.775 134.984C220.633 135.479 220.194 136.264 220.053 136.758C219.89 137.14 219.593 137.43 219.678 137.882C219.763 138.334 220.118 138.97 219.82 139.26C219.636 139.529 219.247 139.953 219.311 140.292C219.375 140.631 219.616 141.288 219.637 141.401C219.659 141.514 219.701 141.74 219.517 142.009C219.22 142.299 219.057 142.681 218.647 142.992C218.236 143.303 217.74 143.163 217.67 143.41C217.599 143.658 217.592 144.244 217.613 144.357C217.635 144.47 217.698 144.809 217.451 144.739C217.203 144.668 216.53 144.21 216.707 144.528C216.884 144.845 216.856 145.319 216.899 145.545C217.055 145.75 217.409 146.385 217.182 146.428C216.956 146.47 216.644 146.061 216.708 146.4C216.772 146.739 216.297 146.711 216.163 146.62C216.028 146.528 215.759 146.345 215.823 146.684C215.887 147.023 215.88 147.609 215.83 147.97C215.646 148.238 215.526 148.846 215.725 149.277C215.923 149.708 216.192 149.891 215.987 150.047C215.895 150.181 215.846 150.542 215.527 150.719C215.209 150.896 214.798 151.207 215.067 151.39C215.428 151.439 215.655 151.397 215.719 151.736C215.648 151.983 215.712 152.322 215.776 152.661C215.84 153 215.996 153.205 216.286 153.501C216.555 153.685 216.938 153.847 216.619 154.024C216.414 154.18 216.35 153.841 216.187 154.222C216.003 154.491 215.862 154.986 215.791 155.233C215.834 155.459 215.628 155.615 215.897 155.798C216.167 155.982 216.485 155.805 216.528 156.031C216.684 156.235 216.414 156.052 216.726 156.461C217.038 156.871 217.13 156.736 217.102 157.21C217.187 157.662 217.584 158.523 217.201 158.361C216.911 158.065 216.373 157.698 215.99 157.536C215.608 157.374 215.133 157.347 215.339 157.191C215.544 157.035 215.976 156.837 215.48 156.696C215.006 156.668 214.85 156.464 214.645 156.619C214.439 156.775 214.552 156.754 214.283 156.57C214.014 156.387 213.653 156.338 213.087 156.445C212.52 156.551 212.11 156.863 211.834 157.266C211.536 157.556 211.331 157.712 211.282 158.072C211.324 158.298 211.254 158.546 211.162 158.68C210.935 158.723 210.935 158.723 210.758 158.405C210.581 158.087 210.425 157.882 210.106 158.059C209.766 158.124 209.561 158.279 209.512 158.64C209.441 158.887 209.633 159.904 209.378 160.42C209.145 161.049 209.208 161.388 208.932 161.792C208.656 162.195 208.352 163.071 208.303 163.432C208.253 163.792 208.084 164.76 208.304 165.304C208.523 165.848 208.672 166.639 208.736 166.978C208.779 167.204 209.601 168.454 209.735 168.545C209.87 168.637 210.16 168.933 210.38 169.477C210.6 170.021 211.018 170.995 211.167 171.786C211.429 172.556 212.103 174.887 212.301 175.318C212.387 175.77 212.89 177.197 212.862 177.67C212.834 178.143 212.827 178.73 212.82 179.316C212.813 179.903 212.792 179.79 212.693 180.511C212.707 181.21 212.679 181.683 212.694 182.383C212.687 182.969 212.652 184.029 212.511 184.524C212.348 184.906 212.164 185.174 211.775 185.599C211.385 186.023 210.975 186.335 210.904 186.582C210.72 186.851 210.777 187.776 210.572 187.932C210.367 188.088 210.048 188.265 209.999 188.625C209.949 188.986 209.865 190.406 209.837 190.879C209.674 191.261 209.688 191.961 209.547 192.455C209.406 192.95 208.995 193.261 208.967 193.735C209.031 194.074 208.889 194.569 208.953 194.908C209.017 195.247 209.216 195.678 209.145 195.925C209.074 196.172 209.117 196.398 209.273 196.603C209.428 196.808 209.627 197.239 209.259 197.776C208.891 198.313 208.523 198.851 208.587 199.19C208.651 199.529 208.708 200.455 208.793 200.907C208.991 201.337 209.367 202.086 209.502 202.178C209.657 202.382 210.911 203.433 211.202 203.73C211.492 204.026 212.186 204.598 212.498 205.007C212.81 205.416 214.262 206.898 214.552 207.195C214.843 207.491 215.445 208.197 215.466 208.31C215.487 208.423 215.622 208.515 215.261 208.466C214.9 208.417 213.767 208.63 213.108 208.871C212.45 209.112 212.131 209.289 211.742 209.714C211.332 210.025 210.39 211.256 210.27 211.863C210.15 212.471 209.527 213.525 209.585 214.45C209.642 215.376 209.848 217.092 209.798 217.453C209.749 217.813 209.587 220.067 209.247 220.131C208.907 220.195 207.796 220.522 207.456 220.586C207.137 220.763 206.365 221.025 205.976 221.45C205.587 221.874 205.332 222.39 205.035 222.68C204.624 222.992 204.306 223.169 204.186 223.777C204.044 224.271 204.101 225.197 203.669 225.395C203.351 225.572 202.558 225.722 202.289 225.538C201.906 225.376 200.731 225.364 201.007 224.96C201.283 224.557 201.785 224.112 201.771 223.412C201.757 222.713 201.324 221.039 201.147 220.721C201.083 220.382 200.488 219.09 200.445 218.864C200.402 218.638 200.36 218.412 200.544 218.143C200.728 217.874 201.025 217.584 201.344 217.407C201.662 217.23 201.775 217.209 201.825 216.848C201.874 216.488 202.334 215.816 202.518 215.547L203.254 214.472C203.417 214.091 204.132 212.903 203.593 212.536C203.055 212.169 202.198 211.98 201.518 212.108C200.839 212.236 200.088 212.611 199.812 213.014C199.536 213.417 198.935 214.584 198.772 214.966C198.496 215.369 198.376 215.976 198.235 216.471C198.072 216.853 197.591 217.412 197.881 217.708C198.172 218.004 198.774 218.71 198.951 219.028C199.128 219.346 199.61 220.659 199.171 221.444C198.733 222.229 198.117 222.696 197.989 222.018C197.975 221.318 197.082 220.316 196.926 220.112C196.657 219.928 195.552 219.668 195.078 219.64C194.604 219.613 193.811 219.762 193.379 219.961C192.947 220.159 192.062 220.443 191.673 220.867C191.149 221.2 190.554 221.78 190.597 222.006C190.526 222.253 190.455 222.501 190.633 222.819C190.81 223.136 190.987 223.454 190.874 223.475C190.647 223.518 189.847 224.254 189.932 224.706C190.017 225.158 190.259 225.815 190.301 226.041C190.478 226.359 191.017 226.725 191.038 226.838C191.059 226.951 191.52 228.152 190.713 229.474C190.02 230.775 189.893 231.969 189.638 232.485C189.383 233.002 188.718 233.829 188.223 233.688C187.727 233.548 186.962 233.224 186.601 233.175C186.24 233.126 186.02 232.582 185.913 232.017C185.92 231.43 185.821 230.279 185.736 229.827C185.65 229.375 185.431 228.831 185.324 228.266C185.239 227.814 185.359 227.206 185.904 226.986C186.449 226.766 187.087 226.412 187.023 226.073C186.959 225.734 185.946 225.34 185.429 225.086C184.82 224.967 183.666 225.067 182.916 225.442C182.165 225.818 181.592 226.511 181.408 226.78C181.224 227.048 180.884 227.112 181.196 227.522C181.394 227.953 181.89 228.093 181.479 228.405C181.161 228.582 180.453 229.183 180.134 229.36C179.724 229.672 179.292 229.87 179.243 230.23C179.193 230.591 179.116 231.425 178.748 231.962C178.493 232.478 177.806 233.193 177.778 233.666C177.75 234.14 177.538 234.882 177.715 235.199C177.892 235.517 178.225 236.04 177.977 235.969C177.638 236.033 176.533 235.773 175.697 235.697C174.975 235.599 174.231 235.388 173.368 235.784C172.504 236.181 171.846 236.422 171.279 236.529C170.713 236.636 169.381 236.418 168.794 236.412C168.114 236.54 166.415 236.86 165.325 237.299C164.234 237.739 162.21 238.822 161.664 239.042C161.119 239.262 159.123 239.872 159.285 239.49C159.448 239.108 159.887 238.324 160.248 238.373C160.496 238.443 160.9 238.718 161.041 238.223C161.182 237.729 161.777 237.148 162.209 236.95C162.662 236.865 162.867 236.709 163.115 236.779C163.363 236.85 163.434 236.602 163.256 236.285C163.193 235.945 162.952 235.289 162.569 235.127C162.187 234.965 161.578 234.845 161.528 235.206C161.366 235.587 161.543 235.905 161.068 235.877C160.615 235.963 159.482 236.176 158.852 235.944C158.356 235.803 158.038 235.98 157.861 235.663C157.57 235.366 157.195 234.618 157.166 235.091C157.117 235.451 156.997 236.059 157.217 236.603C157.436 237.147 158.131 237.718 157.925 237.874C157.585 237.938 156.863 237.84 156.105 236.929C155.347 236.019 155.311 235.206 155.297 234.507C155.282 233.808 155.247 232.995 155.183 232.656C155.119 232.317 155.098 232.204 154.871 232.247C154.644 232.289 154.644 232.289 154.213 232.488C153.894 232.665 153.646 232.594 153.441 232.75C153.236 232.906 152.96 233.309 152.889 233.556C152.797 233.691 152.45 234.341 152.401 234.701C152.351 235.062 151.403 236.879 151.17 237.508C151.05 238.116 151.057 239.402 151.39 239.924C151.723 240.447 153.048 241.25 153.636 241.257C154.245 241.376 155.257 241.77 155.824 241.664C156.39 241.557 157.226 241.634 157.516 241.93C157.807 242.226 158.522 242.911 158.267 243.427C157.899 243.964 157.871 244.438 157.595 244.841C157.433 245.223 157.199 245.852 157.065 245.76C156.93 245.668 156.526 245.393 156.279 245.323C155.917 245.274 155.804 245.295 155.464 245.359C155.124 245.423 154.947 245.106 154.763 245.374C154.579 245.643 154.53 246.004 154.098 246.202C153.553 246.422 153.44 246.443 153.1 246.507C152.781 246.684 152.576 246.84 152.371 246.995C152.3 247.243 151.641 247.484 151.096 247.704C150.551 247.923 149.574 248.341 149.546 248.815C149.405 249.31 149.469 249.649 149.398 249.896C149.327 250.143 149.235 250.278 148.895 250.342C148.555 250.406 148.102 250.491 148.279 250.809C148.457 251.127 149.491 251.634 149.328 252.016C149.278 252.376 148.847 252.575 148.776 252.822C148.705 253.069 148.5 253.225 148.521 253.338C148.429 253.472 148.295 253.381 148.111 253.65C147.927 253.918 147.516 254.23 147.332 254.498C147.148 254.767 146.78 255.305 146.752 255.778C146.724 256.251 146.491 256.881 146.42 257.128C146.349 257.375 146.413 257.714 146.229 257.983C146.045 258.252 145.628 259.15 145.649 259.263C145.691 259.489 145.458 260.118 144.793 260.945C144.106 261.66 143.802 262.536 142.669 262.75C141.536 262.963 139.865 262.81 139.03 262.733C138.081 262.678 137.139 262.036 136.919 261.492C136.607 261.083 136.204 260.808 136.069 260.716C135.935 260.624 135.326 260.505 135.757 260.307C136.076 260.13 136.982 259.959 136.578 259.684C136.175 259.409 135.771 259.134 135.162 259.014C134.553 258.895 134.008 259.115 133.831 258.797C133.654 258.479 133.165 257.752 132.534 257.52C131.925 257.4 131.564 257.351 131.224 257.415C130.998 257.458 130.637 257.409 130.799 257.027C130.983 256.759 131.167 256.49 131.012 256.285C130.856 256.081 130.176 256.209 130.586 255.897C130.997 255.586 132.066 255.033 131.889 254.716C131.846 254.49 131.556 254.193 131.195 254.144C130.834 254.095 130.536 254.385 130.586 254.025C130.614 253.551 130.755 253.057 130.869 253.035C131.095 252.993 131.888 252.843 131.711 252.526C131.534 252.208 130.797 251.41 130.549 251.34C130.301 251.27 129.812 250.542 130.088 250.139C130.251 249.758 131.002 249.382 131.299 249.092C131.575 248.689 132.948 247.26 133.224 246.857C133.5 246.454 133.691 245.599 133.945 245.083C134.221 244.68 134.589 244.142 134.412 243.824C134.348 243.485 133.902 242.984 133.881 242.871C133.859 242.758 133.321 242.391 132.847 242.364C132.372 242.336 131.218 242.437 131.034 242.705C130.737 242.995 130.072 243.823 129.845 243.865C129.732 243.887 129.619 243.908 129.3 244.085C129.137 244.467 128.748 244.891 128.607 245.386C128.352 245.902 128.302 246.263 128.274 246.736C128.246 247.21 128.452 248.926 128.268 249.195C128.084 249.464 127.674 249.775 127.129 249.995C126.697 250.193 124.799 250.082 124.714 249.63C124.629 249.178 124.458 248.274 124.826 247.737C125.194 247.199 126.093 245.743 126.093 245.743C126.093 245.743 126.829 244.668 127.126 244.378C126.177 244.322 124.917 243.858 124.4 243.604C123.996 243.329 123.323 242.87 122.509 242.907C121.695 242.943 119.316 243.391 119.202 243.413C118.976 243.455 118.841 243.364 118.409 243.562C118.112 243.852 117.949 244.234 117.156 244.383C116.271 244.667 115.91 244.618 115.457 244.703C115.004 244.789 114.933 245.036 114.884 245.396C114.834 245.757 114.438 246.768 114.141 247.058C113.844 247.348 113.61 247.977 112.888 247.879C112.166 247.781 111.967 247.35 111.762 247.506C111.444 247.683 111.076 248.22 111.437 248.269C111.777 248.205 112.208 248.007 112.251 248.233C112.294 248.459 112.167 249.653 111.437 250.142C111.799 250.191 112.138 250.127 112.344 249.971C112.776 249.773 112.804 249.299 113.434 249.532C114.064 249.764 114.199 249.856 114.425 249.813C114.765 249.749 115.056 250.045 115.233 250.363C115.41 250.681 116.062 251.026 116.692 251.258C117.322 251.491 118.271 251.546 118.724 251.461C119.177 251.375 120.31 251.162 120.693 251.324C121.075 251.486 121.635 251.966 121.423 252.708C121.21 253.45 121.338 254.128 121.898 254.608C122.457 255.088 122.996 255.455 123.237 256.111C123.499 256.881 123.783 257.764 123.436 258.414C123.089 259.065 122.473 259.532 122.105 260.069C121.737 260.607 121.348 261.031 120.959 261.456C120.548 261.767 120.018 262.686 119.536 263.245C119.168 263.783 118.567 264.949 118.355 265.691C118.143 266.433 118.086 267.38 117.966 267.988C117.846 268.596 117.818 269.069 117.882 269.408C117.946 269.747 118.187 270.404 117.918 270.221C117.762 270.016 116.345 269.347 116.034 268.937C115.722 268.528 114.581 267.455 113.547 266.948C112.513 266.441 110.977 266.379 109.957 266.571C109.051 266.742 108.258 266.891 107.48 267.74C106.701 268.589 106.312 269.013 105.809 269.459C105.285 269.792 103.919 270.634 103.799 271.242C103.679 271.85 103.821 273.227 103.68 273.722C103.517 274.104 103.185 275.454 102.93 275.97C102.562 276.507 102.35 277.249 102.258 277.384C102.187 277.631 101.394 277.781 101.21 278.049C101.026 278.318 101.047 278.431 101.133 278.883C101.218 279.335 101.388 280.239 101.317 280.487C101.247 280.734 101.063 281.003 101.127 281.342C101.19 281.681 101.12 281.928 101.545 282.316C101.835 282.613 102.437 283.319 102.097 283.383C101.736 283.334 101.014 283.236 100.724 282.939C100.433 282.643 100.348 282.191 100.029 282.368C99.7109 282.545 99.5056 282.701 98.8472 282.942C98.3021 283.161 97.9196 282.999 97.3532 283.106C96.7868 283.213 95.8379 283.157 95.9086 282.91C96.0926 282.641 96.8073 281.453 96.7647 281.227L96.7221 281.001C96.7221 281.001 96.8848 280.62 95.6387 280.854C94.5059 281.068 94.7818 280.665 94.442 280.729C94.1021 280.793 93.4863 281.26 93.2384 281.189C93.0826 280.985 93.0894 280.398 92.8202 280.215C92.4378 280.053 91.6091 279.39 91.8851 278.987C92.1611 278.584 92.5503 278.159 92.4439 277.594C92.4507 277.008 92.3656 276.555 92.5495 276.287C92.7335 276.018 93.3281 275.438 93.1935 275.346C93.0589 275.255 91.8478 274.429 91.352 274.289C90.835 274.035 90.0276 273.485 90.0557 273.011C90.0838 272.538 90.388 271.662 89.687 271.677C88.986 271.692 88.2781 272.293 87.9808 272.583C87.6836 272.873 87.273 273.185 86.997 273.588C86.6078 274.012 85.4962 274.338 85.9988 273.893C86.388 273.468 87.5064 272.555 87.7824 272.152C88.0584 271.749 89.1555 270.723 89.4741 270.546C89.7926 270.369 90.1606 269.832 90.4366 269.429C90.7126 269.026 90.8966 268.757 91.2858 268.333C91.6751 267.908 92.3335 267.667 92.5882 267.151C92.9775 266.727 93.572 266.146 93.6428 265.899C93.7135 265.652 93.6846 264.253 93.6207 263.914C93.5568 263.575 93.8891 262.225 94.0305 261.73C94.2852 261.214 94.2494 260.401 94.6387 259.977C94.9147 259.574 95.6225 258.972 95.7852 258.591C95.9479 258.209 96.0962 257.128 96.5212 257.516C96.9462 257.904 97.3218 258.652 97.6335 259.062C97.9452 259.471 99.2416 260.748 99.4894 260.819C99.716 260.776 99.716 260.776 100.24 260.443C100.764 260.11 101.061 259.82 101.833 259.558C102.604 259.296 102.923 259.119 103.15 259.076L104.622 258.798C104.622 258.798 106.534 257.736 106.611 256.902C106.667 255.956 106.448 255.412 106.384 255.073C106.32 254.734 105.626 254.162 106.284 253.921C106.829 253.701 106.851 253.814 107.332 253.256C107.792 252.584 107.799 251.997 108.273 252.025C108.748 252.053 108.953 251.897 109.321 251.36C109.413 251.225 109.392 251.112 109.505 251.091L108.712 251.24C108.124 251.234 107.876 251.164 107.699 250.846C107.522 250.528 107.529 249.942 107.345 250.21C107.139 250.366 106.8 250.43 106.502 250.72C106.318 250.989 106.269 251.349 105.724 251.569C105.179 251.789 104.584 252.369 104.067 252.115C103.571 251.974 103.55 251.861 103.366 252.13C103.182 252.399 102.842 252.463 102.772 252.71C102.701 252.958 102.489 253.7 101.696 253.849C100.789 254.02 100.818 253.546 100.251 253.653C99.6848 253.76 98.5025 254.334 98.0706 254.532C97.7734 254.822 96.563 255.869 96.0391 256.202C95.4233 256.669 94.2197 257.13 94.0145 257.286C93.8092 257.441 93.4625 258.092 93.1439 258.269C92.8254 258.446 92.1669 258.687 91.8271 258.751C91.3739 258.836 91.2819 258.971 90.7155 259.077C90.1278 259.071 90.0001 258.393 89.6883 257.984C89.3766 257.574 88.5973 256.551 87.691 256.721C86.898 256.871 86.5726 257.634 86.2966 258.037C86.0207 258.44 85.6952 259.204 85.6671 259.677C85.639 260.151 85.9013 260.92 85.7173 261.189C85.5333 261.458 85.3493 261.727 85.3212 262.2C85.3851 262.539 85.69 263.535 85.6193 263.782C85.6618 264.008 85.4284 264.638 85.2232 264.793C84.9046 264.97 84.5434 264.921 84.6073 265.26C84.7632 265.465 85.1388 266.214 85.2026 266.553C85.2665 266.892 85.2878 267.005 84.7853 267.45C84.2827 267.896 83.6456 268.25 83.7163 268.003C83.9003 267.734 83.7018 267.303 84.0417 267.239C84.3815 267.175 84.6081 267.133 84.5442 266.794C84.4804 266.455 83.8288 266.109 83.3543 266.082C82.8799 266.054 82.1576 265.956 81.9098 265.886C81.6619 265.815 81.1023 265.335 80.5146 265.329L79.2685 265.564C79.0419 265.606 78.6808 265.557 78.8648 265.289C78.9355 265.041 78.7157 264.498 78.2626 264.583C77.8094 264.668 76.2447 265.08 75.7209 265.413C75.0838 265.767 73.7244 266.023 73.4058 266.2C73.0872 266.377 72.3155 266.639 72.0395 267.043C71.7636 267.446 71.6928 267.693 70.8999 267.842C70.1069 267.992 69.342 267.668 68.733 267.548C68.0107 267.45 68.0814 267.203 67.1538 267.261C65.2561 267.15 64.6897 267.257 64.4418 267.186ZM225.583 32.8456C226.1 33.0993 226.482 33.2613 226.978 33.402C229.499 34.3315 231.984 34.4485 234.781 34.9749C237.692 35.4799 240.61 37.2709 243.583 36.2426C246.557 35.2144 248.043 31.8917 249.585 29.4946C250.137 28.6884 251.644 25.4787 252.049 27.6262C252.779 30.8825 249.424 33.6211 249.432 36.7793C249.448 39.3512 252.351 40.4427 253.117 42.6391C253.422 43.635 253.182 44.8505 253.6 45.8251C254.018 46.7996 254.981 47.5544 256.065 47.7014C256.652 47.7077 257.58 47.65 258.125 47.4303C258.762 47.0762 258.769 46.4898 259.002 45.8607C259.236 45.2315 259.717 44.6728 260.354 44.3187C260.786 44.1203 261.671 43.8366 261.891 44.3803C262.089 44.8111 261.289 45.5469 261.105 45.8156C260.051 47.0676 259.329 48.8419 257.829 49.5928C256.193 50.2519 254.409 50.1199 253.262 51.5062C252.689 52.1993 252.385 53.0758 251.79 53.656C250.601 54.8162 249.623 53.3619 248.76 53.7587C248.101 53.9998 248.066 55.0596 247.698 55.5971C247.146 56.4032 245.681 56.0942 244.958 55.9962C243.287 55.8428 241.163 55.7749 239.683 56.6387C236.908 58.0977 235.139 60.5376 233.483 62.9561C231.367 66.0464 228.819 69.335 228.594 73.1225C228.489 74.4297 229.381 75.4319 229.389 76.7178C229.418 78.1168 228.498 79.4604 228.753 80.8166C225.169 77.9808 220.744 77.5271 216.395 76.2396C214.908 75.8175 213.287 75.3038 211.941 74.3869C210.885 73.7665 209.781 73.5065 208.655 73.1334C206.537 72.479 204.54 71.2168 202.26 70.9441C201.538 70.8461 200.9 71.2001 200.242 71.4412C198.854 72.1707 197.644 73.2179 196.568 74.3568C195.584 75.3614 194.333 79.9273 192.371 79.4775C191.876 79.3369 191.635 78.6801 191.344 78.3837C191.033 77.9743 190.629 77.6992 190.204 77.3112C189.332 76.422 188.574 75.5115 187.314 75.0467C185.94 74.6033 183.469 75.1858 182.641 76.3951C181.813 77.6043 181.318 79.336 181.347 80.735C181.412 82.9464 182.771 82.6903 184.435 83.4301C185.583 83.9162 186.05 84.5303 187.318 84.4086C189.605 84.0948 190.66 84.7153 192.452 86.1332C193.281 86.7963 193.727 87.2974 194.853 87.6705C196.092 88.0222 197.558 88.3312 196.638 89.6748C196.27 90.2123 195.216 91.4642 194.359 91.2745C193.523 91.1978 192.943 90.6051 192.199 90.394C191.455 90.183 190.776 90.311 189.983 90.4604C188.283 90.7805 187.477 92.1028 186.783 93.4037C186.345 94.1885 186.515 95.0927 186.437 95.9265C186.431 96.513 185.312 97.4258 184.923 97.8503C184.739 98.119 183.748 99.71 183.522 99.7527C181.553 99.8894 180.165 98.7465 179.711 96.9595C179.519 95.9423 179.227 91.9012 180.899 92.0545C180.664 90.8113 180.905 89.5957 180.331 88.4165C179.976 87.781 179.218 86.8705 178.567 86.5251C177.915 86.1797 177.101 86.2161 176.336 85.892C175.798 85.5253 175.465 85.0029 174.926 84.6361C172.66 83.1906 173.769 77.247 175.192 75.4577C176.911 73.3782 180.133 72.4203 181.47 70.1789C182.093 69.1253 182.446 67.8884 182.46 66.7155C182.339 65.4509 180.923 64.7815 180.094 64.1184C178.996 63.2719 178.344 61.0541 180.092 60.3736C182.705 59.2964 183.761 61.7892 186.041 62.0619C186.537 62.2026 187.103 62.0959 187.67 61.9892C188.236 61.8825 188.852 61.4154 189.305 61.33C190.119 61.2937 190.835 61.9781 191.649 61.9418C192.69 61.8627 193.603 61.1056 194.268 60.2781C194.912 59.3375 195.514 58.171 195.527 56.9981C195.52 55.7122 194.641 55.4094 194.11 54.4563C193.734 53.7078 193.947 52.9656 193.684 52.1958C193.379 51.2 192.572 50.6499 192.607 49.59C192.712 48.2827 193.576 47.886 194.511 47.2418C195.558 46.5763 195.7 46.0816 196.344 45.1411C196.436 45.0067 196.393 44.7806 196.393 44.7806C196.372 44.6676 196.485 44.6463 196.485 44.6463C196.485 44.6463 196.329 44.4416 196.308 44.3286C196.379 44.0812 196.322 43.1557 196.279 42.9296C196.116 41.439 195.612 40.0124 195.449 38.5218C195.328 37.2572 195.568 36.0416 195.787 34.713C196.07 33.7235 195.786 32.8406 195.934 31.7594C196.075 29.3923 195.062 27.1255 194.183 24.9504C193.19 22.7967 190.86 21.012 190.3 18.6599C190.023 17.1906 190.192 14.3501 191.806 13.5779C192.783 13.1598 193.555 12.8974 193.951 11.8865C194.835 9.73042 196.295 12.4983 197.258 13.2531C198.469 14.0782 199.638 14.6773 200.757 15.6368C201.876 16.5964 202.903 17.6902 204.249 18.6071C207.613 20.8991 209.562 24.3941 212.834 26.8206C214.067 27.7587 215.37 28.4495 216.673 29.1403C218.132 30.0358 219.591 30.9313 221.234 31.558C222.403 32.1571 224.166 32.1761 225.583 32.8456ZM165.777 167.463C166.096 167.286 166.577 166.727 166.761 166.458C166.945 166.19 167.249 165.313 167.475 165.27C167.702 165.228 167.787 165.68 167.851 166.019C167.936 166.471 167.859 167.305 167.717 167.8C167.576 168.294 166.953 169.348 167.357 169.623C167.761 169.898 167.895 169.99 168.37 170.017C168.823 169.932 169.389 169.825 169.453 170.164C169.63 170.482 169.567 172.015 168.831 173.09C168.074 174.052 167.479 174.632 166.955 174.965C166.545 175.276 165.136 175.893 164.91 175.936C164.683 175.978 164.506 175.661 164.916 175.349C165.327 175.038 165.646 174.861 165.56 174.409C165.475 173.957 165.39 173.504 165.595 173.349C165.779 173.08 166.261 172.521 165.878 172.359C165.496 172.197 165.34 171.993 165.043 172.283C164.745 172.573 164.852 173.138 164.583 172.954C164.313 172.771 164.002 172.362 163.938 172.023C163.895 171.796 163.923 171.323 163.881 171.097C163.838 170.871 164.114 170.468 164.185 170.221C164.256 169.973 164.744 168.828 164.744 168.828C164.744 168.828 165.572 167.619 165.777 167.463Z" fill="white" fill-opacity="0.95"/>
<path fill-rule="evenodd" clip-rule="evenodd" d="M214.55 154.231C211.356 151.037 207 142.888 207 138.658C207 134.429 210.38 131 214.55 131C218.72 131 222.1 134.429 222.1 138.658C222.1 142.888 218.035 150.746 214.55 154.231ZM214.55 142.035C216.795 142.035 218.616 140.214 218.616 137.969C218.616 135.724 216.795 133.904 214.55 133.904C212.305 133.904 210.485 135.724 210.485 137.969C210.485 140.214 212.305 142.035 214.55 142.035Z" fill="#FEC339"/>
</svg>
