<svg version="1.1" xmlns="http://www.w3.org/2000/svg" x="0" y="0" width="458" height="432" viewBox="0 0 458 432" xml:space="preserve"><style type="text/css">.st0{fill-rule:evenodd;clip-rule:evenodd}.st0,.st2{fill:#dbedff;stroke:#b2c5eb}.st8{fill:#0c308e}</style><g id="map"><g id="jpmap"><g id="Group"><path id="Combined-Shape" class="st0" d="M209.1 375.5c.3.7.2 1.1.1 1.5-.1.4-.1.9.1 1.4.1.5.9 2.6 2 3.2s2.9 1.1 3.4 1.2 1.7.3 1.9.1c.2-.2.5-1.4 1.1-1.6.5-.2 1.4-.8 2.1-.5.7.3 1.8 1.4 2 2.1.1.6.4 1.6-.1 2s-.9.6-1.1.9c-.2.2-.2.5-.5.7s-2.2.9-1.8 1.6c.4.6.6.9 1.6.9 1-.1.9-.2 1.4-.2s1.6-.2 1.9.1c.3.2.8 1.6 1.1 2.2.3.6.4 1.2.9 1.7s1.4 1.8 1.1 2.4-.6 1-.6 1.4.1.7-.2.9c-.3.2-2.2 1.8-3.1 3.4s-3 6.6-3.5 7.8c-.5 1.3-1.5 5.2-1.7 6.5s-.6 4.8-.8 5.5c-.2.8-.6 2.9-1.1 3.4-.4.5-.6.9-1.3.8-.6-.2-.8-.5-1.5-.8s-1.2-.6-1.6-.4c-.5.3-.8.3-.8.9s-.2 3.2-.9 3.7-1.7 1.7-2.5 2c-.8.2-1.8.6-2.3 1s-1.1 1-1.1.6.1-.6-.1-.7c-.1-.2-.2-.3.3-.7.5-.4 1.6-2.3 1.6-3-.1-.7-.3-2.2-.5-3-.3-.8-.5-2.1-.5-2.3-.1-.2-.1-.5-.6-.5s-1.3-.3-1.1-.6c.2-.3.6-.5 1-.6.4 0 .8 0 .8.2s.1.3.3 0 .9-1.2.7-1.6-1-.8-2.2.1-2.5 2.3-2.2 3.7c.3 1.4 1.1 2.7 1.5 3.2s1.1 1.1 1 1.3c0 .2-.6 2.1-1.8 1.5s-2-1.2-3.1-1.4c-1.1-.2-2.7-1-3-1.5-.4-.5-1-1.3-.4-1.5s2.6-1.2 2.7-2c.1-.8.2-2.1-.4-2.9-.5-.7-1.2-1.2-1.5-1.4-.3-.1-.5 0-.4-.4s.5-1.9.4-2.7c-.2-.8-.5-1.4-.6-1.8 0-.5-.7-1.5-.8-2s-.3-1.8.2-1.6c.5.2 1.5.9 2.2.9.6 0 1.7-.3 2.1-1.1.4-.8 2.1-3.8 2.6-5.1.5-1.2 1.3-3.1 1.3-3.1s-.6 0-.7.1c-.1.1-.7.1-1 .3-.3.2-.4.3-.5.2-.1-.1-.1-.4-.3-.1s-.5.8-.6.4c-.1-.3.4-1.1 1-1.6.5-.5 1.8-1.4 1.7-2.3-.2-.8-1.3-2.3-1.7-3s-1.4-2.4-1.7-2.9-1.5-1.8-2.1-1.5-.8.4-.9 1.1c-.1.7-.2 1.8-.3 2.2-.1.5 0 .8-.4 1.3-.5.5-1.2.7-.8.9.5.2.9.1 1.7.2s1.6.3 2 .7c.4.4 1.2 1.6 0 3-1.1 1.4-2.5 1.7-2.8.9-.3-.7-.3-1.9-.5-2.3s-.2-1.2-1.2-1.1-1.4.3-1.9.9-.8.6-1.5 1.3c-.7.7-1.1.8-1.4 1.2-.3.4-.5.7-.3.1s.6-1.7.4-2.3c-.3-.6-1.2-2.1-1.6-2.7-.5-.6-1.4-1.9-1.2-2.5.3-.6.5-1.4 1.3-1.1s1.6.9 1.8 1.3c.1.4.5 1.1.5 1.6s.1 1.2.3 1.1.5-.4 1.1-.3 1.2.5 1.1.1c-.1-.4-.7-1.7-1.3-2.4-.6-.7-1.6-1.5-2.3-1.8-.6-.4-3.5-2.3-3.5-3.6s.4-2.1 1.4-2.2c1-.2 1 0 1 0s2.9-3.5 3.7-2.9.9 1.4 1.3 1.5c.4.1.6.2 1.1-.4s1.6-2.7 2.2-2.8c.6-.1 1 .1 1.6.3.5.2 1.4 0 1.7-.4s.9-3.3.9-3.3.7-1.7 2-2c1.4-.3 1.4-.5 2.2-.5s1.4-.2 2.2-.4 2.3-.8 2.6-.1zm50.8-7c.5.3 1.1.5 1.6.4.4-.1.7-.6 1.2-.2.6.4.7.5 1 .6.3 0 .5.4.7.7.1.3.7.9 1.2 1.3s1.5.7 2 .7 1.7.1 2 .4c.3.2.7.9.4 1.6-.3.8-.4 1.5-.1 2.2.4.7.9 1.1 1 2 0 .8.2 1.9-.3 2.5-.5.7-1.2 1-1.8 1.4-.5.4-1 .9-1.4 1.1-.5.3-1.3 1-1.8 1.5s-1.4 1.6-1.8 2.3c-.4.8-.7 1.7-1 2.3-.2.6-.4 1.1-.4 1.4 0 .4 0 1.1-.1.9-.2-.2-1.4-1.3-1.6-1.9s-1.1-1.9-2-2.8c-.9-.8-2.5-1.2-3.5-1.3-1-.1-1.8-.1-2.8.6-.9.7-1.4 1.1-2.1 1.3-.6.3-2.2.8-2.5 1.4s-.4 2.1-.7 2.5c-.3.4-.9 1.7-1.3 2.2s-.9 1.2-1 1.4c-.1.2-.9.2-1.2.5-.2.3-.3.3-.3.8s-.1 1.5-.2 1.7-.3.5-.3.9-.1.7.1 1.1.7 1.3.3 1.2c-.4-.1-1-.5-1.3-.8-.2-.3-.3-.8-.6-.8-.3.1-.6.2-1.3.3-.6 0-.9-.2-1.5-.2s-1.6-.3-1.4-.5 1.2-1.4 1.2-1.6v-.2s.2-.4-1-.4-.9-.4-1.2-.5c-.4-.1-1.1.4-1.3.1-.1-.2.1-.9-.2-1.1-.3-.3-1-1.1-.7-1.5.3-.3.9-.7.9-1.3.1-.7.2-1.1.4-1.3.2-.2 1-.7.9-.9-.1-.1-1.2-1.3-1.6-1.6-.4-.3-1.1-1.2-1-1.7.2-.5.6-1.3-.1-1.5-.7-.1-1.5.3-1.9.5s-.8.5-1.3.8-1.7.4-1.1.1c.5-.4 1.9-1 2.3-1.3s1.7-1.1 2.1-1.2c.3-.1.8-.5 1.2-.9.4-.3.6-.6 1.1-1s1.2-.5 1.6-.9 1.2-.8 1.3-1.1c.1-.3.4-1.7.4-2.1s.7-1.7 1-2.2c.3-.4.6-1.3 1-1.7.4-.4 1.2-.8 1.5-1.2.3-.4.7-1.4 1-1 .3.5.6 1.4.8 1.9.2.5 1.2 2.2 1.5 2.3.3 0 .3 0 .9-.2.6-.3 1-.5 1.8-.6s1.2-.1 1.4-.1c.2 0 1.6.1 1.6.1s2.1-.6 2.5-1.5c.3-.9.2-1.6.2-2 0-.3-.5-1.2.2-1.3.6-.1.6.1 1.3-.5.6-.5.8-1.2 1.3-1.1.4.1.7 0 1.2-.5.4-.1 1.1-.7 1.6-.5zm118.6-145.4c.1-.2.3.2.4.3s.5.3.6.3c.1.1.5.4.7.5s.5.1.9.1.7.2.8.4c.2.2.8 1 .9 1.2s.9.8 1.5 1 1.4.1 1.6 0c.2 0 1.6-1.1 1.7-1.2.1-.2.3-.2.3-.2s-.1.8-.2.9c0 .2-.1.6-.2.8s-.5 2.4-.5 2.4-.5.9-.4 1.3c.1.4 0 2.6 0 3.2 0 .6.1 4.1.2 4.7.1.5.7 3.7 1.1 4.3.4.5 1.2 1.2 1.6 1.6.5.4 1.4 1 1.6 1.2.3.3.8.7 1.1 1.2.3.5 1.1 1.7 1.1 2s.1 1.7.3 2c.2.3.4.6.6.8s0 .7 0 1.1c0 .4.2 1.2.5 1.5s1.1 1 1.2 1.4c.1.4.5 1.9.6 2.3.1.5.2 1 .2 1.4s-.3 2.5-.3 2.8-.2.7 0 .9c.2.2.7.1.9.3.2.2.3 1.2.1 1.6-.2.5-.3.7-.2 1 .1.3.4.7.1 1.2s-.9 1.3-1.1 1.7c-.2.4-.5.7-.6 1.2 0 .5.2 1.2-.1 1.4-.3.2-.7.6-.8 1 0 .4.1 1.1.1 1.2s0 .4-.3.7c-.3.3-.6.6-1.1.9s-1-.1-1.1.2c-.1.3-.3.9-.2 1 0 .1 0 .5-.3.3s-.8-.7-.7-.4c.1.4-.1.9 0 1.1.1.3.4 1 .1 1s-.4-.5-.5-.1c0 .4-.5.2-.6.1-.1-.2-.4-.4-.4-.1 0 .4-.1 1-.3 1.3-.2.3-.5.9-.4 1.4s.3.7.2.9c-.2.2-.3.5-.6.6-.4.2-.9.4-.6.6s.6.2.5.5-.1.6-.2 1c0 .4.1.7.3.9.3.3.5.5.3.7-.3.1-.2-.2-.5.1-.3.3-.5.7-.5.9 0 .2-.3.4 0 .7.3.2.5.2.6.4.1.2-.1 0 .1.5s.3.3.3.8.2 1.5-.1 1.2c-.3-.3-.7-.9-1.1-1.1s-.9-.4-.6-.5c.3-.2.7-.3.3-.5-.5-.2-.6-.3-.8-.2-.2.1-.1.2-.4-.1-.3-.2-.5-.4-1.2-.4-.6 0-1.1.3-1.4.6-.4.3-.6.4-.7.7 0 .3-.1.5-.3.6-.2 0-.3 0-.4-.4-.2-.4-.2-.6-.5-.5-.4.1-.6.2-.7.5s-.2 1.3-.5 1.9-.4.9-.8 1.3-.9 1.2-.9 1.6c-.1.4-.4 1.3-.4 1.9.1.6.1 1.5.1 1.8s.6 1.7.7 1.9c.1.2.4.5.5 1.1s.4 1.7.4 2.6c.1.8.4 3.4.5 3.9 0 .5.2 2.1.1 2.6s-.2 1.2-.4 1.7c-.2.6-.2.5-.3 1.2-.2.7-.2 1.3-.4 1.9-.2.6-.4 1.7-.6 2.2-.3.4-.5.6-.9.9-.5.4-.9.6-1.1.9-.2.2-.3 1.2-.6 1.3-.3.1-.6.2-.7.6s-.5 1.9-.6 2.3c-.2.4-.4 1.1-.6 1.6s-.8.8-.8 1.2c0 .4-.2.9-.2 1.2 0 .4.1.9 0 1.1s-.1.5 0 .7.3.7-.2 1.2-1 1-1 1.3c0 .4-.2 1.4-.1 1.8.1.5.3 1.3.5 1.5.1.2 1.2 1.6 1.4 2 .2.4.8 1.2 1.1 1.6.3.5 1.5 2.3 1.6 2.6.2.4.7 1.2.7 1.3 0 .1.1.3-.2.2-.3-.1-1.6-.1-2.4 0-.7.1-1.1.3-1.6.6s-1.7 1.4-2 2-1.1 1.6-1.2 2.5-.3 2.8-.4 3.2c-.1.4-.7 2.7-1.1 2.7s-1.6.1-2 .2-1.2.3-1.7.7c-.5.4-.8.8-1.3 1.1-.5.2-.9.4-1.1.9s-.4 1.5-.8 1.6-1.2.2-1.5-.1c-.4-.3-1.6-.5-1.2-.9s1-.7 1.1-1.4c.1-.7 0-2.5-.1-2.9 0-.4-.4-1.9-.4-2.1s0-.5.2-.7.6-.5.9-.7c.3-.1.5-.2.5-.5.1-.3.7-1 .9-1.2.2-.3.6-.7.9-1s1.3-1.5.8-2-1.3-.9-2.1-.9c-.7 0-1.6.2-2 .6s-1.2 1.5-1.5 1.8c-.3.4-.6 1-.9 1.4-.2.4-.8.9-.6 1.3.2.4.8 1.3.9 1.6.1.4.4 1.9-.2 2.6-.5.7-1.4 1.2-1.3.4.1-.8-.6-1.9-.8-2.2-.2-.3-1.4-.8-1.9-.9s-1.3-.1-1.8 0-1.5.3-2 .6-1.3.8-1.4 1-.2.5-.1.9.3.8.1.7c-.2-.1-1.2.6-1.2 1.1s.1 1.2.2 1.5.5.9.6 1c0 .2.2 1.5-.8 2.6-1 1.2-1.4 2.5-1.7 2.9-.4.5-1.2 1.2-1.7 1s-1.3-.8-1.6-.9c-.3-.1-.5-.7-.4-1.3.1-.6.2-1.8.2-2.3s-.1-1.2-.1-1.7.3-1.2.8-1.3c.5-.1 1.3-.4 1.3-.8 0-.3-.9-1-1.5-1.3s-1.8-.4-2.7-.2c-.8.2-1.6.8-1.8 1.1-.3.2-.5.2-.4.7s.5.8.1 1l-1.6.8c-.5.2-.9.4-1.1.7-.1.4-.4 1.3-.8 1.8s-1.3 1.1-1.4 1.6-.5 1.2-.4 1.6.4 1 .1.9-1.5-.5-2.3-.8-1.4-.6-2.5-.4c-1 .2-1.7.4-2.3.4-.6-.1-1.9-.5-2.6-.6-.7 0-2.6 0-3.8.2-1.2.2-3.5 1-4.1 1.2s-2.7.3-2.6 0c.2-.3.9-1.2 1.2-1 .3.1.6.5.8 0 .3-.5 1-1 1.5-1.1s.7-.2 1 0 .3-.1.3-.5-.1-1.1-.5-1.3c-.4-.2-.9-.5-1.1-.1s-.1.7-.6.6-1.7-.1-2.3-.4c-.5-.3-.8-.2-1-.5s-.5-1.2-.6-.8c-.2.4-.4.9-.2 1.6.2.6.8 1.4.5 1.4-.3.1-1.1-.2-1.7-1.3-.6-1.1-.5-1.9-.4-2.7.1-.8.3-1.6.3-1.9s0-.5-.3-.5-.3.1-.7.2c-.4.1-.6 0-.9.2s-.5.5-.7.7-.6.8-.7 1.1c-.2.4-1.5 2.1-1.8 2.7s-.5 2-.2 2.6 1.5 1.7 2 1.9c.5.2 1.6.9 2.1.9.5.1 1.5.3 1.7.7.2.4.9 1.2.5 1.8-.5.5-.6.9-.9 1.4-.3.4-.7.9-.8.8-.1-.1-.4-.5-.8-.7-.3-.1-.5-.2-.8-.2s-.5-.4-.7-.1-.3.7-.9.8c-.5.1-.7.1-1.1.2s-.6.2-.8.4-.8.4-1.4.5c-.6.2-1.6.4-1.8.9-.2.5-.2.9-.3 1.2-.1.2-.3.4-.6.4-.4 0-.8.1-.7.4.1.3 1.1 1.1.9 1.4-.2.4-.6.5-.8.8-.2.3-.3.4-.4.5s-.3 0-.5.3c-.2.2-.7.5-1 .7s-.8.8-.8 1.2c-.1.5-.5 1.1-.6 1.4-.2.3-.1.6-.4.9s-.8 1.1-.8 1.3c0 .2-.4.9-1.2 1.6-.8.6-1.4 1.5-2.6 1.5s-2.9-.5-3.8-.8-1.8-1.1-2-1.7c-.2-.5-.5-.9-.7-1s-.7-.4-.3-.5c.4-.1 1.4-.2 1-.5s-.7-.7-1.3-.9c-.6-.2-1.2-.2-1.4-.5-.2-.4-.5-1.2-1.1-1.6-.6-.3-1-.4-1.3-.4-.3-.1-.6-.2-.4-.5s.5-.5.4-.8c-.2-.2-.8-.2-.3-.5.5-.2 1.7-.7 1.6-1 0-.3-.3-.6-.6-.7-.4-.1-.7.2-.6-.3s.3-1 .5-1 1 0 .9-.4-.7-1.4-1-1.5c-.3-.2-.6-1-.3-1.4.3-.4 1.1-.6 1.5-.9s2.1-1.6 2.4-2 .7-1.3 1-1.7c.4-.4.8-.8.8-1.2 0-.4-.4-.9-.4-1.1s-.5-.6-1-.8c-.5-.1-1.6-.3-2-.1-.4.2-1.2 1-1.5 1-.1 0-.5.1-.9.1.2.3.2.7.1 1-.3.4-.7.8-1.1 1.4-.3.5-.5.9-.7 1.4-.1.5-.3 2.3-.5 2.6-.3.3-.8.5-1.3.7-.5.1-2.5-.4-2.5-.9 0-.4 0-1.5.5-2 .4-.5 1.7-1.8 1.7-1.8s1.1-1 1.3-1.2c.2-.2.5-.7.8-1-.1 0-.2 0-.3-.1-1-.3-2.4-1-2.7-1.4-.4-.4-1-1-1.8-1.1s-3.4-.1-3.6-.2c-.2 0-.4-.2-.8.1-.4.2-.5.6-1.5.7s-1.3 0-1.8 0-.6.2-.8.6c-.2.3-.8 1.4-1.1 1.6-.4.2-.8.9-1.5.6s-.8-.8-1.1-.6c-.3.2-.8.7-.5.7s.8-.1.9.2c0 .3-.5 1.7-1.4 1.9-.9.2-2.2.5-2.7.4-.5-.2-.9-.2-.9-.6-.1-.4 0-.9-.3-.8-.2.2-.6.1-.9.4s-.3.6-.9.7c-.6.2-1.3.6-1.8.3s-.5-.4-.7-.2c-.3.2-.6.3-.7.5-.1.3-.4 1-1.4.9-.9 0-.9-.5-1.5-.5-.5 0-2 .3-2.4.5s-1.8 1.1-2.5 1.4-2.1.6-2.4.8c-.3.1-.8.8-1.1.9-.4.1-1.1.2-1.5.2-.5 0-.6.2-1.2.1s-.6-.8-.8-1.4c-.3-.5-.9-1.7-1.8-1.7-.9.1-1.4.8-1.7 1.2-.4.4-.9 1.1-1 1.5-.1.5 0 1.3-.2 1.6-.2.2-.5.5-.5.9s.1 1.5 0 1.8-.3.9-.6.9c-.3.1-.8 0-.7.3.1.3.4 1.1.3 1.5 0 .4 0 .5-.5.9-.6.4-1.4.7-1.2.4.2-.2.1-.7.5-.7s.6.1.6-.3-.6-.9-1.1-1-1.2-.3-1.5-.5-.7-.8-1.4-.8c-.7-.1-1 0-1.3 0s-.5-.2-.4-.4c.2-.2 0-.9-.5-.9s-2.1.2-2.8.4c-.7.2-2.2.3-2.6.4-.5.1-1.2.2-1.6.6-.4.3-.5.7-1.3.7s-1.6-.5-2.2-.8c-.7-.3-.6-.5-1.6-.6-.9 0-1.7-.1-1.7-.5s.1-1.1-.3-1.3c-.5-.2-1-.4-.8-.5s.8-.6.8-1c0-.5-.4-1.7-.3-2 .1-.2 1-1.1 1.2-1.4.2-.2.6-1.1.9-1.1.3-.1.8-.2 1.3.1.5.3 1.4.8 2 .7.5-.1 1.6-.2 2.1-.4.5-.3 1.6-.9 1.9-1.4.4-.5 1.4-2 1.8-2.5.4-.5.9-1.2 1.6-1.3.6-.1 1.6-.2 2.1-.3.5-.1 1-.5 1.5-1 .5-.6 1.7-1.4 2-1.8s1.3-1.1 1.6-1.4c.3-.3 1.7-1.9 2.2-2.1s2.2-1.3 2.3-1.6c.2-.2 1.1-1.2 1.2-1.4.1-.2 1.3-1.3 1.7-1.6.4-.3 1.9-1.5 2-1.8s.5-1.8.8-2.1c.3-.3.8-.4 1.1-.5.3-.1.7-.7 1-.7.2 0 1.2-.2 1.6-.4.4-.2 1.5-.2 1.7-.3.2-.1.7-.5 1.1-.8s.5-.5.9-.4c.4.2 1.1.4 1.2.6s.2.7 0 .9c-.2.2-.8.6-.6 1 .1.4.6 1.1 1.2.9s1.6-.5 1.9-.9 1.5-1.4 2.3-1.4 3 .4 4 .5c1 .1 2.6.1 3-.1s1.5-.3 2.4-.3 2.2.1 2.9-.1c.7-.2 2.2-1.1 2.6-1.3.4-.2 2.3-.9 2.9-1 .6 0 2.3-.1 3.1.1.8.1 1.6.3 2.1.2.5-.1.7-.3 1.1-.3.4.1 1.1-.1 1.5-.3.4-.2 1.9-1.1 2.4-1.1.5-.1 2.3-.9 2.8-.5.5.3 1 1.4.7 1.6s-.7.4-1 .8-.7 1-.4 1.3c.4.3.4.2.9.7s.6 1.5 1 1.2.5-.4.4-.8-.5-.6 0-.8c.5-.2 1.2-.5 1.6-.3s.1.5.5.4c.5-.1 1.1-.1 1.5.2.4.3 1.8 1.1 2.1.9.4-.2.9-1.1 1.5-1.3.6-.2 1.5-1 1.8-1.3s.9-1.4 1.5-1.3c.5.2 1.3.5 1.5.3s.1-1 .4-1.6c.3-.5-.2-1-.5-1.6s-1.9-2.2-1.6-2.9c.3-.8.8-2.2 1.2-2.6.5-.4 1.2-1.3 1.3-1.8.1-.5.1-1.1.5-1.2s2-1 2.2-1.3c.3-.3 2.4-1.9 2.8-2.3s2.9-3.4 3.6-4.5c.1-.2.3-.5.5-.9l.3-.8s.9-2.1 1.2-3.8c.3-1.6-.3-2.3-1-3.6-.7-1.3-.5-2-.1-3.1s2-2.6 3.1-2.7 2.4-1.1 3.2-1.4c.8-.3 2.4-1.5 3.6-1.1 1.3.4 0 2.1-.4 2.6s-.4 1.5-.4 1.8-1.2.5-1.6.7-1.5 1.2-1.8 1.5-1.2.1-1.7-.1c-.4-.2-.9.6-1.2 1.4s.3.9.9 1.2c.6.3 1.3-.2 1.8-.4.5-.3.4.8.4 1.6s0 1.6-.7 2.5c-.6.9.5 1.6.5 1.6l.9.5c.4.2.7.3 1.1.4 1 .2 3 .3 3.5-.3s.8-2.4 1.2-2.7c.4-.3 1-.7 1.8-.9.9-.2 1.9-.3 2.4-.5s2-.6 2.6-.9 1.4-.5 2.1-.9c.6-.4 1.3-.7 1.6-1 .3-.3.5-.9 1.1-.9s2.3.1 2.9-.6c.7-.7 2.2-2.2 2.8-2.6.6-.3 1.6-.7 1.9-1.3.4-.7.5-1.1 1-1.6s.9-1.1 1-1.2.7-1.2.7-1.2c.3-.7.8-1.8 1.1-2.5.3-.7.8-1.7 1.3-2.2.4-.5 1.7-1.4 2-1.6s2.7-1.6 3.6-1.9 2.9-2.1 3.4-2.7.8-2.5.8-3.1 1.4-4.4 1.6-4.8.7-2.2.9-2.6c.2-.4 1.5-1.4 1.7-1.9.2-.4 1.1-1.5 1.4-2s.7-1.7.7-2.1.6-1.5.7-1.9.2-1 .3-1.5c.1-.5.5-2.5.5-2.9 0-.5 1.3-1.4 1.6-1.8.3-.4.3-1.3.3-1.6 0-.4.2-1.2.4-1.7.1-.4.2-1.1.4-1.5.3-.3.2-2.3.2-2.7 0-.4-.4-1.2-.7-1.6-.3-.4-.5-1.2-.6-1.6 0-.3-.5-.9-.8-1.1-.2-.2-.9 0-1.1.1s-1.2.4-1.9.5c-.7.1-1.1-.9-1.2-1.2-.1-.3.3-.8.4-.8s1.5-.2 2.1-.3 1.4-1 1.7-1.4c.4-.4 1.1-2.8 1.1-3.2.1-.5.2-2.5.1-2.9-.1-.5-.8-1-1-1.2s-.3-.7-.4-1 .1-.9.1-1.1v-1.1c0-.2-.4-.3-.8-.5-.4-.1-.4-.4-.6-.5-.2-.2.5-.7.6-.8.1-.2.6-.5.8-.7.2-.2.7-1 .8-1.3.1-.3.6-.5.8-.6.2-.1.8.2 1.2.4.3.1.8-.3.9-.4 0-.1.8-.2 1-.3.2-.2.6-.4.6-.5s.4-1 .5-1.3.1-.9.2-1.3.2-1.2.3-1.5c0-.3.2-1.1.2-1.4 0-.3-.7-.8-.9-.9-.2-.1-.2-.4-.2-.6 0-.2.7 0 .8 0 .2 0 .2-.4.2-.6 0-.2.1-1.1.1-1.3 0-.3.2-.7.3-.6.1 0 .6.3.9.6s.5.6.8.8c.3.1.7-.2.9-.4.2-.2.7-.4 1-.3.3 0 .9.5 1.1.7s.3.8.2 1c-.1.3-.1 1.1-.1 1.1s.3 1.3.3 1.4c0 .1.2 1.5.2 1.8 0 .4.3 1.3.3 1.5s.5.5.8.8c.3.2.6.1.8.1.3-.1.3-.1.5-.4.1-.3.6-.7.8-1 .2-.3.1-.6 0-1s0-.4.1-.5.3-.6.4-.9c.1-.3.4.2.6.2.1 0 .6.2.7.3.1.2.5.7.6.9s.7.5.9.6c.2.1.7.5.8.7.1.2.5.2.8 0s.7-.8.8-1.1c.1-.3.7-1.6.8-1.8.1-.3.1-1.4.2-1.8 0-.4.3-.6.4-.9 0-.3-.1-1.2-.3-1.5-.2-.3-.7-.8-.8-.9-.1-.1-.3-.4-.4-.4-.2 0-.4.5-.4.7s-.3.4-.5.6c-.2.2-.5.3-.8.4-.3.1-.6.3-.7.3s-.6-.2-.7-.2c-.1-.1-.4.1-.5.2-.1.1-.3.3-.6.3-.2 0-.7.1-.9.1-.2 0-.6.3-.8.4-.2.1-.6.3-.7.3s-.3-.2-.5-.3 0-.8 0-1.1.2-.7.3-1.1c.1-.3.3-.9.3-1.5 0-.5.3-.6.3-.8s.3-1.2.5-1.6c.2-.4.5-.6.8-.8.2-.2.2-.8.2-1-.7-.2-.5-.3-.4-.5zm-41.9 67.6c.2 0 .2.5.2.9 0 .5-.2 1.3-.4 1.8s-1.1 1.5-.8 1.9c.4.3.5.5 1 .6s1.1 0 1.2.4-.2 2-1.2 2.9-1.7 1.3-2.3 1.6c-.5.3-2 .6-2.4.6-.3 0-.4-.4.1-.6s.8-.3.8-.8 0-1 .3-1.2.9-.8.5-1.1c-.4-.3-.5-.6-.9-.2-.3.3-.3.9-.6.7s-.5-.8-.5-1.1c0-.3.1-.7.2-1 0-.3.3-.6.5-.9.1-.3.9-1.4.9-1.4s.7-.9 1.1-1.1c.3-.1 1-.7 1.2-.9.3-.3.9-1.1 1.1-1.1zm56-156c1.4-2 2.3 1.2 3.2 2 1.1 1.1 2.2 1.9 3.2 3.2s1.9 2.6 3 3.7c3 3 4.4 7.1 7.3 10.3 1.1 1.2 2.3 2.2 3.5 3.2 1.3 1.2 2.7 2.4 4.3 3.4 1.5.9 3.2 1.3 4.7 2.3.4.3.9.6 1.3.8 2.5 1.4 4.9 2.1 7.8 3.1 2.9 1.1 5.6 3.6 8.9 3.1s5.5-3.6 7.5-5.9c.7-.8 2.9-3.8 3-1.4.2 3.5-3.8 5.8-4.5 9-.5 2.7 2.3 4.4 2.7 6.9.2 1.1-.3 2.3-.1 3.4.2 1.1 1.1 2.1 2.2 2.4.6.2 1.6.3 2.2.1.7-.2.9-.9 1.2-1.4.4-.6.9-1.1 1.7-1.4.5-.1 1.4-.2 1.5.4.1.5-.8 1.1-1.2 1.4-1.3 1.1-2.4 2.9-4.2 3.3-1.8.4-3.6-.1-5.2 1.1-.8.6-1.2 1.5-2 2-1.5.9-2.1-.7-3.2-.5-.8.1-1 1.2-1.5 1.7-.7.7-2.2.1-3-.2-1.7-.5-3.9-.9-5.6-.4-3.1 1-5.5 3.2-7.7 5.4-2.8 2.8-6.1 5.7-7.1 9.7-.3 1.3.4 2.5.1 3.9-.2 1.5-1.4 2.6-1.4 4.2-3.2-3.7-7.7-5-12-7.2-1.5-.8-3-1.6-4.3-2.8-.9-.8-2.1-1.4-3.2-2-2.1-1.1-3.9-2.8-6.3-3.5-.8-.2-1.5 0-2.2.2-1.6.5-3 1.4-4.3 2.3-1.2.8-3.4 5.4-5.3 4.6-.5-.2-.6-.9-.9-1.4-.2-.5-.6-.9-.9-1.3-.7-1.1-1.4-2.2-2.6-2.9-1.4-.8-4-.6-5.2.5-1.1 1.1-2 2.8-2.2 4.3-.3 2.3 1.1 2.3 2.6 3.5 1 .8 1.5 1.5 2.8 1.5 2.5.1 3.4 1 4.9 2.8.8.9 1.1 1.5 2.2 2.1 1.2.6 2.7 1.3 1.5 2.5-.5.5-1.8 1.6-2.7 1.2-.8-.3-1.4-1-2.1-1.4-.8-.4-1.4-.3-2.3-.3-1.8 0-2.9 1.3-3.9 2.5-.7.8-.6 1.7-.8 2.6-.2.6-1.5 1.3-2 1.7-.3.2-1.6 1.7-1.8 1.7-2.1-.2-3.3-1.7-3.4-3.7 0-1.1.5-5.4 2.2-4.9 0-1.3.5-2.6.1-3.9-.2-.8-.9-1.9-1.5-2.4-.7-.5-1.5-.6-2.1-1.1-.5-.4-.7-1.1-1.2-1.6-2.1-2 .2-8 2.1-9.6 2.1-1.8 5.7-2.2 7.5-4.2.8-.9 1.5-2.2 1.7-3.5s-1.2-2.3-2-3.1c-1-1.1-1.2-3.6.7-4 2.9-.6 3.5 2.2 5.8 3 .5.2 1.1.2 1.7.2s1.3-.4 1.8-.3c.9.1 1.5 1 2.4 1.1 1.1.1 2.3-.4 3-1.2.8-.9 1.7-1.9 1.9-3.1.2-1.4-.6-1.8-1-3-.2-.8.2-1.6 0-2.5-.2-1.1-.8-1.8-.6-2.9.3-1.3 1.3-1.6 2.4-2.1 1.2-.5 1.5-1 2.3-1.9.1-.1.1-.3.1-.4l.1-.1s-.1-.2-.1-.4c.1-.2.3-1.2.3-1.5.1-1.6-.1-3.2 0-4.8.1-1.4.6-2.6 1.1-3.9.4-1 .4-2 .7-3.1.6-2.5 0-5-.5-7.4-.6-2.5-2.7-4.7-2.8-7.3 0-1.6.7-4.5 2.6-5 1.6-.4 2.4-.5 3.1-1.4z"/><path id="Fill-101" class="st0" d="M124.9 394c-.1 0-.1-.2-.1-.3 0-.2.1-.3.1-.4-.1-.1-.1-.1 0-.3s-.1-.5-.2-.5-.1-.1 0-.2c.1 0 .1-.2 0-.4s-.1-.2 0-.3c0-.1-.1-.3-.2-.4-.1-.1-.2-.1-.3-.3-.1-.2-.1-.3 0-.5s-.1-.2-.2-.2-.2 0-.3.1c-.1.2-.1-.2-.2-.3-.1-.1-.2-.2-.2-.3 0-.1-.3-.2-.4-.2-.1 0-.1-.2-.3-.3-.1 0-.1-.2 0-.3.1-.1-.1-.1-.2-.1s-.1 0-.2.1c0 .1-.1.1-.2.1s-.1.1-.2.3c-.1.2 0 .3.1.4s.2.1.2.2-.1.3-.1.4c-.1.1-.2.4-.4.7-.2.3-.2.5-.3.6 0 .1 0 .2-.1.3-.1 0-.1.1-.2.3 0 .2-.1.1-.2.2s-.1.1-.2.3c-.2.1-.3.2-.3.4s-.1.2-.3.2c-.2.1-.3.2-.4.3-.1.1-.1.4-.3.4s-.3 0-.4.1c-.1.1-.3.2-.5.1s-.2 0-.2.1.1.1.2.3c.1.2.1.6 0 .7l-.1.1c-.1.1-.2.2-.4.3-.2.2-.6.2-.8.3s-.3.1-.3.2 0 .3-.1.3c-.2 0-.2.1-.2.2s0 .1-.1.2-.1.3 0 .5.3.1.5.1c.1 0 .2.1.3.2 0 .1 0 .1.2.2.1.1-.1.1-.1 0h-.3c-.1 0-.2 0-.2-.1s.1-.1 0-.2-.1 0-.1 0c0 .1-.2.1-.2-.1 0-.1-.1-.1-.2-.1s-.1.1.1.1c.1 0 .1.1-.1.2-.1.1-.3.2-.5.5l-.2.2c-.1.1-.2.1-.2.1-.1 0-.4.1-.7.3-.3.2-.3.1-.5 0-.3-.1-.2.1-.3.2s-.3.1-.4 0c-.1-.1-.2 0-.3 0s-.2 0-.3-.1 0-.1 0-.2-.1-.1-.2-.2-.1-.1-.2-.1h-.2c-.1 0-.1-.1-.2-.1 0-.1.1-.1.2-.1.1.1.1 0 .1-.1-.1-.1 0-.2.1-.3 0-.1.1-.3.1-.4s.1-.3.2-.3l.3-.3c.1-.1.1-.1 0-.1s-.4-.1-.5-.2-.4-.1-.6-.2c-.2-.1-.1.1-.2.1s-.1-.1-.1-.2c.1-.1.1-.2 0-.2s-.3-.1-.5-.1c-.2-.1-.3 0-.5.1s-.7.1-.9.1h-.4c-.1 0-.2.1-.3 0-.1 0-.3-.1-.4-.1-.1 0-.1-.1-.2-.2s-.1 0-.1.1-.1.2-.1.3c0 .1 0 .1-.1.2s-.1.2-.1.3c0 .1 0 .2.1.1.1 0 .1 0 .2.1s.3.3.3.4 0 .3.1.4 0 .1-.2.1-.2.1-.3.3c0 .2 0 .5.1.6 0 .1.2.2.2.3 0 .1 0 .2.1.3.1.1.2.3.2.5s.1.2.3.2c.1 0 .1 0 .3.1s.2 0 .3-.1.1-.2.1-.2h.2c.1 0 .2.1.3.2s.1.2.4.1c.2 0 .2 0 .5.3.3.2.7.2.8.3.1 0 .2.1.2.4s-.1.5-.2.7c-.1.2-.2.3-.3.4s-.1.2-.3.4c-.1.2-.1.1-.2 0 0-.1-.1-.1-.2 0l-.3.3c-.1.1-.2 0-.3-.1-.1-.2-.2-.1-.1.1s-.2.2-.2.3c0 .1 0 .2-.2.2s-.1 0-.2.4-.2 0-.4 0c-.2.1-.4.2-.5.2s-.1.1-.1.2 0 .1-.2.2-.2 0-.3-.1-.1-.1-.3-.2c-.1-.1-.2.1-.2.2s0 .1-.2 0c-.1-.1-.1 0-.1.1v.1c-.1 0-.1-.1-.1-.1-.1-.1-.2 0-.3 0s0 .2-.1.3c-.1.1-.1.1.1.4.1.3 0 .3-.2.3s-.2.1-.2.2c0 .2-.2.3-.3.3s-.1 0-.2.1-.3.2-.3.2c0 .1-.2.2-.3.2s-.1.2 0 .3c.1.1.1.2 0 .3-.1.1-.2.1-.3.1h-.2c-.1 0-.1.1-.2 0l-.2-.2c-.1-.1-.2 0-.2-.1s0-.1-.1 0-.1.2-.1.2c-.1 0-.1.1-.3.2-.2 0-.4.2-.4.3 0 .1-.1.1-.2.1h-.2c-.1-.1-.3-.3-.4-.5-.1-.2-.2-.2-.3-.2-.2 0-.2 0-.1.1s.1.2.1.3v.8c0 .5.4.9.6 1.3.1.2.2.4.3.7.1.3.3.6.3.7 0 .2-.1.4-.1.4-.1.1 0 .3.1.4s.1.1.3.1c.1-.1.2.2.2.3v.7c0 .1-.1.1-.1.1-.1 0-.1.1-.2.2s-.2.2-.3.2c-.1.1-.1.2-.2.1h-.2v.2c0 .1-.1.1-.2.2h-.1c-.1.1-.1.1-.2 0 0-.1 0-.1-.2-.1-.1 0-.1.1-.2 0-.2 0-.1.1-.2.2s-.1.2-.1.2c0 .1-.2.1-.3.2s-.1.1-.2.1-.1 0-.2.1c-.1 0-.1.1 0 .2s.1.1.1.2v.1c0 .1-.1.1-.1 0-.1 0-.1-.1-.2-.2l-.2-.2c-.1 0-.1.1 0 .2s.1.2.1.3c0 .2 0 .1.1 0s0-.1.1-.1c.1.1.1.4.2.5.1.1.1.2 0 .1h-.2c-.1 0-.2.1-.4.2-.1.1 0 .2.1.3.2.1.2.1.1.1s-.1.1-.3-.1-.3-.1-.4-.1c-.1 0-.1-.1-.2-.1 0 0-.1 0-.2.1s0 .1-.1.2-.1.1 0 .2c.1 0 .1.2-.1.2s-.2.1-.1.2.2.3.2.4.1.2.2.2.1.1.1.2v.1c-.1.2.1.2.1.2s.1 0 .1.2c0 .1 0 0 .2.2.2.1.1.1.3.3.1.1-.1.1-.1.1-.1 0-.3.2-.5.2-.1.1-.1.2 0 .4s0 0 .2 0c.1 0 .2-.1.2.1s.1.1.2.1c.1-.1.1.1 0 .1s-.1 0-.1.1 0 .2.1.2 0 .2-.1.4-.2.4-.3.7c0 .3 0 .7.1.7s.2.1.3.1c.1.1.1 0 .2.1 0 .1.1.1.2 0 .1 0 .2-.2.2-.2.1-.1.5-.2.7-.3.2-.1.2-.1.4 0s.3 0 .4-.1c.1-.1.1-.2.2-.3h.1s.1 0 .1-.1c.1-.1.2-.4.3-.6s.2-.2.3-.2.2 0 .3-.1l.1-.1c.1 0 .2 0 .4-.1.3 0 .1-.2 0-.2-.1-.1 0-.1.1-.1s.3 0 .3.1c.1 0 .2.1.2 0l.2-.2c.1-.1.2-.3.3-.4l.5-.5c.2 0 .1-.1.2-.2s0-.1.1-.1.1-.1.1-.2 0-.3-.2-.3c-.1-.1-.1-.2-.1-.3 0-.1.2-.1 0-.2s-.1 0-.3 0c-.1 0-.3 0-.6.2s-.3.3-.3.5-.1.2-.1.1c-.1-.1-.1-.1-.1 0-.1.1-.2 0-.2-.1v-.2s0-.3-.1-.4l-.1-.1c-.1-.1-.3-.2-.5-.2s-.2-.2-.2-.3c-.1-.1.1-.2.3-.3.2-.1.3-.2.4-.3.1-.1.1-.2.2-.2l.2-.2c0-.1.1-.1.1-.2l.1-.1c.1-.1 0-.2 0-.4s0-.3.1-.4.1-.2.2-.3.1-.2.1-.2c.1 0 .1-.1.2-.1 0-.1.2-.1.3-.1.1-.1.1-.2.1-.4 0-.1 0-.2-.1-.2l-.1-.1c0-.1 0-.1.1-.1s.2 0 .3-.1c.2-.1.2-.3.2-.5 0-.1.3-.1.4-.1.1 0 .2.1.3-.1s-.1 0-.2-.2c-.1-.1-.1-.1-.2-.1-.2 0-.1-.2 0-.2.1-.1.1-.2.3-.2.1 0 .1 0 .2-.1s.1-.2.1-.2.2-.1.3-.2.1-.1.3.1c.2.1.1.2.2.4s.3.4.7.8.4.4.6.4c.1.1.2.1.3.2.1.2.1.1.2.1.2 0 0-.3 0-.4s-.1-.3-.2-.6-.3-.3-.3-.3c0-.1-.2-.1-.2-.1h.3c.2 0 .1-.1.1-.1h-.6c-.1-.1-.1-.2-.3-.2-.1-.1-.2-.2-.2-.4s-.5-.6-.5-.7 0-.4.1-.5.1-.2 0-.3l-.3-.3c-.1-.1-.2-.1-.3-.2 0-.1-.1-.1-.1-.1-.1-.1-.2-.1-.4-.2s-.3-.2-.3-.3c0-.1-.1-.2-.1-.2-.1 0-.1-.1-.2-.2s-.1-.2 0-.2.2 0 .1-.1 0-.1.1-.1h.4c.2 0 0-.2 0-.3 0-.1.1-.2.2-.2.1-.1 0-.2.1-.2.1-.1.2-.1.3-.2.1 0 .2-.1.3-.1.2 0 .2-.1.2-.1 0 .1.2 0 .3 0s.3.1.4.1c.1.1.2.1.5.1s.5.2.8.3c.2.1.3.1.4.1.1 0 .2-.1.3 0s.1 0 .1 0c-.1 0-.1-.2-.2-.2 0-.1.1-.3.1-.3.1 0 .2-.1.1-.2s-.1-.2 0-.2 0-.1.1-.2c0-.1.1-.1.2-.1s.2.1.3.1c.1.1.2.1.3 0s.3-.1.4-.1c.2 0 .2-.1.2-.2s.1-.1.3-.1.2-.1.2-.3c0-.1 0-.3-.1-.3-.1-.1-.1-.1-.2-.3 0-.1 0-.2.1-.2h.1s.1 0 .2.1c.2.1.1-.2.1-.2 0-.1.1-.1.2 0s.2.1.5.1.4-.1.3-.3c0-.1 0-.2.5-.1.5 0 .2-.2.1-.3-.1-.1 0-.2-.1-.5-.1-.2-.3-.3-.4-.4-.1-.1 0-.2.1-.1s.1 0 .2-.1 0-.1.1.2c.1.2.2.1.2.1.1 0 .2 0 .2-.1.1-.1.1-.1.3-.1s.1 0 .5.2c.3.2.3.3.6.5s.3.2.2-.1c-.1-.2.1-.1.2-.1s0-.1.1-.3c.1-.2.6-.2.8-.3.2 0 .4-.1.5-.1s.1-.2.1-.4.2-.1.3-.1c.2 0 .1-.1-.1-.2s-.3-.4-.3-.5 0-.2-.2-.3c-.1 0-.1 0-.1-.1 0 0 0-.1-.1-.2s0-.2.1-.2.4 0 .6.1c.2.1.3.1.3 0s.2-.2.1-.3c0-.1-.1-.2-.2-.3 0-.1-.1-.2-.2-.4 0-.2.2-.2.3-.2s.2.1.3.1.3.1.6.2 1.1-.1 1.2-.1c.1 0 .2-.1.3-.1s.2 0 .4-.1c.3-.1.3-.1.4-.2.1-.2.1-.3.3-.4s.1-.2 0-.3c-.1-.1.1-.1.2-.2s.1 0 .2 0 .1.1.1-.1v-.3c0-.1.2-.1.2-.1.1 0 .1-.1.2-.1s.1-.2.1-.3v-.4c.1-.1.1-.2.1-.3 0-.1.1-.1.2-.1s.2-.2.1-.2c-.1-.1-.1-.1 0-.1 0-.1.2-.1.2-.2.1-.1.1-.1-.1-.1s-.1 0-.1-.1c.1-.1.1-.2.2-.2s.2-.2.2-.3c0-.1.3-.2.4-.2.1 0 .1-.2.1-.4s.1-.3.2-.3c0-.4 0-.5-.1-.5"/><polyline id="Path-3" points="86,378 137,378 153,427" opacity=".6" fill="none" stroke="#979797" enable-background="new"/><g><path class="st2" d="M353.5 360.7s-.6-.7-.9-.3c-.2.1-.6 1.3-.3 2.1-.3.9 1.3 1.1 2.2 1.6.8-.6.6-3-1-3.4zm-3.2 8.7c.4-.1.5-.8.5-.8s-.6.3-.9.5c0 0 0 .4.4.3zm.2 3.1l-.5.7-.2.3c.2-.1-.9.8-.5 1.4 0-.1.3.5.9.3 0-.2.4-.9.3-1.6 0-.4.5-1.9 0-1.1zm-2 2.9l-.3.2c-.2.2.4.5.8-.2.1 0-.3-.3-.5 0z"/></g></g><path id="Line-6" d="M378.5 330.8L284 233H0l334.6 129.8v-31l43.9-1z" opacity=".3" fill-rule="evenodd" clip-rule="evenodd" fill="#bfdcf8"/><rect id="Rectangle_1_" x="334.6" y="331.8" width="43" height="31" fill="none" stroke="#0762a4" stroke-width="2"/></g><defs><filter id="Adobe_OpacityMaskFilter" filterUnits="userSpaceOnUse" x="18.8" y="29.7" width="146.9" height="246.1"><feColorMatrix type="matrix" values="1 0 0 0 0 0 1 0 0 0 0 0 1 0 0 0 0 0 1 0"/></filter></defs><mask maskUnits="userSpaceOnUse" x="18.8" y="29.7" width="146.9" height="246.1" id="map_2_"><g filter="url(#Adobe_OpacityMaskFilter)"><path id="frame_2_" d="M293.8 0H1.8v232h292V0z" fill="#fff"/></g></mask><g id="map_1_" mask="url(#map_2_)"><path class="st2" d="M77.4 275.2c2.2-.7 3-4.5 3-4.5s-3.4 1.5-4.8 2.6c-.1 0-.5 2.6 1.8 1.9z"/><g><path class="st2" d="M101.8 233c-1.2-2.8-3.3-5.2-6.5-5.9 0 0-3.4-3.7-4.9-1.9-.6.4-2 4.1-2.2 7.8h13.6zm-82.1-48.5c-.3-.1-.5 1.2.1 1.2s.3-1.1-.1-1.2z"/></g><g><path class="st2" d="M126.5 106.4l.4-.2 1.2 1.1.3-.3-.7-.6.5-.6s-.1-.3-.3-.4c-.2-.1-.8-.1-.8-.1l-.4.6.1.2-.2.1-.1.2zm9.3-1.1c.1.1 1 1.8 1 1.8l1.9-1 2.4-1.3-1-1.9.4-.2-.6-1.1-2.7 1.6-2.2 1.3.8.8z"/><polygon class="st2" points="131.5,108.2 134.4,109.6 135.2,108.8 135,108.1 134.4,108.2 133.5,108.5 132.8,107.9 134.2,107.2 134.3,106.3 133.8,105.6 131,106.9 131.1,107.5 131,107.6"/><path class="st2" d="M148.1 97s-.3-.6-.3-.9c-.1-.2 0-.3 0-.3s-1.4-1.1-2.5-1.8-1.1-1.2-2.4-1.3c-1.3-.2-2.3-.1-2.5.1-.3.2-.6.4-1.1.2-.5-.2-1.1.1-1.3.3-.2.2-2 .6-2.4.8h-.4c-.3-.2-.5-.6-.6-.7-.1-.1.7-2.1.7-2.1s-1.9-1-2.8-1.5l-.4-.2c-.4-.1-1.7-3.8-2-4.4-.2-.5-.9-.7-1.6-.8-.3 0-1.2-.6-2.1-1.3-1.3-1-2.8-2.2-3-2.4-.3-.3-2.9-1-3.8-1.2h-.2c-.4 0-3.9-.9-4.2-1-.3-.1-2-1.7-2.1-1.8-.1-.1-5.1-1.8-5.3-1.8-.2 0-.3.9-.3 1.3 0 .5-.9 1.5-1 1.6 0 0-.1.1-.2.1 0 0 .5.6 1 .8-.4-.2-1-.8-1-.8-.6.3-2.2 1.5-2.6 1.7-.5.2.3 1.3.4 1.6.1.3-.8.2-1.2.2-.4-.1-1.3-1-2.2-1.9-.8-.9-.7-.8-1-1-.4-.2-.7-.3-.9-.2-.2.1-1.7 2.4-2.1 2.8-.5.5-.3.6-.1 1.1.3.5.6.5 1.2.3s.9-.6 1.3-.5c.3.2 3.5 2.5 3.9 2.8.4.3.2.6.2.9.1.4.9.9 1.5 1.2.6.2.5.3.6.6 0 .3-1.8 1.7-2.1 1.9-.3.2.2.6-.4-.4-.1-.3-.2-.6-.2-.9 0-.9.3-1.8.4-2.1.1-.4-1.2-.1-1.8.1-.6.2-1 1.2-1.6 2.2-.2.3-.3.5-.3.7-.1.6.1 1 .2 1.2.2.3.3.5.9.5.5 0 .6-.1.6.8 0 .7.5 1.7.9 2.9.1.2.1.4.2.6.3 1.4-.5 2.8-.7 3-.2.2-.4.5-.2.9s.2.7.6 1.1c.3.4-.1.4-.8.3-.7-.1-.6-1.3-.7-1.9-.1-.6-.4-.8-.9-.9-.3-.1-.4-.2-.5-.4-.1-.2-.1-.5 0-.8.1-.5.7-.7-.4-1.6-1.1-.9-6.1-7.1-6.3-7.2-.3-.1-.8-1-1.3-1.4-.5-.4-.5-.3-1.2-.6-1.7-1.1-5.5-2.4-6.8-2.9-1.4-.5-4.9-.6-5.4-.6s-.6 0-1.6-.5-.8-.7-2.3-.6c-1.5.2-2.9.3-3 .7-.1.4-.2 1-2 .6S65 78.9 64.8 78c-.3-.9-.5-1.4-.7-2.4-.2-1-1.4-2-2.3-2.3-.9-.3-2 .7-2.6 1.1-.6.3-1.1-.1-1.8-.4-.7-.3-.6-.7-.6-1-.1-.4-.4-1.6-.6-2.1-.2-.5-1.1-.1-1.5 0-.4.1-1 .2-1.4 0-.4-.2-1.5-.3-1.6.1-.1.3-.8.6-1.3 1.2s-.4 1.7.2 2.6c.6.9.4 3.3.4 4 0 .7.4 1.2.8 1.5.4.3 0 .5-.3.6-.3.1.3 1 .4 1.6.1.5-1 2.2-1.3 2.8-.3.6.3 1.7.5 1.9.1.2.3.5.4.7.1.2-.1 1.6-.1 2 0 .4-.1.8-.2 1.1-.2.3-1.8 1.6-1.9 1.7v2.1c0 .5-2 .2-2.7 1-.8.8-1.3 1-1.8.9-.4 0-1.1.1-1.5.2-.1 0-.1.1-.2.1-.4.2-.7.4-1.5.1-.8-.3-1.2-.2-1.5.1-.3.3-.3.9-.3 1.2 0 .2-2.1 3.8-2.3 4-.2.2-.7.5-1.4.6-.8.1-.9.3-1.4.5-.5.3-1.8.5-2.4.7-.7.1-1 .4-1.2.6-.2.2-.3.6-.5.7-.3 0-.9.2-1.6.6-.8.3-3.8 2-4.5 2.5-.7.5-1.5 3.9-2 4.8-.4.9-.1 1.8.1 2.1.2.3.2.6 0 .6s-.2.1-.4.3c-.2.2-1 1.2-1.2 1.4-.2.2-.3 1.3-.3 1.5 0 .3.2.3.4.3h5c.5 0 1.9-.3 3.3-.4 1.4-.1 2.7.4 3.2.7.5.4.4 2 .5 3.1.1 1.1 1.1 3.2 1.4 3.9.3.7-.1 1.8-.2 2.3-.1.6.4 1.6.9 2.1.3.3.4.7.4 1 0 .2 0 .4-.1.6-.1.3-1.4 5.8-1.5 6.1-.1.2-.1.5-.2.6-.1.1-.2.1-.3.1-.5 0-1 .5-1.3.7-.3.2-2.4 3.7-2.7 4.2-.3.5 0 2.9.2 4.1.2 1.2 1.6 6.2 2.4 7.4.8 1.2 1.8 2 3.3 2.7 1.4.6 1.4.9 1.6 1.2v.1c.2.4.3 2 .3 2.2 0 .3.2 1.4.3 1.9.1.5.2.4.8.4.6.1 1.7 0 2.4.1s4.9 1 6 1.2c1.1.2 2 .3 2.5.2.6-.1 1.2-.9 1.4-1.4.2-.5.6-.3 1-.1.3.2.5.2.9-.1.3-.2.5-.1.9.1.1.1.2.2.4.3.5.6.6.4.8.4.2 0 .3-.1.6.3.2.5.1.4.3.2.1-.2.1-.3.4 0 .3.3.3.2.3-.1 0-.3.2-.1.7.2.5.2.2-.3-.1-.5-.3-.2-.2-.1-.2-.5.1-.4-.6 0-1 0s-.5-.3-.6-.5c-.1-.3-.6-.6-.7-.6-.1-.1 0-.1.2-.5.1-.4 0-.4-.3-1-.2-.5 0-.9.2-1.3s0-.9-.2-1.1c-.2-.2-.6-.3-.8-.8v-.2c-.1-.5.1-1 .3-1.3.2-.4-.1-.8 0-1.6.1-.7.2-1.4.4-1.9.2-.6.1-2.1.1-2.9 0-.8-.1-1.2.5-2.2.5-.9 1.7-1.4 2.1-1.7.4-.3.8-.9 1-1.1.2-.3 1.2-.9 1.8-1.3.6-.4 1.5-1.2 2-1.6.6-.4 1.6-1.6 1.8-1.7.3-.2.5-.3 1.1-.4.4-.1 2-.9 3.1-1.5l1-.5c.9-.4 1.5-.9 3.3-1.3.2-.1.5-.1.8-.2 1.9-.5 4.6-1.1 5.3-1.3.8-.3 1-.2 1.4-.1.4.1.4-.1.4-.4 0-.2.1-.3.5-.5.2-.1.6-.2 1.2-.3.9-.2 2-.5 2.6-.6 1-.1 2.6-.1 3.5-.1h.3c1-.1 2.5-.1 3.1-.2.6-.1 1.1 0 1.6-.1s1 0 1.2 0c.3 0 .4-.2 3.4-.4h.2c3.3-.2 4.6.8 5.2 1.2.6.4.8.9.8 1.2 0 .4-.4.6-.8.9-.5.2.2.5.4.4.2-.1.2-.2.5 0s.5.2.7 0c.2-.2.2-.2 0-.3-.2-.1-.1-.3-.3-.5-.3-.3.2-.6.5-.8.2-.1.4-.2.5-.1 0 0 .1 0 .1.1.1.1.2.5.7.3.5-.2.5-.2.9-.1s3.2.6 3.7.6.9-.5 1.3-1.1c.4-.6 1.7.2 2.2.6.2.2.3.4.3.7 0 .3-.1.6-.1.8 0 .3.2.4.4.2s.3-.1.4.3c.1.4.7.2 1.3-.1.7-.2.8.6.9.8.1.3-.3.6-.7.7-.3.1 0 1 .3 1.3.2.3.2.6.1.6-.1.1-.3.4-.2.5.1.1.2.5-.1.7-.3.2.4.5.6.6.1.1.6.2.6.4s-.1.5.2.6c.3.2.1.5.1.7 0 .1.1.2.5.4.1.1.3.2.5.3.8.4 1.6 1.7 1.8 1.9.2.2.4.5.3.7-.1.1-.1.4.1.5.2.1.3.1.4.2.1.1.3.4 0 .6-.3.2-.3.5-.1.7.2.2.4.3 0 .5s-.2.3 0 .4c.2.1.2 0 .4-.3s.5-.1.7.1c.1.1.4-.1.7 0 .2.1.3.3.5.4.2.1.6.2.6.5s0 .3.2.3.5 0 .6.2c.2.2.1.4-.1.5-.2.1-.3.5-.4.7-.2.3-.7.3-1 .1-.3-.2-.5-.4-.9-.4s-.3.2-.1.5c.2.3.1.3-.1.2-.3-.2-.4-.2-.3 0 0 .2-.1.4-.4.4-.3 0-.1.4 0 .6.1.2.2.4 0 .4s-.1 0-.8.5c-.7.5.5.3.9.1.4-.1.4.3.4.6 0 .4.4.2.6.2.2 0 .4 0 .6.1l.1.1c.1.2.2.5.4.9s.1.3-.1.2c-.2 0-.8 0-.6.1.2.1.7 1.1.8 1.4.1.2.1.6-.2.7-.4.1-.2.4-.1.6.1.2 0 .3.2.3s.5.3 1 .4c.4.1.6.1.3.3-.3.2-.5.2-.9 0s-.3-.1-.5.1c-.1.2-.6 0-1-.1s-.3.1-.1.5c.2.4.3-.2.7 0 .4.2.5.4.2.4s-.5-.1 0 .4-.9 0-1.3 0 .1.4.2.5c.1.1.3.4.5.5.2 0 .1.2.4.4.2.2-.1.3-.2.3s-.2.3-.5.5c-.2.1-.1.3.1.4.2.1 0 .3.3.3s.4-.1.4-.1c0 .1 0 .1.4.2s.2 0 .2-.3.1-.1.3.2c.1.3.1.3.6.5s.2-.1.3-.4c.1-.3.5-.1.8-.1.3 0 .2-.1.4-.2.2-.2.3 0 .4.1.1.1-.1.4 0 .5.1 0 .3 0 .5.1s.1 0 .3.1c.2.1.2.1.4-.3.1-.4.2-.1.3-.2.1-.1-.2-.3-.2-.4 0-.1.4-.1.4.1 0 .1 0 .3.2.4.2.1.4 0 .5.3.2.2.2 0 .2-.2s.3.2.3 0 .2-.1.4 0 .3-.2.3-.4c.1-.2 0-.3-.2-.4-.2-.1-.1-.2 0-.2s.3-.1.4-.2c.1-.1.3-.1.4.3.1.3 0 .6.2.8.2.2.4.2.3-.1 0-.3.3-.2.5 0s.2.2.4.1c.2-.2.1-.1 0-.3-.1-.3 0-.2-.1-.3-.1-.1 0-.3.3-.3.4-.1.4-.2.2-.3-.2-.1-.2-.4 0-.5.1-.1.3-.2.2-.4-.2-.3-.4-.3-.4-.7 0-.4-.2-.1-.5-.2s-.3-.2-.5-.1-.4.2-.6-.2c-.2-.4-.1-.2-.5 0s-.7-1.2-.6-1.6c0-.5-.2-.6-.5-.8-.3-.2-.3-.9-.2-1.6.1-.4.6-1.3 1.3-2.1.4-.5.8-.9 1.3-1.2 1.1-.8 1.8-1.5 2.6-1.8.8-.3 2.3-.4 2.8-.4s.7-.1 1 0c.3.1.8 0 1.1-.2.3-.2 0-.4-.1-.8s-.4-.3-.8-.2c-.4.1-.3-.1-.2-.4.2-.2-.1-.1-.3 0-.2.1-.2-.3-.3-.5-.1-.2 0-.4.2-.7.2-.3.3-.4.6-.4s.4.1.5.3c.1.2 0 .3.2.4.2.1.8.1.8.1s-.1-.5.1-.6c.2-.1.2-.3 0-.5-.3-.1 0-.5 0-.5l-.3-.3h-.3l-.1-.4-1.2-1.9.3-.1s.5.8.6 1c.2.2.3.3.5.2.2-.1.2 0 .2.1s.5 0 .8-.2c.3-.2.1-.9.1-1.1 0-.2.1-.3.4-.2.2.1.2 0 .5-.3.2-.3.2-.3.4-.3s.3 0 .3-.1c0-.2 0-.2.3-.2s.3 0 .2-.2c-.1-.1-.3-.2-.3-.5-.1-.3-.1-.3-.5-.4-.3 0-.3-.3-.5-.5s-.3 0-.6 0-.5-.3-.3-.6c.3-.4-.8.1-1.4.3-.5.2-1.4.2-3.1-.1-1.7-.4-1.6-.4-1.7-.8-.1-.4-.3-.3-.5-.3s.2-.2-.1-.4c-.2-.2-.3-.2-.4-.1-.1.1-.1.4-.4.2-.2-.1-.2-.4-.1-.6.1-.2.2-.3-.1-.4-.3-.1-.2-.5-.2-.9s-.1-.4-.4-.4c-.2 0-.1-.3-.2-.4-.1-.1-.4-.1-.4-.2s.5-.1 1-.2.2-.4.1-.6c-.2-.2-.2-.3 0-.4.2-.1-.1-.7-.7-1-.5-.3-1.3-.3-1.6-.1-.3.2 0 .5 0 .8 0 .2.1.5.3 1 .2.5-.5-.2-.7-.1-.2 0-.4.2-.3.3 0 .2.3.3.3.4 0 .2 0 .2.3.5.3.2 0 .4-.5.2s-.9.3-.8-.2c.1-.4-.3-.6-.5-.7-.2-.1-.4-.5-.3-.6.1-.1.2 0-.2-.6-.4-.7-.7-.4-.9-.2-.2.2-.8.3-.9.2-.1-.1 0-.4-.3-.5-.2-.1-.2-.2-.1-.5.2-.3.3-.1.6.1s.3 0 .3-.2-.3-.5.2-.2-.1-.6-.4-1.1c-.3-.5.1-.2.5.2.3.4.6.2.5-.2 0-.4.2-.5.4-.5s.3-.2.5-.3c.1-.2-.4-.6-.4-.6s.5 0 .5-.4c0-.3.5-.4.5-.4h1v-1.2c-.1.4-1.3.4-1.5.4-.2 0-1.4-.4-1.4-.4s-.6.6-.9 1.1c-.3.5-.5.3-.5-.1v-.2c0-.2-.1-.2-.2-.2s-.3-.2-.6-.4c-.3-.3-.7-.6-.4-.8.2-.2.9.4 1.1.4.2 0 1-.7.6-1 .4-.6.7-.9 1.2-.7.5.2 2.1-.5 2.1-.5v-2.1h-.3l-.5-.9v-1.3h.9v-1.1l-.4-.3-.4.3-1.2-1.1 1.3-1.5-.9-.6s-1.3.9-1.7 1.2c-.3.2-.6 0-.8-.2-.1-.1-.2-.3-.2-.3l1.2-.6-.3-.8-.2.1-.3-.4-1 .8-.3-.8.6-1.2 1 .3s.9-.4 1.7-.5c.4-.7-.6-.5-.7-.5-.1 0-1.2.4-1.2.4l-.5-.7.4-.3.5.3 1.3-.4 1.4-.5 1.7 1.2.3-.4.3.4-.2.4.2.3 1.8-2.3-.5-.4s.2-.4.3-.3c.1 0-.6-.8-.6-.8l.1-.2.5.4h.3v-.3l-.3.1-.3-.6.5-.1.2.3.5-.3.7-2.1-.9-.7-.9 1.9h-.4l.6-2.1-.2-.1-.7 1.8-.3-.2.6-1.8-.2-.1-.7 1.2-.3-.1.8-1.8-.5-.3-.8 1.1.4.5-.1.2-.5-.4-.5.3-.4-.7 1-.2.2-.6-.2-.1-.2.3-.3.1-.1-.5-.4.1.2-.2-.4-.2s-.3.6-.8 1.2c-.7-.6-.9-.6-1.6-1-.7-.4-.6-.3-.9-.3-.2 0-.2-.2 0-.4.1-.1.2-.2.4-.3.5-.2.3-.9.1-1.2-.2-.3-.5.2-.6.2-.2 0-.1-.4-.1-.4l-.4.3s-.1-.3.3-.6h.1c.4-.2.9-.2 1.1-.6.3-.5.5-1.3 1.2-1.3s2.5-.3 3-.3h.1c.4 0 .5.5.5.5l-.7.2v1l1.1-.3v-.3l.9-.2s.1-.7.1-.9c0-.2.8-.3 1.1-.3.3 0 .5-.6.2-1s-.7-.7-.5-1.3c.3-.6.1.4.3.5.1-.9.6-.1.6-.1l.5-.1s0 .3-.3.4c-.3.1.2.8.2.8l2.2-1.3.8-.5-1-1.9 1.7-.9v-.3s1.6-.4 2.2-.8c.7-.3 2.7-2.4 2.7-2.4l-.3-.6-.5.1s-.1-.4.2-.5c.3 0 .6.3.6.3l.6.1.8 1.5.4-.3.1.1-.3.5.6 1.2.3-.5.2.2-.3.5.6.5.5-.7 1.3.8.9-1.9-1.5-.2z"/><polygon class="st2" points="144.2,98.5 144.4,98.1 143.4,95.8 142,97.2 142.8,99"/><polygon class="st2" points="140.6,98.3 140.5,98.1 139.7,98.6 139.9,100.5 142.2,99.3 141.7,97.8"/><polygon class="st2" points="137,100.1 138,101.5 139.5,100.8 139.2,98.8"/><path class="st2" d="M146.3 99.8c-.4-.6-2.4-.3-2.9-.1-.5.2-3.1 1.8-3.1 1.8l1.2 1.8 1.8-1-.3-.6.5-.3.4.6 2.5-1.3-.4-.7c.1 0 .1 0 .3-.2z"/></g><g><path class="st8" d="M127.5 85.2h.1c.3.1 1.3.3 1.4.6.2.3 1.6 4.4 2 4.6l2.6 1.3c.2.1.7.5.7.5l-.8 2s.6.8.7.8c.1 0 .9-.3 1.8-.4.9-.2.8-.3 1.2-.6.4-.3.7-.2 1.1 0 .4.2.6-.1.9-.2.3-.1.7-.3 2.1-.2 1.4.1 1.9.5 2.2.8.3.3 2.6 2.1 3.4 2.4.5-.9 2.7-2.2 2.7-2.2l-.3-.8-1.3.7c-.4-1.7-1.8-4-1.8-4l.8-.5-.5-1.1-2.2.3-1.3 1.3-.5-.5-.7.3-.8-.8s.7-.1.9-.2c.1-.1 0-.3-.3-1s-.2-.7-.1-.9c.1-.1-.4-1.1-.6-1.7v-.2c-.1-.2-.1-.3-.1-.4-.1-.3.2-2.2.4-2.9.2-.8.2-1.7.2-2.5v-.5h-1.8c-.6 0-1.2-1.2-1.5-1.6-.3-.4-1-.3-1.2-.9-.1-.1-.1-.3-.2-.4.1.1.2.2.3.4.2.6 1 .6 1.2.9.3.4.9 1.5 1.5 1.6.3 0 1.1.1 1.8 0 0-.4 0-.8.2-1.6.3-1.1.2-1.3.9-1.1 0-1.5.4-2.4.7-2.9.4-.6.8-.8.8-.8l.2.3s-.1.1-.1.2c-.1.1-.1.9-.1.9 0 .1.6.8.6.8s1.6-1.3 2.3-1.9c-.1-.4-.2-1.8-.2-1.8l.2.1.8.6-.5.5.2 1.6-2.1 1.8.3.4 4-3 .2.3h1.1c.8 0 3.2-.1 3.3.1.1.1.1.9.1.9h1.4s.1 1 .1 1.1c0 .1.3.4 1.4.7 1.1.3 1.4.1 2-.2.6-.3.9-.6 1.2-.7.4-.1.3-.2.4-.4.1-.2.4-2.8.5-3.2 0-.5-.2-1.6-.2-2 0-.4.1-.4.4-.4.3-.1 1.8-.6 2.2-.8.3-.2 2-2.4 2.1-2.7.2-.3-.1-1.6-.4-1.9-.3-.3-2-2.2-2.2-2.5-.2-.4-.1-2.1-.1-3 0-.9-.1-1.1-1.1-1.9-.1-.1-.3-.2-.4-.4-.7-.8-1.1-2-1.2-2.5-.2-.6-.1-.8.3-1.2.3-.4 1.2-.7 1.5-1.5.3-.8-.7-.7-1.3-.4-.6.3-.9.4-1.6-.2-.7-.6 0-1.1.4-1.5.3-.4-.2-.8-.4-.8-.2-.1-.9 0-1.5.1s-.6.1-.6.6c0 .3-1-.3-1.8-.7-.3-.2-.5-.3-.7-.4-.6-.3-.8.2-1.1.5-.2.3-.6.8-1.5.4s-.2-2.6-.1-3.3c.1-.7-.2-.5-.2-.4 0 .1-.2.5-.5.4-.2 0-.7.4-2.8.9-2 .5-3.5-1-4.1-1.6-.6-.6-.7-.1-1.2.2-.4.3-.4.4-.9.2-.6-.1-.5.1-.8.5-.4.3.4.9.7 1.5.3.6 0 1.9-.1 2.1-.1.2-.4.7-.9.8-.4.1-.5 0-.6.2-.1.1-.2.3-.9.7-.2.1-.3.1-.3.1-.2 0-.1-.6-.2-1-.2-.6-.3-.4-.9-.2-.6.2-.6.1-.9-.1-.4-.2-.4-.3-1.1-.3-.7 0-1.2-.6-1.7-1-.5-.3-.8-.4-1.1-.5h-.2c-.4 0-2.3-.3-3.5-.3-1.3 0-2.2 0-3.4.4-1.2.3-1.2.3-1.5.5-.3.2-1.3 1.8-1.7 2.5-.1.1-.1.2-.2.3-.2.6-.2 1.3-.4 1.9-.2.7-.7.4-1.3.1-.5-.3-1.2 0-1.8-.1-.6-.1-.7-.3-.3-.8.4-.5-.5-.7-1.1-.9-.5-.1-.6-.1-.9.2-.3.2-1.6 1.6-2 2-.2.2-.8.5-1.4.9-.6.3-1.2.6-1.5.8-.6.4-.8.6-1 .3-.1-.1-.1-.3-.1-.5 0-.7.3-2 .3-2.4.1-.6-.1-.3-.6-.2-.4.1-3.1.9-3.8 1.1h-.2c.2-.2 2.9-1.8 3.2-2 .3-.2.4-.3.6-1 .2-.7 0-.4-.5-1s.4-1.6.8-2c.4-.4.3-.6-.1-.9-.4-.3-.4-.3-.7 0-.3.3-.9 1-1.3 1.4-.4.4-.8 1-1.3 1.2-.5.2-2.5 1.5-3.2 1.9-.3.2-.5.2-.6.2-.2 0-.4-.2-.7-.2-.6 0-1 .2-1.7.6-.8.3-.8.1-1.8.4-1 .2-1 .3-1.4.8-.3-.1-.7-.4-1.5-.1-.3.1-.7.2-1 .2-.4.1-.9.1-1.6.2-1.3.1-2.1-.3-2.9-.5-.8-.2-2 .7-2.3.9-.3.2-.6.3-.4-.1.1-.4 0-.2-.5-.1s-.5 0-1-.5c-.3-.3-.3-.5-.2-.7 0-.1.1-.3.2-.5.2-.6-.1-.5-1-.8-.9-.2-.6-1.1-.7-1.7-.1-.6-1.6-.9-2.6-1.1-1-.2-1.4 0-2.2.2-.4.1-.7 0-1 0-.3-.1-.5-.3-.6-.4-.2-.3-1-2.2-1.4-3.1-.4-.9-.2-1-.1-1.5s-.2-.4-1-.3c-.8.1-.7-.6-.7-1.2s-.2-.8-.9-1c-.7-.2-1.7.2-2-.3-.3-.5-.5-.5-.8-.4-.3 0-1.8.7-2.5.5-.7-.2-1.9 0-2.3-.2-.5-.2-.8-.1-1.4.2-.7.3-2.5-1-3.2-1.5-.8-.4-1-.1-1.9.5-.9.6-1.4.1-1.6 0-.2-.2-.7-.3-1.7-.6-.7-.3-1.7-.5-2.4-.9-.2-.1-.3-.2-.4-.4-.6-.7-2-1.6-2.8-1.7-.7-.1-3.9-.5-5.1-.7-1.3-.1-1.7-.6-2.9-1.2-1.1-.6-1.1-.5-1.6-.3-.5.3-.9.3-1.4.3-.5 0-4.2-2.9-5.3-3.7-1.1-.8-1.6-.9-2.4-.7-.7.2-.8.2-.9.6-.1.4-.3 1.1-.8 1.2-.5.1-.9.1-1.5.7s-1 .2-1.1.1c-.7-.5-2.2 0-2.6.3-.4.3-2.5 1.9-2.8 2.2-.3.3-.6 1.7-.6 2.4s.7 2.8 1.1 3.2c.4.4 1.8 1.5 2.2 1.5.4 0 .6.3.6.6s.1 5.1.3 5.4c.2.3 1.9 2.8 1.9 2.9 0 .1-.3 2.2-.3 2.3 0 .1 1.5 2.3 1.9 2.8 1 .4 1.3.9 1.6 1.6.1.2.3.5.5.9.8 1.3 2.2 3.4 2.6 3.8.5.5 1.2.8 3.7 2.5s3.8 1.8 4.7 2c1 .2 3 .4 3.1.6.1.2 2.7 3 3.3 3.3 1.4.1 1.7.3 2.1.6.5.3.8.4 1.3.2.3-.1.6-.1.8-.1.2 0 .3.1.4.2.2.3.6 2.3.7 2.7.2.4 1.7 1.1 1.9 1.1.3.1.5-.2 1.7-.9 1.1-.6 2-.3 2.8.3.7.6 1.1 2.9 1.3 3.4.1.5 0 .5 2.1 2.9 2 2.4 4.5 2 4.5 2s.1-.6.4-.9c.1-.1.2-.2.3-.2.6-.2 2.3-.5 2.6-.5.3 0 2.1 1.1 2.3 1.2.2 0 1.4 0 2.5.1 1.1 0 2.3-.1 3.2.2 4.1 1.5 6.1 2.6 6.8 3 .7.3.7.3 1 .5.3.2 1.4 1.6 1.6 1.7.2.1.7.6 1.7 1.9 1 1.3 4.7 5.6 5.2 6.1.5.6.4.9.3 1.4-.1.5-.2.6.4.8.6.2.9.5.9.8 0 .3.2 1.3.5 2.1 1.5.2 2.5-.1 2.4-.2-.1-.1-.6-.9-.9-1.8.6-.7 1-1.3 1.2-2.4.1-1.1-.7-2.9-.9-3.4-.2-.5-.1-1.4-.1-1.9s-.3-.7-.6-.6c-.3.1-.8-.3-1-.9-.1-.6.5-1.9 1-2.7.5-.8 1-.7 1.4-.7.5-.1.3.1.3.3 0 .2-.4 1.4-.4 1.8 0 .3 0 .4.3 1.2.3.8.5.6.7.4.2-.2 1.6-1.3 2.1-1.8s.1-.7-.8-1.1c-.9-.4-1.1-.5-1.1-1s0-.6-.3-1c-.3-.3-3-2.8-3.6-3.2-.6-.5-1.6.2-1.9.3-.2.1-.6-.5-.6-.9 0-.1 0-.1.1-.2.2-.3 1.7-2 2-2 .3 0 1.2.3 1.4.9.3.6 1.8 1.9 2.1 2.1.3.2.7.2 1.2.2s.5 0 .4-.3c-.1-.3-.7-1.7-.4-1.9.2-.2 2.5-1.2 2.7-1.3.2-.1.7-.8 1.3-1.6-.1-.7.1-1.2.2-1.4 0-.1.1-.1.1-.1s4.1 1.3 5.3 1.9c.1.1.2.1.3.2.5.5.8 1 1.5 1.4.5.3 1.6.7 2.3.9.3.1.5.1.6.1.5 0 2.4.4 3.2.8.8.4.9.3 1.4.8.5.5 3.3 2.7 3.8 3.1.4.3.6.4.8.4l.6-.6m-.1 0"/><path class="st8" d="M127.5 85.2h.1c.3.1 1.3.3 1.4.6.2.3 1.6 4.4 2 4.6l2.6 1.3c.2.1.7.5.7.5l-.8 2s.6.8.7.8c.1 0 .9-.3 1.8-.4.9-.2.8-.3 1.2-.6.4-.3.7-.2 1.1 0 .4.2.6-.1.9-.2.3-.1.7-.3 2.1-.2 1.4.1 1.9.5 2.2.8.3.3 2.6 2.1 3.4 2.4.5-.9 2.7-2.2 2.7-2.2l-.3-.8-1.3.7c-.4-1.7-1.8-4-1.8-4l.8-.5-.5-1.1-2.2.3-1.3 1.3-.5-.5-.7.3-.8-.8s.7-.1.9-.2c.1-.1 0-.3-.3-1s-.2-.7-.1-.9c.1-.1-.4-1.1-.6-1.7v-.2c-.1-.2-.1-.3-.1-.4-.1-.3.2-2.2.4-2.9.2-.8.2-1.7.2-2.5v-.5h-1.8c-.6 0-1.2-1.2-1.5-1.6-.3-.4-1-.3-1.2-.9-.1-.1-.1-.3-.2-.4.1.1.2.2.3.4.2.6 1 .6 1.2.9.3.4.9 1.5 1.5 1.6.3 0 1.1.1 1.8 0 0-.4 0-.8.2-1.6.3-1.1.2-1.3.9-1.1 0-1.5.4-2.4.7-2.9.4-.6.8-.8.8-.8l.2.3s-.1.1-.1.2c-.1.1-.1.9-.1.9 0 .1.6.8.6.8s1.6-1.3 2.3-1.9c-.1-.4-.2-1.8-.2-1.8l.2.1.8.6-.5.5.2 1.6-2.1 1.8.3.4 4-3 .2.3h1.1c.8 0 3.2-.1 3.3.1.1.1.1.9.1.9h1.4s.1 1 .1 1.1c0 .1.3.4 1.4.7 1.1.3 1.4.1 2-.2.6-.3.9-.6 1.2-.7.4-.1.3-.2.4-.4.1-.2.4-2.8.5-3.2 0-.5-.2-1.6-.2-2 0-.4.1-.4.4-.4.3-.1 1.8-.6 2.2-.8.3-.2 2-2.4 2.1-2.7.2-.3-.1-1.6-.4-1.9-.3-.3-2-2.2-2.2-2.5-.2-.4-.1-2.1-.1-3 0-.9-.1-1.1-1.1-1.9-.1-.1-.3-.2-.4-.4-.7-.8-1.1-2-1.2-2.5-.2-.6-.1-.8.3-1.2.3-.4 1.2-.7 1.5-1.5.3-.8-.7-.7-1.3-.4-.6.3-.9.4-1.6-.2-.7-.6 0-1.1.4-1.5.3-.4-.2-.8-.4-.8-.2-.1-.9 0-1.5.1s-.6.1-.6.6c0 .3-1-.3-1.8-.7-.3-.2-.5-.3-.7-.4-.6-.3-.8.2-1.1.5-.2.3-.6.8-1.5.4s-.2-2.6-.1-3.3c.1-.7-.2-.5-.2-.4 0 .1-.2.5-.5.4-.2 0-.7.4-2.8.9-2 .5-3.5-1-4.1-1.6-.6-.6-.7-.1-1.2.2-.4.3-.4.4-.9.2-.6-.1-.5.1-.8.5-.4.3.4.9.7 1.5.3.6 0 1.9-.1 2.1-.1.2-.4.7-.9.8-.4.1-.5 0-.6.2-.1.1-.2.3-.9.7-.2.1-.3.1-.3.1-.2 0-.1-.6-.2-1-.2-.6-.3-.4-.9-.2-.6.2-.6.1-.9-.1-.4-.2-.4-.3-1.1-.3-.7 0-1.2-.6-1.7-1-.5-.3-.8-.4-1.1-.5h-.2c-.4 0-2.3-.3-3.5-.3-1.3 0-2.2 0-3.4.4-1.2.3-1.2.3-1.5.5-.3.2-1.3 1.8-1.7 2.5-.1.1-.1.2-.2.3-.2.6-.2 1.3-.4 1.9-.2.7-.7.4-1.3.1-.5-.3-1.2 0-1.8-.1-.6-.1-.7-.3-.3-.8.4-.5-.5-.7-1.1-.9-.5-.1-.6-.1-.9.2-.3.2-1.6 1.6-2 2-.2.2-.8.5-1.4.9-.6.3-1.2.6-1.5.8-.6.4-.8.6-1 .3-.1-.1-.1-.3-.1-.5 0-.7.3-2 .3-2.4.1-.6-.1-.3-.6-.2-.4.1-3.1.9-3.8 1.1h-.2c.2-.2 2.9-1.8 3.2-2 .3-.2.4-.3.6-1 .2-.7 0-.4-.5-1s.4-1.6.8-2c.4-.4.3-.6-.1-.9-.4-.3-.4-.3-.7 0-.3.3-.9 1-1.3 1.4-.4.4-.8 1-1.3 1.2-.5.2-2.5 1.5-3.2 1.9-.3.2-.5.2-.6.2-.2 0-.4-.2-.7-.2-.6 0-1 .2-1.7.6-.8.3-.8.1-1.8.4-1 .2-1 .3-1.4.8-.3-.1-.7-.4-1.5-.1-.3.1-.7.2-1 .2-.4.1-.9.1-1.6.2-1.3.1-2.1-.3-2.9-.5-.8-.2-2 .7-2.3.9-.3.2-.6.3-.4-.1.1-.4 0-.2-.5-.1s-.5 0-1-.5c-.3-.3-.3-.5-.2-.7 0-.1.1-.3.2-.5.2-.6-.1-.5-1-.8-.9-.2-.6-1.1-.7-1.7-.1-.6-1.6-.9-2.6-1.1-1-.2-1.4 0-2.2.2-.4.1-.7 0-1 0-.3-.1-.5-.3-.6-.4-.2-.3-1-2.2-1.4-3.1-.4-.9-.2-1-.1-1.5s-.2-.4-1-.3c-.8.1-.7-.6-.7-1.2s-.2-.8-.9-1c-.7-.2-1.7.2-2-.3-.3-.5-.5-.5-.8-.4-.3 0-1.8.7-2.5.5-.7-.2-1.9 0-2.3-.2-.5-.2-.8-.1-1.4.2-.7.3-2.5-1-3.2-1.5-.8-.4-1-.1-1.9.5-.9.6-1.4.1-1.6 0-.2-.2-.7-.3-1.7-.6-.7-.3-1.7-.5-2.4-.9-.2-.1-.3-.2-.4-.4-.6-.7-2-1.6-2.8-1.7-.7-.1-3.9-.5-5.1-.7-1.3-.1-1.7-.6-2.9-1.2-1.1-.6-1.1-.5-1.6-.3-.5.3-.9.3-1.4.3-.5 0-4.2-2.9-5.3-3.7-1.1-.8-1.6-.9-2.4-.7-.7.2-.8.2-.9.6-.1.4-.3 1.1-.8 1.2-.5.1-.9.1-1.5.7s-1 .2-1.1.1c-.7-.5-2.2 0-2.6.3-.4.3-2.5 1.9-2.8 2.2-.3.3-.6 1.7-.6 2.4s.7 2.8 1.1 3.2c.4.4 1.8 1.5 2.2 1.5.4 0 .6.3.6.6s.1 5.1.3 5.4c.2.3 1.9 2.8 1.9 2.9 0 .1-.3 2.2-.3 2.3 0 .1 1.5 2.3 1.9 2.8 1 .4 1.3.9 1.6 1.6.1.2.3.5.5.9.8 1.3 2.2 3.4 2.6 3.8.5.5 1.2.8 3.7 2.5s3.8 1.8 4.7 2c1 .2 3 .4 3.1.6.1.2 2.7 3 3.3 3.3 1.4.1 1.7.3 2.1.6.5.3.8.4 1.3.2.3-.1.6-.1.8-.1.2 0 .3.1.4.2.2.3.6 2.3.7 2.7.2.4 1.7 1.1 1.9 1.1.3.1.5-.2 1.7-.9 1.1-.6 2-.3 2.8.3.7.6 1.1 2.9 1.3 3.4.1.5 0 .5 2.1 2.9 2 2.4 4.5 2 4.5 2s.1-.6.4-.9c.1-.1.2-.2.3-.2.6-.2 2.3-.5 2.6-.5.3 0 2.1 1.1 2.3 1.2.2 0 1.4 0 2.5.1 1.1 0 2.3-.1 3.2.2 4.1 1.5 6.1 2.6 6.8 3 .7.3.7.3 1 .5.3.2 1.4 1.6 1.6 1.7.2.1.7.6 1.7 1.9 1 1.3 4.7 5.6 5.2 6.1.5.6.4.9.3 1.4-.1.5-.2.6.4.8.6.2.9.5.9.8 0 .3.2 1.3.5 2.1 1.5.2 2.5-.1 2.4-.2-.1-.1-.6-.9-.9-1.8.6-.7 1-1.3 1.2-2.4.1-1.1-.7-2.9-.9-3.4-.2-.5-.1-1.4-.1-1.9s-.3-.7-.6-.6c-.3.1-.8-.3-1-.9-.1-.6.5-1.9 1-2.7.5-.8 1-.7 1.4-.7.5-.1.3.1.3.3 0 .2-.4 1.4-.4 1.8 0 .3 0 .4.3 1.2.3.8.5.6.7.4.2-.2 1.6-1.3 2.1-1.8s.1-.7-.8-1.1c-.9-.4-1.1-.5-1.1-1s0-.6-.3-1c-.3-.3-3-2.8-3.6-3.2-.6-.5-1.6.2-1.9.3-.2.1-.6-.5-.6-.9 0-.1 0-.1.1-.2.2-.3 1.7-2 2-2 .3 0 1.2.3 1.4.9.3.6 1.8 1.9 2.1 2.1.3.2.7.2 1.2.2s.5 0 .4-.3c-.1-.3-.7-1.7-.4-1.9.2-.2 2.5-1.2 2.7-1.3.2-.1.7-.8 1.3-1.6-.1-.7.1-1.2.2-1.4 0-.1.1-.1.1-.1s4.1 1.3 5.3 1.9c.1.1.2.1.3.2.5.5.8 1 1.5 1.4.5.3 1.6.7 2.3.9.3.1.5.1.6.1.5 0 2.4.4 3.2.8.8.4.9.3 1.4.8.5.5 3.3 2.7 3.8 3.1.4.3.6.4.8.4l.6-.6m-.1 0"/><polygon class="st8" points="150.9,81.7 150,81 148.1,82.4 147.3,83.9 147.8,84.1"/><polygon class="st8" points="149.3,83.7 150.5,85.3 152.4,84 151.4,82.2"/><path class="st8" d="M147.6 84.8c2 1.9 2.5.7 2.5.7l-1.1-1.8-1.4 1.1zm6.1-6.9l-1.3.1c-.1 1.8.3 1.9.3 1.9l.3-.2.3.3-.4.3.7 1 .4-.3s.1-1.9.2-3.3c-.1.1-.5.2-.5.2z"/><path class="st8" d="M152.3 74.1l-.1-.4h-.5v1l-.6.1-.2-1-1.2.2.1 1.1h-.3l-.3-1-.9.7.1.7-2.2 1.5-.3-.4-.4.2 1.3 1.7.6-.4 1.1 1.3.3-.6c.2-.8-.6-1.5-.6-1.5l.2-.4 1.1-.2.1-1.3h.3v.8l3.7-.7v1.7l-1.9.2v.5l2.7-.6.1-2.3-.9-.7-1.3-.2z"/><polygon class="st8" points="148.1,80.4 146.9,78.5 146.3,78.9 147.7,80.8"/><path class="st8" d="M151.5 76c-.2.6 0 1.1 0 1.1h.7l-.1-.5 1-.1v-.3l-1.1.1.1-.4-.6.1zm-4.2 5.6c-.6-.5-1.9-2.9-1.9-2.9l.6-.4-.2-.3-.8-1.1-.8.4.2.3.5-.3.2.4-1.2.9v.9c0 .2.4.5.4.5l.3-.1c.1 0 .1-.1.2-.1 1.2 3 1.9 3.1 1.9 3.1s.1-.3.6-1.3zm-4.5-2.4l.1-1.4h-.5c-.1.4-.2 1-.2 1.5v.8h.6v-.9zm.7 9.6l1-1.4h-2c0 1.1 1 1.4 1 1.4zm2.9-2.4s-.5-.5-.9-.7c-.4-.2-1.1.6-1.1.6l-.3-.2s.6-.7 1-1.1c0-.2-.2-.5-.3-.7 0-.1-.1-.1-.1-.2s-.1-.1-.1-.2l-.1-.1c0-.1-.1-.1-.1-.2l-.1-.1c0-.1-.1-.1-.1-.2l-.1-.1c0-.1-.1-.1-.1-.2l-.1-.1-.1-.1-.1-.1s0-.1-.1-.1c0 0 0-.1-.1-.1v-.1l.2-.1s-.1-.6-.2-.8c-.1-.2-.4-.5-.4-.5h-.6l-.6 3.6v.8c.2.8.6 1.6.6 1.6s.4.3.6.3c.2 0 .8-.3 1-.3.2 0 1.9.2 1.9.2l.4-.8z"/></g></g><g><path id="Stroke-151_2_" class="st0" d="M186.3 382.3c-.3 0-.4-.2-.4-.3 0-.1-.1-.1-.1-.1v-.1c0-.1.1-.1.1-.1v-.2c-.1 0-.2.1-.3.2v.1c-.1 0-.1-.1-.1-.2v-.1c0-.1.1-.2.1-.2s0-.1.1-.2v-.1c0-.3-.1-.4.1-.4h-.2v-.1s0-.1.2-.2c.1.1.2.1.2.1v-.1c0-.1-.1-.3 0-.4.2-.2.2-.2.3-.2l.1-.1h.2c.1 0 .1.1.1.1l.2.1c.3 0 .4.1.4.2s0 .1-.1.2v.4c.1.1.5.3.5.3v.1h-.2c-.1 0-.2 0-.2.1v.1c.3.1.5.2.5.3 0 .1-.1.2-.1.2v.2c-.1.1-.1.1-.2.1h-.9c0 .1-.1.3-.2.4.1-.2 0-.1-.1-.1.1 0 0 0 0 0z"/><path id="Stroke-155_1_" class="st0" d="M182.2 365.8c.1 0 .1 0 0 0 .2.1.2.1.3.1h.1c-.1 0-.1-.1-.2-.1 0 0-.1 0-.1-.1 0 0 0 .1-.1.1.1 0 .1 0 0 0zm-2.4 3.2v-.1c.1 0 0 0 0 .1 0-.1 0-.1 0 0 0-.1 0 0 0 0zm.1 1.6v.2c.1-.2.1-.2 0-.2-.1-.2-.1-.3 0-.4v-.1h-.1l-.1.1c0 .1.1.2.1.3l.1.1zm.2.4h.3l.1.1v-.1c0-.1 0-.3-.1-.3v-.3c.1 0 .1-.1.1-.1h-.1s-.1 0-.1.1v.1s0 .1-.2.3v.2l-.1-.1.1.1zm0 .4c0 .1-.1.2-.1.2 0 .1 0 .1-.1.2.1-.1.2-.2.3-.2h.2s.1 0 .1.1c0-.1-.1-.1-.1-.1h-.3v-.1c.2 0 .1-.1 0-.1zm-1.5 4.2c0-.2 0-.3-.1-.4-.1-.1-.2-.1-.3-.1-.1 0-.3 0-.3-.2v-.6c0-.3 0-.3.1-.4v-.5c0-.2 0-.3.1-.4 0-.1.1-.1.1-.1-.1-.1-.1-.3 0-.5v-.1l.1-.2v-.9c0-.1.1-.2.2-.2h.1c.1 0 .2.1.2.2v.4c0 .1 0 .1.1.1 0-.1.1-.2.1-.2.1-.1.1-.1.2-.1h.2v.2l.1-.1h.2-.1c-.1-.1-.1-.2-.1-.2 0-.1.1-.1.1-.1.2 0 .3.1.3.2l.2-.1c-.2-.1-.2-.1-.2-.2s0-.1.1-.2l.1-.1-.1-.1c0 .1-.1.1-.2.1s-.1-.1-.2-.1-.1-.1-.2-.1h-.2c-.2 0-.2 0-.3-.1v-.3l.1-.1c.1 0 .1 0 .2.1l.2-.2s.1 0 .1-.1c-.1-.3 0-.5.1-.6v-.2c0-.1.1-.2.1-.2v-.3l-.1-.2.2-.2c.1-.3.3-.8.3-.8.1 0 .1 0 .1-.1 0 0 0-.1.1-.1v-.1h.1l.1.1s0-.1-.1-.2-.1-.1-.2-.1c-.1-.1-.2-.1-.2-.2-.1.1-.2.1-.2.1h-.1v-.3c.2-.2.3-.4.3-.5v-.1c0-.1.1-.4.2-.5 0-.3.1-.4.2-.4s.1 0 .1.1h.1c.1-.1.2-.1.3-.1.1 0 .2.1.2.1s.1 0 .1-.2v-.1c.1-.2.3-.2.4-.3v-.3c.1-.1.2-.1.2-.1h.1s.1 0 .1-.1l.1-.1h.1c.3.1.5.3.6.5.1.2.1.3 0 .4h-.1v.1c.1.1.1.2.1.2 0 .2-.3.4-.3.4h.1c.1.2.1.2.1.3v.9h-.2v.2c0 .1-.1.2-.2.3v.1c-.1.3-.3.4-.4.5-.1 0-.1.1-.1.1-.1.2-.4.5-.5.6.1.3.1.3 0 .4h-.3v.1l.1.1c.1.2.1.2.1.3v.1c.1-.1.3-.2.3-.2h.1c0 .1 0 .2-.1.3-.3.4-.2.7-.1.9v.2h-.1v.1c0 .1.1.1.1.2s-.1.1-.1.1c-.1.1-.1.2-.1.3h.1c.1 0 .1-.1.1-.1 0-.1.1-.1.1-.1h.1c.1.5-.2.6-.3.6h-.3l-.1.1v-.1c-.1.1-.1.2-.1.3v.1c.1.3 0 .4 0 .4v.1l-.1.1c-.1 0-.1 0-.1-.1-.1.2 0 .2 0 .2v.2c-.1.1-.1.1 0 .2v.4c0 .1-.1.1-.1.1-.1.2-.1.3-.1.3-.1.2-.2.3-.2.4-.1.1-.1.1-.1.2-.2.1-.3.2-.4.3-.9.5-1 .6-1.1.6z"/></g><path class="st2" d="M284 28c-1.1-1.8-2.1-3.4-2.1-3.4-.1 0-.3.2-.3.2l-.7-.7s-2.8 2.1-3 2.3c-.2.3-.2 2.3-.1 2.6.1.3 1.8 2.7 1.8 2.7s-.2.1-.8.2c-.8-2.2-2-2.3-1.9-3 .5-2.7-1.3-3.8-1.5-4-.3-.3-.1-.8-.1-1.1 0-.3.5 0 .6.1.2.1.1.6.1.6s1.2.7 1.4.6c.2-.1 2.4-1.6 2.7-1.8.1-.1.1-.2.1-.4 0-.3-.2-.5-.2-.6.1-.1.9-.2.9-.4s-3-5.8-3.1-5.8c-.1 0-.4.5-.7.3-.3-.1-4.6-10-6.9-15.3h-8.8c.3 1.1.9 2.2.9 2.9-.1.7-.3 1.4 0 1.6.3.2 2 .8 1.8 1-.2.2-1 1.8-.4 2.3.6.5 2.1 1.1 2.1 1.7 0 .6 0 1.3 1 2.9.2.3 0 .7-.3 1.1-.4.4-.8 1.3-.6 1.6.2.3 1.2-.2 1.5.6.3.8 1.4 3.3 1.7 3.5.2.2.6-.1.7.5 0 .3.3.6.4.8 0 .1 0 .2-.2.2-.6 0-2.7-3.2-3.1-3.3-.3-.1-.7-.2-1.3-.5s-2.1-2.4-2.2-2.9c-.1-.5 1-.6.9-.9-.1-.3-5.1-4.7-6.2-5.2-.1 0-.1-.1-.2-.1-.9-.4-.1-.5.2-.5.3 0 .7 0 1-.7.3-.7 1.5-2.1 1.2-2.4-.3-.3-2.4-1.5-2.7-1.7-.3-.2 1.1.1 1.4-.1.3-.2.6-.7.7-.8.1-.1-.9-1.4-1.3-1.7h-16.2c.8 1.1 1.7 2.1 2.1 2.7 1.1 1.3 3.7 9.5 4.4 9.9.7.4 2.7.5 2.7.7 0 .1.2.5.3.9.1.1.1.3.1.5.2.7-.2 2.1-.3 2.5-.1.4-1 .8-1.5.7-.5-.1-5.7-2.4-5.8-2.6-.1-.2-.1-.9-.2-1.3s-5.8-2.4-6.3-2.5c-.5-.1-1.3 1-1.6 1.1-.2.1-2.5.2-3 .1-.6-.1-1.9-.8-2.2-.9-.3-.1-.8 2.1-1.1 2.2-.3.2-.8-2.3-.5-2.6.1-.1.8-.5 1.5-.9.3-.2.5-.3.7-.4.7-.4 1.1-.4 1.6-.8s.1-.8-.3-1.3-1.3-1.5-1.7-2.3c-.4-.8-1-1.1-2.3-1.3-1.3-.2-2.4.4-2.9.4-.6 0-.8-.9-.9-.9-.2-.1-2.2.9-2.8.6-.3-.1-2.2-.7-4.2-1.2-2.1-.6-4.4-1.2-4.6-1.2-.6-.1-1.8-1-1.8-1.6 0-.2 0-.4-.1-.6h-59.2c1.9 1.8 7.3 7.2 7.8 7.7.5.6 1 4.3 1.9 4.8.8.5 3.9 2.6 4.6 2.7h.7c.4 0 .9 0 1.2.2.2.1.3.2.4.3.6.6-.7 3.2-.3 3.6.5.3 5.8 4.1 6.5 4.5.6.4 1.7 1.8 2.5 2.3.2.1.3.2.5.2.8 0 3.1-.5 3.5-.3.4.3 1.8 1.9 2.2 2.1.4.1 2 1 2.6 1.4.6.4 3.1 2.4 3.6 2.4s1-.9 1.7-1c.6-.1 4.4 1.5 5.2 1.9.2.1.3.2.4.4.5.7.8 2.1 1.9 3.6 1.5 1.8 2.2 1.2 3.2 1.1 1-.1 6.9-3.1 7.4-3.2.5-.1 3.1 1.4 3.8 1.4.7 0 5.4-3.3 6-3.4.6-.1 1.5.3 3.8 1.3s2.5-.2 3.6-.7c1.1-.5 4.2-4.6 5.2-5.1.4-.2 1.1-.5 2-.9 1.5-.6 3.4-1.3 4.4-1.1 1.4.3 2.4 0 4.2-.7 1.8-.7 2.3-1.1 2.6-1.8.3-.7.5-.8 1.1-.2 1.3 1.2 5.2 3.8 6 3.4-2-1.6-2.3-3.2-2.3-4.7.9.4 1.4-1.3 1.8-2.1.3-.8.9-2.5 1.5-3 2.5 2.8 6.6 5.4 8.4 6.5 1.8 1.1 2.3 2.3 2.5 2.4.2.1.4.1.6.1.2 0 .3.7.3.7s.2.2.8.4c.1 0 .1 0 .2.1 1.1.6 3.9 6.7 4.6 7.5.7.8.9.6 2.2.9 9.1 1.9 9 3.7 9.5 4.3.2.3 1.2 2.2 2.1 4.1V28zM58.6 201.5l.8-.9-.2-1.7s-.6.4-1.6.6c-1 .1-.8-.9-.8-.9s0-1-.1-1-.6-1.1-.6-1.2c0-.1-1.4-.4-2-.6-.6-.2-.4.4-1.3.6-1 .1-1.7-1.7-1.7-1.7s-.1-2-.8-2.6c-.7-.6-.8-2-.7-2.3.1-.3.9-.7 1.7-.5.9.2.3-.9.3-.9v-2.5s.1-.5.2-1.2.2-1.4.2-1.7c0-.6 0-1.2-2.4-.7-2.3.4-2.5-1.8-2.5-1.8s1.3-1.8 1.1-2.2c-.2-.4-.8-2.3-.5-2.6.3-.3.9-.9.2-1.7-.7-.9.3-1 .7-1 .3 0 1.1-1.3 1.1-1.5 0-.2.4-1.8.7-1.7.3.1 1.3-1.2 1.3-1.2s.5-.9 1.6-2.1c1.1-1.3-1.9-1.4-1.9-1.4l-5.3-.5s-2.7-.5-4-.9l-.6-.3c-.8-.6-.8-1.8-.8-1.8s-.2-1.1-.4-2.5c-.1-.9-.8-1.2-1.8-1.6-.6-.2-1.2-.5-2-1-2-1.4-2.9-5.4-3.3-5.9-.3-.3-.4-1.7-.5-2.6 0-.5-.1-.9-.1-.9s.1-4.3 0-4.5c-.1-.2 1.8-3 1.9-3.1.1-.1.3-.4.6-.7.3-.3.7-.7.9-.7.3 0 .9-1.1.9-1.1s.9-3.8 1.4-5.4c.5-1.6-.8-2.5-.8-3.6s-.1-2.6-.1-2.8c0-.3-1.3-3.3-1.3-3.3s0-2.7-.2-3.6c-.2-.9-1.8-.9-1.8-.9l-5.5.1-6.3.9s-2.2.7-4.6 2.2c-2.4 1.5-1.6.3-1.6.3s-1.1-.8-2.1-.8c-.9 0-3 .7-3.7 1.4-.7.7-2.2 1.4-2.2 1.4s-2.2-.1-3.1-.2c-.7-.1-1.3.1-4.1.8 0 0 0 41.7-.2 44.8 1.5.3 1.3.3 2.7.8 4.9 1.6 9 4.8 9 4.8s1.3 2.3 1.6 2.8c.2.5 1.4 1.4 1.6 1.3.2-.1 1.2.1 1.2.1s2.2 4.2 2.5 4.8c.3.5.9-.2.9-.5s.4-.3 1.4-.2c1 .1.3.9.3.9l-1 1.5s-.5 1.4-.5 1.6c0 .2.8.4.8.9 0 .6-1.1 1.1-1.9 1.1-.8 0-.3-1.4-.7-.5-.4.9-.3.2-.8-1-.5-1.3-1.2.6-1.5.7-.2.1-3.1 1.3-3.5 1.3-.4 0-.5-.3-1.8-1-1.2-.7-3.3.2-4.1 0-.7-.2-1-.6-1.2-.6-.2-.1-1.2 0-1.7-.2-.5-.3.3-.8 0-.8s-.7 1.7-1.2 2.2c-.4.5-.3 1.2 0 1.8.2.6.2 1.4-.2 1.6-.4.2-.6 1.9-.6 1.9l-.8 1.5 1.2.4.2.9s0 .8-.4.9c-.4.1-1.1-.6-1.1-.6s-.1-.7-.4-.6c-.3.1-.5.9-.5.9s1 3.4 1 3.5c0 .1 1.4 1.9 1.5 2.3 0 .2 1 3 1 3s.9 1.4 1.2 2.2c.3.8-1.2 1-1.2 1.6 0 .6-1.1.9-1.1.9s-1.1.5-1.6.9-.5 5.4-.5 5.4l1.4.8s.1 0 .2.1c.3.2.8.7.8 1.3 0 .8-1.1.7-1.1.7l-.5.7s-.5 0-.7.1c-.2.1.2.6.2.8 0 .2 1 1.5 1 2.4 0 .9-.3.7-.3.7L1 223s.4 3.4.7 3.7c.3.2-.6.6-.6.6l.1.7s.2 2.7.2 2.8c0 .1 1.1 2.2 1 2.2 0 0-.2.1-.3.1h42.4c0-.1-.2-.3-.4-.3-.5-.1-.2-.3-.2-.6s2-1.5 2-1.5 1-1.3 1-2.4c.1-1 1.6-4 1.6-4l.8-1.5-.6-1.1.9-3.4s0-.1.1-.2c.2-.4.6-1 1.6-1.1 1.3-.1 1.2-1.3 1.3-1.8.1-.5 1.6-.8 1.6-.8l3.1-1.6 1-2.1s-1-.4-1.1-1.7c-.1-1.3 1-1.5 1-1.5s0-1.8.1-2.7c.1-.9.9-1.2.9-1.2l.4-1.1-1-1z"/><path class="st2" d="M283.8 44.7c-1.6-2.9-2.3-4.9-3.8-5.7-1.1-.6-4.7-1.6-7-2.1-.9-.2-1.6-.4-1.9-.4-1-.1-2.7-3.9-3.5-5.6-.7-1.6-1.7-2.7-2.3-2.9-.7-.2-.5-.5-.9-.8-.3-.2-.4.3-.7-.4-.3-.7-1.4-1.9-4-3.3s-5.4-4.1-6.4-5c-.9-.9-1.3 1.2-1.7 2.2-.4 1-.7 2.3-1.3 2.3-.7 0-.6.1-.5 1 .1.9.3 2 1.7 3.3 1.4 1.3-.5.5-1.5 0s-2.6-1.9-3.7-2.7c-1.1-.8-1.1-.2-1.3.1-.2.4-.4.8-1.4 1.3-.4.2-1 .4-1.5.7-.9.4-1.8.7-2.4.6-1-.1-1.5-.4-4.1.4-.9.3-1.6.5-2.2.7-1.1.5-1.8 1-2.7 1.7-1.4 1.2-2.7 3.4-4.8 4.6-1.8 1.1-3.8-.1-5.2-.8-.2-.1-.5-.2-.7-.3-1.4-.6-4.4 2-5.8 3-1.4.9-1.7.1-3.1-.5-1.3-.7-1.8-.6-2.6-.3s-3.8 1.7-5.5 2.5c-.1 0-.2.1-.3.1-1.5.7-2.4.6-3.1 0l-.2-.2c-.7-.7-2.2-3.3-2.4-4.1-.2-.7-3.5-1.7-4.6-2.2-1.1-.5-1.4 0-2.3.5-.9.5-2.4-.7-3.2-1.3-.9-.6-1.1-1-2.1-1.5-.6-.3-1.3-.9-2.1-1.5-.4-.3-.8-.7-1.2-1-1.1-1-2.7-.1-3.6 0-.9.1-2.4-2.2-3.9-3.3-.6-.4-1.6-1.1-2.6-1.7-1.5-.9-2.9-1.9-3-2.1-.1-.4.1-1.5.3-2.8.1-1.3-.9-1.4-2-1.5-1.1-.1-1.8-.7-3.5-1.6-1.6-.9-1.8-.5-2.4-2.6-.6-2-1-3.1-2.1-4.4-1-1.3-5.3-5.2-6.7-6.6-.1-.1-.2-.2-.2-.3h-3.9c.8 1 1.8 2.1 2.5 2.8 1.2 1.1.8 4.5.8 5.6 0 1-.5 1.4.1 2.6.6 1.2.9 2.6.9 3 0 .4.4.8 1.1 1.6.7.8 1.3 4.1 2 4.9.7.8 1.8 1.7 2.6 2.8.3.4.9 1.4 1.6 2.7 1.3 2.4 2.8 5.6 3.2 7.1.5 2.3-.4 4-.8 7.8v.3c-.4 4 .3 7.3.2 8.3 0 .9-.9 1.7-1.6 2.1-.7.4-.2 1.3.3 2.2.3.6.6 1.1 1 1.6.2.3.5.5.8.7.8.5.5 1.2.4 1.8 0 .6-.1 2.5 0 2.7.2.2 2.2 2.4 2.4 3 .3.5.7.8-.9 2.8-1.6 2-2.2 1.7-2.7 1.9-.5.2-1.2-.4-.9 1.2.4 1.6-.3 4-.4 4.6 0 .7-1.6 1.8-1.6 1.8v1.7l2.1.6.6-.7.8 1.8 1.7-1.2-1.5-1.4.4-.4.4.2.4-.4.3.3-.3.5.8.9 4.3-2.7-3.1-2.8s.1-.1.2-.3c.2-.3.4-.7.6-1 .3-.4 3.3-1.3 3.3-1.3l-.1-.4-2.2.5.4-.7 2.1-1.2.9 1.3.6-.9-.8-1.8.5-.3.7 1.6.4-.1 1.9-.4 1 .3.4-1-.4-.2.2-.7.7.4-.6 2.2 1 .5v1l-.9.1.2 1.3 2.2-.1h.2l-.1.9H176l.1 1s2.4-.4 3-.6c.7-.2 1 .4 1 .4l.6.7 9.6 10.1.4-.8-1.2-1.6.5-.5 1.7 1.5.6-.3.1.1.3.2-.6.3.3.3-1.6 1.3h1.9l.7-.7-.1-.5.3-.3.3.3-.3 1.2.2.2 1-.6.3.7-.8.4.6 3h-.6l-.9-2.6-3.3-.1.5 3.3h6.3v.4s-3.1.4-4.3.4c-1.2 0-1.2.4-.7.8s3.2 1.5 3.2 1.5l-.1.2c0 .1-.1.2-.2.3-2.5-1.4-2.9-1-2.9-1l-1.2 1 .3.5.8-.4.2.7-.8.6.8.4.4-.4.5.7-.7.5-1-.3-2.6-2.2-.7 1-.8.2-1 1.3.6.5-.4.9-.9-.4-1.8 2.5 1 .7-.2.9-1.4-.8-1.2 1.8.7.7-.1.6-1.3-.3-1.2 2.1.7.7-.1.4.7.7-.4.3s-.1.1-.2.1c-.8-1-1.7-1-1.7-1l-1 .7.6 1-.8.4-.6-1-.5.3.7 2.1.3-.1.3.7-1.4.8v-.7l.4-.3-1.4-3.2-2.4 1 1.3 3.6-2.7.9-.5-1.4.5-.2.6.7.7-.3-.4-1.3-1.7.4-.4 2.4c-.1 0-1.1-.1-1.5-.1-.5 0-1.4.5-1.6.3-.2-.2-.7.1-1 .5-.3.3-1.4 1.1-1.6 1.2-.2.1-.8.1-.8.5s.2 1-.3.9c-.5-.1-.9.1-.8.4.1.2.5.9.5 1.5s.2 1.2.6 1.6c.4.4 0 1.8.3 2.2.3.4.6.5 1.3.7.7.2.8.5.7 1 0 .5-.8-.3-1-.3-.2 0 .7 1.1.7 1.1l-1-.1-1.7.7-.1.4.9-.4.8.9-.9.4-.4-.6-.6.2-.2-.4s-.3 0-.8.2c0 .3 1.6 2.4 1.6 2.4l-.6.1-.5-.5h-.4l-.9-.1-5.6-2.4-.8 1.8s1.7 1 1.8 1c.1 0 .5 1.4.5 1.4l-.4.2-.9.5-1.2-1.8s-.9 1.2-1.6 1.9c-.6.7-.2 1 .1 1.6.4.6.8-.3 1.3.1s.6.6.4.8c-.1.2-.9.7-1.9 1.2-1 .5-.8.2-1.3.3-.5.1-.1.7-.3 1.4-.2.7-3.6.6-5.4.5.7.8 7.1 2.4 8.4 3.1 1.3.7 1.8 2 2.3 2.5.4.5-.2.6-.5 1.5s.5 1.4 1.8 2.7c1.2 1.3 1.6 5.2 1.4 6.3-.1 1.1-1.5 1.8-2.2 1.8-.7.1-1.5.9-1.9 1.2-.4.3-1.9.7-2 1-.1.3-.2.9-.5 1.2-.3.3-.7.8-.9 1.3-.3.5-.3 1-.2 1.4.1.4 0 2.1.3 2.5.4.4.3.9-.2 1.7-.1.2-.1.3-.1.4 0 .5.5.5.6.5.2 0 .8.1.9.5.1.3-.2.4.4 1 .6.6.8 1 .8 1.2 0 .3-.2.6.3.9.4.3.5.9-.3.5-.7-.4-.4.2-.2.4s.1.5-.2.7c-.3.2 0 .7-.4.7-.3 0-.5 0-.4.3.1.3.1.5-.5.7-.7.2-.7.4 0 .5.7.2.4.7.2.6-.3 0-.7.3-.4.3.3 0 .8 0 .5.5-.3.5.4.4 1.2.7.1 0 .3.1.4.2.5.4.6 1.2.7 2.1.1 1.1-.7 1.4-1.8 1.8-1 .4-1.6 1.2-1.6 1.4 0 .3.4.6.9 1.5s-.1 1.3.3 1.5c.3.3.7.1.5.4-.2.3.3.8-.1 1.1-.4.3-.7.9-1 .9-.4-.1-.5 0-1.1-.5-.6-.5-.6.1-.8.6-.1.4.8.4 1.3.7.5.3.9.5 1.3.2.3-.2.8 0 1.2.4.2.2.4.3.5.5.5.5.5 1.1.7.7.2-.4.4-.4 1 .2.6.7.9 1.8.8 3.1 0 1.3.2 2.7-.8 3.5-.9.8-1.3.1-1.3-.5s.1-.6-.4-.3c-.6.3-1.2.1-1.5.1-.3-.1-1 .1-.8.4.1.3.1.8 0 1.4-.1.6 0 .9-.8.8-.8-.1-1.2 0-2.4.3-1.2.2-2.6.7-2.7.3-.2-.5-.4-.6-.7-.5-.3.1-.4.2-.8.1s-.4-.4-.5 0c-.1.4-.7.6-1 .4-.4-.2-.6 0-.8-.4-.1-.4-.5-.4-.5.1s-.4.4-.2.7c.2.3.5.7.2.9-.3.2-.6.3.1.7.7.3 1.1.3.7.8-.4.4 0 .3.5.2.6-.1.8-.2.8.2s.5.5 1.1.2c.5-.3.6 0 1.2.1.5.1 3.3 1.8 5.1 2.8 1.8 1 .9 2.9.8 4 0 .4.1.8.2 1 .3.4.9.8 1.5 1.2 1.1.7 2.3.3 3.5-.1 1.3-.4.8-.5 1.3.1.4.6.5.5 1.2.4.7-.1.9-.2 1.3.2s.5.3.8-.3c.3-.6.8-.6 1.3-.4.4.2.9.5 1.3.2.4-.4.3-.5.9-.2.6.3.7 0 .7-.3 0-.4.7-.6 1.4-.8.7-.2 1.7-.6 1.8-1.3.1-.7.8-.8 1-1 .3-.2.8-.6.9-1.3.1-.7.8-.6 1.3-1.7s.6-2.2.2-2.9c-.4-.7-.6-2.1-.5-2.6.1-.5.4-.5.7-1.3.3-.8-.1-.5.7-1 .7-.6.1-.9.7-3 .5-2.2 2.7-4.1 3.9-4.9 1.2-.8.9-1.4 1.9-1.3 1 0 .4.1 1.2-.7.5-.5 1.4-1.5 2.4-2.2.5-.4 1-.7 1.5-.8 1.4-.5 2-.7 3.2-.3 1.2.4.8-.1 1-.7.2-.6.3-.1.8-.1s.6 0 .1-.4-.7-.7-.2-.8c.4-.1.4 0 .5-.4.1-.4.6-.2.8-.2.3 0 .6-.5 1.4-.7.8-.2.4-.6-.1-.9-.5-.3-.3-.7.2-.9.5-.2.4-.4.5-.8 0-.4.4-.5.4-1 .1-.6-.7-.7.7-2.1 1.4-1.4 2.6-2.2 3.2-2.5.7-.3 1.7.4 2.1.7.3.3.5.4.8-.1.3-.5-.1-.7.3-.8.4-.1.6.3 1.4.1.8-.2 1.2 0 1.6.3.4.3.5 0 .8.2.3.3.5.5.7-.3.2-.8.7-1.3 1.3-.9.7.4.4.5.3.9-.1.4-.3.7 0 1 .3.3.5.3.8.8.3.5.5.3.8-.1.1-.2.3-.3.6-.4.3-.1.7-.2 1.2-.3.8-.3.9 0 1.8.3s1.1-.7.8-1.2c-.3-.5.9-1 1.7-1.2.7-.1.2-.4 0-.9-.2-.4.3-.8.8-.5.5.3.7.2.7-.1 0-.3.3-.2.5-.2.1 0 .5 0 .7.2.2.2.8-.3 1.1-.3.3 0 .6 0 .4.8-.2.8.3.6.3.5.1-.1.1-.5.5-.5s.3-.3 1.1-.5.3-.5.3-.8c-.1-.3-.1-.7.4-.9.5-.2.3-.6.8-.8.6-.2.8-.4 1.7.4.9.8 0 1.4 0 2 0 .6.2.7.5.1.3-.5.5-.3 1-.2.5.1.8-.9 1-1.7.1-.8.5-1.4.7-2.1.1-.7.3-.9.8-1.5.4-.4.8-.8 1.2-1.4.2-.2.3-.5.5-.8.5-1.1 2-.3 3.3-.1 1.3.2 1.4-2 1.9-2.3.5-.3.7-1.3 1-1.3.3 0 .5-.3.3-1s0-1.7.3-2.5.7-1.1.5-1.6c-.2-.4.3-.9.8-1.6.5-.7.1-.9.1-2.3 0-1.3-.1-.7-.5-1.2-.3-.4.1-4.3.6-6 .5-1.7 1-2 1.3-3.7.3-1.7-1.4-3.1-2.4-4-.2-.1-.3-.4-.4-.8-.6-2-.6-6.7-.6-7.6 0-.5.1-1.1.1-1.6.1-2.1.4-4.1.8-5.9.7-3.8 1.8-7 2.7-9.5.8-2.1 1.6-3.7 2.1-4.7.3-.5.5-.9.6-1.1 1.5-2.9 3.3-5.6 5.2-8.2 2.5-3.4 5.3-6.5 8.1-9.4 1.2-1.2 2.4-2.4 3.6-3.5.6-.5 1.1-1 1.7-1.5 3.7-3.4 6.9-5.9 9.5-7.8 2-1.4 3.7-2.5 5.3-3.2 3.8-2 5.8-2.1 7.3-2.2 1.2-.1 1.1.2 1.6.9V45c-1.1-.1-1.1-.2-1.2-.3z"/><path class="st2" d="M162.9 35.3c0-.9-.2-1.8-.6-2.7-1.1-2.6-3.5-7-3.7-7.4-.2-.4-.9-1.6-1.9-2.4-.2-.2-.4-.3-.5-.4l-.2-.1c-.6-.5-1-1.1-1.5-2.9-.4-1.5-.7-2.2-1-2.6-.2-.3-.3-.4-.5-.6-.5-.4-.7-.5-.8-1.7-.1-1.2-.9-2.4-1-2.7-.1-.2-.2-.4-.2-1.3.1-.9.1-4.4 0-5.3-.1-.9-.6-1.3-.6-1.3l-.9-.9-.1-.1c-.6-.6-1.2-1.3-1.3-1.5-.1-.1-.2-.2-.3-.4H1v33.1c.2.2.3.3.6.4 1 .5 1.6.6 1.7 1.2.1.6.6.6 1 .3.4-.2 1.2-.8 2-.3.4.3 1 0 1.3-.2 0 0 .8-.7 1.4.1.6.7 1 1 1 1s.2.4.8.3c0 0 .8-.1 1.2.4.5.5 1.2 1.3 1.2 1.3s.2.2.5.2.2 0 .4.3c.1.3.6.9.9.9.3 0 .6-.2.9-.6.3-.4 1.5-1.3 1.8-1.5.3-.2.5-.3 1.1 0 .6.3 1.1.5 1.7.4.6-.1 1.4-.4 1.4-.4s.6-.1.7-1c.1-.9.3-1.8.8-2.3.5-.5 1.6-1.3 1.7-1.4.1-.1.9-.9 2-1 1.1-.1 1.4 0 1.6.2.2.2.6.2.8 0 .2-.2 1-.8 1.4-.8.4 0 .6-.3.7-.5.1-.2.2-1.2.7-1.3.5-.1 1.5-.4 2.2.1.7.5 5 3.7 5 3.7s.9.8 2 .3 1.6 0 1.6 0 1 .6 1.9 1l.4.2c.3.1.5.2.7.2.6.1 4.7.5 4.7.5s1.2 0 2.6 1.1c1.4 1.1.7 1 2.2 1.6 1.5.5 2.6.8 3.1 1.2.5.3 1.3.4 1.7.1.4-.3.9-1.1 1.8-.6.9.6 2.1 1.2 2.1 1.2s.7.4 1.4.1c.7-.3 1.2 0 1.2 0 .1.1 1 0 1.3 0 .3 0 1 .3 1.4.2.4-.1 1.6-.4 1.8-.4.2-.1.5-.3.9.1.4.5.8.4 1.1.4.3 0 1.8-.1 1.9 1.1.1 1.2 0 1.3.7 1.3s1-.4 1 .2v.2c0 .9-.2.6.3 1.7s.9 2.2.9 2.2.5 1.3 1.4 1.1c.9-.1 1.9-.4 2.6-.2.7.2 2.2.5 2.2.5s.4 0 .4.8 0 1.5.9 1.5c.9.1.9.4.8.7-.1.3-.3.7.1 1.2s.4.5.9.5c.4 0 .6-.1.5.3-.1.5 1.5-.7 1.5-.7s.7-.6 1.7-.2c1 .5 3.1.2 3.1.2h1.1c.5 0 .9-.5 1.8-.4.9.1.4-1 2.2-1.1 1.8-.1 2.3-1 3.1-.9 1 .1 1 .4 1.4.1 0 0 2.3-1.4 2.6-1.6.4-.2.8-.5.9-.5.2 0 1.1-1.1 1.1-1.1l1.1-1.3s.2-.2.4-.3c.1 0 .1 0 .2.1.3.2.5.5.3.9-.2.3-.9 1.2-.9 1.2s-.3.6.1 1 .7.5.4.9c-.3.4-.3.8-.6 1.1l-3.1 1.8s-.8.5.6.1c1.5-.4 3.5-1.1 3.5-1.1s.3-.2.2.3c0 .5-.3 2.2-.3 2.7.1.5.2.4.9.1.7-.2 2.3-1.2 2.3-1.2s.7-.5 1.1-.9c.3-.4 1.7-1.6 1.7-1.6s.1-.4.7-.3h.1c.2.1.5.1.7.2.5.2.9.4.5.7-.6.4-.3.7.4.7h1.3s.5.1.8.3c.3.2.7.2.8-.2.1-.4.2-1.9.7-2.5.5-.6 1.5-2.1 1.5-2.1s.3-.5.8-.4c.1 0 .3 0 .5-.1.7-.1 1.7-.4 1.9-.4.3 0 4.6.1 5.2.2.5.1.8.1 1.2.5.4.4 1.3.9 2 .9s1.2.7 2.2.5c.9-.2.7.1.8.5 0 .4-.1 1.2.8.6.7-.4.7-.8.7-.8s.4.1.7-.1c.3-.1.7-.5.7-.8 0-.3.1-1 .2-1.2 0-.2 0-.7-.3-1.1-.2-.2-.4-.5-.5-.8-.1-.2-.1-.5.1-.6 0 0 .1-.1.2-.1.4-.2.9-.1 1.1-.1.2 0 .7-.5.7-.5s.1-.2.4-.2c.1 0 .3.1.5.3.6.6 2.1 1.8 3.4 1.7 1.2-.1 3.2-.9 3.2-.9s.3 0 .5-.2.2-.7.4-.4c.2.3-.1.9-.1 1.3s-.2 1.5-.1 1.9c.1.3 1.1.7 1.5.5.4-.3.8-.9.8-.9s.2-.3.7 0c.4.3 2 1.2 2 1.2h.3c.1 0 .2-.1.1-.3 0-.4.5-.4.5-.4l1.4-.2s1 .4.6.8-1 1.1-.3 1.7c.8.5 1.3 0 1.6-.1.3-.1 1 0 1 0l-.3-3.6s-.2-4.9.4-7.1c1.2-1.3 1.6-2.8 1.5-4.3z"/><path class="st2" d="M53.1 77.5s-.4-.2-.6-1.9c-.1-1.7-.1-2.2-.1-2.2s.1-.7-.5-1.4c0 0-.4-1.4-.1-2 .3-.6 1.2-1.6 1.2-1.6s.7-.3-.9-1.7c0 0-1.8-2.2-2.6-2.1 0 0-3.8 0-6.3-1.9L40 61s-1.6-.9-1.7-.8c-.2 0-.5-.3-.7-.6-.2-.2-1.6-2.4-2.3-3.4l-.4-.6s-.1-1.2-1.4-1.7c0 0-.7-.3-1.8-2.1-.6-1-.8-1.1-.8-1.3 0-.2.1-.4.2-1.2 0 0 .4-.8-.7-2.1-1.2-1.2-1.4-1.8-1.4-2.6s-.5-4.9-.8-5.1c0 0-1.7-.5-2.4-1.6 0 0-.6-3-1.5-2.6l-1.2.6c-.4.3-.8 0-1.5-.1s-1.7-.3-2.4.4l-1.7 1.4s-.2.6-1.1-.1c-.8-.8-.8-.8-1.2-.8-.4 0-1.3-1.6-2-1.6-.2 0-.4 0-.5-.1-.4-.1-.6-.4-.9-.8-.4-.5-1.2-1.1-2.3-.8 0 0-.8 1-2 0 0 0-2.3.3-2 .6 0 0-.1 0-.4-.1-.2-.1-.4-.4-.7-.8 0 0-2.3-.6-2.1-1.7 0 0-.4-1.7-1.2-2.8V123c.6-.1 1-.3 1.1-.3 0 0 3.1-.4 3.5-.4.5 0 3.5.2 3.9-.4 0 0 2.2-2.1 3.3-2H14c.3 0 .6-.1.7-.2 0 0 .3-.4.7 0 0 0 1 .8 1 1 0 0 .4.4.9 0l4.3-2.4s.5-.2.4-1.8c0 0 0-1.2 1.5-2.4 0 0 .5-.1-.1-1.4 0 0-.2-.3.2-1.3 0 0 .5-1.7 1.3-2.6l.3-.3 4-2.6s1-.4 1.5-.1c.5.3.5-.2.8-.5.3-.3.1-.8 2.4-1.1 0 0 1.1 0 1.9-.8 0 0 1.2-.7 1.6-.6.4.1.4-.2.8-.6.4-.3 2.2-2.9 2.3-3.2.1-.4.4-1 .4-1s-.2-.5.6-.5c0 0 .7.3 2.3-.1 1.5-.4 2.4-.4 2.4-.4s0 .1 1.1-.7c1.1-.9 1.5-1.5 2.2-2.1.6-.6 1.5-1.2 1.5-2 0-.5-.2-1.4 0-2 .1-.2.2-.4.4-.6.7-.4 1.7-1.2 1.8-2.8.1-1.6-.4-2.5-.7-3.1-.3-.6-.5-.8.4-1.9.9-1.1.3-2.7.4-3.1-.2-.4 1.2-.1-.2-1.2z"/><path id="frame_1_" d="M1 233h283V1H1v232z" fill="none" stroke="#b7cedf" stroke-width="2"/></g></svg>