<svg width="32" height="32" viewBox="0 0 32 32" fill="none" xmlns="http://www.w3.org/2000/svg">
    <g clip-path="url(#clip0_109_1498)">
        <path
            d="M16 32C24.5604 32 31.5 25.0604 31.5 16.5C31.5 7.93959 24.5604 1 16 1C7.43959 1 0.5 7.93959 0.5 16.5C0.5 25.0604 7.43959 32 16 32Z"
            fill="white" />
        <path fill-rule="evenodd" clip-rule="evenodd"
            d="M32 16.098C32 7.208 24.837 0 16 0C7.163 0 0 7.207 0 16.098C0 24.133 5.851 30.792 13.5 32V20.751H9.437V16.098H13.5V12.55C13.5 8.516 15.889 6.287 19.543 6.287C21.294 6.287 23.125 6.602 23.125 6.602V10.563H21.107C19.12 10.563 18.5 11.804 18.5 13.077V16.097H22.938L22.228 20.75H18.5V32C26.149 30.792 32 24.133 32 16.098Z"
            fill="#1877F2" />
    </g>
    <defs>
        <clipPath id="clip0_109_1498">
            <rect width="32" height="32" fill="white" />
        </clipPath>
    </defs>
</svg>