<svg width="32" height="32" viewBox="0 0 32 32" fill="none" xmlns="http://www.w3.org/2000/svg">
<g clip-path="url(#clip0_109_1503)">
<path d="M16 32C24.8366 32 32 24.8366 32 16C32 7.16344 24.8366 0 16 0C7.16344 0 0 7.16344 0 16C0 24.8366 7.16344 32 16 32Z" fill="#D05BCD"/>
<path fill-rule="evenodd" clip-rule="evenodd" d="M15.0343 8.17398H16.9063C17.6899 8.16792 18.4736 8.18392 19.2563 8.22198C20.1053 8.26198 20.6843 8.39798 21.1913 8.59798C21.7247 8.80217 22.2067 9.12101 22.6033 9.53198C23.0463 9.98198 23.3183 10.434 23.5233 10.967C23.7193 11.482 23.8533 12.071 23.8933 12.933C23.9283 13.725 23.9393 14.023 23.9403 15.762V16.784C23.9393 18.523 23.9283 18.821 23.8923 19.613C23.8543 20.475 23.7193 21.063 23.5223 21.579C23.3228 22.1178 23.0089 22.607 22.6023 23.013C22.2064 23.4243 21.7246 23.7432 21.1913 23.947C20.6843 24.147 20.1053 24.285 19.2563 24.324C18.5133 24.359 18.2123 24.37 16.6983 24.372H15.2423C13.7293 24.37 13.4283 24.359 12.6843 24.324C11.8363 24.284 11.2563 24.148 10.7493 23.947C10.2162 23.7427 9.73455 23.4239 9.3383 23.013C8.93169 22.607 8.61783 22.1178 8.4183 21.579C8.2213 21.063 8.0873 20.475 8.0483 19.613C8.01082 18.8172 7.99515 18.0206 8.0013 17.224V15.322C8.0043 13.965 8.0163 13.653 8.0483 12.933C8.0873 12.071 8.2213 11.483 8.4183 10.967C8.61802 10.428 8.93185 9.93846 9.3383 9.53198C9.73461 9.12113 10.2163 8.8023 10.7493 8.59798C11.2563 8.39798 11.8363 8.26098 12.6843 8.22198C13.467 8.18392 14.2507 8.16792 15.0343 8.17398H16.9063H15.0343ZM16.7133 9.63298H15.2283C13.7663 9.63498 13.4803 9.64598 12.7503 9.67998C11.9723 9.71598 11.5503 9.84798 11.2703 9.95898C10.923 10.0892 10.6096 10.296 10.3533 10.564C10.0878 10.8265 9.88418 11.1449 9.7573 11.496C9.6473 11.781 9.5183 12.21 9.4833 13C9.44643 13.7791 9.43109 14.559 9.4373 15.339V17.207C9.43122 17.9869 9.44656 18.7669 9.4833 19.546C9.5183 20.336 9.6483 20.765 9.7573 21.05C9.88401 21.4009 10.0877 21.719 10.3533 21.981C10.6333 22.265 10.8983 22.441 11.2703 22.587C11.5503 22.698 11.9723 22.83 12.7503 22.867C13.5173 22.902 13.7943 22.912 15.4563 22.913H16.4853C18.1473 22.912 18.4243 22.902 19.1913 22.866C19.9683 22.83 20.3903 22.698 20.6713 22.587C21.0184 22.4566 21.3315 22.2494 21.5873 21.981C21.8527 21.7188 22.0563 21.4007 22.1833 21.05C22.2933 20.765 22.4233 20.336 22.4583 19.546C22.4933 18.763 22.5033 18.483 22.5043 16.776V15.77C22.5033 14.063 22.4933 13.783 22.4583 13C22.4233 12.21 22.2933 11.781 22.1833 11.496C22.0564 11.1449 21.8528 10.8265 21.5873 10.564C21.3312 10.2961 21.0182 10.0894 20.6713 9.95898C20.3903 9.84798 19.9683 9.71598 19.1913 9.67898C18.4603 9.64598 18.1743 9.63498 16.7133 9.63298ZM15.9703 12.113C18.2303 12.113 20.0633 13.976 20.0633 16.273C20.0633 18.57 18.2313 20.433 15.9703 20.433C13.7103 20.433 11.8773 18.57 11.8773 16.273C11.8773 13.976 13.7103 12.113 15.9703 12.113ZM15.9703 13.573C14.5033 13.573 13.3143 14.782 13.3143 16.273C13.3143 17.764 14.5033 18.973 15.9703 18.973C17.4373 18.973 18.6273 17.764 18.6273 16.273C18.6273 14.782 17.4373 13.573 15.9703 13.573ZM20.2253 10.977C20.7533 10.977 21.1813 11.412 21.1813 11.949C21.1824 12.0756 21.1585 12.2011 21.111 12.3185C21.0635 12.4359 20.9934 12.5427 20.9046 12.633C20.8158 12.7232 20.7102 12.7951 20.5936 12.8445C20.477 12.894 20.3519 12.9199 20.2253 12.921C20.0986 12.9201 19.9734 12.8942 19.8567 12.8448C19.74 12.7955 19.6342 12.7236 19.5453 12.6333C19.4565 12.5431 19.3862 12.4362 19.3387 12.3187C19.2912 12.2013 19.2672 12.0757 19.2683 11.949C19.2683 11.412 19.6973 10.977 20.2253 10.977Z" fill="white"/>
</g>
<defs>
<clipPath id="clip0_109_1503">
<rect width="32" height="32" fill="white"/>
</clipPath>
</defs>
</svg>
