<svg width="26" height="25" viewBox="0 0 26 25" fill="none" xmlns="http://www.w3.org/2000/svg">
<path d="M13 12.0773C11.2125 12.0773 9.75 11.5137 8.6125 10.3865C7.475 9.25926 6.90625 7.80999 6.90625 6.03865C6.90625 4.26731 7.475 2.81804 8.6125 1.69082C9.75 0.563607 11.2125 0 13 0C14.7875 0 16.25 0.563607 17.3875 1.69082C18.525 2.81804 19.0938 4.26731 19.0938 6.03865C19.0938 7.80999 18.525 9.25926 17.3875 10.3865C16.25 11.5137 14.7875 12.0773 13 12.0773ZM0 25V21.2158C0 20.1959 0.257292 19.3237 0.771875 18.599C1.28646 17.8744 1.95 17.3242 2.7625 16.9485C4.57708 16.1433 6.31719 15.5395 7.98281 15.1369C9.64844 14.7343 11.3208 14.533 13 14.533C14.6792 14.533 16.3448 14.741 17.9969 15.157C19.649 15.573 21.3823 16.1702 23.1969 16.9485C24.0365 17.3242 24.7135 17.8744 25.2281 18.599C25.7427 19.3237 26 20.1959 26 21.2158V25H0ZM2.4375 22.5845H23.5625V21.2158C23.5625 20.7864 23.4339 20.3771 23.1766 19.9879C22.9193 19.5988 22.601 19.3103 22.2219 19.1224C20.4885 18.2904 18.9042 17.7201 17.4688 17.4114C16.0333 17.1028 14.5437 16.9485 13 16.9485C11.4563 16.9485 9.95313 17.1028 8.49063 17.4114C7.02813 17.7201 5.44375 18.2904 3.7375 19.1224C3.35833 19.3103 3.04687 19.5988 2.80312 19.9879C2.55937 20.3771 2.4375 20.7864 2.4375 21.2158V22.5845ZM13 9.66184C14.0562 9.66184 14.9297 9.31965 15.6203 8.63527C16.3109 7.95089 16.6562 7.08535 16.6562 6.03865C16.6562 4.99195 16.3109 4.12641 15.6203 3.44203C14.9297 2.75765 14.0562 2.41546 13 2.41546C11.9438 2.41546 11.0703 2.75765 10.3797 3.44203C9.68906 4.12641 9.34375 4.99195 9.34375 6.03865C9.34375 7.08535 9.68906 7.95089 10.3797 8.63527C11.0703 9.31965 11.9438 9.66184 13 9.66184Z" fill="white"/>
</svg>
