<svg width="306" height="119" viewBox="0 0 306 119" fill="none" xmlns="http://www.w3.org/2000/svg">
<path d="M306 111.742V7.22287C306 5.30725 305.158 3.47007 303.658 2.11552C302.159 0.760971 300.126 0 298.005 0H7.97607C5.85895 0.00450043 3.83025 0.767458 2.33499 2.12152C0.839725 3.47558 -5.86051e-06 5.31019 0 7.22287V111.742C0.000499412 113.613 0.805969 115.411 2.24628 116.755C3.6866 118.1 5.64899 118.886 7.71898 118.948C7.71898 118.422 7.9502 117.918 8.36178 117.546C8.77336 117.174 9.33159 116.965 9.91365 116.965C10.4957 116.965 11.0539 117.174 11.4655 117.546C11.8771 117.918 12.1083 118.422 12.1083 118.948H14.2905C14.2905 118.688 14.3472 118.43 14.4575 118.189C14.5678 117.949 14.7295 117.73 14.9333 117.546C15.137 117.362 15.379 117.216 15.6453 117.116C15.9115 117.016 16.1969 116.965 16.4851 116.965C16.7733 116.965 17.0587 117.016 17.325 117.116C17.5913 117.216 17.8332 117.362 18.037 117.546C18.2408 117.73 18.4024 117.949 18.5127 118.189C18.623 118.43 18.6798 118.688 18.6798 118.948H20.8682C20.8682 118.422 21.0994 117.918 21.511 117.546C21.9226 117.174 22.4808 116.965 23.0629 116.965C23.6449 116.965 24.2032 117.174 24.6147 117.546C25.0263 117.918 25.2575 118.422 25.2575 118.948H27.4397C27.4397 118.422 27.6709 117.918 28.0825 117.546C28.4941 117.174 29.0523 116.965 29.6343 116.965C30.2164 116.965 30.7746 117.174 31.1862 117.546C31.5978 117.918 31.829 118.422 31.829 118.948H34.0111C34.0111 118.422 34.2424 117.918 34.654 117.546C35.0655 117.174 35.6238 116.965 36.2058 116.965C36.7879 116.965 37.3461 117.174 37.7577 117.546C38.1693 117.918 38.4005 118.422 38.4005 118.948H40.5889C40.5889 118.422 40.8201 117.918 41.2317 117.546C41.6433 117.174 42.2015 116.965 42.7836 116.965C43.3656 116.965 43.9239 117.174 44.3354 117.546C44.747 117.918 44.9782 118.422 44.9782 118.948H47.1604C47.1604 118.422 47.3916 117.918 47.8032 117.546C48.2148 117.174 48.773 116.965 49.355 116.965C49.9371 116.965 50.4953 117.174 50.9069 117.546C51.3185 117.918 51.5497 118.422 51.5497 118.948H53.7318C53.7318 118.422 53.9631 117.918 54.3747 117.546C54.7862 117.174 55.3445 116.965 55.9265 116.965C56.5086 116.965 57.0668 117.174 57.4784 117.546C57.89 117.918 58.1212 118.422 58.1212 118.948H60.3096C60.3096 118.422 60.5408 117.918 60.9524 117.546C61.364 117.174 61.9222 116.965 62.5043 116.965C63.0863 116.965 63.6446 117.174 64.0561 117.546C64.4677 117.918 64.6989 118.422 64.6989 118.948H66.8811C66.8811 118.422 67.1123 117.918 67.5239 117.546C67.9354 117.174 68.4937 116.965 69.0757 116.965C69.6578 116.965 70.216 117.174 70.6276 117.546C71.0392 117.918 71.2704 118.422 71.2704 118.948H73.4588C73.4588 118.422 73.69 117.918 74.1016 117.546C74.5132 117.174 75.0714 116.965 75.6535 116.965C76.2355 116.965 76.7938 117.174 77.2054 117.546C77.6169 117.918 77.8482 118.422 77.8482 118.948H80.0303C80.0303 118.422 80.2615 117.918 80.6731 117.546C81.0847 117.174 81.6429 116.965 82.225 116.965C82.807 116.965 83.3652 117.174 83.7768 117.546C84.1884 117.918 84.4196 118.422 84.4196 118.948H86.6018C86.6018 118.422 86.833 117.918 87.2446 117.546C87.6562 117.174 88.2144 116.965 88.7964 116.965C89.3785 116.965 89.9367 117.174 90.3483 117.546C90.7599 117.918 90.9911 118.422 90.9911 118.948H93.1795C93.1795 118.422 93.4107 117.918 93.8223 117.546C94.2339 117.174 94.7921 116.965 95.3742 116.965C95.9563 116.965 96.5145 117.174 96.9261 117.546C97.3376 117.918 97.5689 118.422 97.5689 118.948H99.751C99.751 118.422 99.9822 117.918 100.394 117.546C100.805 117.174 101.364 116.965 101.946 116.965C102.528 116.965 103.086 117.174 103.498 117.546C103.909 117.918 104.14 118.422 104.14 118.948H106.322C106.322 118.422 106.554 117.918 106.965 117.546C107.377 117.174 107.935 116.965 108.517 116.965C109.099 116.965 109.657 117.174 110.069 117.546C110.481 117.918 110.712 118.422 110.712 118.948H112.869C112.869 118.422 113.1 117.918 113.512 117.546C113.923 117.174 114.481 116.965 115.064 116.965C115.646 116.965 116.204 117.174 116.615 117.546C117.027 117.918 117.258 118.422 117.258 118.948H119.44C119.44 118.422 119.672 117.918 120.083 117.546C120.495 117.174 121.053 116.965 121.635 116.965C122.217 116.965 122.775 117.174 123.187 117.546C123.598 117.918 123.83 118.422 123.83 118.948H126.037C126.037 118.422 126.268 117.918 126.68 117.546C127.091 117.174 127.649 116.965 128.232 116.965C128.814 116.965 129.372 117.174 129.783 117.546C130.195 117.918 130.426 118.422 130.426 118.948H132.615C132.615 118.422 132.846 117.918 133.257 117.546C133.669 117.174 134.227 116.965 134.809 116.965C135.391 116.965 135.95 117.174 136.361 117.546C136.773 117.918 137.004 118.422 137.004 118.948H139.205C139.205 118.422 139.436 117.918 139.848 117.546C140.259 117.174 140.818 116.965 141.4 116.965C141.982 116.965 142.54 117.174 142.951 117.546C143.363 117.918 143.594 118.422 143.594 118.948H145.776C145.776 118.422 146.008 117.918 146.419 117.546C146.831 117.174 147.389 116.965 147.971 116.965C148.553 116.965 149.111 117.174 149.523 117.546C149.935 117.918 150.166 118.422 150.166 118.948H152.354C152.354 118.422 152.585 117.918 152.997 117.546C153.409 117.174 153.967 116.965 154.549 116.965C155.131 116.965 155.689 117.174 156.101 117.546C156.512 117.918 156.743 118.422 156.743 118.948H158.926C158.926 118.422 159.157 117.918 159.568 117.546C159.98 117.174 160.538 116.965 161.12 116.965C161.702 116.965 162.261 117.174 162.672 117.546C163.084 117.918 163.315 118.422 163.315 118.948H165.497C165.497 118.422 165.728 117.918 166.14 117.546C166.551 117.174 167.11 116.965 167.692 116.965C168.274 116.965 168.832 117.174 169.244 117.546C169.655 117.918 169.886 118.422 169.886 118.948H172.075C172.075 118.422 172.306 117.918 172.718 117.546C173.129 117.174 173.687 116.965 174.27 116.965C174.852 116.965 175.41 117.174 175.821 117.546C176.233 117.918 176.464 118.422 176.464 118.948H178.646C178.646 118.422 178.878 117.918 179.289 117.546C179.701 117.174 180.259 116.965 180.841 116.965C181.423 116.965 181.981 117.174 182.393 117.546C182.804 117.918 183.036 118.422 183.036 118.948H185.224C185.224 118.422 185.455 117.918 185.867 117.546C186.278 117.174 186.837 116.965 187.419 116.965C188.001 116.965 188.559 117.174 188.971 117.546C189.382 117.918 189.613 118.422 189.613 118.948H191.796C191.796 118.422 192.027 117.918 192.438 117.546C192.85 117.174 193.408 116.965 193.99 116.965C194.572 116.965 195.131 117.174 195.542 117.546C195.954 117.918 196.185 118.422 196.185 118.948H198.367C198.367 118.422 198.598 117.918 199.01 117.546C199.421 117.174 199.98 116.965 200.562 116.965C201.144 116.965 201.702 117.174 202.114 117.546C202.525 117.918 202.756 118.422 202.756 118.948H204.945C204.945 118.422 205.176 117.918 205.588 117.546C205.999 117.174 206.557 116.965 207.139 116.965C207.721 116.965 208.28 117.174 208.691 117.546C209.103 117.918 209.334 118.422 209.334 118.948H211.516C211.516 118.422 211.747 117.918 212.159 117.546C212.571 117.174 213.129 116.965 213.711 116.965C214.293 116.965 214.851 117.174 215.263 117.546C215.674 117.918 215.906 118.422 215.906 118.948H218.088C218.088 118.422 218.319 117.918 218.731 117.546C219.142 117.174 219.7 116.965 220.282 116.965C220.864 116.965 221.423 117.174 221.834 117.546C222.246 117.918 222.477 118.422 222.477 118.948H224.665C224.665 118.422 224.897 117.918 225.308 117.546C225.72 117.174 226.278 116.965 226.86 116.965C227.442 116.965 228 117.174 228.412 117.546C228.824 117.918 229.055 118.422 229.055 118.948H231.237C231.237 118.422 231.468 117.918 231.88 117.546C232.291 117.174 232.85 116.965 233.432 116.965C234.014 116.965 234.572 117.174 234.983 117.546C235.395 117.918 235.626 118.422 235.626 118.948H237.808C237.808 118.422 238.04 117.918 238.451 117.546C238.863 117.174 239.421 116.965 240.003 116.965C240.585 116.965 241.143 117.174 241.555 117.546C241.967 117.918 242.198 118.422 242.198 118.948H244.386C244.386 118.422 244.617 117.918 245.029 117.546C245.441 117.174 245.999 116.965 246.581 116.965C247.163 116.965 247.721 117.174 248.133 117.546C248.544 117.918 248.775 118.422 248.775 118.948H250.958C250.958 118.422 251.189 117.918 251.6 117.546C252.012 117.174 252.57 116.965 253.152 116.965C253.734 116.965 254.293 117.174 254.704 117.546C255.116 117.918 255.347 118.422 255.347 118.948H257.529C257.529 118.422 257.76 117.918 258.172 117.546C258.583 117.174 259.142 116.965 259.724 116.965C260.306 116.965 260.864 117.174 261.276 117.546C261.687 117.918 261.918 118.422 261.918 118.948H264.107C264.107 118.422 264.338 117.918 264.75 117.546C265.161 117.174 265.719 116.965 266.302 116.965C266.884 116.965 267.442 117.174 267.853 117.546C268.265 117.918 268.496 118.422 268.496 118.948H270.678C270.678 118.422 270.91 117.918 271.321 117.546C271.733 117.174 272.291 116.965 272.873 116.965C273.455 116.965 274.013 117.174 274.425 117.546C274.836 117.918 275.068 118.422 275.068 118.948H277.25C277.25 118.422 277.481 117.918 277.893 117.546C278.304 117.174 278.862 116.965 279.444 116.965C280.027 116.965 280.585 117.174 280.996 117.546C281.408 117.918 281.639 118.422 281.639 118.948H283.828C283.828 118.422 284.059 117.918 284.47 117.546C284.882 117.174 285.44 116.965 286.022 116.965C286.604 116.965 287.163 117.174 287.574 117.546C287.986 117.918 288.217 118.422 288.217 118.948H290.399C290.399 118.422 290.63 117.918 291.042 117.546C291.453 117.174 292.012 116.965 292.594 116.965C293.176 116.965 293.734 117.174 294.146 117.546C294.557 117.918 294.788 118.422 294.788 118.948H296.971C296.968 118.476 297.153 118.02 297.491 117.66C297.829 117.301 298.298 117.062 298.813 116.988C299.328 116.913 299.856 117.008 300.302 117.254C300.747 117.5 301.08 117.882 301.241 118.33C302.654 117.765 303.855 116.842 304.699 115.672C305.544 114.503 305.996 113.138 306 111.742V111.742Z" fill="#192129"/>
<path d="M18.92 40.1444H21.92L24.04 32.4444C24.48 30.9044 24.9 29.2044 25.3 27.6044H25.38C25.8 29.1844 26.22 30.9044 26.66 32.4444L28.78 40.1444H31.88L27.14 25.3444H23.66L18.92 40.1444ZM21.86 36.3444H28.9V34.0644H21.86V36.3444ZM32.6325 40.1444H35.4325V34.2244C35.4325 32.5044 35.1925 30.6444 35.0525 29.0644H35.1525L36.6525 32.2244L40.9325 40.1444H43.9525V25.3444H41.1325V31.2444C41.1325 32.9244 41.3725 34.9044 41.5325 36.4444H41.4325L39.9325 33.2444L35.6325 25.3444H32.6325V40.1444ZM44.713 40.1444H47.713L49.833 32.4444C50.273 30.9044 50.693 29.2044 51.093 27.6044H51.173C51.593 29.1844 52.013 30.9044 52.453 32.4444L54.573 40.1444H57.673L52.933 25.3444H49.453L44.713 40.1444ZM47.653 36.3444H54.693V34.0644H47.653V36.3444ZM66.1567 23.9444C63.3367 23.9444 61.2167 25.7044 61.2167 28.1844C61.2167 30.6444 63.3367 32.4044 66.1567 32.4044C68.9767 32.4044 71.0967 30.6444 71.0967 28.1844C71.0967 25.7044 68.9767 23.9444 66.1567 23.9444ZM66.1567 26.1044C67.5167 26.1044 68.5167 26.8644 68.5167 28.1844C68.5167 29.5044 67.5167 30.2644 66.1567 30.2644C64.7967 30.2644 63.7767 29.5044 63.7767 28.1844C63.7767 26.8644 64.7967 26.1044 66.1567 26.1044ZM73.6567 23.4044V32.6644H76.3367V23.4044H73.6567ZM63.9767 33.4244V35.4844H73.6967V36.5844H64.0167V40.7444H66.6167V38.5044H76.3367V33.4244H63.9767ZM64.0167 39.6644V41.7244H76.7967V39.6644H64.0167ZM80.4752 24.0844V31.6244H92.9552V24.0844H90.3152V25.8844H83.0952V24.0844H80.4752ZM83.0952 27.9244H90.3152V29.5244H83.0952V27.9244ZM78.3352 33.1844V35.3044H95.0752V33.1844H78.3352ZM85.3552 30.5044V34.0644H88.0152V30.5044H85.3552ZM80.3552 39.4844V41.6044H93.1952V39.4844H80.3552ZM80.3552 36.3844V40.2644H83.0152V36.3844H80.3552ZM102.399 24.1844V26.3044H114.139V24.1844H102.399ZM100.359 30.5844V32.7044H117.119V30.5844H100.359ZM107.379 32.0844V35.9644H110.039V32.0844H107.379ZM112.539 24.1844V25.6644C112.539 27.2244 112.539 28.9244 111.959 31.3044L114.579 31.5644C115.159 29.1244 115.159 27.2644 115.159 25.6644V24.1844H112.539ZM102.039 35.3044V37.4044H112.519V41.9244H115.179V35.3044H102.039ZM131.058 23.4044V41.9244H133.598V23.4044H131.058ZM128.638 30.5444V32.6644H131.718V30.5444H128.638ZM126.918 23.7244V41.0444H129.398V23.7244H126.918ZM118.458 25.4444V36.1444H121.118V25.4444H118.458ZM118.458 35.1444V37.4244H119.738C121.618 37.4244 123.738 37.3244 126.158 36.8844L125.898 34.6044C123.598 35.0444 121.518 35.1444 119.738 35.1444H118.458ZM144.596 27.3444V29.4844H148.896V27.3444H144.596ZM139.376 24.5444V26.5444C139.376 29.1644 138.096 31.7244 135.036 32.7444L136.436 34.8244C139.936 33.5444 141.516 30.3244 141.516 26.5444V24.5444H139.376ZM139.956 24.5444V26.5644C139.956 30.0644 141.476 33.1644 144.796 34.3644L146.216 32.3244C143.296 31.3244 142.076 28.9444 142.076 26.5644V24.5444H139.956ZM147.976 23.4244V37.0844H150.636V23.4244H147.976ZM138.376 39.4844V41.6044H151.036V39.4844H138.376ZM138.376 35.7044V40.6644H141.056V35.7044H138.376ZM19.78 55.0244V57.1244H36.54V55.0244H19.78ZM21.66 58.3044V60.4044H31.84V63.9244H34.5V58.3044H21.66ZM21.86 51.8844V53.9044H34.76V51.8844H21.86ZM21.86 45.8244V52.9044H24.5V47.8444H34.62V45.8244H21.86ZM23.76 48.8644V50.8044H34.2V48.8644H23.76ZM49.0384 45.3844V63.9044H51.7184V45.3844H49.0384ZM51.0184 52.4644V54.6444H54.2784V52.4644H51.0184ZM44.1784 47.3044V47.7644C44.1784 52.7844 41.8784 56.1844 37.0184 58.7044L38.4984 60.7244C44.6584 57.6244 46.7784 52.8644 46.7784 47.3044H44.1784ZM38.0384 47.3044V49.4444H45.5384V47.3044H38.0384ZM70.0481 45.4044V57.1444H72.7081V45.4044H70.0481ZM71.9681 50.1244V52.3044H75.1681V50.1244H71.9681ZM66.6881 57.3444C62.8681 57.3444 60.4681 58.5644 60.4681 60.6444C60.4681 62.7044 62.8681 63.9244 66.6881 63.9244C70.5081 63.9244 72.9081 62.7044 72.9081 60.6444C72.9081 58.5644 70.5081 57.3444 66.6881 57.3444ZM66.6881 59.3444C69.0281 59.3444 70.2681 59.7644 70.2681 60.6444C70.2681 61.5244 69.0281 61.9444 66.6881 61.9444C64.3481 61.9444 63.1081 61.5244 63.1081 60.6444C63.1081 59.7644 64.3481 59.3444 66.6881 59.3444ZM58.1281 47.1644V49.2244H69.0281V47.1644H58.1281ZM63.5881 49.8444C60.8881 49.8444 59.0281 51.1844 59.0281 53.1644C59.0281 55.1644 60.8881 56.4844 63.5881 56.4844C66.2681 56.4844 68.1281 55.1644 68.1281 53.1644C68.1281 51.1844 66.2681 49.8444 63.5881 49.8444ZM63.5881 51.7844C64.7681 51.7844 65.5881 52.2644 65.5881 53.1644C65.5881 54.0644 64.7681 54.5444 63.5881 54.5444C62.3881 54.5444 61.5881 54.0644 61.5881 53.1644C61.5881 52.2644 62.3881 51.7844 63.5881 51.7844ZM62.2481 45.2844V48.2644H64.9081V45.2844H62.2481ZM83.8066 56.9244C79.8066 56.9244 77.2466 58.2444 77.2466 60.4444C77.2466 62.6044 79.8066 63.9244 83.8066 63.9244C87.8066 63.9244 90.3666 62.6044 90.3666 60.4444C90.3666 58.2444 87.8066 56.9244 83.8066 56.9244ZM83.8066 58.9244C86.3066 58.9244 87.7266 59.4444 87.7266 60.4444C87.7266 61.4244 86.3066 61.9244 83.8066 61.9244C81.3066 61.9244 79.8866 61.4244 79.8866 60.4444C79.8866 59.4444 81.3066 58.9244 83.8066 58.9244ZM77.4466 46.2244V48.3244H89.1666V46.2244H77.4466ZM75.5666 53.6644V55.7844H92.2466V53.6644H75.5666ZM81.7466 50.4444V54.2044H84.3866V50.4444H81.7466ZM87.6266 46.2244V47.7444C87.6266 49.1844 87.6266 50.5244 87.1266 52.4244L89.7666 52.7044C90.2666 50.7844 90.2666 49.2044 90.2666 47.7444V46.2244H87.6266ZM97.665 54.0444V58.2044H100.305V54.0444H97.665ZM105.985 45.4044V59.3444H108.665V45.4044H105.985ZM95.325 61.4844V63.6044H109.065V61.4844H95.325ZM95.325 57.9644V62.0044H97.985V57.9644H95.325ZM93.125 54.5044C96.465 54.4844 100.865 54.3844 104.885 53.6644L104.705 51.7844C100.765 52.3244 96.185 52.3844 92.805 52.4044L93.125 54.5044ZM102.425 55.2844V57.3444H106.585V55.2844H102.425ZM94.485 46.3244V48.4244H102.345V46.3244H94.485ZM100.665 46.3244V46.9644C100.665 48.0044 100.665 49.8844 100.225 52.6244L102.825 52.8044C103.305 50.0444 103.305 48.0444 103.305 46.9644V46.3244H100.665ZM112.263 57.1044H114.183L114.603 49.7244L114.683 46.9444H111.743L111.823 49.7244L112.263 57.1044ZM113.203 62.4244C114.263 62.4244 115.043 61.6044 115.043 60.5044C115.043 59.4044 114.263 58.6044 113.203 58.6044C112.163 58.6044 111.383 59.4044 111.383 60.5044C111.383 61.6044 112.163 62.4244 113.203 62.4244Z" fill="white"/>
<path d="M267.755 52.9709L265.984 52.8422L263.761 49.9558L253.18 49.1867L256.184 61.3262L253.739 61.1485L246.394 48.6933L236.446 47.9702C235.856 47.9273 235.375 47.7277 235.005 47.3715C234.634 47.0154 234.476 46.6008 234.529 46.1278C234.583 45.6549 234.832 45.2699 235.276 44.973C235.721 44.676 236.238 44.549 236.828 44.5919L246.776 45.315L256.798 34.1223L259.243 34.3L253.563 45.8084L264.143 46.5775L266.978 44.0587L268.749 44.1874L266.692 48.4658L267.755 52.9709Z" fill="#F7EDED"/>
<path d="M57.6875 86.3028C62.7758 86.6474 160.512 67.6911 283.104 82.5281" stroke="#F0F0F0" stroke-width="2.5" stroke-linecap="round"/>
</svg>
