<svg width="335" height="189" viewBox="0 0 335 189" fill="none" xmlns="http://www.w3.org/2000/svg">
<path d="M313.092 55.7181C312.51 55.7204 311.95 55.3708 311.534 54.7462C311.119 54.1216 310.882 53.2733 310.876 52.3877L308.694 52.3962C308.7 53.2818 308.474 54.1319 308.067 54.7597C307.66 55.3875 307.104 55.7415 306.522 55.7438C305.94 55.746 305.379 55.3964 304.964 54.7718C304.548 54.1473 304.312 53.2989 304.306 52.4133L302.124 52.4218C302.13 53.3074 301.904 54.1576 301.497 54.7854C301.089 55.4131 300.534 55.7671 299.952 55.7694C299.37 55.7717 298.809 55.422 298.394 54.7975C297.978 54.1729 297.741 53.3245 297.735 52.439L295.547 52.4475C295.553 53.3331 295.328 54.1832 294.92 54.811C294.513 55.4388 293.957 55.7928 293.375 55.7951C292.793 55.7973 292.233 55.4477 291.817 54.8231C291.401 54.1985 291.165 53.3502 291.159 52.4646L288.977 52.4731C288.983 53.3587 288.757 54.2089 288.35 54.8366C287.943 55.4644 287.387 55.8184 286.805 55.8207C286.223 55.823 285.662 55.4733 285.247 54.8487C284.831 54.2242 284.594 53.3758 284.589 52.4902L282.407 52.4988C282.413 53.3843 282.187 54.2345 281.78 54.8623C281.372 55.4901 280.816 55.844 280.234 55.8463C279.653 55.8486 279.092 55.499 278.676 54.8744C278.261 54.2498 278.024 53.4014 278.018 52.5159L275.83 52.5244C275.836 53.41 275.611 54.2601 275.203 54.8879C274.796 55.5157 274.24 55.8697 273.658 55.872C273.076 55.8742 272.516 55.5246 272.1 54.9C271.684 54.2755 271.448 53.4271 271.442 52.5415L269.26 52.55C269.266 53.4356 269.04 54.2858 268.633 54.9136C268.225 55.5413 267.67 55.8953 267.088 55.8976C266.506 55.8999 265.945 55.5502 265.53 54.9257C265.114 54.3011 264.877 53.4527 264.872 52.5672L262.69 52.5757C262.696 53.4612 262.47 54.3114 262.063 54.9392C261.655 55.567 261.099 55.921 260.517 55.9232C259.935 55.9255 259.375 55.5759 258.959 54.9513C258.544 54.3267 258.307 53.4783 258.301 52.5928L256.113 52.6013C256.119 53.4869 255.893 54.337 255.486 54.9648C255.079 55.5926 254.523 55.9466 253.941 55.9489C253.359 55.9511 252.798 55.6015 252.383 54.9769C251.967 54.3524 251.731 53.504 251.725 52.6184L249.543 52.627C249.549 53.5125 249.323 54.3627 248.916 54.9905C248.508 55.6183 247.953 55.9722 247.371 55.9745C246.789 55.9768 246.228 55.6271 245.813 55.0026C245.397 54.378 245.16 53.5296 245.155 52.6441L242.973 52.6526C242.979 53.5381 242.753 54.3883 242.345 55.0161C241.938 55.6439 241.382 55.9979 240.8 56.0001C240.218 56.0024 239.658 55.6528 239.242 55.0282C238.827 54.4036 238.59 53.5553 238.584 52.6697L236.396 52.6782C236.402 53.5638 236.176 54.414 235.769 55.0417C235.362 55.6695 234.806 56.0235 234.224 56.0258C233.642 56.0281 233.081 55.6784 232.666 55.0539C232.25 54.4293 232.013 53.5809 232.008 52.6954L229.826 52.7039C229.832 53.5894 229.606 54.4396 229.199 55.0674C228.791 55.6952 228.235 56.0491 227.653 56.0514C227.072 56.0537 226.511 55.7041 226.096 55.0795C225.68 54.4549 225.443 53.6065 225.437 52.721L223.256 52.7295C223.261 53.615 223.036 54.4652 222.628 55.093C222.221 55.7208 221.665 56.0748 221.083 56.077C220.501 56.0793 219.941 55.7297 219.525 55.1051C219.11 54.4805 218.873 53.6322 218.867 52.7466L216.679 52.7551C216.685 53.6407 216.459 54.4909 216.052 55.1187C215.644 55.7464 215.089 56.1004 214.507 56.1027C213.925 56.105 213.364 55.7553 212.949 55.1308C212.533 54.5062 212.296 53.6578 212.291 52.7723L210.109 52.7808C210.115 53.6663 209.889 54.5165 209.482 55.1443C209.074 55.7721 208.518 56.1261 207.936 56.1283C207.354 56.1306 206.794 55.781 206.378 55.1564C205.963 54.5318 205.726 53.6834 205.72 52.7979L203.539 52.8064C203.544 53.692 203.319 54.5421 202.911 55.1699C202.504 55.7977 201.948 56.1517 201.366 56.154C200.784 56.1562 200.224 55.8066 199.808 55.182C199.393 54.5574 199.156 53.7091 199.15 52.8235L196.962 52.8321C196.968 53.7176 196.742 54.5678 196.335 55.1956C195.927 55.8234 195.372 56.1773 194.79 56.1796C194.208 56.1819 193.647 55.8323 193.232 55.2077C192.816 54.5831 192.579 53.7347 192.574 52.8492L190.392 52.8577C190.398 53.7432 190.172 54.5934 189.764 55.2212C189.357 55.849 188.801 56.203 188.219 56.2052C187.637 56.2075 187.077 55.8579 186.661 55.2333C186.246 54.6087 186.009 53.7604 186.003 52.8748L183.815 52.8833C183.821 53.7689 183.595 54.6191 183.188 55.2469C182.781 55.8746 182.225 56.2286 181.643 56.2309C181.061 56.2332 180.5 55.8835 180.085 55.259C179.669 54.6344 179.432 53.786 179.427 52.9005L177.245 52.909C177.251 53.7945 177.025 54.6447 176.618 55.2725C176.21 55.9003 175.654 56.2542 175.072 56.2565C174.491 56.2588 173.93 55.9092 173.515 55.2846C173.099 54.66 172.862 53.8116 172.856 52.9261L170.675 52.9346C170.68 53.8202 170.455 54.6703 170.047 55.2981C169.64 55.9259 169.084 56.2799 168.502 56.2821C167.92 56.2844 167.36 55.9348 166.944 55.3102C166.529 54.6856 166.292 53.8373 166.286 52.9517L164.098 52.9602C164.104 53.8458 163.878 54.696 163.471 55.3238C163.063 55.9515 162.508 56.3055 161.926 56.3078C161.344 56.3101 160.783 55.9604 160.368 55.3359C159.952 54.7113 159.715 53.8629 159.71 52.9774L157.559 52.9858C157.565 53.8713 157.339 54.7215 156.932 55.3493C156.525 55.9771 155.969 56.331 155.387 56.3333C154.805 56.3356 154.244 55.986 153.829 55.3614C153.413 54.7368 153.176 53.8884 153.171 53.0029L150.989 53.0114C150.995 53.8969 150.769 54.7471 150.362 55.3749C149.954 56.0027 149.398 56.3567 148.816 56.3589C148.235 56.3612 147.674 56.0116 147.258 55.387C146.843 54.7624 146.606 53.9141 146.6 53.0285L144.394 53.0371C144.399 53.9227 144.174 54.7728 143.766 55.4006C143.359 56.0284 142.803 56.3824 142.221 56.3847C141.639 56.3869 141.079 56.0373 140.663 55.4127C140.248 54.7882 140.011 53.9398 140.005 53.0542L137.811 53.0628C137.817 53.9483 137.591 54.7985 137.184 55.4263C136.776 56.0541 136.22 56.4081 135.638 56.4103C135.056 56.4126 134.496 56.063 134.08 55.4384C133.665 54.8138 133.428 53.9655 133.422 53.0799L131.228 53.0885C131.234 53.974 131.008 54.8242 130.601 55.452C130.193 56.0798 129.637 56.4338 129.055 56.436C128.474 56.4383 127.913 56.0887 127.498 55.4641C127.082 54.8395 126.845 53.9911 126.839 53.1056L124.651 53.1141C124.657 53.9997 124.432 54.8498 124.024 55.4776C123.617 56.1054 123.061 56.4594 122.479 56.4617C121.897 56.4639 121.337 56.1143 120.921 55.4897C120.505 54.8652 120.269 54.0168 120.263 53.1312L118.081 53.1397C118.087 54.0253 117.861 54.8755 117.454 55.5033C117.046 56.1311 116.491 56.485 115.909 56.4873C115.327 56.4896 114.766 56.1399 114.351 55.5154C113.935 54.8908 113.698 54.0424 113.693 53.1569L111.511 53.1654C111.517 54.0509 111.291 54.9011 110.884 55.5289C110.476 56.1567 109.92 56.5107 109.338 56.5129C108.756 56.5152 108.196 56.1656 107.78 55.541C107.365 54.9164 107.128 54.0681 107.122 53.1825L104.934 53.191C104.94 54.0766 104.714 54.9268 104.307 55.5545C103.9 56.1823 103.344 56.5363 102.762 56.5386C102.18 56.5409 101.619 56.1912 101.204 55.5666C100.788 54.9421 100.552 54.0937 100.546 53.2081L98.3766 53.2166C98.3824 54.1022 98.1567 54.9523 97.7493 55.5801C97.3419 56.2079 96.7861 56.5619 96.2041 56.5642C95.6222 56.5664 95.0618 56.2168 94.6462 55.5922C94.2306 54.9677 93.9938 54.1193 93.9881 53.2337L91.8063 53.2422C91.8121 54.1278 91.5865 54.978 91.1791 55.6058C90.7716 56.2335 90.2158 56.5875 89.6339 56.5898C89.0519 56.5921 88.4915 56.2424 88.0759 55.6179C87.6603 54.9933 87.4236 54.1449 87.4178 53.2594L85.2298 53.2679C85.2356 54.1534 85.0099 55.0036 84.6025 55.6314C84.1951 56.2592 83.6393 56.6132 83.0573 56.6154C82.4754 56.6177 81.9149 56.2681 81.4993 55.6435C81.0838 55.0189 80.847 54.1706 80.8413 53.285L78.6595 53.2935C78.6653 54.1791 78.4397 55.0292 78.0322 55.657C77.6248 56.2848 77.069 56.6388 76.487 56.6411C75.9051 56.6433 75.3447 56.2937 74.9291 55.6691C74.5135 55.0446 74.2768 54.1962 74.271 53.3106L72.083 53.3192C72.0888 54.2047 71.8631 55.0549 71.4557 55.6827C71.0483 56.3105 70.4925 56.6645 69.9105 56.6667C69.3285 56.669 68.7681 56.3194 68.3525 55.6948C67.9369 55.0702 67.7002 54.2219 67.6944 53.3363L65.5127 53.3448C65.5185 54.2304 65.2928 55.0805 64.8854 55.7083C64.478 56.3361 63.9222 56.6901 63.3402 56.6924C62.7583 56.6946 62.1979 56.345 61.7823 55.7204C61.3667 55.0958 61.1299 54.2475 61.1242 53.3619L58.9424 53.3704C58.9482 54.256 58.7226 55.1062 58.3152 55.7339C57.9077 56.3617 57.3519 56.7157 56.77 56.718C56.188 56.7203 55.6276 56.3706 55.212 55.7461C54.7964 55.1215 54.5597 54.2731 54.5539 53.3876L52.3659 53.3961C52.3717 54.2816 52.146 55.1318 51.7386 55.7596C51.3312 56.3874 50.7754 56.7414 50.1934 56.7436C49.6115 56.7459 49.051 56.3963 48.6354 55.7717C48.2198 55.1471 47.9831 54.2988 47.9773 53.4132L45.7956 53.4217C45.8014 54.3073 45.5758 55.1574 45.1683 55.7852C44.7609 56.413 44.2051 56.767 43.6231 56.7693C43.0412 56.7715 42.4808 56.4219 42.0652 55.7973C41.6496 55.1728 41.4129 54.3244 41.4071 53.4388L39.2253 53.4473C39.2311 54.3329 39.0055 55.1831 38.5981 55.8109C38.1907 56.4386 37.6348 56.7926 37.0529 56.7949C36.4709 56.7972 35.9105 56.4475 35.4949 55.823C35.0793 55.1984 34.8426 54.35 34.8368 53.4645L32.6488 53.473C32.6546 54.3586 32.4289 55.2087 32.0215 55.8365C31.6141 56.4643 31.0583 56.8183 30.4763 56.8206C29.8944 56.8228 29.334 56.4732 28.9184 55.8486C28.5028 55.224 28.266 54.3757 28.2603 53.4901L26.0785 53.4986C26.0843 54.3842 25.8587 55.2344 25.4513 55.8621C25.0438 56.4899 24.488 56.8439 23.9061 56.8462C23.3241 56.8485 22.7637 56.4988 22.3481 55.8742C21.9325 55.2497 21.6958 54.4013 21.69 53.5157C19.6212 53.6352 17.6698 54.9739 16.248 57.2492C14.8263 59.5245 14.0455 62.5581 14.0706 65.7093L14.4536 124.38C14.4747 127.606 15.3371 130.697 16.851 132.972C18.365 135.247 20.4065 136.521 22.5265 136.512L312.484 135.381C314.604 135.373 316.628 134.084 318.113 131.797C319.597 129.51 320.419 126.413 320.398 123.187L320.015 64.5158C319.998 62.1575 319.532 59.8522 318.672 57.8806C317.812 55.909 316.596 54.356 315.171 53.4108C315.031 54.0823 314.754 54.6673 314.381 55.0818C314.007 55.4964 313.556 55.7192 313.092 55.7181Z" fill="#192129"/>
<path d="M58.9227 81.2052L58.9338 82.9012L68.3257 82.8645L68.3147 81.1686L58.9227 81.2052ZM57.3242 86.3315L57.3352 88.0274L70.7431 87.9751L70.7321 86.2792L57.3242 86.3315ZM62.948 87.5095L62.9682 90.6135L65.0962 90.6052L65.0759 87.5012L62.948 87.5095ZM67.0347 81.1736L67.0424 82.3575C67.0505 83.6055 67.0594 84.9655 66.6078 86.8712L68.7052 87.0711C69.1564 85.1173 69.1467 83.6293 69.1384 82.3494L69.1306 81.1654L67.0347 81.1736ZM58.6928 90.1021L58.7038 91.7821L67.0877 91.7494L67.1113 95.3653L69.2393 95.357L69.2047 90.0611L58.6928 90.1021ZM81.8452 80.4918L81.9419 95.3075L83.9739 95.2995L83.8772 80.4839L81.8452 80.4918ZM79.9465 86.2112L79.9576 87.9072L82.4216 87.8976L82.4105 86.2016L79.9465 86.2112ZM78.5349 80.7607L78.6254 94.6164L80.6094 94.6087L80.5189 80.753L78.5349 80.7607ZM71.776 82.1631L71.8318 90.7229L73.9598 90.7146L73.9039 82.1548L71.776 82.1631ZM71.8266 89.9229L71.8385 91.7469L72.8625 91.7429C74.3665 91.737 76.062 91.6504 77.9957 91.2908L77.7757 89.4677C75.9381 89.8269 74.2746 89.9134 72.8506 89.9189L71.8266 89.9229ZM92.6965 83.6015L92.7076 85.3134L96.1476 85.3L96.1364 83.5881L92.6965 83.6015ZM88.5059 81.3778L88.5163 82.9778C88.53 85.0737 87.5194 87.1257 85.0767 87.9512L86.2076 89.6108C89.0009 88.5759 90.2481 85.995 90.2283 82.9711L90.2179 81.3711L88.5059 81.3778ZM88.9699 81.376L88.9804 82.992C88.9987 85.7919 90.2309 88.2671 92.8931 89.2167L94.0185 87.5803C91.6773 86.7895 90.6888 84.8893 90.6764 82.9853L90.6659 81.3694L88.9699 81.376ZM95.38 80.455L95.4513 91.3828L97.5793 91.3745L97.508 80.4467L95.38 80.455ZM87.7839 93.3327L87.795 95.0286L97.9229 94.9891L97.9118 93.2932L87.7839 93.3327ZM87.7642 90.3087L87.7901 94.2767L89.9341 94.2683L89.9082 90.3004L87.7642 90.3087ZM111.388 80.3765L111.449 89.7683L113.577 89.76L113.515 80.3682L111.388 80.3765ZM112.948 84.1465L112.96 85.8904L115.52 85.8805L115.508 84.1365L112.948 84.1465ZM108.762 89.9388C105.706 89.9508 103.792 90.9342 103.803 92.5982C103.814 94.2461 105.74 95.2146 108.796 95.2027C111.852 95.1908 113.766 94.2073 113.755 92.5594C113.744 90.8954 111.818 89.9269 108.762 89.9388ZM108.772 91.5388C110.644 91.5315 111.638 91.8636 111.643 92.5676C111.648 93.2716 110.658 93.6114 108.786 93.6188C106.914 93.6261 105.92 93.2939 105.915 92.5899C105.911 91.886 106.9 91.5461 108.772 91.5388ZM101.861 81.8217L101.872 83.4697L110.591 83.4357L110.581 81.7877L101.861 81.8217ZM106.243 83.9486C104.083 83.9571 102.602 85.0348 102.612 86.6188C102.623 88.2188 104.117 89.2689 106.277 89.2605C108.421 89.2522 109.902 88.1904 109.892 86.5904C109.882 85.0064 108.387 83.9403 106.243 83.9486ZM106.253 85.5006C107.197 85.4969 107.855 85.8783 107.86 86.5983C107.865 87.3183 107.211 87.7049 106.267 87.7086C105.307 87.7123 104.665 87.3308 104.66 86.6108C104.655 85.8908 105.293 85.5043 106.253 85.5006ZM105.147 80.3049L105.162 82.6888L107.29 82.6805L107.275 80.2966L105.147 80.3049ZM122.454 89.5494C119.254 89.5619 117.213 90.6259 117.225 92.3858C117.236 94.1138 119.291 95.1618 122.491 95.1493C125.691 95.1368 127.732 94.0728 127.721 92.3449C127.709 90.5849 125.654 89.5369 122.454 89.5494ZM122.465 91.1494C124.465 91.1416 125.603 91.5531 125.609 92.3531C125.614 93.1371 124.48 93.5415 122.48 93.5493C120.48 93.5571 119.342 93.1616 119.337 92.3776C119.332 91.5776 120.465 91.1572 122.465 91.1494ZM117.31 81.0094L117.321 82.6894L126.697 82.6528L126.686 80.9729L117.31 81.0094ZM115.845 86.9672L115.856 88.6632L129.2 88.6111L129.189 86.9151L115.845 86.9672ZM120.773 84.372L120.792 87.3799L122.904 87.3717L122.884 84.3637L120.773 84.372ZM125.454 80.9777L125.462 82.1937C125.47 83.3456 125.477 84.4176 125.087 85.9391L127.2 86.1549C127.59 84.6174 127.582 83.3534 127.574 82.1854L127.566 80.9694L125.454 80.9777ZM133.526 87.2022L133.548 90.5301L135.66 90.5219L135.638 87.194L133.526 87.2022ZM140.137 80.2644L140.21 91.4162L142.354 91.4078L142.281 80.256L140.137 80.2644ZM131.693 93.1614L131.704 94.8574L142.696 94.8145L142.685 93.1185L131.693 93.1614ZM131.674 90.3455L131.696 93.5774L133.824 93.5691L133.802 90.3372L131.674 90.3455ZM129.896 87.5844C132.568 87.558 136.088 87.4642 139.3 86.8757L139.146 85.3723C135.997 85.8166 132.333 85.8789 129.629 85.9054L129.896 87.5844ZM137.34 88.1793L137.351 89.8273L140.679 89.8143L140.668 88.1664L137.34 88.1793ZM130.942 81.0363L130.953 82.7162L137.241 82.6917L137.23 81.0117L130.942 81.0363ZM135.886 81.017L135.889 81.529C135.894 82.361 135.904 83.8649 135.567 86.0583L137.647 86.1941C138.017 83.9847 138.007 82.3847 138.001 81.5207L137.998 81.0088L135.886 81.017ZM150.313 80.4327C146.921 80.4459 144.959 81.3496 144.969 82.9816C144.98 84.6135 146.954 85.5018 150.346 85.4886C153.722 85.4754 155.7 84.5717 155.689 82.9397C155.679 81.3078 153.689 80.4195 150.313 80.4327ZM150.323 81.9847C152.467 81.9763 153.477 82.2924 153.481 82.9484C153.486 83.6363 152.48 83.9283 150.336 83.9366C148.192 83.945 147.182 83.6609 147.177 82.973C147.173 82.317 148.179 81.993 150.323 81.9847ZM143.646 86.2027L143.657 87.8827L157.049 87.8305L157.038 86.1505L143.646 86.2027ZM145.199 88.7087L145.209 90.2927L153.353 90.2609L153.358 91.0129L145.23 91.0446L145.248 93.8285L147.344 93.8203L147.336 92.5084L155.464 92.4767L155.439 88.6688L145.199 88.7087ZM145.245 93.3645L145.256 94.9645L155.864 94.9231L155.853 93.3232L145.245 93.3645ZM170.623 80.1455L170.671 87.5373L172.799 87.529L172.751 80.1372L170.623 80.1455ZM167.666 83.101L167.677 84.797L171.453 84.7823L171.442 83.0863L167.666 83.101ZM164.45 80.5696C162.21 80.5783 160.539 81.9928 160.552 83.9928C160.565 85.9767 162.254 87.3942 164.494 87.3854C166.734 87.3767 168.389 85.9462 168.376 83.9623C168.363 81.9623 166.69 80.5608 164.45 80.5696ZM164.461 82.2975C165.549 82.2933 166.337 82.9142 166.344 83.9702C166.351 85.0422 165.571 85.6692 164.483 85.6735C163.395 85.6777 162.591 85.0568 162.584 83.9849C162.577 82.9289 163.373 82.3018 164.461 82.2975ZM163.012 88.2072L163.022 89.8392L170.702 89.8092L170.708 90.6732L163.044 90.7031L163.066 94.047L165.178 94.0388L165.166 92.2308L172.83 92.2009L172.803 88.169L163.012 88.2072ZM163.06 93.183L163.071 94.831L173.263 94.7912L173.252 93.1433L163.06 93.183ZM184.478 80.0754L184.575 94.9391L186.703 94.9308L186.606 80.0671L184.478 80.0754ZM175.133 89.7919L175.144 91.5199L176.456 91.5148C179.16 91.5042 181.336 91.4157 183.733 90.9744L183.514 89.2632C181.164 89.6724 179.069 89.7766 176.445 89.7868L175.133 89.7919ZM175.062 81.3762L175.073 83.0721L179.889 83.0534L179.904 85.4053L175.104 85.424L175.137 90.4319L177.297 90.4235L177.275 87.0956L182.091 87.0768L182.054 81.3489L175.062 81.3762ZM198.508 80.0207L198.605 94.8844L200.717 94.8762L200.62 80.0125L198.508 80.0207ZM195.182 85.2497L195.193 86.9617L199.161 86.9462L199.15 85.2342L195.182 85.2497ZM188.74 81.2268L188.807 91.4346L195.927 91.4068L195.86 81.199L193.764 81.2072L193.787 84.7911L190.875 84.8025L190.852 81.2186L188.74 81.2268ZM190.886 86.4505L193.798 86.4391L193.819 89.703L190.907 89.7144L190.886 86.4505ZM203.741 87.6483L203.752 89.3123L214.168 89.2717L214.157 87.6077L203.741 87.6483ZM202.197 91.4144L202.209 93.1423L215.617 93.09L215.605 91.3621L202.197 91.4144ZM203.698 81.0885L203.744 88.1123L205.904 88.1039L205.869 82.792L213.997 82.7603L213.986 81.0483L203.698 81.0885ZM205.223 84.3465L205.234 85.9945L213.682 85.9615L213.671 84.3136L205.223 84.3465ZM224.76 83.1983L224.771 84.9103L227.235 84.9007L227.224 83.1887L224.76 83.1983ZM224.79 87.7742L224.801 89.5022L227.265 89.4926L227.254 87.7646L224.79 87.7742ZM229.555 79.9156L229.651 94.7313L231.683 94.7234L231.587 79.9077L229.555 79.9156ZM226.596 80.1512L226.687 94.0709L228.671 94.0631L228.58 80.1434L226.596 80.1512ZM222.185 80.9844C220.233 80.992 218.999 83.0288 219.021 86.3727C219.043 89.7327 220.304 91.7597 222.256 91.7521C224.224 91.7445 225.474 89.7076 225.453 86.3476C225.431 83.0037 224.153 80.9767 222.185 80.9844ZM222.199 82.9843C223.031 82.9811 223.518 84.0992 223.533 86.3551C223.547 88.6271 223.075 89.7329 222.243 89.7362C221.427 89.7394 220.939 88.6373 220.925 86.3653C220.91 84.1093 221.383 82.9875 222.199 82.9843ZM243.79 81.7801L243.801 83.5241L246.361 83.5141L246.35 81.7701L243.79 81.7801ZM243.811 84.996L243.822 86.74L246.382 86.73L246.371 84.986L243.811 84.996ZM242.305 79.8659L242.362 88.6017L244.49 88.5934L244.433 79.8576L242.305 79.8659ZM234.606 89.2399L234.617 90.9359L242.377 90.9056L242.402 94.6816L244.53 94.6733L244.494 89.2014L234.606 89.2399ZM236.903 80.6869C234.615 80.6959 232.88 82.2226 232.894 84.3346C232.908 86.4466 234.662 87.9437 236.95 87.9348C239.238 87.9259 240.972 86.4151 240.958 84.3031C240.944 82.1912 239.191 80.678 236.903 80.6869ZM236.914 82.4949C238.034 82.4905 238.871 83.1433 238.878 84.3113C238.886 85.4792 238.058 86.1545 236.938 86.1588C235.818 86.1632 234.982 85.4945 234.974 84.3265C234.967 83.1585 235.794 82.4993 236.914 82.4949ZM253.397 80.5586C250.277 80.5708 247.872 82.2922 247.889 84.8681C247.906 87.4601 250.333 89.1466 253.453 89.1344C256.573 89.1223 258.978 87.4169 258.961 84.8249C258.944 82.249 256.517 80.5464 253.397 80.5586ZM253.408 82.2866C255.424 82.2787 256.87 83.2331 256.881 84.833C256.891 86.417 255.457 87.3826 253.441 87.3905C251.425 87.3983 249.979 86.444 249.969 84.86C249.958 83.26 251.392 82.2944 253.408 82.2866ZM246.778 91.1445L246.789 92.8884L260.197 92.8361L260.186 91.0922L246.778 91.1445ZM260.697 91.2502L260.709 92.9781L274.117 92.9258L274.105 91.1979L260.697 91.2502ZM266.295 88.4283L266.318 91.9323L268.446 91.924L268.423 88.42L266.295 88.4283ZM262.133 80.7485L262.144 82.4285L270.432 82.3962L270.442 83.9801L262.186 84.0123L262.213 88.1723L264.325 88.164L264.309 85.6681L272.565 85.6359L272.533 80.708L262.133 80.7485ZM262.208 87.3243L262.219 89.0362L272.923 88.9945L272.912 87.2825L262.208 87.3243ZM58.1805 112.12L58.1919 113.864L59.3919 113.86C62.0959 113.849 63.8713 113.762 65.8529 113.386L65.6338 111.675C63.7161 112.035 62.0045 112.105 59.3805 112.116L58.1805 112.12ZM58.1268 103.896L58.1848 112.776L60.3128 112.768L60.2659 105.584L64.8419 105.566L64.8308 103.87L58.1268 103.896ZM67.7342 102.547L67.8312 117.411L69.9592 117.402L69.8622 102.539L67.7342 102.547ZM64.1355 107.665L64.1468 109.393L68.6748 109.375L68.6635 107.647L64.1355 107.665ZM77.0016 110.591L77.0164 112.847L79.1283 112.839L79.1136 110.583L77.0016 110.591ZM71.3784 109.493L71.3893 111.173L84.7812 111.12L84.7703 109.44L71.3784 109.493ZM72.8858 112.463L72.8966 114.127L81.0566 114.095L81.0776 117.311L83.2056 117.303L83.1737 112.423L72.8858 112.463ZM78.0388 102.795C74.7748 102.807 72.6861 103.936 72.6979 105.744C72.7098 107.568 74.8131 108.679 78.0771 108.667C81.3251 108.654 83.4297 107.526 83.4178 105.702C83.406 103.894 81.2867 102.782 78.0388 102.795ZM78.0495 104.443C80.0655 104.435 81.2203 104.862 81.2258 105.71C81.2316 106.59 80.0823 107.011 78.0663 107.019C76.0343 107.027 74.8956 106.615 74.8899 105.735C74.8844 104.887 76.0175 104.451 78.0495 104.443ZM97.6125 102.43L97.6691 111.102L99.7971 111.094L99.7405 102.422L97.6125 102.43ZM98.9157 105.977L98.9271 107.737L101.743 107.726L101.732 105.966L98.9157 105.977ZM90.1689 111.707L90.2042 117.115L99.8361 117.078L99.8008 111.67L97.6888 111.678L97.6962 112.798L92.2722 112.819L92.2649 111.699L90.1689 111.707ZM92.2826 114.419L97.7066 114.398L97.7133 115.422L92.2893 115.443L92.2826 114.419ZM88.0849 103.748L88.0959 105.428L96.8158 105.393L96.8048 103.714L88.0849 103.748ZM92.4664 105.81C90.3065 105.819 88.8254 106.881 88.8356 108.449C88.8458 110.017 90.3407 111.067 92.5007 111.058C94.6447 111.05 96.1258 109.988 96.1156 108.42C96.1053 106.852 94.6104 105.802 92.4664 105.81ZM92.4766 107.362C93.4206 107.359 94.0791 107.74 94.0836 108.428C94.0882 109.132 93.4346 109.503 92.4906 109.506C91.5306 109.51 90.8882 109.145 90.8836 108.441C90.8791 107.753 91.5166 107.366 92.4766 107.362ZM91.3718 102.343L91.387 104.679L93.515 104.67L93.4998 102.334L91.3718 102.343ZM112.203 102.357L112.3 117.221L114.428 117.213L114.331 102.349L112.203 102.357ZM102.858 112.074L102.87 113.802L104.182 113.797C106.886 113.786 109.061 113.698 111.458 113.256L111.239 111.545C108.89 111.954 106.794 112.059 104.17 112.069L102.858 112.074ZM102.787 103.658L102.798 105.354L107.614 105.335L107.63 107.687L102.83 107.706L102.862 112.714L105.022 112.706L105.001 109.378L109.817 109.359L109.779 103.631L102.787 103.658ZM119.347 103.818L119.354 104.762C119.366 106.618 118.322 108.574 115.88 109.383L116.963 111.059C119.805 110.12 121.1 107.539 121.082 104.755L121.075 103.811L119.347 103.818ZM119.795 103.816L119.802 104.76C119.819 107.384 121.099 109.843 123.857 110.744L124.886 109.076C122.545 108.301 121.525 106.481 121.514 104.753L121.507 103.809L119.795 103.816ZM124.001 105.863L124.012 107.591L126.828 107.58L126.817 105.852L124.001 105.863ZM116.415 103.173L116.426 104.853L124.394 104.822L124.383 103.142L116.415 103.173ZM118.28 111.838L118.291 113.534L126.259 113.503L126.282 117.135L128.41 117.126L128.376 111.798L118.28 111.838ZM126.186 102.319L126.243 111.135L128.371 111.126L128.314 102.311L126.186 102.319ZM140.009 102.281L140.078 112.921L142.222 112.912L142.152 102.273L140.009 102.281ZM132.364 115.159L132.376 116.855L142.615 116.815L142.604 115.119L132.364 115.159ZM132.343 111.879L132.369 115.847L134.497 115.839L134.471 111.871L132.343 111.879ZM134.095 103.232C131.823 103.241 130.073 104.816 130.087 107.008C130.101 109.184 131.872 110.761 134.144 110.752C136.416 110.743 138.149 109.152 138.135 106.976C138.121 104.784 136.367 103.223 134.095 103.232ZM134.107 105.072C135.195 105.068 136.047 105.768 136.055 106.984C136.063 108.184 135.22 108.892 134.132 108.896C133.028 108.9 132.175 108.2 132.167 107C132.159 105.784 133.003 105.076 134.107 105.072ZM146.623 109.439L146.634 111.119L160.058 111.067L160.047 109.387L146.623 109.439ZM152.374 110.521L152.395 113.641L154.555 113.632L154.534 110.512L152.374 110.521ZM148.228 115.081L148.239 116.793L158.623 116.752L158.612 115.04L148.228 115.081ZM148.21 112.361L148.231 115.513L150.375 115.505L150.354 112.353L148.21 112.361ZM153.282 102.485C150.082 102.498 147.962 103.706 147.974 105.578C147.986 107.466 150.122 108.642 153.322 108.629C156.506 108.617 158.642 107.424 158.63 105.536C158.618 103.664 156.466 102.473 153.282 102.485ZM153.293 104.165C155.165 104.158 156.336 104.633 156.342 105.545C156.348 106.457 155.183 106.926 153.311 106.933C151.439 106.94 150.268 106.481 150.262 105.569C150.256 104.657 151.421 104.172 153.293 104.165ZM170.671 102.161L170.725 110.529L172.869 110.521L172.815 102.153L170.671 102.161ZM163.018 111.231L163.054 116.831L172.91 116.793L172.874 111.193L163.018 111.231ZM170.789 112.865L170.803 115.121L165.123 115.143L165.109 112.887L170.789 112.865ZM164.755 102.856C162.451 102.865 160.733 104.344 160.746 106.424C160.76 108.488 162.498 109.969 164.802 109.96C167.106 109.951 168.808 108.457 168.794 106.393C168.781 104.313 167.059 102.847 164.755 102.856ZM164.767 104.616C165.887 104.612 166.707 105.265 166.714 106.401C166.722 107.521 165.91 108.18 164.79 108.184C163.67 108.189 162.834 107.536 162.826 106.416C162.819 105.28 163.647 104.621 164.767 104.616ZM181.122 102.841C178.002 102.853 175.597 104.574 175.614 107.15C175.631 109.742 178.058 111.429 181.178 111.416C184.298 111.404 186.703 109.699 186.686 107.107C186.669 104.531 184.242 102.828 181.122 102.841ZM181.133 104.569C183.149 104.561 184.596 105.515 184.606 107.115C184.616 108.699 183.183 109.665 181.167 109.672C179.151 109.68 177.705 108.726 177.694 107.142C177.684 105.542 179.117 104.576 181.133 104.569ZM174.503 113.426L174.515 115.17L187.922 115.118L187.911 113.374L174.503 113.426ZM188.423 113.532L188.434 115.26L201.842 115.208L201.831 113.48L188.423 113.532ZM194.02 110.71L194.043 114.214L196.171 114.206L196.148 110.702L194.02 110.71ZM189.858 103.031L189.869 104.711L198.157 104.678L198.168 106.262L189.912 106.294L189.939 110.454L192.051 110.446L192.034 107.95L200.29 107.918L200.258 102.99L189.858 103.031ZM189.933 109.606L189.944 111.318L200.648 111.276L200.637 109.565L189.933 109.606ZM205.516 103.225L205.562 110.377L212.618 110.35L212.572 103.198L205.516 103.225ZM210.487 104.886L210.511 108.678L207.647 108.689L207.623 104.897L210.487 104.886ZM214.612 101.974L214.682 112.774L216.81 112.765L216.74 101.966L214.612 101.974ZM216.159 106.24L216.171 107.984L218.747 107.974L218.735 106.23L216.159 106.24ZM207.272 114.867L207.283 116.563L217.363 116.523L217.352 114.827L207.272 114.867ZM207.251 111.747L207.277 115.715L209.405 115.706L209.379 111.738L207.251 111.747ZM230.087 107.514L230.098 109.258L232.706 109.247L232.695 107.503L230.087 107.514ZM228.466 101.904L228.563 116.72L230.707 116.711L230.61 101.896L228.466 101.904ZM219.451 103.363L219.512 112.563L221.64 112.555L221.579 103.355L219.451 103.363ZM219.504 111.379L219.515 113.139L220.795 113.134C222.971 113.125 225.354 112.988 227.799 112.467L227.564 110.724C225.183 111.213 222.896 111.366 220.784 111.374L219.504 111.379ZM233.003 113.278L233.014 115.006L246.422 114.954L246.411 113.226L233.003 113.278ZM238.598 110.088L238.622 113.672L240.75 113.664L240.726 110.08L238.598 110.088ZM234.343 102.841L234.393 110.553L244.937 110.512L244.887 102.8L242.775 102.808L242.79 105.08L236.47 105.105L236.455 102.833L234.343 102.841ZM236.481 106.769L242.801 106.744L242.814 108.824L236.494 108.849L236.481 106.769ZM252.704 106.801L252.715 108.529L255.163 108.52L255.152 106.792L252.704 106.801ZM249.512 103.118L249.528 105.614C249.545 108.126 248.794 110.769 246.627 112.121L247.917 113.716C250.276 112.251 251.182 108.967 251.16 105.607L251.144 103.111L249.512 103.118ZM249.976 103.116L249.992 105.516C250.012 108.716 250.769 111.913 253.131 113.36L254.272 111.691C252.247 110.387 251.607 107.926 251.592 105.51L251.576 103.11L249.976 103.116ZM257.536 101.807L257.632 116.622L259.664 116.614L259.567 101.799L257.536 101.807ZM254.529 102.042L254.62 115.962L256.604 115.954L256.513 102.035L254.529 102.042ZM263.759 109.302L263.786 113.462L265.898 113.454L265.871 109.294L263.759 109.302ZM269.135 109.281L269.162 113.441L271.29 113.433L271.263 109.273L269.135 109.281ZM260.84 113.17L260.852 114.898L274.26 114.845L274.248 113.117L260.84 113.17ZM267.459 102.488C264.259 102.5 261.933 104.077 261.949 106.493C261.965 108.909 264.311 110.452 267.511 110.44C270.695 110.427 273.037 108.866 273.021 106.45C273.005 104.034 270.643 102.475 267.459 102.488ZM267.47 104.152C269.534 104.144 270.915 104.986 270.925 106.458C270.934 107.914 269.564 108.784 267.5 108.792C265.436 108.8 264.054 107.941 264.045 106.485C264.035 105.013 265.406 104.16 267.47 104.152ZM276.282 111.093L277.818 111.087L278.115 105.182L278.165 102.958L275.813 102.967L275.891 105.191L276.282 111.093ZM277.062 115.346C277.91 115.343 278.529 114.685 278.524 113.805C278.518 112.925 277.89 112.287 277.042 112.291C276.21 112.294 275.59 112.936 275.596 113.816C275.601 114.696 276.23 115.35 277.062 115.346Z" fill="white"/>
</svg>
