<svg width="32" height="32" viewBox="0 0 32 32" fill="none" xmlns="http://www.w3.org/2000/svg">
<g clip-path="url(#clip0_109_1509)">
<path d="M16 32C24.8366 32 32 24.8366 32 16C32 7.16344 24.8366 0 16 0C7.16344 0 0 7.16344 0 16C0 24.8366 7.16344 32 16 32Z" fill="black"/>
<path fill-rule="evenodd" clip-rule="evenodd" d="M20.3475 13.187C21.709 14.1608 23.3416 14.6829 25.0155 14.68V11.331C24.6862 11.3322 24.3578 11.2987 24.0355 11.231V13.867C22.3615 13.8696 20.7289 13.3471 19.3675 12.373V19.2C19.3668 20.3217 19.0615 21.4222 18.4842 22.3839C17.9068 23.3456 17.0791 24.1325 16.0894 24.6604C15.0997 25.1884 13.9852 25.4376 12.8649 25.3815C11.7446 25.3255 10.6605 24.9662 9.72852 24.342C10.5889 25.2211 11.6917 25.8241 12.8962 26.0741C14.1006 26.324 15.3523 26.2096 16.4915 25.7454C17.6307 25.2812 18.6058 24.4883 19.2926 23.4677C19.9793 22.4471 20.3466 21.2451 20.3475 20.015V13.187ZM21.5565 9.809C20.8654 9.0552 20.4406 8.09544 20.3475 7.077V6.646H19.4185C19.5332 7.29366 19.7828 7.90997 20.1511 8.45489C20.5194 8.99981 20.9983 9.46117 21.5565 9.809ZM11.8905 21.723C11.5278 21.2435 11.327 20.6612 11.3171 20.0601C11.3072 19.459 11.4887 18.8703 11.8354 18.3791C12.182 17.888 12.6759 17.5198 13.2456 17.3278C13.8153 17.1358 14.4313 17.1299 15.0045 17.311V13.888C14.6798 13.8438 14.3521 13.8251 14.0245 13.832V16.5C13.346 16.2845 12.6113 16.3325 11.9666 16.6343C11.3219 16.9361 10.8145 17.4697 10.5454 18.1287C10.2763 18.7878 10.2653 19.524 10.5146 20.1908C10.7639 20.8576 11.2551 21.4061 11.8905 21.727V21.723Z" fill="#EE1D52"/>
<path fill-rule="evenodd" clip-rule="evenodd" d="M19.3685 12.371C20.7299 13.3451 22.3626 13.8676 24.0365 13.865V11.229C23.0826 11.0252 22.216 10.5288 21.5575 9.809C20.9993 9.46117 20.5205 8.99981 20.1521 8.45489C19.7838 7.90997 19.5342 7.29366 19.4195 6.646H16.9795V20.019C16.9758 20.6104 16.7872 21.1858 16.44 21.6647C16.0929 22.1435 15.6046 22.5017 15.0437 22.6891C14.4827 22.8766 13.8772 22.8838 13.312 22.7098C12.7467 22.5359 12.25 22.1894 11.8915 21.719C11.2676 21.3916 10.7882 20.8435 10.5468 20.1816C10.3054 19.5197 10.3193 18.7915 10.586 18.1394C10.8527 17.4872 11.3528 16.9579 11.9888 16.6548C12.6249 16.3516 13.351 16.2964 14.0255 16.5V13.832C12.8182 13.8561 11.6443 14.2329 10.6485 14.916C9.65271 15.5991 8.87855 16.5586 8.42143 17.6763C7.96431 18.794 7.84421 20.0211 8.07594 21.2062C8.30767 22.3913 8.8811 23.4828 9.72555 24.346C10.6579 24.9714 11.7427 25.3316 12.864 25.3881C13.9852 25.4446 15.1008 25.1952 16.0913 24.6667C17.0817 24.1381 17.9099 23.3502 18.4872 22.3873C19.0644 21.4244 19.3691 20.3227 19.3685 19.2V12.371Z" fill="white"/>
<path fill-rule="evenodd" clip-rule="evenodd" d="M24.0369 11.2291V10.5161C23.1606 10.5175 22.3016 10.2725 21.5579 9.80905C22.2162 10.5289 23.0829 11.0254 24.0369 11.2291ZM19.4199 6.64605C19.3973 6.51851 19.3803 6.39006 19.3689 6.26105V5.83105H16.0009V19.2001C15.9987 19.6826 15.8733 20.1565 15.6366 20.577C15.4 20.9975 15.0599 21.3506 14.6486 21.6029C14.2373 21.8551 13.7684 21.9982 13.2863 22.0186C12.8042 22.0389 12.325 21.9358 11.8939 21.7191C12.2524 22.1895 12.749 22.5359 13.3143 22.7099C13.8795 22.8839 14.4851 22.8766 15.046 22.6892C15.607 22.5018 16.0952 22.1436 16.4424 21.6647C16.7895 21.1859 16.9782 20.6105 16.9819 20.0191V6.64605H19.4199ZM14.0259 13.8321V13.0731C12.6383 12.8787 11.2258 13.161 10.0194 13.8737C8.81309 14.5864 7.88428 15.6874 7.38491 16.9965C6.88555 18.3057 6.84519 19.7455 7.27043 21.0806C7.69567 22.4156 8.56135 23.5669 9.72587 24.3461C8.88142 23.4828 8.308 22.3914 8.07627 21.2063C7.84454 20.0211 7.96464 18.7941 8.42176 17.6764C8.87887 16.5587 9.65304 15.5991 10.6488 14.916C11.6446 14.2329 12.8185 13.8561 14.0259 13.8321Z" fill="#69C9D0"/>
</g>
<defs>
<clipPath id="clip0_109_1509">
<rect width="32" height="32" fill="white"/>
</clipPath>
</defs>
</svg>
